<svg xmlns="http://www.w3.org/2000/svg" viewBox="0 0 360 283" enable-background="new 0 0 360 283"><g stroke-width="4" stroke-linecap="round" stroke-linejoin="round" stroke-miterlimit="10"><path stroke="#3B4251" d="M170.8 234.9l-14-97.2c0-12.4 5.1-16.1 8-16.1 2.9 0 9.6 3.6 9.6 16.1 0 4.1-1.2 5.8-4.2 5.8s-4.2-1.7-4.2-5.8c0-12.4 6.7-16.1 9.6-16.1s9.6 3.6 9.6 16.1c0 4.1-1.2 5.8-4.2 5.8s-4.2-1.7-4.2-5.8c0-12.4 6.7-16.1 9.6-16.1s9.6 3.6 9.6 16.1c0 4.1-1.2 5.8-4.2 5.8s-4.2-1.7-4.2-5.8c0-12.4 6.7-16.1 9.6-16.1s8 3.6 8 16.1l-16.1 97.2" fill="none"/><g stroke="#3B4251"><path d="M156 234.9l4 36.2c.2 3.7 12.9 6.7 15.4 6.7h7.8c2.5 0 15.1-3.1 15.4-6.7l4-36.2h-46.6z" fill="none"/><path fill="#8EC348" d="M203.4 248.8c0 1.6-1.2 2.8-2.8 2.8h-42.9c-1.6 0-2.8-1.2-2.8-2.8 0-1.6 1.2-2.8 2.8-2.8h42.9c1.6 0 2.8 1.2 2.8 2.8zm0 12.4c0 1.6-1.2 2.8-2.8 2.8h-42.9c-1.6 0-2.8-1.2-2.8-2.8 0-1.6 1.2-2.8 2.8-2.8h42.9c1.6-.1 2.8 1.3 2.8 2.8z"/></g><path stroke="#fff" d="M200.5 234.9c3.7 0 7.1-3.1 7.5-6.7l5.9-36.2c.5-3.7 2.7-9.1 5.2-11.9 0 0 19.8-22.9 19.8-42.4 0-32.5-26.4-58.9-58.9-58.9h-1.5c-32.5 0-58.9 26.4-58.9 58.9 0 19.6 19.8 42.4 19.8 42.4 2.5 2.8 4.8 8.1 5.2 11.9l5.9 36.2c.5 3.7 3.7 6.7 7.5 6.7h42.5z" fill="none"/></g><g stroke="#fff" stroke-width="4" stroke-linecap="round" stroke-linejoin="round" fill="none"><path d="M64.8 69l5.9 3.4"/><path stroke-dasharray="9.8273,9.8273" d="M80.3 77.9l14.5 8.4"/><path d="M99.5 89.1l5.9 3.4"/></g><g stroke="#fff" stroke-width="4" stroke-linecap="round" stroke-linejoin="round" fill="none"><path d="M136.7 61.3l-3.4-5.9"/><path stroke-dasharray="9.8273,9.8273" d="M127.7 45.8l-8.4-14.4"/><path d="M116.5 26.5l-3.4-5.9"/></g><g stroke="#fff" stroke-width="4" stroke-linecap="round" stroke-linejoin="round" fill="none"><path d="M179.2 3v6.8"/><path stroke-dasharray="9.8189,9.8189" d="M179.2 20.9v16.6"/><path d="M179.2 43.2v6.8"/></g><g stroke="#fff" stroke-width="4" stroke-linecap="round" stroke-linejoin="round" fill="none"><path d="M245.2 20.7l-3.4 5.9"/><path stroke-dasharray="9.8273,9.8273" d="M236.2 36.2l-8.4 14.5"/><path d="M225.2 55.4l-3.4 5.9"/></g><g stroke="#fff" stroke-width="4" stroke-linecap="round" stroke-linejoin="round" fill="none"><path d="M293.5 69l-5.9 3.4"/><path stroke-dasharray="9.8273,9.8273" d="M278 77.9l-14.4 8.4"/><path d="M258.8 89.1l-5.9 3.4"/></g><g stroke="#fff" stroke-width="4" stroke-linecap="round" stroke-linejoin="round" fill="none"><path d="M311.2 135.1h-6.8"/><path stroke-dasharray="9.8189,9.8189" d="M293.3 135.1h-16.6"/><path d="M271.1 135.1h-6.8"/></g><g stroke="#fff" stroke-width="4" stroke-linecap="round" stroke-linejoin="round" fill="none"><path d="M252.9 177.6l5.9 3.4"/><path stroke-dasharray="9.8273,9.8273" d="M268.4 186.6l14.5 8.4"/><path d="M287.6 197.7l5.9 3.4"/></g><g stroke="#fff" stroke-width="4" stroke-linecap="round" stroke-linejoin="round" fill="none"><path d="M94.1 135.1h-6.8"/><path stroke-dasharray="9.8189,9.8189" d="M76.1 135.1h-16.6"/><path d="M53.9 135.1h-6.8"/></g><g stroke="#fff" stroke-width="4" stroke-linecap="round" stroke-linejoin="round" fill="none"><path d="M105.4 177.6l-5.9 3.4"/><path stroke-dasharray="9.8273,9.8273" d="M89.9 186.6l-14.4 8.4"/><path d="M70.7 197.7l-5.9 3.4"/></g></svg>