<svg xmlns="http://www.w3.org/2000/svg" viewBox="146.5 107.7 67.9 67.9" enable-background="new 146.5 107.7 67.9 67.9"><path fill="#8CC640" d="M180.5 175.6c-18.7 0-33.9-15.2-33.9-33.9s15.2-33.9 33.9-33.9 33.9 15.2 33.9 33.9-15.2 33.9-33.9 33.9zm0-64.9c-17.1 0-30.9 13.9-30.9 30.9 0 17.1 13.9 30.9 30.9 30.9s30.9-13.9 30.9-30.9-13.9-30.9-30.9-30.9zM180.5 147.5c-3.2 0-5.9-2.6-5.9-5.9s2.6-5.9 5.9-5.9 5.9 2.6 5.9 5.9-2.7 5.9-5.9 5.9zm0-9.7c-2.1 0-3.9 1.7-3.9 3.9s1.7 3.9 3.9 3.9 3.9-1.7 3.9-3.9-1.8-3.9-3.9-3.9zM179.6 157.1c-8.2-.5-14.6-7.3-14.6-15.5 0-8.5 7-15.5 15.5-15.5s15.5 7 15.5 15.5c0 2.8-.8 5.5-2.2 8-.3.5-.9.6-1.3.4-1.1-.6-2.3-.2-2.9.8-.2.3-.5.5-.8.5-.3 0-.6-.2-.8-.4-.4-.6-1.1-1-1.9-1-1.2 0-2.2 1-2.2 2.2 0 .3.1.7.2 1 .1.2.2.4.2.6 0 .6-.5 1-1 1h-.4c-1 0-2 .7-2.2 1.8-.3.3-.7.6-1.1.6zm.9-28.9c-7.4 0-13.5 6.1-13.5 13.5 0 6.9 5.2 12.6 11.9 13.4.5-1.2 1.6-2.1 2.9-2.4 0-.2-.1-.4-.1-.7 0-2.3 1.9-4.2 4.2-4.2 1 0 1.9.3 2.7 1 1-.9 2.5-1.2 3.8-.9 1-1.9 1.5-4 1.5-6.2.1-7.5-6-13.5-13.4-13.5zM173.4 134.8c-.1 0-.3 0-.4-.1-.2-.2-.2-.5 0-.7l2.5-2.5c.2-.2.5-.2.7 0s.2.5 0 .7l-2.5 2.5c0 .1-.2.1-.3.1zM172.2 145.5c-.2 0-.4-.1-.5-.4l-.9-3.3c-.1-.3.1-.5.4-.6.3-.1.5.1.6.4l.9 3.3c.1.3-.1.5-.4.6h-.1zM189 140.7c-.2 0-.4-.1-.5-.4l-.9-3.3c-.1-.3.1-.5.4-.6.3-.1.5.1.6.4l.9 3.3c.1.3-.1.5-.4.6h-.1zM184.6 133.1h-.1l-3.4-.7c-.3-.1-.4-.3-.4-.6.1-.3.3-.4.6-.4l3.4.7c.3.1.4.3.4.6-.1.3-.3.4-.5.4zM179 151h-.1l-3.4-.7c-.3-.1-.4-.3-.4-.6.1-.3.3-.4.6-.4l3.4.7c.3.1.4.3.4.6-.1.3-.3.4-.5.4z"/></svg>