<svg xmlns="http://www.w3.org/2000/svg" viewBox="146.5 107.7 67.9 67.9" enable-background="new 146.5 107.7 67.9 67.9"><path fill="#8CC640" d="M180.5 175.6c-18.7 0-33.9-15.2-33.9-33.9s15.2-33.9 33.9-33.9 33.9 15.2 33.9 33.9-15.2 33.9-33.9 33.9zm0-64.9c-17.1 0-30.9 13.9-30.9 30.9 0 17.1 13.9 30.9 30.9 30.9 17.1 0 30.9-13.9 30.9-30.9s-13.9-30.9-30.9-30.9z"/><g fill="#8CC640"><path d="M168.9 135.6c.1.9.2 1.9.2 2.8l-1 .1-.3-1.8c0-.1-.1-.2-.2-.3-.3-.1-.6-.1-1-.1-.6 0-1.1.2-1.5.6-.4.4-.6 1-.6 2 0 .7.2 1.6.3 2.5h3.5c0 .3 0 .7-.1 1h-3.3v.7c0 1.5-.4 2.6-1.2 3.6-.1.1-.1.2.2.2 2.7 0 3.9 0 4.3-.1.2 0 .3-.2.4-.4l.6-1.9c.3.1.7.2 1 .2-.2 1-.5 2.1-.7 3.2h-8.6v-.9l1.3-.1c.1 0 .3-.1.3-.1.7-.7 1-1.8 1-3.2 0-.3 0-.7-.1-1.1h-1.9v-.9h1.7c.1 0 .1 0 .1-.1-.1-.9-.3-1.7-.3-2.3 0-1.2.4-2.1 1.2-2.8.8-.7 1.8-1 3-1 .4-.1 1.2 0 1.7.2zM169.5 148.1h-8.999999999999998v-1.3l1.6-.1h.2c.6-.6.9-1.7.9-3v-.9h-2v-1.3h1.7v-.3c-.1-.7-.2-1.4-.2-1.8 0-1.2.4-2.2 1.3-3 .8-.7 1.9-1.1 3.2-1.1.6 0 1.4.1 1.9.3l.1.1v.1c.1.8.2 1.7.2 2.8v.2l-1.5.2-.3-2.1v-.1c-.2-.1-.5-.1-.9-.1-.6 0-1 .2-1.4.5-.4.4-.6 1-.6 1.8 0 .5.1 1 .1 1.6l.1.7h3.5999999999999996v.3c0 .3 0 .7-.1 1v.2h-3.4v.4c0 1.4-.4 2.5-1.1 3.6 1.8 0 3.6 0 4-.1.1 0 .2-.1.2-.3l.7-2.1h.2l.9.2.3.1v.2c-.2 1-.5 2.1-.7 3.2v.1zm-6.5-.5h6.1c.2-.9.4-1.9.6-2.7l-.5-.1-.6 1.7c-.1.2-.3.5-.6.6-.3.1-1.1.1-4.3.1-.1 0-.3 0-.4-.2-.1-.1 0-.3.1-.4.8-1 1.2-2.1 1.2-3.5v-1h3.4v-.5h-3.4000000000000004v-.2c0-.3-.1-.6-.1-1-.1-.6-.1-1.1-.1-1.6 0-1 .2-1.7.7-2.2.4-.5 1-.7 1.7-.7.3 0 .7 0 1.1.2.2.1.3.3.3.4l.3 1.6.6-.1c-.1-.9-.1-1.7-.2-2.4-.4-.1-1.1-.2-1.6-.2-1.2 0-2.1.3-2.8.9-.7.6-1.1 1.5-1.1 2.6 0 .4.1 1 .2 1.7l.1.5c0 .2-.1.4-.3.4h-1.4v.4h1.9v.2c.1.5.1.9.1 1.2 0 1.5-.4 2.6-1.1 3.4-.1.1-.3.2-.5.2h-1.1v.4h.9c.1.3.4.3.8.3zM177.9 147c-.9.7-2.1 1.1-3.8 1.1-.8 0-1.6-.1-2.3-.3-.2-.9-.3-1.8-.4-2.7.3-.1.7-.2 1-.2l.5 1.7c0 .1.1.2.2.2.4.2.8.3 1.3.3 1.1 0 2-.3 2.6-.8.6-.5 1-1.3 1-2.2 0-1.9-1.3-3-3.8-3-.7 0-1.6.1-2 .2l-.2-.1c.2-1.6.5-3.7.7-5.6h6.5c0 .4 0 .8-.1 1.2h-5.4l-.5 3.3c.4-.1.9-.1 1.6-.1 3.2 0 4.5 1.8 4.5 3.6.2 1.5-.5 2.7-1.4 3.4zM174.2 148.3c-1 0-1.7-.1-2.4-.3h-.2v-.2l-.3-2.1-.1-.8.2-.1c.3-.1.7-.2 1.1-.2h.2l.5 2c.4.2.7.3 1.2.3 1 0 1.9-.3 2.5-.8.5-.4.9-1.2.9-2 0-2.2-1.9-2.7-3.5-2.7-.7 0-1.5.1-1.8.1h-.2l-.3-.3v-.1c.1-.9.4-3.3.7-5.6v-.2h7v.2c0 .4 0 .8-.1 1.2v.2h-5.3l-.4 2.4-.1.4c.4 0 .8-.1 1.3-.1 3.3 0 4.8 2 4.8 3.9 0 1.5-.6 2.8-1.7 3.6-1.1.8-2.4 1.2-4 1.2zm-2.1-.7c.5.1 1.2.2 2.1.2 1.5 0 2.7-.3 3.6-1 1-.7 1.5-1.9 1.5-3.2 0-1.7-1.3-3.4-4.3-3.4-.6 0-1.1 0-1.6.1h-.3l.2-1 .4-2.6v-.2h5.3v-.7h-6c-.3 2.1-.5 4.2-.7 5.2.4 0 1.2-.1 1.8-.1 2.6 0 4 1.2 4 3.2 0 1-.4 1.9-1 2.4-.7.6-1.7.9-2.8.9-.6 0-1-.1-1.4-.3-.1 0-.2-.1-.3-.3l-.4-1.5-.6.1.1.4c.2.5.3 1.1.4 1.8zM188.3 147c-.7.7-1.6 1-2.6 1-1.1 0-1.8-.3-2.5-1-1-1-1.6-2.4-1.6-5 0-2.8.7-4.6 1.8-5.7.7-.7 1.6-1 2.6-1s1.8.3 2.5 1.1c.8.8 1.5 2.5 1.5 5.1 0 2.7-.6 4.4-1.7 5.5zm-4-10c-.6.8-1.1 2.5-1.1 5 0 2 .4 3.5.9 4.2.4.6 1 .9 1.7.9.6 0 1.1-.3 1.5-.7.7-.9 1.1-2.4 1.1-4.6 0-2.5-.4-4.1-.9-4.7-.5-.6-1-.9-1.7-.9-.6 0-1.1.3-1.5.8zM185.7 148.3c-1.1 0-1.9-.3-2.6-1-1.1-1.1-1.7-2.8-1.7-5.2 0-2.7.6-4.6 1.9-5.9.8-.7 1.7-1.1 2.8-1.1 1.1 0 2 .4 2.7 1.1 1 1 1.5 3 1.5 5.3 0 2.6-.6 4.4-1.8 5.7-.7.7-1.7 1.1-2.8 1.1zm.4-12.7c-1 0-1.8.3-2.4 1-1.1 1.1-1.7 3-1.7 5.5 0 2.2.5 3.8 1.5 4.8.6.6 1.3.9 2.3.9 1 0 1.8-.3 2.4-1 1.1-1.1 1.7-2.9 1.7-5.3 0-3.1-1-4.5-1.4-4.9-.7-.7-1.4-1-2.4-1zm-.2 11.8c-.8 0-1.4-.3-2-1-.6-.9-.9-2.5-.9-4.4 0-2.3.4-4.2 1.2-5.1.5-.6 1-.9 1.7-.9.8 0 1.4.3 1.9 1 .3.4.9 1.7.9 4.9 0 2.3-.4 3.8-1.2 4.8-.4.4-1 .7-1.6.7zm0-10.9c-.6 0-1 .2-1.4.7-.7.8-1.1 2.6-1.1 4.8 0 1.8.3 3.3.8 4.1.4.6.9.8 1.5.8.5 0 1-.2 1.3-.6.7-.8 1-2.3 1-4.4 0-3.1-.7-4.3-.8-4.6-.2-.6-.7-.8-1.3-.8zM198.5 147c-.7.7-1.6 1-2.6 1-1.1 0-1.8-.3-2.5-1-1-1-1.6-2.4-1.6-5 0-2.8.7-4.6 1.8-5.7.7-.7 1.6-1 2.6-1s1.8.3 2.5 1.1c.8.8 1.5 2.5 1.5 5.1 0 2.7-.6 4.4-1.7 5.5zm-4-10c-.6.8-1.1 2.5-1.1 5 0 2 .4 3.5.9 4.2.4.6 1 .9 1.7.9.6 0 1.1-.3 1.5-.7.7-.9 1.1-2.4 1.1-4.6 0-2.5-.4-4.1-.9-4.7-.5-.6-1-.9-1.7-.9-.6 0-1.1.3-1.5.8zM195.9 148.3c-1.1 0-1.9-.3-2.6-1-1.1-1.1-1.7-2.8-1.7-5.2 0-2.7.6-4.6 1.9-5.9.8-.7 1.7-1.1 2.8-1.1 1.1 0 2 .4 2.7 1.1 1 1 1.5 3 1.5 5.3 0 2.6-.6 4.4-1.8 5.7-.8.7-1.7 1.1-2.8 1.1zm.3-12.7c-1 0-1.8.3-2.4 1-1.1 1.1-1.7 3-1.7 5.5 0 2.2.5 3.8 1.5 4.8.6.6 1.3.9 2.3.9 1 0 1.8-.3 2.4-1 1.1-1.1 1.7-2.9 1.7-5.3 0-3.1-1-4.5-1.4-4.9-.6-.7-1.4-1-2.4-1zm-.2 11.8c-.8 0-1.4-.3-2-1-.6-.9-.9-2.5-.9-4.4 0-2.3.4-4.2 1.2-5.1.5-.6 1-.9 1.7-.9.8 0 1.4.3 1.9 1 .3.4.9 1.7.9 4.9 0 2.3-.4 3.8-1.2 4.8-.3.4-.9.7-1.6.7zm.1-10.9c-.6 0-1 .2-1.4.7-.7.8-1.1 2.6-1.1 4.8 0 1.8.3 3.3.8 4.1.4.6.9.8 1.5.8.5 0 1-.2 1.3-.6.7-.8 1-2.3 1-4.4 0-3.1-.7-4.3-.8-4.6-.3-.6-.7-.8-1.3-.8z"/></g></svg>