<svg xmlns="http://www.w3.org/2000/svg" viewBox="146.5 107.7 67.9 67.9" enable-background="new 146.5 107.7 67.9 67.9"><path fill="#8CC640" d="M180.5 175.6c-18.7 0-33.9-15.2-33.9-33.9s15.2-33.9 33.9-33.9 33.9 15.2 33.9 33.9-15.2 33.9-33.9 33.9zm0-64.9c-17.1 0-30.9 13.9-30.9 30.9s13.9 30.9 30.9 30.9c17.1 0 30.9-13.9 30.9-30.9s-13.9-30.9-30.9-30.9zM187.4 128.9l.5 5.5c-.7.1-1.4.2-2.1.2l-.6-3.6c-.1-.2-.2-.4-.4-.5-.5-.2-1.2-.3-1.9-.3-1.1 0-2.2.3-3 1.2-.8.8-1.3 2-1.3 4 0 1.4.3 3.1.5 5 2.2 0 4.4 0 7-.1 0 .6 0 1.4-.1 2h-6.6c0 .5.1 1 .1 1.3 0 3-.9 5.2-2.4 7.2-.2.3-.1.4.3.4 5.4 0 7.8-.1 8.5-.3.3 0 .6-.3.8-.8l1.3-3.8c.7.1 1.3.3 1.9.5-.4 2-1 4.2-1.5 6.3h-17.1v-1.8l2.7-.1c.3 0 .5-.2.6-.2 1.3-1.4 2-3.6 2-6.3 0-.7 0-1.5-.2-2.3h-3.8c0-.6 0-1.2.1-1.8h3.3c.1 0 .2-.1.2-.2-.3-1.8-.5-3.4-.5-4.5 0-2.4.8-4.2 2.3-5.5 1.6-1.3 3.5-2 6-2 .9-.1 2.4.1 3.4.5z"/></svg>