<?xml version="1.0" encoding="utf-8"?>
<!-- Generator: Adobe Illustrator 19.2.0, SVG Export Plug-In . SVG Version: 6.00 Build 0)  -->
<svg version="1.1" id="Layer_1" xmlns="http://www.w3.org/2000/svg" xmlns:xlink="http://www.w3.org/1999/xlink" x="0px" y="0px"
	 viewBox="0 0 132 122" style="enable-background:new 0 0 132 122;" xml:space="preserve">
<style type="text/css">
	.st0{fill:#8EC348;}
	.st1{fill:#3B4251;}
</style>
<g>
	<path class="st0" d="M28,31.7c-1.7,0-3-1.4-3-3s1.4-3,3-3s3,1.4,3,3S29.6,31.7,28,31.7z M28,27.7c-0.5,0-0.9,0.4-0.9,0.9
		s0.4,0.9,0.9,0.9c0.5,0,0.9-0.4,0.9-0.9S28.5,27.7,28,27.7z"/>
	<g>
		<path class="st0" d="M38.2,34.2c1.4-1.7,4.1-5.3,5.6-7.2c0.7-0.8,1.1-1.7,1.1-2.4c0-1-0.7-2-2.3-2c-1,0-1.9,0.7-2.4,1.3
			c-0.2,0.2-0.4,0.2-0.6,0l-1-1c-0.1-0.1-0.2-0.4,0-0.6c0,0,1.7-2.1,4.3-2.1c3.1,0,4.8,2,4.8,4.3c0,1.4-0.6,2.3-1.4,3.5
			c-0.9,1.3-2.6,3.4-3.7,4.8h4.7c0.2,0,0.4,0.2,0.4,0.4v1.5c0,0.2-0.2,0.4-0.4,0.4h-8.5c-0.2,0-0.4-0.2-0.4-0.4L38.2,34.2L38.2,34.2
			z M49.9,34.5l5.6-11.7h-5.7c-0.2,0-0.4-0.2-0.4-0.4v-1.5c0-0.2,0.2-0.4,0.4-0.4h9c0.2,0,0.4,0.2,0.4,0.4V21l-6.4,13.6
			c-0.2,0.3-0.4,0.6-0.7,0.6h-1.6c-0.3,0-0.5-0.1-0.5-0.4L49.9,34.5L49.9,34.5z M61.9,31.8c0.9,0,2.2,0.7,2.2,2.8
			c0,2.7-1.7,4.2-2.5,4.7c-0.2,0.1-0.3,0.2-0.5,0l-0.3-0.3c-0.2-0.2-0.1-0.4,0.1-0.6c0.2-0.2,1.7-1.3,1.7-3.2c0,0-0.4,0.2-0.8,0.2
			c-0.9,0-1.7-0.8-1.7-1.8C60,32.6,60.8,31.8,61.9,31.8z M67.3,33.3c1-0.3,4.1-1.8,4.7-4.2c-0.4,0.2-1.4,0.6-2.5,0.6
			c-2.2,0-4.4-1.6-4.4-4.7c0-2.7,2.2-5,4.9-5c3.4,0,5.1,2.7,5.1,6c0,6.3-5.3,8.8-7.2,9.5c-0.3,0.1-0.5,0-0.6-0.3l-0.5-1.3
			C66.8,33.6,66.8,33.4,67.3,33.3z M72.6,25.7c0-1.5-0.8-3.2-2.5-3.2c-1.4,0-2.5,1.2-2.5,2.5c0,1.4,1.1,2.5,2.5,2.5
			C71.5,27.6,72.3,26.5,72.6,25.7z M77.4,27.8c0-4.7,2-7.6,5.4-7.6s5.4,2.8,5.4,7.6c0,4.7-2,7.6-5.4,7.6S77.4,32.5,77.4,27.8z
			 M85.4,27.8c0-3.2-0.9-5-2.6-5c-1.7,0-2.6,1.8-2.6,5c0,3.2,0.9,5,2.6,5C84.5,32.8,85.4,31,85.4,27.8z M90.2,34.2
			c1.4-1.7,4.1-5.3,5.6-7.2c0.7-0.8,1.1-1.7,1.1-2.4c0-1-0.7-2-2.3-2c-1,0-1.9,0.7-2.4,1.3c-0.2,0.2-0.4,0.2-0.6,0l-1-1
			c-0.1-0.1-0.2-0.4,0-0.6c0,0,1.7-2.1,4.3-2.1c3.1,0,4.8,2,4.8,4.3c0,1.4-0.6,2.3-1.4,3.5c-0.9,1.3-2.6,3.4-3.7,4.8h4.7
			c0.2,0,0.4,0.2,0.4,0.4v1.5c0,0.2-0.2,0.4-0.4,0.4h-8.5c-0.2,0-0.4-0.2-0.4-0.4L90.2,34.2L90.2,34.2z"/>
	</g>
	<path class="st0" d="M119.4,49.8H12.6c-0.6,0-1.1-0.5-1.1-1.1s0.5-1.1,1.1-1.1h106.8c0.6,0,1.1,0.5,1.1,1.1S120,49.8,119.4,49.8z
		 M119.4,117H12.6c-0.9,0-1.6-0.7-1.6-1.6V6.6C11,5.7,11.7,5,12.6,5h106.8c0.9,0,1.6,0.7,1.6,1.6v108.8
		C121,116.3,120.3,117,119.4,117z M14.2,113.8h103.6V8.2H14.2V113.8z"/>
	<path class="st1" d="M33.4,84.8c-0.3,0-0.6-0.1-0.8-0.4l-5.4-6.8c-0.4-0.5-0.3-1.1,0.2-1.5c0.5-0.4,1.1-0.3,1.5,0.2l5.4,6.8
		c0.4,0.5,0.3,1.1-0.2,1.5C33.8,84.8,33.6,84.8,33.4,84.8z M33.4,84.8c-0.2,0-0.5-0.1-0.7-0.2c-0.5-0.4-0.6-1-0.2-1.5l6.4-8.3
		c0.4-0.5,1-0.6,1.5-0.2c0.5,0.4,0.6,1,0.2,1.5l-6.4,8.3C34,84.7,33.7,84.8,33.4,84.8z M51.2,96c-0.4,0-0.7-0.2-0.9-0.5L38.8,76
		c-0.3-0.5-0.1-1.2,0.4-1.5c0.5-0.3,1.2-0.1,1.5,0.4l11.5,19.4c0.3,0.5,0.1,1.2-0.4,1.5C51.6,95.9,51.4,96,51.2,96z M51.2,96
		c-0.2,0-0.4,0-0.5-0.1c-0.5-0.3-0.7-1-0.4-1.5l6.4-11.1c0.3-0.5,0.9-0.7,1.5-0.4c0.5,0.3,0.7,1,0.4,1.5l-6.4,11.1
		C51.9,95.8,51.6,96,51.2,96z M65.9,93.3c-0.3,0-0.6-0.1-0.8-0.3l-8.3-8.5c-0.4-0.4-0.4-1.1,0-1.5c0.4-0.4,1.1-0.4,1.5,0l8.3,8.5
		c0.4,0.4,0.4,1.1,0,1.5C66.4,93.2,66.1,93.3,65.9,93.3z M65.9,93.3c-0.2,0-0.4-0.1-0.6-0.2c-0.5-0.3-0.6-1-0.3-1.5l10.7-16.8
		c0.3-0.5,1-0.6,1.5-0.3c0.5,0.3,0.6,1,0.3,1.5L66.8,92.8C66.6,93.1,66.2,93.3,65.9,93.3z M86.1,92.4c-0.4,0-0.7-0.2-0.9-0.5
		L75.7,76c-0.3-0.5-0.1-1.2,0.4-1.5c0.5-0.3,1.2-0.1,1.5,0.4l9.6,15.9c0.3,0.5,0.1,1.2-0.4,1.5C86.5,92.3,86.3,92.4,86.1,92.4
		L86.1,92.4z M86.1,92.4c-0.2,0-0.4-0.1-0.6-0.2c-0.5-0.3-0.6-1-0.3-1.5l21.2-30.4c0.3-0.5,1-0.6,1.5-0.3c0.5,0.3,0.6,1,0.3,1.5
		L87,91.9C86.8,92.2,86.5,92.4,86.1,92.4L86.1,92.4z"/>
</g>
</svg>
