<?xml version="1.0" encoding="utf-8"?>
<!-- Generator: Adobe Illustrator 18.1.0, SVG Export Plug-In . SVG Version: 6.00 Build 0)  -->
<!DOCTYPE svg PUBLIC "-//W3C//DTD SVG 1.1//EN" "http://www.w3.org/Graphics/SVG/1.1/DTD/svg11.dtd">
<svg version="1.1" id="Layer_1" xmlns="http://www.w3.org/2000/svg" xmlns:xlink="http://www.w3.org/1999/xlink" x="0px" y="0px"
	 viewBox="0 0 58 58" enable-background="new 0 0 58 58" xml:space="preserve">
<path fill="#FFFFFF" d="M58,19.3c0,15.8-9.9,29.5-16,35.2c-1.9,1.7-3.4,1.5-4.6,0.4l-2.7-2.7c-1-1-0.8-2.8,1.1-4.6
	c1.9-1.7,11.8-10.1,11.8-24c-0.8,0.2-1.5,0.2-2.3,0.2c-5.9,0-10.8-4.9-10.8-10.8c0-6.1,4.9-10.8,10.8-10.8C51.5,2.2,58,5.6,58,19.3z
	 M23.8,19.3c0,15.8-9.9,29.5-16,35.2c-1.9,1.7-3.4,1.5-4.6,0.4l-2.7-2.7c-1-1-0.8-2.8,1.1-4.6c1.9-1.7,11.8-10.1,11.8-24
	c-0.8,0.2-1.5,0.2-2.3,0.2C5.3,23.9,0.4,19,0.4,13.1C0.4,7,5.3,2.2,11.2,2.2C17.3,2.2,23.8,5.6,23.8,19.3z"/>
</svg>
