<?xml version="1.0" encoding="utf-8"?>
<!-- Generator: Adobe Illustrator 19.2.0, SVG Export Plug-In . SVG Version: 6.00 Build 0)  -->
<svg version="1.1" id="Layer_1" xmlns="http://www.w3.org/2000/svg" xmlns:xlink="http://www.w3.org/1999/xlink" x="0px" y="0px"
	 viewBox="0 0 84 84" style="enable-background:new 0 0 84 84;" xml:space="preserve">
<style type="text/css">
	.st0{fill:#FFFFFF;}
	.st1{fill:#FFAE00;}
	.st2{opacity:0.5;}
</style>
<g>
	<path class="st0" d="M42,0L42,0C18.8,0,0,18.8,0,42s18.8,42,42,42s42-18.8,42-42S65.2,0,42,0"/>
	<g>
		<path class="st1" d="M42,4c21,0,38,17,38,38S63,80,42,80S4,63,4,42S21,4,42,4 M42,0C18.8,0,0,18.8,0,42s18.8,42,42,42
			s42-18.8,42-42S65.2,0,42,0L42,0z"/>
	</g>
	<g>
		<g>
			<g>
				<path class="st1" d="M50.8,19c0.3,0,0.5,0.1,0.7,0.3l7.2,7.2c0.2,0.2,0.3,0.4,0.3,0.7V61c0,1.1-0.9,2-2,2H29c-1.1,0-2-0.9-2-2
					V21c0-1.1,0.9-2,2-2H50.8 M50.8,17H29c-2.2,0-4,1.8-4,4v40c0,2.2,1.8,4,4,4h28c2.2,0,4-1.8,4-4V27.2c0-0.8-0.3-1.6-0.9-2.1
					l-7.2-7.2C52.3,17.3,51.6,17,50.8,17L50.8,17z"/>
			</g>
			<g>
				<path class="st1" d="M60,27h-6.8C52,27,51,25.9,51,24.5V18L60,27z"/>
			</g>
		</g>
		<g>
			<g class="st2">
				<rect x="34" y="34" class="st1" width="18" height="3"/>
			</g>
			<g>
				<path class="st1" d="M52,34v19H34V34H52 M52,32H34c-1.1,0-2,0.9-2,2v19c0,1.1,0.9,2,2,2h18c1.1,0,2-0.9,2-2V34
					C54,32.9,53.1,32,52,32L52,32z"/>
			</g>
			<g>
				<rect x="32.9" y="37" class="st1" width="20.2" height="1"/>
			</g>
			<g>
				<rect x="32.9" y="41" class="st1" width="20.2" height="1"/>
			</g>
			<g>
				<rect x="33" y="45" class="st1" width="20.2" height="1"/>
			</g>
			<g>
				<rect x="33" y="49" class="st1" width="20.2" height="1"/>
			</g>
			<g>
				<rect x="39" y="34" class="st1" width="1" height="20"/>
			</g>
			<g>
				<rect x="46" y="34" class="st1" width="1" height="20"/>
			</g>
		</g>
	</g>
</g>
</svg>
