<?xml version="1.0" encoding="utf-8"?>
<!-- Generator: Adobe Illustrator 19.2.0, SVG Export Plug-In . SVG Version: 6.00 Build 0)  -->
<svg version="1.1" id="Layer_1" xmlns="http://www.w3.org/2000/svg" xmlns:xlink="http://www.w3.org/1999/xlink" x="0px" y="0px"
	 viewBox="0 0 84 84" style="enable-background:new 0 0 84 84;" xml:space="preserve">
<style type="text/css">
	.st0{fill:#FFFFFF;}
	.st1{fill:#E43045;}
	.st2{opacity:0.5;fill:#E43045;enable-background:new    ;}
</style>
<g>
	<path class="st0" d="M42,0L42,0C18.8,0,0,18.8,0,42s18.8,42,42,42s42-18.8,42-42S65.2,0,42,0"/>
	<path class="st1" d="M42,4c21,0,38,17,38,38S63,80,42,80S4,63,4,42S21,4,42,4 M42,0C18.8,0,0,18.8,0,42s18.8,42,42,42
		s42-18.8,42-42S65.2,0,42,0L42,0z"/>
	<g>
		<path class="st1" d="M55.2,45.8l-0.6-0.9c-2.5,0.3-4.9-0.1-7.2-1l-9.6,5.5l-15.7-9.1l3.3-1.9l12.3,7.1L44,42
			c-1.4-1-2.6-2.3-3.6-3.8c-0.1-0.1-0.1-0.2-0.2-0.3l-2.3,1.4l-15.7-9.1L38,21l2.9,2.1c0.4-0.7,0.9-1.4,1.4-2L38,18L20,28.8v6.4
			l3.3,1.9l-3.3,2v6.4l3.3,1.9L20,49.3l2.2,1.3l3.3-1.9l12.3,7.1l12.3-7l3.4,1.9l-15.7,9.1L20,49.3v6.4L37.9,66l17.9-10.2v-6.4
			l-3.4-1.9L55.2,45.8z"/>
		<path class="st1" d="M69.8,49.6l-7.4-11.2c3.3-4.2,3.5-10.3,0.1-14.8c-2.4-3-5.9-4.6-9.5-4.6c-2.6,0-5.2,0.8-7.4,2.5
			c-5.2,4.1-6.2,11.6-2.1,16.8c2.4,3,5.9,4.6,9.5,4.6c0.9,0,1.8-0.1,2.6-0.3L63.2,54c1.2,1.8,3.7,2.3,5.5,1.1
			C70.6,53.9,71.1,51.4,69.8,49.6z M45.1,37.1c-1.6-2.1-2.4-4.7-2-7.4c0.3-2.7,1.7-5,3.8-6.7c1.8-1.4,3.9-2.1,6.1-2.1
			c3.1,0,6,1.4,7.9,3.9c3.4,4.4,2.6,10.6-1.8,14C57.4,40.3,55.2,41,53,41C49.9,41,47,39.6,45.1,37.1z"/>
		<path class="st2" d="M59.3,26.1c-1.6-2-3.9-3.1-6.3-3.1c-1.7,0-3.4,0.5-4.9,1.7c-3.5,2.7-4.1,7.7-1.4,11.2c1.6,2,3.9,3.1,6.3,3.1
			c1.7,0,3.4-0.5,4.9-1.7C61.4,34.6,62,29.6,59.3,26.1z M57.3,36.5c-1.2,1-2.7,1.5-4.3,1.5c-2.2,0-4.2-1-5.5-2.7
			c-2.4-3-1.8-7.5,1.2-9.8c1.2-1,2.7-1.5,4.3-1.5c2.2,0,4.2,1,5.5,2.7c1.1,1.5,1.7,3.3,1.4,5.2C59.7,33.7,58.8,35.4,57.3,36.5z"/>
	</g>
</g>
</svg>
