<?xml version="1.0" encoding="utf-8"?>
<!-- Generator: Adobe Illustrator 21.0.0, SVG Export Plug-In . SVG Version: 6.00 Build 0)  -->
<svg version="1.1" id="Layer_1" xmlns="http://www.w3.org/2000/svg" xmlns:xlink="http://www.w3.org/1999/xlink" x="0px" y="0px"
	 viewBox="0 0 14 20" style="enable-background:new 0 0 14 20;" xml:space="preserve">
<style type="text/css">
	.st0{clip-path:url(#SVGID_3_);}
	.st1{clip-path:url(#SVGID_4_);fill:#FFFFFF;}
	.st2{clip-path:url(#SVGID_6_);}
	.st3{clip-path:url(#SVGID_8_);fill:#FFFFFF;}
</style>
<g>
	<defs>
		<path id="SVGID_5_" d="M14,6.8c0,0.3-0.1,0.6-0.4,0.8c-0.5,0.5-1.3,0.5-1.7,0L7,2.9L2.1,7.7c-0.5,0.5-1.3,0.5-1.7,0
			c-0.5-0.5-0.5-1.2,0-1.7l5.8-5.6C6.4,0.1,6.7,0,7,0c0.3,0,0.6,0.1,0.9,0.4L13.7,6C13.9,6.2,14,6.5,14,6.8z"/>
	</defs>
	<use xlink:href="#SVGID_5_"  style="overflow:visible;fill:#FFFFFF;"/>
	<clipPath id="SVGID_3_">
		<use xlink:href="#SVGID_5_"  style="overflow:visible;"/>
	</clipPath>
	<g class="st0">
		<defs>
			<rect id="SVGID_7_" x="-2576.5" y="-964" width="3310.3" height="1440"/>
		</defs>
		<use xlink:href="#SVGID_7_"  style="overflow:visible;fill:#FFFFFF;"/>
		<clipPath id="SVGID_4_">
			<use xlink:href="#SVGID_7_"  style="overflow:visible;"/>
		</clipPath>
		<rect x="-5.2" y="-5" class="st1" width="24.3" height="18"/>
	</g>
</g>
<g>
	<defs>
		<path id="SVGID_1_" d="M0,13.2c0-0.3,0.1-0.6,0.4-0.8c0.5-0.5,1.3-0.5,1.7,0L7,17.1l4.9-4.7c0.5-0.5,1.3-0.5,1.7,0
			c0.5,0.5,0.5,1.2,0,1.7l-5.8,5.6C7.6,19.9,7.3,20,7,20c-0.3,0-0.6-0.1-0.9-0.4L0.3,14C0.1,13.8,0,13.5,0,13.2z"/>
	</defs>
	<use xlink:href="#SVGID_1_"  style="overflow:visible;fill:#FFFFFF;"/>
	<clipPath id="SVGID_6_">
		<use xlink:href="#SVGID_1_"  style="overflow:visible;"/>
	</clipPath>
	<g class="st2">
		<defs>
			<rect id="SVGID_2_" x="-719.8" y="-456" width="3310.3" height="1440"/>
		</defs>
		<use xlink:href="#SVGID_2_"  style="overflow:visible;fill:#FFFFFF;"/>
		<clipPath id="SVGID_8_">
			<use xlink:href="#SVGID_2_"  style="overflow:visible;"/>
		</clipPath>
		<rect x="-5.2" y="7" class="st3" width="24.3" height="18"/>
	</g>
</g>
</svg>
