<?xml version="1.0" encoding="utf-8"?>
<!-- Generator: Adobe Illustrator 19.2.0, SVG Export Plug-In . SVG Version: 6.00 Build 0)  -->
<svg version="1.1" id="Layer_1" xmlns="http://www.w3.org/2000/svg" xmlns:xlink="http://www.w3.org/1999/xlink" x="0px" y="0px"
	 viewBox="0 0 1336.2 827.8" style="enable-background:new 0 0 1336.2 827.8;" xml:space="preserve">
<g>
	<g>
		<path d="M672.1,797.2c-2.2,0-4-1.8-4-4v-17.9c0-2.2,1.8-4,4-4s4,1.8,4,4v17.9C676.1,795.4,674.3,797.2,672.1,797.2z M672.4,761.3
			c-0.1,0-0.3,0-0.4,0c-2.2-0.2-3.8-2.2-3.6-4.4c0.6-6.3,2.1-12.5,4.2-18.4c0.8-2.1,3.1-3.1,5.1-2.4c2.1,0.8,3.1,3.1,2.4,5.1
			c-2,5.3-3.2,10.8-3.8,16.4C676.2,759.8,674.5,761.3,672.4,761.3z M684.8,728c-0.8,0-1.6-0.2-2.3-0.7c-1.8-1.3-2.2-3.8-1-5.6
			c3.6-5.2,7.9-9.9,12.7-14c1.7-1.4,4.2-1.2,5.6,0.5c1.4,1.7,1.2,4.2-0.5,5.6c-4.3,3.7-8.1,7.8-11.4,12.5
			C687.3,727.5,686,728,684.8,728z M711.8,705.1c-1.5,0-2.9-0.8-3.6-2.3c-1-2-0.1-4.4,1.9-5.3c5.7-2.7,11.7-4.7,18-5.9
			c2.2-0.4,4.3,1,4.7,3.2s-1,4.3-3.2,4.7c-5.6,1.1-10.9,2.9-16,5.3C713,705,712.4,705.1,711.8,705.1z M746.6,696.8
			c-2,0-3.7-1.4-4-3.4c-0.3-2.2,1.2-4.2,3.4-4.5l4.9-0.7c4.3-0.6,8.6-1.3,12.9-1.9c2.2-0.3,4.2,1.2,4.5,3.4s-1.2,4.2-3.4,4.5
			c-4.3,0.6-8.6,1.2-12.9,1.9l-4.9,0.7C746.9,696.8,746.7,696.8,746.6,696.8z M782.1,691.8c-2,0-3.7-1.5-4-3.5
			c-0.3-2.2,1.2-4.2,3.4-4.5c5.9-0.8,11.9-1.6,17.8-2.3c2.2-0.3,4.2,1.3,4.5,3.5s-1.3,4.2-3.5,4.5c-5.9,0.8-11.8,1.5-17.8,2.3
			C782.4,691.8,782.3,691.8,782.1,691.8z M817.7,687.2c-2,0-3.7-1.5-4-3.5c-0.3-2.2,1.3-4.2,3.5-4.5c5.9-0.7,11.9-1.4,17.8-2.1
			c2.2-0.3,4.2,1.3,4.4,3.5c0.3,2.2-1.3,4.2-3.5,4.4c-5.9,0.7-11.9,1.4-17.8,2.1C818,687.2,817.8,687.2,817.7,687.2z M853.3,683.2
			c-2,0-3.8-1.5-4-3.6c-0.2-2.2,1.4-4.2,3.6-4.4c6-0.6,11.9-1.3,17.9-1.9c2.2-0.2,4.2,1.4,4.4,3.6c0.2,2.2-1.4,4.2-3.6,4.4
			c-5.9,0.6-11.9,1.2-17.8,1.9C853.6,683.1,853.5,683.2,853.3,683.2z M889,679.6c-2,0-3.8-1.6-4-3.6c-0.2-2.2,1.4-4.1,3.6-4.4
			c6-0.6,11.9-1.1,17.9-1.6c2.2-0.2,4.1,1.4,4.3,3.6c0.2,2.2-1.4,4.1-3.6,4.3c-5.9,0.5-11.9,1.1-17.8,1.6
			C889.3,679.6,889.2,679.6,889,679.6z M924.8,676.4c-2.1,0-3.8-1.6-4-3.7c-0.2-2.2,1.5-4.1,3.7-4.3c6-0.5,11.9-0.9,17.9-1.4
			c2.2-0.2,4.1,1.5,4.3,3.7s-1.5,4.1-3.7,4.3c-6,0.4-11.9,0.9-17.9,1.4C925,676.4,924.9,676.4,924.8,676.4z M960.6,673.8
			c-2.1,0-3.8-1.6-4-3.7c-0.1-2.2,1.5-4.1,3.7-4.3c6-0.4,12-0.8,17.9-1.1c2.2-0.1,4.1,1.5,4.2,3.8s-1.5,4.1-3.8,4.2
			C972.6,673.1,966.7,673.4,960.6,673.8C960.7,673.8,960.7,673.8,960.6,673.8z M996.4,671.6c-2.1,0-3.9-1.7-4-3.8
			c-0.1-2.2,1.6-4.1,3.8-4.2c6-0.3,12-0.6,17.9-0.9c2.2-0.1,4.1,1.6,4.2,3.8s-1.6,4.1-3.8,4.2c-6,0.3-11.9,0.6-17.9,0.9
			C996.5,671.6,996.5,671.6,996.4,671.6z M1262.2,670.1c-0.6,0-1.3,0-1.9,0l-12.9-0.3c-2.2-0.1-4-1.9-3.9-4.1c0.1-2.2,1.8-3.9,4-3.9
			h0.1l12.9,0.3c1.6,0,3.2,0,4.7,0c2.2-0.1,4.1,1.6,4.2,3.8s-1.6,4.1-3.8,4.2C1264.5,670,1263.3,670.1,1262.2,670.1z M1032.2,670
			c-2.1,0-3.9-1.7-4-3.8c-0.1-2.2,1.6-4.1,3.8-4.2c6-0.2,12-0.5,18-0.7c2.2-0.1,4.1,1.7,4.1,3.9c0.1,2.2-1.7,4.1-3.9,4.1
			C1044.2,669.5,1038.3,669.7,1032.2,670C1032.3,670,1032.3,670,1032.2,670z M1229.5,669.3L1229.5,669.3l-18-0.5
			c-2.2-0.1-4-1.9-3.9-4.1c0.1-2.2,1.9-4,4.1-3.9l17.9,0.5c2.2,0.1,4,1.9,3.9,4.1C1233.5,667.5,1231.7,669.3,1229.5,669.3z
			 M1068.1,668.8c-2.2,0-3.9-1.7-4-3.9s1.7-4,3.9-4.1c6-0.2,12-0.3,18-0.4c2.2-0.1,4,1.7,4.1,3.9c0,2.2-1.7,4-3.9,4.1
			c-6,0.1-11.9,0.3-17.9,0.4C1068.2,668.8,1068.1,668.8,1068.1,668.8z M1193.7,668.4C1193.6,668.4,1193.6,668.4,1193.7,668.4
			c-6.1-0.1-12-0.2-18-0.3c-2.2,0-4-1.8-3.9-4.1c0-2.2,1.8-3.9,4-3.9c0,0,0,0,0.1,0c6,0.1,12,0.2,18,0.3c2.2,0,4,1.9,3.9,4.1
			C1197.6,666.6,1195.8,668.4,1193.7,668.4z M1104,668.1c-2.2,0-4-1.8-4-3.9c0-2.2,1.7-4,3.9-4.1c6-0.1,12-0.1,18-0.2l0,0
			c2.2,0,4,1.8,4,4s-1.8,4-4,4C1116,667.9,1110,668,1104,668.1L1104,668.1z M1157.8,667.9L1157.8,667.9c-6,0-12-0.1-17.9-0.1
			c-2.2,0-4-1.8-4-4s1.8-4,4-4l0,0c6,0,12,0,18,0.1c2.2,0,4,1.8,4,4C1161.8,666.1,1160,667.9,1157.8,667.9z M1283,666.9
			c-1.7,0-3.3-1.1-3.8-2.8c-0.7-2.1,0.5-4.4,2.6-5c5.4-1.7,10.5-4,15.3-7c1.9-1.2,4.3-0.6,5.5,1.3c1.2,1.9,0.6,4.3-1.3,5.5
			c-5.4,3.4-11.2,6-17.2,7.9C1283.8,666.8,1283.4,666.9,1283,666.9z M1313.1,648.1c-1,0-2-0.4-2.7-1.1c-1.6-1.5-1.7-4-0.2-5.7
			c3.9-4.1,7.2-8.7,9.9-13.6c1.1-1.9,3.5-2.6,5.4-1.6c1.9,1.1,2.6,3.5,1.6,5.4c-3,5.5-6.8,10.7-11.1,15.3
			C1315.2,647.7,1314.2,648.1,1313.1,648.1z M1330.1,616.9c-0.3,0-0.6,0-1-0.1c-2.1-0.5-3.5-2.7-2.9-4.8c1.3-5.2,1.9-10.6,1.9-16
			v-0.8c0-2.2,1.7-4,4-4l0,0c2.2,0,4,1.8,4,4v0.9c0,6-0.7,12.1-2.2,17.9C1333.6,615.7,1331.9,616.9,1330.1,616.9z M1329.7,581.5
			c-1.8,0-3.4-1.2-3.9-2.9c-1.5-5.4-3.7-10.7-6.5-15.5c-1.1-1.9-0.5-4.4,1.5-5.5c1.9-1.1,4.4-0.5,5.5,1.5c3.2,5.5,5.6,11.4,7.3,17.4
			c0.6,2.1-0.7,4.3-2.8,4.9C1330.4,581.4,1330.1,581.5,1329.7,581.5z M1311.9,550.8c-1,0-2.1-0.4-2.8-1.2c-4-4-8.5-7.5-13.3-10.4
			c-1.9-1.1-2.5-3.6-1.4-5.5s3.6-2.5,5.5-1.4c5.4,3.2,10.4,7.1,14.9,11.6c1.6,1.6,1.5,4.1,0,5.7
			C1314,550.4,1312.9,550.8,1311.9,550.8z M1281.4,532.7c-0.4,0-0.7,0-1.1-0.2c-5.4-1.5-11-2.4-16.7-2.5c-2.2,0-4-1.9-3.9-4.1
			c0-2.2,1.8-3.9,4-3.9h0.1c6.3,0.1,12.6,1.1,18.7,2.8c2.1,0.6,3.4,2.8,2.8,4.9C1284.7,531.5,1283.1,532.7,1281.4,532.7z
			 M1245.8,530h-17.9c-2.2,0-4-1.8-4-4s1.8-4,4-4h17.9c2.2,0,4,1.8,4,4S1248,530,1245.8,530z M1209.9,530H1192c-2.2,0-4-1.8-4-4
			s1.8-4,4-4h17.9c2.2,0,4,1.8,4,4S1212.1,530,1209.9,530z M1174,530h-17.9c-2.2,0-4-1.8-4-4s1.8-4,4-4h17.9c2.2,0,4,1.8,4,4
			S1176.2,530,1174,530z M1138.1,530h-17.9c-2.2,0-4-1.8-4-4s1.8-4,4-4h17.9c2.2,0,4,1.8,4,4S1140.3,530,1138.1,530z M1102.2,530
			h-17.9c-2.2,0-4-1.8-4-4s1.8-4,4-4h17.9c2.2,0,4,1.8,4,4S1104.4,530,1102.2,530z M1066.4,530h-17.9c-2.2,0-4-1.8-4-4s1.8-4,4-4
			h17.9c2.2,0,4,1.8,4,4S1068.6,530,1066.4,530z M1030.5,530h-17.9c-2.2,0-4-1.8-4-4s1.8-4,4-4h17.9c2.2,0,4,1.8,4,4
			S1032.7,530,1030.5,530z M994.6,530h-17.9c-2.2,0-4-1.8-4-4s1.8-4,4-4h17.9c2.2,0,4,1.8,4,4S996.8,530,994.6,530z M958.7,530
			h-17.9c-2.2,0-4-1.8-4-4s1.8-4,4-4h17.9c2.2,0,4,1.8,4,4S960.9,530,958.7,530z M922.8,530h-17.9c-2.2,0-4-1.8-4-4s1.8-4,4-4h17.9
			c2.2,0,4,1.8,4,4S925,530,922.8,530z M886.9,530H869c-2.2,0-4-1.8-4-4s1.8-4,4-4h17.9c2.2,0,4,1.8,4,4S889.1,530,886.9,530z
			 M851.1,530h-18c-2.2,0-4-1.8-4-4s1.8-4,4-4h18c2.2,0,4,1.8,4,4S853.3,530,851.1,530z M815.2,530h-17.9c-2.2,0-4-1.8-4-4
			s1.8-4,4-4h17.9c2.2,0,4,1.8,4,4S817.4,530,815.2,530z M779.3,530h-17.9c-2.2,0-4-1.8-4-4s1.8-4,4-4h17.9c2.2,0,4,1.8,4,4
			S781.5,530,779.3,530z M743.4,530h-17.9c-2.2,0-4-1.8-4-4s1.8-4,4-4h17.9c2.2,0,4,1.8,4,4S745.6,530,743.4,530z M707.5,530h-17.9
			c-2.2,0-4-1.8-4-4s1.8-4,4-4h17.9c2.2,0,4,1.8,4,4S709.7,530,707.5,530z M671.6,530h-17.9c-2.2,0-4-1.8-4-4s1.8-4,4-4h17.9
			c2.2,0,4,1.8,4,4S673.8,530,671.6,530z M635.8,530h-17.9c-2.2,0-4-1.8-4-4s1.8-4,4-4h17.9c2.2,0,4,1.8,4,4S638,530,635.8,530z
			 M599.9,530H582c-2.2,0-4-1.8-4-4s1.8-4,4-4h17.9c2.2,0,4,1.8,4,4S602.1,530,599.9,530z M564,530h-17.9c-2.2,0-4-1.8-4-4
			s1.8-4,4-4H564c2.2,0,4,1.8,4,4S566.2,530,564,530z M528.1,530h-17.9c-2.2,0-4-1.8-4-4s1.8-4,4-4h17.9c2.2,0,4,1.8,4,4
			S530.3,530,528.1,530z M492.2,530h-17.9c-2.2,0-4-1.8-4-4s1.8-4,4-4h17.9c2.2,0,4,1.8,4,4S494.4,530,492.2,530z M456.3,530h-17.9
			c-2.2,0-4-1.8-4-4s1.8-4,4-4h17.9c2.2,0,4,1.8,4,4S458.5,530,456.3,530z M420.5,530h-17.9c-2.2,0-4-1.8-4-4s1.8-4,4-4h17.9
			c2.2,0,4,1.8,4,4S422.7,530,420.5,530z M384.6,530h-17.9c-2.2,0-4-1.8-4-4s1.8-4,4-4h17.9c2.2,0,4,1.8,4,4S386.8,530,384.6,530z
			 M348.7,530h-17.9c-2.2,0-4-1.8-4-4s1.8-4,4-4h17.9c2.2,0,4,1.8,4,4S350.9,530,348.7,530z M312.8,530h-17.9c-2.2,0-4-1.8-4-4
			s1.8-4,4-4h17.9c2.2,0,4,1.8,4,4S315,530,312.8,530z M276.9,530H259c-2.2,0-4-1.8-4-4s1.8-4,4-4h17.9c2.2,0,4,1.8,4,4
			S279.1,530,276.9,530z M241,530h-17.9c-2.2,0-4-1.8-4-4s1.8-4,4-4H241c2.2,0,4,1.8,4,4S243.2,530,241,530z M205.2,530h-17.9
			c-2.2,0-4-1.8-4-4s1.8-4,4-4h17.9c2.2,0,4,1.8,4,4S207.4,530,205.2,530z M169.3,530h-17.9c-2.2,0-4-1.8-4-4s1.8-4,4-4h17.9
			c2.2,0,4,1.8,4,4S171.5,530,169.3,530z M133.4,530h-17.9c-2.2,0-4-1.8-4-4s1.8-4,4-4h17.9c2.2,0,4,1.8,4,4S135.6,530,133.4,530z
			 M97.5,530H79.6c-2.2,0-4-1.8-4-4s1.8-4,4-4h17.9c2.2,0,4,1.8,4,4S99.7,530,97.5,530z M61.6,530H43.7c-2.2,0-4-1.8-4-4s1.8-4,4-4
			h17.9c2.2,0,4,1.8,4,4S63.8,530,61.6,530z M25.8,528.9c-0.4,0-0.7,0-1.1-0.2c-6.6-1.9-12.4-5.7-16.8-10.9
			c-1.4-1.7-1.2-4.2,0.5-5.6c1.7-1.4,4.2-1.2,5.6,0.5c3.4,4,7.8,6.9,12.8,8.4c2.1,0.6,3.4,2.8,2.8,4.9
			C29.2,527.7,27.6,528.9,25.8,528.9z M4.2,502.9c-2,0-3.8-1.5-4-3.6C0.1,498.2,0,497.1,0,496c0-5.7,1.4-11.4,4.2-16.4
			c1.1-1.9,3.5-2.6,5.4-1.6c1.9,1.1,2.6,3.5,1.6,5.4c-2.1,3.8-3.2,8.1-3.2,12.5c0,0.8,0,1.7,0.1,2.5c0.2,2.2-1.4,4.2-3.6,4.4
			C4.5,502.9,4.4,502.9,4.2,502.9z M20.5,473.3c-1.5,0-2.9-0.8-3.6-2.2c-1-2-0.2-4.4,1.8-5.4c1.8-0.9,3.6-1.7,5.6-2.2l12.1-3.7
			c2.1-0.6,4.3,0.6,5,2.7c0.6,2.1-0.6,4.3-2.7,5l-12.1,3.7c-1.5,0.4-2.9,1-4.2,1.7C21.7,473.2,21.1,473.3,20.5,473.3z M54.7,462.5
			c-1.7,0-3.3-1.1-3.8-2.8c-0.6-2.1,0.6-4.3,2.7-5l17.2-5.2c2.1-0.6,4.3,0.6,5,2.7s-0.6,4.3-2.7,5l-17.2,5.2
			C55.5,462.4,55.1,462.5,54.7,462.5z M89,452.1c-1.7,0-3.3-1.1-3.8-2.8c-0.6-2.1,0.6-4.3,2.7-5l17.2-5.2c2.1-0.6,4.3,0.6,5,2.7
			c0.6,2.1-0.6,4.3-2.7,5L90.2,452C89.8,452,89.4,452.1,89,452.1z M123.4,441.7c-1.7,0-3.3-1.1-3.8-2.8c-0.6-2.1,0.6-4.3,2.7-5
			l17.2-5.2c2.1-0.6,4.3,0.6,5,2.7s-0.6,4.3-2.7,5l-17.2,5.2C124.1,441.6,123.8,441.7,123.4,441.7z M157.7,431.3
			c-1.7,0-3.3-1.1-3.8-2.8c-0.6-2.1,0.6-4.3,2.7-5l17.2-5.2c2.1-0.6,4.3,0.6,5,2.7c0.6,2.1-0.6,4.3-2.7,5l-17.2,5.2
			C158.5,431.2,158.1,431.3,157.7,431.3z M192.1,420.9c-1.7,0-3.3-1.1-3.8-2.8c-0.6-2.1,0.6-4.3,2.7-5l17.2-5.2
			c2.1-0.6,4.3,0.6,5,2.7c0.6,2.1-0.6,4.3-2.7,5l-17.2,5.2C192.8,420.8,192.4,420.9,192.1,420.9z M226.4,410.5
			c-1.7,0-3.3-1.1-3.8-2.8c-0.6-2.1,0.6-4.3,2.7-5l17.2-5.2c2.1-0.6,4.3,0.6,5,2.7s-0.6,4.3-2.7,5l-17.2,5.2
			C227.2,410.5,226.8,410.5,226.4,410.5z M260.8,400.1c-1.7,0-3.3-1.1-3.8-2.8c-0.6-2.1,0.6-4.3,2.7-5l17.2-5.2
			c2.1-0.6,4.3,0.6,5,2.7s-0.6,4.3-2.7,5L262,400C261.5,400.1,261.1,400.1,260.8,400.1z M295.1,389.7c-1.7,0-3.3-1.1-3.8-2.8
			c-0.6-2.1,0.6-4.3,2.7-5l17.2-5.2c2.1-0.6,4.3,0.6,5,2.7s-0.6,4.3-2.7,5l-17.2,5.2C295.9,389.7,295.5,389.7,295.1,389.7z
			 M329.4,379.3c-1.7,0-3.3-1.1-3.8-2.8c-0.6-2.1,0.6-4.3,2.7-5l17.2-5.2c2.1-0.6,4.3,0.6,5,2.7c0.6,2.1-0.6,4.3-2.7,5l-17.2,5.2
			C330.2,379.3,329.8,379.3,329.4,379.3z M363.8,368.9c-1.7,0-3.3-1.1-3.8-2.8c-0.6-2.1,0.6-4.3,2.7-5l17.2-5.2
			c2.1-0.6,4.3,0.6,5,2.7s-0.6,4.3-2.7,5l-17.2,5.2C364.6,368.9,364.2,368.9,363.8,368.9z M398.1,358.6c-1.7,0-3.3-1.1-3.8-2.8
			c-0.6-2.1,0.6-4.3,2.7-5l17.2-5.2c2.1-0.6,4.3,0.6,5,2.7c0.6,2.1-0.6,4.3-2.7,5l-17.2,5.2C398.9,358.5,398.5,358.6,398.1,358.6z
			 M432.5,348.2c-1.7,0-3.3-1.1-3.8-2.8c-0.6-2.1,0.6-4.3,2.7-5l17.2-5.2c2.1-0.6,4.3,0.6,5,2.7c0.6,2.1-0.6,4.3-2.7,5l-17.2,5.2
			C433.3,348.1,432.9,348.2,432.5,348.2z M466.8,337.8c-1.7,0-3.3-1.1-3.8-2.8c-0.6-2.1,0.6-4.3,2.7-5l17.2-5.2
			c2.1-0.6,4.3,0.6,5,2.7c0.6,2.1-0.6,4.3-2.7,5l-17.2,5.2C467.6,337.7,467.2,337.8,466.8,337.8z M501.2,327.4
			c-1.7,0-3.3-1.1-3.8-2.8c-0.6-2.1,0.6-4.3,2.7-5l17.2-5.2c2.1-0.6,4.3,0.6,5,2.7c0.6,2.1-0.6,4.3-2.7,5l-17.2,5.2
			C501.9,327.3,501.6,327.4,501.2,327.4z M535.5,317c-1.7,0-3.3-1.1-3.8-2.8c-0.6-2.1,0.6-4.3,2.7-5l17.2-5.2c2.1-0.6,4.3,0.6,5,2.7
			c0.6,2.1-0.6,4.3-2.7,5l-17.2,5.2C536.3,316.9,535.9,317,535.5,317z M569.9,306.6c-1.7,0-3.3-1.1-3.8-2.8c-0.6-2.1,0.6-4.3,2.7-5
			l17.2-5.2c2.1-0.6,4.3,0.6,5,2.7s-0.6,4.3-2.7,5l-17.2,5.2C570.6,306.5,570.2,306.6,569.9,306.6z M604.2,296.2
			c-1.7,0-3.3-1.1-3.8-2.8c-0.6-2.1,0.6-4.3,2.7-5l17.2-5.2c2.1-0.6,4.3,0.6,5,2.7c0.6,2.1-0.6,4.3-2.7,5l-17.2,5.2
			C605,296.2,604.6,296.2,604.2,296.2z M638.6,285.8c-1.7,0-3.3-1.1-3.8-2.8c-0.6-2.1,0.6-4.3,2.7-5l17.2-5.2c2.1-0.6,4.3,0.6,5,2.7
			c0.6,2.1-0.6,4.3-2.7,5l-17.2,5.2C639.3,285.8,638.9,285.8,638.6,285.8z M672.9,275.4c-1.7,0-3.3-1.1-3.8-2.8
			c-0.6-2.1,0.6-4.3,2.7-5l17.2-5.2c2.1-0.6,4.3,0.6,5,2.7c0.6,2.1-0.6,4.3-2.7,5l-17.2,5.2C673.7,275.4,673.3,275.4,672.9,275.4z
			 M707.3,265c-1.7,0-3.3-1.1-3.8-2.8c-0.6-2.1,0.6-4.3,2.7-5l17.2-5.2c2.1-0.6,4.3,0.6,5,2.7c0.6,2.1-0.6,4.3-2.7,5l-17.2,5.2
			C708,265,707.6,265,707.3,265z M741.6,254.6c-1.7,0-3.3-1.1-3.8-2.8c-0.6-2.1,0.6-4.3,2.7-5l17.2-5.2c2.1-0.6,4.3,0.6,5,2.7
			c0.6,2.1-0.6,4.3-2.7,5l-17.2,5.2C742.4,254.6,742,254.6,741.6,254.6z M775.9,244.3c-1.7,0-3.3-1.1-3.8-2.8
			c-0.6-2.1,0.6-4.3,2.7-5l17.2-5.2c2.1-0.6,4.3,0.6,5,2.7c0.6,2.1-0.6,4.3-2.7,5l-17.2,5.2C776.7,244.2,776.3,244.3,775.9,244.3z
			 M810.3,233.9c-1.7,0-3.3-1.1-3.8-2.8c-0.6-2.1,0.6-4.3,2.7-5l17.2-5.2c2.1-0.6,4.3,0.6,5,2.7c0.6,2.1-0.6,4.3-2.7,5l-17.2,5.2
			C811.1,233.8,810.7,233.9,810.3,233.9z M844.6,223.5c-1.7,0-3.3-1.1-3.8-2.8c-0.6-2.1,0.6-4.3,2.7-5l17.2-5.2
			c2.1-0.6,4.3,0.6,5,2.7c0.6,2.1-0.6,4.3-2.7,5l-17.2,5.2C845.4,223.4,845,223.5,844.6,223.5z M879,213.1c-1.7,0-3.3-1.1-3.8-2.8
			c-0.6-2.1,0.6-4.3,2.7-5l17.2-5.2c2.1-0.6,4.3,0.6,5,2.7c0.6,2.1-0.6,4.3-2.7,5l-17.2,5.2C879.8,213,879.4,213.1,879,213.1z
			 M913.3,202.7c-1.7,0-3.3-1.1-3.8-2.8c-0.6-2.1,0.6-4.3,2.7-5l17.2-5.2c2.1-0.6,4.3,0.6,5,2.7c0.6,2.1-0.6,4.3-2.7,5l-17.2,5.2
			C914.1,202.6,913.7,202.7,913.3,202.7z M947.7,192.3c-1.7,0-3.3-1.1-3.8-2.8c-0.6-2.1,0.6-4.3,2.7-5l17.2-5.2
			c2.1-0.6,4.3,0.6,5,2.7c0.6,2.1-0.6,4.3-2.7,5l-17.2,5.2C948.4,192.2,948.1,192.3,947.7,192.3z M982,181.9c-1.7,0-3.3-1.1-3.8-2.8
			c-0.6-2.1,0.6-4.3,2.7-5l17.2-5.2c2.1-0.6,4.3,0.6,5,2.7c0.6,2.1-0.6,4.3-2.7,5l-17.2,5.2C982.8,181.9,982.4,181.9,982,181.9z
			 M1016.4,171.5c-1.7,0-3.3-1.1-3.8-2.8c-0.6-2.1,0.6-4.3,2.7-5l17.2-5.2c2.1-0.6,4.3,0.6,5,2.7c0.6,2.1-0.6,4.3-2.7,5l-17.2,5.2
			C1017.1,171.5,1016.7,171.5,1016.4,171.5z M1050.7,161.1c-1.7,0-3.3-1.1-3.8-2.8c-0.6-2.1,0.6-4.3,2.7-5l17.2-5.2
			c2.1-0.6,4.3,0.6,5,2.7c0.6,2.1-0.6,4.3-2.7,5l-17.2,5.2C1051.5,161.1,1051.1,161.1,1050.7,161.1z M1085.1,150.7
			c-1.7,0-3.3-1.1-3.8-2.8c-0.6-2.1,0.6-4.3,2.7-5l17.2-5.2c2.1-0.6,4.3,0.6,5,2.7c0.6,2.1-0.6,4.3-2.7,5l-17.2,5.2
			C1085.8,150.7,1085.4,150.7,1085.1,150.7z M1119.4,140.3c-1.7,0-3.3-1.1-3.8-2.8c-0.6-2.1,0.6-4.3,2.7-5l17.2-5.2
			c2.1-0.6,4.3,0.6,5,2.7c0.6,2.1-0.6,4.3-2.7,5l-17.2,5.2C1120.2,140.3,1119.8,140.3,1119.4,140.3z M1153.7,130
			c-1.7,0-3.3-1.1-3.8-2.8c-0.6-2.1,0.6-4.3,2.7-5l17.2-5.2c2.1-0.6,4.3,0.6,5,2.7c0.6,2.1-0.6,4.3-2.7,5l-17.2,5.2
			C1154.5,129.9,1154.1,130,1153.7,130z M1188.1,119.6c-1.7,0-3.3-1.1-3.8-2.8c-0.6-2.1,0.6-4.3,2.7-5l17.2-5.2
			c2.1-0.6,4.3,0.6,5,2.7c0.6,2.1-0.6,4.3-2.7,5l-17.2,5.2C1188.9,119.5,1188.5,119.6,1188.1,119.6z M1222.4,109.2
			c-1.7,0-3.3-1.1-3.8-2.8c-0.6-2.1,0.6-4.3,2.7-5l17.2-5.2c2.1-0.6,4.3,0.6,5,2.7c0.6,2.1-0.6,4.3-2.7,5l-17.2,5.2
			C1223.2,109.1,1222.8,109.2,1222.4,109.2z M1256.8,98.8c-1.7,0-3.3-1.1-3.8-2.8c-0.6-2.1,0.6-4.3,2.7-5l17.2-5.2
			c2.1-0.6,4.3,0.6,5,2.7c0.6,2.1-0.6,4.3-2.7,5l-17.2,5.2C1257.6,98.7,1257.2,98.8,1256.8,98.8z M1291.1,88.4
			c-1.7,0-3.3-1.1-3.8-2.8c-0.6-2.1,0.6-4.3,2.7-5l13.2-4c1.2-0.4,2.3-0.8,3.5-1.3c2-0.9,4.4,0.1,5.2,2.1s-0.1,4.4-2.1,5.2
			c-1.4,0.6-2.8,1.1-4.3,1.5l-13.2,4C1291.9,88.3,1291.5,88.4,1291.1,88.4z M1322.6,72.5c-0.9,0-1.9-0.3-2.6-1
			c-1.7-1.4-1.9-4-0.4-5.6c3.5-4.1,6.1-9,7.4-14.1c0.6-2.1,2.7-3.4,4.9-2.9c2.1,0.6,3.4,2.7,2.9,4.9c-1.6,6.4-4.8,12.4-9.1,17.4
			C1324.9,72.1,1323.7,72.5,1322.6,72.5z M1331.3,39c-1.9,0-3.5-1.3-3.9-3.2c-1.1-5.2-3.4-10.2-6.8-14.5c-1.4-1.7-1.1-4.3,0.7-5.6
			c1.7-1.4,4.2-1.1,5.6,0.7c4.1,5.2,7,11.3,8.3,17.8c0.5,2.2-0.9,4.3-3.1,4.7C1331.8,39,1331.5,39,1331.3,39z M1309.9,11.8
			c-0.6,0-1.2-0.1-1.7-0.4c-4.7-2.3-9.8-3.4-15.1-3.4h-0.6c-2.2,0-4-1.8-4-4s1.8-4,4-4h0.6c6.5,0,12.7,1.4,18.5,4.2
			c2,1,2.8,3.3,1.9,5.3C1312.8,11,1311.4,11.8,1309.9,11.8z M1274.6,8h-17.9c-2.2,0-4-1.8-4-4s1.8-4,4-4h17.9c2.2,0,4,1.8,4,4
			S1276.8,8,1274.6,8z M1238.7,8h-17.9c-2.2,0-4-1.8-4-4s1.8-4,4-4h17.9c2.2,0,4,1.8,4,4S1240.9,8,1238.7,8z M1202.8,8h-17.9
			c-2.2,0-4-1.8-4-4s1.8-4,4-4h17.9c2.2,0,4,1.8,4,4S1205,8,1202.8,8z M1166.9,8H1149c-2.2,0-4-1.8-4-4s1.8-4,4-4h17.9
			c2.2,0,4,1.8,4,4S1169.1,8,1166.9,8z M1131,8h-17.9c-2.2,0-4-1.8-4-4s1.8-4,4-4h17.9c2.2,0,4,1.8,4,4S1133.2,8,1131,8z M1095.1,8
			h-17.9c-2.2,0-4-1.8-4-4s1.8-4,4-4h17.9c2.2,0,4,1.8,4,4S1097.3,8,1095.1,8z M1059.3,8h-17.9c-2.2,0-4-1.8-4-4s1.8-4,4-4h17.9
			c2.2,0,4,1.8,4,4S1061.5,8,1059.3,8z M1023.4,8h-17.9c-2.2,0-4-1.8-4-4s1.8-4,4-4h17.9c2.2,0,4,1.8,4,4S1025.6,8,1023.4,8z
			 M987.5,8h-17.9c-2.2,0-4-1.8-4-4s1.8-4,4-4h17.9c2.2,0,4,1.8,4,4S989.7,8,987.5,8z M951.6,8h-17.9c-2.2,0-4-1.8-4-4s1.8-4,4-4
			h17.9c2.2,0,4,1.8,4,4S953.8,8,951.6,8z M915.7,8h-17.9c-2.2,0-4-1.8-4-4s1.8-4,4-4h17.9c2.2,0,4,1.8,4,4S917.9,8,915.7,8z
			 M879.8,8h-17.9c-2.2,0-4-1.8-4-4s1.8-4,4-4h17.9c2.2,0,4,1.8,4,4S882,8,879.8,8z M843.9,8H826c-2.2,0-4-1.8-4-4s1.8-4,4-4h17.9
			c2.2,0,4,1.8,4,4S846.2,8,843.9,8z M808.1,8h-18c-2.2,0-4-1.8-4-4s1.8-4,4-4h18c2.2,0,4,1.8,4,4S810.3,8,808.1,8z M772.2,8h-17.9
			c-2.2,0-4-1.8-4-4s1.8-4,4-4h17.9c2.2,0,4,1.8,4,4S774.4,8,772.2,8z M736.3,8h-17.9c-2.2,0-4-1.8-4-4s1.8-4,4-4h17.9
			c2.2,0,4,1.8,4,4S738.5,8,736.3,8z M700.4,8h-17.9c-2.2,0-4-1.8-4-4s1.8-4,4-4h17.9c2.2,0,4,1.8,4,4S702.6,8,700.4,8z M664.5,8
			h-17.9c-2.2,0-4-1.8-4-4s1.8-4,4-4h17.9c2.2,0,4,1.8,4,4S666.7,8,664.5,8z M628.6,8h-17.9c-2.2,0-4-1.8-4-4s1.8-4,4-4h17.9
			c2.2,0,4,1.8,4,4S630.9,8,628.6,8z M592.8,8h-17.9c-2.2,0-4-1.8-4-4s1.8-4,4-4h17.9c2.2,0,4,1.8,4,4S595,8,592.8,8z M556.9,8H539
			c-2.2,0-4-1.8-4-4s1.8-4,4-4h17.9c2.2,0,4,1.8,4,4S559.1,8,556.9,8z M521,8h-17.9c-2.2,0-4-1.8-4-4s1.8-4,4-4H521c2.2,0,4,1.8,4,4
			S523.2,8,521,8z M485.1,8h-17.9c-2.2,0-4-1.8-4-4s1.8-4,4-4h17.9c2.2,0,4,1.8,4,4S487.3,8,485.1,8z M449.2,8h-17.9
			c-2.2,0-4-1.8-4-4s1.8-4,4-4h17.9c2.2,0,4,1.8,4,4S451.4,8,449.2,8z M413.3,8h-17.9c-2.2,0-4-1.8-4-4s1.8-4,4-4h17.9
			c2.2,0,4,1.8,4,4S415.6,8,413.3,8z M377.5,8h-17.9c-2.2,0-4-1.8-4-4s1.8-4,4-4h17.9c2.2,0,4,1.8,4,4S379.7,8,377.5,8z M341.6,8
			h-17.9c-2.2,0-4-1.8-4-4s1.8-4,4-4h17.9c2.2,0,4,1.8,4,4S343.8,8,341.6,8z M305.7,8h-17.9c-2.2,0-4-1.8-4-4s1.8-4,4-4h17.9
			c2.2,0,4,1.8,4,4S307.9,8,305.7,8z M269.8,8h-17.9c-2.2,0-4-1.8-4-4s1.8-4,4-4h17.9c2.2,0,4,1.8,4,4S272,8,269.8,8z M233.9,8H216
			c-2.2,0-4-1.8-4-4s1.8-4,4-4h17.9c2.2,0,4,1.8,4,4S236.1,8,233.9,8z M198.1,8h-18c-2.2,0-4-1.8-4-4s1.8-4,4-4h18c2.2,0,4,1.8,4,4
			S200.3,8,198.1,8z M162.2,8h-17.9c-2.2,0-4-1.8-4-4s1.8-4,4-4h17.9c2.2,0,4,1.8,4,4S164.4,8,162.2,8z M126.3,8h-17.9
			c-2.2,0-4-1.8-4-4s1.8-4,4-4h17.9c2.2,0,4,1.8,4,4S128.5,8,126.3,8z M90.4,8H72.5c-2.2,0-4-1.8-4-4s1.8-4,4-4h17.9
			c2.2,0,4,1.8,4,4S92.6,8,90.4,8z M54.5,8H36.6c-2.2,0-4-1.8-4-4s1.8-4,4-4h17.9c2.2,0,4,1.8,4,4S56.7,8,54.5,8z"/>
	</g>
	<g>
		<path d="M672.1,824.4c-2.2,0-4-1.8-4-4v-9c0-2.2,1.8-4,4-4s4,1.8,4,4v9C676.1,822.6,674.3,824.4,672.1,824.4z"/>
	</g>
</g>
<g>
	<path d="M671.9,827.8L637,792.9c-1.6-1.6-1.6-4.1,0-5.7c1.6-1.6,4.1-1.6,5.7,0l29.7,29.7l36.2-30.6c1.7-1.4,4.2-1.2,5.6,0.5
		s1.2,4.2-0.5,5.6L671.9,827.8z"/>
</g>
</svg>
