<svg xmlns="http://www.w3.org/2000/svg" viewBox="0 0 504 456" enable-background="new 0 0 504 456"><path fill="#fff" d="M252.1 264.5c-3.2 0-6.3.2-9.4.3-2.1-5.9-3.3-12.3-3.3-19.4 0-6.9 1.2-19.2 3.2-19.2 1.1 0 2.1.1 3.1.1 52.8 0 95.6-42.8 95.6-95.6 0-12.6-5.8-28.9-12.5-35.6l32.8-18.3v-63.7l-68.4 38.2c-15.2-10.1-30.6-16.1-50.2-16.1-52.8 0-94.2 42.7-94.2 95.5 0 29.7 14.3 56.2 35.5 73.7-5.9 12.4-9 26.2-9 40.9 0 13.2 2.9 25.7 7.7 37.1-27.8 16.3-45.7 42-45.7 71.2 0 49.3 51.4 89.2 114.7 89.2 63.3 0 114.7-39.9 114.7-89.2 0-49.1-51.3-89.1-114.6-89.1zm-6.4-178.4c24.7 0 44.6 20 44.6 44.6 0 24.7-19.9 44.6-44.6 44.6-24.6 0-44.6-19.9-44.6-44.6 0-24.6 20-44.6 44.6-44.6zm6.4 301.9c-28.1 0-51-15.3-51-34.3 0-18.9 22.9-34.3 51-34.3s51 15.4 51 34.3c-.1 19-22.9 34.3-51 34.3z"/></svg>