<?xml version="1.0" encoding="utf-8"?>
<!-- Generator: Adobe Illustrator 19.2.0, SVG Export Plug-In . SVG Version: 6.00 Build 0)  -->
<svg version="1.1" id="Layer_1" xmlns="http://www.w3.org/2000/svg" xmlns:xlink="http://www.w3.org/1999/xlink" x="0px" y="0px"
	 viewBox="0 0 48 48" style="enable-background:new 0 0 48 48;" xml:space="preserve">
<style type="text/css">
	.st0{fill:#3D4351;}
	.st1{fill:#FFFFFF;}
</style>
<circle class="st0" cx="24" cy="24" r="24"/>
<g>
	<g>
		<g>
			<path class="st1" d="M33.9,13c0.6,0,1.1,0.5,1.1,1.1v19.8c0,0.6-0.5,1.1-1.1,1.1H14.1c-0.6,0-1.1-0.5-1.1-1.1V14.1
				c0-0.6,0.5-1.1,1.1-1.1H33.9 M33.9,11H14.1c-1.7,0-3.1,1.4-3.1,3.1v19.8c0,1.7,1.4,3.1,3.1,3.1h19.8c1.7,0,3.1-1.4,3.1-3.1V14.1
				C37,12.4,35.6,11,33.9,11L33.9,11z"/>
		</g>
		<g>
			<path class="st1" d="M22,16v6h-6v-6H22 M23,15h-8v8h8V15L23,15z"/>
		</g>
		<g>
			<path class="st1" d="M32,16v6h-6v-6H32 M33,15h-8v8h8V15L33,15z"/>
		</g>
		<g>
			<path class="st1" d="M22,26v6h-6v-6H22 M23,25h-8v8h8V25L23,25z"/>
		</g>
		<g>
			<path class="st1" d="M32,26v6h-6v-6H32 M33,25h-8v8h8V25L33,25z"/>
		</g>
	</g>
	<g>
		<g>
			<path class="st1" d="M16.5,16H16v0.5C16,16.2,16.2,16,16.5,16z"/>
		</g>
	</g>
	<g>
		<rect x="17" y="18" class="st1" width="1" height="4"/>
	</g>
	<g>
		<rect x="19" y="20" class="st1" width="1" height="2"/>
	</g>
	<g>
		<rect x="17" y="28" class="st1" width="4" height="1"/>
	</g>
	<g>
		<rect x="17" y="30" class="st1" width="4" height="1"/>
	</g>
	<g>
		<path class="st1" d="M31,31h-1c0-0.7-0.3-0.9-1-0.9c-0.7,0-1,0.2-1,0.9h-1c0-1.2,0.7-1.9,2-1.9S31,29.7,31,31z"/>
	</g>
	<g>
		<rect x="27" y="20" class="st1" width="4" height="1"/>
	</g>
	<g>
		<rect x="27" y="18" class="st1" width="2" height="1"/>
	</g>
	<g>
		<rect x="26" y="26" class="st1" width="6" height="1"/>
	</g>
	<g>
		<rect x="16" y="26" class="st1" width="6" height="1"/>
	</g>
	<g>
		<rect x="26" y="16" class="st1" width="6" height="1"/>
	</g>
	<g>
		<rect x="16" y="16" class="st1" width="6" height="1"/>
	</g>
</g>
</svg>
