<?xml version="1.0" encoding="utf-8"?>
<!-- Generator: Adobe Illustrator 18.1.0, SVG Export Plug-In . SVG Version: 6.00 Build 0)  -->
<!DOCTYPE svg PUBLIC "-//W3C//DTD SVG 1.1//EN" "http://www.w3.org/Graphics/SVG/1.1/DTD/svg11.dtd">
<svg version="1.1" id="Layer_1" xmlns="http://www.w3.org/2000/svg" xmlns:xlink="http://www.w3.org/1999/xlink" x="0px" y="0px"
	 viewBox="0 0 307 270" enable-background="new 0 0 307 270" xml:space="preserve">
<g id="Layer_2">
	<g>
		<g>
			<path fill="#0F9D57" d="M162.3,189.2l-0.4,0.1l-75.6,13.3c-2.6,0.5-5.1-1.3-5.6-3.9L60.5,86.1c-0.4-2.4,0.9-4.5,3.1-5.3l0.8-0.3
				l73.8-13.1c3-0.5,5.9,1.5,6.4,4.4l20.9,112.7C165.4,186.2,164.3,188.4,162.3,189.2z M65.3,85.3l20.2,112.6l75-13.2
				c0.1-0.1,0.2-0.3,0.2-0.5L139.9,72.7c-0.1-0.4-0.4-0.6-0.8-0.5L65.3,85.3z"/>
		</g>
		<g>
			<g>
				<path fill="#0F9D57" d="M133.9,119.9l7,37.8c0.4,2.6-1.3,5.1-3.8,5.6l-37.1,6.8c-2.6,0.4-5.1-1.3-5.6-3.8l-9.2-50.2
					c-0.4-2.6,1.3-5.1,3.8-5.6l25-4.7L133.9,119.9z"/>
			</g>
			<polygon fill="#0B7641" points="117,122.9 136.2,133.2 133.9,119.9 			"/>
			<polygon fill="#7EC9A7" points="117,122.9 133.9,119.9 113.8,106.1 			"/>
			<path fill="#FFFFFF" d="M97.1,135.7l4.1,21.6l30.3-5.6l-4.1-21.6L97.1,135.7z M111.4,153.3l-8.8,1.5l-0.9-4.3l8.8-1.5
				L111.4,153.3z M110.4,146.6l-8.8,1.5l-0.9-4.1l8.8-1.5L110.4,146.6z M109.1,140.2l-8.8,1.5l-0.9-4.1l8.8-1.5L109.1,140.2z
				 M128.7,150.1l-15.2,2.8l-0.9-4.3l15.2-2.8L128.7,150.1z M127.7,143.4l-15.2,2.8l-0.9-4.1l15.2-2.8L127.7,143.4z M126.4,137
				l-15.2,2.8l-0.9-4.3l15.2-2.8L126.4,137z"/>
		</g>
	</g>
	<g>
		<g>
			<path fill="#FFFFFF" d="M165.9,67.2c0.2,0,0.4,0,0.9,0l54.7,9.6c1.3,0.2,2.3,0.9,3.2,2.1l16.7,25.2c0.6,0.9,0.9,2.1,0.9,3.4
				l-16,91.4c-0.4,2.3-2.3,4.1-4.7,4.1c-0.2,0-0.4,0-0.9,0l-75.2-13.2c-2.6-0.4-4.3-2.8-3.8-5.6l19.9-112.7
				C161.6,68.9,163.8,67.2,165.9,67.2"/>
		</g>
		<g>
			<path fill="#FFFFFF" d="M166.7,67.2l54.7,9.6c1.3,0.4,2.3,1.1,3.2,2.1l16.7,25.2c0.9,1.1,1.1,2.1,0.9,3.4l-16,91.2
				c-0.4,2.6-2.6,4.1-4.7,4.1c-0.2,0-0.6,0-0.9,0l-75.2-13.2c-2.6-0.4-4.3-3-3.8-5.6l19.6-112.7c0.4-2.6,2.6-4.1,4.7-4.1
				C166.3,67.2,166.3,67.2,166.7,67.2 M167.2,62.9h-0.4h-0.9c-4.5,0-8.1,3.2-9,7.7l-19.6,112.7c-0.9,4.9,2.6,9.6,7.3,10.5l75.2,13.2
				h0.4h0.4h0.9c4.5,0,8.1-3.2,9-7.7l16-91.2c0.4-2.6-0.2-4.7-1.5-6.6l-16.7-25l-0.2-0.2l-0.2-0.2c-1.3-1.7-3-2.8-5.1-3.4h-0.2h-0.2
				l-54.7-9.6L167.2,62.9L167.2,62.9z"/>
		</g>
		<g>
			<path fill="#207245" d="M221.2,202.9h-0.4l-75.6-13.5c-2.6-0.4-4.3-2.9-3.9-5.6L161.2,71c0.5-2.3,2.4-3.9,4.8-3.9h0.9l73.8,13.1
				c3,0.5,5,3.4,4.5,6.4l-19.1,113C225.1,201.2,223.3,202.9,221.2,202.9z M165.9,72l-19.8,112.7L221,198c0.1-0.1,0.3-0.2,0.4-0.4
				l18.8-111.8c0.1-0.4-0.2-0.7-0.5-0.8L165.9,72z"/>
		</g>
		<g>
			<path fill="#207245" d="M223.8,118.9l-20.7-3.4c0.2-1.7,0.4-2.1,0.6-4.1l-4.1-0.6h-31.4c-2.8,15.4-5.3,30.7-8.1,46.3
				c9.6,3.4,19.6,7,29.3,10.7l4.1,0.9c0.2-1.9,0.6-4.1,1.1-6c6.8,1.3,13.7,2.3,20.5,3.6c1.1,0.2,2.8,0.4,3.4-0.9
				c0.9-1.7,0.9-3.8,1.3-5.8l6.2-37.8C226.1,120.6,225.2,119.3,223.8,118.9z M183,136.8c1.1,4.1,2.3,7.9,3.4,12.2
				c-1.5-0.2-3.2-0.9-4.7-1.1c-0.6-3-1.5-6-1.9-9c-1.5,2.6-3.2,4.7-4.7,7.3c-1.5-0.2-2.8-0.6-4.3-0.9c2.1-3,4.5-6,6.8-9
				c-0.9-3.6-1.9-7.3-2.8-10.9c1.5,0.2,2.8,0.2,4.5,0.4c0.4,2.8,1.1,5.6,1.5,8.3c1.5-2.8,3.2-5.1,4.7-7.7c1.5,0.2,3,0.2,4.7,0.4
				C188.1,130.2,185.5,133.4,183,136.8z M216.7,164.4c-7.3-1.3-14.5-2.6-21.8-3.8c0.2-1.3,0.4-2.8,0.6-4.1c1.7,0.2,3.4,0.6,5.3,0.9
				c0.2-1.5,0.4-3,0.9-4.7c-1.7-0.2-3.4-0.6-5.3-0.9c0.2-0.9,0.2-1.7,0.4-2.8c1.7,0.2,3.4,0.6,5.3,0.9c0.2-1.5,0.4-3,0.9-4.7
				c-1.7-0.2-3.4-0.6-5.3-0.9c0.2-0.9,0.2-1.7,0.4-2.8c1.7,0.2,3.4,0.6,5.3,0.9c0.2-1.5,0.4-3,0.9-4.7c-1.7-0.2-3.4-0.6-5.3-0.9
				c0.2-0.9,0.2-1.7,0.4-2.8c1.7,0.2,3.4,0.6,5.3,0.9c0.2-1.5,0.4-3,0.9-4.7c-1.7-0.2-3.4-0.6-5.3-0.9c0.2-0.9,0.2-1.7,0.4-2.8
				c1.7,0.2,3.4,0.6,5.3,0.9c0.2-1.5,0.4-3,0.9-4.7c-1.7-0.2-3.4-0.6-5.3-0.9c0.2-1.3,0.2-2.6,0.4-3.8c7.3,1.3,14.5,2.6,21.8,3.8
				C221.4,136.6,219.3,150.5,216.7,164.4z"/>
			<path id="path58" fill="#207245" d="M209.7,124.2c3,0.4,6.2,1.1,9.2,1.5c-0.2,1.5-0.4,3-0.9,4.7c-3-0.4-6.2-1.1-9.2-1.5
				C209,127.2,209.2,125.7,209.7,124.2z"/>
			<path id="path90" fill="#207245" d="M208.4,131.3c3,0.4,6.2,1.1,9.2,1.5c-0.2,1.5-0.4,3-0.9,4.7c-3-0.4-6.2-1.1-9.2-1.5
				C207.7,134.5,208,133,208.4,131.3z"/>
			<path id="path108" fill="#207245" d="M207.1,138.7c3,0.4,6.2,1.1,9.2,1.5c-0.2,1.5-0.4,3-0.9,4.7c-3-0.4-6.2-1.1-9.2-1.5
				C206.5,141.7,206.7,140.2,207.1,138.7z"/>
			<path id="path114" fill="#207245" d="M205.8,146c3,0.4,6.2,1.1,9.2,1.5c-0.2,1.5-0.4,3-0.9,4.7c-3-0.4-6.2-1.1-9.2-1.5
				C205.2,149,205.4,147.5,205.8,146z"/>
			<path id="path120" fill="#207245" d="M204.5,153.3c3,0.4,6.2,1.1,9.2,1.5c-0.2,1.5-0.4,3-0.9,4.7c-3-0.4-6.2-1.1-9.2-1.5
				C203.9,156.2,204.3,154.7,204.5,153.3z"/>
		</g>
	</g>
</g>
</svg>
