<?xml version="1.0" encoding="utf-8"?>
<!-- Generator: Adobe Illustrator 19.2.0, SVG Export Plug-In . SVG Version: 6.00 Build 0)  -->
<svg version="1.1" id="Layer_1" xmlns="http://www.w3.org/2000/svg" xmlns:xlink="http://www.w3.org/1999/xlink" x="0px" y="0px"
	 viewBox="0 0 48 48" style="enable-background:new 0 0 48 48;" xml:space="preserve">
<style type="text/css">
	.st0{fill:#FFAE00;}
	.st1{fill:#FFFFFF;}
	.st2{opacity:0.5;}
</style>
<circle class="st0" cx="24" cy="24" r="24"/>
<g>
	<g>
		<path class="st1" d="M24,12.8l11.4,6L24,24.2l-11.4-5.4L24,12.8 M24,10.8c-0.2,0-0.5,0.1-0.7,0.2l-12.5,6.5
			c-1.1,0.6-1.1,2.2,0.1,2.7l12.5,5.9c0.2,0.1,0.4,0.1,0.6,0.1s0.4,0,0.6-0.1l12.5-5.9c1.1-0.5,1.2-2.1,0.1-2.7l-12.5-6.5
			C24.5,10.8,24.2,10.8,24,10.8L24,10.8z"/>
	</g>
	<g>
		<path class="st1" d="M24,37.2c-5.4,0-9-2-9-5.1V20.4l2,2v9.8c0,1.5,2.5,3.1,7,3.1s7-1.6,7-3.1v-9.8l2-2v11.8
			C33,35.2,29.4,37.2,24,37.2z"/>
	</g>
	<g>
		<path class="st1" d="M35,28.4c-0.6,0-1-0.4-1-1v-7c0-0.6,0.4-1,1-1s1,0.4,1,1v7C36,27.9,35.6,28.4,35,28.4z"/>
	</g>
	<g class="st2">
		<polygon class="st1" points="24,29.2 15.5,25.4 15.9,24.5 24,28.1 31.3,24.5 31.8,25.4 		"/>
	</g>
</g>
</svg>
