<svg xmlns="http://www.w3.org/2000/svg" viewBox="0 0 126 114" enable-background="new 0 0 126 114"><path fill="#8CC640" d="M72.067 54.326c-10.735 0-19.469-8.733-19.469-19.469s8.734-19.469 19.469-19.469c.828 0 1.5.671 1.5 1.5v35.938c0 .828-.671 1.5-1.5 1.5zm-1.5-35.87c-8.381.76-14.969 7.826-14.969 16.401s6.588 15.641 14.969 16.401v-32.802zM86.328 36.357h-14.261c-.828 0-1.5-.671-1.5-1.5s.672-1.5 1.5-1.5h14.261c.828 0 1.5.671 1.5 1.5s-.672 1.5-1.5 1.5zM28.802 54.874c-1.53 0-2.969-.596-4.05-1.678-2.233-2.233-2.233-5.868 0-8.101l13.071-13.071.203-.187c1.085-1.153 2.566-1.798 4.154-1.798h19.311c3.159 0 5.729 2.57 5.729 5.729s-2.57 5.729-5.729 5.729h-16.938l-11.7 11.7c-1.082 1.08-2.52 1.677-4.051 1.677zm13.378-22.835c-1.03 0-1.993.421-2.71 1.186l-.127.118-.105.095-13.072 13.07c-1.454 1.454-1.454 3.819 0 5.273 1.408 1.408 3.865 1.408 5.273 0l11.993-11.993c.188-.188.442-.293.707-.293h17.352c2.056 0 3.729-1.672 3.729-3.729 0-2.056-1.673-3.729-3.729-3.729h-19.311zM48.405 113.786c-.829 0-1.5-.672-1.5-1.5v-48.027c0-1.78-1.448-3.229-3.229-3.229h-30.87c-1.78 0-3.229 1.448-3.229 3.229v48.027c0 .828-.671 1.5-1.5 1.5s-1.5-.672-1.5-1.5v-48.027c0-3.435 2.794-6.229 6.229-6.229h30.871c3.435 0 6.229 2.794 6.229 6.229v48.027c-.001.828-.673 1.5-1.501 1.5z"/><path fill="#3B4251" d="M98.267 58.865c-.455 0-.904-.206-1.199-.598-.498-.662-.366-1.603.296-2.101 6.896-5.196 10.852-13.119 10.852-21.737 0-8.619-3.955-16.542-10.852-21.738-.662-.499-.794-1.439-.296-2.101.498-.661 1.438-.794 2.101-.295 7.656 5.768 12.047 14.564 12.047 24.134 0 9.569-4.391 18.366-12.047 24.133-.272.205-.588.303-.902.303zM107.963 68.561c-.432 0-.86-.186-1.157-.544-.527-.639-.438-1.584.2-2.112 9.423-7.791 14.827-19.263 14.827-31.475 0-12.213-5.404-23.685-14.827-31.475-.639-.528-.728-1.474-.2-2.112.528-.64 1.473-.729 2.112-.201 10.114 8.362 15.915 20.677 15.915 33.788 0 13.11-5.801 25.424-15.915 33.788-.28.23-.618.343-.955.343zM90.076 50.674c-.503 0-.995-.253-1.278-.713-.435-.706-.215-1.629.491-2.064 4.727-2.911 7.549-7.946 7.549-13.467 0-5.522-2.822-10.557-7.549-13.468-.706-.435-.926-1.358-.491-2.064.435-.706 1.359-.923 2.063-.491 5.621 3.462 8.977 9.451 8.977 16.022 0 6.571-3.355 12.56-8.977 16.022-.245.151-.516.223-.785.223z"/><path fill="#8CC640" d="M40.765 61.03c-.829 0-1.5-.672-1.5-1.5v-6.606c0-5.092-4.142-9.234-9.234-9.234h-2.89c-5.092 0-9.234 4.142-9.234 9.234v6.606c0 .828-.671 1.5-1.5 1.5s-1.5-.672-1.5-1.5v-6.606c0-6.746 5.488-12.234 12.234-12.234h2.89c6.746 0 12.234 5.488 12.234 12.234v6.606c0 .828-.672 1.5-1.5 1.5zM60.208 37.688c-.598 0-1.16-.233-1.583-.656-.873-.872-.873-2.292 0-3.165.848-.847 2.32-.846 3.166-.001.873.874.873 2.294 0 3.166-.422.423-.984.656-1.583.656zm0-2.477c-.045 0-.111.012-.169.07-.092.092-.092.244 0 .337.116.115.222.115.338 0 .093-.093.093-.245 0-.338-.057-.057-.123-.069-.169-.069zM29.513 50.673c-.598 0-1.16-.233-1.583-.656-.422-.422-.655-.984-.655-1.582s.233-1.16.656-1.583c.845-.846 2.32-.846 3.166 0 .873.874.873 2.293 0 3.166-.424.422-.986.655-1.584.655zm0-2.477c-.045 0-.11.012-.168.069-.058.059-.07.125-.07.169s.012.11.069.168c.117.117.222.116.338 0 .093-.093.093-.245 0-.338-.058-.056-.124-.068-.169-.068zM52.447 113.786h-49.114c-.829 0-1.5-.672-1.5-1.5s.671-1.5 1.5-1.5h49.114c.829 0 1.5.672 1.5 1.5s-.671 1.5-1.5 1.5zM19.669 100.963h-11.48c-.552 0-1-.447-1-1s.448-1 1-1h11.48c3.091 0 5.606-2.515 5.606-5.605v-15.78c0-3.091-2.515-5.605-5.606-5.605h-11.48c-.552 0-1-.447-1-1s.448-1 1-1h11.48c4.194 0 7.606 3.412 7.606 7.605v15.78c0 4.193-3.412 7.605-7.606 7.605z"/></svg>