<svg xmlns="http://www.w3.org/2000/svg" viewBox="0 0 360 283" enable-background="new 0 0 360 283"><path fill="#3B4251" d="M248.5 191.7c-3.7 0-6.7-3-6.7-6.7s3-6.7 6.7-6.7 6.7 3 6.7 6.7-3 6.7-6.7 6.7zm0-8.4c-.9 0-1.7.8-1.7 1.7s.8 1.7 1.7 1.7 1.7-.8 1.7-1.7-.7-1.7-1.7-1.7zm0 33.2c-3.7 0-6.7-3-6.7-6.7s3-6.7 6.7-6.7 6.7 3 6.7 6.7c0 3.8-3 6.7-6.7 6.7zm0-8.3c-.9 0-1.7.8-1.7 1.7s.8 1.7 1.7 1.7 1.7-.8 1.7-1.7-.7-1.7-1.7-1.7zm58.8 50h-117.5c-2.1 0-3.7-1.7-3.7-3.7v-98.1c0-.6.1-1.1.4-1.6.6-4.8 4.4-9.1 9.7-10.4 3.2-.9 6-1.6 8.6-2.4 8.1-2.3 13.8-3.9 23-4.8-10-8-16-21.2-16-35.6 0-23.8 16.5-43.2 36.9-43.2s36.9 19.4 36.9 43.2c0 14.4-6 27.6-15.9 35.6 9.3.9 15.1 2.6 23.2 4.8 2.6.7 5.4 1.5 8.6 2.4 5.7 1.5 9.8 6.4 9.8 11.8v98.39999999999999c-.3 1.9-2 3.6-4 3.6zm-113.8-7.4h110.1v-94.6c.1-1.7-1.4-4-4.2-4.7-3.3-.9-6.1-1.7-8.7-2.4-9.4-2.7-15.1-4.3-27-5-2-.1-3.5-1.8-3.5-3.7v-3.8c0-1.3.7-2.5 1.8-3.2 9.9-6.2 16.1-18.4 16.1-31.9 0-19.7-13.2-35.8-29.4-35.8s-29.4 16.1-29.4 35.8c0 13.6 6.3 25.9 16.3 32 1.1.7 1.8 1.9 1.8 3.2v3.7c0 2-1.5 3.6-3.5 3.7-11.9.8-17.6 2.4-27 5-2.6.7-5.4 1.5-8.7 2.4-2.5.7-4.3 2.7-4.2 4.7 0 .5-.1 1.1-.3 1.6l-.2 93z"/><path fill="#fff" d="M194 139.3c.2-4.3-3.1-8.6-8.2-9.9-17.9-4.7-26.2-7.7-44.5-8.8v-4.6c12.4-7.7 20.9-23.2 20.9-41.1 0-25.6-17.4-46.4-38.9-46.4s-38.8 20.8-38.8 46.4c0 18 8.7 33.6 21.3 41.3v4.3c-18.3 1.2-26.6 4.1-44.5 8.8-5.1 1.4-8.4 5.6-8.2 9.9h-.3v115.2h141.4l-.2-115.1z"/><path fill="#8EC348" d="M194.1 258.2h-141.4c-2.1 0-3.7-1.7-3.7-3.7v-115.2c0-.6.1-1.2.4-1.7.6-5.4 5-10.3 10.9-11.8 2.7-.7 5.2-1.4 7.5-2 11.7-3.2 19.8-5.4 32.8-6.6-12.3-9.1-19.8-25-19.8-42.3 0-27.6 19.1-50.1 42.6-50.1s42.6 22.5 42.6 50.1c0 17.3-7.5 33.1-19.7 42.3 13.1 1.2 21.2 3.4 33 6.6 2.3.6 4.8 1.3 7.5 2 6.4 1.7 11 7.2 11 13.2v115.5c0 2-1.7 3.7-3.7 3.7zm-137.7-7.4h133.9v-111.6c.1-2.7-2.2-5.3-5.4-6.2-2.7-.7-5.2-1.4-7.6-2-13.1-3.6-21.1-5.7-36.2-6.7-2-.1-3.5-1.8-3.5-3.7v-4.6c0-1.3.7-2.5 1.8-3.2 11.8-7.4 19.2-21.9 19.2-38 0-23.5-15.8-42.6-35.2-42.6-19.4 0-35.2 19.1-35.2 42.6 0 16.2 7.5 30.8 19.5 38.1 1.1.7 1.8 1.9 1.8 3.2v4.3c0 2-1.5 3.6-3.5 3.7-15.2 1-23.1 3.1-36.2 6.7-2.3.6-4.8 1.3-7.6 2-3.3.9-5.6 3.5-5.4 6.2 0 .6-.1 1.2-.3 1.7l-.1 110.1zm67-99.2c-1.1 0-2.1-.5-2.7-1.2l-24.7-26.8c-1.4-1.5-1.3-3.9.2-5.3s3.9-1.3 5.3.2l22.2 24 24.5-23.9c1.5-1.4 3.8-1.4 5.3.1 1.4 1.5 1.4 3.8-.1 5.3l-27.4 26.5c-.7.7-1.6 1.1-2.6 1.1z"/><path fill="#3B4251" d="M248.5 163c-14.6 0-26.5-9.7-26.5-21.5 0-2.1 1.7-3.7 3.7-3.7s3.7 1.7 3.7 3.7c0 7.8 8.5 14.1 19.1 14.1s19.1-6.3 19.1-14.1c0-2.1 1.7-3.7 3.7-3.7s3.7 1.7 3.7 3.7c0 11.9-11.8 21.5-26.5 21.5z"/><path fill="#8EC348" d="M123.4 257c-1.4 0-2.5-1.1-2.5-2.5v-106.6c0-1.4 1.1-2.5 2.5-2.5s2.5 1.1 2.5 2.5v106.6c0 1.3-1.1 2.5-2.5 2.5zm-36.5-57.8c-8.5 0-15.4-6.9-15.4-15.4v-17.2c0-1.4 1.1-2.5 2.5-2.5h25.8c1.4 0 2.5 1.1 2.5 2.5v17.2c0 8.5-6.9 15.4-15.4 15.4zm-10.4-30.1v14.7c0 5.7 4.7 10.4 10.4 10.4s10.4-4.7 10.4-10.4v-14.7h-20.8z"/></svg>