<?xml version="1.0" encoding="UTF-8"?>
<svg width="48px" height="48px" viewBox="0 0 48 48" version="1.1" xmlns="http://www.w3.org/2000/svg" xmlns:xlink="http://www.w3.org/1999/xlink">
    <!-- Generator: Sketch 43.2 (39069) - http://www.bohemiancoding.com/sketch -->
    <title>Page 1</title>
    <desc>Created with Sketch.</desc>
    <defs></defs>
    <g id="Page-1" stroke="none" stroke-width="1" fill="none" fill-rule="evenodd">
        <g id="Home" transform="translate(-145.000000, -970.000000)">
            <g id="You-Understand-What-Metrics..." transform="translate(145.000000, 937.000000)">
                <g id="Text">
                    <g id="Main-Text">
                        <g id="Title" transform="translate(0.000000, 30.000000)">
                            <g id="Page-1" transform="translate(0.000000, 3.000000)">
                                <path d="M24,0 C10.745,0 0,10.745 0,24 C0,37.255 10.745,48 24,48 C37.255,48 48,37.255 48,24 C48,10.745 37.255,0 24,0" id="Fill-1" fill="#8DC63F"></path>
                                <path d="M35.375,25.43275 C35.272625,25.43275 35.06525,25.556125 34.8535,25.825625 L33.7125,27.2755 C33.389625,27.685875 32.92675,27.8985 32.456,27.87225 C31.980875,27.84075 31.555625,27.566 31.2905,27.11975 L27.651375,21 L21.666375,30.302125 C21.379375,30.748375 20.93925,31.0065 20.460625,31.010875 C19.97325,31.010875 19.534,30.7615 19.24175,30.323125 L15.569375,24.838625 L14.354,26.306 C13.9935,26.74 13.507875,27.18275 12.625,27.18275 L10,27.18275 L10,31.1734955 C10,32.8354609 11.3504982,34.18275 12.9964905,34.18275 L35.0035095,34.18275 C36.6584255,34.18275 38,32.8347384 38,31.1837382 L38,25.43275 L35.375,25.43275 Z" id="Fill-3" fill="#C5E698"></path>
                                <path d="M12.625,25.5 C12.755375,25.5 12.804375,25.5 13.0065,25.25675 L14.410875,23.56275 C14.736375,23.169875 15.1975,22.966 15.669125,22.982625 C16.1425,23.007125 16.5765,23.2635 16.859125,23.687875 L20.44225,29.0385 L26.471,19.66725 C26.765875,19.209625 27.178875,18.973375 27.69075,18.96025 C28.169375,18.969 28.60075,19.24025 28.8755,19.70225 L32.586375,25.943625 L33.478,24.811375 C34.01525,24.127125 34.689875,23.75 35.375,23.75 L38,23.75 L38,17.9990118 C38,16.3427033 36.6495018,15 35.0035095,15 L12.9964905,15 C11.3415745,15 10,16.3511958 10,18.0088786 L10,25.5 L12.625,25.5 Z" id="Fill-1" fill="#FFFFFF"></path>
                            </g>
                        </g>
                    </g>
                </g>
            </g>
        </g>
    </g>
</svg>