<?xml version="1.0" encoding="utf-8"?>
<!-- Generator: Adobe Illustrator 19.2.0, SVG Export Plug-In . SVG Version: 6.00 Build 0)  -->
<svg version="1.1" id="Layer_1" xmlns="http://www.w3.org/2000/svg" xmlns:xlink="http://www.w3.org/1999/xlink" x="0px" y="0px"
	 viewBox="0 0 48 48" style="enable-background:new 0 0 48 48;" xml:space="preserve">
<style type="text/css">
	.st0{fill:#5A7CCC;}
	.st1{opacity:0.25;}
	.st2{fill:#FFFFFF;stroke:#8CC640;stroke-width:1.4;stroke-linecap:round;stroke-miterlimit:10;}
	.st3{fill:#FFFFFF;}
</style>
<circle class="st0" cx="24" cy="24" r="24"/>
<g>
	<g>
		<g>
			<path class="st3" d="M24,37.6c-7.7,0-14-6.3-14-14c0-7.7,6.3-14,14-14c1.8,0,3.5,0.3,5.2,1l-0.5,1.3c-1.5-0.6-3-0.9-4.6-0.9
				c-6.9,0-12.6,5.7-12.6,12.6c0,6.9,5.7,12.6,12.6,12.6c6.9,0,12.6-5.7,12.6-12.6c0-1.6-0.3-3.2-0.9-4.6l1.3-0.5
				c0.7,1.6,1,3.4,1,5.2C38,31.3,31.7,37.6,24,37.6z"/>
		</g>
		<g>
			<circle class="st3" cx="24" cy="23.6" r="2.8"/>
		</g>
		<g>
			<path class="st3" d="M24,24.6c-0.2,0-0.4-0.1-0.5-0.2c-0.3-0.3-0.3-0.7,0-1l12.6-12.9c0.3-0.3,0.7-0.3,1,0c0.3,0.3,0.3,0.7,0,1
				L24.5,24.3C24.4,24.5,24.2,24.6,24,24.6z"/>
		</g>
		<g>
			<path class="st3" d="M33.8,13.6v-3.1c0-0.2-0.2-0.2-0.3-0.1l-3,2.7c-0.3,0.3-0.2,0.3-0.2,0.7v3.5c0,0.1-0.1,0,0,0h2.8
				c0.4,0,0.9,0.1,1.1-0.2l3-3c0.1-0.1,0-0.3-0.1-0.3H34C33.9,13.8,33.8,13.7,33.8,13.6z"/>
		</g>
		<g>
			<path class="st3" d="M16.8,40.4c-0.1,0-0.1,0-0.2,0c-0.4-0.1-0.6-0.5-0.5-0.8l0.9-3.9c0.1-0.4,0.5-0.6,0.8-0.5
				c0.4,0.1,0.6,0.5,0.5,0.8l-0.9,3.9C17.4,40.2,17.1,40.4,16.8,40.4z"/>
		</g>
		<g>
			<path class="st3" d="M31.6,40.4c-0.3,0-0.6-0.2-0.7-0.5L30.1,36c-0.1-0.4,0.2-0.8,0.5-0.8c0.4-0.1,0.8,0.2,0.8,0.5l0.9,3.9
				c0.1,0.4-0.2,0.8-0.5,0.8C31.7,40.4,31.7,40.4,31.6,40.4z"/>
		</g>
	</g>
	<g>
		<path class="st3" d="M30,21.6c0.2,0.6,0.3,1.3,0.3,2c0,3.5-2.8,6.3-6.3,6.3s-6.3-2.8-6.3-6.3c0-3.5,2.8-6.3,6.3-6.3
			c0.7,0,1.4,0.1,2,0.3l2.7-2.7c-1.4-0.8-3-1.2-4.7-1.2c-5.4,0-9.8,4.4-9.8,9.8s4.4,9.8,9.8,9.8s9.8-4.4,9.8-9.8
			c0-1.7-0.4-3.3-1.2-4.7L30,21.6z"/>
	</g>
</g>
</svg>
