<?xml version="1.0" encoding="utf-8"?>
<!-- Generator: Adobe Illustrator 21.0.0, SVG Export Plug-In . SVG Version: 6.00 Build 0)  -->
<svg version="1.1" id="Layer_1" xmlns="http://www.w3.org/2000/svg" xmlns:xlink="http://www.w3.org/1999/xlink" x="0px" y="0px"
	 viewBox="0 0 36 36" style="enable-background:new 0 0 36 36;" xml:space="preserve">
<style type="text/css">
	.st0{fill-rule:evenodd;clip-rule:evenodd;fill:#E43045;}
	.st1{opacity:0.5;fill-rule:evenodd;clip-rule:evenodd;fill:#FFFFFF;}
</style>
<path id="SVGID_33_" class="st0" d="M24,23.7c1.7-2.7,1.3-6.3-1-8.6c-2.7-2.7-7.2-2.7-9.9,0c-2.7,2.7-2.7,7.2,0,9.9
	c2.1,2.1,5.3,2.6,7.9,1.4l6.1,7.1c0.8,0.8,2,0.8,2.8,0c0.8-0.8,0.8-2,0-2.8L24,23.7z M15.2,22.9c-1.6-1.6-1.6-4.1,0-5.7
	c1.6-1.6,4.1-1.6,5.7,0c1.6,1.6,1.6,4.1,0,5.7C19.3,24.4,16.7,24.4,15.2,22.9"/>
<path id="SVGID_25_" class="st0" d="M30,28V10.2c0-0.6-0.3-1.3-0.7-1.7l-5.5-5.7C23.5,2.4,22.7,2,22.1,2H9C7.3,2,6,3.4,6,5v26
	c0,1.7,1.3,3,3,3h16.4l-4.6-5.3c-3.2,1-6.7,0.2-9.1-2.2c-3.5-3.5-3.5-9.2,0-12.8c3.5-3.5,9.3-3.5,12.8,0c2.7,2.7,3.4,6.7,1.9,10.1
	L30,28z"/>
<path id="SVGID_29_" class="st1" d="M30,9h-5c-1.1,0-2-1-2-2.2V2L30,9z"/>
</svg>
