<?xml version="1.0" encoding="utf-8"?>
<!-- Generator: Adobe Illustrator 21.0.0, SVG Export Plug-In . SVG Version: 6.00 Build 0)  -->
<svg version="1.1" id="Layer_1" xmlns="http://www.w3.org/2000/svg" xmlns:xlink="http://www.w3.org/1999/xlink" x="0px" y="0px"
	 viewBox="0 0 65 64" style="enable-background:new 0 0 65 64;" xml:space="preserve">
<style type="text/css">
	.st0{fill:#BDCAD6;}
	.st1{fill:#76899E;}
	.st2{fill:#FA635D;}
	.st3{fill:#F1C772;}
	.st4{fill:#41CA4B;}
</style>
<g>
	<g>
		<path class="st0" d="M61,64H4c-2.2,0-4-1.8-4-4V4c0-2.2,1.8-4,4-4h57c2.2,0,4,1.8,4,4v56C65,62.2,63.2,64,61,64z"/>
		<path class="st1" d="M65,16H0V4c0-2.2,1.8-4,4-4h57c2.2,0,4,1.8,4,4V16z"/>
		<g>
			<circle class="st2" cx="7" cy="8" r="2"/>
		</g>
		<g>
			<circle class="st3" cx="14" cy="8" r="2"/>
		</g>
		<g>
			<circle class="st4" cx="21" cy="8" r="2"/>
		</g>
	</g>
	<circle class="st1" cx="23.5" cy="40.5" r="2.5"/>
	<circle class="st1" cx="32.5" cy="40.5" r="2.5"/>
	<circle class="st1" cx="41.5" cy="40.5" r="2.5"/>
	<g>
		<path class="st1" d="M15.1,42.6c0-1-1-1.6-1.5-1.7c-0.2,0-0.3-0.2-0.3-0.4v-0.7c0-0.2,0.2-0.3,0.3-0.3c0.5-0.1,1.5-0.7,1.5-1.7
			v-3.2c0-4,3.2-5,5.4-5c0.2,0,0.4,0.1,0.4,0.4v0.4c0,0.2-0.1,0.4-0.3,0.4c-2.1,0.3-4.1,1.4-4.1,3.8v2.6c0,2.2-1.1,2.7-1.8,3v0.2
			c0.6,0.3,1.8,0.8,1.8,3v2.6c0,2.4,2,3.5,4.1,3.8c0.2,0,0.3,0.1,0.3,0.4v0.4c0,0.2-0.2,0.4-0.4,0.4c-2.3,0-5.4-0.9-5.4-5V42.6z"/>
	</g>
	<g>
		<path class="st1" d="M50,45.8c0,4-3.2,5-5.4,5c-0.2,0-0.4-0.2-0.4-0.4V50c0-0.2,0.1-0.4,0.3-0.4c2.1-0.3,4.1-1.4,4.1-3.8v-2.6
			c0-2.2,1.1-2.7,1.8-3V40c-0.6-0.3-1.8-0.8-1.8-3v-2.6c0-2.4-2-3.5-4.1-3.8c-0.2,0-0.3-0.2-0.3-0.4v-0.4c0-0.3,0.2-0.4,0.4-0.4
			c2.3,0,5.4,1,5.4,5v3.2c0,1,1,1.6,1.5,1.7c0.2,0,0.3,0.2,0.3,0.3v0.7c0,0.2-0.2,0.4-0.3,0.4C51,40.9,50,41.6,50,42.6V45.8z"/>
	</g>
</g>
</svg>
