<?xml version="1.0" encoding="utf-8"?>
<!-- Generator: Adobe Illustrator 21.0.0, SVG Export Plug-In . SVG Version: 6.00 Build 0)  -->
<svg version="1.1" id="Layer_1" xmlns="http://www.w3.org/2000/svg" xmlns:xlink="http://www.w3.org/1999/xlink" x="0px" y="0px"
	 viewBox="0 0 65 64" style="enable-background:new 0 0 65 64;" xml:space="preserve">
<style type="text/css">
	.st0{clip-path:url(#SVGID_2_);}
	.st1{fill:#4990E2;}
	.st2{clip-path:url(#SVGID_4_);}
	.st3{fill:#1D71B7;}
	.st4{fill:#FFFFFF;}
	.st5{opacity:0.5;}
</style>
<g>
	<g>
		<g>
			<defs>
				<path id="SVGID_1_" d="M52.5,64h-40c-2.2,0-4-1.8-4-4V4c0-2.2,1.8-4,4-4h28.3c1.1,0,2.1,0.4,2.8,1.2l11.7,11.7
					c0.8,0.8,1.2,1.8,1.2,2.8V60C56.5,62.2,54.7,64,52.5,64z"/>
			</defs>
			<clipPath id="SVGID_2_">
				<use xlink:href="#SVGID_1_"  style="overflow:visible;"/>
			</clipPath>
			<g class="st0">
				<rect x="8.5" class="st1" width="48" height="64"/>
			</g>
		</g>
		<g>
			<defs>
				<path id="SVGID_3_" d="M52.5,64h-40c-2.2,0-4-1.8-4-4V4c0-2.2,1.8-4,4-4h28.3c1.1,0,2.1,0.4,2.8,1.2l11.7,11.7
					c0.8,0.8,1.2,1.8,1.2,2.8V60C56.5,62.2,54.7,64,52.5,64z"/>
			</defs>
			<clipPath id="SVGID_4_">
				<use xlink:href="#SVGID_3_"  style="overflow:visible;"/>
			</clipPath>
			<g class="st2">
				<path class="st3" d="M56.5,14h-10c-2.2,0-4-1.8-4-4V0h14V14z"/>
			</g>
		</g>
	</g>
	<g>
		<path class="st4" d="M46.5,25v19h-28V25H46.5 M46.5,23h-28c-1.1,0-2,0.9-2,2v19c0,1.1,0.9,2,2,2h28c1.1,0,2-0.9,2-2V25
			C48.5,23.9,47.6,23,46.5,23L46.5,23z"/>
	</g>
	<g class="st5">
		<g>
			<rect x="18.5" y="25" class="st4" width="28" height="5"/>
		</g>
	</g>
	<g class="st5">
		<g>
			<rect x="16.5" y="37" class="st4" width="32" height="2"/>
		</g>
		<g>
			<rect x="26.5" y="31" class="st4" width="2" height="15"/>
		</g>
		<g>
			<rect x="36.5" y="31" class="st4" width="2" height="15"/>
		</g>
	</g>
	<g>
		<rect x="16.5" y="30" class="st4" width="32" height="2"/>
	</g>
</g>
</svg>
