<?xml version="1.0" encoding="utf-8"?>
<!-- Generator: Adobe Illustrator 21.0.0, SVG Export Plug-In . SVG Version: 6.00 Build 0)  -->
<svg version="1.1" id="Layer_1" xmlns="http://www.w3.org/2000/svg" xmlns:xlink="http://www.w3.org/1999/xlink" x="0px" y="0px"
	 viewBox="0 0 36 36" style="enable-background:new 0 0 36 36;" xml:space="preserve">
<style type="text/css">
	.st0{fill-rule:evenodd;clip-rule:evenodd;fill:#8DC63F;}
	.st1{fill-rule:evenodd;clip-rule:evenodd;fill:#FFFFFF;}
	.st2{opacity:0.5;fill-rule:evenodd;clip-rule:evenodd;fill:#FFFFFF;}
</style>
<path class="st0" d="M3,7c0-2.2,1.8-4,4-4h22c2.2,0,4,1.8,4,4v22c0,2.2-1.8,4-4,4H7c-2.2,0-4-1.8-4-4V7z"/>
<path class="st1" d="M18,15c-6.1,0-11,4.9-11,11h3c0-4.4,3.6-8,8-8c1.5,0,2.9,0.4,4.1,1.1l2.2-2.2C22.5,15.7,20.3,15,18,15z"/>
<path class="st2" d="M27.1,19.8c1.2,1.8,1.9,3.9,1.9,6.2h-3c0-1.5-0.4-2.9-1.1-4.1L27.1,19.8z"/>
<path class="st2" d="M12,10c0-0.6,0.5-1,1-1h10c0.6,0,1,0.4,1,1c0,0.6-0.5,1-1,1H13C12.4,11,12,10.6,12,10z"/>
<path class="st1" d="M18.4,24.2c-0.7-0.2-1.5,0-2,0.5c-0.8,0.8-0.8,2,0,2.8c0.8,0.8,2,0.8,2.8,0c0.5-0.5,0.7-1.2,0.5-1.9l5.5-5.5
	c0.4-0.4,0.4-1,0-1.4c-0.4-0.4-1-0.4-1.4,0L18.4,24.2z"/>
</svg>
