<?xml version="1.0" encoding="utf-8"?>
<!-- Generator: Adobe Illustrator 21.0.0, SVG Export Plug-In . SVG Version: 6.00 Build 0)  -->
<svg version="1.1" id="Layer_1" xmlns="http://www.w3.org/2000/svg" xmlns:xlink="http://www.w3.org/1999/xlink" x="0px" y="0px"
	 viewBox="0 0 36 36" style="enable-background:new 0 0 36 36;" xml:space="preserve">
<style type="text/css">
	.st0{fill-rule:evenodd;clip-rule:evenodd;fill:#FFAE00;}
	.st1{opacity:0.5;fill-rule:evenodd;clip-rule:evenodd;fill:#FFAE00;}
</style>
<g>
	<path class="st0" d="M12.9,17.3c-0.2,0.6,0,1.2,0.6,1.9l0.9-2.5C13.6,16.5,13,16.8,12.9,17.3z"/>
	<path class="st0" d="M25,12.2l-1-3.1l-0.6-1.9c-0.2,0-0.3,0-0.5,0c-1.6,0.1-4.1,1.1-6.2,4.8l-1.7-1c2.6-4.4,5.7-5.6,7.8-5.7
		c0,0,0,0,0,0l-0.5-1.6l-0.6-2c-0.3-0.9-1.1-1.4-1.9-1.4c-0.4,0-0.7,0.1-1.1,0.3L9.3,6.5c-1.5,0.9-2.6,2.4-3.2,4L0.2,26.8
		c-0.6,1.6,0.2,3.3,1.8,3.8l13.2,4.8c0.3,0.1,0.7,0.2,1,0.2c1.2,0,2.4-0.8,2.8-2l5.9-16.2C25.5,15.7,25.5,13.9,25,12.2z M18.1,17.8
		c-0.5,0.4-1.2,1-1.5,0.7c-0.1-0.1-0.7-0.9-1.4-1.4c-0.3,0.9-0.7,1.9-1,2.8c1.1,1,2.6,2.6,1.9,4.7c-0.6,1.7-2.2,2.5-4.3,1.9L11.2,28
		c-0.1,0.2-0.2,0.2-0.4,0.2c-0.2-0.1-0.5-0.2-0.4-0.5l0.6-1.6c-1.6-0.7-2.3-1.9-2.5-2.3c-0.1-0.2-0.1-0.3,0.1-0.5
		c0.5-0.4,1.2-1.1,1.5-0.7c0,0.1,0.7,1.1,1.6,1.7c0.4-1,0.7-2,1.1-3c-1.2-1.1-2.6-2.5-1.8-4.5c0.5-1.5,2-2.4,4.2-1.8l0.2-0.5
		c0.1-0.2,0.2-0.2,0.4-0.2l0.2,0.1c0.2,0.1,0.2,0.2,0.2,0.4l-0.2,0.5c1.3,0.6,2.1,1.7,2.3,2C18.3,17.4,18.2,17.7,18.1,17.8z"/>
	<path class="st0" d="M12.4,24.7c0.7,0.1,1.4-0.1,1.6-0.7c0.2-0.6,0-1.2-0.6-2L12.4,24.7z"/>
</g>
<path class="st1" d="M23.4,7.3c1.6,0,3.3,0.7,4.3,1.9c0.6,0.7,0.7,1.8,0.8,3.5c0.2,1.9,0.4,4.4,1.5,7.7c0.9,2.5,2.5,4.1,4.6,3.9
	c1-0.1,0.5,0.1,1-0.1l0-2.1c-1.2,0.3-2.8,0.5-3.8-2.4c-1-3-1.2-5.3-1.4-7.2c-0.2-1.9-0.3-3.4-1.3-4.6c-1.5-1.8-3.9-2.8-6.4-2.6
	c0,0-0.1,0-0.1,0L23.4,7.3z"/>
</svg>
