<?xml version="1.0" encoding="utf-8"?>
<!-- Generator: Adobe Illustrator 19.2.0, SVG Export Plug-In . SVG Version: 6.00 Build 0)  -->
<svg version="1.1" id="Layer_1" xmlns="http://www.w3.org/2000/svg" xmlns:xlink="http://www.w3.org/1999/xlink" x="0px" y="0px"
	 viewBox="0 0 24 24" style="enable-background:new 0 0 24 24;" xml:space="preserve">
<style type="text/css">
	.st0{fill:#3D4351;}
</style>
<path class="st0" d="M23.4,20.6l-5.1-5.1c1-1.6,1.7-3.5,1.7-5.5c0-5.5-4.5-10-10-10S0,4.5,0,10s4.5,10,10,10c2,0,3.9-0.6,5.5-1.7
	l5.1,5.1c0.8,0.8,2,0.8,2.8,0C24.2,22.6,24.2,21.4,23.4,20.6z M3,10c0-3.9,3.1-7,7-7s7,3.1,7,7s-3.1,7-7,7S3,13.9,3,10z"/>
</svg>
