<?xml version="1.0" encoding="utf-8"?>
<!-- Generator: Adobe Illustrator 18.0.0, SVG Export Plug-In . SVG Version: 6.00 Build 0)  -->
<!DOCTYPE svg PUBLIC "-//W3C//DTD SVG 1.1//EN" "http://www.w3.org/Graphics/SVG/1.1/DTD/svg11.dtd">
<svg version="1.1" id="Layer_1" xmlns="http://www.w3.org/2000/svg" xmlns:xlink="http://www.w3.org/1999/xlink" x="0px" y="0px"
	 viewBox="0 0 174 174" enable-background="new 0 0 174 174" xml:space="preserve">
<g>
	<g opacity="0.25">
		<path fill="none" stroke="#000000" stroke-width="2" stroke-miterlimit="10" d="M74.4,9H38.9c-3.3,0-6.1,2.1-7.3,5L74.4,9z"/>
		<path fill="none" stroke="#000000" stroke-width="2" stroke-miterlimit="10" d="M133.4,11l8.6,72.7V17c0-4.3-3.4-6-7.7-6h-1.1
			C133.3,11,133.3,10.7,133.4,11z"/>
		<path fill="none" stroke="#000000" stroke-width="2" stroke-miterlimit="10" d="M40.3,164L31,90.2v68.4c0,4.3,4.7,8.4,8.9,8.4h1.7
			C41.3,167,40.4,165,40.3,164z"/>
		<path fill="none" stroke="#000000" stroke-width="2" stroke-miterlimit="10" d="M83.6,167h50.7c4,0,7.3-3,7.7-6.9L83.6,167z"/>
	</g>
	<path fill="none" stroke="#3B4251" stroke-width="3" stroke-linecap="round" stroke-linejoin="round" stroke-miterlimit="10" d="
		M139,159.8L52.7,170c-6.6,0.8-12.6-4-13.3-10.5L23.8,27.3c-0.8-6.6,4-12.6,10.5-13.3l86.3-10.2c6.6-0.8,12.6,4,13.3,10.5
		l15.6,132.1C150.2,153,145.5,159,139,159.8z"/>
	<g>
		<g>
			<path fill="none" stroke="#3B4251" stroke-linecap="round" stroke-linejoin="round" stroke-miterlimit="10" d="M88.7,113.5
				l-7-26.7c-0.4-3.5,0.9-4.7,1.7-4.7c0.8-0.1,2.8,0.7,3.2,4.2c0.1,1.1-0.1,1.7-1,1.8c-0.8,0.1-1.2-0.3-1.4-1.5
				c-0.4-3.5,1.4-4.7,2.2-4.8c0.8-0.1,2.8,0.7,3.2,4.2c0.1,1.1-0.1,1.7-1,1.8c-0.8,0.1-1.2-0.3-1.4-1.5c-0.4-3.5,1.4-4.7,2.2-4.8
				c0.8-0.1,2.8,0.7,3.2,4.2c0.1,1.1-0.1,1.7-1,1.8c-0.8,0.1-1.2-0.3-1.4-1.5c-0.4-3.5,1.4-4.7,2.2-4.8c0.8-0.1,2.3,0.7,2.7,4.2
				l-1.4,27.6"/>
			<g>
				<path fill="none" stroke="#3B4251" stroke-linecap="round" stroke-linejoin="round" stroke-miterlimit="10" d="M84.6,114l2.3,10
					c0.2,1,3.8,1.5,4.5,1.4l2.2-0.2c0.7-0.1,4.1-1.3,4.1-2.4l0-10.2L84.6,114L84.6,114z"/>
				<path fill="#8EC348" stroke="#3B4251" stroke-linecap="round" stroke-linejoin="round" stroke-miterlimit="10" d="M98.2,116.4
					c0.1,0.4-0.2,0.8-0.7,0.9l-12,1.4c-0.4,0.1-0.8-0.2-0.9-0.7c-0.1-0.4,0.2-0.8,0.7-0.9l12-1.4C97.8,115.6,98.2,115.9,98.2,116.4
					L98.2,116.4z M98.6,119.8c0.1,0.4-0.2,0.8-0.7,0.9l-12,1.4c-0.4,0.1-0.8-0.2-0.9-0.7c-0.1-0.4,0.2-0.8,0.7-0.9l12-1.4
					C98.2,119,98.6,119.4,98.6,119.8L98.6,119.8z"/>
			</g>
			<path fill="none" stroke="#FFFFFF" stroke-linecap="round" stroke-linejoin="round" stroke-miterlimit="10" d="M97,112.6
				c1-0.1,1.9-1.1,1.9-2.1l0.5-10.3c0-1,0.5-2.6,1.1-3.5c0,0,4.8-7,4.2-12.5c-1-9.1-9.2-15.6-18.3-14.5l-0.4,0
				c-9.1,1-15.6,9.2-14.5,18.3c0.6,5.5,6.9,11.2,6.9,11.2c0.8,0.7,1.6,2.1,1.8,3.2l2.8,9.9c0.3,1,1.2,1.8,2.3,1.6L97,112.6L97,112.6
				z"/>
		</g>
		<g>
			<path fill="none" stroke="#FFFFFF" stroke-linecap="round" stroke-linejoin="round" d="M53.8,70.6l1.8,0.8"/>
			<path fill="none" stroke="#FFFFFF" stroke-linecap="round" stroke-linejoin="round" stroke-dasharray="9.8273,9.8273" d="
				M58.4,72.6l4.3,1.9"/>
			<path fill="none" stroke="#FFFFFF" stroke-linecap="round" stroke-linejoin="round" d="M64.1,75.1l1.8,0.8"/>
		</g>
		<g>
			<path fill="none" stroke="#FFFFFF" stroke-linecap="round" stroke-linejoin="round" d="M73.6,66.2l-1.1-1.5"/>
			<path fill="none" stroke="#FFFFFF" stroke-linecap="round" stroke-linejoin="round" stroke-dasharray="9.8273,9.8273" d="
				M70.6,62.2l-2.8-3.7"/>
			<path fill="none" stroke="#FFFFFF" stroke-linecap="round" stroke-linejoin="round" d="M66.9,57.1l-1.1-1.5"/>
		</g>
		<g>
			<path fill="none" stroke="#FFFFFF" stroke-linecap="round" stroke-linejoin="round" d="M83.6,48.6l0.2,1.9"/>
			<path fill="none" stroke="#FFFFFF" stroke-linecap="round" stroke-linejoin="round" stroke-dasharray="9.8189,9.8189" d="
				M84.2,53.6l0.5,4.6"/>
			<path fill="none" stroke="#FFFFFF" stroke-linecap="round" stroke-linejoin="round" d="M84.9,59.8l0.2,1.9"/>
		</g>
		<g>
			<path fill="none" stroke="#FFFFFF" stroke-linecap="round" stroke-linejoin="round" d="M102.6,51.4l-0.8,1.8"/>
			<path fill="none" stroke="#FFFFFF" stroke-linecap="round" stroke-linejoin="round" stroke-dasharray="9.8273,9.8273" d="
				M100.6,56l-1.9,4.3"/>
			<path fill="none" stroke="#FFFFFF" stroke-linecap="round" stroke-linejoin="round" d="M98.1,61.7l-0.8,1.8"/>
		</g>
		<g>
			<path fill="none" stroke="#FFFFFF" stroke-linecap="round" stroke-linejoin="round" d="M117.6,63.3l-1.5,1.1"/>
			<path fill="none" stroke="#FFFFFF" stroke-linecap="round" stroke-linejoin="round" stroke-dasharray="9.8273,9.8273" d="
				M113.6,66.3l-3.7,2.8"/>
			<path fill="none" stroke="#FFFFFF" stroke-linecap="round" stroke-linejoin="round" d="M108.6,70l-1.5,1.1"/>
		</g>
		<g>
			<path fill="none" stroke="#FFFFFF" stroke-linecap="round" stroke-linejoin="round" d="M124.7,81.2l-1.9,0.2"/>
			<path fill="none" stroke="#FFFFFF" stroke-linecap="round" stroke-linejoin="round" stroke-dasharray="9.8189,9.8189" d="
				M119.7,81.8l-4.6,0.5"/>
			<path fill="none" stroke="#FFFFFF" stroke-linecap="round" stroke-linejoin="round" d="M113.5,82.5l-1.9,0.2"/>
		</g>
		<g>
			<path fill="none" stroke="#FFFFFF" stroke-linecap="round" stroke-linejoin="round" d="M109.8,94.9l1.8,0.8"/>
			<path fill="none" stroke="#FFFFFF" stroke-linecap="round" stroke-linejoin="round" stroke-dasharray="9.8273,9.8273" d="
				M114.4,96.9l4.3,1.9"/>
			<path fill="none" stroke="#FFFFFF" stroke-linecap="round" stroke-linejoin="round" d="M120.1,99.4l1.8,0.8"/>
		</g>
		<g>
			<path fill="none" stroke="#FFFFFF" stroke-linecap="round" stroke-linejoin="round" d="M64.1,88.1l-1.9,0.2"/>
			<path fill="none" stroke="#FFFFFF" stroke-linecap="round" stroke-linejoin="round" stroke-dasharray="9.8189,9.8189" d="
				M59.1,88.7l-4.6,0.5"/>
			<path fill="none" stroke="#FFFFFF" stroke-linecap="round" stroke-linejoin="round" d="M52.9,89.4L51,89.6"/>
		</g>
		<g>
			<path fill="none" stroke="#FFFFFF" stroke-linecap="round" stroke-linejoin="round" d="M68.6,99.6l-1.5,1.1"/>
			<path fill="none" stroke="#FFFFFF" stroke-linecap="round" stroke-linejoin="round" stroke-dasharray="9.8273,9.8273" d="
				M64.6,102.6l-3.7,2.8"/>
			<path fill="none" stroke="#FFFFFF" stroke-linecap="round" stroke-linejoin="round" d="M59.6,106.3l-1.5,1.1"/>
		</g>
	</g>
</g>
</svg>
