<?xml version="1.0" encoding="utf-8"?>
<!-- Generator: Adobe Illustrator 21.0.0, SVG Export Plug-In . SVG Version: 6.00 Build 0)  -->
<svg version="1.1" id="Layer_1" xmlns="http://www.w3.org/2000/svg" xmlns:xlink="http://www.w3.org/1999/xlink" x="0px" y="0px"
	 viewBox="0 0 309.8 39" style="enable-background:new 0 0 309.8 39;" xml:space="preserve">
<style type="text/css">
	.st0{fill:#8DC642;}
	.st1{fill:#3F4452;}
	.st2{fill:#3D4351;}
	.st3{fill:#898892;}
</style>
<g>
	<rect class="st0" width="39.2" height="39"/>
	<path class="st1" d="M21.4,9.7c2.9,0,5.1,1,7,2.7l0,0.8c-0.3,0.3-0.6,0.6-0.8,0.8c-0.3,0.3-0.4,0.3-0.8,0c-1.5-1.3-3.6-2.3-5.5-2.3
		c-4.6,0-8.1,3.8-8.1,8.3c0,4.5,3.5,8.4,8.1,8.4c3.2,0,5.2-1.2,5.2-1.2v-4.1h-3.3c-0.3,0-0.6-0.2-0.6-0.5v-1.1
		c0-0.3,0.2-0.6,0.6-0.6h5c0.3,0,0.5,0.3,0.5,0.6v6.6l-0.2,0.5c0,0-3,1.9-7.2,1.9c-5.8,0-10.5-4.6-10.5-10.4
		C10.9,14.4,15.5,9.7,21.4,9.7"/>
	<path class="st2" d="M72,12.7c2,0,3.6,0.7,5,1.9l0,0.6c-0.3,0.3-0.6,0.6-0.9,1l-0.5,0c-1-0.8-2.3-1.4-3.5-1.4
		c-2.9,0-5.2,2.5-5.2,5.4c0,2.9,2.3,5.3,5.2,5.3c1.7,0,2.9-0.6,3.1-0.7v-2.3h-2l-0.4-0.4v-1.2l0.4-0.4h3.8l0.4,0.4c0,1.6,0,3.3,0,5
		l-0.2,0.3c0,0-2.1,1.4-5.1,1.4c-4.1,0-7.4-3.3-7.4-7.4C64.5,16,67.8,12.7,72,12.7"/>
	<polygon class="st2" points="84.4,13.3 84.8,12.9 93.1,12.9 93.5,13.3 93.5,14.5 93.1,14.9 86.6,14.9 86.6,19.1 92.1,19.1 
		92.5,19.5 92.5,20.6 92.1,21 86.6,21 86.6,25.4 93.1,25.4 93.5,25.8 93.5,27 93.1,27.3 84.8,27.3 84.4,27 	"/>
	<path class="st2" d="M106.9,12.7c2.1,0,3.6,0.7,5,1.9l0,0.6l-0.9,0.9h-0.5c-1-0.8-2.3-1.4-3.6-1.4c-3,0-5.2,2.5-5.2,5.4
		c0,2.9,2.3,5.3,5.2,5.3c1.5,0,2.6-0.6,3.6-1.4l0.5,0l1,0.9l0,0.6c-1.4,1.4-3.2,2-5,2c-4.1,0-7.5-3.3-7.5-7.4
		C99.4,16,102.8,12.7,106.9,12.7"/>
	<path class="st2" d="M118.8,13.4c0-0.3,0.2-0.5,0.5-0.5h1.2c0.3,0,0.5,0.2,0.5,0.5v5.7l5.8-6l0.4-0.2h1.6c0.4,0,0.6,0.4,0.3,0.7
		l-6,6.1l6.3,6.9c0.2,0.2,0.1,0.7-0.4,0.7h-1.7l-0.4-0.1l-6-6.8v6.4c0,0.3-0.2,0.5-0.5,0.5h-1.2c-0.3,0-0.5-0.2-0.5-0.5V13.4z"/>
	<path class="st2" d="M141.7,25.5c3,0,5.4-2.4,5.4-5.3c0-2.9-2.4-5.4-5.4-5.4c-2.9,0-5.4,2.5-5.4,5.4
		C136.4,23.1,138.8,25.5,141.7,25.5 M141.7,12.7c4.1,0,7.4,3.3,7.4,7.4c0,4.1-3.3,7.4-7.4,7.4c-4.1,0-7.4-3.3-7.4-7.4
		C134.3,16,137.6,12.7,141.7,12.7"/>
	<path class="st2" d="M161,19.2c1.3,0,2.1-1,2.1-2.2c0-1.3-0.8-2.1-2.1-2.1h-2.8v4.3H161z M161.3,25.5c1.3,0,2.2-1,2.2-2.2
		c0-1.3-1.2-2.2-2.5-2.2h-2.8v4.4H161.3z M156,13.3l0.4-0.4h4.6c2.5,0,4.3,1.6,4.3,3.8c0,1.6-1.2,2.7-2.2,3.3
		c1.1,0.5,2.6,1.5,2.6,3.4c0,2.3-1.9,4-4.5,4h-4.9L156,27V13.3z"/>
	<path class="st2" d="M179.2,25.5c3,0,5.4-2.4,5.4-5.3c0-2.9-2.4-5.4-5.4-5.4c-2.9,0-5.4,2.5-5.4,5.4
		C173.9,23.1,176.3,25.5,179.2,25.5 M179.2,12.7c4.1,0,7.4,3.3,7.4,7.4c0,4.1-3.3,7.4-7.4,7.4c-4.1,0-7.4-3.3-7.4-7.4
		C171.8,16,175.1,12.7,179.2,12.7"/>
	<path class="st2" d="M200.9,22.4l-2.5-5.6h-0.1l-2.5,5.6H200.9z M191.5,26.8l6.4-13.9l0.4-0.2h0.2l0.4,0.2l6.3,13.9
		c0.1,0.3,0,0.5-0.4,0.5h-1.3c-0.2,0-0.4-0.1-0.5-0.3l-1.3-2.8h-6.8c-0.4,0.9-0.9,1.9-1.3,2.8c-0.1,0.1-0.2,0.3-0.5,0.3h-1.3
		C191.6,27.3,191.4,27.1,191.5,26.8"/>
	<path class="st2" d="M216.9,19.9c1.3,0,2.5-1.1,2.5-2.6c0-1.3-1.2-2.4-2.5-2.4h-3.7v5H216.9z M211.1,13.3l0.4-0.4h5.6
		c2.5,0,4.5,2,4.5,4.4c0,1.9-1.3,3.5-3.1,4.2l2.8,5.2c0.1,0.3,0,0.6-0.4,0.6h-1.6l-0.3-0.2l-2.8-5.5h-3.1V27l-0.4,0.4h-1.3l-0.4-0.4
		V13.3z"/>
	<path class="st2" d="M233.6,25.4c3,0,5.3-2.2,5.3-5.3c0-3-2.2-5.2-5.3-5.2h-2.7v10.5H233.6z M228.8,13.3l0.4-0.4h4.8
		c4,0,7.3,3.2,7.3,7.2c0,4-3.3,7.2-7.3,7.2h-4.8l-0.4-0.4V13.3z"/>
	<path class="st3" d="M248,24.7c-0.8,0-1.4,0.6-1.4,1.4c0,0.8,0.6,1.4,1.4,1.4c0.8,0,1.4-0.6,1.4-1.4
		C249.4,25.3,248.8,24.7,248,24.7"/>
	<path class="st3" d="M262.3,12.7c-4.1,0-7.5,3.3-7.5,7.4c0,4.1,3.3,7.4,7.5,7.4c1.8,0,3.6-0.6,5-2l0-0.6l-1-0.9l-0.5,0
		c-1,0.8-2,1.4-3.6,1.4c-3,0-5.2-2.5-5.2-5.3c0-2.9,2.2-5.4,5.2-5.4c1.3,0,2.6,0.5,3.6,1.4h0.5l0.9-0.9l0-0.6
		C265.9,13.4,264.4,12.7,262.3,12.7"/>
	<path class="st3" d="M280.5,12.7c-4.1,0-7.4,3.3-7.4,7.4c0,4.1,3.3,7.4,7.4,7.4c4.1,0,7.4-3.3,7.4-7.4
		C288,16,284.6,12.7,280.5,12.7 M280.5,25.5c-2.9,0-5.4-2.4-5.4-5.3c0-2.9,2.4-5.4,5.4-5.4c3,0,5.4,2.5,5.4,5.4
		C285.9,23.1,283.5,25.5,280.5,25.5"/>
	<path class="st3" d="M306.9,12.7h-0.3l-0.4,0.2l-4.3,10.5h-0.1L297.5,13l-0.4-0.2h-0.3l-0.4,0.3l-2.6,13.8c0,0.3,0.1,0.5,0.4,0.5
		h1.3l0.4-0.3l1.5-9.2h0.1l3.7,9.5l0.4,0.2h0.4l0.4-0.2l3.7-9.5h0.1l1.5,9.2l0.4,0.3h1.3c0.3,0,0.4-0.2,0.4-0.5L307.2,13L306.9,12.7
		z"/>
</g>
</svg>
