<?xml version="1.0" encoding="utf-8"?>
<!-- Generator: Adobe Illustrator 18.1.0, SVG Export Plug-In . SVG Version: 6.00 Build 0)  -->
<!DOCTYPE svg PUBLIC "-//W3C//DTD SVG 1.1//EN" "http://www.w3.org/Graphics/SVG/1.1/DTD/svg11.dtd">
<svg version="1.1" id="Layer_1" xmlns="http://www.w3.org/2000/svg" xmlns:xlink="http://www.w3.org/1999/xlink" x="0px" y="0px"
	 viewBox="0 473.8 452.1 452.4" enable-background="new 0 473.8 452.1 452.4" xml:space="preserve">
<path fill="#8DC63F" d="M0,473.8h452.1v452.4H0V473.8z"/>
<path fill="#3D4351" d="M246.7,586.3c34,0,58.5,11.8,81.4,31.3c2.7,2.7,3,6.7,0.3,9.4c-3,3-6.7,6.4-9.4,9.4c-3,3.4-5,3-8.7-0.3
	c-17.1-15.1-41.4-26.2-63.9-26.2c-53.1,0-93.5,44.4-93.5,96.5c0,51.8,40.4,97.2,93.5,97.2c37,0,60.5-14.1,60.5-14.1v-47.1h-38.7
	c-3.7,0-6.4-2.7-6.4-6.1v-12.4c0-3.7,2.7-6.4,6.4-6.4h58.2c3.4,0,6.1,3,6.1,6.4v77c0,1.7-1.3,4.4-2.7,5.4c0,0-34.3,22.2-83.1,22.2
	c-67.3,0-121.4-53.5-121.4-120.7C125.3,640.5,179.5,586.3,246.7,586.3L246.7,586.3z"/>
</svg>
