<?xml version="1.0" encoding="utf-8"?>
<!-- Generator: Adobe Illustrator 21.0.0, SVG Export Plug-In . SVG Version: 6.00 Build 0)  -->
<svg version="1.1" id="Layer_1" xmlns="http://www.w3.org/2000/svg" xmlns:xlink="http://www.w3.org/1999/xlink" x="0px" y="0px"
	 viewBox="0 0 20 20" style="enable-background:new 0 0 20 20;" xml:space="preserve">
<style type="text/css">
	.st0{opacity:0.5;fill:#FFFFFF;}
</style>
<path class="st0" d="M19.2,17.2l-3.5-3.5c-0.4-0.4-0.9-0.4-1.2,0l-1.8-1.8l0.1-0.1c1.1-1.3,1.6-2.9,1.6-4.7c0-3.9-3.1-7.1-6.8-7.1
	S0.7,3.2,0.7,7.1S3.8,14,7.6,14c1.4,0,2.7-0.4,3.8-1.1h0.1l1.8,1.9c-0.4,0.4-0.4,0.9,0,1.3l3.4,3.6c0.4,0.4,0.9,0.4,1.2,0l1.3-1.3
	C19.5,18,19.5,17.5,19.2,17.2z M7.4,12.2c-2.8,0-5.2-2.4-5.2-5.2c0-2.9,2.4-5.3,5.2-5.3s5.2,2.4,5.2,5.3
	C12.6,9.9,10.2,12.2,7.4,12.2z"/>
</svg>
