<?xml version="1.0" encoding="utf-8"?>
<!-- Generator: Adobe Illustrator 19.2.0, SVG Export Plug-In . SVG Version: 6.00 Build 0)  -->
<svg version="1.1" id="Layer_1" xmlns:sketch="http://www.bohemiancoding.com/sketch/ns"
	 xmlns="http://www.w3.org/2000/svg" xmlns:xlink="http://www.w3.org/1999/xlink" x="0px" y="0px" viewBox="0 0 164 32"
	 style="enable-background:new 0 0 164 32;" xml:space="preserve">
<style type="text/css">
	.st0{fill:#FFFFFF;}
	.st1{fill:#00A0DE;}
</style>
<title>logo-mention</title>
<desc>Created with Sketch Beta.</desc>
<g id="UX" sketch:type="MSPage">
	<g id="home" transform="translate(-39.000000, -25.000000)" sketch:type="MSArtboardGroup">
		<g id="header" sketch:type="MSLayerGroup">
			<g id="nav" transform="translate(39.000000, 21.000000)" sketch:type="MSShapeGroup">
				<g id="logo-mention_1_" transform="translate(0.000000, 4.000000)">
					<g id="Page-1_1_">
						<g id="Brand-Assets">
							<g id="logo-mention">
								<g id="Page-1">
									<g id="Mention-_x2022_-Logo">
										<path id="Shape" class="st0" d="M39.2,23.7h1.5c0.4,0,0.6-0.1,0.6-0.9v-9.5c0-0.8-0.1-1-0.6-1h-1.5V9.8h2.6
											c1.6,0,3.1-0.2,3.8-0.3v3.2c1-2.2,2.6-3.3,5-3.3c2.6,0,4.2,1.2,4.8,3.7c0.9-2.4,2.6-3.7,5.3-3.7c3.5,0,5.3,2,5.3,6.4v7
											c0,0.8,0.2,0.9,0.6,0.9H68v2.5h-8.3v-2.5H61c0.4,0,0.6-0.1,0.6-0.9V16c0-2.5-0.8-3.6-2.6-3.6c-2.1,0-3.1,1.7-3.1,4.8v5.6
											c0,0.8,0.2,0.9,0.6,0.9h1.4v2.5h-8.2v-2.5h1.2c0.4,0,0.6-0.1,0.6-0.9v-7.1c0-2.2-0.9-3.3-2.6-3.3c-2.1,0-3.1,1.7-3.1,4.8
											v5.6c0,0.8,0.2,0.9,0.6,0.9h1.3v2.5h-8.3L39.2,23.7L39.2,23.7L39.2,23.7z"/>
										<path id="Shape_1_" class="st0" d="M73.5,18.8c0.1,3.1,1.6,5.1,4.6,5.1c2.3,0,3.6-1.2,4.4-3.2l2.5,1.1
											c-0.9,2.6-3.1,4.7-7.2,4.7c-5.9,0-8.8-3.6-8.8-8.7c0-5.1,3.4-8.6,8.4-8.6c5.1,0,7.9,3.2,7.9,8.7v0.8H73.5L73.5,18.8z
											 M73.4,16.5h7.3c-0.1-3.3-1.1-4.6-3.4-4.6C74.9,11.9,73.6,13.3,73.4,16.5L73.4,16.5L73.4,16.5z"/>
										<path id="Shape_2_" class="st0" d="M92.7,12.7c1-2.3,2.9-3.4,5.5-3.4c3.4,0,5.2,2,5.2,6.1v7.3c0,0.8,0.2,0.9,0.6,0.9h1.5
											v2.5h-8.3v-2.5h1.3c0.4,0,0.6-0.1,0.6-0.9v-7.2c0-2.3-0.8-3.3-2.6-3.3c-2.2,0-3.5,1.7-3.5,5.4v5.1c0,0.8,0.2,0.9,0.6,0.9
											h1.3v2.5h-8.3v-2.5h1.5c0.4,0,0.6-0.1,0.6-0.9v-9.5c0-0.8-0.1-1-0.6-1h-1.5V9.8h2.6c1.6,0,3.1-0.2,3.8-0.3V12.7L92.7,12.7
											z"/>
										<path id="Shape_3_" class="st0" d="M107.9,21.5v-9.2h-2.2V10c0,0,1.4-0.1,1.3-0.1c1.1-0.2,1.9-0.6,2-1.9l0.3-3h3.1v4.7
											h3.2v2.5h-3.3v9.1c0,1.8,0.6,2.4,2,2.4c0.7,0,1.1-0.1,1.5-0.3v2.6c-0.6,0.2-1.7,0.4-2.9,0.4
											C109.3,26.6,107.9,25.2,107.9,21.5"/>
										<path id="Shape_4_" class="st0" d="M117,23.7h1.5c0.4,0,0.5-0.2,0.5-0.9v-9.1c0-1-0.2-1.3-0.7-1.3H117V9.8h2.6
											c1.6,0,3.1-0.2,3.9-0.3v13.4c0,0.7,0.2,0.9,0.5,0.9h1.4v2.5H117L117,23.7L117,23.7L117,23.7z M118.4,5.5
											c0-1.5,1.1-2.8,2.8-2.8c1.6,0,2.8,1.2,2.8,2.8s-1.2,2.8-2.8,2.8C119.5,8.2,118.4,7,118.4,5.5L118.4,5.5L118.4,5.5z"/>
										<path id="Shape_5_" class="st0" d="M126.6,18c0-5.1,3.5-8.6,8.7-8.6c5.1,0,8.5,3.5,8.5,8.6c0,5.2-3.4,8.7-8.6,8.7
											C130,26.6,126.6,23.1,126.6,18 M139.3,18.2v-0.4c0-3.9-1.3-5.7-4.1-5.7c-2.8,0-4.1,1.8-4.1,5.7v0.4c0,3.9,1.3,5.7,4.1,5.7
											C138,23.9,139.3,22.1,139.3,18.2"/>
										<path id="Shape_6_" class="st0" d="M151.3,12.7c1-2.3,2.9-3.4,5.5-3.4c3.4,0,5.2,2,5.2,6.1v7.3c0,0.8,0.2,0.9,0.6,0.9h1.5
											v2.5h-8.3v-2.5h1.3c0.4,0,0.6-0.1,0.6-0.9v-7.2c0-2.3-0.8-3.3-2.6-3.3c-2.2,0-3.5,1.7-3.5,5.4v5.1c0,0.8,0.2,0.9,0.6,0.9
											h1.3v2.5h-8.3v-2.5h1.5c0.4,0,0.6-0.1,0.6-0.9v-9.5c0-0.8-0.1-1-0.6-1h-1.5V9.8h2.6c1.6,0,3.1-0.2,3.8-0.3L151.3,12.7
											L151.3,12.7L151.3,12.7z"/>
										<path id="Shape_7_" class="st1" d="M15.7,0C7,0,0,7.2,0,16c0,8.8,7,16,15.7,16s15.7-7.2,15.7-16C31.4,7.2,24.4,0,15.7,0
											L15.7,0L15.7,0z M22.7,26.4l-7-5.2l-7,5.2l2.7-8.4l-7.1-5.3H13l2.7-8.4l2.7,8.4h8.8L20,18L22.7,26.4L22.7,26.4z"/>
									</g>
								</g>
							</g>
						</g>
					</g>
				</g>
			</g>
		</g>
	</g>
</g>
</svg>
