<?xml version="1.0" encoding="utf-8"?>
<!-- Generator: Adobe Illustrator 18.1.0, SVG Export Plug-In . SVG Version: 6.00 Build 0)  -->
<!DOCTYPE svg PUBLIC "-//W3C//DTD SVG 1.1//EN" "http://www.w3.org/Graphics/SVG/1.1/DTD/svg11.dtd">
<svg version="1.1" id="Layer_1" xmlns="http://www.w3.org/2000/svg" xmlns:xlink="http://www.w3.org/1999/xlink" x="0px" y="0px"
	 viewBox="0 0 58 58" enable-background="new 0 0 58 58" xml:space="preserve">
<g>
	<path fill="#8DC642" d="M28.9,58C13,58,0,45,0,29.1S13,0.3,28.9,0.3s28.8,12.9,28.8,28.8S44.8,58,28.9,58z M28.9,2.8
		C14.4,2.8,2.6,14.6,2.6,29.1s11.8,26.3,26.3,26.3s26.3-11.8,26.3-26.3S43.4,2.8,28.9,2.8z"/>
</g>
<polygon fill="#8DC642" points="45,28 31,28 31,14 28,14 28,28 14,28 14,31 28,31 28,45 31,45 31,31 45,31 "/>
</svg>
