<?xml version="1.0" encoding="utf-8"?>
<!-- Generator: Adobe Illustrator 18.1.0, SVG Export Plug-In . SVG Version: 6.00 Build 0)  -->
<!DOCTYPE svg PUBLIC "-//W3C//DTD SVG 1.1//EN" "http://www.w3.org/Graphics/SVG/1.1/DTD/svg11.dtd">
<svg version="1.1" id="Layer_1" xmlns="http://www.w3.org/2000/svg" xmlns:xlink="http://www.w3.org/1999/xlink" x="0px" y="0px"
	 viewBox="184 130 58 58" enable-background="new 184 130 58 58" xml:space="preserve">
<g>
	<path fill="#8CC640" d="M213,188c-16,0-29-13-29-29s13-29,29-29s29,13,29,29S229,188,213,188z M213,132.5
		c-14.6,0-26.4,11.9-26.4,26.4c0,14.5,11.9,26.4,26.4,26.4c14.6,0,26.4-11.9,26.4-26.4C239.4,144.4,227.5,132.5,213,132.5z
		 M215.8,171.3H210c-0.9,0-1.8-0.8-1.8-1.8v-0.3l0.5-1.7h-7.3c-1.5,0-2.7-1.2-2.7-2.7v-13.6c0-1.5,1.2-2.7,2.7-2.7h23
		c1.5,0,2.7,1.2,2.7,2.7v13.6c0,1.5-1.2,2.7-2.7,2.7H217l0.5,1.7v0.3C217.6,170.5,216.8,171.3,215.8,171.3z M210,169.6l5.8,0.1
		l-0.9-2.6c-0.1-0.3,0-0.5,0.1-0.8c0.2-0.3,0.4-0.3,0.7-0.3h8.6c0.5,0,0.9-0.4,0.9-0.9v-13.6c0-0.5-0.4-0.9-0.9-0.9h-22.8
		c-0.5,0-0.9,0.4-0.9,0.9V165c0,0.5,0.4,0.9,0.9,0.9h8.6c0.3,0,0.5,0.2,0.7,0.3c0.2,0.3,0.2,0.5,0.1,0.8L210,169.6L210,169.6z
		 M223,164.2h-20.1c-0.3,0-0.4-0.2-0.4-0.4v-11.5c0-0.3,0.2-0.4,0.4-0.4H223c0.3,0,0.4,0.2,0.4,0.4v11.4
		C223.4,164,223.3,164.2,223,164.2L223,164.2z M203.3,163.3h19.2v-10.6h-19.2V163.3z"/>
</g>
</svg>
