<?xml version="1.0" encoding="utf-8"?>
<!-- Generator: Adobe Illustrator 18.1.0, SVG Export Plug-In . SVG Version: 6.00 Build 0)  -->
<!DOCTYPE svg PUBLIC "-//W3C//DTD SVG 1.1//EN" "http://www.w3.org/Graphics/SVG/1.1/DTD/svg11.dtd">
<svg version="1.1" id="Layer_1" xmlns="http://www.w3.org/2000/svg" xmlns:xlink="http://www.w3.org/1999/xlink" x="0px" y="0px"
	 viewBox="0 0 58 58" enable-background="new 0 0 58 58" xml:space="preserve">
<path fill="#8CC640" d="M29,58C13,58,0,45,0,29S13,0,29,0s29,13,29,29S45,58,29,58z M29,2.6C14.4,2.6,2.6,14.5,2.6,29
	S14.5,55.4,29,55.4S55.4,43.5,55.4,29S43.6,2.6,29,2.6z"/>
<polyline fill="none" stroke="#8CC640" stroke-width="2" stroke-miterlimit="10" points="30.4,41.4 17,41.4 17,17.2 41.2,17.2 
	41.2,30.8 "/>
<line fill="none" stroke="#8CC640" stroke-miterlimit="10" x1="29.1" y1="21.8" x2="29.1" y2="36.9"/>
<line fill="none" stroke="#8CC640" stroke-miterlimit="10" x1="36.6" y1="29.3" x2="21.5" y2="29.3"/>
<path fill="#FFFFFF" stroke="#8CC640" stroke-width="2" stroke-miterlimit="10" d="M40.2,38.5l4.2-0.5l-10.6-9.7v14.4l3.6-2.9l2.8,5
	c0.3,0.5,0.8,0.8,1.4,0.8c0.3,0,0.5-0.1,0.7-0.2c0.8-0.4,1-1.2,0.6-1.9L40.2,38.5z"/>
</svg>
