<?xml version="1.0" encoding="utf-8"?>
<!-- Generator: Adobe Illustrator 18.1.0, SVG Export Plug-In . SVG Version: 6.00 Build 0)  -->
<!DOCTYPE svg PUBLIC "-//W3C//DTD SVG 1.1//EN" "http://www.w3.org/Graphics/SVG/1.1/DTD/svg11.dtd">
<svg version="1.1" id="Layer_1" xmlns="http://www.w3.org/2000/svg" xmlns:xlink="http://www.w3.org/1999/xlink" x="0px" y="0px"
	 viewBox="184 130 58 58" enable-background="new 184 130 58 58" xml:space="preserve">
<g>
	<path fill="#8CC640" d="M213,188c-16,0-29-13-29-29s13-29,29-29s29,13,29,29S229,188,213,188z M213,132.5
		c-14.6,0-26.4,11.9-26.4,26.4c0,14.5,11.9,26.4,26.4,26.4c14.6,0,26.4-11.9,26.4-26.4C239.4,144.4,227.5,132.5,213,132.5z"/>
</g>
<g>
	<path fill="#8CC640" d="M218.8,140c1.7,0,3.2,1.4,3.2,3.2v31.7c0,1.7-1.4,3.2-3.2,3.2h-11.7c-1.7,0-3.2-1.4-3.2-3.2v-31.7
		c0-1.7,1.4-3.2,3.2-3.2H218.8 M218.8,138h-11.7c-2.8,0-5.2,2.3-5.2,5.2v31.7c0,2.8,2.3,5.2,5.2,5.2h11.7c2.8,0,5.2-2.3,5.2-5.2
		v-31.7C224,140.3,221.7,138,218.8,138L218.8,138z"/>
</g>
<rect x="205.5" y="145.5" fill-rule="evenodd" clip-rule="evenodd" fill="none" stroke="#8CC640" stroke-miterlimit="10" width="15" height="26"/>
<circle fill-rule="evenodd" clip-rule="evenodd" fill="none" stroke="#8CC640" stroke-miterlimit="10" cx="213" cy="174.9" r="1.6"/>
</svg>
