<?xml version="1.0" encoding="utf-8"?>
<!-- Generator: Adobe Illustrator 19.2.0, SVG Export Plug-In . SVG Version: 6.00 Build 0)  -->
<svg version="1.1" id="Layer_1" xmlns="http://www.w3.org/2000/svg" xmlns:xlink="http://www.w3.org/1999/xlink" x="0px" y="0px"
	 viewBox="0 0 32 45" style="enable-background:new 0 0 32 45;" xml:space="preserve">
<style type="text/css">
	.st0{fill:#961826;}
	.st1{opacity:0.5;fill:#961826;enable-background:new    ;}
</style>
<g>
	<g>
		<path class="st0" d="M30,10v33H2V10H30 M30,8H2c-1.1,0-2,0.9-2,2v33c0,1.1,0.9,2,2,2h28c1.1,0,2-0.9,2-2V10C32,8.9,31.1,8,30,8
			L30,8z"/>
	</g>
	<path class="st0" d="M18,2L18,2c0-1.1-0.9-2-2-2l0,0c-1.1,0-2,0.9-2,2l0,0c0,1.1-0.9,2-2,2H9C6.8,4,5,5.8,5,8v1h22V8
		c0-2.2-1.8-4-4-4h-3C18.9,4,18,3.1,18,2z"/>
	<polygon class="st0" points="5,20.5 7,22.5 11,18.5 10,17.5 7,20.5 6,19.5 	"/>
	<path class="st0" d="M26,21H14c-0.6,0-1-0.4-1-1l0,0c0-0.6,0.4-1,1-1h12c0.6,0,1,0.4,1,1l0,0C27,20.6,26.6,21,26,21z"/>
	<polygon class="st0" points="5,27.5 7,29.5 11,25.5 10,24.5 7,27.5 6,26.5 	"/>
	<path class="st0" d="M26,28H14c-0.6,0-1-0.4-1-1l0,0c0-0.6,0.4-1,1-1h12c0.6,0,1,0.4,1,1l0,0C27,27.6,26.6,28,26,28z"/>
	<polygon class="st0" points="5,34.5 7,36.5 11,32.5 10,31.5 7,34.5 6,33.5 	"/>
	<path class="st0" d="M26,35H14c-0.6,0-1-0.4-1-1l0,0c0-0.6,0.4-1,1-1h12c0.6,0,1,0.4,1,1l0,0C27,34.6,26.6,35,26,35z"/>
	<rect x="2" y="13" class="st1" width="28" height="1"/>
	<rect x="2" y="40" class="st1" width="28" height="1"/>
</g>
</svg>
