<?xml version="1.0" encoding="utf-8"?>
<!-- Generator: Adobe Illustrator 19.2.0, SVG Export Plug-In . SVG Version: 6.00 Build 0)  -->
<svg version="1.1" id="Layer_1" xmlns="http://www.w3.org/2000/svg" xmlns:xlink="http://www.w3.org/1999/xlink" x="0px" y="0px"
	 viewBox="0 0 42 42" style="enable-background:new 0 0 42 42;" xml:space="preserve">
<style type="text/css">
	.st0{fill:#5F862A;}
	.st1{opacity:0.5;}
</style>
<g>
	<path class="st0" d="M21,2c10.5,0,19,8.5,19,19s-8.5,19-19,19S2,31.5,2,21S10.5,2,21,2 M21,0C9.4,0,0,9.4,0,21s9.4,21,21,21
		s21-9.4,21-21S32.6,0,21,0L21,0z"/>
</g>
<g class="st1">
	<g>
		<path class="st0" d="M21,6c8.3,0,15,6.7,15,15s-6.7,15-15,15S6,29.3,6,21S12.7,6,21,6 M21,5C12.2,5,5,12.2,5,21s7.2,16,16,16
			s16-7.2,16-16S29.8,5,21,5L21,5z"/>
	</g>
</g>
<g>
	<path class="st0" d="M12,22c-0.6,0-1-0.4-1-1c0-5.5,4.5-10,10-10c3.8,0,7.3,2.1,9,5.6c0.2,0.5,0,1.1-0.5,1.3
		c-0.5,0.2-1.1,0-1.3-0.5C26.8,14.7,24.1,13,21,13c-4.4,0-8,3.6-8,8C13,21.6,12.6,22,12,22z"/>
</g>
<g>
	<path class="st0" d="M12,22.9l-2.7-2.7c-0.4-0.4-0.4-1,0-1.4s1-0.4,1.4,0l1.3,1.3l1.3-1.3c0.4-0.4,1-0.4,1.4,0s0.4,1,0,1.4L12,22.9
		z"/>
</g>
<g>
	<path class="st0" d="M21.1,31c-3.8,0-7.3-2.1-9-5.6c-0.2-0.5,0-1.1,0.5-1.3c0.5-0.2,1.1,0,1.3,0.5c1.4,2.7,4.1,4.4,7.2,4.4
		c4.4,0,8-3.6,8-8c0-0.6,0.4-1,1-1s1,0.4,1,1C31.1,26.5,26.6,31,21.1,31z"/>
</g>
<g>
	<path class="st0" d="M32.1,23.5c-0.3,0-0.5-0.1-0.7-0.3l-1.3-1.3l-1.3,1.3c-0.4,0.4-1,0.4-1.4,0s-0.4-1,0-1.4l2.7-2.7l2.7,2.7
		c0.4,0.4,0.4,1,0,1.4C32.6,23.4,32.3,23.5,32.1,23.5z"/>
</g>
</svg>
