<?xml version="1.0" encoding="utf-8"?>
<!-- Generator: Adobe Illustrator 19.2.0, SVG Export Plug-In . SVG Version: 6.00 Build 0)  -->
<svg version="1.1" id="Layer_1" xmlns="http://www.w3.org/2000/svg" xmlns:xlink="http://www.w3.org/1999/xlink" x="0px" y="0px"
	 viewBox="0 0 42 42" style="enable-background:new 0 0 42 42;" xml:space="preserve">
<style type="text/css">
	.st0{fill:#A77200;}
</style>
<g>
	<g>
		<path class="st0" d="M15.2,32.1C15.2,32.1,15.2,32.1,15.2,32.1c-0.4,0-0.8-0.2-0.9-0.5l-3.2-5.2l-1.2,1.5
			c-0.2,0.3-0.5,0.4-0.9,0.4c-0.3,0-0.7-0.2-0.9-0.5l-1.9-2.6C6,24.8,6.1,24.3,6.5,24c0.4-0.3,0.9-0.2,1.2,0.2l1.4,1.9l1.3-1.5
			c0.2-0.3,0.6-0.4,0.9-0.4c0.4,0,0.7,0.2,0.9,0.5l3.1,5.2l1.8-2.3c0.2-0.3,0.5-0.4,0.8-0.4c0.3,0,0.6,0.1,0.9,0.3l1.4,1.5l3-4.3
			c0.2-0.3,0.5-0.5,0.9-0.5c0.4,0,0.7,0.2,0.9,0.5l2.4,3.9l7-9.9c0.3-0.4,0.8-0.5,1.2-0.2c0.4,0.3,0.5,0.8,0.2,1.2l-7.6,10.7
			c-0.2,0.3-0.5,0.5-0.9,0.5c-0.4,0-0.7-0.2-0.9-0.5l-2.4-3.9l-2.9,4.2c-0.2,0.3-0.5,0.4-0.8,0.5c-0.3,0-0.7-0.1-0.9-0.3L18,29.2
			l-1.9,2.5C15.9,32,15.6,32.1,15.2,32.1z M14.7,30.6C14.7,30.6,14.7,30.6,14.7,30.6L14.7,30.6z M20.7,29.6L20.7,29.6
			C20.7,29.6,20.7,29.6,20.7,29.6z M26.9,29.4C26.9,29.4,26.9,29.4,26.9,29.4L26.9,29.4z M24.6,25.7L24.6,25.7
			C24.6,25.7,24.6,25.7,24.6,25.7z M23.5,25.6C23.5,25.6,23.5,25.6,23.5,25.6L23.5,25.6z"/>
	</g>
	<path class="st0" d="M39,0H3C1.3,0,0,1.3,0,3v36c0,1.7,1.3,3,3,3h36c1.7,0,3-1.3,3-3V3C42,1.3,40.7,0,39,0z M8,6c0,1.1-0.9,2-2,2
		S4,7.1,4,6c0-1.1,0.9-2,2-2S8,4.9,8,6z M39,40H3c-0.6,0-1-0.4-1-1V11h38v28C40,39.6,39.6,40,39,40z"/>
</g>
</svg>
