<?xml version="1.0" encoding="utf-8"?>
<!-- Generator: Adobe Illustrator 19.2.0, SVG Export Plug-In . SVG Version: 6.00 Build 0)  -->
<svg version="1.1" id="Layer_1" xmlns="http://www.w3.org/2000/svg" xmlns:xlink="http://www.w3.org/1999/xlink" x="0px" y="0px"
	 viewBox="0 0 28 36" style="enable-background:new 0 0 28 36;" xml:space="preserve">
<style type="text/css">
	.st0{fill:#FFFFFF;}
	.st1{opacity:0.5;}
</style>
<g>
	<path class="st0" d="M2,7.9C2.4,8,2.8,8,3.2,8H26v26H4c-1.1,0-2-0.9-2-2V7.9 M0,4v28c0,2.2,1.8,4,4,4h24V6H3.2C1.9,6,0.6,5.2,0,4
		L0,4z"/>
</g>
<g>
	<path class="st0" d="M26,2v4H4C2.9,6,2,5.1,2,4s0.9-2,2-2H26 M28,0H4C1.8,0,0,1.8,0,4s1.8,4,4,4h24V0L28,0z"/>
</g>
<g class="st1">
	<rect x="5.5" y="6.5" class="st0" width="1" height="29"/>
</g>
<g>
	<polygon class="st0" points="23,18 20,16 17,18 17,8 23,8 	"/>
</g>
</svg>
