<?xml version="1.0" encoding="utf-8"?>
<!-- Generator: Adobe Illustrator 21.0.0, SVG Export Plug-In . SVG Version: 6.00 Build 0)  -->
<svg version="1.1" id="Layer_1" xmlns="http://www.w3.org/2000/svg" xmlns:xlink="http://www.w3.org/1999/xlink" x="0px" y="0px"
	 viewBox="0 0 64 64" style="enable-background:new 0 0 64 64;" xml:space="preserve">
<style type="text/css">
	.st0{fill:#ADDE6A;}
	.st1{clip-path:url(#SVGID_2_);}
	.st2{clip-path:url(#SVGID_4_);}
	.st3{fill:#8DC63F;}
	.st4{clip-path:url(#SVGID_6_);}
	.st5{clip-path:url(#SVGID_8_);}
	.st6{fill:#FFFFFF;}
	.st7{clip-path:url(#SVGID_10_);}
	.st8{clip-path:url(#SVGID_12_);}
	.st9{clip-path:url(#SVGID_14_);}
	.st10{clip-path:url(#SVGID_16_);}
	.st11{clip-path:url(#SVGID_18_);}
	.st12{clip-path:url(#SVGID_20_);}
	.st13{clip-path:url(#SVGID_22_);}
	.st14{clip-path:url(#SVGID_24_);}
</style>
<g>
	<g>
		<path class="st0" d="M39,55c-0.6,0-1-0.4-1-1v-4.3c0-0.5-0.4-0.9-1-0.9c-1.7,0-3-1.3-3-2.9v-3.7c0-0.6,0.4-1,1-1s1,0.4,1,1v3.7
			c0,0.5,0.4,0.9,1,0.9c1.7,0,3,1.3,3,2.9V54C40,54.6,39.6,55,39,55z"/>
	</g>
	<g>
		<path class="st0" d="M30,55.1c-0.6,0-1-0.4-1-1v-12c0-0.6,0.4-1,1-1s1,0.4,1,1v12C31,54.6,30.6,55.1,30,55.1z"/>
	</g>
</g>
<g>
	<defs>
		<path id="SVGID_1_" d="M56.7,9H7.3C5.5,9,4,10.3,4,11.9v28.1C4,41.7,5.5,43,7.3,43h49.5c1.8,0,3.3-1.4,3.3-2.9V11.9
			C60,10.3,58.5,9,56.7,9z"/>
	</defs>
	<clipPath id="SVGID_2_">
		<use xlink:href="#SVGID_1_"  style="overflow:visible;"/>
	</clipPath>
	<g class="st1">
		<defs>
			<rect id="SVGID_3_" x="-689" y="-1685" width="1440" height="3431"/>
		</defs>
		<clipPath id="SVGID_4_">
			<use xlink:href="#SVGID_3_"  style="overflow:visible;"/>
		</clipPath>
		<g class="st2">
			<rect x="-1" y="4" class="st3" width="66" height="44"/>
		</g>
	</g>
</g>
<g>
	<defs>
		<rect id="SVGID_5_" x="8" y="13" width="48" height="26"/>
	</defs>
	<clipPath id="SVGID_6_">
		<use xlink:href="#SVGID_5_"  style="overflow:visible;"/>
	</clipPath>
	<g class="st4">
		<defs>
			<rect id="SVGID_7_" x="-689" y="-1685" width="1440" height="3431"/>
		</defs>
		<clipPath id="SVGID_8_">
			<use xlink:href="#SVGID_7_"  style="overflow:visible;"/>
		</clipPath>
		<g class="st5">
			<rect x="3" y="8" class="st6" width="58" height="36"/>
		</g>
	</g>
</g>
<g>
	<defs>
		<rect id="SVGID_9_" x="10" y="15" width="9" height="10"/>
	</defs>
	<clipPath id="SVGID_10_">
		<use xlink:href="#SVGID_9_"  style="overflow:visible;"/>
	</clipPath>
	<g class="st7">
		<defs>
			<rect id="SVGID_11_" x="-689" y="-1685" width="1440" height="3431"/>
		</defs>
		<clipPath id="SVGID_12_">
			<use xlink:href="#SVGID_11_"  style="overflow:visible;"/>
		</clipPath>
		<g class="st8">
			<rect x="5" y="10" class="st0" width="19" height="20"/>
		</g>
	</g>
</g>
<g>
	<defs>
		<rect id="SVGID_13_" x="45" y="15" width="9" height="22"/>
	</defs>
	<clipPath id="SVGID_14_">
		<use xlink:href="#SVGID_13_"  style="overflow:visible;"/>
	</clipPath>
	<g class="st9">
		<defs>
			<rect id="SVGID_15_" x="-689" y="-1685" width="1440" height="3431"/>
		</defs>
		<clipPath id="SVGID_16_">
			<use xlink:href="#SVGID_15_"  style="overflow:visible;"/>
		</clipPath>
		<g class="st10">
			<rect x="40" y="10" class="st0" width="19" height="32"/>
		</g>
	</g>
</g>
<g>
	<defs>
		<rect id="SVGID_17_" x="10" y="27" width="9" height="10"/>
	</defs>
	<clipPath id="SVGID_18_">
		<use xlink:href="#SVGID_17_"  style="overflow:visible;"/>
	</clipPath>
	<g class="st11">
		<defs>
			<rect id="SVGID_19_" x="-689" y="-1685" width="1440" height="3431"/>
		</defs>
		<clipPath id="SVGID_20_">
			<use xlink:href="#SVGID_19_"  style="overflow:visible;"/>
		</clipPath>
		<g class="st12">
			<rect x="5" y="22" class="st0" width="19" height="20"/>
		</g>
	</g>
</g>
<g>
	<defs>
		<rect id="SVGID_21_" x="21" y="15" width="22" height="22"/>
	</defs>
	<clipPath id="SVGID_22_">
		<use xlink:href="#SVGID_21_"  style="overflow:visible;"/>
	</clipPath>
	<g class="st13">
		<defs>
			<rect id="SVGID_23_" x="-689" y="-1685" width="1440" height="3431"/>
		</defs>
		<clipPath id="SVGID_24_">
			<use xlink:href="#SVGID_23_"  style="overflow:visible;"/>
		</clipPath>
		<g class="st14">
			<rect x="16" y="10" class="st0" width="32" height="32"/>
		</g>
	</g>
</g>
</svg>
