<?xml version="1.0" encoding="utf-8"?>
<!-- Generator: Adobe Illustrator 19.2.0, SVG Export Plug-In . SVG Version: 6.00 Build 0)  -->
<svg version="1.1" id="Layer_1" xmlns="http://www.w3.org/2000/svg" xmlns:xlink="http://www.w3.org/1999/xlink" x="0px" y="0px"
	 viewBox="0 0 58 58" style="enable-background:new 0 0 58 58;" xml:space="preserve">
<style type="text/css">
	.st0{fill:#8CC640;}
	.st1{opacity:0.25;fill:none;stroke:#8CC640;stroke-width:2;stroke-linecap:round;stroke-miterlimit:10;}
	.st2{fill:none;stroke:#8CC640;stroke-width:2;stroke-miterlimit:10;}
	.st3{fill:none;stroke:#8CC640;stroke-width:2;stroke-linecap:round;stroke-miterlimit:10;}
	.st4{opacity:0.75;fill:none;stroke:#8CC640;stroke-width:2;stroke-linecap:round;stroke-miterlimit:10;}
</style>
<g>
	<g>
		<path class="st0" d="M29,58C13,58,0,45,0,29S13,0,29,0s29,13,29,29S45,58,29,58z M29,2.6C14.4,2.6,2.6,14.4,2.6,29
			S14.4,55.4,29,55.4S55.4,43.6,55.4,29S43.6,2.6,29,2.6z"/>
	</g>
	<line class="st1" x1="4" y1="39.6" x2="16" y2="39.6"/>
	<line class="st1" x1="42" y1="39.6" x2="54" y2="39.6"/>
	<circle class="st2" cx="29" cy="27" r="18"/>
	<circle class="st2" cx="29" cy="27" r="13"/>
	<circle class="st2" cx="29" cy="27" r="7.5"/>
	<circle class="st0" cx="29" cy="27" r="3.5"/>
	<line class="st3" x1="29" y1="27" x2="44.5" y2="11.5"/>
	<path class="st0" d="M41.5,14.2v-4.2c0-0.2-0.3-0.3-0.4-0.2l-3.9,3.6c-0.4,0.4-0.6,0.9-0.6,1.5v4.3c0,0.1,0.1,0.2,0.2,0.2h3.9
		c0.5,0,1-0.2,1.4-0.6l4-4c0.2-0.2,0-0.4-0.2-0.4h-4.1C41.6,14.5,41.5,14.4,41.5,14.2z"/>
	<line class="st4" x1="20.6" y1="42.9" x2="19.4" y2="48"/>
	<line class="st4" x1="38" y1="42.9" x2="39.1" y2="48"/>
</g>
</svg>
