<?xml version="1.0" encoding="utf-8"?>
<!-- Generator: Adobe Illustrator 21.0.0, SVG Export Plug-In . SVG Version: 6.00 Build 0)  -->
<svg version="1.1" id="Layer_1" xmlns="http://www.w3.org/2000/svg" xmlns:xlink="http://www.w3.org/1999/xlink" x="0px" y="0px"
	 viewBox="0 0 64 64" style="enable-background:new 0 0 64 64;" xml:space="preserve">
<style type="text/css">
	.st0{opacity:0.4849;}
	.st1{fill:#8DC63F;}
	.st2{fill-rule:evenodd;clip-rule:evenodd;fill:#8DC63F;}
	.st3{clip-path:url(#SVGID_6_);}
	.st4{clip-path:url(#SVGID_8_);fill:#ADDE6A;}
	.st5{clip-path:url(#SVGID_10_);}
	.st6{clip-path:url(#SVGID_12_);fill:#ADDE6A;}
</style>
<g>
	<g>
		<defs>
			<rect id="SVGID_1_" x="-1159" y="-1751" width="1440" height="3431"/>
		</defs>
		<clipPath id="SVGID_2_">
			<use xlink:href="#SVGID_1_"  style="overflow:visible;"/>
		</clipPath>
	</g>
</g>
<g>
	<g>
		<defs>
			<rect id="SVGID_3_" x="-1159" y="-1751" width="1440" height="3431"/>
		</defs>
		<clipPath id="SVGID_4_">
			<use xlink:href="#SVGID_3_"  style="overflow:visible;"/>
		</clipPath>
	</g>
</g>
<g>
	<g class="st0">
		<path class="st1" d="M20.4,49.9c-0.2,0-0.4-0.1-0.6-0.2c-0.6-0.4-1.1-0.8-1.7-1.2c-0.4-0.3-0.5-1-0.1-1.4c0.3-0.4,1-0.5,1.4-0.1
			c0.5,0.4,1,0.8,1.5,1.1c0.5,0.3,0.6,0.9,0.3,1.4C21,49.7,20.7,49.9,20.4,49.9z M15.9,45.9c-0.3,0-0.6-0.1-0.8-0.4
			c-0.4-0.5-0.9-1.1-1.3-1.7c-0.3-0.5-0.2-1.1,0.3-1.4c0.5-0.3,1.1-0.2,1.4,0.3c0.4,0.5,0.8,1,1.2,1.5c0.4,0.4,0.3,1.1-0.1,1.4
			C16.4,45.8,16.2,45.9,15.9,45.9z M12.8,40.8c-0.4,0-0.8-0.2-0.9-0.6c-0.3-0.6-0.5-1.3-0.8-2c-0.2-0.5,0.1-1.1,0.6-1.3
			c0.5-0.2,1.1,0.1,1.3,0.6c0.2,0.6,0.4,1.2,0.7,1.8c0.2,0.5,0,1.1-0.5,1.3C13,40.8,12.9,40.8,12.8,40.8z M11.2,35.1
			c-0.5,0-0.9-0.4-1-0.9c-0.1-0.7-0.1-1.4-0.2-2.1c0-0.6,0.4-1,1-1c0.6,0,1,0.4,1,1c0,0.6,0.1,1.3,0.2,1.9c0.1,0.5-0.3,1-0.9,1.1
			C11.3,35.1,11.2,35.1,11.2,35.1z M11.3,29.1c-0.1,0-0.1,0-0.2,0c-0.5-0.1-0.9-0.6-0.8-1.1c0.1-0.7,0.3-1.4,0.4-2.1
			c0.1-0.5,0.7-0.9,1.2-0.7c0.5,0.1,0.9,0.7,0.7,1.2c-0.2,0.6-0.3,1.2-0.4,1.9C12.2,28.7,11.7,29.1,11.3,29.1z M13,23.4
			c-0.1,0-0.3,0-0.4-0.1c-0.5-0.2-0.7-0.8-0.5-1.3c0.3-0.6,0.6-1.2,1-1.8c0.3-0.5,0.9-0.6,1.4-0.3c0.5,0.3,0.6,0.9,0.3,1.4
			c-0.3,0.5-0.6,1.1-0.9,1.7C13.8,23.2,13.4,23.4,13,23.4z M16.3,18.4c-0.2,0-0.5-0.1-0.7-0.3c-0.4-0.4-0.4-1-0.1-1.4
			c0.5-0.5,1-1,1.5-1.5c0.4-0.4,1-0.4,1.4,0.1c0.4,0.4,0.4,1-0.1,1.4c-0.5,0.4-0.9,0.9-1.3,1.4C16.9,18.3,16.6,18.4,16.3,18.4z"/>
	</g>
	<g class="st0">
		<path class="st1" d="M46.1,48c-0.3,0-0.5-0.1-0.7-0.3c-0.4-0.4-0.3-1,0.1-1.4c0.5-0.4,0.9-0.9,1.3-1.3c0.4-0.4,1-0.4,1.4-0.1
			c0.4,0.4,0.4,1,0.1,1.4c-0.5,0.5-1,1-1.5,1.5C46.6,47.9,46.3,48,46.1,48z M49.9,43.4c-0.2,0-0.4,0-0.5-0.1
			c-0.5-0.3-0.6-0.9-0.3-1.4c0.3-0.5,0.6-1.1,0.9-1.7c0.2-0.5,0.8-0.7,1.3-0.5c0.5,0.2,0.7,0.8,0.5,1.3c-0.3,0.6-0.6,1.2-1,1.8
			C50.6,43.2,50.2,43.4,49.9,43.4z M52.3,37.9c-0.1,0-0.2,0-0.3,0c-0.5-0.1-0.9-0.7-0.7-1.2c0.2-0.6,0.3-1.2,0.4-1.9
			c0.1-0.5,0.6-0.9,1.2-0.8c0.5,0.1,0.9,0.6,0.8,1.2c-0.1,0.7-0.3,1.4-0.4,2C53.1,37.6,52.7,37.9,52.3,37.9z M53,31.9
			c-0.5,0-1-0.4-1-1c0-0.6-0.1-1.3-0.1-1.9c-0.1-0.5,0.3-1,0.9-1.1c0.6-0.1,1,0.3,1.1,0.9c0.1,0.7,0.1,1.4,0.1,2.1
			C54,31.5,53.6,31.9,53,31.9C53,31.9,53,31.9,53,31.9z M52,26c-0.4,0-0.8-0.3-1-0.7c-0.2-0.6-0.4-1.2-0.7-1.8
			c-0.2-0.5,0-1.1,0.5-1.3c0.5-0.2,1.1,0,1.3,0.5c0.3,0.6,0.5,1.3,0.7,2c0.2,0.5-0.1,1.1-0.7,1.3C52.2,26,52.1,26,52,26z M49.4,20.7
			c-0.3,0-0.6-0.2-0.8-0.4c-0.3-0.5-0.7-1-1.1-1.5c-0.4-0.4-0.3-1.1,0.1-1.4c0.4-0.4,1.1-0.3,1.4,0.1c0.4,0.5,0.9,1.1,1.3,1.7
			c0.3,0.5,0.2,1.1-0.3,1.4C49.8,20.6,49.6,20.7,49.4,20.7z M45.4,16.2c-0.2,0-0.5-0.1-0.6-0.2c-0.5-0.4-1-0.8-1.5-1.1
			c-0.5-0.3-0.6-0.9-0.3-1.4c0.3-0.5,0.9-0.6,1.4-0.3c0.6,0.4,1.1,0.8,1.7,1.3c0.4,0.4,0.5,1,0.1,1.4C46,16.1,45.7,16.2,45.4,16.2z"
			/>
	</g>
</g>
<path class="st2" d="M45,10.1C45,8,45,7,44.8,6.3c-0.2-1.2-1.3-1.8-2.4-2.2c-0.9,0-2,0-3.8-0.1H25.5c-1.9,0-2.9,0.1-4,0
	c-1.1,0.4-2,1.2-2.3,2.4C19,7,19,8.2,19,10.1v41.8c0,1.9,0,3.1,0.2,3.9c0.3,1.1,1.3,2.3,2.4,2.7c1,0.3,1.9,0.5,3.8,0.5h13.2
	c1.9,0,2.8-0.2,3.8-0.5c1.1-0.4,2.2-1.4,2.4-2.6c0.2-0.9,0.1-2.4,0.2-4V10.1z M22,51h20V11H22V51z"/>
<g>
	<defs>
		<rect id="SVGID_5_" x="28" y="7" width="8" height="1"/>
	</defs>
	<clipPath id="SVGID_6_">
		<use xlink:href="#SVGID_5_"  style="overflow:visible;"/>
	</clipPath>
	<g class="st3">
		<defs>
			<rect id="SVGID_7_" x="-688" y="-1683" width="1440" height="3431"/>
		</defs>
		<clipPath id="SVGID_8_">
			<use xlink:href="#SVGID_7_"  style="overflow:visible;"/>
		</clipPath>
		<rect x="23" y="2" class="st4" width="18" height="11"/>
	</g>
</g>
<g>
	<defs>
		<circle id="SVGID_9_" cx="32" cy="55" r="3"/>
	</defs>
	<clipPath id="SVGID_10_">
		<use xlink:href="#SVGID_9_"  style="overflow:visible;"/>
	</clipPath>
	<g class="st5">
		<defs>
			<rect id="SVGID_11_" x="-688" y="-1683" width="1440" height="3431"/>
		</defs>
		<clipPath id="SVGID_12_">
			<use xlink:href="#SVGID_11_"  style="overflow:visible;"/>
		</clipPath>
		<rect x="24" y="47" class="st6" width="16" height="16"/>
	</g>
</g>
</svg>
