<?xml version="1.0" encoding="utf-8"?>
<!-- Generator: Adobe Illustrator 19.2.0, SVG Export Plug-In . SVG Version: 6.00 Build 0)  -->
<svg version="1.1" id="Layer_1" xmlns="http://www.w3.org/2000/svg" xmlns:xlink="http://www.w3.org/1999/xlink" x="0px" y="0px"
	 viewBox="0 0 48 48" style="enable-background:new 0 0 48 48;" xml:space="preserve">
<style type="text/css">
	.st0{fill:#8CC640;}
	.st1{fill:#8DC63F;}
	.st2{fill:none;stroke:#8CC640;stroke-miterlimit:10;}
</style>
<g>
	<path class="st0" d="M24,2c12.1,0,22,9.9,22,22s-9.9,22-22,22S2,36.1,2,24S11.9,2,24,2 M24,0C10.7,0,0,10.7,0,24s10.7,24,24,24
		s24-10.7,24-24S37.3,0,24,0L24,0z"/>
</g>
<g>
	<g>
		<path class="st1" d="M33.9,13c0.6,0,1.1,0.5,1.1,1.1v19.8c0,0.6-0.5,1.1-1.1,1.1H14.1c-0.6,0-1.1-0.5-1.1-1.1V14.1
			c0-0.6,0.5-1.1,1.1-1.1H33.9 M33.9,11H14.1c-1.7,0-3.1,1.4-3.1,3.1v19.8c0,1.7,1.4,3.1,3.1,3.1h19.8c1.7,0,3.1-1.4,3.1-3.1V14.1
			C37,12.4,35.6,11,33.9,11L33.9,11z"/>
	</g>
	<g>
		<path class="st1" d="M22,16v6h-6v-6H22 M23,15h-8v8h8V15L23,15z"/>
	</g>
	<g>
		<path class="st1" d="M32,16v6h-6v-6H32 M33,15h-8v8h8V15L33,15z"/>
	</g>
	<g>
		<path class="st1" d="M22,26v6h-6v-6H22 M23,25h-8v8h8V25L23,25z"/>
	</g>
	<g>
		<path class="st1" d="M32,26v6h-6v-6H32 M33,25h-8v8h8V25L33,25z"/>
	</g>
</g>
<g>
	<g>
		<path class="st1" d="M16.5,16H16v0.5C16,16.2,16.2,16,16.5,16z"/>
	</g>
</g>
<line class="st2" x1="17.5" y1="22" x2="17.5" y2="18"/>
<line class="st2" x1="19.5" y1="22" x2="19.5" y2="20"/>
<line class="st2" x1="17" y1="28.5" x2="21" y2="28.5"/>
<line class="st2" x1="17" y1="30.5" x2="21" y2="30.5"/>
<path class="st2" d="M27.5,31c0-1,0.5-1.4,1.5-1.4s1.5,0.5,1.5,1.4"/>
<line class="st2" x1="27" y1="20.5" x2="31" y2="20.5"/>
<line class="st2" x1="27" y1="18.5" x2="29" y2="18.5"/>
<rect x="26" y="26" class="st1" width="6" height="1"/>
<rect x="16" y="26" class="st1" width="6" height="1"/>
<rect x="26" y="16" class="st1" width="6" height="1"/>
<rect x="16" y="16" class="st1" width="6" height="1"/>
</svg>
