<?xml version="1.0" encoding="utf-8"?>
<!-- Generator: Adobe Illustrator 18.1.0, SVG Export Plug-In . SVG Version: 6.00 Build 0)  -->
<!DOCTYPE svg PUBLIC "-//W3C//DTD SVG 1.1//EN" "http://www.w3.org/Graphics/SVG/1.1/DTD/svg11.dtd">
<svg version="1.1" id="Layer_1" xmlns="http://www.w3.org/2000/svg" xmlns:xlink="http://www.w3.org/1999/xlink" x="0px" y="0px"
	 viewBox="0 0 72 72" enable-background="new 0 0 72 72" xml:space="preserve">
<path fill="#8CC640" d="M36,72C16.1,72,0,55.8,0,36S16.1,0,36,0s36,16.2,36,36S55.8,72,36,72z M36,3.2C17.9,3.2,3.2,17.9,3.2,36
	S17.9,68.8,36,68.8S68.8,54.1,68.8,36S54.1,3.2,36,3.2z"/>
<g>
	<path fill="#8CC640" d="M54.1,25.6c-0.3-0.8-0.9-1.5-1.7-1.9l-0.3-0.1c-0.4-0.2-0.9-0.3-1.4-0.3c-1.3,0-2.4,0.7-3,1.9l-3.4,4.9
		l1.2-10.8c0.3-1.9-0.9-3.7-2.8-4c-1.9-0.3-3.7,1-4,2.8l-1.7,8.5l-0.7-10.9c-0.1-1.7-1.4-3.1-3-3.3c-1.1-0.1-2.2,0.3-3,1.1
		c-0.7,0.7-1,1.7-0.9,2.5l-0.3,12.2L26.9,21c-0.4-1.5-1.8-2.6-3.4-2.6c-0.3,0-0.6,0-0.9,0.1c-0.9,0.2-1.6,0.8-2.1,1.6
		C20.1,21,20,22,20.2,22.8l4,16.3v1.9L21,38.6c-1.3-1-3.1-1.1-4.4-0.1c-0.9,0.7-1.4,1.7-1.4,2.8c0,1.1,0.5,2.1,1.3,2.8l5.7,4.5
		c1.1,0.9,2,2.1,2.4,3.5c1.6,5.2,5.2,8.1,10,8.1h1.8c6.3,0,11.4-5.1,11.5-11.4l0.5-4.6c0.3-2.9,1.1-5.6,2.2-8.3l3.5-7.8
		C54.4,27.3,54.4,26.4,54.1,25.6z M52.3,27.4l-3.5,7.8c-1.2,2.8-2,5.8-2.4,8.8l-0.5,4.7l0,0.1c0,5.3-4.3,9.5-9.5,9.5h-1.8
		c-5.3,0-7.4-4.3-8.1-6.8c-0.5-1.8-1.6-3.3-3-4.5l-5.7-4.5c-0.4-0.3-0.6-0.8-0.6-1.3c0-0.5,0.2-1,0.7-1.3c0.3-0.2,0.6-0.3,0.9-0.3
		c0.4,0,0.8,0.1,1.1,0.4l4,3.2c0.2,0.2,0.5,0.3,0.9,0.3c0.8,0,1.4-0.6,1.4-1.4V39l-4-16.7c-0.1-0.4-0.1-0.8,0.2-1.2
		c0.2-0.4,0.5-0.6,1-0.7c0.8-0.2,1.7,0.3,1.9,1.1l3.7,11.8c0.1,0.5,0.6,0.8,1,0.8c0.6,0,1.1-0.5,1.1-1.1l0.4-17.2
		c0-0.4,0.1-0.9,0.4-1.2c0.4-0.4,0.8-0.6,1.4-0.5c0.7,0.1,1.3,0.8,1.4,1.6l1,17.1c0,0.6,0.5,1.1,1.1,1.1c0.5,0,0.9-0.3,1.1-0.9
		l2.9-14.6c0.1-0.8,1-1.4,1.8-1.3c0.9,0.2,1.4,1,1.3,1.9l-1.6,14.1c0,0.3,0.1,0.6,0.3,0.9c0.4,0.5,1.3,0.5,1.7-0.1l5.3-7.7l0.1-0.1
		c0.3-0.7,1.2-1,1.9-0.7l0.3,0.1c0.3,0.2,0.6,0.4,0.7,0.8C52.5,26.6,52.4,27,52.3,27.4z"/>
	<path fill="#8CC640" d="M29.9,38.7c-0.5,0.1-0.9,0.6-0.8,1.1l1.5,9.9c0.1,0.5,0.5,0.8,0.9,0.8c0,0,0.1,0,0.1,0
		c0.5-0.1,0.9-0.6,0.8-1.1l-1.5-9.9C30.9,39,30.4,38.6,29.9,38.7z"/>
	<path fill="#8CC640" d="M36.3,37.7c-0.5,0-1,0.4-1,0.9L35,49.5c0,0.5,0.4,1,0.9,1c0,0,0,0,0,0c0.5,0,0.9-0.4,1-0.9l0.2-10.9
		C37.2,38.1,36.8,37.7,36.3,37.7z"/>
	<path fill="#8CC640" d="M42.2,40.4c-0.5-0.1-1,0.2-1.1,0.8l-1.6,8.5c-0.1,0.5,0.2,1,0.8,1.1c0.1,0,0.1,0,0.2,0
		c0.4,0,0.8-0.3,0.9-0.8l1.6-8.5C43,41,42.7,40.5,42.2,40.4z"/>
</g>
</svg>
