<?xml version="1.0" encoding="utf-8"?>
<!-- Generator: Adobe Illustrator 21.0.0, SVG Export Plug-In . SVG Version: 6.00 Build 0)  -->
<svg version="1.1" id="Layer_1" xmlns="http://www.w3.org/2000/svg" xmlns:xlink="http://www.w3.org/1999/xlink" x="0px" y="0px"
	 viewBox="0 0 64 64" style="enable-background:new 0 0 64 64;" xml:space="preserve">
<style type="text/css">
	.st0{fill:none;stroke:#8DC63F;stroke-width:4;stroke-miterlimit:10;}
	.st1{clip-path:url(#SVGID_2_);}
	.st2{clip-path:url(#SVGID_4_);fill:#8DC63F;}
	.st3{clip-path:url(#SVGID_6_);}
	.st4{clip-path:url(#SVGID_8_);fill:#ADDE6A;}
</style>
<g>
	<path class="st0" d="M21,26v-9.8C21,10,25.8,5,32,5s11,5,11,11.2V26"/>
</g>
<g>
	<defs>
		<path id="SVGID_1_" d="M50,26v28.1c0,1.6-1.2,2.9-2.7,2.9H16.7c-1.5,0-2.7-1.3-2.7-2.9V26H50 M51.3,23H12.7
			c-0.9,0-1.7,0.8-1.7,1.7v29.5c0,3.2,2.5,5.8,5.5,5.8h30.9c3,0,5.5-2.6,5.5-5.8V24.7C53,23.8,52.3,23,51.3,23"/>
	</defs>
	<clipPath id="SVGID_2_">
		<use xlink:href="#SVGID_1_"  style="overflow:visible;"/>
	</clipPath>
	<g class="st1">
		<defs>
			<rect id="SVGID_3_" x="-1159" y="-1751" width="1440" height="3431"/>
		</defs>
		<clipPath id="SVGID_4_">
			<use xlink:href="#SVGID_3_"  style="overflow:visible;"/>
		</clipPath>
		<rect x="6" y="18" class="st2" width="52" height="47"/>
	</g>
</g>
<g>
	<defs>
		<path id="SVGID_5_" d="M17,54V29h30v25H17z M29,42v5c0,1.7,1.3,3,3,3c1.7,0,3-1.3,3-3v-5c1.2-0.9,2-2.4,2-4c0-2.8-2.2-5-5-5
			s-5,2.2-5,5C27,39.6,27.8,41.1,29,42z"/>
	</defs>
	<clipPath id="SVGID_6_">
		<use xlink:href="#SVGID_5_"  style="overflow:visible;"/>
	</clipPath>
	<g class="st3">
		<defs>
			<rect id="SVGID_7_" x="-1159" y="-1751" width="1440" height="3431"/>
		</defs>
		<clipPath id="SVGID_8_">
			<use xlink:href="#SVGID_7_"  style="overflow:visible;"/>
		</clipPath>
		<rect x="12" y="24" class="st4" width="40" height="35"/>
	</g>
</g>
</svg>
