<?xml version="1.0" encoding="utf-8"?>
<!-- Generator: Adobe Illustrator 19.2.0, SVG Export Plug-In . SVG Version: 6.00 Build 0)  -->
<svg version="1.1" id="Layer_1" xmlns="http://www.w3.org/2000/svg" xmlns:xlink="http://www.w3.org/1999/xlink" x="0px" y="0px"
	 viewBox="0 0 48 48" style="enable-background:new 0 0 48 48;" xml:space="preserve">
<style type="text/css">
	.st0{fill:#8CC640;}
	.st1{fill:none;stroke:#8CC640;stroke-width:4;stroke-miterlimit:10;}
</style>
<g>
	<path class="st0" d="M24,2c12.1,0,22,9.9,22,22s-9.9,22-22,22S2,36.1,2,24S11.9,2,24,2 M24,0C10.7,0,0,10.7,0,24s10.7,24,24,24
		s24-10.7,24-24S37.3,0,24,0L24,0z"/>
</g>
<g>
	<g>
		<path class="st0" d="M31,22v11.7c0,0.2-0.2,0.3-0.4,0.3H17.4c-0.2,0-0.4-0.1-0.4-0.3V22H31 M32.3,20H15.7c-0.4,0-0.7,0.3-0.7,0.7
			v13c0,1.3,1.1,2.3,2.4,2.3h13.3c1.3,0,2.4-1,2.4-2.3v-13C33,20.3,32.7,20,32.3,20L32.3,20z"/>
	</g>
	<path class="st1" d="M19,20v-3c0-2.8,2.2-5,5-5h0c2.8,0,5,2.2,5,5v3"/>
</g>
<path class="st0" d="M26,26c0-1.1-0.9-2-2-2s-2,0.9-2,2c0,0.7,0.4,1.4,1,1.7V31c0,0.6,0.4,1,1,1s1-0.4,1-1v-3.3
	C25.6,27.4,26,26.7,26,26z"/>
</svg>
