<svg xmlns="http://www.w3.org/2000/svg" viewBox="0 0 67.875 67.875" enable-background="new 0 0 67.875 67.875"><path fill="#8CC640" d="M40.711 29.261c-.553 0-1-.447-1-1v-4.886c0-3.184-2.59-5.773-5.773-5.773s-5.774 2.59-5.774 5.773v4.886c0 .553-.447 1-1 1s-1-.447-1-1v-4.886c0-4.286 3.487-7.773 7.774-7.773 4.286 0 7.773 3.487 7.773 7.773v4.886c0 .552-.447 1-1 1zM43.273 50.268h-18.671c-1.839 0-3.335-1.496-3.335-3.335v-18.672c0-.553.447-1 1-1h23.341c.553 0 1 .447 1 1v18.673c0 1.838-1.496 3.334-3.335 3.334zm-20.006-21.007v17.673c0 .736.599 1.335 1.335 1.335h18.671c.736 0 1.335-.599 1.335-1.335v-17.673h-21.341zM35.163 37.665v5.535h-2.451v-5.535c-.669-.414-1.117-1.152-1.117-1.995 0-1.293 1.049-2.341 2.341-2.341 1.294 0 2.342 1.047 2.342 2.341.001.843-.446 1.58-1.115 1.995zM33.937 67.875c-18.713 0-33.937-15.225-33.937-33.938s15.224-33.937 33.937-33.937 33.937 15.225 33.937 33.938-15.224 33.937-33.937 33.937zm0-64.875c-17.059 0-30.937 13.879-30.937 30.937s13.879 30.938 30.938 30.938 30.937-13.879 30.937-30.938-13.879-30.937-30.938-30.937z"/></svg>