<?xml version="1.0" encoding="UTF-8"?>
<svg width="32px" height="32px" viewBox="0 0 32 32" version="1.1" xmlns="http://www.w3.org/2000/svg" xmlns:xlink="http://www.w3.org/1999/xlink">
    <!-- Generator: Sketch 43.2 (39069) - http://www.bohemiancoding.com/sketch -->
    <title>Group 18</title>
    <desc>Created with Sketch.</desc>
    <defs></defs>
    <g id="Page-1" stroke="none" stroke-width="1" fill="none" fill-rule="evenodd">
        <g id="Pricing" transform="translate(-366.000000, -1138.000000)">
            <g id="Group-40" transform="translate(366.000000, 1134.000000)">
                <g id="Group-18" transform="translate(0.000000, 4.000000)">
                    <circle id="Oval-3" fill="#8DC63F" cx="16" cy="16" r="16"></circle>
                    <circle id="Oval-3" stroke="#ADDE6A" stroke-width="2" cx="16" cy="16" r="12"></circle>
                    <path d="M14.6489751,18.125 L16.7234667,18.125 C16.9173444,18.125 17.0918343,17.9583333 17.0918343,17.7291667 C17.0918343,15.4791667 20,15.3958333 20,12.6458333 C20,10.5416667 18.0999984,9 16.0448947,9 C13.5438722,9 12.1091771,10.8333333 12.1091771,10.8333333 C11.9734627,10.9791667 11.9540749,11.2291667 12.1091771,11.375 L13.2918312,12.625 C13.7765254,13.0833333 14.1448931,11.7708333 15.5020371,11.7708333 C16.3357112,11.7708333 16.9561199,12.3541667 16.9561199,13 C16.9561199,14.3333333 14.2806075,15.1041667 14.2806075,16.8541667 L14.2806075,17.7291667 C14.2806075,17.9583333 14.4550974,18.125 14.6489751,18.125 Z M13.8540765,22.0416667 C13.8540765,23.1041667 14.6877507,24 15.676527,24 C16.6846911,24 17.5377531,23.1041667 17.5377531,22.0416667 C17.5377531,20.9583333 16.6846911,20.0416667 15.676527,20.0416667 C14.6877507,20.0416667 13.8540765,20.9583333 13.8540765,22.0416667 Z" id="?" fill="#FFFFFF"></path>
                </g>
            </g>
        </g>
    </g>
</svg>