<?xml version="1.0" encoding="UTF-8"?>
<svg width="14px" height="14px" viewBox="0 0 14 14" version="1.1" xmlns="http://www.w3.org/2000/svg" xmlns:xlink="http://www.w3.org/1999/xlink">
    <!-- Generator: Sketch 43.2 (39069) - http://www.bohemiancoding.com/sketch -->
    <title>Combined Shape</title>
    <desc>Created with Sketch.</desc>
    <defs></defs>
    <g id="Page-1" stroke="none" stroke-width="1" fill="none" fill-rule="evenodd">
        <g id="Pricing" transform="translate(-356.000000, -602.000000)" fill="#D4D7DA">
            <g id="Group-15" transform="translate(123.000000, 327.000000)">
                <g id="Group-9" transform="translate(233.000000, 275.000000)">
                    <path d="M7,14 C3.13400675,14 0,10.8659932 0,7 C0,3.13400675 3.13400675,0 7,0 C10.8659932,0 14,3.13400675 14,7 C14,10.8659932 10.8659932,14 7,14 Z M7.63380282,3.5 C7.08450704,3.5 6.68309859,3.90140845 6.68309859,4.37676056 C6.68309859,4.79929577 7.01056338,5.23239437 7.57042254,5.23239437 C8.05633803,5.23239437 8.5,4.88380282 8.5,4.28169014 C8.5,3.92253521 8.27816901,3.5 7.63380282,3.5 Z M6.31338028,7.01760563 C6.15492958,7.82042254 5.86971831,9.19366197 5.64788732,10.2288732 C5.72183099,10.4084507 6.05985915,10.7042254 6.1443662,10.7042254 C7.0528169,10.7042254 7.63380282,10.6091549 8.10915493,10.4823944 C8.08802817,10.2077465 8.05633803,9.92253521 8.03521127,9.64788732 C7.73943662,9.72183099 7.46478873,9.75352113 7.35915493,9.75352113 C7.31690141,9.75352113 7.30633803,9.72183099 7.32746479,9.67957746 C7.41197183,9.28873239 7.87676056,7.17605634 8.06690141,6.27816901 C7.97183099,6.11971831 7.65492958,5.8556338 7.57042254,5.8556338 C7.38028169,5.8556338 6.31338028,6.04577465 5.51056338,6.14084507 C5.5,6.42605634 5.5,6.71126761 5.5,7.00704225 L6.31338028,7.01760563 Z" id="Combined-Shape"></path>
                </g>
            </g>
        </g>
    </g>
</svg>