<?xml version="1.0" encoding="utf-8"?>
<!-- Generator: Adobe Illustrator 19.2.0, SVG Export Plug-In . SVG Version: 6.00 Build 0)  -->
<svg version="1.1" id="Layer_1" xmlns="http://www.w3.org/2000/svg" xmlns:xlink="http://www.w3.org/1999/xlink" x="0px" y="0px"
	 viewBox="0 0 16 16" style="enable-background:new 0 0 16 16;" xml:space="preserve">
<style type="text/css">
	.st0{fill:#3D4351;}
</style>
<path class="st0" d="M8,0C3.6,0,0,3.6,0,8s3.6,8,8,8s8-3.6,8-8S12.4,0,8,0z M7.8,13.6c-4,0,0-5.1,0.1-6.3c0-1.2-2.2,1.1-2.2,1.1
	s0.5-3.4,3-3.2c3.3,0.5-1.5,6.6-0.5,6.9c1.1,0.2,2.1-1.2,2.1-1.2S9.6,13.6,7.8,13.6z M9.2,4.6c-0.6,0-1.1-0.5-1.1-1.1
	s0.5-1.1,1.1-1.1s1.1,0.5,1.1,1.1S9.8,4.6,9.2,4.6z"/>
</svg>
