<?xml version="1.0" encoding="utf-8"?>
<!-- Generator: Adobe Illustrator 18.1.0, SVG Export Plug-In . SVG Version: 6.00 Build 0)  -->
<!DOCTYPE svg PUBLIC "-//W3C//DTD SVG 1.1//EN" "http://www.w3.org/Graphics/SVG/1.1/DTD/svg11.dtd">
<svg version="1.1" id="Layer_1" xmlns="http://www.w3.org/2000/svg" xmlns:xlink="http://www.w3.org/1999/xlink" x="0px" y="0px"
	 viewBox="0 0 72 72" enable-background="new 0 0 72 72" xml:space="preserve">
<g>
	<path fill="none" stroke="#8CC640" stroke-width="3" stroke-miterlimit="10" d="M36.1,69.7c-18.4,0-33.4-15-33.4-33.4
		S17.8,3,36.1,3s33.4,15,33.4,33.4S54.5,69.7,36.1,69.7z"/>
</g>
<g>
	<path fill="#8CC640" d="M31.2,19.8c1.7-0.5,3.5-0.8,5.2-0.8c4.8,0,9.4,2,12.8,5.5l0.8,0.8h-5.6c-0.4,0-0.8,0.4-0.8,0.8
		s0.3,0.8,0.8,0.8h7.5c0.3,0,0.5-0.2,0.5-0.5v-7.5c0-0.4-0.3-0.8-0.8-0.8s-0.8,0.3-0.8,0.8v4.9L50,23c-3.6-3.6-8.4-5.6-13.5-5.6
		c-1.6,0-3.2,0.2-4.8,0.6c-8,2-13.8,9.1-14.3,17.7c0,0.2,0.1,0.4,0.2,0.6c0.1,0.2,0.4,0.2,0.6,0.2c0.4,0,0.7-0.3,0.8-0.7
		C19.4,28.4,24.3,21.9,31.2,19.8z"/>
	<path fill="#8CC640" d="M55.3,36.9c-0.1-0.2-0.3-0.2-0.6-0.2c-0.4,0-0.7,0.3-0.8,0.7c-0.5,7.5-5.4,14-12.4,16.1
		c-1.7,0.5-3.5,0.8-5.2,0.8c0,0,0,0,0,0c-4.8,0-9.5-2-12.8-5.5l-0.8-0.8h5.6c0.4,0,0.8-0.3,0.8-0.8c0-0.4-0.3-0.8-0.8-0.8h-7.5
		c-0.3,0-0.5,0.2-0.5,0.5v7.5c0,0.4,0.4,0.8,0.8,0.8c0.4,0,0.8-0.3,0.8-0.8v-4.9l0.9,0.9c3.6,3.6,8.4,5.6,13.5,5.6
		c1.6,0,3.2-0.2,4.8-0.6c8-2,13.8-9.1,14.3-17.7C55.6,37.2,55.5,37,55.3,36.9z"/>
</g>
</svg>
