<?xml version="1.0" encoding="utf-8"?>
<!-- Generator: Adobe Illustrator 19.2.0, SVG Export Plug-In . SVG Version: 6.00 Build 0)  -->
<svg version="1.1" id="Layer_1" xmlns="http://www.w3.org/2000/svg" xmlns:xlink="http://www.w3.org/1999/xlink" x="0px" y="0px"
	 viewBox="0 0 58 58" style="enable-background:new 0 0 58 58;" xml:space="preserve">
<style type="text/css">
	.st0{fill:#8CC640;}
	.st1{fill-rule:evenodd;clip-rule:evenodd;fill:none;stroke:#8CC640;stroke-width:2;stroke-linecap:round;stroke-miterlimit:10;}
</style>
<g>
	<path class="st0" d="M29,57.8C13.1,57.8,0.2,44.9,0.2,29S13.1,0.2,29,0.2S57.8,13.1,57.8,29S44.9,57.8,29,57.8z M29,2.7
		C14.5,2.7,2.7,14.5,2.7,29S14.5,55.3,29,55.3S55.3,43.5,55.3,29S43.5,2.7,29,2.7z"/>
</g>
<g>
	<path class="st1" d="M32.1,31.4c0.3-0.8,0.5-1.5,0.5-2.4c0-4-3.2-7-7.2-7h-6.2c-4,0-7.2,3-7.2,7s3.2,7,7.2,7H24"/>
	<path class="st1" d="M26.2,26.3c-0.3,0.8-0.3,1.6-0.3,2.5c0,4,3.4,7.2,7.4,7.2h6.2c4,0,7.2-3,7.2-7s-3.2-7-7.2-7H34"/>
</g>
</svg>
