<?xml version="1.0" encoding="utf-8"?>
<!-- Generator: Adobe Illustrator 19.2.0, SVG Export Plug-In . SVG Version: 6.00 Build 0)  -->
<svg version="1.1" id="Layer_1" xmlns="http://www.w3.org/2000/svg" xmlns:xlink="http://www.w3.org/1999/xlink" x="0px" y="0px"
	 viewBox="0 0 48 48" style="enable-background:new 0 0 48 48;" xml:space="preserve">
<style type="text/css">
	.st0{fill:#8CC640;}
	.st1{opacity:0.54;fill:none;stroke:#8DC63F;stroke-width:2;stroke-miterlimit:10;stroke-dasharray:2,2;}
</style>
<g>
	<path class="st0" d="M24,2c12.1,0,22,9.9,22,22s-9.9,22-22,22S2,36.1,2,24S11.9,2,24,2 M24,0C10.7,0,0,10.7,0,24s10.7,24,24,24
		s24-10.7,24-24S37.3,0,24,0L24,0z"/>
</g>
<g>
	<path class="st1" d="M31.1,15c3,2,4.9,5.2,4.9,9c0,3.8-2,7.1-5,9"/>
	<path class="st0" d="M17,12v24c0,1.7,1.3,3,3,3h8c1.7,0,3-1.3,3-3V12c0-1.7-1.3-3-3-3h-8C18.3,9,17,10.3,17,12z M22,11h4v1h-4V11z
		 M24,38c-0.8,0-1.5-0.7-1.5-1.5c0-0.8,0.7-1.5,1.5-1.5s1.5,0.7,1.5,1.5C25.5,37.3,24.8,38,24,38z M29,34H19V13h10V34z"/>
</g>
<path class="st1" d="M16.9,15c-3,2-4.9,5.2-4.9,9c0,3.8,2,7.1,5,9"/>
</svg>
