<svg xmlns="http://www.w3.org/2000/svg" viewBox="0 0 67.875 67.875" enable-background="new 0 0 67.875 67.875"><path fill="#8CC640" d="M33.937 27.733c-3.555 0-6.447-2.893-6.447-6.447 0-3.556 2.893-6.448 6.447-6.448 3.556 0 6.448 2.893 6.448 6.448 0 3.555-2.892 6.447-6.448 6.447zm0-10.895c-2.452 0-4.447 1.995-4.447 4.448 0 2.452 1.995 4.447 4.447 4.447 2.453 0 4.448-1.995 4.448-4.447 0-2.453-1.995-4.448-4.448-4.448zM44.026 51.037h-20.177c-.553 0-1-.447-1-1v-15.172c0-3.834 3.119-6.953 6.954-6.953h8.269c3.835 0 6.954 3.119 6.954 6.953v15.172c0 .553-.447 1-1 1zm-19.177-2h18.177v-14.172c0-2.731-2.223-4.953-4.954-4.953h-8.269c-2.731 0-4.954 2.222-4.954 4.953v14.172zM33.937 67.875c-18.713 0-33.937-15.225-33.937-33.938s15.224-33.937 33.937-33.937 33.937 15.225 33.937 33.938-15.224 33.937-33.937 33.937zm0-64.875c-17.059 0-30.937 13.879-30.937 30.937s13.879 30.938 30.938 30.938 30.937-13.879 30.937-30.938-13.879-30.937-30.938-30.937z"/></svg>