<?xml version="1.0" encoding="utf-8"?>
<!-- Generator: Adobe Illustrator 18.1.0, SVG Export Plug-In . SVG Version: 6.00 Build 0)  -->
<!DOCTYPE svg PUBLIC "-//W3C//DTD SVG 1.1//EN" "http://www.w3.org/Graphics/SVG/1.1/DTD/svg11.dtd">
<svg version="1.1" id="Layer_1" xmlns="http://www.w3.org/2000/svg" xmlns:xlink="http://www.w3.org/1999/xlink" x="0px" y="0px"
	 viewBox="0 0 72 72" enable-background="new 0 0 72 72" xml:space="preserve">
<path fill="#8CC640" d="M36,72C16.1,72,0,55.8,0,36S16.1,0,36,0s36,16.2,36,36S55.8,72,36,72z M36,3.2C17.9,3.2,3.2,17.9,3.2,36
	S17.9,68.8,36,68.8S68.8,54.1,68.8,36S54.1,3.2,36,3.2z"/>
<g>
	<path fill="#8CC640" d="M52.5,34.5c0-8.9-7.2-16.1-16.1-16.1s-16.1,7.2-16.1,16.1s7.2,16.1,16.1,16.1S52.5,43.4,52.5,34.5z
		 M22.7,34.5c0-7.5,6.1-13.7,13.7-13.7c7.5,0,13.7,6.1,13.7,13.7c0,7.5-6.1,13.7-13.7,13.7C28.8,48.1,22.7,42,22.7,34.5z"/>
	<path fill="#8CC640" d="M58.9,30.3h-0.5C56.5,19.9,47.3,12,36.4,12c-11,0-20.2,7.9-22.1,18.4h-0.4c-0.8,0-1.5,0.7-1.5,1.5v5.5
		c0,0.8,0.7,1.5,1.5,1.5h2.2c0.8,0,1.5-0.7,1.5-1.5v-5.5c0-0.8-0.7-1.5-1.5-1.5h-0.3c1.9-9.6,10.4-16.9,20.6-16.9
		c10.1,0,18.6,7.2,20.5,16.7h-0.2c-0.8,0-1.5,0.7-1.5,1.5v5.5c0,0.8,0.7,1.5,1.5,1.5h0.1c-1.6,8.8-8.7,15.7-17.7,17
		c-0.5-1.2-1.7-2.1-3.1-2.1c-1.8,0-3.3,1.5-3.3,3.3s1.5,3.3,3.3,3.3c1.7,0,3.1-1.3,3.3-3c9.7-1.3,17.4-8.9,19-18.5h0.6
		c0.8,0,1.5-0.7,1.5-1.5v-5.5C60.4,31,59.8,30.3,58.9,30.3z"/>
	<path fill="#8CC640" d="M44.3,36.7c0-0.3-0.1-0.6-0.3-0.9c-0.2-0.2-0.5-0.4-0.9-0.4H29.6c-0.3,0-0.6,0.1-0.8,0.4
		c-0.2,0.2-0.3,0.5-0.3,0.9c0.2,4.2,3.7,7.4,7.9,7.4S44,40.8,44.3,36.7z M36.4,42.6c-3.3,0-6-2.5-6.4-5.7h12.8
		C42.4,40.2,39.6,42.6,36.4,42.6z"/>
	<circle fill="#8CC640" cx="30.4" cy="29.7" r="1.8"/>
	<circle fill="#8CC640" cx="42.1" cy="29.7" r="1.8"/>
</g>
</svg>
