<svg xmlns="http://www.w3.org/2000/svg" viewBox="0 0 301.711 305.838" enable-background="new 0 0 301.711 305.838"><path fill="#3B4251" d="M20.387 22.873c-2.481 0-4.5-2.019-4.5-4.5s2.019-4.5 4.5-4.5 4.5 2.019 4.5 4.5-2.019 4.5-4.5 4.5zm0-6c-.827 0-1.5.673-1.5 1.5s.673 1.5 1.5 1.5 1.5-.673 1.5-1.5-.673-1.5-1.5-1.5z"/><g fill="#3B4251"><path d="M33.923 20.858l.396-.682c.088-.154.274-.154.374-.078.055.033.946.682 1.661.682.572 0 1.001-.373 1.001-.846 0-.562-.473-.947-1.397-1.32-1.034-.418-2.068-1.078-2.068-2.377 0-.979.727-2.113 2.476-2.113 1.122 0 1.98.572 2.2.738.11.066.144.252.066.363l-.418.627c-.088.131-.253.219-.385.131-.089-.055-.925-.604-1.529-.604-.627 0-.969.418-.969.77 0 .518.407.869 1.299 1.232 1.066.428 2.299 1.066 2.299 2.486 0 1.133-.979 2.178-2.53 2.178-1.386 0-2.2-.648-2.42-.857-.1-.099-.155-.154-.056-.33zM39.885 21.649l3.422-7.404c.032-.064.088-.121.187-.121h.11c.109 0 .153.057.187.121l3.389 7.404c.066.145-.021.287-.187.287h-.958c-.164 0-.241-.066-.318-.221l-.539-1.188h-3.29l-.539 1.188c-.044.109-.143.221-.318.221h-.957c-.167.001-.256-.142-.189-.287zm4.753-2.341l-1.101-2.422h-.033l-1.078 2.422h2.212zM48.729 14.444c0-.111.088-.209.209-.209h1.013c.109 0 .209.098.209.209v6.172h2.805c.121 0 .209.1.209.209v.902c0 .109-.088.209-.209.209h-4.026c-.121 0-.209-.1-.209-.209v-7.283zM54.834 14.444c0-.111.088-.209.209-.209h4.478c.121 0 .209.098.209.209v.902c0 .109-.088.209-.209.209h-3.256v1.805h2.717c.11 0 .209.098.209.209v.912c0 .121-.099.209-.209.209h-2.717v1.926h3.256c.121 0 .209.1.209.209v.902c0 .109-.088.209-.209.209h-4.478c-.121 0-.209-.1-.209-.209v-7.283zM61.4 20.858l.396-.682c.088-.154.274-.154.374-.078.055.033.946.682 1.661.682.572 0 1.001-.373 1.001-.846 0-.562-.473-.947-1.397-1.32-1.034-.418-2.068-1.078-2.068-2.377 0-.979.727-2.113 2.476-2.113 1.122 0 1.98.572 2.2.738.11.066.144.252.066.363l-.418.627c-.088.131-.253.219-.385.131-.089-.055-.925-.604-1.529-.604-.627 0-.969.418-.969.77 0 .518.407.869 1.299 1.232 1.066.428 2.299 1.066 2.299 2.486 0 1.133-.979 2.178-2.53 2.178-1.386 0-2.2-.648-2.42-.857-.1-.099-.154-.154-.056-.33z"/></g><path fill="#8CC640" d="M300.211 38.471h-298.711c-.828 0-1.5-.672-1.5-1.5s.672-1.5 1.5-1.5h298.711c.828 0 1.5.672 1.5 1.5s-.672 1.5-1.5 1.5zM300.211 305.838h-298.711c-.828 0-1.5-.672-1.5-1.5v-302.838c0-.828.672-1.5 1.5-1.5h298.711c.828 0 1.5.672 1.5 1.5v302.838c0 .828-.672 1.5-1.5 1.5zm-297.211-3h295.711v-299.838h-295.711v299.838z"/><g fill="#3B4251"><path d="M26.763 98.823l11.784-12.746c3.271-3.559 4.857-6.444 4.857-8.705 0-2.741-1.779-6.107-6.733-6.107-2.982 0-5.339 2.02-6.83 3.606-.385.385-.913.385-1.298 0l-.962-.913c-.289-.337-.385-.866-.049-1.251 0 0 3.415-4.714 9.139-4.714 6.878 0 10.389 4.377 10.389 9.283 0 4.232-2.693 7.358-6.012 10.918l-9.234 9.859h14.14c.481 0 .914.433.914.914v1.298c0 .481-.433.914-.914.914h-18.277c-.529 0-.914-.433-.914-.914v-1.442zM54.084 99.737l13.419-28.04h-15.728c-.481 0-.914-.433-.914-.914v-1.395c0-.481.433-.914.914-.914h19.334c.481 0 .914.433.914.914v.337l-14.044 30.204c-.192.434-.674 1.251-1.587 1.251h-1.396c-.48 0-.913-.433-.913-.914v-.529zM77.893 96.178c1.539 0 3.175.866 3.175 4.329 0 3.991-2.502 7.454-4.041 8.897-.48.433-.865.385-1.154.096l-.673-.673c-.24-.24-.192-.722.288-1.154.481-.434 2.982-2.549 2.982-6.061-.192.049-.385.049-.577.049-1.491 0-2.741-1.251-2.741-2.742-.001-1.539 1.249-2.741 2.741-2.741zM89.772 98.968c2.164-.722 10.677-5.483 12.36-11.977 0 0-3.175 2.164-7.311 2.164-5.435 0-10.341-4.039-10.341-10.437 0-6.06 4.857-11.014 10.629-11.014 7.792 0 11.207 6.06 11.207 13.707 0 12.794-10.967 18.661-15.824 20.585-.48.192-.865-.048-1.058-.48l-.529-1.154c-.239-.577-.047-1.106.867-1.394zm12.986-16.065c.817-4.81-1.058-12.023-7.647-12.023-4.04 0-7.214 3.511-7.214 7.646 0 4.185 3.222 7.503 7.263 7.503 4.472 0 7.598-3.126 7.598-3.126zM112.379 84.827c0-10.533 4.232-16.834 11.688-16.834s11.688 6.301 11.688 16.834-4.232 16.834-11.688 16.834-11.688-6.301-11.688-16.834zm19.96 0c0-8.705-2.982-13.707-8.272-13.707s-8.272 5.002-8.272 13.707c0 8.802 2.982 13.707 8.272 13.707s8.272-4.905 8.272-13.707zM141.095 98.823l11.784-12.746c3.271-3.559 4.857-6.444 4.857-8.705 0-2.741-1.779-6.107-6.733-6.107-2.982 0-5.339 2.02-6.83 3.606-.385.385-.913.385-1.298 0l-.962-.913c-.289-.337-.385-.866-.049-1.251 0 0 3.415-4.714 9.139-4.714 6.878 0 10.389 4.377 10.389 9.283 0 4.232-2.693 7.358-6.012 10.918l-9.234 9.859h14.14c.481 0 .914.433.914.914v1.298c0 .481-.433.914-.914.914h-18.276c-.529 0-.914-.433-.914-.914v-1.442z"/></g><g fill="#8CC640"><path d="M26.22 123.988c0-.145.116-.275.275-.275h3.2c1.781 0 3.244 1.448 3.244 3.2 0 1.796-1.463 3.259-3.229 3.259h-2.39v3.402c0 .146-.13.275-.274.275h-.551c-.159 0-.275-.13-.275-.275v-9.586zm3.403 5.112c1.188 0 2.201-.97 2.201-2.215 0-1.173-1.014-2.071-2.201-2.071h-2.303v4.286h2.303zM33.752 133.473l4.402-9.745c.043-.087.115-.159.246-.159h.145c.131 0 .203.072.246.159l4.373 9.745c.087.188-.028.377-.246.377h-.579c-.13 0-.217-.087-.246-.159l-1.071-2.39h-5.141l-1.058 2.39c-.028.072-.115.159-.246.159h-.579c-.217 0-.333-.189-.246-.377zm6.878-3.07l-2.114-4.75h-.116l-2.114 4.75h4.344zM44.815 132.329l.218-.275c.145-.188.304-.304.507-.13.101.087 1.158 1.101 2.447 1.101 1.173 0 1.94-.738 1.94-1.593 0-.999-.869-1.593-2.534-2.288-1.593-.695-2.549-1.347-2.549-2.998 0-.984.782-2.577 3.084-2.577 1.419 0 2.477.738 2.477.738.087.044.261.218.087.492l-.174.275c-.131.203-.275.261-.507.131-.102-.059-1.014-.666-1.897-.666-1.534 0-1.998.984-1.998 1.593 0 .97.738 1.534 1.955 2.041 1.955.797 3.215 1.535 3.215 3.215 0 1.506-1.434 2.606-3.128 2.606-1.709 0-2.867-.999-3.056-1.173-.115-.101-.26-.217-.087-.492zM55.344 124.684h-2.52c-.159 0-.274-.131-.274-.275v-.42c0-.145.115-.275.274-.275h6.14c.16 0 .275.131.275.275v.42c0 .145-.115.275-.275.275h-2.52v8.891c0 .146-.13.275-.274.275h-.551c-.145 0-.275-.13-.275-.275v-8.891zM64.715 132.358l.391-.333c.159-.116.275-.087.391.072.131.159.913.999 2.158.999 1.101 0 2.085-.666 2.085-1.811 0-.984-.768-1.896-2.562-1.896h-.812c-.159 0-.275-.087-.275-.318v-.348c0-.231.073-.318.305-.318h.796c1.55 0 2.303-.797 2.303-1.753 0-1.144-.869-1.839-1.896-1.839-.985 0-1.579.579-1.897.941-.087.102-.231.159-.376.029l-.348-.275c-.116-.102-.102-.275 0-.377 0 0 1.042-1.273 2.621-1.273 1.752 0 2.982 1.027 2.982 2.649 0 1.115-.84 1.984-1.491 2.288v.043c.681.29 1.737 1.101 1.737 2.347 0 1.578-1.216 2.809-3.215 2.809-1.78 0-2.592-.927-2.91-1.288-.089-.102-.103-.261.013-.348zM73.505 128.926c0-3.171 1.274-5.067 3.52-5.067 2.244 0 3.519 1.896 3.519 5.067 0 3.172-1.274 5.068-3.519 5.068-2.246 0-3.52-1.896-3.52-5.068zm6.01 0c0-2.62-.897-4.127-2.49-4.127s-2.491 1.507-2.491 4.127c0 2.65.898 4.127 2.491 4.127s2.49-1.477 2.49-4.127zM87.74 123.988c0-.145.116-.275.261-.275h3.244c2.795 0 5.083 2.273 5.083 5.054 0 2.81-2.288 5.083-5.083 5.083h-3.244c-.145 0-.261-.13-.261-.275v-9.587zm3.274 8.863c2.374 0 4.098-1.694 4.098-4.084 0-2.374-1.724-4.068-4.098-4.068h-2.173v8.152h2.173zM97.836 133.473l4.402-9.745c.043-.087.115-.159.246-.159h.145c.131 0 .203.072.246.159l4.373 9.745c.087.188-.028.377-.246.377h-.579c-.13 0-.217-.087-.246-.159l-1.071-2.39h-5.141l-1.058 2.39c-.028.072-.115.159-.246.159h-.579c-.217 0-.333-.189-.246-.377zm6.878-3.07l-2.114-4.75h-.115l-2.114 4.75h4.343zM110.897 128.97l-3.489-4.837c-.116-.188 0-.42.231-.42h.681c.102 0 .188.072.231.131l2.925 4.04 2.926-4.04c.043-.059.13-.131.231-.131h.681c.231 0 .348.232.231.42l-3.533 4.822v4.619c0 .146-.13.275-.275.275h-.564c-.159 0-.275-.13-.275-.275v-4.604zM117.111 132.329l.218-.275c.145-.188.304-.304.507-.13.101.087 1.158 1.101 2.447 1.101 1.173 0 1.94-.738 1.94-1.593 0-.999-.869-1.593-2.534-2.288-1.593-.695-2.549-1.347-2.549-2.998 0-.984.782-2.577 3.084-2.577 1.419 0 2.477.738 2.477.738.087.044.261.218.087.492l-.174.275c-.131.203-.275.261-.507.131-.102-.059-1.014-.666-1.897-.666-1.534 0-1.998.984-1.998 1.593 0 .97.738 1.534 1.955 2.041 1.955.797 3.215 1.535 3.215 3.215 0 1.506-1.434 2.606-3.128 2.606-1.709 0-2.867-.999-3.056-1.173-.115-.101-.26-.217-.087-.492z"/></g><path fill="#3B4251" d="M126.606 263.759h-10.575c-.438 0-.854-.191-1.14-.524l-7.755-9.055c-.083-.098-.154-.206-.21-.321l-8.46-17.462c-.056-.114-.096-.234-.121-.359l-8.301-41.34-8.139 46.317c-.074.419-.322.787-.684 1.013-.361.227-.8.287-1.21.169l-8.195-2.367-8.319 21.674c-.276.719-1.044 1.114-1.794.91l-9.518-2.587c-.336-.091-.629-.296-.83-.58l-17.345-24.482-7.559 6.934c-.345.316-.816.453-1.277.371s-.856-.375-1.07-.791l-10.311-20.05c-.379-.736-.089-1.641.648-2.02.734-.378 1.642-.089 2.02.648l9.411 18.301 7.364-6.755c.316-.292.732-.438 1.173-.386.428.045.815.272 1.064.624l18.02 25.431 7.689 2.091 8.327-21.694c.279-.728 1.067-1.12 1.816-.904l7.914 2.286 9.229-52.521c.125-.71.738-1.231 1.459-1.24h.019c.714 0 1.33.503 1.471 1.205l9.832 48.966 8.293 17.116 7.18 8.383h9.338l8.041-6.763c.317-.267.726-.39 1.143-.341l10.313 1.221 25.951-20.314c.346-.271.794-.378 1.223-.289.431.087.801.358 1.014.742l9.717 17.52 6.869-1.051 8.866-10.544 10.522-87.837c.09-.751.725-1.317 1.48-1.321h.009c.753 0 1.39.558 1.487 1.305l7.776 59.244 7.596-5.599 8.31-13.182c.325-.517.934-.787 1.535-.676.603.108 1.078.571 1.202 1.171l8.979 43.248 7.272 7.867 9.06-26.715c.2-.59.744-.995 1.366-1.018l8.813-.323c.51-.025 1 .226 1.291.649l10.223 14.875c.469.683.296 1.616-.387 2.086-.682.471-1.616.296-2.086-.387l-9.756-14.195-6.955.255-9.538 28.124c-.17.501-.592.876-1.108.985-.524.11-1.056-.061-1.414-.448l-9.267-10.024c-.185-.2-.312-.447-.367-.714l-8.308-40.017-6.479 10.276c-.1.158-.228.297-.379.407l-9.87 7.275c-.427.315-.987.382-1.478.173-.488-.208-.83-.658-.899-1.185l-6.552-49.916-9.154 76.416c-.034.29-.153.563-.341.787l-9.518 11.318c-.234.278-.562.462-.922.517l-8.46 1.294c-.62.098-1.234-.206-1.538-.755l-9.37-16.896-25.055 19.612c-.312.243-.704.35-1.102.309l-10.282-1.217-7.963 6.696c-.268.229-.61.354-.964.354z"/></svg>