<?xml version="1.0" encoding="utf-8"?>
<!-- Generator: Adobe Illustrator 21.0.0, SVG Export Plug-In . SVG Version: 6.00 Build 0)  -->
<svg version="1.1" id="Layer_1" xmlns="http://www.w3.org/2000/svg" xmlns:xlink="http://www.w3.org/1999/xlink" x="0px" y="0px"
	 viewBox="0 0 56 56" style="enable-background:new 0 0 56 56;" xml:space="preserve">
<style type="text/css">
	.st0{fill-rule:evenodd;clip-rule:evenodd;fill:#8DC63F;}
	.st1{clip-path:url(#SVGID_2_);}
	.st2{clip-path:url(#SVGID_4_);}
	.st3{fill:#ADDE6A;}
	.st4{fill:#FFFFFF;}
</style>
<g>
	<path class="st0" d="M28,4C14.7,4,4,14.7,4,28s10.7,24,24,24s24-10.7,24-24S41.3,4,28,4"/>
</g>
<g>
	<defs>
		<circle id="SVGID_1_" cx="28" cy="28" r="21"/>
	</defs>
	<clipPath id="SVGID_2_">
		<use xlink:href="#SVGID_1_"  style="overflow:visible;"/>
	</clipPath>
	<g class="st1">
		<defs>
			<rect id="SVGID_3_" x="-758" y="-2976" width="1440" height="4490"/>
		</defs>
		<clipPath id="SVGID_4_">
			<use xlink:href="#SVGID_3_"  style="overflow:visible;"/>
		</clipPath>
		<g class="st2">
			<path class="st3" d="M28,51C15.3,51,5,40.7,5,28C5,15.3,15.3,5,28,5c12.7,0,23,10.3,23,23C51,40.7,40.7,51,28,51z M28,9
				C17.5,9,9,17.5,9,28s8.5,19,19,19s19-8.5,19-19S38.5,9,28,9z"/>
		</g>
	</g>
</g>
<g>
	<g>
		<path class="st4" d="M19,34c-3.1,0-6-2.9-6-6c0-3.1,2.9-6,6-6l7,0c3.1,0,6,2.9,6,6c0,0.6-0.4,1-1,1s-1-0.4-1-1c0-2-2-4-4-4l-7,0
			c-2,0-4,2-4,4c0,2,2,4,4,4l2,0c0,0,0,0,0,0c0.6,0,1,0.4,1,1c0,0.6-0.4,1-1,1L19,34z"/>
	</g>
	<g>
		<path class="st4" d="M37,34.1l-7,0c-3.1,0-6-2.9-6-6c0-0.6,0.4-1,1-1s1,0.4,1,1c0,2,2,4,4,4l7,0c2,0,4-2,4-4c0-2-2-4-4-4l-2,0
			c0,0,0,0,0,0c-0.6,0-1-0.4-1-1s0.4-1,1-1l2,0c3.1,0,6,2.9,6,6C43,31.1,40.1,34.1,37,34.1z"/>
	</g>
</g>
</svg>
