<?xml version="1.0" encoding="utf-8"?>
<!-- Generator: Adobe Illustrator 19.2.0, SVG Export Plug-In . SVG Version: 6.00 Build 0)  -->
<svg version="1.1" id="Layer_1" xmlns="http://www.w3.org/2000/svg" xmlns:xlink="http://www.w3.org/1999/xlink" x="0px" y="0px"
	 viewBox="0 0 156 120" style="enable-background:new 0 0 156 120;" xml:space="preserve">
<style type="text/css">
	.st0{fill:#8DC63F;}
	.st1{fill:#3D4351;}
	.st2{opacity:0.5;}
	.st3{opacity:0.1;fill:#3D4351;}
</style>
<path class="st0" d="M72.5,92.7c-0.2,0-0.3-0.1-0.4-0.1l-37.3,6.6l0,0l0,0c-0.1,0-0.3,0-0.4,0c-0.9,0-1.7-0.7-1.9-1.8L19.5,25.6
	c-0.2-1,0.4-1.9,1.3-2.3l0.6-0.2l47-8.3c0.1,0,0.3,0,0.4,0c1.2,0,2.3,0.9,2.5,2l5.3,28.8l1-5.6l-4.4-23.5c-0.4-2.1-2.4-3.7-4.5-3.7
	c-0.3,0-0.5,0-0.8,0.1l-47.1,8.3l-0.8,0.3c-1.8,0.7-2.9,2.5-2.6,4.5l12.8,72c0.4,2,2.1,3.4,3.9,3.4c0.3,0,0.5,0,0.8-0.1l42.6-7.5
	L72.5,92.7z"/>
<path class="st1" d="M86.5,14.7l46.9,8.4c0.6,0.1,1.2,0.5,1.6,1c0.4,0.6,0.6,1.2,0.5,1.9l-12.2,72.1c-0.1,0.7-1.2,1.2-2.1,1.2H121
	l-48.1-8.6l0,0l0,0c-1.1-0.1-1.7-1.2-1.6-2.4l12.7-71.9c0.2-1,1-1.7,2-1.7H86.5 M86.7,12.7h-0.8c-1.9,0-3.6,1.3-4,3.3L69.2,88
	c-0.3,2.3,1.1,4.4,3.3,4.7l48.3,8.6h0.4c1.8,0,3.8-1,4.1-2.9l12.2-72.1c0.4-2.4-1.3-4.8-3.7-5.2L86.7,12.7L86.7,12.7z"/>
<g>
	<path class="st0" d="M34.3,63.9c0.7-0.1,1.4,0.3,1.5,1.1c0.1,0.7-0.3,1.4-1.1,1.5c-0.7,0.1-1.4-0.3-1.5-1.1
		C33.1,64.7,33.6,64,34.3,63.9z"/>
	<path class="st0" d="M41.7,51.3c1.9-0.3,3.4,0,4.8,0.9c0.2,0.1,0.2,0.3,0.1,0.5l-0.7,1c-0.1,0.2-0.3,0.2-0.5,0.1
		c-1-0.6-2.3-0.9-3.5-0.7c-2.7,0.5-4.3,3.1-3.8,5.7s2.9,4.5,5.6,4c1.4-0.2,2.2-1,3-1.8c0.1-0.2,0.3-0.2,0.4-0.1l1,0.7
		c0.2,0.1,0.2,0.4,0.1,0.5c-1,1.5-2.5,2.3-4.2,2.6c-3.7,0.7-7.3-1.7-8-5.5C35.5,55.6,38,52,41.7,51.3z"/>
	<path class="st0" d="M50.1,61.5c0.1-0.3,0.2-0.6,0.3-0.9c0.1-0.3,0.4-0.4,0.6-0.3c0.1,0.1,1.8,1,3.2,0.7c1.3-0.2,2-1.2,1.8-2.1
		c-0.2-1.1-1.3-1.7-3.3-2.1c-2.1-0.5-3.7-1.2-4.1-3.3c-0.3-1.5,0.5-3.7,3.5-4.2c1.9-0.3,3.4,0.4,3.7,0.5c0.2,0.1,0.4,0.3,0.2,0.6
		c-0.1,0.3-0.2,0.5-0.3,0.8s-0.3,0.4-0.6,0.3c-0.1-0.1-1.6-0.7-2.7-0.5c-1.6,0.3-1.9,1.4-1.8,2.1c0.2,1.1,1.1,1.6,2.8,1.9
		c2.3,0.5,4.4,1.2,4.8,3.4c0.4,1.9-1.1,3.8-3.5,4.3c-2.3,0.4-3.9-0.5-4.3-0.7C50.2,62,50,61.9,50.1,61.5z"/>
	<path class="st0" d="M57.3,49.1c-0.2-0.2-0.1-0.5,0.2-0.5l1.3-0.2c0.1,0,0.3,0.1,0.4,0.1L65,57h0.1l2.4-10c0-0.1,0.1-0.2,0.3-0.3
		l1.3-0.2c0.3-0.1,0.5,0.2,0.4,0.4l-3.4,13.6c0,0.1-0.1,0.2-0.3,0.3h-0.2c-0.1,0-0.3,0-0.4-0.1L57.3,49.1z"/>
</g>
<g>
	<path class="st1" d="M85.8,54.1c0.5,0.1,0.9,0.6,0.8,1.2c-0.1,0.5-0.6,0.9-1.2,0.8c-0.5-0.1-0.9-0.6-0.8-1.1
		C84.8,54.3,85.3,54,85.8,54.1z"/>
	<path class="st1" d="M87.1,54.9l0.6-0.5c0.2-0.1,0.3-0.1,0.4,0.1c0.2,0.3,0.5,0.7,1,0.8c0.7,0.1,1.5-0.3,1.7-1.5l1.2-6.6
		c0-0.1,0.2-0.2,0.3-0.2l0.9,0.2c0.2,0,0.2,0.2,0.2,0.3l-1.2,6.6c-0.3,1.9-1.8,2.9-3.4,2.6c-1.2-0.2-1.8-1.1-1.9-1.4
		C87,55.1,87,55,87.1,54.9z"/>
	<path class="st1" d="M93.9,55.9c0.2-0.2,0.3-0.4,0.5-0.5c0.2-0.2,0.4-0.2,0.5,0c0.1,0.1,1,1.2,2.1,1.4c1,0.2,1.7-0.3,1.8-1
		c0.1-0.8-0.5-1.5-1.8-2.3c-1.3-0.9-2.3-1.8-2-3.4c0.2-1.1,1.3-2.4,3.5-2c1.4,0.2,2.3,1.2,2.4,1.3s0.2,0.3,0,0.5
		c-0.1,0.1-0.3,0.3-0.4,0.5s-0.3,0.2-0.5,0.1c-0.1-0.1-1-0.9-1.8-1c-1.2-0.2-1.7,0.5-1.8,1c-0.1,0.8,0.4,1.4,1.5,2.1
		c1.5,0.9,2.8,2,2.5,3.7c-0.3,1.5-1.8,2.4-3.6,2.1c-1.7-0.3-2.6-1.4-2.8-1.6C93.8,56.2,93.7,56.1,93.9,55.9z"/>
	<path class="st1" d="M107.9,49.6c2.8,0.5,4.6,3.2,4.1,6s-3.1,4.6-5.9,4.1s-4.6-3.1-4.1-5.9C102.4,50.9,105.1,49.1,107.9,49.6z
		 M106.3,58.3c2,0.4,3.9-1,4.3-3s-1-4-3-4.3c-2-0.4-3.9,1-4.3,3C103,56,104.3,57.9,106.3,58.3z"/>
	<path class="st1" d="M114.9,51.1c0-0.1,0.2-0.2,0.3-0.2l0.4,0.1l4.8,8.1l0,0l1.2-6.6c0-0.1,0.2-0.2,0.3-0.2l0.9,0.2
		c0.1,0,0.2,0.2,0.2,0.3l-1.7,9.4c0,0.1-0.2,0.2-0.3,0.2l-0.4-0.1l-4.8-8.3l0,0l-1.2,6.8c0,0.1-0.2,0.2-0.3,0.2l-0.9-0.2
		c-0.1,0-0.2-0.2-0.2-0.3L114.9,51.1z"/>
</g>
<g class="st2">
	<path class="st1" d="M84.6,61.9L84.6,61.9l-0.2-0.3c-0.3-0.5-0.5-1-0.4-1.6c0.1-0.8,0.9-1.5,2.1-1.3c1.1,0.2,1.7,1,1.5,1.9
		c-0.2,1-1.2,1.4-1.7,1.6l1.2,1.7c0.3-0.4,0.5-0.9,0.6-1.4c0.1-0.2,0.1-0.3,0.3-0.2l0.4,0.2c0.2,0.1,0.1,0.3,0.1,0.3
		c-0.2,0.7-0.6,1.4-1,1.8l0.8,1.1c0.1,0.1,0.2,0.3-0.1,0.5L88,66.4c-0.1,0.1-0.3,0.1-0.4-0.1l-0.6-0.9c-0.4,0.3-1.2,0.7-2.3,0.5
		c-1.3-0.2-1.9-1.2-1.7-2.2C83.1,62.5,84.2,62.1,84.6,61.9z M84.8,65.1c0.7,0.1,1.3-0.2,1.6-0.5l-1.4-2.1c-0.3,0.1-1.1,0.4-1.2,1.2
		C83.7,64.4,84.1,65,84.8,65.1z M86.7,60.6c0.1-0.4-0.2-0.9-0.8-1c-0.6-0.1-1,0.2-1,0.7c-0.1,0.4,0.1,0.7,0.4,1.1l0.2,0.3
		C85.8,61.5,86.6,61.2,86.7,60.6z"/>
	<path class="st1" d="M93.7,60.3c0-0.1,0.1-0.1,0.2-0.1l0.2,0c0.1,0,0.1,0.1,0.2,0.1l1.2,5.5l0,0l3-4.7c0-0.1,0.1-0.1,0.2-0.1l0.2,0
		c0.1,0,0.1,0.1,0.2,0.2l0,6.9c0,0.1-0.1,0.2-0.2,0.2l-0.7-0.1c-0.1,0-0.2-0.1-0.2-0.2l0.1-4.6c0,0,0,0,0,0l-2.6,4.3
		c0,0.1-0.1,0.1-0.2,0.1l-0.2,0c-0.1,0-0.1-0.1-0.2-0.1l-1-4.9c0,0,0,0,0,0l-1.5,4.3c0,0.1-0.1,0.1-0.2,0.1L91.4,67
		c-0.1,0-0.2-0.1-0.1-0.3L93.7,60.3z"/>
	<path class="st1" d="M104.8,62.1c2,0.4,3.3,2.3,3,4.3c-0.4,2-2.2,3.3-4.2,2.9c-2-0.4-3.3-2.2-2.9-4.2
		C100.9,63.1,102.8,61.7,104.8,62.1z M103.7,68.3c1.4,0.3,2.8-0.7,3.1-2.1c0.3-1.4-0.7-2.8-2.1-3.1c-1.4-0.3-2.8,0.7-3.1,2.1
		C101.3,66.7,102.3,68.1,103.7,68.3z"/>
	<path class="st1" d="M109.8,63.3c0-0.1,0.1-0.2,0.2-0.2l2.7,0.5c1.2,0.2,2,1.3,1.8,2.5c-0.2,0.9-0.9,1.6-1.8,1.8l0.9,2.8
		c0,0.1-0.1,0.3-0.2,0.3l-0.8-0.1c-0.1,0-0.1-0.1-0.1-0.1l-0.9-2.9l-1.5-0.3l-0.5,2.6c0,0.1-0.1,0.2-0.2,0.2l-0.7-0.1
		c-0.1,0-0.2-0.1-0.2-0.2L109.8,63.3z M112,67c0.7,0.1,1.3-0.3,1.4-1c0.1-0.7-0.4-1.3-1-1.4l-1.8-0.3l-0.4,2.4L112,67z"/>
	<path class="st1" d="M116.4,64.5c0-0.1,0.1-0.2,0.2-0.2l4,0.7c0.1,0,0.2,0.1,0.2,0.2l-0.1,0.6c0,0.1-0.1,0.2-0.2,0.2l-3.2-0.6
		l-0.4,2l2.7,0.5c0.1,0,0.2,0.1,0.2,0.2l-0.1,0.6c0,0.1-0.1,0.2-0.2,0.2l-2.7-0.5l-0.4,2.2l3.2,0.6c0.1,0,0.2,0.1,0.2,0.2l-0.1,0.6
		c0,0.1-0.1,0.2-0.2,0.2l-4-0.7c-0.1,0-0.2-0.1-0.2-0.2L116.4,64.5z"/>
</g>
<ellipse class="st3" cx="78" cy="108.4" rx="24" ry="1.4"/>
</svg>
