<?xml version="1.0" encoding="utf-8"?>
<!-- Generator: Adobe Illustrator 19.2.0, SVG Export Plug-In . SVG Version: 6.00 Build 0)  -->
<svg version="1.1" id="Layer_1" xmlns="http://www.w3.org/2000/svg" xmlns:xlink="http://www.w3.org/1999/xlink" x="0px" y="0px"
	 viewBox="0 0 510 396" style="enable-background:new 0 0 510 396;" xml:space="preserve">
<style type="text/css">
	.st0{opacity:0.1;fill:#1F2022;}
	.st1{fill:#1F2022;}
	.st2{fill:#101214;}
	.st3{fill:none;stroke:#1F2022;stroke-width:3;stroke-miterlimit:10;}
	.st4{fill:#8BC541;}
	.st5{fill:#2A2A2A;}
	.st6{fill:#303030;}
	.st7{fill:#272727;}
	.st8{opacity:0.15;fill:#FFFFFF;enable-background:new    ;}
	.st9{fill:#FFFFFF;}
	.st10{fill:none;stroke:#43A4CF;stroke-linecap:round;stroke-miterlimit:10;}
	.st11{fill:#E15353;}
	.st12{opacity:0.4;fill:none;stroke:#FFFFFF;stroke-miterlimit:10;enable-background:new    ;}
	.st13{opacity:0.3;fill:none;stroke:#FFFFFF;stroke-miterlimit:10;enable-background:new    ;}
	.st14{opacity:0.2;fill:none;stroke:#FFFFFF;stroke-miterlimit:10;enable-background:new    ;}
	.st15{fill:#8A8D91;}
	.st16{fill:#373A3B;}
	.st17{fill:#8DC63F;stroke:#8DC63F;stroke-width:0.5;stroke-miterlimit:10;}
	.st18{opacity:0.25;}
	.st19{clip-path:url(#SVGID_2_);}
	.st20{fill:#5EB605;}
	.st21{opacity:0.5;}
	.st22{opacity:0.5;fill:#FFFFFF;enable-background:new    ;}
	.st23{fill:#4D5457;}
	.st24{fill:#5A6266;}
	.st25{fill:#3F4448;}
	.st26{opacity:0.1;fill:#FFFFFF;enable-background:new    ;}
	.st27{fill:#E69448;}
	.st28{fill:#A4C86C;}
	.st29{fill:#007EAF;}
	.st30{fill:#0293BF;}
	.st31{fill:#00A7CE;}
</style>
<g>
	<g>
		<path class="st0" d="M508.1,142.2c-0.1,0-0.2,0-0.4,0V118c0-8.7-5.7-15-15-15h-18.6V8.7c0-2.2-1.8-4-4-4H4.5c-2.2,0-4,1.8-4,4v298
			c0,2.2,1.8,4,4,4h416.1h49.5h22.6c9.2,0,15-6.2,15-15V155.5h0.4c0.1,0,0.3-0.1,0.3-0.3s0-12.5,0-12.7
			C508.4,142.4,508.3,142.2,508.1,142.2z"/>
		<path class="st1" d="M470,306H4c-2.2,0-4-1.8-4-4V4c0-2.2,1.8-4,4-4h466c2.2,0,4,1.8,4,4v298C474,304.2,472.2,306,470,306z"/>
		<path class="st2" d="M454.8,284.4h-435c-1.1,0-2-0.9-2-2v-260c0-1.1,0.9-2,2-2h435c1.1,0,2,0.9,2,2v260
			C456.8,283.5,455.9,284.4,454.8,284.4z"/>
		<path class="st3" d="M221,305v71c0,3.3-2.7,6-6,6h-36c-3.3,0-6,2.7-6,6v8"/>
		<line class="st3" x1="237" y1="305" x2="237" y2="396"/>
		<path class="st3" d="M252.5,305v35.5c0,3.3,2.7,6,6,6h36c3.3,0,6,2.7,6,6V396"/>
		<g>
			<path class="st4" d="M452.2,291.6c1.9,0,3.5,1.6,3.5,3.5s-1.6,3.5-3.5,3.5s-3.5-1.6-3.5-3.5S450.3,291.6,452.2,291.6
				 M452.2,290.6c-2.5,0-4.5,2-4.5,4.5s2,4.5,4.5,4.5s4.5-2,4.5-4.5S454.7,290.6,452.2,290.6L452.2,290.6z"/>
		</g>
	</g>
	<g>
		<g>
			<g>
				<path class="st5" d="M23.2,193.9c-0.8,0-1.5-0.7-1.5-1.5V25.3c0-0.8,0.7-1.5,1.5-1.5h167c0.8,0,1.5,0.7,1.5,1.5v167.1
					c0,0.8-0.7,1.5-1.5,1.5L23.2,193.9L23.2,193.9z"/>
				<path class="st6" d="M190.2,24.3c0.6,0,1,0.4,1,1v167.1c0,0.6-0.4,1-1,1h-167c-0.6,0-1-0.4-1-1V25.3c0-0.6,0.4-1,1-1H190.2
					 M190.2,23.3h-167c-1.1,0-2,0.9-2,2v167.1c0,1.1,0.9,2,2,2h167c1.1,0,2-0.9,2-2V25.3C192.2,24.2,191.3,23.3,190.2,23.3
					L190.2,23.3z"/>
			</g>
			<path class="st7" d="M191.2,38.3h-168v-12c0-1.1,0.9-2,2-2h164c1.1,0,2,0.9,2,2V38.3z"/>
			<path class="st8" d="M83.5,32.3h-54c-0.6,0-1-0.4-1-1l0,0c0-0.6,0.4-1,1-1h54c0.6,0,1,0.4,1,1l0,0C84.5,31.8,84.1,32.3,83.5,32.3
				z"/>
			<g>
				<path class="st9" d="M38.7,59.2l-3.5,1.7c-0.4,0.2-0.8,0.1-1-0.3L33.7,59c-0.1-0.4,0-0.7,0.1-0.9l6.3-5.7h2.2
					c0.4,0,0.8,0.4,0.8,0.8v28.3c0,0.4-0.4,0.8-0.8,0.8h-2.7c-0.5,0-0.8-0.4-0.8-0.8L38.7,59.2L38.7,59.2z"/>
				<path class="st9" d="M52.6,76.7c1.6,0,3.7,1.1,3.7,4.9c0,4.5-2.8,7.7-4.4,8.8c-0.4,0.4-0.7,0.4-1.1,0l-0.7-0.7
					c-0.3-0.3-0.2-0.7,0.2-1.1c0.5-0.4,3.1-2.6,3.1-6c-0.1,0-0.5,0.2-1.1,0.2c-1.6,0-3-1.4-3-3C49.4,78.1,50.8,76.7,52.6,76.7z"/>
				<path class="st9" d="M61.3,81.1l11.9-24.8h-13c-0.4,0-0.8-0.4-0.8-0.8v-2.2c0-0.4,0.4-0.8,0.8-0.8h18c0.4,0,0.8,0.4,0.8,0.8v0.3
					L66,81.2c-0.4,0.9-0.6,1.2-1.7,1.2h-2c-0.6,0-1-0.4-1-0.8C61.3,81.6,61.3,81.1,61.3,81.1z"/>
				<path class="st9" d="M85.3,79.5c2-0.7,9.1-4.3,10.5-9.7c-0.4,0.2-3,1.6-5.9,1.6c-4.7,0-9.3-3.5-9.3-9.6c0-5.6,4.5-10.1,9.9-10.1
					c7,0,10.4,5.6,10.4,12.4c0,12.3-10.5,17.5-14.6,19c-0.5,0.2-0.9,0-1.1-0.5l-0.7-1.8C84.2,80.3,84.4,79.8,85.3,79.5z M96.6,64.5
					c0.4-3.7-1.3-8.8-6.1-8.8c-3.2,0-5.8,2.8-5.8,6.1c0,3.4,2.6,6,5.9,6C94.1,67.8,96.4,65.3,96.6,64.5z"/>
				<path class="st9" d="M109.1,79.5c2-0.7,9.1-4.3,10.5-9.7c-0.4,0.2-3,1.6-5.9,1.6c-4.7,0-9.3-3.5-9.3-9.6
					c0-5.6,4.5-10.1,9.9-10.1c7,0,10.4,5.6,10.4,12.4c0,12.3-10.5,17.5-14.6,19c-0.5,0.2-0.9,0-1.1-0.5l-0.7-1.8
					C108.1,80.3,108.2,79.8,109.1,79.5z M120.4,64.5c0.4-3.7-1.3-8.8-6.1-8.8c-3.2,0-5.8,2.8-5.8,6.1c0,3.4,2.6,6,5.9,6
					C117.9,67.8,120.2,65.3,120.4,64.5z"/>
			</g>
			<polyline class="st10" points="32.3,103.1 48.3,161.3 54.3,151.2 58.7,130.6 64,124 70,124 75.7,131.8 86,165.7 96.7,132.6 
				101.7,118.3 107.3,121.6 112,119.5 117.7,130.8 123,146 129,130.8 133,111.8 139.7,109.8 144.3,110.3 150,118.2 153.7,129.3 
				159.7,143 170.3,98.8 			"/>
		</g>
		<g>
			<g>
				<path class="st5" d="M197.2,106.8c-0.8,0-1.5-0.7-1.5-1.5v-80c0-0.8,0.7-1.5,1.5-1.5h80c0.8,0,1.5,0.7,1.5,1.5v80
					c0,0.8-0.7,1.5-1.5,1.5H197.2z"/>
				<path class="st6" d="M277.2,24.3c0.6,0,1,0.4,1,1v80c0,0.6-0.4,1-1,1h-80c-0.6,0-1-0.4-1-1v-80c0-0.6,0.4-1,1-1L277.2,24.3
					 M277.2,23.3h-80c-1.1,0-2,0.9-2,2v80c0,1.1,0.9,2,2,2h80c1.1,0,2-0.9,2-2v-80C279.2,24.2,278.3,23.3,277.2,23.3L277.2,23.3z"/>
			</g>
			<path class="st7" d="M278.2,38.3h-82v-12c0-1.1,0.9-2,2-2h78c1.1,0,2,0.9,2,2V38.3z"/>
			<path class="st8" d="M228.2,32.3h-26.5c-0.6,0-1-0.4-1-1l0,0c0-0.6,0.4-1,1-1h26.5c0.6,0,1,0.4,1,1l0,0
				C229.2,31.8,228.7,32.3,228.2,32.3z"/>
			<g>
				<path class="st9" d="M207.7,51.8l-1.8,0.9c-0.2,0.1-0.4,0-0.5-0.2l-0.3-0.8c-0.1-0.2,0-0.4,0.1-0.5l3.2-2.9h1.1
					c0.2,0,0.4,0.2,0.4,0.4v14.7c0,0.2-0.2,0.4-0.4,0.4h-1.4c-0.3,0-0.4-0.2-0.4-0.4L207.7,51.8L207.7,51.8z"/>
				<path class="st9" d="M213.2,61.5l0.9-0.8c0.2-0.2,0.4-0.2,0.6,0c0.1,0.2,1.4,1.4,3.1,1.4c1.5,0,2.9-0.9,2.9-2.5
					c0-1.4-1.2-2.7-3.6-2.7h-1.3c-0.3,0-0.4-0.2-0.4-0.5v-1c0-0.3,0.1-0.5,0.5-0.5h1.3c2.1,0,3.2-1.1,3.2-2.4c0-1.5-1.3-2.5-2.6-2.5
					c-1.4,0-2.2,0.8-2.7,1.3c-0.1,0.2-0.4,0.2-0.6,0l-0.8-0.8c-0.2-0.2-0.2-0.4,0-0.6c0,0,1.7-2,4.2-2c2.7,0,4.8,1.6,4.8,4.2
					c0,1.8-1.3,3.1-2.4,3.6v0.1c1.1,0.5,2.8,1.8,2.8,3.8c0,2.5-2,4.4-5.2,4.4c-2.8,0-4.2-1.4-4.7-2C213,61.8,213,61.6,213.2,61.5z"
					/>
				<path class="st9" d="M225.9,56c0-5,2.1-8,5.7-8c3.6,0,5.6,3,5.6,8s-2.1,8-5.6,8C227.9,64,225.9,61,225.9,56z M234.9,56
					c0-3.7-1.2-5.9-3.3-5.9s-3.4,2.1-3.4,5.9c0,3.8,1.2,5.9,3.4,5.9C233.7,62,234.9,59.8,234.9,56z"/>
			</g>
			<path class="st4" d="M214.3,85.2h-7.8c-0.5,0-0.8-0.5-0.6-0.9l3.9-7.8c0.2-0.5,0.9-0.5,1.1,0l3.9,7.8
				C215,84.7,214.7,85.2,214.3,85.2z"/>
			<g>
				<path class="st4" d="M221,77.7l-1.1,0.5c-0.1,0.1-0.3,0-0.3-0.1l-0.2-0.5c0-0.1,0-0.2,0-0.3l2-1.8h0.7c0.1,0,0.3,0.1,0.3,0.3V85
					c0,0.1-0.1,0.3-0.3,0.3h-0.9c-0.2,0-0.3-0.1-0.3-0.3v-7.3H221z"/>
				<path class="st4" d="M224.3,84.6c1.1-1.2,2.5-3,3.6-4.3c0.7-0.8,1.1-1.5,1.1-2.1c0-0.7-0.5-1.6-1.8-1.6c-0.8,0-1.4,0.5-1.8,1
					c-0.1,0.1-0.3,0.1-0.4,0l-0.5-0.5c-0.1-0.1-0.1-0.3,0-0.4c0,0,1.1-1.4,2.8-1.4c2,0,3.1,1.3,3.1,2.8c0,1.1-0.6,1.9-1.4,2.8
					c-0.8,0.9-1.8,2.1-2.6,3h3.6c0.1,0,0.3,0.1,0.3,0.3V85c0,0.1-0.1,0.3-0.3,0.3h-5.5c-0.2,0-0.3-0.1-0.3-0.3L224.3,84.6
					L224.3,84.6z"/>
				<path class="st4" d="M232.9,83.4c0.6,0,1,0.4,1,1c0,0.5-0.4,1-1,1c-0.5,0-1-0.4-1-1C231.9,83.9,232.3,83.4,232.9,83.4z"/>
				<path class="st4" d="M235.2,82c0-2.1,0.9-3.3,2.4-3.3s2.4,1.2,2.4,3.3s-0.9,3.3-2.4,3.3C236,85.4,235.2,84.1,235.2,82z
					 M238.9,82c0-1.6-0.5-2.5-1.4-2.5s-1.4,0.9-1.4,2.5s0.5,2.5,1.4,2.5S238.9,83.6,238.9,82z"/>
				<path class="st4" d="M241.1,85l2.6-5.4h-2.8c-0.1,0-0.2-0.1-0.2-0.2V79c0-0.1,0.1-0.2,0.2-0.2h3.9c0.1,0,0.2,0.1,0.2,0.2l0,0
					l-2.8,6c-0.1,0.2-0.1,0.3-0.4,0.3h-0.4c-0.1,0-0.2-0.1-0.2-0.2V85H241.1z"/>
				<path class="st4" d="M245.3,79.8c0-0.7,0.6-1.3,1.3-1.3s1.3,0.6,1.3,1.3s-0.6,1.3-1.3,1.3C245.8,81.1,245.3,80.5,245.3,79.8z
					 M247.1,79.8c0-0.3-0.3-0.6-0.6-0.6s-0.6,0.3-0.6,0.6c0,0.3,0.3,0.6,0.6,0.6C246.9,80.4,247.1,80.1,247.1,79.8z M249.4,78.7
					c0-0.1,0.1-0.1,0.2-0.1h0.3c0.1,0,0.2,0.1,0.2,0.3l-3.3,6.3c0,0-0.1,0.1-0.2,0.1h-0.3c-0.1,0-0.2-0.1-0.2-0.3L249.4,78.7z
					 M249.6,82.8c0.7,0,1.3,0.6,1.3,1.3s-0.6,1.3-1.3,1.3s-1.3-0.6-1.3-1.3S248.9,82.8,249.6,82.8z M249.6,84.7
					c0.3,0,0.6-0.3,0.6-0.6c0-0.3-0.3-0.6-0.6-0.6s-0.6,0.3-0.6,0.6C249,84.4,249.3,84.7,249.6,84.7z"/>
			</g>
		</g>
		<g>
			<g>
				<path class="st5" d="M284.2,106.8c-0.8,0-1.5-0.7-1.5-1.5v-80c0-0.8,0.7-1.5,1.5-1.5h80c0.8,0,1.5,0.7,1.5,1.5v80
					c0,0.8-0.7,1.5-1.5,1.5H284.2z"/>
				<path class="st6" d="M364.2,24.3c0.6,0,1,0.4,1,1v80c0,0.6-0.4,1-1,1h-80c-0.6,0-1-0.4-1-1v-80c0-0.6,0.4-1,1-1L364.2,24.3
					 M364.2,23.3h-80c-1.1,0-2,0.9-2,2v80c0,1.1,0.9,2,2,2h80c1.1,0,2-0.9,2-2v-80C366.2,24.2,365.3,23.3,364.2,23.3L364.2,23.3z"/>
			</g>
			<path class="st7" d="M365.2,38.3h-82v-12c0-1.1,0.9-2,2-2h78c1.1,0,2,0.9,2,2V38.3z"/>
			<path class="st8" d="M315.2,32.3h-26.5c-0.6,0-1-0.4-1-1l0,0c0-0.6,0.4-1,1-1h26.5c0.6,0,1,0.4,1,1l0,0
				C316.2,31.8,315.7,32.3,315.2,32.3z"/>
			<g>
				<path class="st9" d="M294.6,51.8l-1.8,0.9c-0.2,0.1-0.4,0-0.5-0.2l-0.3-0.8c-0.1-0.2,0-0.4,0.1-0.5l3.2-3h1.1
					c0.2,0,0.4,0.2,0.4,0.4v14.7c0,0.2-0.2,0.4-0.4,0.4H295c-0.3,0-0.4-0.2-0.4-0.4V51.8z"/>
				<path class="st9" d="M301.8,60.9c0.8,0,1.9,0.6,1.9,2.5c0,2.4-1.5,4-2.3,4.6c-0.2,0.2-0.4,0.2-0.5,0l-0.3-0.3
					c-0.1-0.1-0.1-0.4,0.1-0.6c0.3-0.2,1.6-1.3,1.6-3.1c0,0-0.3,0.1-0.6,0.1c-0.8,0-1.6-0.7-1.6-1.6
					C300.1,61.6,300.9,60.9,301.8,60.9z"/>
				<path class="st9" d="M305.8,56c0-5,2.1-8,5.7-8s5.7,3,5.7,8s-2.1,8-5.7,8C307.9,64.1,305.8,61.1,305.8,56z M314.8,56
					c0-3.8-1.2-5.9-3.3-5.9c-2.2,0-3.4,2.2-3.4,5.9c0,3.8,1.2,5.9,3.4,5.9C313.6,62,314.8,59.9,314.8,56z"/>
				<path class="st9" d="M322.1,51.8l-1.8,0.9c-0.2,0.1-0.4,0-0.5-0.2l-0.3-0.8c-0.1-0.2,0-0.4,0.1-0.5l3.2-3h1.1
					c0.2,0,0.4,0.2,0.4,0.4v14.7c0,0.2-0.2,0.4-0.4,0.4h-1.4c-0.3,0-0.4-0.2-0.4-0.4L322.1,51.8L322.1,51.8z"/>
				<path class="st9" d="M327.4,62.8c1.7-1.9,4.1-4.8,5.8-6.8c1.1-1.3,1.7-2.4,1.7-3.3c0-1.2-0.8-2.5-2.8-2.5
					c-1.3,0-2.3,0.9-2.9,1.5c-0.2,0.2-0.4,0.2-0.6,0l-0.8-0.8c-0.1-0.1-0.2-0.4,0-0.6c0,0,1.7-2.2,4.4-2.2c3.3,0,5,2.1,5,4.5
					c0,1.8-1,3-2.2,4.5s-2.8,3.3-4.2,4.9h5.8c0.2,0,0.4,0.2,0.4,0.4v1.1c0,0.2-0.2,0.4-0.4,0.4h-8.9c-0.3,0-0.4-0.2-0.4-0.4v-0.7
					H327.4z"/>
			</g>
			<path class="st11" d="M293.5,76.2h7.8c0.5,0,0.8,0.5,0.6,0.9l-3.9,7.8c-0.2,0.5-0.9,0.5-1.1,0l-3.9-7.8
				C292.8,76.7,293.1,76.2,293.5,76.2z"/>
			<g>
				<path class="st11" d="M306.9,82.9V82l5.3-6.5l0.2-0.1h0.5c0.1,0,0.3,0.1,0.3,0.3V82h1.2c0.2,0,0.3,0.1,0.3,0.3v0.6
					c0,0.1-0.1,0.3-0.3,0.3h-1.2v1.9c0,0.1-0.1,0.3-0.3,0.3h-0.8c-0.1,0-0.3-0.1-0.3-0.3v-1.9h-4.6C307,83.2,306.9,83,306.9,82.9z
					 M311.8,82v-4.2l-3.4,4.2H311.8z"/>
				<path class="st11" d="M317.6,80.3L317.6,80.3c-0.6-0.4-1.5-1.1-1.5-2.3c0-1.6,1.3-2.6,3-2.6c1.8,0,3.1,1,3.1,2.6
					c0,1.1-0.9,1.9-1.5,2.2v0.1c0.7,0.3,1.7,1.2,1.7,2.4c0,1.6-1.3,2.7-3.3,2.7s-3.3-1.2-3.3-2.7C315.9,81.4,317.1,80.5,317.6,80.3z
					 M319.2,84.3c1,0,1.8-0.6,1.8-1.6c0-0.8-0.7-1.5-1.8-1.7c-1.2,0.2-1.8,1-1.8,1.7C317.4,83.7,318.2,84.3,319.2,84.3z M320.8,78.1
					c0-0.9-0.7-1.5-1.6-1.5s-1.6,0.6-1.6,1.5c0,0.8,0.5,1.4,1.6,1.5C320.3,79.5,320.8,78.9,320.8,78.1z"/>
				<path class="st11" d="M324.9,83.4c0.6,0,1,0.4,1,1c0,0.5-0.4,1-1,1c-0.5,0-1-0.4-1-1C323.9,83.9,324.3,83.4,324.9,83.4z"/>
				<path class="st11" d="M327.3,81.6c0-2.3,1-3.7,2.7-3.7s2.6,1.4,2.6,3.7c0,2.3-1,3.7-2.6,3.7C328.2,85.4,327.3,84,327.3,81.6z
					 M331.5,81.6c0-1.8-0.6-2.8-1.6-2.8s-1.6,1-1.6,2.8s0.6,2.8,1.6,2.8S331.5,83.4,331.5,81.6z"/>
				<path class="st11" d="M333.6,84.8c0.8-0.9,1.9-2.3,2.7-3.2c0.5-0.6,0.8-1.1,0.8-1.6s-0.4-1.2-1.3-1.2c-0.6,0-1.1,0.4-1.4,0.7
					c-0.1,0.1-0.2,0.1-0.3,0l-0.4-0.4c-0.1-0.1-0.1-0.2,0-0.3c0,0,0.8-1,2.1-1c1.5,0,2.3,1,2.3,2.1c0,0.8-0.4,1.4-1,2.1
					s-1.3,1.6-1.9,2.3h2.7c0.1,0,0.2,0.1,0.2,0.2V85c0,0.1-0.1,0.2-0.2,0.2h-4.1c-0.1,0-0.2-0.1-0.2-0.2L333.6,84.8L333.6,84.8z"/>
				<path class="st11" d="M339.1,79.1c0-0.8,0.6-1.4,1.4-1.4s1.4,0.6,1.4,1.4s-0.7,1.4-1.4,1.4C339.7,80.6,339.1,79.9,339.1,79.1z
					 M341.2,79.1c0-0.4-0.3-0.7-0.7-0.7c-0.4,0-0.7,0.3-0.7,0.7c0,0.4,0.3,0.7,0.7,0.7C340.9,79.8,341.2,79.5,341.2,79.1z
					 M343.7,77.9c0-0.1,0.1-0.1,0.2-0.1h0.4c0.2,0,0.3,0.1,0.2,0.3l-3.7,7.1c0,0-0.1,0.1-0.2,0.1h-0.3c-0.2,0-0.3-0.1-0.2-0.3
					L343.7,77.9z M344,82.5c0.8,0,1.4,0.6,1.4,1.4s-0.7,1.4-1.4,1.4c-0.8,0-1.4-0.6-1.4-1.4C342.5,83.1,343.2,82.5,344,82.5z
					 M344,84.6c0.4,0,0.7-0.3,0.7-0.7c0-0.4-0.3-0.7-0.7-0.7c-0.4,0-0.7,0.3-0.7,0.7C343.3,84.3,343.6,84.6,344,84.6z"/>
			</g>
		</g>
		<g>
			<g>
				<path class="st5" d="M371.2,106.8c-0.8,0-1.5-0.7-1.5-1.5v-80c0-0.8,0.7-1.5,1.5-1.5h80c0.8,0,1.5,0.7,1.5,1.5v80
					c0,0.8-0.7,1.5-1.5,1.5H371.2z"/>
				<path class="st6" d="M451.2,24.3c0.6,0,1,0.4,1,1v80c0,0.6-0.4,1-1,1h-80c-0.6,0-1-0.4-1-1v-80c0-0.6,0.4-1,1-1L451.2,24.3
					 M451.2,23.3h-80c-1.1,0-2,0.9-2,2v80c0,1.1,0.9,2,2,2h80c1.1,0,2-0.9,2-2v-80C453.2,24.2,452.3,23.3,451.2,23.3L451.2,23.3z"/>
			</g>
			<path class="st7" d="M452.2,64.5h-82V26.3c0-1.1,0.9-2,2-2h78c1.1,0,2,0.9,2,2V64.5z"/>
			<g>
				<path class="st9" d="M376.3,49.7l0.9-0.8c0.2-0.2,0.4-0.2,0.6,0c0.1,0.2,1.4,1.4,3,1.4c1.4,0,2.8-0.9,2.8-2.4
					c0-1.3-1.1-2.6-3.5-2.6h-1.2c-0.2,0-0.4-0.2-0.4-0.5v-1c0-0.3,0.1-0.5,0.4-0.5h1.2c2.1,0,3.1-1.1,3.1-2.4c0-1.5-1.2-2.4-2.5-2.4
					s-2.1,0.8-2.6,1.2c-0.1,0.2-0.4,0.2-0.6,0l-0.8-0.7c-0.2-0.2-0.2-0.4,0-0.6c0,0,1.7-2,4.1-2c2.6,0,4.7,1.6,4.7,4.1
					c0,1.7-1.3,3-2.3,3.5v0.1c1,0.4,2.7,1.8,2.7,3.7c0,2.4-2,4.3-5,4.3c-2.8,0-4.1-1.4-4.6-2C376.1,50.1,376.1,49.8,376.3,49.7z"/>
				<path class="st9" d="M389.6,49.1c0.9,0,1.6,0.7,1.6,1.6c0,0.8-0.7,1.5-1.6,1.5c-0.8,0-1.5-0.7-1.5-1.5
					C388.1,49.8,388.8,49.1,389.6,49.1z"/>
				<path class="st9" d="M394.9,40.3l-1.8,0.8c-0.2,0.1-0.4,0-0.5-0.2l-0.3-0.8c-0.1-0.2,0-0.4,0.1-0.4l3.2-2.9h1.1
					c0.2,0,0.4,0.2,0.4,0.4v14.3c0,0.2-0.2,0.4-0.4,0.4h-1.4c-0.2,0-0.4-0.2-0.4-0.4L394.9,40.3L394.9,40.3z"/>
				<path class="st9" d="M400.7,49.6c0.3-0.2,0.5-0.5,0.8-0.8c0.2-0.2,0.4-0.2,0.5,0c0.2,0.2,1.4,1.5,3.1,1.5c1.8,0,3-1.6,3-3.1
					c0-1.6-1-2.9-3.1-2.9h-3.4c-0.4,0-0.7-0.4-0.7-0.8v-6.2c0-0.2,0.2-0.4,0.4-0.4h6.9c0.2,0,0.4,0.2,0.4,0.4v1.1
					c0,0.2-0.2,0.4-0.4,0.4h-5.3v3.5h2.3c3.3,0,5.1,1.9,5.1,4.8c0,2.8-2.2,5.1-5.3,5.1c-2.4,0-3.8-1.2-4.3-1.9
					C400.4,50,400.4,49.9,400.7,49.6z"/>
				<path class="st9" d="M412.8,40.6c0-0.2,0.1-0.3,0.3-0.3h3.8c2.1,0,3.7,1.7,3.7,3.7c0,2.1-1.7,3.8-3.7,3.8h-2.4v3.9
					c0,0.2-0.1,0.3-0.3,0.3h-1.1c-0.2,0-0.3-0.1-0.3-0.3V40.6z M416.8,46.1c1.2,0,2.1-0.9,2.1-2.1c0-1.1-1-2-2.1-2h-2.3v4.1H416.8z"
					/>
				<path class="st9" d="M423.9,40.4c0-0.1,0.2-0.3,0.3-0.3h0.3c0.1,0,0.3,0.1,0.3,0.2l3.5,8.5h0.1l3.5-8.5c0-0.1,0.2-0.2,0.3-0.2
					h0.3c0.1,0,0.3,0.1,0.3,0.3l2.1,11.2c0.1,0.2-0.1,0.4-0.3,0.4h-1.1c-0.2,0-0.3-0.1-0.3-0.2l-1.2-7.5h-0.1l-3,7.7
					c0,0.1-0.1,0.2-0.3,0.2h-0.3c-0.1,0-0.3-0.1-0.3-0.2l-3-7.7h-0.1l-1.2,7.5c0,0.1-0.2,0.2-0.3,0.2h-1.1c-0.2,0-0.4-0.1-0.3-0.4
					L423.9,40.4z"/>
			</g>
			<path class="st8" d="M417.5,80.2h-40c-0.6,0-1-0.4-1-1l0,0c0-0.6,0.4-1,1-1h40c0.6,0,1,0.4,1,1l0,0
				C418.5,79.8,418.1,80.2,417.5,80.2z"/>
			<path class="st8" d="M402.2,88.5h-24.7c-0.6,0-1-0.4-1-1l0,0c0-0.6,0.4-1,1-1h24.7c0.6,0,1,0.4,1,1l0,0
				C403.2,88.1,402.8,88.5,402.2,88.5z"/>
		</g>
		<g>
			<g>
				<path class="st5" d="M197.2,193.9c-0.8,0-1.5-0.7-1.5-1.5v-80c0-0.8,0.7-1.5,1.5-1.5h167c0.8,0,1.5,0.7,1.5,1.5v80
					c0,0.8-0.7,1.5-1.5,1.5H197.2z"/>
				<path class="st6" d="M364.2,111.4c0.6,0,1,0.4,1,1v80c0,0.6-0.4,1-1,1h-167c-0.6,0-1-0.4-1-1v-80c0-0.6,0.4-1,1-1L364.2,111.4
					 M364.2,110.4h-167c-1.1,0-2,0.9-2,2v80c0,1.1,0.9,2,2,2h167c1.1,0,2-0.9,2-2v-80C366.2,111.3,365.3,110.4,364.2,110.4
					L364.2,110.4z"/>
			</g>
			<path class="st7" d="M365.2,125.4h-169v-12c0-1.1,0.9-2,2-2h165c1.1,0,2,0.9,2,2V125.4z"/>
			<path class="st8" d="M261,119.4h-59.3c-0.6,0-1-0.4-1-1l0,0c0-0.6,0.4-1,1-1H261c0.6,0,1,0.4,1,1l0,0
				C262,118.9,261.6,119.4,261,119.4z"/>
			<g>
				<line class="st12" x1="216.5" y1="139.8" x2="353.4" y2="139.8"/>
				<line class="st13" x1="216.5" y1="159.3" x2="353.4" y2="159.3"/>
				<line class="st14" x1="216.5" y1="178.8" x2="353.4" y2="178.8"/>
				<path class="st8" d="M207.1,178.8L207.1,178.8c-0.6,0-1-0.4-1-1v-37c0-0.6,0.4-1,1-1l0,0c0.6,0,1,0.4,1,1v37
					C208.1,178.4,207.7,178.8,207.1,178.8z"/>
				<rect x="332.8" y="177" class="st9" width="20.5" height="1.8"/>
				<rect x="309.5" y="168" class="st9" width="20.5" height="10.8"/>
				<rect x="286.2" y="176" class="st9" width="20.5" height="2.8"/>
				<rect x="263" y="148.4" class="st9" width="20.5" height="30.5"/>
				<rect x="239.7" y="165.7" class="st9" width="20.5" height="13.2"/>
				<rect x="216.5" y="174" class="st9" width="20.5" height="4.8"/>
			</g>
		</g>
		<g>
			<g>
				<g>
					<path class="st5" d="M23.2,280.2c-0.8,0-1.5-0.7-1.5-1.5v-80c0-0.8,0.7-1.5,1.5-1.5h80c0.8,0,1.5,0.7,1.5,1.5v80
						c0,0.8-0.7,1.5-1.5,1.5H23.2z"/>
					<path class="st6" d="M103.2,197.7c0.6,0,1,0.4,1,1v80c0,0.6-0.4,1-1,1h-80c-0.6,0-1-0.4-1-1v-80c0-0.6,0.4-1,1-1L103.2,197.7
						 M103.2,196.7h-80c-1.1,0-2,0.9-2,2v80c0,1.1,0.9,2,2,2h80c1.1,0,2-0.9,2-2v-80C105.2,197.6,104.3,196.7,103.2,196.7
						L103.2,196.7z"/>
				</g>
				<path class="st7" d="M104.2,211.7h-82v-12c0-1.1,0.9-2,2-2h78c1.1,0,2,0.9,2,2V211.7z"/>
				<path class="st8" d="M54.2,205.7H27.7c-0.6,0-1-0.4-1-1l0,0c0-0.6,0.4-1,1-1h26.5c0.6,0,1,0.4,1,1l0,0
					C55.2,205.3,54.7,205.7,54.2,205.7z"/>
			</g>
			<g>
				<path class="st9" d="M62.4,238.5c-15.7,0-28.4,12.7-28.4,28.4h4c0-13.5,10.9-24.4,24.4-24.4s24.4,10.9,24.4,24.4h4
					C90.8,251.2,78.1,238.5,62.4,238.5z"/>
				<path class="st4" d="M82.5,246.8c5.1,5.1,8.3,12.3,8.3,20.1h-4c0-6.8-2.7-12.9-7.2-17.3L82.5,246.8z"/>
				
					<rect x="77.3" y="245.8" transform="matrix(0.7071 -0.7071 0.7071 0.7071 -151.1924 130.3461)" class="st5" width="8.9" height="3.7"/>
				<path class="st9" d="M64.7,265.6l17.4-17.4c0.3-0.3,0.3-0.7,0-0.9c-0.3-0.3-0.7-0.3-0.9,0l-17.4,17.4c-1.1-0.7-2.7-0.4-3.5,0.9
					c-0.5,0.8-0.5,1.9,0,2.7c0.9,1.5,2.9,1.6,4,0.5C65.2,267.9,65.3,266.6,64.7,265.6z M61.6,267.8c-0.5-0.5-0.5-1.3,0-1.8
					s1.3-0.5,1.8,0s0.5,1.3,0,1.8C62.9,268.3,62.1,268.3,61.6,267.8z"/>
			</g>
			<g>
				<path class="st9" d="M57.4,224.7l-1.2,0.6c-0.1,0.1-0.3,0-0.3-0.1l-0.2-0.5c0-0.1,0-0.2,0-0.3l2.1-1.9h0.7
					c0.1,0,0.3,0.1,0.3,0.3v9.4c0,0.1-0.1,0.3-0.3,0.3h-0.9c-0.2,0-0.3-0.1-0.3-0.3v-7.5H57.4z"/>
				<path class="st9" d="M62.9,227.3L62.9,227.3c-0.6-0.4-1.5-1.2-1.5-2.3c0-1.6,1.4-2.7,3.1-2.7c1.8,0,3.1,1.1,3.1,2.7
					c0,1.1-0.9,1.9-1.5,2.3v0.1c0.7,0.3,1.8,1.2,1.8,2.5c0,1.6-1.3,2.8-3.4,2.8s-3.4-1.2-3.4-2.8C61.1,228.5,62.3,227.5,62.9,227.3z
					 M64.5,231.4c1,0,1.9-0.6,1.9-1.6c0-0.8-0.7-1.6-1.9-1.8c-1.2,0.2-1.9,1-1.9,1.8C62.6,230.7,63.5,231.4,64.5,231.4z M66.1,225
					c0-0.9-0.7-1.5-1.7-1.5c-0.9,0-1.6,0.6-1.6,1.5c0,0.8,0.5,1.4,1.6,1.6C65.6,226.4,66.1,225.8,66.1,225z"/>
			</g>
		</g>
		<g>
			<g>
				<g>
					<path class="st5" d="M110.2,280.2c-0.8,0-1.5-0.7-1.5-1.5v-80c0-0.8,0.7-1.5,1.5-1.5h80c0.8,0,1.5,0.7,1.5,1.5v80
						c0,0.8-0.7,1.5-1.5,1.5H110.2z"/>
					<path class="st6" d="M190.2,197.7c0.6,0,1,0.4,1,1v80c0,0.6-0.4,1-1,1h-80c-0.6,0-1-0.4-1-1v-80c0-0.6,0.4-1,1-1L190.2,197.7
						 M190.2,196.7h-80c-1.1,0-2,0.9-2,2v80c0,1.1,0.9,2,2,2h80c1.1,0,2-0.9,2-2v-80C192.2,197.6,191.3,196.7,190.2,196.7
						L190.2,196.7z"/>
				</g>
				<path class="st7" d="M191.2,211.7h-82v-12c0-1.1,0.9-2,2-2h78c1.1,0,2,0.9,2,2V211.7z"/>
				<path class="st8" d="M141.2,205.7h-26.5c-0.6,0-1-0.4-1-1l0,0c0-0.6,0.4-1,1-1h26.5c0.6,0,1,0.4,1,1l0,0
					C142.2,205.3,141.7,205.7,141.2,205.7z"/>
			</g>
			<g>
				<path class="st9" d="M117.7,236.3c1.8-2,4.2-5,6-7.1c1.2-1.3,1.8-2.5,1.8-3.5c0-1.2-0.8-2.6-2.9-2.6c-1.3,0-2.4,0.9-3,1.6
					c-0.2,0.2-0.5,0.2-0.6,0l-0.8-0.8c-0.1-0.1-0.2-0.4,0-0.6c0,0,1.8-2.3,4.6-2.3c3.4,0,5.2,2.2,5.2,4.7c0,1.8-1,3.1-2.3,4.6
					s-2.9,3.5-4.3,5.1h6.1c0.2,0,0.5,0.2,0.5,0.5v1.1c0,0.2-0.2,0.5-0.5,0.5h-9.2c-0.3,0-0.5-0.2-0.5-0.5L117.7,236.3L117.7,236.3z"
					/>
				<path class="st9" d="M131.9,234.3c0.9,0,2,0.6,2,2.6c0,2.4-1.5,4.1-2.4,4.8c-0.2,0.2-0.4,0.2-0.6,0l-0.4-0.4
					c-0.1-0.1-0.1-0.4,0.1-0.6c0.3-0.2,1.7-1.4,1.7-3.2c0,0-0.3,0.1-0.6,0.1c-0.9,0-1.6-0.7-1.6-1.6
					C130.2,235.1,131,234.3,131.9,234.3z"/>
				<path class="st9" d="M137.8,235.8c1.1-0.4,4.9-2.3,5.7-5.2c-0.2,0.1-1.6,0.9-3.2,0.9c-2.5,0-5-1.9-5-5.2c0-3,2.4-5.4,5.3-5.4
					c3.8,0,5.6,3,5.6,6.7c0,6.6-5.7,9.4-7.9,10.3c-0.3,0.1-0.5,0-0.6-0.3l-0.4-1C137.3,236.2,137.3,236,137.8,235.8z M143.9,227.7
					c0.2-2-0.7-4.7-3.3-4.7c-1.7,0-3.1,1.5-3.1,3.3s1.4,3.3,3.2,3.3C142.6,229.5,143.8,228.2,143.9,227.7z"/>
				<path class="st9" d="M151.6,229.1L151.6,229.1c-1-0.6-2.4-1.9-2.4-3.8c0-2.6,2.2-4.3,5-4.3c2.9,0,5.1,1.7,5.1,4.3
					c0,1.8-1.4,3.1-2.4,3.7v0.1c1.1,0.5,2.9,1.9,2.9,4c0,2.6-2.1,4.6-5.5,4.6c-3.3,0-5.4-2-5.4-4.6
					C148.7,231,150.7,229.5,151.6,229.1z M154.2,235.7c1.7,0,3-1,3-2.6c0-1.3-1.1-2.6-3-2.9c-1.9,0.3-3,1.6-3,2.9
					C151.2,234.7,152.6,235.7,154.2,235.7z M156.8,225.4c0-1.4-1.2-2.5-2.7-2.5c-1.4,0-2.6,1-2.6,2.5c0,1.3,0.8,2.3,2.7,2.5
					C156,227.7,156.8,226.7,156.8,225.4z"/>
				<path class="st9" d="M162,234.9l0.9-0.9c0.2-0.2,0.5-0.2,0.6,0.1c0.1,0.2,1.5,1.5,3.2,1.5c1.5,0,3-1,3-2.6
					c0-1.4-1.2-2.8-3.8-2.8h-1.3c-0.3,0-0.5-0.2-0.5-0.5v-1c0-0.4,0.1-0.5,0.5-0.5h1.3c2.2,0,3.3-1.1,3.3-2.5c0-1.6-1.3-2.6-2.7-2.6
					s-2.3,0.8-2.8,1.3c-0.1,0.2-0.4,0.2-0.6,0.1l-0.9-0.8c-0.2-0.2-0.2-0.5,0-0.6c0,0,1.8-2.1,4.4-2.1c2.8,0,5,1.7,5,4.3
					c0,1.8-1.4,3.2-2.4,3.7v0.1c1.1,0.5,2.9,1.9,2.9,3.9c0,2.6-2.1,4.5-5.4,4.5c-2.9,0-4.3-1.5-4.9-2.1
					C161.8,235.4,161.8,235.1,162,234.9z"/>
			</g>
			<path class="st4" d="M190.2,279.7h-80c-0.6,0-1-0.4-1-1v-2h82v2C191.2,279.3,190.7,279.7,190.2,279.7z"/>
			<g>
				<path class="st4" d="M117.7,262.5l-1.1,0.5c-0.1,0.1-0.3,0-0.3-0.1l-0.2-0.5c0-0.1,0-0.2,0-0.3l2-1.8h0.7c0.1,0,0.3,0.1,0.3,0.3
					v9.2c0,0.1-0.1,0.3-0.3,0.3H118c-0.2,0-0.3-0.1-0.3-0.3V262.5z"/>
				<path class="st4" d="M121.5,265.1c0-3.1,1.3-5,3.5-5s3.5,1.9,3.5,5s-1.3,5-3.5,5C122.7,270.2,121.5,268.3,121.5,265.1z
					 M127.1,265.1c0-2.3-0.8-3.7-2.1-3.7c-1.3,0-2.1,1.3-2.1,3.7c0,2.4,0.8,3.7,2.1,3.7C126.3,268.9,127.1,267.5,127.1,265.1z"/>
				<path class="st4" d="M132,265L132,265c-0.6-0.4-1.5-1.1-1.5-2.3c0-1.6,1.3-2.6,3-2.6c1.8,0,3.1,1,3.1,2.6c0,1.1-0.9,1.9-1.5,2.2
					v0.1c0.7,0.3,1.7,1.2,1.7,2.4c0,1.6-1.3,2.7-3.3,2.7s-3.3-1.2-3.3-2.7C130.3,266.2,131.5,265.3,132,265z M133.6,269
					c1,0,1.8-0.6,1.8-1.6c0-0.8-0.7-1.5-1.8-1.7c-1.2,0.2-1.8,1-1.8,1.7C131.8,268.4,132.6,269,133.6,269z M135.2,262.8
					c0-0.9-0.7-1.5-1.6-1.5c-0.9,0-1.6,0.6-1.6,1.5c0,0.8,0.5,1.4,1.6,1.5C134.7,264.2,135.2,263.6,135.2,262.8z"/>
				<path class="st4" d="M138,263.8c0-0.8,0.6-1.4,1.4-1.4c0.8,0,1.4,0.6,1.4,1.4s-0.7,1.4-1.4,1.4C138.6,265.3,138,264.6,138,263.8
					z M140.1,263.8c0-0.4-0.3-0.7-0.7-0.7s-0.7,0.3-0.7,0.7c0,0.4,0.3,0.7,0.7,0.7S140.1,264.2,140.1,263.8z M142.6,262.6
					c0-0.1,0.1-0.1,0.2-0.1h0.4c0.2,0,0.3,0.2,0.2,0.3l-3.7,7.1c0,0-0.1,0.1-0.2,0.1h-0.3c-0.2,0-0.3-0.2-0.2-0.3L142.6,262.6z
					 M142.9,267.2c0.8,0,1.4,0.6,1.4,1.4s-0.7,1.4-1.4,1.4c-0.8,0-1.4-0.6-1.4-1.4C141.4,267.9,142.1,267.2,142.9,267.2z
					 M142.9,269.4c0.4,0,0.7-0.3,0.7-0.7c0-0.4-0.3-0.7-0.7-0.7s-0.7,0.3-0.7,0.7S142.5,269.4,142.9,269.4z"/>
			</g>
			<path class="st4" d="M184,270.2h-19c-0.6,0-1-0.4-1-1v-6.8c0-0.6,0.4-1,1-1h19c0.6,0,1,0.4,1,1v6.8
				C185,269.7,184.6,270.2,184,270.2z"/>
			<g>
				<path class="st5" d="M166.6,267.7c0.5-0.6,1.2-1.5,1.7-2.1c0.3-0.4,0.5-0.7,0.5-1c0-0.4-0.2-0.8-0.8-0.8c-0.4,0-0.7,0.3-0.9,0.5
					c-0.1,0.1-0.1,0.1-0.2,0l-0.2-0.2c0,0-0.1-0.1,0-0.2c0,0,0.5-0.7,1.3-0.7c1,0,1.5,0.6,1.5,1.4c0,0.5-0.3,0.9-0.7,1.3
					s-0.8,1-1.3,1.5h1.8c0.1,0,0.1,0.1,0.1,0.1v0.3c0,0.1-0.1,0.1-0.1,0.1h-2.7C166.5,267.9,166.5,267.8,166.6,267.7L166.6,267.7
					L166.6,267.7z"/>
				<path class="st5" d="M170.7,267.1c0.3,0,0.6,0.2,0.6,0.8c0,0.7-0.4,1.2-0.7,1.4c-0.1,0.1-0.1,0.1-0.2,0l-0.1-0.1
					c0,0,0-0.1,0-0.2c0.1-0.1,0.5-0.4,0.5-0.9c0,0-0.1,0-0.2,0c-0.3,0-0.5-0.2-0.5-0.5C170.2,267.3,170.5,267.1,170.7,267.1z"/>
				<path class="st5" d="M172.1,267.8l1.9-3.9h-2c-0.1,0-0.1-0.1-0.1-0.1v-0.3c0-0.1,0.1-0.1,0.1-0.1h2.8c0.1,0,0.1,0.1,0.1,0.1l0,0
					l-2,4.3c-0.1,0.1-0.1,0.2-0.3,0.2h-0.3C172.2,268,172.1,267.9,172.1,267.8L172.1,267.8z"/>
				<path class="st5" d="M175.3,267.3c0.1-0.1,0.2-0.2,0.3-0.2s0.1-0.1,0.2,0c0,0.1,0.4,0.4,1,0.4s0.9-0.5,0.9-1s-0.3-0.9-1-0.9
					h-1.1c-0.1,0-0.2-0.1-0.2-0.2v-1.9c0-0.1,0.1-0.1,0.1-0.1h2.1c0.1,0,0.1,0.1,0.1,0.1v0.3c0,0.1-0.1,0.1-0.1,0.1H176v1.1h0.7
					c1,0,1.6,0.6,1.6,1.5s-0.7,1.6-1.6,1.6c-0.8,0-1.2-0.4-1.3-0.6C175.2,267.4,175.2,267.3,175.3,267.3z"/>
				<path class="st5" d="M179,265.6c0-1.5,0.6-2.4,1.7-2.4c1.1,0,1.7,0.9,1.7,2.4s-0.6,2.4-1.7,2.4C179.6,268.1,179,267.2,179,265.6
					z M181.7,265.6c0-1.1-0.4-1.8-1-1.8s-1,0.6-1,1.8c0,1.1,0.4,1.8,1,1.8C181.4,267.4,181.7,266.8,181.7,265.6z"/>
			</g>
		</g>
		<g>
			<g>
				<g>
					<path class="st5" d="M197.2,280.2c-0.8,0-1.5-0.7-1.5-1.5v-80c0-0.8,0.7-1.5,1.5-1.5h80c0.8,0,1.5,0.7,1.5,1.5v80
						c0,0.8-0.7,1.5-1.5,1.5H197.2z"/>
					<path class="st6" d="M277.2,197.7c0.6,0,1,0.4,1,1v80c0,0.6-0.4,1-1,1h-80c-0.6,0-1-0.4-1-1v-80c0-0.6,0.4-1,1-1L277.2,197.7
						 M277.2,196.7h-80c-1.1,0-2,0.9-2,2v80c0,1.1,0.9,2,2,2h80c1.1,0,2-0.9,2-2v-80C279.2,197.6,278.3,196.7,277.2,196.7
						L277.2,196.7z"/>
				</g>
				<path class="st7" d="M278.2,211.7h-82v-12c0-1.1,0.9-2,2-2h78c1.1,0,2,0.9,2,2V211.7z"/>
				<path class="st8" d="M228.2,205.7h-26.5c-0.6,0-1-0.4-1-1l0,0c0-0.6,0.4-1,1-1h26.5c0.6,0,1,0.4,1,1l0,0
					C229.2,205.3,228.7,205.7,228.2,205.7z"/>
			</g>
			<g>
				<path class="st9" d="M204.8,236.3c1.8-2,4.3-5,6-7.2c1.2-1.3,1.8-2.5,1.8-3.5c0-1.2-0.8-2.6-2.9-2.6c-1.3,0-2.4,0.9-3,1.6
					c-0.2,0.2-0.5,0.2-0.6,0l-0.8-0.8c-0.1-0.1-0.2-0.4,0-0.6c0,0,1.8-2.3,4.6-2.3c3.4,0,5.2,2.2,5.2,4.7c0,1.8-1,3.1-2.3,4.7
					c-1.3,1.5-2.9,3.5-4.4,5.1h6.1c0.2,0,0.5,0.2,0.5,0.5v1.1c0,0.2-0.2,0.5-0.5,0.5h-9.3c-0.3,0-0.5-0.2-0.5-0.5L204.8,236.3
					L204.8,236.3z"/>
				<path class="st9" d="M219.1,234.3c0.9,0,2,0.6,2,2.7c0,2.5-1.5,4.2-2.4,4.8c-0.2,0.2-0.4,0.2-0.6,0l-0.4-0.4
					c-0.1-0.1-0.1-0.4,0.1-0.6c0.3-0.2,1.7-1.4,1.7-3.3c0,0-0.3,0.1-0.6,0.1c-0.9,0-1.6-0.7-1.6-1.6
					C217.4,235,218.2,234.3,219.1,234.3z"/>
				<path class="st9" d="M223.4,229.2c0-5.2,2.2-8.4,5.9-8.4c3.8,0,5.9,3.1,5.9,8.4s-2.2,8.4-5.9,8.4
					C225.5,237.6,223.4,234.5,223.4,229.2z M232.8,229.2c0-3.9-1.3-6.2-3.5-6.2s-3.5,2.2-3.5,6.2s1.3,6.2,3.5,6.2
					S232.8,233.2,232.8,229.2z"/>
				<path class="st9" d="M238.3,236.6l6.5-13.4h-7.1c-0.2,0-0.5-0.2-0.5-0.5v-1.2c0-0.2,0.2-0.5,0.5-0.5h9.8c0.2,0,0.5,0.2,0.5,0.5
					v0.2l-7,15c-0.2,0.5-0.3,0.6-0.9,0.6H239c-0.3,0-0.5-0.2-0.5-0.5v-0.2H238.3z"/>
				<path class="st9" d="M252.3,229L252.3,229c-1-0.6-2.5-1.9-2.5-3.8c0-2.6,2.2-4.4,5.1-4.4s5.1,1.7,5.1,4.4c0,1.8-1.4,3.2-2.5,3.7
					v0.1c1.1,0.5,2.9,1.9,2.9,4c0,2.6-2.1,4.6-5.6,4.6c-3.3,0-5.5-2-5.5-4.6C249.4,230.9,251.4,229.4,252.3,229z M254.9,235.7
					c1.7,0,3.1-1,3.1-2.6c0-1.3-1.1-2.6-3-2.9c-1.9,0.3-3,1.6-3,2.9C251.9,234.6,253.3,235.7,254.9,235.7z M257.6,225.3
					c0-1.5-1.2-2.5-2.7-2.5c-1.4,0-2.6,1.1-2.6,2.5c0,1.3,0.8,2.3,2.7,2.6C256.8,227.6,257.6,226.6,257.6,225.3z"/>
			</g>
			<polyline class="st10" points="205.2,248.5 213.3,251.6 220.7,268.5 228.7,266.3 236.3,248.5 244.4,247.5 251.8,249.4 			"/>
		</g>
		<g>
			<g>
				<g>
					<path class="st5" d="M284.2,280.2c-0.8,0-1.5-0.7-1.5-1.5v-80c0-0.8,0.7-1.5,1.5-1.5h80c0.8,0,1.5,0.7,1.5,1.5v80
						c0,0.8-0.7,1.5-1.5,1.5H284.2z"/>
					<path class="st6" d="M364.2,197.7c0.6,0,1,0.4,1,1v80c0,0.6-0.4,1-1,1h-80c-0.6,0-1-0.4-1-1v-80c0-0.6,0.4-1,1-1L364.2,197.7
						 M364.2,196.7h-80c-1.1,0-2,0.9-2,2v80c0,1.1,0.9,2,2,2h80c1.1,0,2-0.9,2-2v-80C366.2,197.6,365.3,196.7,364.2,196.7
						L364.2,196.7z"/>
				</g>
				<path class="st7" d="M365.2,211.7h-82v-12c0-1.1,0.9-2,2-2h78c1.1,0,2,0.9,2,2V211.7z"/>
				<path class="st8" d="M315.2,205.7h-26.5c-0.6,0-1-0.4-1-1l0,0c0-0.6,0.4-1,1-1h26.5c0.6,0,1,0.4,1,1l0,0
					C316.2,205.3,315.7,205.7,315.2,205.7z"/>
			</g>
			<path class="st9" d="M349.4,223.6h-57.5c-0.6,0-1-0.4-1-1l0,0c0-0.6,0.4-1,1-1h57.5c0.6,0,1,0.4,1,1l0,0
				C350.4,223.1,350,223.6,349.4,223.6z"/>
			<path class="st8" d="M319.8,228.7H292c-0.6,0-1-0.4-1-1l0,0c0-0.6,0.4-1,1-1h27.8c0.6,0,1,0.4,1,1l0,0
				C320.8,228.2,320.3,228.7,319.8,228.7z"/>
			<path class="st9" d="M331.4,240.3h-39.5c-0.6,0-1-0.4-1-1l0,0c0-0.6,0.4-1,1-1h39.5c0.6,0,1,0.4,1,1l0,0
				C332.4,239.9,332,240.3,331.4,240.3z"/>
			<path class="st8" d="M310.8,245.4H292c-0.6,0-1-0.4-1-1l0,0c0-0.6,0.4-1,1-1h18.8c0.6,0,1,0.4,1,1l0,0
				C311.8,245,311.3,245.4,310.8,245.4z"/>
			<path class="st9" d="M343.4,257.2h-51.5c-0.6,0-1-0.4-1-1l0,0c0-0.6,0.4-1,1-1h51.5c0.6,0,1,0.4,1,1l0,0
				C344.4,256.7,344,257.2,343.4,257.2z"/>
			<path class="st8" d="M330.8,262.3H291v-2h39.8c0.6,0,1,0.4,1,1l0,0C331.8,261.8,331.3,262.3,330.8,262.3z"/>
		</g>
		<g>
			<g>
				<g>
					<path class="st5" d="M371.2,280.2c-0.8,0-1.5-0.7-1.5-1.5V112.4c0-0.8,0.7-1.5,1.5-1.5h80c0.8,0,1.5,0.7,1.5,1.5v166.4
						c0,0.8-0.7,1.5-1.5,1.5L371.2,280.2L371.2,280.2z"/>
					<path class="st6" d="M451.2,111.4c0.6,0,1,0.4,1,1v166.4c0,0.6-0.4,1-1,1h-80c-0.6,0-1-0.4-1-1V112.4c0-0.6,0.4-1,1-1H451.2
						 M451.2,110.4h-80c-1.1,0-2,0.9-2,2v166.4c0,1.1,0.9,2,2,2h80c1.1,0,2-0.9,2-2V112.4C453.2,111.3,452.3,110.4,451.2,110.4
						L451.2,110.4z"/>
				</g>
				<path class="st7" d="M452.2,125.4h-82v-12c0-1.1,0.9-2,2-2h78c1.1,0,2,0.9,2,2V125.4z"/>
				<path class="st8" d="M402.2,119.4h-26.5c-0.6,0-1-0.4-1-1l0,0c0-0.6,0.4-1,1-1h26.5c0.6,0,1,0.4,1,1l0,0
					C403.2,118.9,402.7,119.4,402.2,119.4z"/>
			</g>
			<path class="st9" d="M420,136.7h-41.5c-0.6,0-1-0.4-1-1l0,0c0-0.6,0.4-1,1-1H420c0.6,0,1,0.4,1,1l0,0
				C421,136.2,420.6,136.7,420,136.7z"/>
			<path class="st8" d="M406.4,141.8h-27.8c-0.6,0-1-0.4-1-1l0,0c0-0.6,0.4-1,1-1h27.8c0.6,0,1,0.4,1,1l0,0
				C407.4,141.3,406.9,141.8,406.4,141.8z"/>
			<path class="st9" d="M418,153.4h-39.5c-0.6,0-1-0.4-1-1l0,0c0-0.6,0.4-1,1-1H418c0.6,0,1,0.4,1,1l0,0
				C419,152.9,418.6,153.4,418,153.4z"/>
			<path class="st8" d="M397.4,158.5h-18.8c-0.6,0-1-0.4-1-1l0,0c0-0.6,0.4-1,1-1h18.8c0.6,0,1,0.4,1,1l0,0
				C398.4,158,397.9,158.5,397.4,158.5z"/>
			<path class="st9" d="M430,170.2h-51.5c-0.6,0-1-0.4-1-1l0,0c0-0.6,0.4-1,1-1H430c0.6,0,1,0.4,1,1l0,0
				C431,169.8,430.6,170.2,430,170.2z"/>
			<path class="st8" d="M417.4,175.3h-39.8v-2h39.8c0.6,0,1,0.4,1,1l0,0C418.4,174.9,417.9,175.3,417.4,175.3z"/>
			<path class="st9" d="M436.1,188.4h-57.5c-0.6,0-1-0.4-1-1l0,0c0-0.6,0.4-1,1-1h57.5c0.6,0,1,0.4,1,1l0,0
				C437.1,187.9,436.7,188.4,436.1,188.4z"/>
			<path class="st8" d="M406.5,193.5h-27.8c-0.6,0-1-0.4-1-1l0,0c0-0.6,0.4-1,1-1h27.8c0.6,0,1,0.4,1,1l0,0
				C407.5,193.1,407,193.5,406.5,193.5z"/>
			<path class="st9" d="M418.1,205.1h-39.5c-0.6,0-1-0.4-1-1l0,0c0-0.6,0.4-1,1-1h39.5c0.6,0,1,0.4,1,1l0,0
				C419.1,204.7,418.7,205.1,418.1,205.1z"/>
			<path class="st8" d="M397.5,210.2h-18.8c-0.6,0-1-0.4-1-1l0,0c0-0.6,0.4-1,1-1h18.8c0.6,0,1,0.4,1,1l0,0
				C398.5,209.8,398,210.2,397.5,210.2z"/>
			<path class="st9" d="M433.1,222h-54.5c-0.6,0-1-0.4-1-1l0,0c0-0.6,0.4-1,1-1h54.5c0.6,0,1,0.4,1,1l0,0
				C434.1,221.5,433.7,222,433.1,222z"/>
			<path class="st8" d="M407.5,227.1h-29.8v-2h29.8c0.6,0,1,0.4,1,1l0,0C408.5,226.6,408,227.1,407.5,227.1z"/>
			<path class="st9" d="M423.1,240.3h-44.5c-0.6,0-1-0.4-1-1l0,0c0-0.6,0.4-1,1-1h44.5c0.6,0,1,0.4,1,1l0,0
				C424.1,239.9,423.7,240.3,423.1,240.3z"/>
			<path class="st8" d="M407.5,245.4h-29.8v-2h29.8c0.6,0,1,0.4,1,1l0,0C408.5,245,408,245.4,407.5,245.4z"/>
		</g>
	</g>
</g>
<g>
	<g>
		<g>
			<path class="st15" d="M406.6,130.1c0.1,0,1.2,0,1.2,0V123c0,0-1.1,0-1.2,0c-0.1,0-0.2,0-0.2,0.2c0,0.1,0,6.5,0,6.7
				C406.4,130,406.5,130.1,406.6,130.1z"/>
			<path class="st15" d="M407.5,138.4c0,0-0.9,0-1.1,0c-0.2,0-0.3,0.1-0.3,0.3s0,12.4,0,12.7c0,0.2,0.2,0.3,0.3,0.3h1.2L407.5,138.4
				z"/>
			<path class="st15" d="M407.5,154.9c0,0-0.9,0-1.1,0c-0.2,0-0.3,0.1-0.3,0.3s0,12.4,0,12.7c0,0.2,0.2,0.3,0.3,0.3h1.2L407.5,154.9
				z"/>
			<path class="st15" d="M494.1,98.4h-72.2c-9.2,0-15,6.2-15,15v177.7c0,8.7,5.7,15,15,15h72.2c9.2,0,15-6.2,15-15V137.6v-24.2
				C509.1,104.7,503.4,98.4,494.1,98.4z"/>
			<path class="st15" d="M509.5,137.6c-0.2,0-1.3,0-1.3,0v13.3h1.3c0.1,0,0.3-0.1,0.3-0.3s0-12.5,0-12.7
				C509.8,137.8,509.7,137.6,509.5,137.6z"/>
		</g>
		<path class="st1" d="M506.5,107.6c-0.6-1.6-1.4-2.9-2.5-4c-2.3-2.4-5.6-3.6-9.5-3.6H422c-3.9,0-7.2,1.2-9.5,3.6
			c-1.1,1.1-2,2.5-2.5,4c-0.6,1.6-0.9,3.4-0.9,5.3v178.5c0,1.9,0.3,3.7,0.9,5.3c0.6,1.6,1.4,2.9,2.5,4c2.3,2.4,5.6,3.6,9.5,3.6h72.5
			c3.9,0,7.2-1.2,9.5-3.6c1.1-1.1,2-2.5,2.5-4c0.6-1.6,0.9-3.4,0.9-5.3V113C507.4,111,507.1,109.3,506.5,107.6z"/>
		<rect x="412.2" y="119.9" class="st16" width="92" height="162"/>
		<path class="st17" d="M458.1,287.1c3.4,0,6.1,2.8,6.1,6.1c0,3.4-2.8,6.1-6.1,6.1c-3.4,0-6.1-2.8-6.1-6.1
			C451.9,289.8,454.7,287.1,458.1,287.1 M458.1,286.4c-3.8,0-6.8,3.1-6.8,6.8c0,3.8,3.1,6.8,6.8,6.8c3.8,0,6.8-3.1,6.8-6.8
			S461.8,286.4,458.1,286.4L458.1,286.4z"/>
		<g class="st18">
			<path d="M458.2,103.3c0.6,0,1,0.5,1,1c0,0.6-0.5,1-1,1c-0.6,0-1-0.5-1-1S457.6,103.3,458.2,103.3z"/>
			<path d="M443.1,109.7c0.5,0,0.9,0.4,0.9,0.9s-0.4,0.9-0.9,0.9s-0.9-0.4-0.9-0.9C442.2,110.1,442.6,109.7,443.1,109.7z"/>
			<path d="M465.5,110.8c0,0.4-0.3,0.7-0.7,0.7h-13.4c-0.4,0-0.7-0.3-0.7-0.7l0,0c0-0.4,0.3-0.7,0.7-0.7h13.4
				C465.2,110,465.5,110.3,465.5,110.8L465.5,110.8z"/>
		</g>
	</g>
	<g>
		<g>
			<defs>
				<rect id="SVGID_1_" x="412.2" y="119.9" width="92" height="162"/>
			</defs>
			<clipPath id="SVGID_2_">
				<use xlink:href="#SVGID_1_"  style="overflow:visible;"/>
			</clipPath>
			<g class="st19">
				<g>
					<rect x="412.3" y="119.9" class="st20" width="91.9" height="12"/>
					<path class="st9" d="M475.2,126.9h-33.7c-0.5,0-1-0.4-1-1l0,0c0-0.6,0.5-1,1-1h33.7c0.5,0,1,0.4,1,1l0,0
						C476.2,126.4,475.7,126.9,475.2,126.9z"/>
					<g class="st21">
						<rect x="416.2" y="123.8" class="st9" width="6" height="1"/>
						<rect x="416.2" y="125.3" class="st9" width="6" height="1"/>
						<rect x="416.2" y="126.9" class="st9" width="6" height="1"/>
					</g>
					<circle class="st22" cx="497.8" cy="125.8" r="2.5"/>
				</g>
				<g>
					<rect x="412.3" y="135" class="st23" width="91.9" height="44.4"/>
					<rect x="412.3" y="135" class="st24" width="91.9" height="11.1"/>
					<g>
						<path class="st9" d="M418.6,165.7c0.9-1,2.2-2.6,3.1-3.7c0.6-0.7,0.9-1.3,0.9-1.8c0-0.6-0.4-1.4-1.5-1.4
							c-0.7,0-1.2,0.5-1.6,0.8c-0.1,0.1-0.2,0.1-0.3,0l-0.4-0.4c-0.1-0.1-0.1-0.2,0-0.3c0,0,0.9-1.2,2.4-1.2c1.8,0,2.7,1.1,2.7,2.4
							c0,1-0.5,1.6-1.2,2.4c-0.7,0.8-1.5,1.8-2.3,2.7h3.2c0.1,0,0.2,0.1,0.2,0.2v0.6c0,0.1-0.1,0.2-0.2,0.2h-4.8
							c-0.1,0-0.2-0.1-0.2-0.2V165.7z"/>
						<path class="st9" d="M425.1,165l0.5-0.5c0.1-0.1,0.2-0.1,0.3,0s0.8,0.8,1.7,0.8c0.8,0,1.6-0.5,1.6-1.3c0-0.7-0.6-1.5-2-1.5
							h-0.7c-0.1,0-0.2-0.1-0.2-0.3v-0.5c0-0.2,0.1-0.3,0.2-0.3h0.7c1.2,0,1.8-0.6,1.8-1.3c0-0.8-0.7-1.4-1.4-1.4s-1.2,0.4-1.4,0.7
							c-0.1,0.1-0.2,0.1-0.3,0l-0.5-0.4c-0.1-0.1-0.1-0.2,0-0.3c0,0,0.9-1.1,2.3-1.1c1.4,0,2.6,0.9,2.6,2.3c0,1-0.7,1.7-1.3,2l0,0
							c0.6,0.2,1.5,1,1.5,2.1c0,1.4-1.1,2.4-2.8,2.4c-1.5,0-2.3-0.8-2.6-1.1C425,165.2,425,165,425.1,165z"/>
						<path class="st9" d="M433.4,161.9L433.4,161.9c-0.5-0.3-1.3-1-1.3-2c0-1.4,1.1-2.3,2.6-2.3s2.7,0.9,2.7,2.3
							c0,1-0.7,1.6-1.3,1.9v0.1c0.6,0.3,1.5,1,1.5,2.1c0,1.4-1.1,2.4-2.9,2.4c-1.7,0-2.9-1-2.9-2.4
							C431.9,162.9,432.9,162.1,433.4,161.9z M434.7,165.4c0.9,0,1.6-0.5,1.6-1.4c0-0.7-0.6-1.3-1.6-1.5c-1,0.2-1.6,0.8-1.6,1.5
							C433.2,164.8,433.9,165.4,434.7,165.4z M436.1,160c0-0.8-0.6-1.3-1.4-1.3c-0.7,0-1.4,0.5-1.4,1.3c0,0.7,0.4,1.2,1.4,1.3
							C435.7,161.2,436.1,160.6,436.1,160z"/>
					</g>
					<path class="st25" d="M478,162.5c5,0,9.2,3.4,10.6,8l9.4-3.7c-2.8-8.5-10.6-14.3-19.9-14.3c-9.2,0-17.1,5.7-19.9,14.1l9.5,3.5
						C469.1,165.7,473.2,162.5,478,162.5z"/>
					<path class="st9" d="M476.7,170.7L476.7,170.7c-0.8-0.8-0.8-2,0-2.8l0,0c0.2-0.2,0.5-0.5,0.8-0.6l6.8-4.4
						c0.2-0.1,0.4,0.1,0.3,0.3l-4.4,6.8c-0.2,0.3-0.4,0.5-0.6,0.8l0,0C478.7,171.5,477.4,171.5,476.7,170.7z"/>
					<path class="st26" d="M449.6,141.5h-32c-0.6,0-1-0.4-1-1l0,0c0-0.6,0.4-1,1-1h32c0.6,0,1,0.4,1,1l0,0
						C450.6,141.1,450.1,141.5,449.6,141.5z"/>
				</g>
				<g>
					<g>
						<rect x="412.3" y="182.4" class="st23" width="91.9" height="53.6"/>
						<rect x="412.3" y="182.4" class="st24" width="91.9" height="11.1"/>
						<path class="st26" d="M449.6,188.9h-32c-0.6,0-1-0.4-1-1l0,0c0-0.6,0.4-1,1-1h32c0.6,0,1,0.4,1,1l0,0
							C450.6,188.5,450.1,188.9,449.6,188.9z"/>
					</g>
					<g>
						<rect x="416.6" y="217.3" class="st11" width="30.3" height="11.8"/>
						<rect x="446.8" y="217.3" class="st27" width="25.8" height="11.8"/>
						<rect x="472.6" y="217.3" class="st28" width="25.8" height="11.8"/>
						<rect x="416.6" y="222" class="st25" width="40.5" height="2.7"/>
						<rect x="457.1" y="222" class="st22" width="30.1" height="2.7"/>
						<rect x="465" y="219.3" class="st25" width="2" height="8"/>
						<path class="st26" d="M439.6,212h-22c-0.6,0-1-0.4-1-1l0,0c0-0.6,0.4-1,1-1h22c0.6,0,1,0.4,1,1l0,0
							C440.6,211.6,440.2,212,439.6,212z"/>
						<path class="st26" d="M451.6,207.9h-34c-0.6,0-1-0.5-1-1l0,0c0-0.5,0.4-1,1-1h34c0.5,0,1,0.4,1,1l0,0
							C452.6,207.4,452.2,207.9,451.6,207.9z"/>
					</g>
				</g>
				<g>
					<g>
						<rect x="412.3" y="239" class="st23" width="91.9" height="53.1"/>
						<rect x="412.3" y="239" class="st24" width="91.9" height="11.1"/>
						<path class="st26" d="M449.6,245.6h-32c-0.6,0-1-0.4-1-1l0,0c0-0.6,0.4-1,1-1h32c0.6,0,1,0.4,1,1l0,0
							C450.6,245.1,450.1,245.6,449.6,245.6z"/>
					</g>
					<g>
						<rect x="416.6" y="258.9" class="st29" width="48.9" height="8.6"/>
						<rect x="425.1" y="267.4" class="st30" width="40.5" height="8.6"/>
						<rect x="428.6" y="276" class="st31" width="36.9" height="8.6"/>
						<rect x="453.1" y="262.1" class="st9" width="10" height="2"/>
						<rect x="453.1" y="270.7" class="st9" width="10" height="2"/>
						<rect x="453.1" y="279.2" class="st9" width="10" height="2"/>
						<path class="st26" d="M489.3,264.1h-20c-0.6,0-1-0.4-1-1l0,0c0-0.6,0.4-1,1-1h20c0.6,0,1,0.4,1,1l0,0
							C490.3,263.7,489.8,264.1,489.3,264.1z"/>
						<path class="st26" d="M483.3,272.7h-14c-0.6,0-1-0.4-1-1l0,0c0-0.6,0.4-1,1-1h14c0.6,0,1,0.4,1,1l0,0
							C484.3,272.2,483.8,272.7,483.3,272.7z"/>
						<path class="st26" d="M479.3,281.2h-10c-0.6,0-1-0.4-1-1l0,0c0-0.6,0.4-1,1-1h10c0.6,0,1,0.4,1,1l0,0
							C480.3,280.8,479.8,281.2,479.3,281.2z"/>
					</g>
				</g>
			</g>
		</g>
	</g>
</g>
</svg>
