<?xml version="1.0" encoding="utf-8"?>
<!-- Generator: Adobe Illustrator 21.0.0, SVG Export Plug-In . SVG Version: 6.00 Build 0)  -->
<svg version="1.1" id="Layer_1" xmlns="http://www.w3.org/2000/svg" xmlns:xlink="http://www.w3.org/1999/xlink" x="0px" y="0px"
	 viewBox="0 0 56 56" style="enable-background:new 0 0 56 56;" xml:space="preserve">
<style type="text/css">
	.st0{fill-rule:evenodd;clip-rule:evenodd;fill:#8DC63F;}
	.st1{fill-rule:evenodd;clip-rule:evenodd;fill:#ADDE6A;}
	.st2{fill:#8DC63F;}
</style>
<g>
	<path class="st0" d="M46,22v28.1c0,1.6-1.2,2.9-2.7,2.9H12.7c-1.5,0-2.7-1.3-2.7-2.9V22H46 M47.3,19H8.7C7.7,19,7,19.8,7,20.7v29.5
		c0,3.2,2.5,5.8,5.5,5.8h30.9c3,0,5.5-2.6,5.5-5.8V20.7C49,19.8,48.3,19,47.3,19"/>
</g>
<g>
	<path class="st1" d="M27.2,29.5c-1.7,0.3-3.1,1.7-3.4,3.4c-0.3,1.5,0.3,2.9,1.3,3.9v8.1c0,0.8,0.6,1.4,1.4,1.4h2.8
		c0.8,0,1.4-0.6,1.4-1.4v-8.1c0.9-0.8,1.4-1.9,1.4-3.1C32.2,31,29.9,29,27.2,29.5z M13,50V25h30v25H13z"/>
</g>
<path class="st2" d="M41,22h-4v-8.8C37,8,33,4,28,4c-5,0-9,4-9,9.2V22h-4v-8.8C15,5.8,20.7,0,28,0c7.3,0,13,5.8,13,13.2V22z"/>
</svg>
