<?xml version="1.0" encoding="utf-8"?>
<!-- Generator: Adobe Illustrator 19.2.0, SVG Export Plug-In . SVG Version: 6.00 Build 0)  -->
<svg version="1.1" id="Layer_1" xmlns="http://www.w3.org/2000/svg" xmlns:xlink="http://www.w3.org/1999/xlink" x="0px" y="0px"
	 viewBox="0 0 156 120" style="enable-background:new 0 0 156 120;" xml:space="preserve">
<style type="text/css">
	.st0{opacity:5.000000e-02;fill:#3D4351;}
	.st1{opacity:0.1;fill:#3D4351;enable-background:new    ;}
	.st2{fill:#8DC63F;}
	.st3{opacity:0.2;}
	.st4{fill:#3B4251;}
	.st5{fill:#3D4351;}
	.st6{fill:#9DA0A7;}
</style>
<path class="st0" d="M41,34.7c-0.2,0-0.4-0.1-0.6-0.2c-0.4-0.3-0.5-1-0.2-1.4c2.1-2.9,4.4-5.4,6.8-7.6c0.4-0.4,1-0.3,1.4,0.1
	c0.4,0.4,0.3,1-0.1,1.4c-2.4,2.2-4.5,4.6-6.6,7.4C41.6,34.6,41.3,34.7,41,34.7z"/>
<path class="st0" d="M32.5,57.9C32.5,57.9,32.5,57.9,32.5,57.9c-0.6,0-1-0.5-1-1.1c0.2-3.3,0.9-6.5,1.5-8.9c0.1-0.5,0.7-0.9,1.2-0.7
	c0.5,0.1,0.9,0.7,0.7,1.2c-0.6,2.3-1.3,5.3-1.5,8.5C33.5,57.5,33,57.9,32.5,57.9z"/>
<path class="st0" d="M35.8,79c-0.4,0-0.8-0.2-0.9-0.6c-1.1-2.6-1.8-5.3-2.4-7.5c-0.1-0.5,0.2-1.1,0.7-1.2c0.5-0.1,1.1,0.2,1.2,0.7
	c0.5,2,1.2,4.7,2.2,7.1c0.2,0.5,0,1.1-0.5,1.3C36.1,79,35.9,79,35.8,79z"/>
<path class="st0" d="M65.9,105.8c-0.1,0-0.2,0-0.3,0c-7.9-2.3-14.8-6.3-20.4-12c-0.4-0.4-0.4-1,0-1.4s1-0.4,1.4,0
	c5.4,5.4,12,9.3,19.6,11.4c0.5,0.2,0.8,0.7,0.7,1.2C66.7,105.5,66.3,105.8,65.9,105.8z"/>
<path class="st0" d="M89.4,106.2c-0.4,0-0.9-0.3-1-0.8c-0.1-0.5,0.2-1.1,0.7-1.2c7.3-1.8,14.1-5.5,19.7-10.6c0.4-0.4,1-0.3,1.4,0.1
	c0.4,0.4,0.3,1-0.1,1.4c-5.8,5.3-12.9,9.1-20.5,11C89.6,106.2,89.5,106.2,89.4,106.2z"/>
<path class="st0" d="M120.6,80.1c-0.1,0-0.3,0-0.4-0.1c-0.5-0.2-0.7-0.8-0.5-1.3c1-2.1,1.8-4.2,2.3-6.2c0.1-0.5,0.7-0.8,1.2-0.7
	c0.5,0.1,0.8,0.7,0.7,1.2c-0.6,2.2-1.4,4.3-2.5,6.6C121.3,79.9,121,80.1,120.6,80.1z"/>
<path class="st0" d="M124.4,60.8c-0.6,0-1-0.4-1-1v-1.1c-0.2-3.5-0.7-6.5-1.4-9.1c-0.1-0.5,0.2-1.1,0.7-1.2c0.5-0.1,1.1,0.2,1.2,0.7
	c0.7,2.7,1.2,5.9,1.4,9.6l0,1.2C125.4,60.4,125,60.8,124.4,60.8z"/>
<path class="st0" d="M115.2,34c-0.3,0-0.6-0.1-0.8-0.4c-1.8-2.4-3.5-4.3-5.3-5.9c-0.4-0.4-0.4-1-0.1-1.4c0.4-0.4,1-0.4,1.4-0.1
	c1.8,1.6,3.6,3.6,5.5,6.1c0.3,0.4,0.3,1.1-0.2,1.4C115.6,33.9,115.4,34,115.2,34z"/>
<path class="st0" d="M86.7,16.3c0,0-0.1,0-0.1,0c-3.2-0.5-5.8-0.7-8.2-0.7c-1.2,0-2.3,0-3.4,0.1c-0.6,0-1-0.4-1.1-0.9
	c0-0.6,0.4-1,0.9-1.1c1.2-0.1,2.4-0.1,3.6-0.1c2.5,0,5.2,0.2,8.4,0.7c0.5,0.1,0.9,0.6,0.8,1.1C87.6,15.9,87.2,16.3,86.7,16.3z"/>
<g>
	<g>
		<path class="st1" d="M66.6,47.5h23.3c1.3,0,2.3,1.1,2.3,2.3v23.3c0,1.3-1.1,2.3-2.3,2.3H66.6c-1.3,0-2.3-1.1-2.3-2.3V49.8
			C64.2,48.6,65.2,47.5,66.6,47.5z"/>
		<g>
			<path class="st2" d="M66.5,45.5h23.3c1.3,0,2.3,1.1,2.3,2.3v23.3c0,1.3-1.1,2.3-2.3,2.3H66.5c-1.3,0-2.3-1.1-2.3-2.3V47.8
				C64.2,46.6,65.2,45.5,66.5,45.5z"/>
			<g class="st3">
				<path class="st4" d="M89.8,47c0.5,0,0.8,0.4,0.8,0.8v23.3c0,0.5-0.4,0.8-0.8,0.8H66.5c-0.5,0-0.8-0.4-0.8-0.8V47.8
					c0-0.4,0.3-0.8,0.8-0.8H89.8 M89.8,45.5H66.5c-1.3,0-2.3,1.1-2.3,2.3v23.3c0,1.2,1,2.3,2.3,2.3h23.3c1.2,0,2.3-1,2.3-2.3V47.8
					C92.1,46.6,91.1,45.5,89.8,45.5L89.8,45.5z"/>
			</g>
		</g>
	</g>
	<g>
		<path class="st5" d="M79,52.5c2,0,3.4,0.7,4.7,1.8c0.2,0.2,0.2,0.4,0,0.5c-0.2,0.2-0.4,0.4-0.5,0.5c-0.2,0.2-0.3,0.2-0.5,0
			c-1-0.9-2.4-1.5-3.7-1.5c-3.1,0-5.4,2.6-5.4,5.6S75.9,65,79,65c2.1,0,3.5-0.8,3.5-0.8v-2.7h-2.2c-0.2,0-0.4-0.2-0.4-0.4v-0.7
			c0-0.2,0.2-0.4,0.4-0.4h3.4c0.2,0,0.4,0.2,0.4,0.4V65c0,0.1-0.1,0.3-0.2,0.3c0,0-2,1.3-4.8,1.3c-3.9,0-7-3.1-7-7
			S75.1,52.5,79,52.5z"/>
	</g>
</g>
<g transform="translate(-282.32053,-396.30734)">
	<path class="st6" d="M369.6,496.8c-0.7,0.3-1.3,0.4-2.1,0.6c0.7-0.4,1.3-1.2,1.6-2.1c-0.7,0.4-1.5,0.7-2.3,0.9
		c-0.7-0.7-1.6-1.2-2.6-1.2c-2.1,0-3.7,1.6-3.7,3.7c0,0.3,0,0.6,0.1,0.9c-3.1-0.1-5.9-1.6-7.6-3.8c-0.3,0.6-0.4,1.2-0.4,1.9
		c0,1.3,0.6,2.3,1.6,3.1c-0.6,0-1.2-0.1-1.6-0.4l0,0c0,1.8,1.3,3.2,2.9,3.7c-0.3,0.1-0.6,0.1-1,0.1c-0.3,0-0.4,0-0.7,0
		c0.4,1.5,1.9,2.5,3.5,2.6c-1.3,1-2.9,1.6-4.6,1.6c-0.3,0-0.6,0-0.9,0c1.6,1,3.5,1.6,5.7,1.6c6.8,0,10.6-5.6,10.6-10.6
		c0-0.1,0-0.3,0-0.4C368.4,498.2,369,497.5,369.6,496.8L369.6,496.8z"/>
</g>
<g>
	<path class="st6" d="M120.4,37.3c-1.5,0-2.8,1.3-2.8,2.8s1.3,2.8,2.8,2.8c0.5,0,0.9-0.1,1.4-0.3v0.3c0,0.7-0.6,1.4-1.4,1.4
		c-0.3,0-0.7,0.3-0.7,0.7s0.3,0.7,0.7,0.7c1.5,0,2.8-1.3,2.8-2.8v-2.8C123.3,38.6,122.1,37.3,120.4,37.3 M120.4,41.5
		c-0.7,0-1.4-0.6-1.4-1.4c0-0.7,0.6-1.4,1.4-1.4c0.7,0,1.4,0.6,1.4,1.4C121.8,40.8,121.2,41.5,120.4,41.5z"/>
	<path class="st6" d="M106.7,37.3c-1.5,0-2.8,1.3-2.8,2.8V44c0,0.3,0.3,0.7,0.7,0.7c0.3,0,0.7-0.3,0.7-0.7v-1.5
		c0.3,0.2,0.8,0.3,1.4,0.3c1.5,0,2.8-1.3,2.8-2.8C109.5,38.6,108.2,37.3,106.7,37.3 M106.7,41.5c-0.7,0-1.4-0.6-1.4-1.4
		c0-0.7,0.6-1.4,1.4-1.4c0.7,0,1.4,0.6,1.4,1.4C108.1,40.8,107.4,41.5,106.7,41.5z"/>
	<path class="st6" d="M114.5,37.3c-1.5,0-2.8,1.3-2.8,2.8v2.1c0,0.3,0.3,0.7,0.7,0.7c0.3,0,0.7-0.3,0.7-0.7v-2
		c0-0.7,0.6-1.4,1.4-1.4c0.7,0,1.4,0.6,1.4,1.4v2.1c0,0.3,0.3,0.7,0.7,0.7c0.3,0,0.7-0.3,0.7-0.7v-2.1
		C117.3,38.6,116,37.3,114.5,37.3"/>
	<path class="st6" d="M132.3,37.3c-1.5,0-2.8,1.3-2.8,2.8s1.3,2.8,2.8,2.8s2.8-1.3,2.8-2.8C135.1,38.5,134,37.3,132.3,37.3
		 M132.3,41.4c-0.7,0-1.4-0.6-1.4-1.4c0-0.7,0.6-1.4,1.4-1.4c0.7,0,1.4,0.6,1.4,1.4C133.7,40.8,133.1,41.4,132.3,41.4z"/>
	<path class="st6" d="M128.5,35.3c-0.3,0-0.7,0.3-0.7,0.7v1.5c-0.3-0.2-0.8-0.3-1.4-0.3c-1.5,0-2.8,1.3-2.8,2.8s1.3,2.8,2.8,2.8
		s2.8-1.3,2.8-2.8v-4C129.2,35.7,128.9,35.3,128.5,35.3 M126.4,41.5c-0.7,0-1.4-0.6-1.4-1.4c0-0.7,0.6-1.4,1.4-1.4
		c0.7,0,1.4,0.6,1.4,1.4C127.7,40.8,127.1,41.5,126.4,41.5z"/>
	<path class="st6" d="M110.6,37.3c-0.3,0-0.7,0.3-0.7,0.7v4.2c0,0.3,0.3,0.7,0.7,0.7c0.3,0,0.7-0.3,0.7-0.7V38
		C111.3,37.7,111,37.3,110.6,37.3"/>
	<path class="st6" d="M109.8,36.2c0,0.3,0.3,0.7,0.7,0.7s0.7-0.3,0.7-0.7s-0.3-0.7-0.7-0.7S109.8,35.7,109.8,36.2"/>
	<path class="st6" d="M139.4,42.9c0.3,0,0.7-0.3,0.7-0.7V39c0-0.1,0.1-0.3,0.3-0.3c0.7,0,1.4,0.6,1.4,1.4v2.1c0,0.3,0.3,0.7,0.7,0.7
		c0.3,0,0.7-0.3,0.7-0.7v-2.1c0-1.5-1.3-2.8-2.8-2.8c-0.3,0-0.7,0.1-1,0.2c-0.3-0.1-0.7-0.2-1-0.2c-1.5,0-2.8,1.3-2.8,2.8v2.1
		c0,0.3,0.3,0.7,0.7,0.7c0.3,0,0.7-0.3,0.7-0.7v-2.1c0-0.7,0.6-1.4,1.4-1.4c0.1,0,0.3,0.1,0.3,0.3v3.1
		C138.6,42.5,138.9,42.9,139.4,42.9"/>
</g>
<g>
	<path class="st6" d="M61.8,14.6c-0.2,0-0.3,0.1-0.4,0.2c-0.1,0.1-0.1,0.3-0.1,0.6c0,0.2,0,0.4,0.1,0.6c0.1,0.1,0.2,0.2,0.4,0.2
		c0.2,0,0.3-0.1,0.4-0.2c0.1-0.1,0.1-0.3,0.1-0.6c0-0.2,0-0.4-0.1-0.6C62.1,14.7,62,14.6,61.8,14.6z"/>
	<path class="st6" d="M53.1,15.5c0,0-0.2,0-0.4,0c-0.3,0-0.4,0.1-0.4,0.1c-0.1,0.1-0.1,0.2-0.1,0.3c0,0.1,0,0.1,0,0.2
		c0,0,0,0,0.1,0.1c0,0,0.1,0.1,0.4,0.1c0.2,0,0.4-0.1,0.4-0.1h0V15.5z"/>
	<path class="st6" d="M56,14.6c-0.2,0-0.3,0.1-0.4,0.2c-0.1,0.1-0.1,0.2-0.1,0.3h1c0-0.1,0-0.3-0.1-0.3C56.3,14.7,56.1,14.6,56,14.6
		z"/>
	<path class="st6" d="M65.7,9.6c-0.8,0-1.5,0.2-2.2,0.5c-0.8-1.4-2.2-2.3-3.9-2.3c-1.2,0-2.4,0.5-3.2,1.4c-0.9-1.2-2.3-1.9-3.9-1.9
		c-2.7,0-4.9,2.2-4.9,4.9c0,0.7,0.1,1.3,0.4,1.9c-1.3,0.7-2.1,2.1-2.1,3.7c0,2.3,1.9,4.2,4.2,4.2c0.3,0,0.6,0,0.9-0.1
		c0.6,1.7,2.3,3,4.2,3c1.9,0,3.5-1.1,4.2-2.7c0.5,0.3,1.1,0.4,1.7,0.4c1.5,0,2.8-0.8,3.5-2c0.3,0.1,0.7,0.1,1.1,0.1
		c3,0,5.4-2.4,5.4-5.5C71.1,12,68.7,9.6,65.7,9.6z M51.4,15.9c0,0.4-0.3,0.7-0.8,0.7c-0.3,0-0.5,0-0.8-0.2c0,0-0.1-0.1-0.1-0.1
		c0,0,0,0,0-0.1l0.1-0.3c0,0,0.1,0,0.1,0c0,0,0,0,0.1,0.1c0.3,0.2,0.6,0.2,0.7,0.2c0.2,0,0.4-0.1,0.4-0.3v0c0-0.2-0.2-0.2-0.5-0.3
		l-0.1,0c-0.3-0.1-0.7-0.2-0.7-0.7v0c0-0.4,0.3-0.7,0.8-0.7l0.1,0c0.3,0,0.5,0.1,0.7,0.2c0,0,0,0,0,0.1c0,0-0.1,0.3-0.1,0.3
		c0,0-0.1,0-0.1,0c-0.2-0.1-0.4-0.2-0.7-0.2c-0.2,0-0.3,0.1-0.3,0.2v0c0,0.2,0.2,0.2,0.5,0.3l0,0C51.1,15.3,51.4,15.5,51.4,15.9
		L51.4,15.9z M53.5,16.5c0,0-0.1,0-0.1,0c0,0-0.2,0-0.4,0.1c-0.1,0-0.3,0-0.4,0c-0.1,0-0.3,0-0.4,0c-0.1,0-0.2-0.1-0.3-0.1
		c-0.1-0.1-0.1-0.1-0.2-0.2c0-0.1-0.1-0.2-0.1-0.3c0-0.1,0-0.2,0.1-0.3c0.1-0.1,0.1-0.2,0.2-0.2c0.1-0.1,0.2-0.1,0.3-0.1
		c0.1,0,0.2,0,0.4,0c0.1,0,0.2,0,0.2,0c0,0,0.1,0,0.2,0v-0.1c0-0.2,0-0.3-0.1-0.3c-0.1-0.1-0.2-0.1-0.4-0.1c0,0-0.4,0-0.6,0.1
		c0,0,0,0,0,0s0,0,0,0l-0.1-0.3c0,0,0-0.1,0-0.1c0.1-0.1,0.4-0.2,0.4-0.2c0.1,0,0.3,0,0.4,0c0.3,0,0.5,0.1,0.7,0.2
		c0.2,0.1,0.2,0.4,0.2,0.6L53.5,16.5C53.6,16.4,53.6,16.5,53.5,16.5z M54.5,16.5C54.5,16.5,54.5,16.6,54.5,16.5l-0.4,0c0,0,0,0,0,0
		v-3.1c0,0,0,0,0,0h0.4c0,0,0,0,0,0V16.5z M56.9,15.5C56.9,15.6,56.9,15.6,56.9,15.5l-1.5,0c0,0.2,0.1,0.4,0.2,0.5
		c0.1,0.1,0.3,0.2,0.5,0.2c0.3,0,0.5-0.1,0.6-0.1c0,0,0,0,0.1,0l0.1,0.3c0,0,0,0.1,0,0.1c-0.1,0.1-0.3,0.1-0.7,0.1
		c-0.2,0-0.4,0-0.5-0.1c-0.1-0.1-0.3-0.1-0.4-0.2C55.1,16.2,55,16,55,15.9c0-0.1-0.1-0.3-0.1-0.5c0-0.2,0-0.3,0.1-0.5
		c0-0.1,0.1-0.3,0.2-0.4c0.1-0.1,0.2-0.2,0.3-0.3c0.1-0.1,0.3-0.1,0.5-0.1c0.2,0,0.3,0,0.4,0.1c0.1,0,0.2,0.1,0.3,0.2
		c0.1,0.1,0.1,0.2,0.2,0.3C57,15.2,56.9,15.5,56.9,15.5z M58.1,16.6c-0.3,0-0.5,0-0.8-0.2c0,0-0.1-0.1-0.1-0.1c0,0,0,0,0-0.1
		l0.1-0.3c0,0,0.1,0,0.1,0c0,0,0,0,0.1,0.1c0.3,0.2,0.6,0.2,0.7,0.2c0.2,0,0.4-0.1,0.4-0.3v0c0-0.2-0.2-0.2-0.5-0.3l-0.1,0
		c-0.3-0.1-0.7-0.2-0.7-0.7v0c0-0.4,0.3-0.7,0.8-0.7l0.1,0c0.3,0,0.5,0.1,0.7,0.2c0,0,0,0,0,0.1c0,0-0.1,0.3-0.1,0.3
		c0,0-0.1,0-0.1,0c-0.2-0.1-0.4-0.2-0.7-0.2c-0.2,0-0.3,0.1-0.3,0.2v0c0,0.2,0.2,0.2,0.5,0.3l0,0c0.3,0.1,0.7,0.3,0.7,0.7v0
		C59,16.3,58.6,16.6,58.1,16.6z M60.7,14.6C60.7,14.7,60.6,14.7,60.7,14.6l-0.5,0l-0.3,1.9c0,0.2-0.1,0.4-0.1,0.5
		c-0.1,0.1-0.1,0.2-0.2,0.3c-0.1,0.1-0.2,0.2-0.3,0.2c-0.1,0-0.2,0.1-0.4,0.1c-0.1,0-0.1,0-0.2,0c-0.1,0-0.1,0-0.1,0c0,0,0,0,0-0.1
		c0,0,0.1-0.3,0.1-0.3c0,0,0.1,0,0.1,0c0,0,0,0,0.1,0c0,0,0.1,0,0.1,0c0.1,0,0.1,0,0.2,0c0.1,0,0.1-0.1,0.1-0.1c0,0,0.1-0.1,0.1-0.2
		c0-0.1,0.1-0.2,0.1-0.4l0.3-1.8h-0.3c0,0-0.1,0,0,0l0.1-0.3c0,0,0,0,0,0h0.3l0-0.1c0-0.3,0.1-0.5,0.3-0.7c0.1-0.1,0.4-0.2,0.6-0.2
		c0.1,0,0.1,0,0.2,0c0.1,0,0.1,0,0.1,0c0,0,0,0,0,0.1l-0.1,0.3c0,0,0,0-0.1,0c0,0,0,0-0.1,0c0,0-0.1,0-0.1,0c-0.1,0-0.1,0-0.2,0
		c0,0-0.1,0-0.1,0.1c0,0-0.1,0.1-0.1,0.2c-0.1,0.2-0.1,0.3-0.1,0.3h0.5c0,0,0.1,0,0,0L60.7,14.6z M62.8,15.9c0,0.1-0.1,0.3-0.2,0.4
		c-0.1,0.1-0.2,0.2-0.3,0.2c-0.1,0.1-0.3,0.1-0.5,0.1c-0.2,0-0.3,0-0.5-0.1c-0.1-0.1-0.2-0.1-0.3-0.2c-0.1-0.1-0.2-0.2-0.2-0.4
		c0-0.1-0.1-0.3-0.1-0.5c0-0.2,0-0.3,0.1-0.5c0-0.1,0.1-0.3,0.2-0.4c0.1-0.1,0.2-0.2,0.3-0.3c0.1-0.1,0.3-0.1,0.5-0.1
		c0.2,0,0.3,0,0.5,0.1c0.1,0.1,0.2,0.1,0.3,0.3c0.1,0.1,0.2,0.2,0.2,0.4c0,0.1,0.1,0.3,0.1,0.5C62.9,15.6,62.8,15.7,62.8,15.9z
		 M64.5,14.7C64.5,14.7,64.5,14.7,64.5,14.7c-0.1,0-0.1,0-0.2,0c-0.1,0-0.1,0-0.2,0c-0.1,0-0.1,0.1-0.2,0.1
		c-0.1,0.1-0.1,0.1-0.1,0.2c0,0.1,0,0.2,0,0.4v1.1c0,0,0,0,0,0h-0.4c0,0,0,0,0,0v-2.2c0,0,0,0,0,0h0.4c0,0,0,0,0,0v0.2
		c0.1-0.1,0.2-0.1,0.2-0.2c0.1,0,0.2-0.1,0.4-0.1c0.1,0,0.2,0,0.2,0c0,0,0,0,0,0.1C64.6,14.4,64.5,14.6,64.5,14.7z M66.4,16.5
		c-0.2,0.1-0.4,0.1-0.6,0.1c-0.4,0-0.7-0.1-0.8-0.3c-0.2-0.2-0.3-0.5-0.3-0.9c0-0.2,0-0.3,0.1-0.5c0-0.1,0.1-0.3,0.2-0.4
		s0.2-0.2,0.3-0.3c0.1-0.1,0.3-0.1,0.5-0.1c0.1,0,0.2,0,0.3,0c0.1,0,0.2,0.1,0.3,0.1c0,0,0,0,0,0.1c0,0.1-0.1,0.2-0.1,0.3
		c0,0-0.1,0-0.1,0c-0.1,0-0.3-0.1-0.5-0.1c-0.2,0-0.4,0.1-0.5,0.2c-0.1,0.1-0.2,0.3-0.2,0.6c0,0.3,0.1,0.5,0.2,0.6
		c0.1,0.1,0.3,0.2,0.5,0.2c0.1,0,0.2,0,0.2,0c0.1,0,0.1,0,0.2-0.1c0,0,0,0,0.1,0L66.4,16.5C66.4,16.5,66.4,16.5,66.4,16.5z
		 M68.6,15.5C68.6,15.6,68.5,15.6,68.6,15.5l-1.5,0c0,0.2,0.1,0.4,0.2,0.5c0.1,0.1,0.3,0.2,0.5,0.2c0.3,0,0.5-0.1,0.6-0.1
		c0,0,0,0,0.1,0l0.1,0.3c0,0,0,0.1,0,0.1c-0.1,0.1-0.3,0.1-0.7,0.1c-0.2,0-0.4,0-0.5-0.1c-0.1-0.1-0.3-0.1-0.4-0.2
		c-0.1-0.1-0.2-0.2-0.2-0.4c0-0.1-0.1-0.3-0.1-0.5c0-0.2,0-0.3,0.1-0.5c0-0.1,0.1-0.3,0.2-0.4c0.1-0.1,0.2-0.2,0.3-0.3
		c0.1-0.1,0.3-0.1,0.5-0.1c0.2,0,0.3,0,0.4,0.1c0.1,0,0.2,0.1,0.3,0.2c0.1,0.1,0.1,0.2,0.2,0.3C68.6,15.2,68.6,15.5,68.6,15.5z"/>
	<path class="st6" d="M67.6,14.6c-0.2,0-0.3,0.1-0.4,0.2c-0.1,0.1-0.1,0.2-0.1,0.3h1c0-0.1,0-0.3-0.1-0.3
		C67.9,14.7,67.8,14.6,67.6,14.6z"/>
</g>
<g>
	<circle class="st6" cx="17.6" cy="46.3" r="1.7"/>
	<circle class="st6" cx="23.8" cy="46.4" r="1.2"/>
	<circle class="st6" cx="28.8" cy="46.4" r="0.5"/>
	<path class="st6" d="M23.4,42.8c-0.3,0-0.5-0.2-0.5-0.5v-2.2c0-0.8-0.4-1.3-1.2-1.3c-0.8,0-1.3,0.6-1.3,1.4v2.2
		c0,0.3-0.2,0.5-0.5,0.5c-0.3,0-0.5-0.2-0.5-0.5v-2.2c0-0.8-0.4-1.3-1.2-1.3c-0.8,0-1.3,0.6-1.3,1.4v2.2c0,0.3-0.2,0.5-0.5,0.5
		c-0.3,0-0.5-0.2-0.5-0.5v-3.9c0-0.3,0.2-0.5,0.5-0.5c0.4,0,0.5,0.2,0.5,0.5v0.4c0.3-0.6,0.9-0.9,1.6-0.9c0.8,0,1.4,0.4,1.7,1
		c0.4-0.7,1.1-1,1.8-1c1.3,0,2,0.9,2,2.2v2.3C23.9,42.6,23.7,42.8,23.4,42.8z"/>
	<path class="st6" d="M25.4,35.9c0.3,0,0.6,0.3,0.6,0.6s-0.3,0.6-0.6,0.6c-0.3,0-0.6-0.3-0.6-0.6S25.1,35.9,25.4,35.9z M25.4,42.8
		c-0.3,0-0.5-0.2-0.5-0.5v-3.9c0-0.3,0.2-0.5,0.5-0.5c0.3,0,0.5,0.2,0.5,0.5v3.9C25.9,42.6,25.7,42.8,25.4,42.8z"/>
	<path class="st6" d="M28.9,39.6l1.3-1.6c0.1-0.1,0.2-0.2,0.3-0.2c0.3,0,0.5,0.2,0.5,0.5c0,0.1,0,0.2-0.1,0.3l-1.4,1.7l1.5,1.7
		c0.1,0.1,0.1,0.2,0.1,0.3c0,0.3-0.2,0.5-0.5,0.5c-0.2,0-0.3-0.1-0.4-0.2L28.9,41l-1.3,1.6c-0.1,0.1-0.2,0.2-0.4,0.2
		c-0.2,0-0.5-0.2-0.5-0.5c0-0.1,0-0.2,0.1-0.3l1.5-1.7l-1.4-1.7c-0.1-0.1-0.1-0.2-0.1-0.3c0-0.3,0.2-0.5,0.5-0.5
		c0.1,0,0.3,0.1,0.3,0.2L28.9,39.6z"/>
	<path class="st6" d="M34.5,42.8c-0.7,0-1.3-0.4-1.7-1v2.5c0,0.3-0.2,0.5-0.5,0.5c-0.3,0-0.5-0.2-0.5-0.5v-6c0-0.3,0.2-0.5,0.5-0.5
		s0.5,0.2,0.5,0.5v0.4c0.3-0.6,1-1,1.7-1c1.3,0,2.3,1.1,2.3,2.5C36.8,41.8,35.8,42.8,34.5,42.8z M34.3,38.6c-0.9,0-1.5,0.8-1.5,1.7
		s0.6,1.7,1.5,1.7c0.9,0,1.5-0.7,1.5-1.7C35.8,39.3,35.2,38.6,34.3,38.6z"/>
	<path class="st6" d="M42.3,42.3c0,0.3-0.2,0.5-0.5,0.5c-0.3,0-0.5-0.2-0.5-0.5V42c-0.3,0.5-0.9,0.8-1.6,0.8c-1.5,0-2.4-1.1-2.4-2.5
		c0-1.4,1-2.5,2.6-2.5c1.6,0,2.5,1,2.5,2.5L42.3,42.3L42.3,42.3z M39.8,38.7c-0.9,0-1.5,0.7-1.5,1.6c0,1,0.5,1.6,1.5,1.6
		c0.9,0,1.5-0.8,1.5-1.6C41.3,39.3,40.7,38.7,39.8,38.7z"/>
	<path class="st6" d="M45.4,37.8c1.3,0,2.3,1,2.3,2.3v2.2c0,0.3-0.2,0.5-0.5,0.5c-0.3,0-0.5-0.2-0.5-0.5V40c0-0.7-0.6-1.2-1.3-1.2
		c-0.7,0-1.3,0.5-1.3,1.2v2.3c0,0.3-0.2,0.5-0.5,0.5c-0.3,0-0.5-0.2-0.5-0.5v-2.2C43.1,38.8,44.1,37.8,45.4,37.8z"/>
	<path class="st6" d="M53.2,40.3c0,0.2-0.1,0.4-0.4,0.4h-3.3C49.5,41.4,50,42,51,42c0.6,0,0.9-0.2,1.3-0.5c0.1-0.1,0.2-0.2,0.3-0.2
		c0.2,0,0.4,0.2,0.4,0.4c0,0.1-0.1,0.2-0.1,0.3c-0.4,0.5-1.2,0.8-2,0.8c-1.6,0-2.5-1.1-2.5-2.5c0-1.4,1-2.5,2.5-2.5
		C52.3,37.8,53.2,38.9,53.2,40.3z M50.9,38.6c-0.8,0-1.3,0.5-1.4,1.2h2.7C52.1,39.2,51.6,38.6,50.9,38.6z"/>
	<path class="st6" d="M54.4,42.8c-0.3,0-0.5-0.2-0.5-0.5v-6.5c0-0.3,0.2-0.5,0.5-0.5c0.3,0,0.5,0.2,0.5,0.5v6.5
		C54.9,42.6,54.7,42.8,54.4,42.8z"/>
</g>
<g>
	<path class="st6" d="M20.6,66.7l-1-2.2c-0.2-0.5-0.5-1.1-0.6-1.4l0,0c0,0.4,0,0.9,0,1.3l0,2.2h-0.7v-4.6h0.9l1.1,2.2
		c0.2,0.4,0.4,1,0.5,1.2l0,0c0-0.2-0.1-0.9-0.1-1.3l0-2.1h0.7v4.6H20.6z"/>
	<path class="st6" d="M22.8,65.2L22.8,65.2c0,0.5,0.2,1,0.8,1c0.3,0,0.6-0.1,0.8-0.3l0.3,0.4c-0.4,0.3-0.8,0.4-1.2,0.4
		c-0.9,0-1.5-0.7-1.5-1.8c0-0.6,0.1-1,0.4-1.3c0.3-0.3,0.6-0.5,1-0.5c0.3,0,0.6,0.1,0.9,0.3c0.3,0.3,0.4,0.7,0.4,1.5v0.2H22.8z
		 M23.4,63.8c-0.4,0-0.6,0.3-0.6,0.9H24C24,64.1,23.8,63.8,23.4,63.8z"/>
	<path class="st6" d="M28.7,66.7H28l-0.4-1.5c-0.1-0.4-0.2-0.9-0.2-0.9h0c0,0-0.1,0.3-0.2,0.9l-0.4,1.5H26l-0.9-3.3l0.7-0.1l0.4,1.6
		c0.1,0.4,0.2,0.9,0.2,0.9h0c0,0,0.1-0.4,0.2-0.9l0.4-1.6h0.7l0.4,1.5c0.1,0.5,0.2,1,0.2,1h0c0,0,0.1-0.5,0.2-0.9l0.3-1.6h0.8
		L28.7,66.7z"/>
	<path class="st6" d="M33.9,66.7L33.5,66c-0.3-0.6-0.5-0.9-0.8-1.1c-0.1-0.1-0.2-0.1-0.3-0.1v2h-0.7v-4.6H33c1,0,1.5,0.6,1.5,1.3
		c0,0.7-0.4,1.3-1.1,1.3c0.2,0.1,0.5,0.5,0.7,0.9l0.7,1.1H33.9z M32.8,62.7h-0.4v1.5h0.4c0.4,0,0.6-0.1,0.7-0.2
		c0.1-0.1,0.2-0.3,0.2-0.6C33.7,63,33.5,62.7,32.8,62.7z"/>
	<path class="st6" d="M35.8,65.2L35.8,65.2c0,0.5,0.2,1,0.8,1c0.3,0,0.6-0.1,0.8-0.3l0.3,0.4c-0.4,0.3-0.8,0.4-1.2,0.4
		c-0.9,0-1.5-0.7-1.5-1.8c0-0.6,0.1-1,0.4-1.3c0.3-0.3,0.6-0.5,1-0.5c0.3,0,0.6,0.1,0.9,0.3c0.3,0.3,0.4,0.7,0.4,1.5v0.2H35.8z
		 M36.4,63.8c-0.4,0-0.6,0.3-0.6,0.9H37C37,64.1,36.8,63.8,36.4,63.8z"/>
	<path class="st6" d="M39.1,66.8c-0.7,0-0.7-0.7-0.7-0.9V63c0-0.5,0-0.7-0.1-1l0.7-0.2c0.1,0.2,0.1,0.5,0.1,0.9v2.8
		c0,0.5,0,0.5,0.1,0.6c0,0.1,0.2,0.1,0.2,0.1l0.1,0.5C39.5,66.7,39.3,66.8,39.1,66.8z"/>
	<path class="st6" d="M40.4,62.8c-0.3,0-0.5-0.2-0.5-0.5c0-0.3,0.2-0.5,0.5-0.5c0.3,0,0.5,0.2,0.5,0.5
		C40.9,62.6,40.7,62.8,40.4,62.8z M40,66.7v-3.3l0.7-0.1v3.4H40z"/>
	<path class="st6" d="M42.9,66.8c-0.9,0-1.4-0.6-1.4-1.7c0-1.2,0.7-1.8,1.5-1.8c0.4,0,0.6,0.1,0.9,0.4l-0.4,0.5
		c-0.2-0.2-0.4-0.3-0.6-0.3c-0.2,0-0.4,0.1-0.5,0.3c-0.1,0.2-0.1,0.5-0.1,0.9c0,0.5,0.1,0.7,0.2,0.9c0.1,0.1,0.3,0.2,0.4,0.2
		c0.2,0,0.5-0.1,0.7-0.3l0.3,0.4C43.6,66.6,43.3,66.8,42.9,66.8z"/>
	<path class="st6" d="M44.6,66.8c-0.3,0-0.5-0.2-0.5-0.5c0-0.3,0.2-0.5,0.5-0.5c0.3,0,0.5,0.2,0.5,0.5
		C45.1,66.6,44.8,66.8,44.6,66.8z M44.6,65.9c-0.2,0-0.4,0.2-0.4,0.4c0,0.2,0.2,0.4,0.4,0.4c0.2,0,0.4-0.2,0.4-0.4
		C45,66.1,44.8,65.9,44.6,65.9z M44.7,66.5C44.6,66.5,44.6,66.5,44.7,66.5c-0.1-0.2-0.1-0.2-0.1-0.2c0,0,0,0,0,0v0.2h-0.1V66h0.2
		c0.1,0,0.2,0.1,0.2,0.2c0,0.1-0.1,0.2-0.1,0.2c0,0,0,0,0,0c0,0,0.1,0.2,0.1,0.2H44.7z M44.6,66.1C44.6,66.1,44.6,66.1,44.6,66.1
		l-0.1,0v0.1h0c0,0,0.1,0,0.1,0C44.6,66.2,44.6,66.2,44.6,66.1C44.6,66.1,44.6,66.1,44.6,66.1z"/>
	<path class="st6" d="M11.2,68.2c-1.9,0-3.5-1.1-3.8-2.6c-0.4-1.8,1.2-3.8,3.5-4.3c0.4-0.1,0.8-0.1,1.1-0.1c1.9,0,3.5,1,3.8,2.6
		c0.2,0.9-0.1,1.8-0.7,2.6c-0.7,0.8-1.6,1.4-2.7,1.6C12,68.2,11.6,68.2,11.2,68.2z M12,61.5c-0.4,0-0.7,0-1.1,0.1
		c-2.2,0.5-3.7,2.3-3.3,4C7.9,67,9.4,68,11.2,68c0.4,0,0.7,0,1.1-0.1c1.1-0.2,2-0.8,2.6-1.5c0.6-0.8,0.9-1.6,0.7-2.5
		C15.3,62.5,13.8,61.5,12,61.5z"/>
	<path class="st6" d="M12,67.3c-1.4,0-2.5-1.1-2.5-2.5c0-1.4,1.1-2.5,2.5-2.5c1.4,0,2.5,1.1,2.5,2.5C14.5,66.2,13.4,67.3,12,67.3z
		 M12,62.6c-1.3,0-2.3,1-2.3,2.3c0,1.3,1,2.3,2.3,2.3c1.3,0,2.3-1,2.3-2.3C14.3,63.6,13.2,62.6,12,62.6z"/>
	<path class="st6" d="M11.6,66.3c-0.9,0-1.5-0.7-1.5-1.5c0-0.9,0.7-1.5,1.5-1.5c0.9,0,1.5,0.7,1.5,1.5
		C13.2,65.6,12.5,66.3,11.6,66.3z M11.6,63.4c-0.7,0-1.3,0.6-1.3,1.3c0,0.7,0.6,1.3,1.3,1.3c0.7,0,1.3-0.6,1.3-1.3
		C13,64,12.4,63.4,11.6,63.4z"/>
</g>
<g id="g10" transform="matrix(1.25 0 0 -1.25 -119.82 168.98)">
	<path id="path56" class="st6" d="M143.8,63.9L143.8,63.9L143.8,63.9L143.8,63.9C143.8,64,143.8,64,143.8,63.9
		C143.8,63.9,143.8,63.9,143.8,63.9L143.8,63.9z M143.9,63.9C143.9,64,143.8,64,143.9,63.9l-0.2,0.1v-0.3h0v0.1h0l0.1-0.1h0
		L143.9,63.9C143.8,63.9,143.9,63.9,143.9,63.9 M143.8,63.7c-0.1,0-0.2,0.1-0.2,0.2s0.1,0.2,0.2,0.2c0.1,0,0.2-0.1,0.2-0.2
		C144,63.8,143.9,63.7,143.8,63.7z M143.8,64.1c-0.1,0-0.2-0.1-0.2-0.2c0-0.1,0.1-0.2,0.2-0.2c0.1,0,0.2,0.1,0.2,0.2
		C144,64,143.9,64.1,143.8,64.1 M135,67.5c-0.2,0-0.3-0.1-0.3-0.3c0-0.2,0.1-0.3,0.3-0.3l0,0v0c0.2,0,0.3,0.1,0.3,0.3
		C135.3,67.3,135.1,67.5,135,67.5 M123.7,67.5c-0.2,0-0.3-0.1-0.3-0.3c0-0.2,0.1-0.3,0.3-0.3l0,0v0c0.2,0,0.3,0.1,0.3,0.3
		C124,67.3,123.8,67.5,123.7,67.5 M132.5,69L132.5,69L132.5,69 M121.4,65.4c-0.1-0.6-0.4-1.3-0.9-1.3c0,0,0,0,0,0
		c-0.2,0-0.3,0.1-0.3,0.4c0,0.3,0.1,0.7,0.4,1c0.2,0.2,0.3,0.3,0.5,0.3h0C121.2,65.7,121.3,65.6,121.4,65.4L121.4,65.4L121.4,65.4
		L121.4,65.4z M125.9,68.6L125.9,68.6c0.1,0,0.1,0,0.1-0.1c0.2-0.2,0.2-1-0.1-1.9c-0.2-0.5-0.4-1-0.6-1.4l0-0.1l0,0.1
		c0,0.2,0,0.4-0.1,0.6C125.1,67.2,125.5,68.5,125.9,68.6L125.9,68.6z M122.2,63.9c0.5,0,0.8,0.7,1,1l0,0.1l0-0.1
		c0.1-0.4,0.3-1,0.9-1h0c0.3,0,0.6,0.2,0.9,0.5l0,0l0,0c0.2-0.4,0.5-0.6,0.8-0.5c0.5,0,0.7,0.3,0.8,0.6c0,0.1,0,0.1,0,0.1
		c0,0-0.1,0.1-0.1,0l0,0c-0.1-0.1-0.3-0.3-0.5-0.3c-0.3,0-0.5,0.1-0.6,0.5l0,0l0,0c0.7,1,1.2,2.4,1.2,3.4c0,0.5-0.2,1-0.6,1
		c0,0,0,0,0,0c-0.2,0-0.4-0.1-0.5-0.3c-0.5-0.5-0.7-1.8-0.6-3.2c0-0.3,0.1-0.6,0.2-0.8l0,0l0,0c-0.3-0.3-0.5-0.5-0.8-0.5
		c-0.5,0-0.5,0.9-0.5,1.6c0,0.2,0,0.3,0,0.3c0,0-0.1,0.1-0.2,0.1l0,0c-0.2,0-0.2,0-0.3-0.3c-0.2-0.6-0.6-1.5-1-1.5
		c-0.1,0-0.2,0-0.2,0.1c-0.2,0.2,0,0.8,0.1,1.3c0,0.1,0,0.2,0.1,0.2c0,0.1,0,0.2,0,0.2c0,0.1-0.1,0.1-0.2,0.1
		c-0.2,0-0.3-0.1-0.3-0.4l0-0.1l0,0c-0.1,0.1-0.2,0.2-0.5,0.2c0,0,0,0-0.1,0c-0.3,0-0.6-0.2-0.8-0.5c-0.3-0.3-0.4-0.8-0.4-1.2
		c0,0,0,0,0-0.1l0,0l0,0c-0.2-0.2-0.3-0.3-0.5-0.3c-0.3,0-0.4,0.2-0.4,0.5c0,0.5,0.4,2.1,0.4,2.7c0,0.6-0.3,1-0.8,1l0,0
		c-0.7,0-1.2-0.8-1.8-2.4c0-0.1-0.1-0.3-0.1-0.5l-0.1-0.2l0,0.3c0,0.6,0.1,1.1,0.1,1.6c0,0.8-0.1,1.3-0.3,1.5
		c-0.1,0.1-0.3,0.2-0.5,0.2h0c-0.9,0-1.3-1.4-1.6-2.5c-0.1-0.3-0.3-1-0.4-1.5l0.1,0.1c0.1,0.6,0.2,2.1,0.2,2.9
		c0,0.9-0.3,1.3-0.9,1.3h0c-0.3,0-0.6-0.2-0.7-0.3c-0.2-0.2-0.4-0.6-0.4-0.8c0-0.2,0.1-0.3,0.2-0.3c0.1,0,0.1,0.1,0.1,0.1
		c0.2,0.7,0.5,1,0.8,1c0.1,0,0.2,0,0.3-0.1c0.3-0.3,0.2-1,0.1-2.4c0-0.4-0.1-0.9-0.1-1.5c0-0.1,0-0.2,0-0.3c0-0.4,0-0.7,0.1-0.7
		c0.2,0,0.3,0,0.4,0.2c0.1,0.3,0.3,1,0.7,2.5c0.4,1.3,0.7,1.8,1.1,1.8c0.4,0,0.5-0.8,0.4-2.3c0-0.3,0-0.7-0.1-1.1c0-0.1,0-0.1,0-0.2
		c0-0.3,0-0.6,0.1-0.7c0,0,0.1,0,0.1,0c0.2,0,0.2,0.2,0.3,0.4c0,0,0,0.1,0.1,0.2c0.7,1.8,1.1,3.4,1.8,3.4c0.2,0,0.3-0.2,0.3-0.5
		c0-0.7-0.3-2.1-0.3-2.8c0-0.2,0.1-0.5,0.2-0.6c0.1-0.2,0.3-0.2,0.6-0.2h0c0.2,0,0.4,0.1,0.7,0.3l0,0l0,0c0.2-0.2,0.4-0.3,0.7-0.3
		c0.4,0,0.7,0.4,0.9,0.7l0,0.1l0-0.1C121.5,64.1,121.7,63.8,122.2,63.9 M142.6,65.6L142.6,65.6L142.6,65.6 M141.6,64.6L141.6,64.6
		L141.6,64.6L141.6,64.6c0.3,0.7,0.6,1,0.9,1h0c0.3,0,0.6-0.3,0.6-0.8c0-0.3-0.1-0.5-0.2-0.6c-0.1-0.1-0.3-0.2-0.5-0.2
		C142,64.1,141.8,64.4,141.6,64.6L141.6,64.6z M141.5,62.2c0-0.1-0.1-0.1-0.2-0.1c-0.1,0-0.2,0-0.2,0.1c-0.1,0.2-0.1,0.6,0.1,1.4
		c0,0.1,0.1,0.2,0.1,0.3l0,0.1l0-0.1C141.6,63,141.7,62.4,141.5,62.2L141.5,62.2z M131.7,66.5c0,0.2,0,0.4,0,0.6
		c0.2,1.2,0.5,2,0.8,2h0c0.1,0,0.2-0.1,0.2-0.3C132.8,68.2,132.4,67.4,131.7,66.5L131.7,66.5L131.7,66.5L131.7,66.5z M142.5,63.8
		L142.5,63.8c0.7,0,1.1,0.4,1.1,1.1c0,0.3-0.1,0.6-0.3,0.8c-0.2,0.2-0.4,0.3-0.7,0.3h0c-0.4,0-0.8-0.3-1.1-0.9l0,0l0,0.1
		c-0.1,0.3-0.2,0.5-0.2,0.6c0,0.1,0,0.1-0.1,0.1c0,0.1-0.1,0.1-0.2,0.1c0,0-0.1,0-0.1,0c0,0-0.1-0.1-0.1-0.1l0,0
		c-0.4-1.1-0.7-1.7-0.9-1.7c0,0-0.1,0-0.1,0c-0.1,0.1-0.1,0.2,0,0.5c0,0.2,0,0.4,0,0.6c0,0.4-0.2,0.7-0.6,0.7
		c-0.5,0-0.8-0.5-0.9-0.8l0-0.1l0,0.1c0,0.4-0.2,0.8-0.5,0.8c-0.4,0-0.8-0.5-1-1l-0.1-0.1l0,0.1c0,0.6,0,0.9,0.1,1
		c0,0.1,0,0.2,0,0.2c0,0-0.1,0-0.2,0c-0.1,0-0.2-0.1-0.3-0.4c-0.2-0.5-0.6-1.6-1-1.6c-0.1,0-0.1,0-0.2,0.1c-0.2,0.2-0.1,0.7,0,1.3
		l0,0c0,0.3,0,0.4-0.2,0.4c0,0,0,0-0.1,0c-0.1,0-0.2-0.1-0.3-0.5c-0.2-0.6-0.5-1.3-0.9-1.3c0,0,0,0,0,0c-0.2,0-0.2,0.3-0.2,0.6
		c0,0.2,0,0.4,0,0.6c-0.1,0.3-0.2,0.5-0.5,0.5c-0.5,0-0.9-0.7-1.1-1.1l0-0.1l0,0.1c0,0.2-0.1,0.5-0.1,0.8l0,0l0,0
		c1,1.3,1.4,2.2,1.4,2.9c0,0.5-0.2,0.8-0.6,0.8c-0.3,0-1-0.2-1.2-2.4c0-0.4-0.1-0.8-0.1-1.2l0,0l0,0c-0.5-0.7-1.4-1.8-2.4-1.8
		c-0.9,0-1.5,0.7-1.5,1.9c0,1.6,1.2,2.7,2,2.7l0,0c0.2,0,0.4-0.1,0.5-0.2c0.1-0.1,0.2-0.2,0.2-0.4c0-0.2-0.1-0.3-0.1-0.5
		c0,0,0-0.1-0.1-0.1c0,0,0-0.1,0-0.1c0,0,0.1-0.1,0.2-0.1c0.2,0,0.5,0.3,0.5,0.8c0,0.5-0.4,1-1.1,1c-1.1,0-2.5-1.2-2.5-3.1
		c0-1.4,0.9-2.3,2-2.3c0.8,0,1.6,0.6,2.4,1.6l0,0.1l0-0.1c0-0.4,0-0.6,0.1-0.9c0-0.1,0-0.2,0-0.3c0-0.1,0-0.2,0.1-0.2
		c0,0,0.1-0.1,0.2-0.1c0.2,0,0.2,0.1,0.3,0.4l0,0.1c0.1,0.3,0.4,1.4,0.8,1.4c0.1,0,0.1,0,0.2-0.1c0.1-0.1,0.1-0.3,0.1-0.6
		c0-0.2,0-0.3,0-0.5c0-0.4,0.2-0.6,0.6-0.6c0.3,0,0.7,0.4,0.9,0.7l0,0.1l0-0.1c0-0.2,0.2-0.8,0.7-0.8c0.4,0,0.8,0.5,1.2,1.4l0.1,0.1
		l0-0.1c0-0.4,0-0.8,0-1.1c0-0.3,0-0.4,0.1-0.4c0,0,0,0,0,0c0.1,0,0.2,0.1,0.2,0.2c0.3,1.1,0.6,1.6,0.8,1.6c0.3,0,0.3-0.5,0.3-1.3
		l0-0.1c0-0.3,0-0.4,0.2-0.4c0.1,0,0.2,0.1,0.2,0.4c0,0.1,0,0.1,0,0.2c0.2,0.9,0.5,1.2,0.7,1.2c0.2,0,0.2-0.2,0.2-0.3
		c0-0.2,0-0.3,0-0.5c0-0.1,0-0.3,0-0.4c0-0.3,0.2-0.5,0.5-0.5c0.4,0,0.8,0.5,1.1,1.5l0,0.1l0-0.1c0.1-0.2,0.1-0.4,0.2-0.6l0,0l0,0
		c-0.3-0.7-0.5-1.5-0.5-1.9c0-0.6,0.2-0.9,0.6-0.9h0c0.2,0,0.7,0.1,0.7,0.9c0,0.3-0.1,0.8-0.2,1.4l0,0.1l0.1,0
		C142,63.8,142.3,63.8,142.5,63.8 M121,65.7L121,65.7L121,65.7"/>
</g>
<g>
	<path class="st6" d="M120.1,86.6c-0.3,0-0.6,0.1-0.8,0.2v2.5c0.2,0,0.4,0,0.6,0c0.8,0,0.9-0.4,0.9-0.9v-1.2
		C120.8,86.9,120.7,86.6,120.1,86.6z M114.7,86.4c-0.6,0-0.7,0.3-0.7,0.7v0.2h1.4v-0.2C115.4,86.7,115.3,86.4,114.7,86.4z
		 M104.3,89.1c0,0.3,0.1,0.5,0.5,0.5c0.3,0,0.5-0.1,0.8-0.2v-0.6h-0.7C104.5,88.7,104.3,88.8,104.3,89.1z M125.3,86.6
		c-0.6,0-0.8,0.3-0.8,0.7v1.4c0,0.4,0.2,0.7,0.8,0.7c0.6,0,0.8-0.3,0.8-0.7v-1.4C126.1,86.9,125.9,86.6,125.3,86.6z M101.6,90.6
		h-1.7v-4h-0.8v-1.4h0.8v-0.8c0-1.1,0.5-1.8,1.8-1.8h1.1V84h-0.7c-0.5,0-0.5,0.2-0.5,0.6l0,0.7h1.2l-0.1,1.4h-1.1V90.6z M107.2,90.6
		h-1.4l-0.1-0.3c-0.6,0.3-1.2,0.4-1.6,0.4c-1,0-1.5-0.7-1.5-1.6c0-1.1,0.6-1.5,1.7-1.5h1.1v-0.2c0-0.6-0.1-0.7-0.9-0.7h-1.4l0.1-1.4
		h1.5c1.9,0,2.3,0.6,2.3,2.1V90.6z M111.9,86.7c-0.9-0.1-1.1-0.2-1.5-0.2c-0.7,0-1,0.2-1,0.8v1.2c0,0.6,0.2,0.8,1,0.8
		c0.4,0,0.7,0,1.5-0.2v1.3c-0.7,0.2-1.2,0.2-1.7,0.2c-1.8,0-2.5-0.9-2.5-2.3v-1c0-1.3,0.7-2.3,2.5-2.3c0.4,0,0.9,0,1.7,0.2V86.7z
		 M117.1,88.4h-3v0.1c0,0.6,0.2,0.8,1,0.8c0.7,0,1.1,0,1.9-0.2v1.3c-0.8,0.2-1.3,0.2-2.1,0.2c-1.8,0-2.5-0.9-2.5-2.3v-1.1
		c0-1.2,0.5-2.1,2.3-2.1c1.8,0,2.3,1,2.3,2.1V88.4z M122.4,88.5c0,1.3-0.4,2.3-2.6,2.3c-0.8,0-1.3-0.1-2.2-0.2v-7.4l1.7-0.3v2.6
		c0.4-0.1,0.8-0.2,1.2-0.2c1.7,0,1.9,0.7,1.9,1.9V88.5z M127.7,88.5c0,1.1-0.5,2.2-2.4,2.2c-1.9,0-2.4-1.1-2.4-2.2v-1.1
		c0-1.1,0.5-2.2,2.4-2.2c1.9,0,2.4,1.1,2.4,2.2V88.5z M133,88.5c0,1.1-0.5,2.2-2.4,2.2c-1.9,0-2.4-1.1-2.4-2.2v-1.1
		c0-1.1,0.5-2.2,2.4-2.2c1.9,0,2.4,1.1,2.4,2.2V88.5z M138.4,90.6h-1.8l-1.5-2.5v2.5h-1.7v-7.6l1.7-0.3v4.9l1.5-2.4h1.8l-1.7,2.6
		L138.4,90.6z M130.6,86.6c-0.6,0-0.8,0.3-0.8,0.7v1.4c0,0.4,0.2,0.7,0.8,0.7c0.6,0,0.8-0.3,0.8-0.7v-1.4
		C131.4,86.9,131.2,86.6,130.6,86.6z"/>
	<path class="st6" d="M139.4,89.7c0.3,0,0.5,0.2,0.5,0.5c0,0.3-0.2,0.5-0.5,0.5c-0.3,0-0.5-0.2-0.5-0.5
		C138.9,89.9,139.1,89.7,139.4,89.7L139.4,89.7z M139.4,89.8c-0.2,0-0.4,0.2-0.4,0.4c0,0.2,0.2,0.4,0.4,0.4c0.2,0,0.4-0.2,0.4-0.4
		C139.8,90,139.6,89.8,139.4,89.8L139.4,89.8z M139.3,90.5L139.3,90.5l-0.1-0.6c0,0,0.1,0,0.2,0c0.1,0,0.1,0,0.2,0
		c0,0,0.1,0.1,0.1,0.1c0,0.1,0,0.1-0.1,0.1v0c0,0,0.1,0.1,0.1,0.1c0,0.1,0,0.1,0,0.1h-0.1c0,0,0-0.1,0-0.1c0-0.1,0-0.1-0.1-0.1h-0.1
		V90.5z M139.3,90.2L139.3,90.2c0.1,0,0.2,0,0.2-0.1c0,0,0-0.1-0.1-0.1c0,0-0.1,0-0.1,0V90.2z"/>
</g>
<g>
	<g>
		<path class="st6" d="M117.6,64.2c-0.4,0.2-0.8,0.3-1.2,0.3c-0.3,0-0.5,0-0.8-0.1c-0.4,0.4-0.9,0.6-1.1,0.8
			c0.3,0.5,0.8,0.9,1.5,1.1c0.2,0,0.4,0.1,0.6,0.1c0.4,0,0.9-0.1,1.2-0.3c0.1-0.2,0.1-0.4,0.1-0.6C117.9,64.9,117.8,64.5,117.6,64.2
			z"/>
	</g>
	<g>
		<path class="st6" d="M117.2,61.1C117.1,61.1,117.1,61.1,117.2,61.1L117.2,61.1C117.1,61.1,117.1,61.1,117.2,61.1z"/>
		<path class="st6" d="M117.1,61.1c-0.1,0.5-0.3,0.9-0.6,1.2c0,0.1,0,0.2,0,0.3c0,0.6-0.3,1.1-0.7,1.5c0.1,0,0.2,0,0.3,0
			c0.5,0,1.1-0.2,1.5-0.5c0.5-0.4,0.8-1,0.9-1.6C118.2,61.6,117.7,61.3,117.1,61.1C117.1,61.1,117.1,61.1,117.1,61.1L117.1,61.1z"/>
	</g>
	<g>
		<path class="st6" d="M116.7,60.7c0-0.7-0.3-1.3-0.7-1.7c0,0,0,0,0,0c-0.6,0-1.1,0.2-1.6,0.6c0.4,0.5,0.6,1.1,0.6,1.7
			c0,0,0,0.1,0,0.1c0.1,0,0.2,0,0.3,0c0,0,0,0,0,0c0.4,0,0.8,0.2,1,0.6C116.6,61.6,116.7,61.2,116.7,60.7z"/>
	</g>
	<g>
		<path class="st6" d="M112.3,59.1C112.3,59.1,112.2,59.1,112.3,59.1c-0.5,0.4-0.7,1-0.7,1.6c0,0,0,0,0,0c0,0,0.1,0,0.1,0
			c0.7,0,1.3,0.3,1.7,0.7c0.4,0,0.7,0.2,0.9,0.6c0.1-0.2,0.3-0.4,0.4-0.4c0,0,0-0.1,0-0.1c0-0.7-0.3-1.3-0.8-1.8
			C113.5,59.3,112.9,59.1,112.3,59.1z"/>
	</g>
	<g>
		<polygon class="st6" points="113.1,61.5 113.1,61.5 113.1,61.5 		"/>
		<path class="st6" d="M113,61.5c-0.4-0.2-0.8-0.3-1.2-0.3c-0.1,0-0.3,0-0.4,0c-0.6,0.1-1.2,0.5-1.5,1c0.1,0.6,0.4,1.1,0.9,1.5
			c0.4-0.5,0.9-0.8,1.4-0.9c0,0,0-0.1,0-0.1C112.1,62,112.5,61.6,113,61.5z"/>
	</g>
	<g>
		<path class="st6" d="M110.8,64.2c-0.2,0.4-0.3,0.8-0.3,1.1c0,0.2,0,0.5,0.1,0.7c0.4,0.2,0.8,0.3,1.2,0.3c0.2,0,0.4,0,0.6-0.1
			c-0.1-0.2-0.1-0.4-0.1-0.7c0-0.5,0.2-1,0.5-1.4c-0.3-0.3-0.5-0.7-0.6-1.1C111.6,63.2,111.1,63.6,110.8,64.2z"/>
	</g>
	<g>
		<polygon class="st6" points="112.9,66.5 112.9,66.5 112.9,66.5 112.9,66.5 		"/>
		<path class="st6" d="M114.2,67.7c0.5-0.2,1-0.7,1.3-1.3c-0.6-0.3-1.1-0.7-1.3-1.3c-0.2-0.1-0.7-0.4-1.2-0.8
			c-0.2,0.3-0.3,0.7-0.3,1.1c0,0.3,0.1,0.7,0.2,1C113.2,67,113.7,67.5,114.2,67.7z"/>
		<polygon class="st6" points="112.9,66.4 112.9,66.5 112.9,66.5 		"/>
	</g>
	<g>
		<path class="st6" d="M122.1,64.7l-2.1,2.5h1.8c0.2,0,0.4,0.2,0.4,0.4c0,0.2-0.2,0.4-0.4,0.4h-2.7c-0.2,0-0.4-0.2-0.4-0.4
			c0-0.1,0-0.2,0.1-0.3l2.1-2.5h-1.8c-0.2,0-0.4-0.2-0.4-0.4c0-0.2,0.2-0.4,0.4-0.4h2.6c0.3,0,0.4,0.2,0.4,0.4
			C122.2,64.6,122.1,64.7,122.1,64.7z"/>
		<path class="st6" d="M126.3,66.3c0,0,0,0-2.8,0c0,0.6,0.5,1.1,1.2,1.1c0.5,0,0.9-0.2,1.2-0.5c0.1-0.1,0.1-0.1,0.2-0.1
			c0.1,0,0.2,0.1,0.3,0.1c0,0.1,0.1,0.1,0.1,0.2c0,0.1,0,0.2-0.1,0.3c-0.4,0.4-1,0.7-1.6,0.7c-1.1,0-2.1-0.9-2.1-2.1
			c0-1.1,0.9-2.1,2-2.1c1.1,0,2,0.9,2,2C126.7,66.2,126.5,66.3,126.3,66.3z M124.7,64.7c-0.6,0-1,0.4-1.1,1c1.4,0,2.2,0,2.2,0
			C125.7,65.1,125.3,64.7,124.7,64.7z"/>
		<path class="st6" d="M135.5,68.1c-0.2,0-0.4-0.2-0.4-0.4v-0.2c-0.3,0.4-0.7,0.7-1.3,0.7c-1.1,0-1.9-0.9-1.9-2.1
			c0-1.2,0.8-2.1,1.9-2.1c0.6,0,1.1,0.3,1.3,0.7v-2.3c0-0.2,0.2-0.4,0.4-0.4c0.2,0,0.4,0.2,0.4,0.4v5.3
			C135.9,67.9,135.7,68.1,135.5,68.1z M133.9,64.8c-0.7,0-1.2,0.6-1.2,1.3c0,0.7,0.5,1.3,1.2,1.3c0.7,0,1.2-0.5,1.2-1.3
			C135.1,65.3,134.6,64.8,133.9,64.8z"/>
		<path class="st6" d="M140.4,66.3c0,0,0,0-2.8,0c0,0.6,0.5,1.1,1.2,1.1c0.5,0,0.9-0.2,1.2-0.5c0.1-0.1,0.1-0.1,0.2-0.1
			c0.1,0,0.2,0.1,0.3,0.1c0,0.1,0.1,0.1,0.1,0.2c0,0.1,0,0.2-0.1,0.3c-0.4,0.4-1,0.7-1.6,0.7c-1.1,0-2.1-0.9-2.1-2.1
			c0-1.1,0.9-2.1,2-2.1c1.1,0,2,0.9,2,2C140.7,66.2,140.6,66.3,140.4,66.3z M138.8,64.7c-0.6,0-1,0.4-1.1,1c1.4,0,2.2,0,2.2,0
			C139.8,65.1,139.3,64.7,138.8,64.7z"/>
		<path class="st6" d="M142.9,68.1c-0.4,0-1-0.1-1.4-0.4c-0.1-0.1-0.2-0.2-0.2-0.3c0,0,0-0.1,0-0.1c0.1-0.1,0.2-0.2,0.3-0.2
			c0.1,0,0.1,0,0.2,0.1c0.3,0.2,0.7,0.3,1.1,0.3c0.4,0,0.9-0.1,0.9-0.5c0-0.3-0.2-0.4-1.2-0.7c-0.8-0.3-1.1-0.6-1.1-1.2
			c0-0.7,0.7-1.1,1.5-1.1c0.6,0,1,0.1,1.3,0.3c0.2,0.1,0.2,0.2,0.2,0.3c0,0,0,0.1,0,0.1c-0.1,0.1-0.2,0.2-0.3,0.2c0,0-0.1,0-0.1,0
			c-0.3-0.2-0.7-0.2-1-0.2c-0.5,0-0.8,0.1-0.8,0.4c0,0.3,0.2,0.4,0.9,0.6c0.8,0.3,1.4,0.5,1.4,1.2C144.6,67.5,144,68.1,142.9,68.1z"
			/>
		<path class="st6" d="M148.6,68.1c-0.1,0-0.2,0-0.3-0.1l-1.5-1.7l-0.4,0.4v1c0,0.2-0.2,0.4-0.4,0.4c-0.2,0-0.4-0.2-0.4-0.4v-5.3
			c0-0.2,0.2-0.4,0.4-0.4c0.2,0,0.4,0.2,0.4,0.4v3.2l1.9-1.4c0.1-0.1,0.2-0.1,0.2-0.1c0.1,0,0.2,0.1,0.3,0.2
			c0.1,0.1,0.1,0.2,0.1,0.3c0,0.1-0.1,0.2-0.2,0.3l-1.3,1l1.4,1.7c0.1,0.1,0.1,0.2,0.1,0.3C149,67.9,148.9,68,148.6,68.1z"/>
		<path class="st6" d="M129.3,64c-1,0-1.9,0.8-1.9,1.9v1.8c0,0.2,0.2,0.4,0.4,0.4c0.2,0,0.4-0.2,0.4-0.4v-1.8c0-0.6,0.3-1.1,1-1.1
			c0.6,0,1,0.5,1,1.1v1.8c0,0.2,0.2,0.4,0.4,0.4c0.2,0,0.4-0.2,0.4-0.4v-1.8C131.1,64.8,130.3,64,129.3,64z"/>
	</g>
	<path class="st6" d="M148.1,62.4c0-0.2,0.2-0.4,0.4-0.4c0.2,0,0.4,0.2,0.4,0.4c0,0.2-0.2,0.4-0.4,0.4
		C148.2,62.8,148.1,62.6,148.1,62.4z M148.8,62.4c0-0.2-0.1-0.3-0.3-0.3s-0.3,0.1-0.3,0.3c0,0.2,0.1,0.3,0.3,0.3
		S148.8,62.6,148.8,62.4z M148.3,62.5v-0.4c0,0,0-0.1,0.1-0.1h0.2c0.1,0,0.2,0.1,0.2,0.1c0,0.1,0,0.1-0.1,0.1l0.1,0.1c0,0,0,0,0,0
		c0,0,0,0,0,0c0,0,0,0-0.1,0l-0.1-0.2h-0.1c0,0,0,0,0,0v0.1C148.4,62.6,148.4,62.6,148.3,62.5C148.3,62.6,148.3,62.6,148.3,62.5z
		 M148.6,62.3C148.6,62.2,148.6,62.2,148.6,62.3l-0.2-0.1c0,0,0,0,0,0v0.1c0,0,0,0,0,0L148.6,62.3C148.6,62.3,148.6,62.3,148.6,62.3
		z"/>
</g>
<g>
	<path class="st6" d="M92.5,16.5c-0.1-0.2-0.1-0.5-0.1-0.7c0-1,0.8-1.8,1.8-1.8s1.8,0.8,1.8,1.8c0,0.1,0,0.2,0,0.3l2.1,1.3
		c0.3-0.3,0.8-0.5,1.3-0.5c0.2,0,0.4,0,0.6,0.1l3.4-5c-0.3-0.3-0.5-0.8-0.5-1.3c0-1,0.8-1.8,1.8-1.8s1.8,0.8,1.8,1.8
		c0,0.2,0,0.3-0.1,0.5l2,1.2V8.4c0-0.8-0.7-1.5-1.5-1.5H92.2c-0.8,0-1.5,0.7-1.5,1.5v10L92.5,16.5z"/>
	<path class="st6" d="M105.8,12.2c-0.3,0.2-0.7,0.4-1.1,0.4c-0.2,0-0.4,0-0.5-0.1l-3.4,5.1c0.2,0.3,0.4,0.7,0.4,1.1
		c0,1-0.8,1.8-1.8,1.8s-1.8-0.8-1.8-1.8c0-0.1,0-0.3,0-0.4L95.5,17c-0.3,0.4-0.8,0.6-1.3,0.6c-0.3,0-0.6-0.1-0.8-0.2L90.7,20v2.7
		c0,0.8,0.7,1.5,1.5,1.5h14.7c0.8,0,1.5-0.7,1.5-1.5v-9L105.8,12.2z"/>
</g>
</svg>
