<?xml version="1.0" encoding="utf-8"?>
<!-- Generator: Adobe Illustrator 18.0.0, SVG Export Plug-In . SVG Version: 6.00 Build 0)  -->
<!DOCTYPE svg PUBLIC "-//W3C//DTD SVG 1.1//EN" "http://www.w3.org/Graphics/SVG/1.1/DTD/svg11.dtd">
<svg version="1.1" id="Layer_1" xmlns="http://www.w3.org/2000/svg" xmlns:xlink="http://www.w3.org/1999/xlink" x="0px" y="0px"
	 viewBox="0 0 60 60" enable-background="new 0 0 60 60" xml:space="preserve">
<g>
	<path fill="none" stroke="#8CC640" stroke-width="3" stroke-miterlimit="10" d="M30.1,58.1c-15.3,0-27.8-12.5-27.8-27.8
		S14.8,2.5,30.1,2.5S57.9,15,57.9,30.3S45.4,58.1,30.1,58.1z"/>
</g>
<g>
	<path fill="none" stroke="#8CC640" stroke-width="2" stroke-miterlimit="10" d="M24.1,26v-4.2c0-3.6,3-6.6,6.6-6.6
		c3.6,0,6.6,3,6.6,6.6V26"/>
	<path fill="none" stroke="#8CC640" stroke-width="2" stroke-miterlimit="10" d="M40.6,25.1H20.8c-0.5,0-0.8,0.4-0.8,0.8v15.9
		c0,1.6,1.3,2.8,2.8,2.8h15.9c1.6,0,2.8-1.3,2.8-2.8V26C41.5,25.5,41.1,25.1,40.6,25.1z"/>
	<path fill="none" stroke="#8CC640" stroke-miterlimit="10" d="M31.8,34.6v4.7h-2.1v-4.7c-0.6-0.4-0.9-1-0.9-1.7c0-1.1,0.9-2,2-2
		c1.1,0,2,0.9,2,2C32.8,33.6,32.4,34.3,31.8,34.6z"/>
</g>
</svg>
