<?xml version="1.0" encoding="utf-8"?>
<!-- Generator: Adobe Illustrator 19.2.0, SVG Export Plug-In . SVG Version: 6.00 Build 0)  -->
<svg version="1.1" id="Layer_1" xmlns="http://www.w3.org/2000/svg" xmlns:xlink="http://www.w3.org/1999/xlink" x="0px" y="0px"
	 viewBox="0 0 320 230" style="enable-background:new 0 0 320 230;" xml:space="preserve">
<style type="text/css">
	.st0{fill:none;stroke:#8BC541;stroke-width:2;stroke-miterlimit:10;}
	.st1{opacity:0.5;fill:none;stroke:#3B4251;stroke-width:3;stroke-linecap:round;stroke-miterlimit:10;}
	.st2{fill:none;stroke:#3B4251;stroke-width:3;stroke-miterlimit:10;}
	.st3{fill:none;stroke:#3B4251;stroke-width:3;stroke-linecap:round;stroke-miterlimit:10;}
	.st4{fill:none;stroke:#3B4251;stroke-width:2;stroke-miterlimit:10;}
	.st5{opacity:0.5;fill:none;stroke:#3B4251;stroke-width:2;stroke-miterlimit:10;}
	.st6{opacity:0.2;fill-rule:evenodd;clip-rule:evenodd;fill:#8BC541;enable-background:new    ;}
	.st7{opacity:0.1;fill:#3C4352;}
	.st8{fill-rule:evenodd;clip-rule:evenodd;fill:none;stroke:#8BC541;stroke-width:3;stroke-miterlimit:10;}
	.st9{fill-rule:evenodd;clip-rule:evenodd;fill:none;stroke:#8BC541;stroke-width:2;stroke-miterlimit:10;}
	.st10{fill-rule:evenodd;clip-rule:evenodd;fill:none;stroke:#3B4251;stroke-width:3;stroke-miterlimit:10;}
	.st11{opacity:0.5;fill:none;stroke:#3B4251;stroke-width:2;stroke-linecap:round;stroke-miterlimit:10;}
	.st12{opacity:0.1;fill:#3B4251;}
	.st13{opacity:0.1;fill-rule:evenodd;clip-rule:evenodd;fill:#3B4251;}
</style>
<path class="st0" d="M172.2,91.5l40.8,10.1c1.8,0.5,3.1,2.1,3.1,4l0,0"/>
<path class="st0" d="M149.8,91.5L109,101.6c-1.8,0.5-3.1,2.1-3.1,4v0"/>
<circle class="st1" cx="160.9" cy="51.4" r="34.9"/>
<path class="st2" d="M171.5,93.9v-8.3l0-0.9c14.1-4.5,24.3-17.7,24.3-33.2c0-19.3-15.6-34.9-34.9-34.9S126,32.1,126,51.4
	c0,15.4,9.9,28.4,23.8,33.1l0,1.1v8.3l0,0.9c3.5,1.2,7.2,1.8,11.1,1.8c3.7,0,7.2-0.6,10.6-1.7L171.5,93.9z"/>
<g>
	<path class="st2" d="M118.6,51.1c0-23.3,18.9-42.3,42.3-42.3s42.3,18.9,42.3,42.3"/>
	<path class="st2" d="M203.2,51.1c0,11.4-4.5,21.8-11.9,29.4"/>
	<path class="st3" d="M118.6,51.1c0,5.2,0.9,10.1,2.6,14.7"/>
	<circle class="st4" cx="188.1" cy="84.4" r="6.2"/>
	<path class="st5" d="M201.7,40.1c0.6-0.3,1.3-0.5,2.1-0.5l0,0c2.6,0,4.6,2.1,4.6,4.6v14.1c0,2.6-2.1,4.6-4.6,4.6l0,0
		c-0.6,0-1.2-0.1-1.8-0.4"/>
	<path class="st5" d="M120.1,40.1c-0.6-0.3-1.3-0.5-2.1-0.5h0c-2.6,0-4.6,2.1-4.6,4.6v14.1c0,2.6,2.1,4.6,4.6,4.6h0
		c0.6,0,1.2-0.1,1.8-0.4"/>
</g>
<g>
	<path class="st6" d="M247.5,216.1c-0.5,0.2-2.6,0.7-3.5,0.8c-0.9,0.1-3.4,0.1-3.4,0.1H79.2c0,0-2.5,0-3.4-0.1
		c-0.9-0.1-3-0.6-3.5-0.8c-0.3-0.1-0.7-0.3-1-0.4c0,1.4,0,2.7,0,2.7c0.2,0.3,1.4,0.8,2.5,1.3c0.5,0.2,2.5,0.7,3.4,0.8
		c0.9,0.1,3.4,0.1,3.4,0.1h158.6c0,0,2.5,0,3.4-0.1c0.9-0.1,2.9-0.6,3.4-0.8c1.1-0.4,2.3-1,2.5-1.3c0,0,0-1.4,0-2.7
		C248.2,215.8,247.8,216,247.5,216.1z"/>
	<path class="st7" d="M256,217.2h-7.6c0,0.4,0,0.6,0,0.6c-0.2,0.3-1.4,0.8-2.5,1.3c-0.5,0.2-2.5,0.7-3.4,0.8
		c-0.9,0.1-3.4,0.1-3.4,0.1H80.6c0,0-2.5,0-3.4-0.1c-0.9-0.1-2.9-0.6-3.4-0.8c-1.1-0.4-2.3-1-2.5-1.3c0,0,0-0.3,0-0.6h-10
		c-1.3,0-2.3,1-2.3,2.3v0c0,1.3,1,2.3,2.3,2.3H256c1.3,0,2.3-1,2.3-2.3v0C258.3,218.2,257.3,217.2,256,217.2z"/>
	<path class="st8" d="M161.5,152.8L161.5,152.8c5.6,0,10.1,4.5,10.1,10.1v0c0,5.6-4.5,10.1-10.1,10.1h0c-5.6,0-10.1-4.5-10.1-10.1v0
		C151.4,157.3,155.9,152.8,161.5,152.8z"/>
	<path class="st9" d="M228.4,212.6h19.9c0.1,0,0.2,0.1,0.2,0.2c0,0,0,5.6-0.1,5.6c-0.2,0.3-1.4,0.8-2.5,1.3
		c-0.5,0.2-2.5,0.7-3.4,0.8c-0.9,0.1-3.4,0.1-3.4,0.1H80.6c0,0-2.5,0-3.4-0.1c-0.9-0.1-2.9-0.6-3.4-0.8c-1.1-0.4-2.3-1-2.5-1.3
		c0-0.1-0.1-5.6-0.1-5.6c0-0.1,0.1-0.2,0.2-0.2h16.1H228.4z"/>
	<path class="st10" d="M65.8,105.6H254c2.8,0,5,2.3,5,5l-6.3,97c0,2.8-2.3,5-5,5h-175c-2.8,0-5-2.3-5-5l-6.9-97
		C60.7,107.8,63,105.6,65.8,105.6z"/>
</g>
<path class="st11" d="M139.4,46.9c1.9-1.9,4.4-3,7.2-3c2.8,0,5.4,1.1,7.2,3"/>
<path class="st11" d="M167.3,46.9c1.9-1.9,4.4-3,7.2-3c2.8,0,5.4,1.1,7.2,3"/>
<path class="st11" d="M172.5,59.8c0,6.4-5.2,11.6-11.6,11.6c-6.4,0-11.6-5.2-11.6-11.6H172.5z"/>
<path class="st12" d="M195.7,47.3C194.6,65.5,179.4,80,160.9,80c-18.5,0-33.7-14.4-34.8-32.7c0,0.7-0.1,1.5-0.1,2.2
	c0,19.3,15.6,34.9,34.9,34.9s34.9-15.6,34.9-34.9C195.8,48.8,195.8,48,195.7,47.3z"/>
<path class="st12" d="M188.1,87c-3,0-5.5-2.1-6.1-5c-0.1,0.4-0.1,0.8-0.1,1.2c0,3.4,2.8,6.2,6.2,6.2c3.4,0,6.2-2.8,6.2-6.2
	c0-0.4,0-0.8-0.1-1.2C193.6,84.8,191.1,87,188.1,87z"/>
<path class="st13" d="M249.9,205.5H70.5c-1.1,0-2.2-0.4-3-1l0.2,3c0,2.8,2.3,5,5,5h175c2.8,0,5-2.3,5-5l0.2-3
	C252.1,205.2,251,205.5,249.9,205.5z"/>
</svg>
