<?xml version="1.0" encoding="utf-8"?>
<!-- Generator: Adobe Illustrator 18.0.0, SVG Export Plug-In . SVG Version: 6.00 Build 0)  -->
<!DOCTYPE svg PUBLIC "-//W3C//DTD SVG 1.1//EN" "http://www.w3.org/Graphics/SVG/1.1/DTD/svg11.dtd">
<svg version="1.1" id="Layer_1" xmlns="http://www.w3.org/2000/svg" xmlns:xlink="http://www.w3.org/1999/xlink" x="0px" y="0px"
	 viewBox="0 0 482 66" enable-background="new 0 0 482 66" xml:space="preserve">
<path id="_x31_" opacity="0.5" fill="#3D4350" d="M97,28.7c-0.3,0.2-0.7,0.4-1,0.6c-1,0.5-2.1,0.6-3,0.6c-1,0-2.5-0.1-4.1-1.2
	c-2.2-1.5-3.1-4.2-3.1-6.5c0-4.8,3.9-7.1,7.1-7.1c1.1,0,2.3,0.3,3.2,0.9c1.5,1,1.9,2.3,2.2,3.1L91.1,22h-2.6
	c0.8,3.9,3.4,6.2,6.4,6.2c1.6,0,2.7-0.6,3.8-1.1L97,28.7L97,28.7z M94.1,19.5c0.6-0.2,0.9-0.4,0.9-0.8c0-1.2-1.4-2.7-3.1-2.7
	c-1.2,0-3.5,1-3.5,4.3c0,0.5,0.1,1.1,0.1,1.6L94.1,19.5L94.1,19.5z M85,29.4l1.1-0.7c-0.5-0.1-1-0.1-1.6-0.2c-1-0.1-1.2-0.3-1.2-1.5
	v-7c0-4.4,0-8.1,0.3-10.5C83.7,8.4,84,8.2,85,7.6h-4.4l-2.3,1.1h2.4c0,1.4-0.2,3.4-0.2,5c-0.1,3.2-0.1,6.6-0.1,9v5
	c0,0.6-0.1,0.7-0.8,1.6L85,29.4L85,29.4z M74.9,16.5c0.7,0.6,2.2,1.8,2.2,4.2c0,2.3-1.3,3.4-2.6,4.4c-0.4,0.4-0.9,0.8-0.9,1.5
	s0.5,1,0.8,1.3l1.1,0.9c1.4,1.1,2.6,2.2,2.6,4.3c0,2.9-2.8,5.8-8.1,5.8c-4.5,0-6.6-2.1-6.6-4.4c0-1.1,0.6-2.7,2.4-3.8
	c1.9-1.2,4.5-1.3,5.9-1.4c-0.4-0.6-0.9-1.1-0.9-2.1c0-0.5,0.2-0.8,0.3-1.2c-0.3,0-0.7,0.1-1,0.1c-3.3,0-5.1-2.4-5.1-4.8
	c0-1.4,0.6-3,2-4.1c1.8-1.4,3.9-1.7,5.5-1.7h6.4l-2,1.1L74.9,16.5L74.9,16.5z M72.7,30.2c-0.2,0-0.4,0-0.7,0c-0.3,0-1.9,0.1-3.2,0.5
	c-0.7,0.2-2.7,1-2.7,3.2s2.1,3.8,5.4,3.8c3,0,4.5-1.4,4.5-3.3C76.1,32.7,75,31.9,72.7,30.2L72.7,30.2z M73.6,24.4
	c0.7-0.7,0.8-1.7,0.8-2.3c0-2.2-1.3-5.7-3.9-5.7c-0.8,0-1.7,0.4-2.2,1s-0.7,1.5-0.7,2.3c0,2.1,1.2,5.5,3.9,5.5
	C72.3,25.2,73.1,24.9,73.6,24.4L73.6,24.4z M55.8,29.8c-4.9,0-7.5-3.8-7.5-7.3c0-4,3.3-7.5,8-7.5c4.5,0,7.4,3.5,7.4,7.3
	C63.6,25.9,60.8,29.8,55.8,29.8L55.8,29.8z M59.6,27.3c0.7-1,0.9-2.2,0.9-3.4c0-2.7-1.3-7.9-5.1-7.9c-1,0-2,0.4-2.8,1
	c-1.2,1.1-1.4,2.4-1.4,3.8c0,3.1,1.5,8.1,5.2,8.1C57.7,28.9,58.9,28.3,59.6,27.3L59.6,27.3z M39.4,29.8c-4.9,0-7.5-3.8-7.5-7.3
	c0-4,3.3-7.5,8-7.5c4.5,0,7.4,3.5,7.4,7.3C47.2,25.9,44.4,29.8,39.4,29.8L39.4,29.8z M43.2,27.3c0.7-1,0.9-2.2,0.9-3.4
	c0-2.7-1.3-7.9-5.1-7.9c-1,0-2,0.4-2.8,1c-1.2,1.1-1.4,2.4-1.4,3.8c0,3.1,1.5,8.1,5.2,8.1C41.3,28.9,42.5,28.3,43.2,27.3L43.2,27.3z
	 M29.9,28.7v-3.5c0-0.3,0-1.1,0.1-1.4c0.1-0.2,0.1-0.3,0.3-0.5l0.8-0.7H25l-2.3,1.2l4.4-0.2v4.7c-1.1,0.3-2,0.7-3.9,0.7
	C16.9,29,13,23.9,13,18.4c0-5.1,3.4-8.5,8-8.5c3.4,0,5.2,1.8,6.2,2.7l-0.7,1.2l1-0.2l2.4-2.3c-0.6-0.4-1.6-1.2-3.8-1.8
	c-1.4-0.4-2.9-0.6-4.4-0.6C14.3,8.9,10,14.1,10,19.7c0,4.6,3,10.5,11,10.5c1.6,0,3.1-0.2,4.8-0.5L29.9,28.7L29.9,28.7z M20.7,56.8
	l4.6-12H27l4.9,12h-1.8l-1.4-3.6h-5l-1.3,3.6H20.7z M24.1,51.9h4.1L27,48.6c-0.4-1-0.7-1.8-0.8-2.5c-0.2,0.8-0.4,1.5-0.6,2.3
	L24.1,51.9z M33,56.8v-8.7h1.3v1.2c0.6-1,1.6-1.4,2.8-1.4c0.5,0,1,0.1,1.4,0.3s0.8,0.4,1,0.7s0.4,0.7,0.5,1.1
	c0.1,0.3,0.1,0.8,0.1,1.4v5.3h-1.5v-5.3c0-0.6-0.1-1-0.2-1.3c-0.1-0.3-0.3-0.5-0.6-0.7s-0.6-0.3-1-0.3c-0.6,0-1.2,0.2-1.6,0.6
	c-0.5,0.4-0.7,1.2-0.7,2.3v4.7H33V56.8z M48,55.7c-0.5,0.5-1.1,0.8-1.6,1s-1,0.3-1.6,0.3c-1,0-1.7-0.2-2.2-0.7s-0.8-1.1-0.8-1.8
	c0-0.4,0.1-0.8,0.3-1.2s0.4-0.6,0.8-0.8c0.3-0.2,0.7-0.4,1.1-0.5c0.3-0.1,0.7-0.1,1.3-0.2c1.2-0.1,2.1-0.3,2.6-0.5
	c0-0.2,0-0.3,0-0.4c0-0.6-0.1-1-0.4-1.3c-0.4-0.3-0.9-0.5-1.7-0.5c-0.7,0-1.2,0.1-1.5,0.4c-0.3,0.2-0.6,0.7-0.7,1.3l-1.4-0.2
	c0.1-0.6,0.3-1.1,0.6-1.5s0.7-0.7,1.3-0.9s1.2-0.3,2-0.3c0.7,0,1.3,0.1,1.8,0.3s0.8,0.4,1,0.7s0.4,0.6,0.5,1c0,0.3,0.1,0.7,0.1,1.4
	v2c0,1.4,0,2.2,0.1,2.6c0.1,0.4,0.2,0.7,0.4,1h-1.5C48.1,56.5,48,56.1,48,55.7z M47.8,52.4c-0.5,0.2-1.3,0.4-2.4,0.6
	c-0.6,0.1-1,0.2-1.3,0.3c-0.2,0.1-0.4,0.3-0.6,0.5c-0.1,0.2-0.2,0.4-0.2,0.7c0,0.4,0.1,0.7,0.4,1c0.3,0.3,0.7,0.4,1.3,0.4
	s1.1-0.1,1.5-0.4c0.4-0.2,0.8-0.6,1-1c0.2-0.3,0.2-0.8,0.2-1.5L47.8,52.4L47.8,52.4z M51.6,56.8v-12h1.5v12H51.6z M55.3,60.2
	l-0.2-1.4c0.3,0.1,0.6,0.1,0.8,0.1c0.3,0,0.6-0.1,0.8-0.2c0.2-0.1,0.4-0.3,0.5-0.5c0.1-0.1,0.2-0.5,0.5-1.1c0-0.1,0.1-0.2,0.1-0.4
	L54.5,48h1.6l1.8,5c0.2,0.6,0.4,1.3,0.6,2c0.2-0.7,0.4-1.3,0.6-2l1.9-5.1h1.5L59.2,57c-0.4,1-0.6,1.6-0.8,2
	c-0.3,0.5-0.6,0.8-0.9,1.1c-0.3,0.2-0.7,0.3-1.2,0.3C55.9,60.3,55.6,60.3,55.3,60.2z M66.9,55.5l0.2,1.3c-0.4,0.1-0.8,0.1-1.1,0.1
	c-0.5,0-0.9-0.1-1.2-0.3c-0.3-0.2-0.5-0.4-0.6-0.7C64,55.7,64,55.1,64,54.3v-5h-1.1v-1.1H64V46l1.5-0.9v3H67v1.1h-1.5v5.1
	c0,0.4,0,0.7,0.1,0.8s0.1,0.2,0.3,0.3c0.1,0.1,0.3,0.1,0.5,0.1C66.4,55.5,66.7,55.5,66.9,55.5z M68.4,46.5v-1.7h1.5v1.7H68.4z
	 M68.4,56.8v-8.7h1.5v8.7H68.4z M77.8,53.6l1.4,0.2c-0.2,1-0.6,1.8-1.2,2.3c-0.7,0.6-1.5,0.8-2.4,0.8c-1.2,0-2.1-0.4-2.9-1.2
	c-0.7-0.8-1.1-1.9-1.1-3.3c0-0.9,0.2-1.8,0.5-2.5s0.8-1.2,1.4-1.6c0.6-0.4,1.3-0.5,2.1-0.5c0.9,0,1.7,0.2,2.3,0.7
	c0.6,0.5,1,1.2,1.2,2l-1.4,0.2c-0.1-0.6-0.4-1-0.7-1.3c-0.3-0.3-0.8-0.4-1.3-0.4c-0.7,0-1.3,0.3-1.8,0.8s-0.7,1.4-0.7,2.5
	c0,1.2,0.2,2,0.7,2.5c0.4,0.5,1,0.8,1.8,0.8c0.6,0,1.1-0.2,1.4-0.5C77.4,54.9,77.7,54.4,77.8,53.6z M79.9,54.2l1.5-0.2
	c0.1,0.6,0.3,1,0.7,1.3c0.4,0.3,0.9,0.5,1.6,0.5s1.2-0.1,1.5-0.4c0.3-0.3,0.5-0.6,0.5-1c0-0.3-0.1-0.6-0.4-0.8
	c-0.2-0.1-0.7-0.3-1.5-0.5c-1.1-0.3-1.8-0.5-2.2-0.7c-0.4-0.2-0.7-0.5-0.9-0.8c-0.2-0.4-0.3-0.7-0.3-1.2c0-0.4,0.1-0.7,0.3-1.1
	c0.2-0.3,0.4-0.6,0.7-0.8c0.2-0.2,0.5-0.3,0.9-0.4c0.4-0.1,0.8-0.2,1.3-0.2c0.7,0,1.3,0.1,1.8,0.3s0.9,0.5,1.1,0.8s0.4,0.8,0.5,1.3
	l-1.4,0.2c-0.1-0.4-0.3-0.8-0.6-1c-0.3-0.3-0.8-0.4-1.3-0.4c-0.7,0-1.2,0.1-1.4,0.3c-0.3,0.2-0.4,0.5-0.4,0.8c0,0.2,0.1,0.4,0.2,0.5
	c0.1,0.2,0.3,0.3,0.6,0.4c0.1,0.1,0.6,0.2,1.3,0.4c1,0.3,1.8,0.5,2.2,0.7s0.7,0.4,1,0.8c0.2,0.3,0.4,0.8,0.4,1.3s-0.1,1-0.4,1.4
	s-0.7,0.8-1.2,1s-1.2,0.4-1.8,0.4c-1.1,0-2-0.2-2.6-0.7C80.4,55.8,80,55.1,79.9,54.2z"/>
<path id="_x32_" opacity="0.5" fill="#3D4350" d="M185.7,15c-1.9,0.8-3.9,1.4-6.1,1.7c2.2-1.3,3.9-3.4,4.6-5.8
	c-2,1.2-4.3,2.1-6.7,2.6c-1.9-2.1-4.7-3.3-7.7-3.3c-5.8,0-10.6,4.7-10.6,10.6c0,0.8,0.1,1.6,0.3,2.4c-8.8-0.4-16.6-4.6-21.8-11
	c-0.9,1.6-1.4,3.4-1.4,5.3c0,3.7,1.9,6.9,4.7,8.8c-1.7-0.1-3.4-0.5-4.8-1.3v0.1c0,5.1,3.6,9.4,8.5,10.4c-0.9,0.2-1.8,0.4-2.8,0.4
	c-0.7,0-1.3-0.1-2-0.2c1.3,4.2,5.2,7.3,9.9,7.3c-3.6,2.8-8.2,4.5-13.1,4.5c-0.9,0-1.7-0.1-2.5-0.1c4.7,3,10.2,4.8,16.2,4.8
	c19.4,0,30.1-16.1,30.1-30.1c0-0.5,0-0.9,0-1.4C182.4,18.9,184.2,17.1,185.7,15L185.7,15z"/>
<path id="_x33_" opacity="0.5" fill="#3D4350" d="M274.8,9.1h-41.1c-1.4,0-2.6,1.1-2.6,2.6v41.1c0,1.4,1.1,2.6,2.6,2.6h22.1v-18h-6
	v-7h6v-5.1c0-6,3.6-9.2,9-9.2c2.6,0,4.7,0.2,5.4,0.3v6.2h-3.7c-2.9,0-3.5,1.4-3.5,3.4v4.5h6.9l-0.9,7h-6v17.9h11.8
	c1.4,0,2.6-1.1,2.6-2.6V11.6C277.3,10.2,276.2,9.1,274.8,9.1z"/>
<path id="_x34_" opacity="0.5" fill="#3D4350" d="M344.6,42.1c0,3.4,0,6.6,0,9.8c0,2.1-0.9,3.8-2.8,4.8c-3,1.5-6.7-0.6-7-4
	c0-0.2,0-0.4,0-0.6c0-9-0.1-17.9,0-26.9c0.1-6.5,2.9-11.6,8.3-15.2c6.3-4.2,12.9-4.4,19.5-0.9c9.1,4.9,12.4,16.7,7.2,25.7
	c-5,8.7-15.7,11.9-24.7,7.4C345,42.3,344.8,42.3,344.6,42.1z M362.5,25.6c0-5-4-9-9-9s-8.9,4-9,9c0,5,3.9,9,9,9
	C358.5,34.6,362.5,30.6,362.5,25.6z"/>
<g id="_x35_" opacity="0.5">
	<path fill="#3D4350" d="M456.6,37.9c-1.6,0-3.2-0.3-4.5-0.8c-2.4,2.2-5.1,3.8-6.4,4.5c1.9,3,5,5.4,8.7,6.3c1.2,0.3,2.3,0.4,3.5,0.4
		c2.6,0,5.1-0.7,7.2-1.8c0.3-1.2,0.5-2.4,0.5-3.7c0-2.3-0.6-4.6-1.7-6.8C461.6,37.2,459.1,37.9,456.6,37.9z"/>
	<path fill="#3D4350" d="M457.6,26.8c0,3.4-1.8,6.3-3.9,8.7c0.6,0.1,1.3,0.1,1.9,0.1c3.1,0,6.3-1,8.9-3.1c3.1-2.4,4.9-5.8,5.4-9.3
		c-2.1-2.7-5.1-4.7-8.5-5.5c-0.2,0-0.3-0.1-0.5-0.2l0,0v0.1c-0.4,2.9-1.7,5.5-3.4,7.4C457.5,25.7,457.6,26.3,457.6,26.8z"/>
	<path fill="#3D4350" d="M448.8,20c0.6-0.1,1.2,0,1.8,0c0,0,0.1,0,0.2,0c2.3,0,4.5,0.9,5.8,3c1.3-2.2,2.1-5,2.1-7.7
		c0-3.9-1.5-7.3-3.9-10.3c-0.1,0-0.1,0-0.2,0c-3.5,0-6.5,1.4-9.2,3.9c2.6,2.8,3.6,6.5,3.6,10.1C448.8,19.2,448.8,19.7,448.8,20z"/>
	<path fill="#3D4350" d="M438.9,19.5c2.2,0.2,4.4,1.3,5.5,3.6c0.6-1.2,1.6-2.1,2.5-2.6c0-0.2,0-0.3,0-0.5c0-4-1.7-8-4.9-10.8
		c-2.8-2.4-6.2-3.6-9.6-3.6c-0.2,0-0.4,0-0.5,0c-2.4,2.6-3.8,6-3.8,9.7c0,0.1,0,0.1,0,0.1c0.2,0,0.3,0,0.5,0
		C432.7,15.4,436.4,17,438.9,19.5z"/>
	<polygon fill="#3D4350" points="437.1,19.8 437,19.8 437,19.8 	"/>
	<path fill="#3D4350" d="M431.4,27.3c0-0.1,0-0.3,0-0.5c0-3.9,2.4-6.4,5.2-7.1c-2.2-1.3-4.7-2-7.3-2c-0.8,0-1.7,0.1-2.5,0.2
		c-3.8,0.7-7.1,2.8-9.1,5.6c0.6,3.5,2.4,6.8,5.4,9.1C425.2,29.8,428.2,27.9,431.4,27.3z"/>
	<path fill="#3D4350" d="M435.3,35.6c-1.7-1.8-3.1-4-3.7-6.4c-3.2,1.2-6,3.5-7.8,6.8c-1.2,2.2-1.7,4.5-1.7,6.8
		c0,1.4,0.2,2.7,0.5,3.9c2.1,1.2,4.5,1.8,6.9,1.8c1.2,0,2.3-0.1,3.5-0.4c-0.4-1.3-0.5-2.6-0.5-3.9C432.6,41,433.6,38,435.3,35.6z"/>
	<polygon fill="#3D4350" points="436,49.5 436,49.5 436.1,49.4 436.3,49.4 436.1,49.4 	"/>
	<path fill="#3D4350" d="M443.6,41.7c-1.2-0.6-4.2-2.3-7-4.9c-1.1,2-1.6,4.3-1.6,6.6c0,2,0.4,4,1.3,5.9c1.6,3.6,4.5,6.2,7.7,7.5
		c3.2-1.4,6-4,7.5-7.4C447.8,47.9,445,45.1,443.6,41.7z"/>
</g>
</svg>
