<?xml version="1.0" encoding="utf-8"?>
<!-- Generator: Adobe Illustrator 19.2.0, SVG Export Plug-In . SVG Version: 6.00 Build 0)  -->
<svg version="1.1" id="Layer_1" xmlns="http://www.w3.org/2000/svg" xmlns:xlink="http://www.w3.org/1999/xlink" x="0px" y="0px"
	 viewBox="0 0 320 230" style="enable-background:new 0 0 320 230;" xml:space="preserve">
<style type="text/css">
	.st0{opacity:0.1;fill:#3B4251;}
	.st1{opacity:0.5;}
	.st2{fill:none;stroke:#3B4251;stroke-width:2;stroke-miterlimit:10;stroke-dasharray:6;}
	.st3{opacity:0.1;}
	.st4{fill-rule:evenodd;clip-rule:evenodd;fill:#3B4251;}
	
		.st5{opacity:0.2;fill-rule:evenodd;clip-rule:evenodd;fill:none;stroke:#3B4251;stroke-width:3;stroke-linecap:round;stroke-miterlimit:10;}
	.st6{fill-rule:evenodd;clip-rule:evenodd;fill:none;stroke:#3B4251;stroke-width:3;stroke-miterlimit:10;}
	.st7{fill:#8DC63F;}
	.st8{opacity:0.2;}
	.st9{fill:#3B4251;}
	.st10{fill:#3D4351;}
	.st11{fill:#8BC541;}
	.st12{opacity:0.2;fill:none;stroke:#3B4251;stroke-width:2;stroke-miterlimit:10;}
	.st13{opacity:0.5;fill:none;stroke:#8BC541;stroke-width:2;stroke-miterlimit:10;}
	
		.st14{opacity:0.5;fill-rule:evenodd;clip-rule:evenodd;fill:none;stroke:#3B4251;stroke-width:2;stroke-linecap:round;stroke-miterlimit:10;}
	.st15{fill:none;stroke:#3B4251;stroke-width:2;stroke-miterlimit:10;}
	.st16{opacity:0.2;fill:#8BC541;}
	.st17{fill:none;stroke:#8BC541;stroke-width:0.5;stroke-miterlimit:10;}
	.st18{opacity:0.5;fill:#8BC541;}
	.st19{fill:#FFFFFF;}
	.st20{opacity:0.25;fill:#3D4351;}
	.st21{fill:#3C4352;}
	.st22{opacity:0.5;fill:#8BC541;enable-background:new    ;}
	.st23{fill-rule:evenodd;clip-rule:evenodd;fill:none;stroke:#8BC541;stroke-width:2;stroke-miterlimit:10;}
	.st24{fill:none;stroke:#3B4251;stroke-width:1.5;stroke-miterlimit:10;}
</style>
<g>
	<path class="st0" d="M181.1,227.2H11.3c-1.1,0-2-0.9-2-2l0,0c0-1.1,0.9-2,2-2h52.2l1.5,2h45.8l1.4-2h61.7l1.1,2.3L181.1,227.2z"/>
	<g>
		<g class="st1">
			<path class="st2" d="M116.1,109V97.4c0-2.2,1.8-4.1,4.1-4.1h18.8c2.3,0,4.3-1.9,4.3-4.3V68"/>
		</g>
		<g class="st1">
			<path class="st2" d="M208.7,146.4v-21.1c0-2.2-1.8-4.1-4.1-4.1h-18.8c-2.3,0-4.3-1.9-4.3-4.3V68"/>
		</g>
	</g>
	<g>
		<g class="st3">
			<path class="st4" d="M192,59.5C191.9,59.5,192,59.5,192,59.5h-60.2c-10-0.9-17.5-7.9-18.5-17.5c-0.1,0.7-0.1,1.4-0.1,2.1
				c0,10.6,7.9,18.9,18.6,19.9H192c0,0-0.1,0,0,0c8.5,0,16.8-7.5,16.8-16c0-0.7-0.1-1.4-0.2-2.1C207.6,53.4,199.8,59.5,192,59.5z"/>
			<polygon class="st4" points="196.5,28.6 196.5,28.6 196.5,28.6 			"/>
		</g>
		<path class="st5" d="M132.3,19.3c3.6,0,7,1,9.9,2.8"/>
		<path class="st5" d="M196.7,25.6c0,2.8-1.3,5.2-3.2,6.8"/>
		<path class="st5" d="M161.4,2.9c12,0,22.1,7.7,25.8,18.4"/>
		<path class="st6" d="M196.5,27.6c0.1-0.6,0.2-1.3,0.2-2c0-5.2-4.2-9.4-9.4-9.4c-0.8,0-1.6,0.1-2.3,0.3
			c-4.8-8.2-13.7-13.7-23.9-13.7c-11.3,0-21,6.8-25.3,16.5c-0.8-0.1-1.7-0.2-2.5-0.2c-10.8,0-20.1,9.4-20.1,20.1
			c0,10.6,7.9,19.1,18.6,20.1H192c0,0-0.1,0,0,0c8.5,0,16.8-7.8,16.8-16.3C208.8,35.7,203.7,28.9,196.5,27.6z"/>
		<g>
			<path class="st7" d="M162,50.3L162,50.3c-8.8,0-16-7.2-16-16v0c0-8.8,7.2-16,16-16h0c8.8,0,16,7.2,16,16v0
				C178,43.1,170.8,50.3,162,50.3z"/>
			<g class="st8">
				<path class="st9" d="M162,20.3c7.7,0,14,6.3,14,14c0,7.7-6.3,14-14,14c-7.7,0-14-6.3-14-14C148,26.6,154.3,20.3,162,20.3
					 M162,18.3L162,18.3c-8.8,0-16,7.2-16,16v0c0,8.8,7.2,16,16,16h0c8.8,0,16-7.2,16-16v0C178,25.4,170.8,18.3,162,18.3L162,18.3z"
					/>
			</g>
		</g>
		<g>
			<path class="st10" d="M162.4,26.7c2.2,0,3.7,0.8,5.1,1.9c0.2,0.2,0.2,0.4,0,0.5c-0.2,0.2-0.4,0.4-0.5,0.5c-0.2,0.2-0.3,0.2-0.5,0
				c-1.1-1-2.6-1.6-4-1.6c-3.4,0-5.9,2.8-5.9,6.1s2.5,6.1,5.9,6.1c2.3,0,3.8-0.9,3.8-0.9v-2.9h-2.4c-0.2,0-0.4-0.2-0.4-0.4v-0.8
				c0-0.2,0.2-0.4,0.4-0.4h3.7c0.2,0,0.4,0.2,0.4,0.4v5c0,0.1-0.1,0.3-0.2,0.3c0,0-2.2,1.4-5.2,1.4c-4.2,0-7.6-3.4-7.6-7.6
				S158.2,26.7,162.4,26.7z"/>
		</g>
	</g>
	<g>
		<g>
			<g>
				<g>
					<path class="st11" d="M159.3,110.7c2,0,3.6,1.6,3.6,3.6v84.2c0,2-1.6,3.6-3.6,3.6h-56.6c0.2,2.5,0.8,9.6,1,11.3
						c0.2,2.4,0.1,3.9,2,5.6c1.7,1.6,2.7,2.4,2.7,2.4c1.2,1,1.8,1.5,2,1.7c0.1,0.1,0.1,0.2,0.1,0.3c-0.2,0.4-0.8,1.1-3.2,1.1
						c-2.1,0-12.2,0-19.7,0c-7.5,0-17.4,0-19.5,0c-2.4,0-3-0.6-3.2-1c-0.1-0.1,0-0.3,0.1-0.4c0.2-0.2,0.9-0.8,2-1.8
						c0,0,1-0.8,2.7-2.4c1.9-1.7,1.8-3.2,2-5.6c0.2-1.7,0.8-8.9,1-11.3H16.2c-2,0-3.6-1.6-3.6-3.6v-84.2c0-2,1.6-3.6,3.6-3.6H159.3
						 M159.3,108.7H16.2c-3.1,0-5.6,2.5-5.6,5.6v84.2c0,3.1,2.5,5.6,5.6,5.6h54.4c-0.3,3.1-0.7,7.8-0.8,9.2c0,0.3,0,0.5-0.1,0.8
						c-0.2,1.8-0.2,2.6-1.3,3.5c-1.4,1.3-2.3,2-2.6,2.2l-0.1,0.1l0,0c-1.2,1-1.8,1.5-2.1,1.8c-0.7,0.7-0.9,1.8-0.4,2.7
						c0.7,1.4,2.4,2.1,5,2.1l15.7,0l3.8,0l3,0l16.7,0c3.4,0,4.6-1.3,5.1-2.3c0.4-0.9,0.2-1.9-0.6-2.6c-0.3-0.2-0.9-0.8-2-1.7l0,0
						l-0.1-0.1c-0.3-0.3-1.2-1-2.6-2.2c-1.1-1-1.1-1.7-1.3-3.5c0-0.3,0-0.5-0.1-0.8c-0.1-1.4-0.5-6.1-0.8-9.2h54.4
						c3.1,0,5.6-2.5,5.6-5.6v-84.2C164.9,111.2,162.4,108.7,159.3,108.7L159.3,108.7z"/>
				</g>
			</g>
			<line class="st12" x1="155.6" y1="185.1" x2="163.1" y2="185.1"/>
			<line class="st13" x1="52.2" y1="203.1" x2="117.2" y2="203.1"/>
			<circle class="st13" cx="87.7" cy="194.1" r="4"/>
			<polygon class="st14" points="154.6,119.1 20.9,119.1 20.9,185.1 87.7,185.1 154.6,185.1 			"/>
			<line class="st15" x1="11.6" y1="185.1" x2="164" y2="185.1"/>
		</g>
		<g>
			<g>
				<path class="st11" d="M84.4,154.4v25.1H57.9v-25.1H84.4 M85.4,153.4H56.9v27.1h28.5V153.4L85.4,153.4z"/>
			</g>
			<rect x="56.9" y="153.4" class="st16" width="28.5" height="5.1"/>
			<line class="st17" x1="56.9" y1="158.5" x2="85.4" y2="158.5"/>
			<g>
				<path class="st9" d="M60.7,167.6c0.6-0.6,1.4-1.6,1.9-2.3c0.4-0.4,0.6-0.8,0.6-1.1c0-0.4-0.3-0.8-0.9-0.8c-0.4,0-0.8,0.3-1,0.5
					c-0.1,0.1-0.2,0.1-0.2,0l-0.3-0.3c0,0-0.1-0.1,0-0.2c0,0,0.6-0.7,1.5-0.7c1.1,0,1.7,0.7,1.7,1.5c0,0.6-0.3,1-0.7,1.5
					c-0.4,0.5-0.9,1.1-1.4,1.6h2c0.1,0,0.2,0.1,0.2,0.2v0.4c0,0.1-0.1,0.2-0.2,0.2h-3c-0.1,0-0.2-0.1-0.2-0.2L60.7,167.6L60.7,167.6
					z"/>
				<path class="st9" d="M65.3,167c0.3,0,0.6,0.2,0.6,0.8c0,0.8-0.5,1.3-0.8,1.5c-0.1,0.1-0.1,0.1-0.2,0l-0.1-0.1c0,0,0-0.1,0-0.2
					c0.1-0.1,0.5-0.5,0.5-1c0,0-0.1,0-0.2,0c-0.3,0-0.5-0.2-0.5-0.5C64.7,167.3,65,167,65.3,167z"/>
				<path class="st9" d="M67.2,167.5c0.4-0.1,1.6-0.7,1.8-1.7c-0.1,0-0.5,0.3-1,0.3c-0.8,0-1.6-0.6-1.6-1.7c0-1,0.8-1.7,1.7-1.7
					c1.2,0,1.8,1,1.8,2.2c0,2.1-1.8,3-2.5,3.3c-0.1,0-0.2,0-0.2-0.1l-0.1-0.3C67,167.6,67,167.5,67.2,167.5z M69.2,164.9
					c0.1-0.6-0.2-1.5-1.1-1.5c-0.5,0-1,0.5-1,1.1s0.5,1.1,1,1.1C68.7,165.4,69.1,165,69.2,164.9z"/>
				<path class="st9" d="M71.6,165.3L71.6,165.3c-0.3-0.2-0.8-0.6-0.8-1.2c0-0.8,0.7-1.4,1.6-1.4c0.9,0,1.6,0.5,1.6,1.4
					c0,0.6-0.5,1-0.8,1.2v0c0.4,0.2,0.9,0.6,0.9,1.3c0,0.8-0.7,1.5-1.8,1.5c-1.1,0-1.7-0.6-1.7-1.5
					C70.7,165.9,71.4,165.4,71.6,165.3z M72.5,167.5c0.5,0,1-0.3,1-0.8c0-0.4-0.4-0.8-1-0.9c-0.6,0.1-1,0.5-1,0.9
					C71.5,167.1,72,167.5,72.5,167.5z M73.3,164.1c0-0.5-0.4-0.8-0.9-0.8c-0.5,0-0.8,0.3-0.8,0.8c0,0.4,0.3,0.7,0.9,0.8
					C73.1,164.9,73.3,164.5,73.3,164.1z"/>
				<path class="st9" d="M75,167.2l0.3-0.3c0.1-0.1,0.2-0.1,0.2,0c0,0.1,0.5,0.5,1,0.5c0.5,0,1-0.3,1-0.8c0-0.5-0.4-0.9-1.2-0.9
					h-0.4c-0.1,0-0.2-0.1-0.2-0.2v-0.3c0-0.1,0-0.2,0.2-0.2h0.4c0.7,0,1.1-0.4,1.1-0.8c0-0.5-0.4-0.8-0.9-0.8
					c-0.5,0-0.7,0.3-0.9,0.4c0,0.1-0.1,0.1-0.2,0l-0.3-0.3c-0.1-0.1-0.1-0.2,0-0.2c0,0,0.6-0.7,1.4-0.7c0.9,0,1.6,0.5,1.6,1.4
					c0,0.6-0.5,1-0.8,1.2v0c0.4,0.2,0.9,0.6,0.9,1.3c0,0.8-0.7,1.5-1.7,1.5c-0.9,0-1.4-0.5-1.6-0.7C74.9,167.4,74.9,167.3,75,167.2z
					"/>
			</g>
			<path class="st18" d="M84.1,179.6H58.3c-0.2,0-0.3-0.1-0.3-0.3v-1.6h26.5v1.6C84.4,179.5,84.3,179.6,84.1,179.6z"/>
			<g>
				<path class="st11" d="M61.2,173l-0.4,0.2c0,0-0.1,0-0.1,0l-0.1-0.2c0,0,0-0.1,0-0.1l0.6-0.6h0.2c0,0,0.1,0,0.1,0.1v3
					c0,0,0,0.1-0.1,0.1h-0.3c-0.1,0-0.1,0-0.1-0.1V173z"/>
				<path class="st11" d="M62.4,173.9c0-1,0.4-1.6,1.1-1.6s1.1,0.6,1.1,1.6c0,1-0.4,1.6-1.1,1.6C62.8,175.5,62.4,174.9,62.4,173.9z
					 M64.2,173.9c0-0.7-0.3-1.2-0.7-1.2c-0.4,0-0.7,0.4-0.7,1.2c0,0.8,0.3,1.2,0.7,1.2C63.9,175.1,64.2,174.7,64.2,173.9z"/>
				<path class="st11" d="M65.8,173.9L65.8,173.9c-0.2-0.1-0.5-0.4-0.5-0.7c0-0.5,0.4-0.8,1-0.8c0.6,0,1,0.3,1,0.8
					c0,0.4-0.3,0.6-0.5,0.7v0c0.2,0.1,0.5,0.4,0.5,0.8c0,0.5-0.4,0.9-1.1,0.9c-0.6,0-1.1-0.4-1.1-0.9
					C65.2,174.2,65.6,174,65.8,173.9z M66.3,175.1c0.3,0,0.6-0.2,0.6-0.5c0-0.3-0.2-0.5-0.6-0.5c-0.4,0.1-0.6,0.3-0.6,0.5
					C65.7,175,66,175.1,66.3,175.1z M66.8,173.1c0-0.3-0.2-0.5-0.5-0.5s-0.5,0.2-0.5,0.5c0,0.3,0.2,0.5,0.5,0.5
					C66.7,173.6,66.8,173.4,66.8,173.1z"/>
				<path class="st11" d="M67.7,173.5c0-0.3,0.2-0.5,0.5-0.5c0.3,0,0.5,0.2,0.5,0.5s-0.2,0.5-0.5,0.5
					C67.9,174,67.7,173.7,67.7,173.5z M68.4,173.5c0-0.1-0.1-0.2-0.2-0.2s-0.2,0.1-0.2,0.2s0.1,0.2,0.2,0.2S68.4,173.6,68.4,173.5z
					 M69.2,173.1C69.2,173,69.2,173,69.2,173.1l0.2,0c0.1,0,0.1,0.1,0.1,0.1l-1.2,2.3c0,0,0,0-0.1,0h-0.1c-0.1,0-0.1-0.1-0.1-0.1
					L69.2,173.1z M69.3,174.6c0.3,0,0.5,0.2,0.5,0.5s-0.2,0.5-0.5,0.5c-0.3,0-0.5-0.2-0.5-0.5C68.8,174.8,69,174.6,69.3,174.6z
					 M69.3,175.3c0.1,0,0.2-0.1,0.2-0.2c0-0.1-0.1-0.2-0.2-0.2c-0.1,0-0.2,0.1-0.2,0.2S69.2,175.3,69.3,175.3z"/>
			</g>
			<path class="st18" d="M82.1,175.5H76c-0.2,0-0.3-0.1-0.3-0.3V173c0-0.2,0.1-0.3,0.3-0.3h6.1c0.2,0,0.3,0.1,0.3,0.3v2.2
				C82.4,175.4,82.3,175.5,82.1,175.5z"/>
			<g>
				<path class="st19" d="M76.5,174.7c0.2-0.2,0.4-0.5,0.5-0.7c0.1-0.1,0.2-0.2,0.2-0.3c0-0.1-0.1-0.3-0.3-0.3
					c-0.1,0-0.2,0.1-0.3,0.2c0,0,0,0-0.1,0l-0.1-0.1c0,0,0,0,0-0.1c0,0,0.2-0.2,0.4-0.2c0.3,0,0.5,0.2,0.5,0.5
					c0,0.2-0.1,0.3-0.2,0.4c-0.1,0.1-0.3,0.3-0.4,0.5h0.6c0,0,0,0,0,0v0.1c0,0,0,0,0,0L76.5,174.7C76.5,174.8,76.5,174.8,76.5,174.7
					L76.5,174.7L76.5,174.7z"/>
				<path class="st19" d="M77.8,174.5c0.1,0,0.2,0.1,0.2,0.3c0,0.2-0.1,0.4-0.2,0.5c0,0,0,0-0.1,0l0,0c0,0,0,0,0-0.1
					c0,0,0.2-0.1,0.2-0.3c0,0,0,0-0.1,0c-0.1,0-0.2-0.1-0.2-0.2C77.6,174.6,77.7,174.5,77.8,174.5z"/>
				<path class="st19" d="M78.3,174.8l0.6-1.3h-0.6c0,0,0,0,0,0v-0.1c0,0,0,0,0,0h0.9c0,0,0,0,0,0l0,0l-0.6,1.4c0,0,0,0.1-0.1,0.1
					L78.3,174.8C78.3,174.8,78.3,174.8,78.3,174.8L78.3,174.8z"/>
				<path class="st19" d="M79.3,174.6C79.3,174.6,79.4,174.5,79.3,174.6c0.1-0.1,0.1-0.1,0.2-0.1c0,0,0.1,0.1,0.3,0.1
					s0.3-0.2,0.3-0.3S80,174,79.7,174h-0.4c0,0-0.1,0-0.1-0.1v-0.6c0,0,0,0,0,0H80c0,0,0,0,0,0v0.1c0,0,0,0,0,0h-0.5v0.4h0.2
					c0.3,0,0.5,0.2,0.5,0.5c0,0.3-0.2,0.5-0.5,0.5C79.5,174.9,79.4,174.7,79.3,174.6C79.3,174.6,79.3,174.6,79.3,174.6z"/>
				<path class="st19" d="M80.5,174c0-0.5,0.2-0.8,0.5-0.8s0.5,0.3,0.5,0.8c0,0.5-0.2,0.8-0.5,0.8C80.7,174.9,80.5,174.6,80.5,174z
					 M81.4,174c0-0.4-0.1-0.6-0.3-0.6s-0.3,0.2-0.3,0.6c0,0.4,0.1,0.6,0.3,0.6C81.3,174.6,81.4,174.4,81.4,174z"/>
			</g>
		</g>
		<path class="st9" d="M13.5,186.1v-71.5c0-2,1.6-3.5,3.5-3.5h141.3c2,0,3.5,1.6,3.5,3.5v71.5h3v-71.5c0-3.6-2.9-6.5-6.5-6.5H17.1
			c-3.6,0-6.5,2.9-6.5,6.5v71.5H13.5z"/>
		<g>
			<g>
				<path class="st11" d="M117.5,154.4v25.1H91v-25.1H117.5 M118.5,153.4H90v27.1h28.5V153.4L118.5,153.4z"/>
			</g>
			<rect x="90" y="153.4" class="st16" width="28.5" height="5.1"/>
			<line class="st17" x1="90" y1="158.5" x2="118.5" y2="158.5"/>
			<g>
				<path class="st11" d="M110.1,171.8c0.6,0.9,1,2,1,3.2c0,0.3,0.3,0.5,0.6,0.5l0,0c0.3,0,0.6-0.3,0.6-0.6
					c-0.1-1.4-0.6-2.8-1.4-3.9"/>
				<path class="st20" d="M108.8,168.9c-1.3-0.9-2.9-1.4-4.6-1.4c-4.2,0-7.7,3.3-8,7.4c0,0.3,0.2,0.6,0.6,0.6h0
					c0.3,0,0.5-0.2,0.6-0.5c0.3-3.6,3.2-6.4,6.9-6.4c1.4,0,2.7,0.4,3.8,1.2"/>
				<path class="st10" d="M110.1,170c0-0.1-0.1-0.2-0.2-0.3c-0.1-0.1-0.2-0.1-0.3-0.1c-0.1,0-0.3,0.1-0.3,0.2l-4.7,4.7
					c-0.1,0-0.2-0.1-0.3-0.1c-0.3,0-0.7,0.2-0.8,0.5c-0.2,0.3-0.2,0.7,0,1c0.2,0.3,0.5,0.5,0.8,0.5c0.3,0,0.5-0.1,0.7-0.3
					c0.3-0.3,0.4-0.7,0.2-1l4.8-4.8C110.1,170.3,110.1,170.1,110.1,170z"/>
				<g>
					<path class="st21" d="M102.8,162.8l-0.4,0.2c0,0-0.1,0-0.1,0l-0.1-0.2c0,0,0-0.1,0-0.1l0.7-0.6h0.2c0,0,0.1,0,0.1,0.1v3.1
						c0,0,0,0.1-0.1,0.1h-0.3c-0.1,0-0.1,0-0.1-0.1V162.8z"/>
					<path class="st21" d="M104.5,163.7L104.5,163.7c-0.2-0.1-0.5-0.4-0.5-0.8c0-0.5,0.4-0.9,1-0.9c0.6,0,1,0.3,1,0.9
						c0,0.4-0.3,0.6-0.5,0.7v0c0.2,0.1,0.6,0.4,0.6,0.8c0,0.5-0.4,0.9-1.1,0.9c-0.7,0-1.1-0.4-1.1-0.9
						C104,164,104.4,163.7,104.5,163.7z M105.1,165c0.3,0,0.6-0.2,0.6-0.5c0-0.3-0.2-0.5-0.6-0.6c-0.4,0.1-0.6,0.3-0.6,0.6
						C104.5,164.8,104.7,165,105.1,165z M105.6,162.9c0-0.3-0.2-0.5-0.5-0.5c-0.3,0-0.5,0.2-0.5,0.5c0,0.3,0.2,0.5,0.5,0.5
						C105.4,163.4,105.6,163.2,105.6,162.9z"/>
				</g>
			</g>
		</g>
		<g>
			<g>
				<path class="st11" d="M149.3,154.4v25.1h-26.5v-25.1H149.3 M150.3,153.4h-28.5v27.1h28.5V153.4L150.3,153.4z"/>
			</g>
			<rect x="121.8" y="153.4" class="st16" width="28.5" height="5.1"/>
			<line class="st17" x1="121.8" y1="158.5" x2="150.3" y2="158.5"/>
			<g>
				<path class="st9" d="M125.2,167.6c0.6-0.6,1.4-1.6,1.9-2.3c0.4-0.4,0.6-0.8,0.6-1.1c0-0.4-0.3-0.8-0.9-0.8c-0.4,0-0.8,0.3-1,0.5
					c-0.1,0.1-0.2,0.1-0.2,0l-0.3-0.3c0,0-0.1-0.1,0-0.2c0,0,0.6-0.7,1.5-0.7c1.1,0,1.7,0.7,1.7,1.5c0,0.6-0.3,1-0.7,1.5
					c-0.4,0.5-0.9,1.1-1.4,1.6h2c0.1,0,0.2,0.1,0.2,0.2v0.4c0,0.1-0.1,0.2-0.2,0.2h-3c-0.1,0-0.2-0.1-0.2-0.2L125.2,167.6
					L125.2,167.6z"/>
				<path class="st9" d="M129.7,167c0.3,0,0.6,0.2,0.6,0.9c0,0.8-0.5,1.3-0.8,1.5c-0.1,0.1-0.1,0.1-0.2,0l-0.1-0.1c0,0,0-0.1,0-0.2
					c0.1-0.1,0.5-0.4,0.5-1.1c0,0-0.1,0-0.2,0c-0.3,0-0.5-0.2-0.5-0.5C129.2,167.2,129.4,167,129.7,167z"/>
				<path class="st9" d="M131.1,165.4c0-1.7,0.7-2.7,1.9-2.7c1.2,0,1.9,1,1.9,2.7s-0.7,2.7-1.9,2.7
					C131.8,168.1,131.1,167.1,131.1,165.4z M134.1,165.4c0-1.2-0.4-2-1.1-2s-1.1,0.7-1.1,2s0.4,2,1.1,2S134.1,166.6,134.1,165.4z"/>
				<path class="st9" d="M135.9,167.7l2.1-4.3h-2.3c-0.1,0-0.2-0.1-0.2-0.2v-0.4c0-0.1,0.1-0.2,0.2-0.2h3.1c0.1,0,0.2,0.1,0.2,0.2
					v0.1l-2.2,4.8c-0.1,0.2-0.1,0.2-0.3,0.2h-0.4C136,168,135.9,167.9,135.9,167.7L135.9,167.7L135.9,167.7z"/>
				<path class="st9" d="M140.4,165.3L140.4,165.3c-0.3-0.2-0.8-0.6-0.8-1.2c0-0.8,0.7-1.4,1.6-1.4c0.9,0,1.6,0.5,1.6,1.4
					c0,0.6-0.4,1-0.8,1.2v0c0.4,0.2,0.9,0.6,0.9,1.3c0,0.8-0.7,1.5-1.8,1.5c-1.1,0-1.8-0.6-1.8-1.5
					C139.4,165.9,140.1,165.4,140.4,165.3z M141.2,167.4c0.5,0,1-0.3,1-0.8c0-0.4-0.4-0.8-1-0.9c-0.6,0.1-1,0.5-1,0.9
					C140.2,167.1,140.7,167.4,141.2,167.4z M142.1,164.1c0-0.5-0.4-0.8-0.9-0.8c-0.4,0-0.8,0.4-0.8,0.8c0,0.4,0.3,0.7,0.9,0.8
					C141.8,164.9,142.1,164.5,142.1,164.1z"/>
			</g>
			<polyline class="st17" points="125.3,170.5 127.9,171.5 130.2,176.9 132.8,176.2 135.2,170.5 137.8,170.2 140.2,170.8 			"/>
		</g>
		<g>
			<g>
				<path class="st11" d="M52.6,124.5v55H26.1v-55H52.6 M53.6,123.5H25.1v57h28.5V123.5L53.6,123.5z"/>
			</g>
			<rect x="25.1" y="123.5" class="st16" width="28.5" height="5.1"/>
			<line class="st17" x1="25.1" y1="128.6" x2="53.6" y2="128.6"/>
			<g>
				<path class="st11" d="M44.3,132.5h-16c-0.2,0-0.4-0.2-0.4-0.4l0,0c0-0.2,0.2-0.4,0.4-0.4h16c0.2,0,0.4,0.2,0.4,0.4l0,0
					C44.7,132.3,44.5,132.5,44.3,132.5z"/>
				<path class="st18" d="M39,134.5H28.3c-0.2,0-0.4-0.2-0.4-0.4l0,0c0-0.2,0.2-0.4,0.4-0.4H39c0.2,0,0.4,0.2,0.4,0.4l0,0
					C39.4,134.3,39.2,134.5,39,134.5z"/>
				<path class="st11" d="M43.5,139H28.2c-0.2,0-0.4-0.2-0.4-0.4l0,0c0-0.2,0.2-0.4,0.4-0.4h15.3c0.2,0,0.4,0.2,0.4,0.4l0,0
					C43.9,138.8,43.7,139,43.5,139z"/>
				<path class="st18" d="M35.5,141h-7.3c-0.2,0-0.4-0.2-0.4-0.4l0,0c0-0.2,0.2-0.4,0.4-0.4h7.3c0.2,0,0.4,0.2,0.4,0.4l0,0
					C35.9,140.8,35.7,141,35.5,141z"/>
				<path class="st11" d="M48.1,145.5H28.2c-0.2,0-0.4-0.2-0.4-0.4l0,0c0-0.2,0.2-0.4,0.4-0.4h19.9c0.2,0,0.4,0.2,0.4,0.4l0,0
					C48.5,145.3,48.4,145.5,48.1,145.5z"/>
				<path class="st18" d="M43.3,147.5H27.9v-0.8h15.4c0.2,0,0.4,0.2,0.4,0.4l0,0C43.7,147.3,43.5,147.5,43.3,147.5z"/>
				<path class="st11" d="M50.5,152.5H28.3c-0.2,0-0.4-0.2-0.4-0.4l0,0c0-0.2,0.2-0.4,0.4-0.4h22.2c0.2,0,0.4,0.2,0.4,0.4l0,0
					C50.9,152.3,50.7,152.5,50.5,152.5z"/>
				<path class="st18" d="M39.1,154.5H28.3c-0.2,0-0.4-0.2-0.4-0.4l0,0c0-0.2,0.2-0.4,0.4-0.4h10.7c0.2,0,0.4,0.2,0.4,0.4l0,0
					C39.4,154.3,39.3,154.5,39.1,154.5z"/>
				<path class="st11" d="M43.5,159H28.3c-0.2,0-0.4-0.2-0.4-0.4l0,0c0-0.2,0.2-0.4,0.4-0.4h15.3c0.2,0,0.4,0.2,0.4,0.4l0,0
					C43.9,158.8,43.8,159,43.5,159z"/>
				<path class="st18" d="M35.6,160.9h-7.3c-0.2,0-0.4-0.2-0.4-0.4l0,0c0-0.2,0.2-0.4,0.4-0.4h7.3c0.2,0,0.4,0.2,0.4,0.4l0,0
					C36,160.8,35.8,160.9,35.6,160.9z"/>
				<path class="st11" d="M49.3,165.5H28.3c-0.2,0-0.4-0.2-0.4-0.4l0,0c0-0.2,0.2-0.4,0.4-0.4h21.1c0.2,0,0.4,0.2,0.4,0.4l0,0
					C49.7,165.3,49.6,165.5,49.3,165.5z"/>
				<path class="st18" d="M39.4,167.5H27.9v-0.8h11.5c0.2,0,0.4,0.2,0.4,0.4l0,0C39.8,167.3,39.6,167.5,39.4,167.5z"/>
				<path class="st11" d="M45.5,172.6H28.3c-0.2,0-0.4-0.2-0.4-0.4l0,0c0-0.2,0.2-0.4,0.4-0.4h17.2c0.2,0,0.4,0.2,0.4,0.4l0,0
					C45.9,172.4,45.7,172.6,45.5,172.6z"/>
				<path class="st18" d="M39.4,174.6H27.9v-0.8h11.5c0.2,0,0.4,0.2,0.4,0.4l0,0C39.8,174.4,39.6,174.6,39.4,174.6z"/>
			</g>
		</g>
		<g>
			<g>
				<path class="st11" d="M117.5,124.6v24.5H57.9v-24.5H117.5 M118.5,123.6H56.9v26.5h61.6V123.6L118.5,123.6z"/>
			</g>
			<rect x="56.9" y="123.6" class="st16" width="61.6" height="4.9"/>
			<line class="st17" x1="56.9" y1="128.6" x2="118.4" y2="128.6"/>
			<g>
				<path class="st22" d="M61.9,146.1L61.9,146.1c-0.2,0-0.4-0.1-0.4-0.4v-13.1c0-0.2,0.1-0.4,0.4-0.4l0,0c0.2,0,0.4,0.1,0.4,0.4
					v13.1C62.3,145.9,62.1,146.1,61.9,146.1z"/>
				<rect x="106.6" y="145.4" class="st20" width="7.3" height="0.6"/>
				<rect x="98.3" y="142.2" class="st20" width="7.3" height="3.8"/>
				<rect x="90" y="145.1" class="st20" width="7.3" height="1"/>
				<rect x="81.8" y="135.3" class="st20" width="7.3" height="10.8"/>
				<rect x="73.5" y="141.4" class="st20" width="7.3" height="4.7"/>
				<rect x="65.3" y="144.4" class="st20" width="7.3" height="1.7"/>
			</g>
		</g>
		<g>
			<g>
				<path class="st11" d="M149.3,124.6v24.5h-26.5v-24.5H149.3 M150.3,123.6h-28.5v26.5h28.5V123.6L150.3,123.6z"/>
			</g>
			<rect x="121.8" y="123.6" class="st16" width="28.5" height="5.1"/>
			<line class="st17" x1="121.8" y1="128.7" x2="150.3" y2="128.7"/>
			<g>
				<path class="st9" d="M126,133.5l-0.6,0.3c-0.1,0-0.1,0-0.2-0.1l-0.1-0.3c0-0.1,0-0.1,0-0.2l1.1-1h0.4c0.1,0,0.1,0.1,0.1,0.1v4.9
					c0,0.1-0.1,0.1-0.1,0.1h-0.5c-0.1,0-0.1-0.1-0.1-0.1L126,133.5L126,133.5z"/>
				<path class="st9" d="M127.8,136.8l0.3-0.3c0.1-0.1,0.1-0.1,0.2,0c0,0.1,0.5,0.5,1,0.5c0.5,0,1-0.3,1-0.8c0-0.5-0.4-0.9-1.2-0.9
					h-0.4c-0.1,0-0.1-0.1-0.1-0.2v-0.3c0-0.1,0-0.2,0.2-0.2h0.4c0.7,0,1.1-0.4,1.1-0.8c0-0.5-0.4-0.8-0.9-0.8
					c-0.5,0-0.7,0.3-0.9,0.4c0,0.1-0.1,0.1-0.2,0l-0.3-0.3c-0.1-0.1-0.1-0.1,0-0.2c0,0,0.6-0.7,1.4-0.7c0.9,0,1.6,0.5,1.6,1.4
					c0,0.6-0.4,1-0.8,1.2v0c0.4,0.2,0.9,0.6,0.9,1.3c0,0.8-0.7,1.5-1.7,1.5c-0.9,0-1.4-0.5-1.6-0.7
					C127.7,136.9,127.7,136.8,127.8,136.8z"/>
				<path class="st9" d="M132.1,135c0-1.7,0.7-2.7,1.9-2.7s1.9,1,1.9,2.7c0,1.7-0.7,2.7-1.9,2.7C132.7,137.7,132.1,136.6,132.1,135z
					 M135.1,135c0-1.2-0.4-2-1.1-2s-1.1,0.7-1.1,2c0,1.3,0.4,2,1.1,2C134.7,137,135.1,136.2,135.1,135z"/>
			</g>
			<path class="st11" d="M128.2,144.8h-2.6c-0.2,0-0.3-0.2-0.2-0.3l1.3-2.6c0.1-0.2,0.3-0.2,0.4,0l1.3,2.6
				C128.4,144.6,128.3,144.8,128.2,144.8z"/>
			<g>
				<path class="st11" d="M130.4,142.3l-0.4,0.2c0,0-0.1,0-0.1,0l-0.1-0.2c0,0,0-0.1,0-0.1l0.7-0.6h0.2c0,0,0.1,0,0.1,0.1v3.1
					c0,0,0,0.1-0.1,0.1h-0.3c-0.1,0-0.1,0-0.1-0.1L130.4,142.3L130.4,142.3z"/>
				<path class="st11" d="M131.5,144.6c0.4-0.4,0.8-1,1.2-1.4c0.2-0.3,0.4-0.5,0.4-0.7c0-0.2-0.2-0.5-0.6-0.5
					c-0.3,0-0.5,0.2-0.6,0.3c0,0-0.1,0-0.1,0l-0.2-0.2c0,0,0-0.1,0-0.1c0,0,0.4-0.5,0.9-0.5c0.7,0,1,0.4,1,0.9
					c0,0.4-0.2,0.6-0.5,0.9c-0.3,0.3-0.6,0.7-0.9,1h1.2c0,0,0.1,0,0.1,0.1v0.3c0,0,0,0.1-0.1,0.1h-1.9c-0.1,0-0.1,0-0.1-0.1
					L131.5,144.6L131.5,144.6z"/>
				<path class="st11" d="M134.4,144.2c0.2,0,0.3,0.1,0.3,0.3c0,0.2-0.1,0.3-0.3,0.3c-0.2,0-0.3-0.1-0.3-0.3
					C134.1,144.3,134.2,144.2,134.4,144.2z"/>
				<path class="st11" d="M135.2,143.7c0-0.7,0.3-1.1,0.8-1.1c0.5,0,0.8,0.4,0.8,1.1c0,0.7-0.3,1.1-0.8,1.1
					C135.5,144.8,135.2,144.4,135.2,143.7z M136.4,143.7c0-0.5-0.2-0.8-0.5-0.8c-0.3,0-0.5,0.3-0.5,0.8c0,0.5,0.2,0.8,0.5,0.8
					C136.3,144.5,136.4,144.2,136.4,143.7z"/>
				<path class="st11" d="M137.2,144.7l0.9-1.8h-0.9c0,0-0.1,0-0.1-0.1v-0.1c0,0,0-0.1,0.1-0.1h1.3c0,0,0.1,0,0.1,0.1l0,0l-0.9,2
					c0,0.1,0,0.1-0.1,0.1h-0.1C137.3,144.8,137.2,144.8,137.2,144.7L137.2,144.7L137.2,144.7z"/>
				<path class="st11" d="M138.6,143c0-0.2,0.2-0.4,0.4-0.4c0.2,0,0.4,0.2,0.4,0.4c0,0.2-0.2,0.4-0.4,0.4
					C138.8,143.4,138.6,143.2,138.6,143z M139.2,143c0-0.1-0.1-0.2-0.2-0.2c-0.1,0-0.2,0.1-0.2,0.2c0,0.1,0.1,0.2,0.2,0.2
					C139.1,143.2,139.2,143.1,139.2,143z M140,142.6C140,142.6,140,142.6,140,142.6l0.2,0c0,0,0.1,0,0.1,0.1l-1.1,2.1c0,0,0,0-0.1,0
					h-0.1c0,0-0.1,0-0.1-0.1L140,142.6z M140,144c0.2,0,0.4,0.2,0.4,0.4c0,0.2-0.2,0.4-0.4,0.4c-0.2,0-0.4-0.2-0.4-0.4
					C139.6,144.2,139.8,144,140,144z M140,144.6c0.1,0,0.2-0.1,0.2-0.2c0-0.1-0.1-0.2-0.2-0.2c-0.1,0-0.2,0.1-0.2,0.2
					C139.8,144.5,139.9,144.6,140,144.6z"/>
			</g>
		</g>
	</g>
	<g>
		<g>
			<path class="st6" d="M297,220v-70c0-1.7-1.3-3-3-3H188c-1.7,0-3,1.3-3,3v70"/>
			<g class="st1">
				<path class="st9" d="M287,156v58h-44.1H195v-58H287 M288.5,154.5H287h-92h-1.5v1.5v58v1.5h1.5h47.9H287h1.5V214v-58V154.5
					L288.5,154.5z"/>
			</g>
			<line class="st13" x1="185" y1="220" x2="297" y2="220"/>
			<path class="st23" d="M295.5,220h15.4c0.1,0,0.1,0.1,0.1,0.1c0,0,0,4.3-0.1,4.4c-0.1,0.2-1.1,0.6-1.9,1c-0.4,0.2-1.9,0.6-2.6,0.6
				c-0.7,0.1-2.6,0.1-2.6,0.1H181.1c0,0-1.9,0-2.6-0.1c-0.7-0.1-2.2-0.5-2.6-0.6c-0.8-0.3-1.8-0.8-1.9-1c0-0.1-0.1-4.4-0.1-4.4
				c0-0.1,0.1-0.1,0.1-0.1h12.5"/>
			<line class="st24" x1="185" y1="214.8" x2="297" y2="214.8"/>
		</g>
		<g>
			<g>
				<path class="st11" d="M252.1,187.9v22.1h-24v-22.1H252.1 M253.1,186.9h-26v24.1h26V186.9L253.1,186.9z"/>
			</g>
			<rect x="227.1" y="186.9" class="st16" width="26" height="4.6"/>
			<line class="st17" x1="227.1" y1="191.6" x2="253.1" y2="191.6"/>
			<g>
				<path class="st9" d="M230.5,199.3c0.5-0.6,1.2-1.5,1.8-2.1c0.4-0.4,0.5-0.7,0.5-1c0-0.4-0.2-0.8-0.9-0.8c-0.4,0-0.7,0.3-0.9,0.5
					c-0.1,0.1-0.1,0.1-0.2,0l-0.2-0.2c0,0-0.1-0.1,0-0.2c0,0,0.5-0.7,1.4-0.7c1,0,1.5,0.6,1.5,1.4c0,0.5-0.3,0.9-0.7,1.4
					c-0.4,0.4-0.9,1-1.3,1.5h1.8c0.1,0,0.1,0.1,0.1,0.1v0.3c0,0.1-0.1,0.1-0.1,0.1h-2.7c-0.1,0-0.1-0.1-0.1-0.1L230.5,199.3
					L230.5,199.3z"/>
				<path class="st9" d="M234.7,198.8c0.3,0,0.6,0.2,0.6,0.8c0,0.7-0.4,1.2-0.7,1.4c-0.1,0.1-0.1,0.1-0.2,0l-0.1-0.1
					c0,0,0-0.1,0-0.2c0.1-0.1,0.5-0.4,0.5-0.9c0,0-0.1,0-0.2,0c-0.3,0-0.5-0.2-0.5-0.5C234.2,199,234.4,198.8,234.7,198.8z"/>
				<path class="st9" d="M236.4,199.2c0.3-0.1,1.4-0.7,1.7-1.5c-0.1,0-0.5,0.3-0.9,0.3c-0.7,0-1.5-0.6-1.5-1.5
					c0-0.9,0.7-1.6,1.6-1.6c1.1,0,1.6,0.9,1.6,2c0,1.9-1.7,2.8-2.3,3c-0.1,0-0.1,0-0.2-0.1l-0.1-0.3
					C236.3,199.3,236.3,199.3,236.4,199.2z M238.2,196.8c0.1-0.6-0.2-1.4-1-1.4c-0.5,0-0.9,0.4-0.9,1s0.4,1,0.9,1
					C237.8,197.3,238.2,197,238.2,196.8z"/>
				<path class="st9" d="M240.5,197.2L240.5,197.2c-0.3-0.2-0.7-0.6-0.7-1.1c0-0.8,0.6-1.3,1.5-1.3c0.9,0,1.5,0.5,1.5,1.3
					c0,0.5-0.4,0.9-0.7,1.1v0c0.3,0.1,0.9,0.6,0.9,1.2c0,0.8-0.6,1.4-1.6,1.4c-1,0-1.6-0.6-1.6-1.4
					C239.6,197.8,240.2,197.3,240.5,197.2z M241.2,199.2c0.5,0,0.9-0.3,0.9-0.8c0-0.4-0.3-0.8-0.9-0.9c-0.6,0.1-0.9,0.5-0.9,0.9
					C240.4,198.9,240.8,199.2,241.2,199.2z M242,196.1c0-0.4-0.4-0.7-0.8-0.7c-0.4,0-0.8,0.3-0.8,0.7c0,0.4,0.2,0.7,0.8,0.7
					C241.8,196.8,242,196.5,242,196.1z"/>
				<path class="st9" d="M243.5,198.9l0.3-0.3c0.1-0.1,0.1-0.1,0.2,0c0,0.1,0.4,0.4,0.9,0.4c0.4,0,0.9-0.3,0.9-0.8
					c0-0.4-0.4-0.8-1.1-0.8h-0.4c-0.1,0-0.1-0.1-0.1-0.1v-0.3c0-0.1,0-0.1,0.1-0.1h0.4c0.6,0,1-0.3,1-0.7c0-0.5-0.4-0.8-0.8-0.8
					c-0.4,0-0.7,0.2-0.8,0.4c0,0.1-0.1,0.1-0.2,0l-0.3-0.2c-0.1-0.1-0.1-0.1,0-0.2c0,0,0.5-0.6,1.3-0.6c0.8,0,1.5,0.5,1.5,1.3
					c0,0.5-0.4,0.9-0.7,1.1v0c0.3,0.1,0.9,0.6,0.9,1.1c0,0.8-0.6,1.3-1.6,1.3c-0.9,0-1.3-0.4-1.4-0.6
					C243.5,199.1,243.5,199,243.5,198.9z"/>
			</g>
			<path class="st18" d="M251.8,210.3h-23.6c-0.2,0-0.3-0.1-0.3-0.3v-1.6h24.1v1.6C252.1,210.1,252,210.3,251.8,210.3z"/>
			<g>
				<path class="st11" d="M230.9,204.3l-0.3,0.1c0,0-0.1,0-0.1,0l-0.1-0.1c0,0,0-0.1,0-0.1l0.6-0.5h0.2c0,0,0.1,0,0.1,0.1v2.7
					c0,0,0,0.1-0.1,0.1H231c-0.1,0-0.1,0-0.1-0.1V204.3z"/>
				<path class="st11" d="M232,205c0-0.9,0.4-1.5,1-1.5s1,0.6,1,1.5c0,0.9-0.4,1.5-1,1.5C232.4,206.5,232,206,232,205z M233.7,205
					c0-0.7-0.2-1.1-0.6-1.1s-0.6,0.4-0.6,1.1s0.2,1.1,0.6,1.1C233.5,206.2,233.7,205.7,233.7,205z"/>
				<path class="st11" d="M235.1,205L235.1,205c-0.2-0.1-0.4-0.3-0.4-0.7c0-0.5,0.4-0.8,0.9-0.8c0.5,0,0.9,0.3,0.9,0.8
					c0,0.3-0.3,0.6-0.4,0.6v0c0.2,0.1,0.5,0.4,0.5,0.7c0,0.5-0.4,0.8-1,0.8c-0.6,0-1-0.4-1-0.8C234.6,205.4,235,205.1,235.1,205z
					 M235.6,206.2c0.3,0,0.5-0.2,0.5-0.5c0-0.2-0.2-0.4-0.5-0.5c-0.4,0.1-0.5,0.3-0.5,0.5C235.1,206,235.3,206.2,235.6,206.2z
					 M236.1,204.4c0-0.3-0.2-0.4-0.5-0.4c-0.3,0-0.5,0.2-0.5,0.4c0,0.2,0.1,0.4,0.5,0.4C235.9,204.8,236.1,204.6,236.1,204.4z"/>
				<path class="st11" d="M236.9,204.7c0-0.2,0.2-0.4,0.4-0.4c0.2,0,0.4,0.2,0.4,0.4c0,0.2-0.2,0.4-0.4,0.4
					C237.1,205.1,236.9,204.9,236.9,204.7z M237.5,204.7c0-0.1-0.1-0.2-0.2-0.2s-0.2,0.1-0.2,0.2c0,0.1,0.1,0.2,0.2,0.2
					S237.5,204.8,237.5,204.7z M238.3,204.3C238.3,204.3,238.3,204.3,238.3,204.3l0.2,0c0.1,0,0.1,0.1,0.1,0.1l-1.1,2.1
					c0,0,0,0-0.1,0h-0.1c-0.1,0-0.1-0.1-0.1-0.1L238.3,204.3z M238.3,205.7c0.2,0,0.4,0.2,0.4,0.4c0,0.2-0.2,0.4-0.4,0.4
					c-0.2,0-0.4-0.2-0.4-0.4C237.9,205.9,238.1,205.7,238.3,205.7z M238.3,206.3c0.1,0,0.2-0.1,0.2-0.2c0-0.1-0.1-0.2-0.2-0.2
					c-0.1,0-0.2,0.1-0.2,0.2S238.2,206.3,238.3,206.3z"/>
			</g>
			<path class="st18" d="M250,206.5h-5.6c-0.2,0-0.3-0.1-0.3-0.3v-2c0-0.2,0.1-0.3,0.3-0.3h5.6c0.2,0,0.3,0.1,0.3,0.3v2
				C250.3,206.4,250.2,206.5,250,206.5z"/>
			<g>
				<path class="st19" d="M244.9,205.8c0.1-0.2,0.4-0.4,0.5-0.6c0.1-0.1,0.1-0.2,0.1-0.3c0-0.1-0.1-0.2-0.2-0.2
					c-0.1,0-0.2,0.1-0.3,0.1c0,0,0,0-0.1,0l-0.1-0.1c0,0,0,0,0-0.1c0,0,0.1-0.2,0.4-0.2c0.3,0,0.4,0.2,0.4,0.4
					c0,0.1-0.1,0.3-0.2,0.4c-0.1,0.1-0.2,0.3-0.4,0.4h0.5c0,0,0,0,0,0v0.1c0,0,0,0,0,0L244.9,205.8
					C244.9,205.9,244.9,205.8,244.9,205.8L244.9,205.8L244.9,205.8z"/>
				<path class="st19" d="M246.1,205.6c0.1,0,0.2,0.1,0.2,0.2c0,0.2-0.1,0.4-0.2,0.4c0,0,0,0-0.1,0l0,0c0,0,0,0,0-0.1
					c0,0,0.1-0.1,0.1-0.3c0,0,0,0-0.1,0c-0.1,0-0.1-0.1-0.1-0.1C246,205.7,246,205.6,246.1,205.6z"/>
				<path class="st19" d="M246.5,205.8l0.6-1.1h-0.6c0,0,0,0,0,0v-0.1c0,0,0,0,0,0h0.8c0,0,0,0,0,0l0,0l-0.6,1.3c0,0,0,0.1-0.1,0.1
					L246.5,205.8C246.5,205.9,246.5,205.9,246.5,205.8L246.5,205.8z"/>
				<path class="st19" d="M247.5,205.7C247.5,205.7,247.5,205.6,247.5,205.7c0.1-0.1,0.1-0.1,0.1-0.1c0,0,0.1,0.1,0.3,0.1
					c0.2,0,0.3-0.1,0.3-0.3s-0.1-0.3-0.3-0.3h-0.3c0,0-0.1,0-0.1-0.1v-0.6c0,0,0,0,0,0h0.6c0,0,0,0,0,0v0.1c0,0,0,0,0,0h-0.5v0.3
					h0.2c0.3,0,0.5,0.2,0.5,0.4c0,0.3-0.2,0.5-0.5,0.5C247.6,205.9,247.5,205.8,247.5,205.7C247.4,205.7,247.4,205.7,247.5,205.7z"
					/>
				<path class="st19" d="M248.6,205.2c0-0.4,0.2-0.7,0.5-0.7s0.5,0.3,0.5,0.7c0,0.4-0.2,0.7-0.5,0.7
					C248.7,205.9,248.6,205.7,248.6,205.2z M249.3,205.2c0-0.3-0.1-0.5-0.3-0.5s-0.3,0.2-0.3,0.5c0,0.3,0.1,0.5,0.3,0.5
					C249.3,205.7,249.3,205.5,249.3,205.2z"/>
			</g>
		</g>
		<g>
			<g>
				<path class="st11" d="M282.2,187.9v22.1h-24v-22.1H282.2 M283.2,186.9h-26v24.1h26V186.9L283.2,186.9z"/>
			</g>
			<rect x="257.2" y="186.9" class="st16" width="26" height="4.6"/>
			<line class="st17" x1="257.2" y1="191.6" x2="283.2" y2="191.6"/>
			<g>
				<path class="st11" d="M275.5,203.1c0.5,0.8,0.9,1.8,1,2.9c0,0.3,0.2,0.5,0.5,0.5l0,0c0.3,0,0.5-0.3,0.5-0.5
					c-0.1-1.3-0.6-2.6-1.3-3.6"/>
				<path class="st20" d="M274.4,200.5c-1.2-0.8-2.6-1.3-4.2-1.3c-3.9,0-7,3-7.3,6.8c0,0.3,0.2,0.5,0.5,0.5h0c0.3,0,0.5-0.2,0.5-0.5
					c0.2-3.2,2.9-5.8,6.3-5.8c1.3,0,2.5,0.4,3.5,1.1"/>
				<path class="st10" d="M275.6,201.5c0-0.1-0.1-0.2-0.2-0.3c0-0.1-0.1-0.1-0.3-0.1c-0.1,0-0.2,0.1-0.3,0.2l-4.3,4.3
					c-0.1,0-0.2,0-0.3,0c-0.3,0-0.6,0.2-0.8,0.4c-0.2,0.3-0.2,0.7,0,0.9c0.2,0.3,0.4,0.4,0.8,0.4c0.2,0,0.5-0.1,0.6-0.3
					c0.3-0.3,0.3-0.6,0.2-0.9l4.4-4.4C275.6,201.7,275.6,201.6,275.6,201.5z"/>
				<g>
					<path class="st21" d="M268.9,194.9l-0.3,0.2c0,0-0.1,0-0.1,0l-0.1-0.2c0,0,0-0.1,0-0.1l0.6-0.6h0.2c0,0,0.1,0,0.1,0.1v2.8
						c0,0,0,0.1-0.1,0.1H269c0,0-0.1,0-0.1-0.1V194.9z"/>
					<path class="st21" d="M270.5,195.7L270.5,195.7c-0.2-0.1-0.4-0.3-0.4-0.7c0-0.5,0.4-0.8,0.9-0.8c0.5,0,0.9,0.3,0.9,0.8
						c0,0.3-0.3,0.6-0.4,0.7v0c0.2,0.1,0.5,0.4,0.5,0.7c0,0.5-0.4,0.8-1,0.8c-0.6,0-1-0.4-1-0.8C270,196,270.3,195.8,270.5,195.7z
						 M271,196.9c0.3,0,0.6-0.2,0.6-0.5c0-0.2-0.2-0.5-0.6-0.5c-0.4,0.1-0.6,0.3-0.6,0.5C270.4,196.7,270.7,196.9,271,196.9z
						 M271.5,195c0-0.3-0.2-0.5-0.5-0.5c-0.3,0-0.5,0.2-0.5,0.5c0,0.2,0.1,0.4,0.5,0.5C271.3,195.4,271.5,195.3,271.5,195z"/>
				</g>
			</g>
		</g>
		<g>
			<g>
				<path class="st11" d="M223,160.1v50h-24v-50H223 M224,159.1h-26v52h26V159.1L224,159.1z"/>
			</g>
			<rect x="198" y="159.1" class="st16" width="26" height="4.6"/>
			<line class="st17" x1="198" y1="163.7" x2="224" y2="163.7"/>
			<g>
				<path class="st11" d="M215.5,167.3h-14.6c-0.2,0-0.4-0.1-0.4-0.4l0,0c0-0.2,0.1-0.4,0.4-0.4h14.6c0.2,0,0.4,0.1,0.4,0.4l0,0
					C215.9,167.1,215.7,167.3,215.5,167.3z"/>
				<path class="st18" d="M210.7,169.1h-9.8c-0.2,0-0.4-0.1-0.4-0.4l0,0c0-0.2,0.1-0.4,0.4-0.4h9.8c0.2,0,0.4,0.1,0.4,0.4l0,0
					C211.1,168.9,210.9,169.1,210.7,169.1z"/>
				<path class="st11" d="M214.8,173.2h-13.9c-0.2,0-0.4-0.1-0.4-0.4l0,0c0-0.2,0.1-0.4,0.4-0.4h13.9c0.2,0,0.4,0.1,0.4,0.4l0,0
					C215.2,173,215,173.2,214.8,173.2z"/>
				<path class="st18" d="M207.6,175h-6.6c-0.2,0-0.4-0.1-0.4-0.4l0,0c0-0.2,0.1-0.4,0.4-0.4h6.6c0.2,0,0.4,0.1,0.4,0.4l0,0
					C207.9,174.8,207.7,175,207.6,175z"/>
				<path class="st11" d="M219,179.1h-18.2c-0.2,0-0.4-0.1-0.4-0.4l0,0c0-0.2,0.1-0.4,0.4-0.4H219c0.2,0,0.4,0.1,0.4,0.4l0,0
					C219.4,179,219.3,179.1,219,179.1z"/>
				<path class="st18" d="M214.6,180.9h-14v-0.7h14c0.2,0,0.4,0.1,0.4,0.4l0,0C215,180.8,214.8,180.9,214.6,180.9z"/>
				<path class="st11" d="M221.2,185.5h-20.3c-0.2,0-0.4-0.1-0.4-0.4l0,0c0-0.2,0.1-0.4,0.4-0.4h20.3c0.2,0,0.4,0.1,0.4,0.4l0,0
					C221.5,185.4,221.4,185.5,221.2,185.5z"/>
				<path class="st18" d="M210.8,187.3H201c-0.2,0-0.4-0.1-0.4-0.4l0,0c0-0.2,0.1-0.4,0.4-0.4h9.8c0.2,0,0.4,0.1,0.4,0.4l0,0
					C211.1,187.2,210.9,187.3,210.8,187.3z"/>
				<path class="st11" d="M214.9,191.4h-13.9c-0.2,0-0.4-0.1-0.4-0.4l0,0c0-0.2,0.1-0.4,0.4-0.4h13.9c0.2,0,0.4,0.1,0.4,0.4l0,0
					C215.2,191.3,215.1,191.4,214.9,191.4z"/>
				<path class="st18" d="M207.6,193.2H201c-0.2,0-0.4-0.1-0.4-0.4l0,0c0-0.2,0.1-0.4,0.4-0.4h6.6c0.2,0,0.4,0.1,0.4,0.4l0,0
					C207.9,193.1,207.8,193.2,207.6,193.2z"/>
				<path class="st11" d="M220.1,197.4h-19.2c-0.2,0-0.4-0.1-0.4-0.4l0,0c0-0.2,0.1-0.4,0.4-0.4h19.2c0.2,0,0.4,0.1,0.4,0.4l0,0
					C220.5,197.2,220.4,197.4,220.1,197.4z"/>
				<path class="st18" d="M211.1,199.2h-10.5v-0.7h10.5c0.2,0,0.4,0.1,0.4,0.4l0,0C211.5,199,211.3,199.2,211.1,199.2z"/>
				<path class="st11" d="M216.6,203.8h-15.7c-0.2,0-0.4-0.1-0.4-0.4l0,0c0-0.2,0.1-0.4,0.4-0.4h15.7c0.2,0,0.4,0.1,0.4,0.4l0,0
					C217,203.7,216.8,203.8,216.6,203.8z"/>
				<path class="st18" d="M211.1,205.6h-10.5v-0.7h10.5c0.2,0,0.4,0.1,0.4,0.4l0,0C211.5,205.5,211.3,205.6,211.1,205.6z"/>
			</g>
		</g>
		<g>
			<g>
				<path class="st11" d="M282.2,160.2v22.1h-54.2v-22.1H282.2 M283.2,159.2h-56.2v24.1h56.2V159.2L283.2,159.2z"/>
			</g>
			<rect x="227.1" y="159.2" class="st16" width="56.2" height="4.5"/>
			<line class="st17" x1="227.1" y1="163.7" x2="283.1" y2="163.7"/>
			<g>
				<path class="st22" d="M231.6,179.7L231.6,179.7c-0.2,0-0.3-0.1-0.3-0.3v-12c0-0.2,0.1-0.3,0.3-0.3l0,0c0.2,0,0.3,0.1,0.3,0.3v12
					C231.9,179.5,231.8,179.7,231.6,179.7z"/>
				<rect x="272.3" y="179.1" class="st20" width="6.6" height="0.6"/>
				<rect x="264.8" y="176.2" class="st20" width="6.6" height="3.5"/>
				<rect x="257.2" y="178.8" class="st20" width="6.6" height="0.9"/>
				<rect x="249.7" y="169.8" class="st20" width="6.6" height="9.9"/>
				<rect x="242.2" y="175.4" class="st20" width="6.6" height="4.3"/>
				<rect x="234.7" y="178.1" class="st20" width="6.6" height="1.6"/>
			</g>
		</g>
	</g>
</g>
</svg>
