<svg xmlns="http://www.w3.org/2000/svg" viewBox="0 0 126 114" enable-background="new 0 0 126 114"><path fill="#3B4251" d="M111.231 53.232h-96.434c-.552 0-1-.448-1-1v-39.983c0-.552.448-1 1-1h96.435c.553 0 1 .448 1 1v39.984c-.001.552-.448.999-1.001.999zm-95.434-2h94.435v-37.983h-94.435v37.983z"/><path fill="#8CC640" d="M111.231 101.833h-96.434c-.552 0-1-.447-1-1v-39.984c0-.553.448-1 1-1h96.435c.553 0 1 .447 1 1v39.984c-.001.553-.448 1-1.001 1zm-95.434-2h94.435v-37.984h-94.435v37.984z"/><g fill="#8DC63F"><path d="M30.724 79.139c.824 0 1.419.285 1.974.758.065.065.073.163.008.228l-.228.228c-.073.082-.122.074-.212-.008-.416-.367-1.003-.636-1.55-.636-1.289 0-2.267 1.076-2.267 2.341 0 1.256.979 2.357 2.267 2.357.897 0 1.468-.343 1.468-.343v-1.142h-.938c-.09 0-.155-.065-.155-.147v-.302c0-.09.065-.155.155-.155h1.411c.082 0 .147.073.147.155v1.868l-.065.131s-.832.538-2.015.538c-1.631 0-2.944-1.297-2.944-2.928 0-1.63 1.313-2.943 2.944-2.943zM35.796 79.375c0-.081.065-.155.155-.155h3.213c.09 0 .155.074.155.155v.237c0 .081-.065.155-.155.155h-2.74v1.99h2.341c.082 0 .155.073.155.155v.236c0 .09-.073.155-.155.155h-2.341v2.08h2.74c.09 0 .155.073.155.155v.236c0 .082-.065.155-.155.155h-3.213c-.09 0-.155-.073-.155-.155v-5.399zM44.759 79.139c.824 0 1.419.285 1.974.758.065.065.073.163.008.228l-.22.22c-.065.082-.13.073-.212-.008-.424-.367-1.003-.612-1.558-.612-1.289 0-2.275 1.085-2.275 2.349 0 1.256.987 2.341 2.275 2.341.71 0 1.126-.285 1.558-.612.082-.065.147-.057.196-.024l.244.221c.065.049.049.163-.008.22-.555.538-1.256.791-1.982.791-1.631 0-2.944-1.297-2.944-2.928s1.313-2.944 2.944-2.944zM49.627 79.416c0-.106.082-.196.196-.196h.236c.106 0 .196.09.196.196v2.308l2.545-2.422c.033-.041.106-.082.155-.082h.4c.147 0 .228.163.098.286l-2.577 2.406 2.7 2.765c.057.057.041.253-.139.253h-.417l-.147-.057-2.618-2.732v2.593c0 .106-.09.196-.196.196h-.236c-.114 0-.196-.09-.196-.196v-5.318zM58.516 79.139c1.631 0 2.936 1.313 2.936 2.944s-1.305 2.928-2.936 2.928-2.928-1.297-2.928-2.928c.001-1.631 1.297-2.944 2.928-2.944zm0 5.301c1.297 0 2.365-1.06 2.365-2.357 0-1.297-1.068-2.373-2.365-2.373-1.297 0-2.357 1.076-2.357 2.373 0 1.297 1.061 2.357 2.357 2.357zM64.331 79.375c0-.081.065-.155.155-.155h1.786c.995 0 1.672.644 1.672 1.501 0 .628-.416 1.085-.799 1.305.432.179.979.579.979 1.329 0 .913-.726 1.574-1.778 1.574h-1.86c-.09 0-.155-.073-.155-.155v-5.399zm2.079 5.008c.595 0 1.028-.449 1.028-1.036 0-.579-.53-1.003-1.166-1.003h-1.346v2.039h1.484zm-.138-2.602c.628 0 .979-.448.979-1.019 0-.587-.351-.979-.979-.979h-1.329v1.998h1.329zM73.571 79.139c1.631 0 2.936 1.313 2.936 2.944s-1.305 2.928-2.936 2.928-2.928-1.297-2.928-2.928 1.296-2.944 2.928-2.944zm0 5.301c1.297 0 2.365-1.06 2.365-2.357 0-1.297-1.068-2.373-2.365-2.373-1.297 0-2.357 1.076-2.357 2.373 0 1.297 1.06 2.357 2.357 2.357zM78.569 84.718l2.479-5.489c.024-.049.065-.09.139-.09h.082c.073 0 .114.041.139.09l2.463 5.489c.049.106-.016.212-.139.212h-.326c-.073 0-.122-.049-.139-.09l-.604-1.346h-2.895l-.595 1.346c-.016.041-.065.09-.139.09h-.326c-.122 0-.188-.107-.139-.212zm3.874-1.73l-1.191-2.675h-.065l-1.191 2.675h2.447zM86.39 79.375c0-.081.065-.155.155-.155h2.112c.979 0 1.778.767 1.778 1.737 0 .75-.498 1.378-1.207 1.664l1.117 2.072c.057.106 0 .236-.139.236h-.416c-.073 0-.114-.041-.13-.073l-1.085-2.161h-1.558v2.08c0 .082-.073.155-.155.155h-.318c-.09 0-.155-.073-.155-.155v-5.4zm2.227 2.782c.628 0 1.174-.522 1.174-1.191 0-.62-.546-1.15-1.174-1.15h-1.582v2.341h1.582zM93.411 79.375c0-.081.065-.155.147-.155h1.827c1.574 0 2.863 1.281 2.863 2.846 0 1.582-1.289 2.863-2.863 2.863h-1.827c-.082 0-.147-.073-.147-.155v-5.399zm1.844 4.992c1.338 0 2.308-.954 2.308-2.3 0-1.338-.97-2.292-2.308-2.292h-1.223v4.592h1.223z"/></g><path fill="#3B4251" d="M103.398 48.935c-2.476 0-4.489-2.014-4.489-4.489s2.014-4.489 4.489-4.489 4.489 2.014 4.489 4.489-2.013 4.489-4.489 4.489zm0-6.978c-1.373 0-2.489 1.117-2.489 2.489s1.116 2.489 2.489 2.489 2.489-1.117 2.489-2.489-1.116-2.489-2.489-2.489z"/><path fill="#8CC640" d="M103.398 74.046c-2.476 0-4.489-2.014-4.489-4.489s2.014-4.489 4.489-4.489 4.489 2.014 4.489 4.489-2.013 4.489-4.489 4.489zm0-6.979c-1.373 0-2.489 1.116-2.489 2.489s1.116 2.489 2.489 2.489 2.489-1.116 2.489-2.489-1.116-2.489-2.489-2.489z"/><path fill="#3B4251" d="M103.398 71.057c-.828 0-1.5-.672-1.5-1.5v-25.111c0-.829.672-1.5 1.5-1.5s1.5.671 1.5 1.5v25.111c0 .828-.671 1.5-1.5 1.5zM23.299 48.935c-2.476 0-4.489-2.014-4.489-4.489s2.014-4.489 4.489-4.489 4.49 2.014 4.49 4.489-2.015 4.489-4.49 4.489zm0-6.978c-1.373 0-2.489 1.117-2.489 2.489s1.117 2.489 2.489 2.489c1.373 0 2.49-1.117 2.49-2.489s-1.117-2.489-2.49-2.489z"/><path fill="#8CC640" d="M23.299 74.046c-2.476 0-4.489-2.014-4.489-4.489s2.014-4.489 4.489-4.489 4.49 2.014 4.49 4.489-2.015 4.489-4.49 4.489zm0-6.979c-1.373 0-2.489 1.116-2.489 2.489s1.117 2.489 2.489 2.489c1.373 0 2.49-1.116 2.49-2.489s-1.117-2.489-2.49-2.489z"/><path fill="#3B4251" d="M23.299 71.057c-.829 0-1.5-.672-1.5-1.5v-25.111c0-.829.671-1.5 1.5-1.5s1.5.671 1.5 1.5v25.111c0 .828-.672 1.5-1.5 1.5z"/><g fill-rule="evenodd" clip-rule="evenodd" fill="#3B4251"><path d="M88.348 36.141c-.204.111-.409.241-.613.334-.613.278-1.245.353-1.802.353-.594 0-1.523-.037-2.47-.724-1.318-.929-1.894-2.526-1.894-3.918 0-2.878 2.34-4.29 4.253-4.29.668 0 1.356.167 1.913.52.928.613 1.17 1.411 1.299 1.839l-4.364 1.764-1.43.112c.464 2.358 2.061 3.732 3.826 3.732.947 0 1.634-.334 2.266-.65l-.984.928zm-1.746-5.534c.353-.13.538-.242.538-.502 0-.743-.835-1.597-1.839-1.597-.743 0-2.135.576-2.135 2.582 0 .316.037.65.055.984l3.381-1.467zM81.124 36.55h-3.287c.427-.557.502-.613.502-.984v-3.027c0-1.448.019-3.51.074-5.441.019-.947.093-2.136.111-2.99h-1.448l1.393-.669h2.655c-.575.334-.761.446-.835 1.096-.148 1.43-.167 3.695-.167 6.332v4.29c0 .724.13.836.743.892l.947.093-.688.408zM75.033 28.806c.427.353 1.318 1.096 1.318 2.507 0 1.374-.78 2.024-1.56 2.637-.241.241-.52.502-.52.91 0 .409.279.631.483.798l.669.52c.817.687 1.56 1.319 1.56 2.6 0 1.746-1.69 3.51-4.884 3.51-2.693 0-3.993-1.282-3.993-2.656 0-.669.334-1.616 1.431-2.266 1.151-.706 2.711-.798 3.547-.854-.26-.334-.557-.687-.557-1.263 0-.316.093-.502.186-.724-.205.018-.409.037-.595.037-1.968 0-3.083-1.467-3.083-2.916 0-.854.39-1.801 1.188-2.488 1.059-.873 2.321-1.021 3.324-1.021h3.825l-1.188.668h-1.151v.001zm-1.319 8.245c-.149-.019-.242-.019-.427-.019-.167 0-1.17.037-1.95.297-.409.149-1.597.594-1.597 1.913 0 1.318 1.281 2.265 3.268 2.265 1.783 0 2.73-.854 2.73-2.005 0-.947-.612-1.448-2.024-2.451zm.539-3.528c.427-.427.464-1.022.464-1.356 0-1.337-.799-3.417-2.34-3.417-.483 0-1.003.242-1.3.613-.316.39-.409.891-.409 1.374 0 1.244.724 3.306 2.321 3.306.465 0 .966-.223 1.264-.52zM63.519 36.791c-2.953 0-4.531-2.302-4.531-4.382 0-2.433 1.987-4.513 4.81-4.513 2.73 0 4.439 2.136 4.439 4.383-.001 2.191-1.691 4.512-4.718 4.512zm2.321-1.504c.446-.595.557-1.337.557-2.062 0-1.634-.78-4.754-3.083-4.754-.613 0-1.225.241-1.671.631-.724.65-.854 1.467-.854 2.266 0 1.839.91 4.865 3.157 4.865.724.001 1.467-.352 1.894-.946zM53.639 36.791c-2.953 0-4.531-2.302-4.531-4.382 0-2.433 1.987-4.513 4.81-4.513 2.73 0 4.438 2.136 4.438 4.383 0 2.191-1.69 4.512-4.717 4.512zm2.321-1.504c.446-.595.557-1.337.557-2.062 0-1.634-.78-4.754-3.082-4.754-.613 0-1.226.241-1.672.631-.724.65-.854 1.467-.854 2.266 0 1.839.91 4.865 3.157 4.865.725.001 1.467-.352 1.894-.946zM47.927 36.143l-2.489.574c-1.01.157-1.915.296-2.873.296-4.805 0-6.633-3.534-6.633-6.303 0-3.377 2.594-6.511 7.034-6.511.94 0 1.846.14 2.664.366 1.306.366 1.915.818 2.298 1.08l-1.445 1.375-.609.139.435-.697c-.592-.574-1.672-1.636-3.726-1.636-2.751 0-4.823 2.089-4.823 5.136 0 3.273 2.368 6.355 6.163 6.355 1.115 0 1.689-.226 2.211-.435v-2.803l-2.629.139 1.393-.749h3.691l-.453.435c-.122.104-.14.139-.174.279-.017.157-.035.662-.035.836v2.124z"/></g></svg>