<?xml version="1.0" encoding="utf-8"?>
<!-- Generator: Adobe Illustrator 19.2.0, SVG Export Plug-In . SVG Version: 6.00 Build 0)  -->
<svg version="1.1" id="Layer_1" xmlns="http://www.w3.org/2000/svg" xmlns:xlink="http://www.w3.org/1999/xlink" x="0px" y="0px"
	 viewBox="0 0 320 230" style="enable-background:new 0 0 320 230;" xml:space="preserve">
<style type="text/css">
	.st0{opacity:0.25;}
	.st1{fill:none;stroke:#3B4251;stroke-width:3;stroke-linecap:round;stroke-miterlimit:10;}
	.st2{opacity:0.1;fill:#3B4251;}
	.st3{fill:none;stroke:#8BC541;stroke-width:2;stroke-miterlimit:10;}
	.st4{fill:none;stroke:#8BC541;stroke-width:3;stroke-linecap:round;stroke-linejoin:round;stroke-miterlimit:10;}
	.st5{fill:none;stroke:#3B4251;stroke-width:3;stroke-miterlimit:10;}
	.st6{enable-background:new    ;}
	.st7{fill:#8BC541;}
	.st8{opacity:0.2;fill:#8BC541;}
	.st9{opacity:0.1;}
	.st10{fill:#3B4251;}
</style>
<g class="st0">
	<path class="st1" d="M75.6,62.3l4.4,2.5"/>
	<path class="st1" d="M87,68.9l8.6,5"/>
	<path class="st1" d="M101.2,77.2l4.4,2.5"/>
	<path class="st1" d="M128.7,56.6l-2.5-4.4"/>
	<path class="st1" d="M122,45.2l-4.9-8.4"/>
	<path class="st1" d="M113.7,30.9l-2.5-4.4"/>
	<path class="st1" d="M160,13.6v5"/>
	<path class="st1" d="M160,25.7v11.1"/>
	<path class="st1" d="M160,43.3v5"/>
	<path class="st1" d="M208.8,26.7l-2.5,4.4"/>
	<path class="st1" d="M203.3,36.1l-6.2,10.6"/>
	<path class="st1" d="M194,52.3l-2.5,4.4"/>
	<path class="st1" d="M244.4,62.3l-4.4,2.5"/>
	<path class="st1" d="M233,68.9l-8.5,5"/>
	<path class="st1" d="M218.8,77.2l-4.4,2.5"/>
	<path class="st1" d="M257.5,111.1h-5"/>
	<path class="st1" d="M246.8,111.1H233"/>
	<path class="st1" d="M227.9,111.1h-5"/>
	<path class="st1" d="M214.5,142.5l4.4,2.5"/>
	<path class="st1" d="M223.6,147.8l11.4,6.6"/>
	<path class="st1" d="M240.1,157.3l4.4,2.5"/>
	<path class="st1" d="M97.2,111.1h-5"/>
	<path class="st1" d="M87,111.1H73.6"/>
	<path class="st1" d="M67.5,111.1h-5"/>
	<path class="st1" d="M105.5,142.5l-4.4,2.5"/>
	<path class="st1" d="M94.7,148.8l-9.6,5.6"/>
	<path class="st1" d="M79.9,157.3l-4.4,2.5"/>
</g>
<g>
	<path class="st2" d="M207.5,221.9c0,1.7-21.3,3.1-47.6,3.1s-47.6-1.4-47.6-3.1c0-1.4,13.7-2.5,32.7-2.9L160,224l15.1-5.1
		C193.9,219.4,207.5,220.6,207.5,221.9z"/>
	<path class="st3" d="M153.4,189.4l-10.8-75.1c-0.3-1.8-0.3-3.7-0.1-5.5c0.8-7.2,4.2-9.5,6.2-9.5c2.3,0,7.6,2.9,7.6,12.8
		c0,3.3-1,4.6-3.3,4.6c-2.4,0-3.3-1.4-3.3-4.6c0-9.9,5.3-12.8,7.6-12.8s7.6,2.9,7.6,12.8c0,3.3-1,4.6-3.3,4.6
		c-2.4,0-3.3-1.4-3.3-4.6c0-9.9,5.3-12.8,7.6-12.8s7.6,2.9,7.6,12.8c0,3.3-1,4.6-3.3,4.6c-2.4,0-3.3-1.4-3.3-4.6
		c0-9.9,5.3-12.8,7.6-12.8c1.9,0,5.1,2,6.1,8.4c0.4,2.3,0.3,4.7-0.1,6.9l-12.4,74.7"/>
	<path class="st4" d="M141.6,189.4l3.2,28.8c0.2,2.9,10.3,5.3,12.2,5.3h6.2c2,0,12-2.5,12.2-5.3l3.2-28.8L141.6,189.4L141.6,189.4z"
		/>
	<path class="st5" d="M177,189.4c2.9,0,5.6-2.5,6-5.3l4.7-28.8c0.4-2.9,2.1-7.2,4.1-9.5c0,0,15.7-18.2,15.7-33.7
		c0-25.8-21-46.8-46.8-46.8h-1.2c-25.8,0-46.8,21-46.8,46.8c0,15.6,15.7,33.7,15.7,33.7c2,2.2,3.8,6.4,4.1,9.5l4.7,28.8
		c0.4,2.9,2.9,5.3,6,5.3H177L177,189.4z"/>
	<g class="st6">
		<g>
			<path class="st7" d="M178.8,197.9c0.6,0,1,0.4,1,1v0.5c0,0.6-0.4,1-1,1h-37.7c-0.6,0-1-0.4-1-1v-0.5c0-0.6,0.4-1,1-1H178.8
				 M178.8,195.9h-37.7c-1.7,0-3,1.3-3,3v0.5c0,1.7,1.3,3,3,3h37.7c1.7,0,3-1.3,3-3v-0.5C181.8,197.3,180.5,195.9,178.8,195.9
				L178.8,195.9z"/>
		</g>
	</g>
	<g>
		<path class="st7" d="M143.3,194.2h-1.4h-1.1c-2.7,0-5,2.2-5,5c0,2.7,2.2,5,5,5h1.4h2.3L143.3,194.2z"/>
		<path class="st7" d="M179.1,194.2h-0.9h-1.5l-1.1,9.9h2.3h1.2c2.7,0,5-2.2,5-5C184,196.4,181.8,194.2,179.1,194.2z"/>
	</g>
	<g class="st6">
		<g>
			<path class="st7" d="M177.4,210.1c0.7,0,1.2,0.6,1.2,1.2s-0.6,1.2-1.2,1.2h-34.7c-0.7,0-1.2-0.6-1.2-1.2s0.6-1.2,1.2-1.2H177.4
				 M177.4,208.1h-34.7c-1.8,0-3.2,1.5-3.2,3.2s1.5,3.2,3.2,3.2h34.7c1.8,0,3.2-1.5,3.2-3.2S179.1,208.1,177.4,208.1L177.4,208.1z"
				/>
		</g>
	</g>
	<g>
		<path class="st7" d="M144.6,206.4h-1.4H142c-2.7,0-5,2.2-5,5c0,2.7,2.2,5,5,5h1.4h2.3L144.6,206.4z"/>
		<path class="st7" d="M177.9,206.4H177h-1.5l-1.1,9.9h2.3h1.2c2.7,0,5-2.2,5-5C182.9,208.6,180.6,206.4,177.9,206.4z"/>
	</g>
</g>
<path class="st8" d="M163.6,219h-6.9c-1.8,0-9.4-2.1-12.4-4.4l0.4,4c0.2,2.9,10.3,5.4,12.2,5.4h6.2c2,0,12-2.7,12.2-5.6l0.4-3.8
	C172.9,217,165.3,219,163.6,219z"/>
<g class="st9">
	<path class="st10" d="M129.6,144.2c-0.4-3.3-2.4-8-4.6-10.5c0,0-7-8.1-12.1-18.4c1.9,14.7,15.5,30.4,15.5,30.4
		c0.7,0.8,1.3,1.7,1.9,2.8L129.6,144.2z"/>
	<path class="st10" d="M178.8,182h-37.4c-1.9,0-3.6-0.9-4.8-2.2l0.7,4.5c0.4,2.9,2.9,5.6,6,5.6H177c2.9,0,5.6-2.8,6-5.6l0.7-4.4
		C182.4,181.3,180.6,182,178.8,182z"/>
	<path class="st10" d="M195.2,133.8c-2.2,2.5-4.1,7.2-4.6,10.5l-0.7,4.4c0.6-1.1,1.2-2.1,1.9-2.9c0,0,13.6-15.8,15.5-30.4
		C202.2,125.7,195.2,133.8,195.2,133.8z"/>
</g>
</svg>
