<?xml version="1.0" encoding="utf-8"?>
<!-- Generator: Adobe Illustrator 21.0.0, SVG Export Plug-In . SVG Version: 6.00 Build 0)  -->
<svg version="1.1" id="Layer_1" xmlns="http://www.w3.org/2000/svg" xmlns:xlink="http://www.w3.org/1999/xlink" x="0px" y="0px"
	 viewBox="0 0 56 56" style="enable-background:new 0 0 56 56;" xml:space="preserve">
<style type="text/css">
	.st0{opacity:0.4849;enable-background:new    ;}
	.st1{fill:#8DC63F;}
	.st2{fill:#ADDE6A;}
</style>
<g>
	<g class="st0">
		<path class="st1" d="M16.4,46.9c-0.2,0-0.4-0.1-0.6-0.2c-0.6-0.4-1.1-0.8-1.7-1.2c-0.4-0.3-0.5-1-0.1-1.4c0.3-0.4,1-0.5,1.4-0.1
			c0.5,0.4,1,0.8,1.5,1.1c0.5,0.3,0.6,0.9,0.3,1.4C17,46.7,16.7,46.9,16.4,46.9z M11.9,42.9c-0.3,0-0.6-0.1-0.8-0.4
			c-0.4-0.5-0.9-1.1-1.3-1.7c-0.3-0.5-0.2-1.1,0.3-1.4c0.5-0.3,1.1-0.2,1.4,0.3c0.4,0.5,0.8,1,1.2,1.5c0.4,0.4,0.3,1.1-0.1,1.4
			C12.4,42.8,12.2,42.9,11.9,42.9z M8.8,37.9c-0.4,0-0.8-0.2-0.9-0.6c-0.3-0.6-0.5-1.3-0.8-2c-0.2-0.5,0.1-1.1,0.6-1.3
			s1.1,0.1,1.3,0.6c0.2,0.6,0.4,1.2,0.7,1.8c0.2,0.5,0,1.1-0.5,1.3C9,37.8,8.9,37.9,8.8,37.9z M7.2,32.1c-0.5,0-0.9-0.4-1-0.9
			C6.1,30.5,6,29.8,6,29.1c0-0.6,0.4-1,1-1c0.6,0,1,0.4,1,1c0,0.6,0.1,1.3,0.2,1.9c0.1,0.5-0.3,1-0.9,1.1
			C7.3,32.1,7.2,32.1,7.2,32.1z M7.3,26.1c-0.1,0-0.1,0-0.2,0C6.6,26,6.2,25.5,6.3,25c0.1-0.7,0.2-1.4,0.4-2.1
			c0.1-0.5,0.7-0.9,1.2-0.7c0.5,0.1,0.9,0.7,0.7,1.2c-0.2,0.6-0.3,1.2-0.4,1.9C8.2,25.8,7.7,26.1,7.3,26.1z M9,20.4
			c-0.1,0-0.3,0-0.4-0.1c-0.5-0.2-0.7-0.8-0.5-1.3c0.3-0.6,0.6-1.2,1-1.8c0.3-0.5,0.9-0.6,1.4-0.3c0.5,0.3,0.6,0.9,0.3,1.4
			c-0.3,0.5-0.6,1.1-0.9,1.7C9.8,20.2,9.4,20.4,9,20.4z M12.3,15.4c-0.2,0-0.5-0.1-0.7-0.3c-0.4-0.4-0.4-1-0.1-1.4
			c0.5-0.5,1-1,1.5-1.5c0.4-0.4,1-0.4,1.4,0.1c0.4,0.4,0.4,1-0.1,1.4c-0.5,0.4-0.9,0.9-1.3,1.4C12.9,15.3,12.6,15.4,12.3,15.4z"/>
	</g>
	<g class="st0">
		<path class="st1" d="M42.1,44.9c-0.3,0-0.5-0.1-0.7-0.3c-0.4-0.4-0.3-1,0.1-1.4c0.5-0.4,0.9-0.9,1.3-1.3c0.4-0.4,1-0.4,1.4-0.1
			c0.4,0.4,0.4,1,0.1,1.4c-0.5,0.5-1,1-1.5,1.5C42.6,44.9,42.3,44.9,42.1,44.9z M45.9,40.3c-0.2,0-0.4,0-0.5-0.1
			c-0.5-0.3-0.6-0.9-0.3-1.4c0.3-0.5,0.6-1.1,0.9-1.7c0.2-0.5,0.8-0.7,1.3-0.5s0.7,0.8,0.5,1.3c-0.3,0.6-0.6,1.2-1,1.8
			C46.6,40.2,46.3,40.3,45.9,40.3z M48.3,34.9c-0.1,0-0.2,0-0.3,0c-0.5-0.1-0.8-0.7-0.7-1.2c0.2-0.6,0.3-1.2,0.4-1.9
			c0.1-0.5,0.6-0.9,1.2-0.8c0.5,0.1,0.9,0.6,0.8,1.2c-0.1,0.7-0.3,1.4-0.4,2C49.1,34.6,48.7,34.9,48.3,34.9z M49,28.9
			c-0.5,0-1-0.4-1-1c0-0.6-0.1-1.3-0.1-1.9c-0.1-0.5,0.3-1,0.9-1.1c0.6-0.1,1,0.3,1.1,0.9c0.1,0.7,0.1,1.4,0.1,2.1
			C50,28.5,49.6,28.9,49,28.9C49,28.9,49,28.9,49,28.9z M48,23c-0.4,0-0.8-0.3-1-0.7c-0.2-0.6-0.4-1.2-0.7-1.8
			c-0.2-0.5,0-1.1,0.5-1.3c0.5-0.2,1.1,0,1.3,0.5c0.3,0.6,0.5,1.3,0.7,2c0.2,0.5-0.1,1.1-0.6,1.3C48.2,23,48.1,23,48,23z M45.4,17.6
			c-0.3,0-0.6-0.2-0.8-0.4c-0.4-0.5-0.7-1-1.1-1.5c-0.4-0.4-0.3-1.1,0.1-1.4c0.4-0.4,1.1-0.3,1.4,0.1c0.4,0.5,0.9,1.1,1.3,1.7
			c0.3,0.5,0.2,1.1-0.3,1.4C45.8,17.6,45.6,17.6,45.4,17.6z M41.4,13.2c-0.2,0-0.5-0.1-0.6-0.2c-0.5-0.4-1-0.8-1.5-1.2
			c-0.5-0.3-0.6-0.9-0.3-1.4c0.3-0.5,0.9-0.6,1.4-0.3c0.6,0.4,1.1,0.8,1.7,1.3c0.4,0.4,0.5,1,0.1,1.4C42,13.1,41.7,13.2,41.4,13.2z"
			/>
	</g>
</g>
<path class="st1" d="M40.8,3.3c-0.1-0.7-0.6-1.2-1.1-1.6c-0.6-0.4-1.4-0.6-2.2-0.6c-0.7,0-1.7,0-2.9-0.1H21.5c-1.4,0-2.3,0.1-3.1,0
	c-1,0-2,0.4-2.6,1.2c-0.3,0.3-0.5,0.7-0.6,1.2C15,4,15,5.2,15,7.1v41.8c0,1.9,0,3.1,0.2,3.9c0.3,1.1,1.3,2.3,2.4,2.7
	c1,0.3,1.5,0.5,3.4,0.5h14c1.9,0,2.4-0.2,3.4-0.5c1.1-0.4,2.2-1.4,2.4-2.6c0.2-0.9,0.1-2.4,0.2-4V7.1C41,5,41,4,40.8,3.3z M38,48H18
	V8h20V48z"/>
<rect x="24" y="4" class="st2" width="8" height="1"/>
<circle class="st2" cx="28" cy="52" r="3"/>
</svg>
