<?xml version="1.0" encoding="utf-8"?>
<!-- Generator: Adobe Illustrator 19.2.0, SVG Export Plug-In . SVG Version: 6.00 Build 0)  -->
<svg version="1.1" id="Layer_1" xmlns="http://www.w3.org/2000/svg" xmlns:xlink="http://www.w3.org/1999/xlink" x="0px" y="0px"
	 viewBox="0 0 280 210" style="enable-background:new 0 0 280 210;" xml:space="preserve">
<style type="text/css">
	.st0{opacity:0.1;}
	.st1{fill:none;stroke:#3D4351;stroke-width:2;stroke-linecap:round;stroke-miterlimit:10;stroke-dasharray:12.154,10.1283;}
	.st2{opacity:0.1;fill:#3D4350;}
	.st3{fill:#FFFFFF;stroke:#C4CACC;stroke-width:4;stroke-miterlimit:10;}
	.st4{opacity:0.1;fill:none;stroke:#3D4350;stroke-width:2;stroke-linecap:round;stroke-miterlimit:10;}
	.st5{fill:#B1B4B9;}
	.st6{fill:#FFFFFF;stroke:#84898C;stroke-width:4;stroke-miterlimit:10;}
	.st7{fill:#888B8E;}
	.st8{fill:#FFFFFF;}
</style>
<g>
	<g class="st0">
		<circle class="st1" cx="138" cy="101.3" r="92.2"/>
	</g>
	<path class="st2" d="M234,49.5l-84.9-22c-3.7-1-7.6,0.6-9.7,3.6c-2.1-2.8-5.8-4.2-9.4-3.2l-84.9,22c-4.8,1.2-7.7,6.2-6.5,11
		L70.2,183l2.3,8.8c1.2,4.8,6.2,7.7,11,6.5l56.7-14.7l55.4,14.3c4.8,1.2,9.8-1.7,11-6.5l33.9-130.9C241.7,55.7,238.8,50.8,234,49.5z
		"/>
	<g>
		<g>
			<path class="st3" d="M121.8,168.3l84.9,22c4.8,1.2,9.8-1.7,11-6.5l33.9-130.9c1.2-4.8-1.7-9.8-6.5-11l-84.9-22
				c-4.8-1.2-9.8,1.7-11,6.5l-33.9,130.9C114.1,162.1,117,167.1,121.8,168.3z"/>
			<path class="st4" d="M152.2,169l51.1,13.9c5.6,1.1,8.7-0.4,9.8-5.8l31.1-120.3c0.8-4,2.3-8.1-5.8-9.8l-74.8-19.6
				c-6.2-1.7-8.2-0.9-9.8,4.9L142,82.3"/>
		</g>
		<path class="st5" d="M210.8,129.8c3.3-12.6,6.5-25.1,9.8-37.7c0.3-1.2,0.7-2.6,0.2-3.8c-0.9-1-2.2-1.3-3.5-1.6
			c-7.3-1.8-14.5-3.7-21.7-5.6c0.5-1.9,1-3.9,1.5-5.8l-4.3-1.1c-11.6-0.9-23.2-1.9-34.8-2.9c-4.4,16.9-8.8,33.8-13.2,50.6
			c10.5,4.8,21.1,9.5,31.6,14.4l4.5,1.2c0.6-2.2,1.1-4.3,1.7-6.5c7.5,1.9,15,3.9,22.5,5.8c1.2,0.3,3,0.7,3.7-0.7
			C209.9,134.1,210.2,131.9,210.8,129.8z M169.8,113.5c-0.4-3.3-1.2-6.6-1.2-10c-1.7,2.7-3.9,5.1-5.7,7.7c-1.6-0.4-3.1-0.9-4.7-1.4
			c2.8-3.2,5.6-6.4,8.4-9.5c-0.7-4.1-1.5-8.3-2.2-12.4c1.6,0.3,3.2,0.6,4.8,1c0.3,3.1,0.8,6.2,0.9,9.3c1.8-2.8,3.9-5.4,5.9-8
			c1.7,0.3,3.3,0.6,5,1c-3,3.5-5.9,6.9-8.9,10.3c0.9,4.6,1.9,9.1,2.9,13.7C173.2,114.6,171.5,114,169.8,113.5z M207.1,135
			c-8-2.1-15.9-4.1-23.9-6.2c0.4-1.4,0.8-2.9,1.1-4.3c1.9,0.5,3.9,1,5.8,1.5c0.4-1.7,0.9-3.4,1.3-5.1c-1.9-0.5-3.9-1-5.8-1.5
			c0.2-1,0.5-1.9,0.8-2.9c1.9,0.5,3.9,1,5.8,1.5c0.4-1.7,0.9-3.4,1.3-5.1c-1.9-0.5-3.9-1-5.8-1.5c0.2-1,0.5-1.9,0.8-2.9
			c1.9,0.5,3.9,1,5.8,1.5c0.4-1.7,0.9-3.4,1.3-5.1c-1.9-0.5-3.9-1-5.8-1.5c0.2-1,0.5-1.9,0.8-2.9c1.9,0.5,3.9,1,5.8,1.5
			c0.4-1.7,0.9-3.4,1.3-5.1c-1.9-0.5-3.9-1-5.8-1.5c0.2-1,0.5-1.9,0.8-2.9c1.9,0.5,3.9,1,5.8,1.5c0.4-1.7,0.9-3.4,1.3-5.1
			c-1.9-0.5-3.9-1-5.8-1.5c0.4-1.4,0.8-2.9,1.1-4.3c8,2.1,15.9,4.1,23.9,6.2C215,104.6,211,119.8,207.1,135z M202.6,89.8
			c3.4,0.9,6.8,1.8,10.1,2.6c-0.4,1.7-0.9,3.4-1.3,5.1c-3.4-0.9-6.8-1.8-10.1-2.6C201.7,93.2,202.2,91.5,202.6,89.8z M200.5,97.8
			c3.4,0.9,6.8,1.8,10.1,2.6c-0.4,1.7-0.9,3.4-1.3,5.1c-3.4-0.9-6.8-1.8-10.1-2.6C199.7,101.1,200.1,99.5,200.5,97.8z M198.5,105.7
			c3.4,0.9,6.8,1.8,10.1,2.6c-0.4,1.7-0.9,3.4-1.3,5.1c-3.4-0.9-6.8-1.8-10.1-2.6C197.6,109.1,198,107.4,198.5,105.7z M196.4,113.7
			c3.4,0.9,6.8,1.8,10.1,2.6c-0.4,1.7-0.9,3.4-1.3,5.1c-3.4-0.9-6.8-1.8-10.1-2.6C195.5,117.1,196,115.4,196.4,113.7z M194.3,121.6
			c3.4,0.9,6.8,1.8,10.1,2.6c-0.4,1.7-0.9,3.4-1.3,5.1c-3.4-0.9-6.8-1.8-10.1-2.6C193.5,125,193.9,123.3,194.3,121.6z"/>
	</g>
	<g>
		<g>
			<path class="st6" d="M154.9,168.3l-84.9,22c-4.8,1.2-9.8-1.7-11-6.5L25.2,52.9c-1.2-4.8,1.7-9.8,6.5-11l84.9-22
				c4.8-1.2,9.8,1.7,11,6.5l33.9,130.9C162.7,162.1,159.7,167.1,154.9,168.3z"/>
			<path class="st4" d="M152.5,161.4l-83,21.5c-1.9,0.5-3.9-0.7-4.4-2.6l-33.7-127c-0.5-1.9,0.6-3.9,2.6-4.4l83-21.5
				c1.9-0.5,3.9,0.7,4.4,2.6l33.7,127C155.6,158.9,154.5,160.9,152.5,161.4z"/>
		</g>
		<g>
			<g>
				<path class="st5" d="M119.7,82.3l12.1,46.5c0.7,3.4-1.3,6.5-4.4,7.2l-45.7,11.8c-3.4,0.7-6.5-1.3-7.2-4.4l-15.9-62
					c-0.7-3.4,1.3-6.5,4.4-7.2l30.9-8.1L119.7,82.3z"/>
			</g>
			<polygon class="st7" points="98.9,87.7 119.7,82.3 93.9,66.1 			"/>
			<path class="st8" d="M75,105.4l7.2,26.6l37.4-9.7l-7.2-26.6L75,105.4z M94.8,125.9L84,128.7l-1.3-5.1l10.8-2.7L94.8,125.9z
				 M92.7,117.7l-10.7,2.7l-1.3-4.9l10.7-2.7L92.7,117.7z M90.6,109.7l-10.8,2.8l-1.2-4.8l10.7-2.8L90.6,109.7z M115.8,120.5
				l-18.5,4.8l-1.3-5.2l18.5-4.8L115.8,120.5z M114,112.4l-18.9,4.9l-1.3-5.1l18.8-4.9L114,112.4z M111.9,104.2l-18.8,4.9l-1.3-4.8
				l18.8-4.9L111.9,104.2z"/>
		</g>
	</g>
</g>
</svg>
