<svg xmlns="http://www.w3.org/2000/svg" viewBox="0 0 126 114" enable-background="new 0 0 126 114"><path fill="#fff" d="M87.523 41.193l-.111-.066c-1.756-1.16-3.701-2.189-5.803-3.078l-.014-.004c-.889-.373-1.797-.721-2.734-1.039l-.062-.023c-.924-.311-1.873-.602-2.842-.859l-.104-.025c-.965-.254-1.949-.48-2.951-.68l-.131-.023c-1.004-.195-2.018-.361-3.053-.498l-.145-.016c-1.037-.131-2.092-.234-3.16-.303l-.123-.008c-1.078-.062-2.174-.104-3.281-.104h-.014c-9.686 0-18.426 2.627-24.676 6.844l-.268.166-23.691 15.523 24.123 15.803.103.068c1.756 1.158 3.705 2.189 5.815 3.082l.012.002c.885.375 1.793.721 2.732 1.041l.059.021c.922.311 1.875.602 2.846.859l.1.025c.969.256 1.947.482 2.953.68l.131.025c.998.193 2.02.361 3.053.496l.141.018c1.037.129 2.094.234 3.164.301l.125.006c1.076.066 2.172.105 3.279.105h.012c9.684 0 18.424-2.627 24.676-6.842l.27-.166 23.686-15.524-24.117-15.807zm-24.52 31.928c-8.906 0-16.121-7.215-16.121-16.121 0-8.904 7.215-16.119 16.121-16.119 8.904 0 16.119 7.215 16.119 16.119 0 8.906-7.215 16.121-16.119 16.121z"/><path fill="#3B4251" d="M63.007 81.033h-.011c-1.072 0-2.207-.036-3.372-.108l-.161-.008c-1.02-.064-2.074-.165-3.221-.308l-.13-.021c-1.051-.132-2.108-.304-3.164-.508l-.134-.026c-1.024-.201-2.021-.43-3.047-.701l-.119-.03c-.938-.249-1.928-.548-2.923-.883l-.102-.037c-.91-.31-1.838-.663-2.726-1.037l-.167-.07c-2.111-.891-4.149-1.971-5.97-3.172l-24.221-15.869c-.423-.277-.678-.749-.678-1.255s.255-.978.678-1.255l23.989-15.708c6.739-4.548 15.801-7.07 25.468-7.07 1.049 0 2.151.035 3.381.106l.186.013c1.001.063 2.095.168 3.198.307l.153.017c1.049.139 2.105.311 3.143.513l.113.02c1.054.209 2.076.445 3.064.705l.107.026c.939.25 1.927.549 2.934.887l.106.04c.934.318 1.84.663 2.74 1.04l.07.028c2.193.927 4.228 2.007 6.046 3.208l.053.03 24.171 15.84c.423.277.678.749.678 1.254s-.255.978-.678 1.255l-23.992 15.713c-6.738 4.544-15.798 7.064-25.462 7.064zm-12.475-4.581c.963.254 1.898.47 2.858.658l-.157 1.497.286-1.473c.994.192 1.991.354 2.961.481l.17.021c1.083.134 2.076.228 3.033.287l.125.006c1.104.068 2.176.103 3.187.103h.011c9.072 0 17.538-2.339 23.837-6.586l.321-.199 21.739-14.247-22.261-14.585c-1.713-1.13-3.57-2.116-5.58-2.969l-.048-.019-.001.001c-.895-.376-1.757-.704-2.636-1.002l-.112-.042c-.893-.298-1.817-.578-2.695-.812l-.141-.036c-.888-.233-1.851-.455-2.821-.647l-.095-.017c-1.007-.196-2.004-.358-2.992-.489l-.186-.022c-.992-.124-2.024-.223-3.018-.287l-.168-.012c-1.118-.063-2.163-.097-3.14-.097-9.089 0-17.555 2.339-23.851 6.587l-.314.196-21.746 14.252 22.316 14.619c1.648 1.087 3.498 2.07 5.5 2.922l.084.033c.842.356 1.728.694 2.631 1.002.987.334 1.913.614 2.806.851l-.286 1.476.383-1.451zm12.471-1.831c-9.717 0-17.622-7.905-17.622-17.621 0-9.715 7.905-17.619 17.622-17.619 9.715 0 17.619 7.904 17.619 17.619 0 9.716-7.903 17.621-17.619 17.621zm0-32.24c-8.062 0-14.622 6.558-14.622 14.619 0 8.062 6.559 14.621 14.622 14.621 8.061 0 14.619-6.559 14.619-14.621 0-8.061-6.558-14.619-14.619-14.619z"/><path fill="#8CC640" d="M63.001 66.186c-5.065 0-9.186-4.121-9.186-9.186 0-5.063 4.121-9.182 9.186-9.182s9.185 4.119 9.185 9.182c0 5.064-4.12 9.186-9.185 9.186zm0-15.368c-3.411 0-6.186 2.773-6.186 6.182 0 3.411 2.775 6.186 6.186 6.186s6.185-2.774 6.185-6.186c0-3.409-2.774-6.182-6.185-6.182z"/></svg>