<?xml version="1.0" encoding="utf-8"?>
<!-- Generator: Adobe Illustrator 18.0.0, SVG Export Plug-In . SVG Version: 6.00 Build 0)  -->
<!DOCTYPE svg PUBLIC "-//W3C//DTD SVG 1.1//EN" "http://www.w3.org/Graphics/SVG/1.1/DTD/svg11.dtd">
<svg version="1.1" id="Layer_1" xmlns="http://www.w3.org/2000/svg" xmlns:xlink="http://www.w3.org/1999/xlink" x="0px" y="0px"
	 viewBox="0 0 60 60" enable-background="new 0 0 60 60" xml:space="preserve">
<g>
	<path fill="none" stroke="#8CC640" stroke-width="3" stroke-miterlimit="10" d="M30.1,58.1c-15.3,0-27.8-12.5-27.8-27.8
		S14.8,2.5,30.1,2.5S57.9,15,57.9,30.3S45.4,58.1,30.1,58.1z"/>
</g>
<g>
	<path fill="none" stroke="#8CC640" stroke-width="2" stroke-miterlimit="10" d="M30,25.5c-3,0-5.5-2.5-5.5-5.5c0-3,2.5-5.5,5.5-5.5
		c3,0,5.5,2.5,5.5,5.5S33,25.5,30,25.5L30,25.5z"/>
	<path fill="none" stroke="#8CC640" stroke-width="2" stroke-miterlimit="10" d="M38.6,45.3H21.4c-0.5,0-0.8-0.4-0.8-0.8V31.5
		c0-3.3,2.7-5.9,5.9-5.9h7c3.3,0,5.9,2.7,5.9,5.9v12.9C39.4,44.9,39.1,45.3,38.6,45.3z"/>
</g>
</svg>
