<?xml version="1.0" encoding="utf-8"?>
<!-- Generator: Adobe Illustrator 19.2.0, SVG Export Plug-In . SVG Version: 6.00 Build 0)  -->
<svg version="1.1" id="Layer_2" xmlns="http://www.w3.org/2000/svg" xmlns:xlink="http://www.w3.org/1999/xlink" x="0px" y="0px"
	 viewBox="0 0 528.8 356.4" style="enable-background:new 0 0 528.8 356.4;" xml:space="preserve">
<style type="text/css">
	.st0{opacity:0.1;}
	.st1{fill:#1F2022;}
	.st2{fill:#101214;}
	.st3{fill:#2A2A2A;}
	.st4{fill:#303030;}
	.st5{fill:#272727;}
	.st6{opacity:0.15;fill:#FFFFFF;enable-background:new    ;}
	.st7{fill:#FFFFFF;}
	.st8{fill:none;stroke:#43A4CF;stroke-linecap:round;stroke-miterlimit:10;enable-background:new    ;}
	.st9{fill:#8BC541;}
	.st10{fill:#E15353;}
	.st11{opacity:0.4;fill:none;stroke:#FFFFFF;stroke-miterlimit:10;}
	.st12{opacity:0.3;fill:none;stroke:#FFFFFF;stroke-miterlimit:10;}
	.st13{opacity:0.2;fill:none;stroke:#FFFFFF;stroke-miterlimit:10;}
	.st14{fill:#717779;}
	.st15{opacity:0.5;fill:#FFFFFF;}
	.st16{opacity:0.25;fill:#FFFFFF;}
	.st17{clip-path:url(#SVGID_2_);fill:#101214;}
	.st18{clip-path:url(#SVGID_2_);}
	.st19{clip-path:url(#SVGID_2_);fill:#717779;}
	.st20{clip-path:url(#SVGID_2_);fill:#80B636;}
	.st21{clip-path:url(#SVGID_2_);fill:none;stroke:#FFFFFF;stroke-width:2;stroke-linecap:round;stroke-miterlimit:10;}
</style>
<g>
	<path class="st0" d="M495.9,347.4H5.9c-3.3,0-6-2.7-6-6V65.6c0,0.2-0.1,0.5-0.1,0.8v284c0,3.3,2.7,6,6,6h488c3.3,0,6-2.7,6-6v-6.2
		C499.5,346,497.8,347.4,495.9,347.4z"/>
	<path class="st1" d="M499.8,56.4H5.8c-3.3,0-6,2.7-6,6v282c0,3.3,2.7,6,6,6h488c3.3,0,6-2.7,6-6V56.4z"/>
	<path class="st2" d="M481.8,74h-461c-1.7,0-3,1.3-3,3v250.7c0,1.7,1.3,3,3,3h458c1.7,0,3-1.3,3-3V74z"/>
</g>
<g>
	<g>
		<g>
			<path class="st3" d="M24.6,325.5c-0.8,0-1.5-0.7-1.5-1.5V103.1c0-0.8,0.7-1.5,1.5-1.5h220.7c0.8,0,1.5,0.7,1.5,1.5V324
				c0,0.8-0.7,1.5-1.5,1.5H24.6z"/>
			<path class="st4" d="M245.4,102.1c0.6,0,1,0.4,1,1V324c0,0.6-0.4,1-1,1H24.6c-0.6,0-1-0.4-1-1V103.1c0-0.6,0.4-1,1-1H245.4
				 M245.4,101.1H24.6c-1.1,0-2,0.9-2,2V324c0,1.1,0.9,2,2,2h220.7c1.1,0,2-0.9,2-2V103.1C247.4,102,246.5,101.1,245.4,101.1
				L245.4,101.1z"/>
		</g>
		<path class="st5" d="M246.4,120.6H23.6v-17.1c0-0.8,0.6-1.4,1.4-1.4h220.4c0.5,0,1,0.4,1,1V120.6z"/>
		<path class="st6" d="M104.8,112.7H33c-0.6,0-1-0.4-1-1V111c0-0.6,0.4-1,1-1h71.8c0.6,0,1,0.4,1,1v0.6
			C105.8,112.2,105.3,112.7,104.8,112.7z"/>
		<g>
			<path class="st7" d="M45.4,148.2l-4.6,2.2c-0.5,0.2-1.1,0.1-1.3-0.4l-0.7-2c-0.2-0.5-0.1-0.9,0.2-1.2l8.2-7.5h2.8
				c0.6,0,1,0.5,1,1.1v37.3c0,0.6-0.5,1.1-1,1.1h-3.5c-0.6,0-1.1-0.5-1.1-1.1V148.2z"/>
			<path class="st7" d="M63.7,171.3c2.1,0,4.8,1.5,4.8,6.4c0,6-3.7,10.1-5.7,11.6c-0.5,0.5-1,0.5-1.4,0l-0.9-0.9
				c-0.3-0.3-0.3-1,0.3-1.5c0.6-0.6,4.1-3.4,4.1-7.9c-0.1,0-0.7,0.2-1.5,0.2c-2.1,0-4-1.8-4-4C59.5,173.1,61.3,171.3,63.7,171.3z"/>
			<path class="st7" d="M75.2,177l15.7-32.6H73.7c-0.6,0-1.1-0.5-1.1-1.1v-2.9c0-0.6,0.5-1.1,1.1-1.1h23.8c0.6,0,1.1,0.5,1.1,1.1
				v0.4l-17.1,36.4c-0.5,1.2-0.8,1.6-2.3,1.6h-2.7c-0.8,0-1.3-0.5-1.3-1.1V177z"/>
			<path class="st7" d="M106.8,174.9c2.7-0.9,12-5.7,13.9-12.8c-0.5,0.3-3.9,2.1-7.7,2.1c-6.2,0-12.2-4.6-12.2-12.6
				c0-7.3,5.9-13.3,13-13.3c9.2,0,13.6,7.3,13.6,16.3c0,16.2-13.9,23-19.2,25.1c-0.7,0.2-1.2-0.1-1.5-0.7l-1-2.4
				C105.4,175.9,105.7,175.3,106.8,174.9z M121.7,155.1c0.5-4.9-1.7-11.6-8-11.6c-4.2,0-7.7,3.7-7.7,8c0,4.4,3.4,8,7.7,8
				C118.4,159.5,121.5,156.2,121.7,155.1z"/>
			<path class="st7" d="M138.1,174.9c2.7-0.9,12-5.7,13.9-12.8c-0.5,0.3-3.9,2.1-7.7,2.1c-6.2,0-12.2-4.6-12.2-12.6
				c0-7.3,5.9-13.3,13-13.3c9.2,0,13.6,7.3,13.6,16.3c0,16.2-13.9,23-19.2,25.1c-0.7,0.2-1.2-0.1-1.5-0.7l-1-2.4
				C136.8,175.9,137,175.3,138.1,174.9z M153.1,155.1c0.5-4.9-1.7-11.6-8-11.6c-4.2,0-7.7,3.7-7.7,8c0,4.4,3.4,8,7.7,8
				C149.8,159.5,152.8,156.2,153.1,155.1z"/>
		</g>
		<polyline class="st8" points="37,206 58.1,282.7 66,269.4 71.7,242.1 78.7,233.2 86.7,233.2 94.1,243.7 107.7,288.4 121.8,244.8 
			128.4,226 135.9,230.3 142,227.7 149.5,242.5 156.5,262.6 164.4,242.5 169.7,217.5 178.5,214.8 184.6,215.5 192.1,225.9 
			196.9,240.5 204.8,258.6 218.9,200.4 		"/>
	</g>
	<g>
		<g>
			<path class="st3" d="M253.9,210.7c-0.8,0-1.5-0.7-1.5-1.5V103.1c0-0.8,0.7-1.5,1.5-1.5H360c0.8,0,1.5,0.7,1.5,1.5v106.1
				c0,0.8-0.7,1.5-1.5,1.5H253.9z"/>
			<path class="st4" d="M360,102.1c0.6,0,1,0.4,1,1v106.1c0,0.6-0.4,1-1,1H253.9c-0.6,0-1-0.4-1-1V103.1c0-0.6,0.4-1,1-1H360
				 M360,101.1H253.9c-1.1,0-2,0.9-2,2v106.1c0,1.1,0.9,2,2,2H360c1.1,0,2-0.9,2-2V103.1C362,102,361.1,101.1,360,101.1L360,101.1z"
				/>
		</g>
		<path class="st5" d="M361,120.6H252.9v-16.4c0-1.1,0.9-2,2-2H359c1.1,0,2,0.9,2,2V120.6z"/>
		<path class="st6" d="M295.4,112.7h-35.6c-0.6,0-1-0.4-1-1V111c0-0.6,0.4-1,1-1h35.6c0.6,0,1,0.4,1,1v0.6
			C296.4,112.2,296,112.7,295.4,112.7z"/>
		<g>
			<path class="st7" d="M268.1,138.4l-2.4,1.1c-0.3,0.1-0.6,0.1-0.7-0.2l-0.4-1.1c-0.1-0.2,0-0.5,0.1-0.6l4.3-3.9h1.5
				c0.3,0,0.5,0.3,0.5,0.6v19.3c0,0.3-0.2,0.6-0.5,0.6h-1.8c-0.3,0-0.6-0.3-0.6-0.6V138.4z"/>
			<path class="st7" d="M275.4,151.1l1.2-1.1c0.3-0.2,0.6-0.2,0.8,0.1c0.2,0.2,1.9,1.9,4.1,1.9c2,0,3.8-1.2,3.8-3.3
				c0-1.8-1.5-3.5-4.8-3.5h-1.7c-0.3,0-0.6-0.2-0.6-0.6v-1.3c0-0.5,0.2-0.6,0.6-0.6h1.7c2.8,0,4.2-1.4,4.2-3.2c0-2-1.7-3.3-3.4-3.3
				c-1.8,0-2.9,1-3.5,1.7c-0.2,0.2-0.5,0.3-0.8,0.1l-1.1-1c-0.2-0.2-0.2-0.6,0-0.8c0,0,2.3-2.7,5.6-2.7c3.5,0,6.3,2.1,6.3,5.5
				c0,2.3-1.7,4.1-3.1,4.7v0.1c1.4,0.6,3.6,2.4,3.6,5c0,3.3-2.6,5.8-6.8,5.8c-3.7,0-5.5-1.9-6.2-2.7
				C275.1,151.6,275.1,151.3,275.4,151.1z"/>
			<path class="st7" d="M292.1,144c0-6.6,2.7-10.5,7.5-10.5c4.7,0,7.4,3.9,7.4,10.5c0,6.6-2.7,10.5-7.4,10.5
				C294.8,154.5,292.1,150.6,292.1,144z M303.9,144c0-4.9-1.6-7.8-4.4-7.8c-2.8,0-4.4,2.8-4.4,7.8c0,5,1.6,7.8,4.4,7.8
				C302.3,151.8,303.9,149,303.9,144z"/>
		</g>
		<path class="st9" d="M276.8,182.4h-10.2c-0.6,0-1-0.6-0.7-1.2L271,171c0.3-0.6,1.1-0.6,1.5,0l5.1,10.2
			C277.8,181.8,277.4,182.4,276.8,182.4z"/>
		<g>
			<path class="st9" d="M285.7,172.6l-1.5,0.7c-0.2,0.1-0.4,0-0.4-0.1l-0.2-0.7c-0.1-0.2,0-0.3,0.1-0.4l2.7-2.4h0.9
				c0.2,0,0.3,0.2,0.3,0.4v12.1c0,0.2-0.2,0.4-0.3,0.4H286c-0.2,0-0.4-0.2-0.4-0.4V172.6z"/>
			<path class="st9" d="M290,181.7c1.4-1.6,3.4-4,4.7-5.6c0.9-1.1,1.4-2,1.4-2.7c0-1-0.7-2.1-2.3-2.1c-1,0-1.9,0.7-2.4,1.3
				c-0.2,0.2-0.4,0.2-0.5,0l-0.6-0.6c-0.1-0.1-0.2-0.3,0-0.5c0,0,1.4-1.8,3.7-1.8c2.7,0,4.1,1.7,4.1,3.7c0,1.5-0.8,2.4-1.8,3.7
				c-1,1.2-2.3,2.7-3.4,4h4.8c0.2,0,0.4,0.2,0.4,0.4v0.9c0,0.2-0.2,0.4-0.4,0.4h-7.3c-0.2,0-0.4-0.2-0.4-0.4V181.7z"/>
			<path class="st9" d="M301.3,180.1c0.7,0,1.3,0.6,1.3,1.3c0,0.7-0.6,1.3-1.3,1.3c-0.7,0-1.3-0.6-1.3-1.3
				C300,180.7,300.6,180.1,301.3,180.1z"/>
			<path class="st9" d="M304.3,178.3c0-2.7,1.1-4.4,3.1-4.4c2,0,3.1,1.6,3.1,4.4c0,2.7-1.1,4.4-3.1,4.4
				C305.4,182.6,304.3,181,304.3,178.3z M309.2,178.3c0-2.1-0.7-3.2-1.8-3.2c-1.2,0-1.8,1.2-1.8,3.2c0,2.1,0.7,3.3,1.8,3.3
				C308.6,181.5,309.2,180.3,309.2,178.3z"/>
			<path class="st9" d="M312.2,182.1l3.4-7.1h-3.7c-0.1,0-0.2-0.1-0.2-0.2v-0.6c0-0.1,0.1-0.2,0.2-0.2h5.1c0.1,0,0.2,0.1,0.2,0.2
				v0.1l-3.7,7.9c-0.1,0.3-0.2,0.3-0.5,0.3h-0.6c-0.2,0-0.3-0.1-0.3-0.2V182.1z"/>
			<path class="st9" d="M317.6,175.3c0-0.9,0.8-1.7,1.7-1.7c0.9,0,1.7,0.8,1.7,1.7s-0.8,1.7-1.7,1.7
				C318.4,177,317.6,176.2,317.6,175.3z M320.1,175.3c0-0.4-0.4-0.8-0.8-0.8c-0.4,0-0.8,0.4-0.8,0.8c0,0.5,0.4,0.8,0.8,0.8
				C319.7,176.1,320.1,175.7,320.1,175.3z M323,173.9c0.1-0.1,0.2-0.1,0.2-0.1h0.4c0.2,0,0.3,0.2,0.2,0.3l-4.3,8.3
				c0,0.1-0.2,0.1-0.2,0.1h-0.4c-0.2,0-0.3-0.2-0.2-0.3L323,173.9z M323.4,179.3c0.9,0,1.7,0.8,1.7,1.7c0,0.9-0.8,1.7-1.7,1.7
				c-0.9,0-1.7-0.8-1.7-1.7C321.7,180,322.4,179.3,323.4,179.3z M323.4,181.8c0.4,0,0.8-0.4,0.8-0.8c0-0.4-0.4-0.8-0.8-0.8
				c-0.5,0-0.8,0.4-0.8,0.8C322.6,181.4,322.9,181.8,323.4,181.8z"/>
		</g>
	</g>
	<g>
		<g>
			<path class="st3" d="M368.6,210.7c-0.8,0-1.5-0.7-1.5-1.5V103.1c0-0.8,0.7-1.5,1.5-1.5h106.1c0.8,0,1.5,0.7,1.5,1.5v106.1
				c0,0.8-0.7,1.5-1.5,1.5H368.6z"/>
			<path class="st4" d="M474.6,102.1c0.6,0,1,0.4,1,1v106.1c0,0.6-0.4,1-1,1H368.6c-0.6,0-1-0.4-1-1V103.1c0-0.6,0.4-1,1-1H474.6
				 M474.6,101.1H368.6c-1.1,0-2,0.9-2,2v106.1c0,1.1,0.9,2,2,2h106.1c1.1,0,2-0.9,2-2V103.1C476.6,102,475.8,101.1,474.6,101.1
				L474.6,101.1z"/>
		</g>
		<path class="st5" d="M475.6,120.6H367.6v-16.4c0-1.1,0.9-2,2-2h104.1c1.1,0,2,0.9,2,2V120.6z"/>
		<path class="st6" d="M410.1,112.7h-35.6c-0.6,0-1-0.4-1-1V111c0-0.6,0.4-1,1-1h35.6c0.6,0,1,0.4,1,1v0.6
			C411.1,112.2,410.6,112.7,410.1,112.7z"/>
		<g>
			<path class="st7" d="M382.6,138.4l-2.4,1.1c-0.3,0.1-0.6,0.1-0.7-0.2l-0.4-1.1c-0.1-0.2,0-0.5,0.1-0.6l4.3-3.9h1.5
				c0.3,0,0.5,0.3,0.5,0.6v19.4c0,0.3-0.2,0.6-0.5,0.6h-1.8c-0.3,0-0.6-0.3-0.6-0.6V138.4z"/>
			<path class="st7" d="M392.1,150.4c1.1,0,2.5,0.8,2.5,3.3c0,3.1-1.9,5.3-3,6c-0.3,0.2-0.5,0.2-0.7,0l-0.5-0.5
				c-0.2-0.2-0.2-0.5,0.1-0.8c0.3-0.3,2.1-1.7,2.1-4.1c-0.1,0-0.4,0.1-0.8,0.1c-1.1,0-2.1-0.9-2.1-2.1
				C389.9,151.3,390.9,150.4,392.1,150.4z"/>
			<path class="st7" d="M397.4,144c0-6.6,2.7-10.6,7.5-10.6c4.7,0,7.4,3.9,7.4,10.6c0,6.6-2.7,10.6-7.4,10.6
				C400.1,154.6,397.4,150.6,397.4,144z M409.3,144c0-4.9-1.6-7.8-4.4-7.8c-2.8,0-4.4,2.8-4.4,7.8c0,5,1.6,7.8,4.4,7.8
				C407.7,151.8,409.3,149,409.3,144z"/>
			<path class="st7" d="M418.8,138.4l-2.4,1.1c-0.3,0.1-0.6,0.1-0.7-0.2l-0.4-1.1c-0.1-0.2,0-0.5,0.1-0.6l4.3-3.9h1.5
				c0.3,0,0.5,0.3,0.5,0.6v19.4c0,0.3-0.2,0.6-0.5,0.6h-1.8c-0.3,0-0.6-0.3-0.6-0.6V138.4z"/>
			<path class="st7" d="M425.9,152.9c2.2-2.5,5.4-6.4,7.6-9c1.5-1.7,2.3-3.2,2.3-4.4c0-1.5-1.1-3.3-3.7-3.3c-1.7,0-3,1.1-3.8,2
				c-0.2,0.2-0.6,0.2-0.8,0l-1-1c-0.2-0.2-0.2-0.5,0-0.8c0,0,2.3-3,5.8-3c4.3,0,6.6,2.7,6.6,5.9c0,2.3-1.3,3.9-2.9,5.9
				c-1.6,1.9-3.7,4.4-5.5,6.4h7.7c0.3,0,0.6,0.3,0.6,0.6v1.4c0,0.3-0.3,0.6-0.6,0.6h-11.7c-0.3,0-0.6-0.3-0.6-0.6V152.9z"/>
		</g>
		<path class="st10" d="M381.2,170.6h10.2c0.6,0,1,0.6,0.7,1.2L387,182c-0.3,0.6-1.1,0.6-1.5,0l-5.1-10.2
			C380.2,171.2,380.6,170.6,381.2,170.6z"/>
		<g>
			<path class="st10" d="M398.8,179.4v-1.1l7-8.6c0.1-0.1,0.2-0.1,0.3-0.1h0.7c0.2,0,0.4,0.2,0.4,0.4v8.3h1.5c0.2,0,0.4,0.1,0.4,0.3
				v0.8c0,0.2-0.2,0.4-0.4,0.4h-1.5l0,2.5c0,0.2-0.2,0.4-0.4,0.4h-1.1c-0.2,0-0.4-0.2-0.4-0.4v-2.4h-6.1
				C398.9,179.7,398.8,179.5,398.8,179.4z M405.3,178.2v-5.5l-4.5,5.5H405.3z"/>
			<path class="st10" d="M412.9,176L412.9,176c-0.8-0.5-1.9-1.5-1.9-3c0-2.1,1.7-3.4,4-3.4c2.3,0,4,1.4,4,3.4c0,1.4-1.1,2.5-1.9,2.9
				v0.1c0.9,0.4,2.3,1.5,2.3,3.1c0,2-1.7,3.6-4.4,3.6c-2.6,0-4.3-1.6-4.3-3.6C410.7,177.5,412.3,176.3,412.9,176z M415,181.2
				c1.3,0,2.4-0.8,2.4-2.1c0-1-0.9-2-2.4-2.3c-1.5,0.2-2.4,1.3-2.4,2.3C412.6,180.4,413.8,181.2,415,181.2z M417.1,173.1
				c0-1.1-0.9-2-2.2-2c-1.1,0-2,0.8-2,2c0,1,0.6,1.8,2.1,2C416.5,174.9,417.1,174.1,417.1,173.1z"/>
			<path class="st10" d="M422.5,180.1c0.7,0,1.3,0.6,1.3,1.3c0,0.7-0.6,1.3-1.3,1.3c-0.7,0-1.3-0.6-1.3-1.3
				C421.2,180.7,421.8,180.1,422.5,180.1z"/>
			<path class="st10" d="M425.7,177.7c0-3.1,1.3-4.9,3.5-4.9c2.2,0,3.5,1.8,3.5,4.9s-1.3,4.9-3.5,4.9
				C426.9,182.7,425.7,180.8,425.7,177.7z M431.2,177.7c0-2.3-0.7-3.6-2.1-3.6c-1.3,0-2.1,1.3-2.1,3.6c0,2.3,0.7,3.7,2.1,3.7
				C430.5,181.4,431.2,180.1,431.2,177.7z"/>
			<path class="st10" d="M434,181.9c1-1.2,2.5-3,3.6-4.2c0.7-0.8,1.1-1.5,1.1-2.1c0-0.7-0.5-1.5-1.7-1.5c-0.8,0-1.4,0.5-1.8,0.9
				c-0.1,0.1-0.3,0.1-0.4,0l-0.5-0.5c-0.1-0.1-0.1-0.3,0-0.4c0,0,1.1-1.4,2.7-1.4c2,0,3.1,1.3,3.1,2.8c0,1.1-0.6,1.8-1.4,2.7
				c-0.7,0.9-1.7,2.1-2.6,3h3.6c0.1,0,0.3,0.1,0.3,0.3v0.7c0,0.1-0.1,0.3-0.3,0.3h-5.5c-0.2,0-0.3-0.1-0.3-0.3V181.9z"/>
			<path class="st10" d="M441.2,174.4c0-1.1,0.8-1.9,1.9-1.9c1,0,1.9,0.8,1.9,1.9c0,1.1-0.9,1.9-1.9,1.9
				C442.1,176.3,441.2,175.5,441.2,174.4z M444,174.4c0-0.5-0.4-0.9-0.9-0.9c-0.5,0-0.9,0.4-0.9,0.9c0,0.5,0.4,0.9,0.9,0.9
				C443.6,175.3,444,174.9,444,174.4z M447.3,172.8c0.1-0.1,0.2-0.1,0.2-0.1h0.5c0.2,0,0.3,0.2,0.2,0.4l-4.9,9.3
				c0,0.1-0.2,0.1-0.2,0.1h-0.4c-0.2,0-0.3-0.2-0.2-0.4L447.3,172.8z M447.7,178.9c1,0,1.9,0.8,1.9,1.9c0,1.1-0.9,1.9-1.9,1.9
				c-1.1,0-1.9-0.8-1.9-1.9C445.8,179.7,446.6,178.9,447.7,178.9z M447.7,181.7c0.5,0,0.9-0.4,0.9-0.9c0-0.5-0.4-0.9-0.9-0.9
				c-0.5,0-0.9,0.4-0.9,0.9C446.8,181.3,447.2,181.7,447.7,181.7z"/>
		</g>
	</g>
	<g>
		<g>
			<path class="st3" d="M253.9,325.5c-0.8,0-1.5-0.7-1.5-1.5V217.9c0-0.8,0.7-1.5,1.5-1.5h220.7c0.8,0,1.5,0.7,1.5,1.5V324
				c0,0.8-0.7,1.5-1.5,1.5H253.9z"/>
			<path class="st4" d="M474.6,216.9c0.6,0,1,0.4,1,1V324c0,0.6-0.4,1-1,1H253.9c-0.6,0-1-0.4-1-1V217.9c0-0.6,0.4-1,1-1H474.6
				 M474.6,215.9H253.9c-1.1,0-2,0.9-2,2V324c0,1.1,0.9,2,2,2h220.7c1.1,0,2-0.9,2-2V217.9C476.6,216.8,475.8,215.9,474.6,215.9
				L474.6,215.9z"/>
		</g>
		<path class="st5" d="M475.6,235.3H252.9v-16.4c0-1.1,0.9-2,2-2h218.7c1.1,0,2,0.9,2,2V235.3z"/>
		<path class="st6" d="M338.7,227.4h-78.8c-0.6,0-1-0.4-1-1v-0.6c0-0.6,0.4-1,1-1h78.8c0.6,0,1,0.4,1,1v0.6
			C339.7,227,339.2,227.4,338.7,227.4z"/>
		<g>
			<line class="st11" x1="279.7" y1="254.4" x2="460.1" y2="254.4"/>
			<line class="st12" x1="279.7" y1="280.1" x2="460.1" y2="280.1"/>
			<line class="st13" x1="279.7" y1="305.8" x2="460.1" y2="305.8"/>
			<path class="st6" d="M267.7,305.8h-0.6c-0.6,0-1-0.4-1-1v-49.4c0-0.6,0.4-1,1-1h0.6c0.6,0,1,0.4,1,1v49.4
				C268.7,305.4,268.2,305.8,267.7,305.8z"/>
			<rect x="433" y="303.5" class="st7" width="27" height="2.4"/>
			<rect x="402.3" y="291.6" class="st7" width="27" height="14.2"/>
			<rect x="371.6" y="302.1" class="st7" width="27" height="3.7"/>
			<rect x="340.9" y="265.7" class="st7" width="27" height="40.2"/>
			<rect x="310.3" y="288.5" class="st7" width="27" height="17.4"/>
			<rect x="279.7" y="299.5" class="st7" width="27" height="6.3"/>
		</g>
	</g>
</g>
<rect x="23.3" y="79.5" class="st14" width="453" height="16"/>
<path class="st15" d="M70.1,88.5h-40c-0.6,0-1-0.4-1-1l0,0c0-0.6,0.4-1,1-1h40c0.6,0,1,0.4,1,1l0,0C71.1,88.1,70.7,88.5,70.1,88.5z"
	/>
<circle class="st15" cx="344.9" cy="87.8" r="2"/>
<path class="st16" d="M362.7,88.7h-12c-0.6,0-1-0.4-1-1v0c0-0.6,0.4-1,1-1h12c0.6,0,1,0.4,1,1v0C363.7,88.2,363.2,88.7,362.7,88.7z"
	/>
<circle class="st15" cx="371.9" cy="87.7" r="2"/>
<path class="st16" d="M393.6,88.5h-16c-0.6,0-1-0.4-1-1l0,0c0-0.6,0.4-1,1-1h16c0.6,0,1,0.4,1,1l0,0
	C394.6,88.1,394.2,88.5,393.6,88.5z"/>
<circle class="st15" cx="403" cy="87.5" r="2"/>
<path class="st16" d="M422.7,88.4h-14c-0.6,0-1-0.4-1-1l0,0c0-0.6,0.4-1,1-1h14c0.6,0,1,0.4,1,1l0,0C423.7,88,423.3,88.4,422.7,88.4
	z"/>
<g>
	<g>
		<defs>
			<circle id="SVGID_1_" cx="438.1" cy="90.6" r="87"/>
		</defs>
		<clipPath id="SVGID_2_">
			<use xlink:href="#SVGID_1_"  style="overflow:visible;"/>
		</clipPath>
		<rect x="339.3" y="-0.9" class="st17" width="197.6" height="197.6"/>
		<g class="st18">
			<g>
				<path class="st3" d="M137.4,502c-0.8,0-1.5-0.7-1.5-1.5V138.8c0-0.8,0.7-1.5,1.5-1.5h361.7c0.8,0,1.5,0.7,1.5,1.5v361.7
					c0,0.8-0.7,1.5-1.5,1.5H137.4z"/>
				<path class="st4" d="M499.1,137.8c0.6,0,1,0.4,1,1v361.7c0,0.6-0.4,1-1,1H137.4c-0.6,0-1-0.4-1-1V138.8c0-0.6,0.4-1,1-1H499.1
					 M499.1,136.8H137.4c-1.1,0-2,0.9-2,2v361.7c0,1.1,0.9,2,2,2h361.7c1.1,0,2-0.9,2-2V138.8C501.1,137.7,500.2,136.8,499.1,136.8
					L499.1,136.8z"/>
			</g>
			<path class="st5" d="M500.1,199.9H136.4v-60.1c0-1.1,0.9-2,2-2h359.7c1.1,0,2,0.9,2,2V199.9z"/>
			<path class="st6" d="M281.7,173.3H157.3c-0.6,0-1-0.4-1-1v-6.9c0-0.6,0.4-1,1-1h124.4c0.6,0,1,0.4,1,1v6.9
				C282.7,172.8,282.2,173.3,281.7,173.3z"/>
			<g>
				<path class="st7" d="M187,259.8l-8.1,3.9c-0.9,0.4-1.9,0.2-2.2-0.7l-1.2-3.6c-0.3-0.8-0.1-1.6,0.3-2l14.4-13.1h5
					c1,0,1.8,0.9,1.8,1.9v65.2c0,1-0.8,1.9-1.8,1.9h-6.2c-1.1,0-1.9-0.9-1.9-1.9V259.8z"/>
				<path class="st7" d="M219,300.2c3.8,0,8.4,2.5,8.4,11.3c0,10.5-6.5,17.7-10.1,20.3c-0.9,0.8-1.7,0.8-2.4,0l-1.5-1.5
					c-0.6-0.6-0.5-1.7,0.5-2.5c1.1-1,7.2-5.9,7.2-13.8c-0.2,0-1.2,0.4-2.5,0.4c-3.8,0-7-3.1-7-7C211.6,303.4,214.8,300.2,219,300.2z
					"/>
				<path class="st7" d="M236.8,278.8c0-22.2,9.1-35.5,25.2-35.5c15.9,0,25.1,13.3,25.1,35.5s-9.1,35.5-25.1,35.5
					C246,314.3,236.8,301,236.8,278.8z M276.8,278.8c0-16.6-5.4-26.2-14.8-26.2c-9.5,0-14.9,9.5-14.9,26.2
					c0,16.9,5.4,26.3,14.9,26.3C271.4,305.1,276.8,295.6,276.8,278.8z"/>
				<path class="st7" d="M308.8,259.8l-8.1,3.9c-0.9,0.4-1.9,0.2-2.2-0.7l-1.2-3.6c-0.3-0.8-0.1-1.6,0.3-2l14.4-13.1h5
					c1,0,1.8,0.9,1.8,1.9v65.2c0,1-0.8,1.9-1.8,1.9h-6.2c-1.1,0-1.9-0.9-1.9-1.9V259.8z"/>
				<path class="st7" d="M332.5,308.7c7.5-8.5,18.1-21.4,25.6-30.3c5.1-5.7,7.7-10.8,7.7-14.8c0-5.2-3.5-11.1-12.5-11.1
					c-5.6,0-10.1,3.9-12.9,6.8c-0.8,0.8-1.9,0.8-2.7,0l-3.4-3.5c-0.6-0.6-0.8-1.8-0.1-2.6c0,0,7.6-10,19.7-10
					c14.5,0,22.2,9.2,22.2,19.9c0,7.8-4.3,13.2-9.7,19.8c-5.4,6.5-12.5,14.8-18.5,21.6h25.9c1,0,1.9,0.9,1.9,1.9v4.9
					c0,1-0.9,1.9-1.9,1.9h-39.3c-1.1,0-1.9-0.9-1.9-1.9V308.7z"/>
			</g>
		</g>
		<rect x="-66.2" y="61.8" class="st19" width="568.5" height="53.9"/>
		<path class="st20" d="M487.2,105.6H377.8c-2.2,0-4-1.8-4-4V76c0-2.2,1.8-4,4-4h109.4c2.2,0,4,1.8,4,4v25.7
			C491.2,103.8,489.4,105.6,487.2,105.6z"/>
		<line class="st21" x1="384.9" y1="88.4" x2="398.6" y2="88.4"/>
		<line class="st21" x1="391.7" y1="95.2" x2="391.7" y2="81.5"/>
		<g class="st18">
			<path class="st7" d="M406.3,91.9l3.4-7.3c0-0.1,0.1-0.1,0.2-0.1h0.1c0.1,0,0.2,0.1,0.2,0.1l3.4,7.3c0.1,0.1,0,0.3-0.2,0.3h-0.9
				c-0.2,0-0.2-0.1-0.3-0.2l-0.5-1.2h-3.3l-0.5,1.2c0,0.1-0.1,0.2-0.3,0.2h-0.9C406.3,92.2,406.2,92,406.3,91.9z M411,89.6l-1.1-2.4
				h0l-1.1,2.4H411z"/>
			<path class="st7" d="M415,84.8c0-0.1,0.1-0.2,0.2-0.2h2.6c2.1,0,3.8,1.7,3.8,3.8c0,2.1-1.7,3.8-3.8,3.8h-2.6
				c-0.1,0-0.2-0.1-0.2-0.2V84.8z M417.7,90.9c1.4,0,2.5-1.1,2.5-2.5c0-1.4-1-2.5-2.5-2.5h-1.2v5H417.7z"/>
			<path class="st7" d="M423.6,84.8c0-0.1,0.1-0.2,0.2-0.2h2.6c2.1,0,3.8,1.7,3.8,3.8c0,2.1-1.7,3.8-3.8,3.8h-2.6
				c-0.1,0-0.2-0.1-0.2-0.2V84.8z M426.3,90.9c1.4,0,2.5-1.1,2.5-2.5c0-1.4-1-2.5-2.5-2.5H425v5H426.3z"/>
			<path class="st7" d="M434.5,84.8c0-0.2,0-0.3,0.2-0.3h1c0.1,0,0.2,0.1,0.2,0.2l1.1,4.3h0l1.7-4.5c0-0.1,0.1-0.1,0.2-0.1h0.2
				c0.1,0,0.2,0.1,0.2,0.1l1.7,4.5h0l1.1-4.3c0-0.1,0.1-0.2,0.2-0.2h1c0.2,0,0.2,0.1,0.2,0.3l-2.1,7.3c0,0.1-0.1,0.2-0.2,0.2h-0.2
				c-0.1,0-0.2-0.1-0.2-0.1l-1.9-4.9H439l-1.9,4.9c0,0.1-0.1,0.1-0.2,0.1h-0.2c-0.1,0-0.2-0.1-0.2-0.2L434.5,84.8z"/>
			<path class="st7" d="M445.5,84.8c0-0.1,0.1-0.2,0.2-0.2h1c0.1,0,0.2,0.1,0.2,0.2V92c0,0.1-0.1,0.2-0.2,0.2h-1
				c-0.1,0-0.2-0.1-0.2-0.2V84.8z"/>
			<path class="st7" d="M449.4,84.8c0-0.1,0.1-0.2,0.2-0.2h2.6c2.1,0,3.8,1.7,3.8,3.8c0,2.1-1.7,3.8-3.8,3.8h-2.6
				c-0.1,0-0.2-0.1-0.2-0.2V84.8z M452.1,90.9c1.4,0,2.5-1.1,2.5-2.5c0-1.4-1-2.5-2.5-2.5h-1.2v5H452.1z"/>
			<path class="st7" d="M461.4,84.4c1,0,1.9,0.4,2.7,1c0.1,0.1,0.1,0.2,0,0.3l-0.7,0.7c-0.1,0.1-0.2,0.1-0.3,0
				c-0.5-0.4-1-0.6-1.6-0.6c-1.4,0-2.4,1.2-2.4,2.5c0,1.4,1.1,2.5,2.5,2.5c0.6,0,1.1-0.2,1.3-0.3v-0.9h-0.9c-0.1,0-0.2-0.1-0.2-0.2
				v-0.9c0-0.1,0.1-0.2,0.2-0.2h2.1c0.1,0,0.2,0.1,0.2,0.2v2.8c0,0.1,0,0.1-0.1,0.2c0,0-1.1,0.7-2.7,0.7c-2.2,0-3.9-1.7-3.9-3.9
				C457.5,86.2,459.2,84.4,461.4,84.4z"/>
			<path class="st7" d="M466.3,84.8c0-0.1,0.1-0.2,0.2-0.2h4.4c0.1,0,0.2,0.1,0.2,0.2v0.9c0,0.1-0.1,0.2-0.2,0.2h-3.2v1.8h2.7
				c0.1,0,0.2,0.1,0.2,0.2v0.9c0,0.1-0.1,0.2-0.2,0.2h-2.7v1.9h3.2c0.1,0,0.2,0.1,0.2,0.2V92c0,0.1-0.1,0.2-0.2,0.2h-4.4
				c-0.1,0-0.2-0.1-0.2-0.2V84.8z"/>
			<path class="st7" d="M474.3,85.9h-1.7c-0.1,0-0.2-0.1-0.2-0.2v-0.9c0-0.1,0.1-0.2,0.2-0.2h4.8c0.1,0,0.2,0.1,0.2,0.2v0.9
				c0,0.1-0.1,0.2-0.2,0.2h-1.7V92c0,0.1-0.1,0.2-0.2,0.2h-1c-0.1,0-0.2-0.1-0.2-0.2V85.9z"/>
		</g>
	</g>
	<path class="st0" d="M438.1,175.9c-46.9,0-85.3-36.6-88.3-82.7c-0.1,1.9-0.2,3.8-0.2,5.8c0,48.9,39.6,88.5,88.5,88.5
		c48.9,0,88.5-39.6,88.5-88.5c0-1.9-0.1-3.9-0.2-5.8C523.4,139.4,485.1,175.9,438.1,175.9z"/>
	<g>
		<path class="st7" d="M438.1,178.5c-48.5,0-87.9-39.4-87.9-87.9s39.4-87.9,87.9-87.9S526,42.2,526,90.6S486.6,178.5,438.1,178.5z
			 M438.1,4.5c-47.5,0-86.1,38.6-86.1,86.1c0,47.5,38.6,86.1,86.1,86.1s86.1-38.6,86.1-86.1C524.2,43.1,485.6,4.5,438.1,4.5z"/>
	</g>
	<g class="st0">
		<path d="M438.1,2.8c48.5,0,87.9,39.4,87.9,87.9s-39.4,87.9-87.9,87.9s-87.9-39.4-87.9-87.9S389.7,2.8,438.1,2.8 M438.1,0.8
			c-49.6,0-89.9,40.3-89.9,89.9c0,49.6,40.3,89.9,89.9,89.9S528,140.2,528,90.6C528,41.1,487.7,0.8,438.1,0.8L438.1,0.8z"/>
	</g>
</g>
</svg>
