<?xml version="1.0" encoding="utf-8"?>
<!-- Generator: Adobe Illustrator 19.2.0, SVG Export Plug-In . SVG Version: 6.00 Build 0)  -->
<svg version="1.1" id="Layer_1" xmlns="http://www.w3.org/2000/svg" xmlns:xlink="http://www.w3.org/1999/xlink" x="0px" y="0px"
	 viewBox="0 0 320 230" style="enable-background:new 0 0 320 230;" xml:space="preserve">
<style type="text/css">
	.st0{opacity:0.2;}
	.st1{fill:#8BC541;}
	.st2{opacity:0.1;}
	.st3{fill:#3C4352;}
	.st4{fill:none;stroke:#8BC541;stroke-width:3;stroke-linecap:round;stroke-linejoin:round;stroke-miterlimit:10;}
	.st5{fill:none;stroke:#8BC541;stroke-width:2;stroke-linecap:round;stroke-linejoin:round;stroke-miterlimit:10;}
	.st6{opacity:0.5;fill:none;stroke:#3D4351;stroke-width:2;stroke-linecap:round;stroke-linejoin:round;stroke-miterlimit:10;}
	.st7{fill:#3D4351;}
	.st8{opacity:0.1;fill:#3C4352;}
</style>
<g>
	<g class="st0">
		<path d="M138.1,2.8h11c0.6,0,1-0.4,1-1s-0.4-1-1-1h-11c-0.6,0-1,0.4-1,1S137.6,2.8,138.1,2.8z"/>
		<path d="M50.1,124.7c-0.6,0-1,0.4-1,1v11c0,0.6,0.4,1,1,1c0.6,0,1-0.4,1-1v-11C51.1,125.2,50.7,124.7,50.1,124.7z"/>
		<path d="M50.1,80.7c-0.6,0-1,0.4-1,1v11c0,0.6,0.4,1,1,1c0.6,0,1-0.4,1-1v-11C51.1,81.2,50.7,80.7,50.1,80.7z"/>
		<path d="M50.1,58.7c-0.6,0-1,0.4-1,1v11c0,0.6,0.4,1,1,1c0.6,0,1-0.4,1-1v-11C51.1,59.2,50.7,58.7,50.1,58.7z"/>
		<path d="M50.1,102.7c-0.6,0-1,0.4-1,1v11c0,0.6,0.4,1,1,1c0.6,0,1-0.4,1-1v-11C51.1,103.2,50.7,102.7,50.1,102.7z"/>
		<path d="M196.1,47.3c0.6,0,1-0.4,1-1v-11c0-0.6-0.4-1-1-1c-0.6,0-1,0.4-1,1v11C195.1,46.8,195.6,47.3,196.1,47.3z"/>
		<path d="M196.1,25.3c0.6,0,1-0.4,1-1v-11c0-0.6-0.4-1-1-1c-0.6,0-1,0.4-1,1v11C195.1,24.8,195.6,25.3,196.1,25.3z"/>
		<path d="M182.1,2.8h11c0,0,0,0,0,0c0,0,0,0,0,0c0,0,0,0,0,0c0,0,0,0,0,0c0,0,0,0,0,0h0c0,0,0,0,0,0c0,0,0,0,0,0c0,0,0,0,0,0h0
			c0,0,0,0,0,0h0c0,0,0,0,0,0h0c0,0,0,0,0,0h0c0,0,0,0,0,0l0,0c0,0,0,0,0,0h0c0,0,0,0,0,0l0,0c0,0,0,0,0,0c0,0,0,0,0,0c0,0,0,0,0,0
			l0,0c0,0,0,0,0,0l0,0c0,0,0,0,0,0l0,0c0,0,0,0,0,0c0,0,0,0,0,0c0,0,0,0,0,0l0,0c0,0,0,0,0,0c0,0,0,0,0,0c0,0,0,0,0,0l0,0
			c0,0,0,0,0,0c0,0,0,0,0,0c0,0,0,0,0,0c0,0,0,0,0,0c0,0,0,0,0,0c0,0,0,0,0,0c0,0,0,0,0,0c0,0,0,0,0,0c0,0,0,0,0,0c0,0,0,0,0,0
			c0,0,0,0,0,0c0,0,0,0,0,0c0,0,0,0,0,0c0,0,0,0,0,0c0,0,0,0,0,0c0,0,0,0,0,0c0,0,0,0,0,0c0,0,0,0,0,0c0,0,0,0,0,0c0,0,0,0,0,0
			c0,0,0,0,0,0c0,0,0,0,0,0c0,0,0,0,0,0c0,0,0,0,0,0c0,0,0,0,0,0c0,0,0,0,0,0c0,0,0,0,0,0c0,0,0,0,0,0c0,0,0,0,0,0c0,0,0,0,0,0
			c0,0,0,0,0,0c0,0,0,0,0,0h0c0,0,0,0,0,0c0,0,0,0,0,0c0,0,0,0,0,0c0,0,0,0,0,0c0,0,0,0,0,0l0,0c0,0,0,0,0,0h0c0.1,0,0.2,0,0.3,0.1
			c0.1,0,0.2,0,0.3,0c0.4,0,0.8-0.3,1-0.7c0.2-0.5-0.2-1.1-0.7-1.2c-0.4-0.1-0.7-0.2-1.1-0.2h-11c-0.6,0-1,0.4-1,1
			S181.6,2.8,182.1,2.8z"/>
		<path d="M196.1,69.3c0.6,0,1-0.4,1-1v-11c0-0.6-0.4-1-1-1c-0.6,0-1,0.4-1,1v11C195.1,68.8,195.6,69.3,196.1,69.3z"/>
		<path d="M160.1,2.8h11c0.6,0,1-0.4,1-1s-0.4-1-1-1h-11c-0.6,0-1,0.4-1,1S159.6,2.8,160.1,2.8z"/>
		<path d="M52.2,3L52.2,3C52.2,3,52.2,3,52.2,3C52.2,3,52.2,3,52.2,3L52.2,3C52.3,3,52.3,3,52.2,3L52.2,3c0,0,0.1,0,0.1,0l0,0
			c0,0,0,0,0,0l0,0c0,0,0,0,0,0l0,0c0,0,0,0,0,0c0,0,0,0,0,0c0,0,0,0,0,0c0,0,0,0,0,0c0,0,0,0,0,0c0,0,0,0,0,0c0,0,0,0,0,0
			c0,0,0,0,0,0c0,0,0,0,0,0c0,0,0,0,0,0c0,0,0,0,0,0c0,0,0,0,0,0c0,0,0,0,0,0l0,0c0,0,0,0,0,0l0,0c0,0,0,0,0.1,0l0,0c0,0,0,0,0,0
			l0,0c0,0,0,0,0,0c0,0,0,0,0,0c0,0,0,0,0,0c0,0,0,0,0,0c0,0,0,0,0,0c0,0,0,0,0,0c0,0,0,0,0,0c0,0,0,0,0,0c0,0,0,0,0,0c0,0,0,0,0,0
			c0,0,0,0,0,0c0,0,0,0,0,0c0,0,0,0,0,0l0,0c0,0,0,0,0,0c0,0,0,0,0,0c0,0,0,0,0,0l0,0c0,0,0,0,0,0l0,0c0,0,0,0,0,0c0,0,0,0,0,0
			c0,0,0,0,0,0c0,0,0,0,0,0c0,0,0,0,0,0l0,0c0,0,0,0,0,0c0,0,0,0,0,0c0,0,0,0,0,0l0,0c0,0,0,0,0,0c0,0,0,0,0,0c0,0,0,0,0,0l0,0
			c0,0,0,0,0,0c0,0,0,0,0,0c0,0,0,0,0,0c0,0,0,0,0,0c0,0,0,0,0,0l0,0c0,0,0,0,0,0c0,0,0,0,0,0c0,0,0,0,0,0c0,0,0,0,0,0c0,0,0,0,0,0
			c0,0,0,0,0,0c0,0,0,0,0,0c0,0,0,0,0,0c0,0,0,0,0,0c0,0,0,0,0,0c0,0,0,0,0,0c0,0,0,0,0,0c0,0,0,0,0,0c0,0,0,0,0,0c0,0,0,0,0,0
			c0,0,0,0,0,0c0,0,0,0,0,0c0,0,0,0,0,0c0,0,0,0,0,0c0,0,0,0,0,0c0,0,0,0,0,0c0,0,0,0,0,0c0,0,0,0,0,0c0,0,0,0,0,0c0,0,0,0,0,0l0,0
			c0,0,0,0,0,0c0,0,0,0,0,0c0,0,0,0,0,0c0,0,0,0,0,0c0,0,0,0,0,0c0,0,0,0,0,0c0,0,0,0,0,0c0,0,0,0,0,0c0,0,0,0,0,0c0,0,0,0,0,0
			c0,0,0,0,0,0c0,0,0,0,0,0c0,0,0,0,0,0c0,0,0,0,0,0c0,0,0,0,0,0c0,0,0,0,0,0c0,0,0,0,0,0c0,0,0,0,0,0c0,0,0,0,0,0c0,0,0,0,0,0
			c0,0,0,0,0,0c0,0,0,0,0,0c0,0,0,0,0,0c0,0,0,0,0,0c0,0,0,0,0,0c0,0,0,0,0,0c0,0,0,0,0,0c0,0,0,0,0,0c0,0,0,0,0,0c0,0,0,0,0,0
			c0,0,0,0,0,0c0,0,0,0,0,0c0,0,0,0,0,0c0,0,0,0,0,0c0,0,0,0,0,0c0,0,0,0,0,0c0,0,0,0,0,0c0,0,0,0,0,0c0,0,0,0,0,0c0,0,0,0,0,0
			c0,0,0,0,0,0c0,0,0,0,0,0c0,0,0,0,0,0c0,0,0,0,0,0c0,0,0,0,0,0c0,0,0,0,0,0c0,0,0,0,0,0c0,0,0,0,0,0c0,0,0,0,0,0c0,0,0,0,0,0
			c0,0,0,0,0,0c0,0,0,0,0,0c0,0,0,0,0,0c0,0,0,0,0,0c0,0,0,0,0,0c0,0,0,0,0,0c0,0,0,0,0,0c0,0,0,0,0,0c0,0,0,0,0,0c0,0,0,0,0,0
			c0,0,0,0,0,0c0,0,0,0,0,0c0,0,0,0,0,0c0,0,0,0,0,0c0,0,0,0,0,0c0,0,0,0,0,0s0,0,0,0c0,0,0,0,0,0c0,0,0,0,0,0c0,0,0,0,0,0
			c0,0,0,0,0,0c0,0,0,0,0,0c0,0,0,0,0,0c0,0,0,0,0,0c0,0,0,0,0,0c0,0,0,0,0,0c0,0,0,0,0,0c0,0,0,0,0,0c0,0,0,0,0,0c0,0,0,0,0,0
			c0,0,0,0,0,0c0,0,0,0,0,0c0,0,0,0,0,0c0,0,0,0,0,0c0,0,0,0,0,0c0,0,0,0,0,0c0,0,0,0,0,0c0,0,0,0,0,0c0,0,0,0,0,0c0,0,0,0,0,0
			c0,0,0,0,0,0c0,0,0,0,0,0c0,0,0,0,0,0c0,0,0,0,0,0c0,0,0,0,0,0c0,0,0,0,0,0c0,0,0,0,0,0c0,0,0,0,0,0c0,0,0,0,0,0c0,0,0,0,0,0
			c0,0,0,0,0,0c0,0,0,0,0,0c0,0,0,0,0,0s0,0,0,0c0,0,0,0,0,0c0,0,0,0,0,0c0,0,0,0,0,0c0,0,0,0,0,0c0,0,0,0,0,0c0,0,0,0,0,0
			c0,0,0,0,0,0c0,0,0,0,0,0c0,0,0,0,0,0c0,0,0,0,0,0c0,0,0,0,0,0c0,0,0,0,0,0c0,0,0,0,0,0c0,0,0,0,0,0c0,0,0,0,0,0c0,0,0,0,0,0
			c0,0,0,0,0,0c0,0,0,0,0,0c0,0,0,0,0,0c0,0,0,0,0,0c0,0,0,0,0,0c0,0,0,0,0,0c0,0,0,0,0,0c0,0,0,0,0,0h8c0.6,0,1-0.4,1-1s-0.4-1-1-1
			h-8c-2.1,0-3.8,1.6-4,3.7c0,0.6,0.4,1,0.9,1.1c0,0,0,0,0.1,0c0.5,0,1-0.4,1-0.9c0,0,0,0,0,0c0,0,0,0,0,0l0,0c0,0,0,0,0,0
			c0,0,0,0,0,0c0,0,0,0,0,0c0,0,0,0,0,0c0,0,0,0,0,0c0,0,0,0,0,0c0,0,0,0,0,0l0,0c0,0,0,0,0,0c0,0,0,0,0,0c0,0,0,0,0,0c0,0,0,0,0,0
			c0,0,0,0,0,0c0,0,0,0,0,0c0,0,0,0,0,0c0,0,0,0,0,0c0,0,0,0,0,0c0,0,0,0,0,0c0,0,0,0,0,0c0,0,0,0,0,0c0,0,0,0,0,0c0,0,0,0,0,0
			c0,0,0,0,0,0l0,0c0,0,0,0,0,0l0,0c0,0,0,0,0-0.1v0c0,0,0,0,0,0v0c0,0,0,0,0,0v0c0,0,0,0,0,0v0C51.3,3.8,51.7,3.3,52.2,3z"/>
		<path d="M106.1,1.8c0-0.6-0.4-1-1-1h-11c-0.6,0-1,0.4-1,1s0.4,1,1,1h11C105.7,2.8,106.1,2.4,106.1,1.8z"/>
		<path d="M128.1,1.8c0-0.6-0.4-1-1-1h-11c-0.6,0-1,0.4-1,1s0.4,1,1,1h11C127.7,2.8,128.1,2.4,128.1,1.8z"/>
		<path d="M107.8,146.8h-11c-0.6,0-1,0.4-1,1s0.4,1,1,1h11c0.6,0,1-0.4,1-1S108.4,146.8,107.8,146.8z"/>
		<path d="M123.1,146.8h-4.3c-0.6,0-1,0.4-1,1s0.4,1,1,1h4.3V146.8z"/>
		<path d="M85.8,146.8h-11c-0.6,0-1,0.4-1,1s0.4,1,1,1h11c0.6,0,1-0.4,1-1S86.4,146.8,85.8,146.8z"/>
		<path d="M50.1,14.7c-0.6,0-1,0.4-1,1v11c0,0.6,0.4,1,1,1c0.6,0,1-0.4,1-1v-11C51.1,15.2,50.7,14.7,50.1,14.7z"/>
		<path d="M63.8,146.8H53.1c0,0,0,0,0,0c0,0,0,0,0,0c0,0,0,0,0,0c0,0,0,0,0,0c0,0,0,0,0,0c0,0,0,0,0,0c0,0,0,0,0,0c0,0,0,0,0,0
			c0,0,0,0,0,0c0,0,0,0,0,0c0,0,0,0,0,0c0,0,0,0,0,0c0,0,0,0,0,0h0c0,0,0,0,0,0c0,0,0,0,0,0c0,0,0,0,0,0l0,0c0,0,0,0,0,0
			c0,0,0,0,0,0c0,0,0,0,0,0h0c0,0,0,0,0,0c0,0,0,0,0,0c0,0,0,0,0,0c0,0,0,0,0,0c0,0,0,0,0,0c0,0,0,0,0,0c0,0,0,0,0,0c0,0,0,0,0,0
			c0,0,0,0,0,0c-0.1,0-0.1,0-0.2,0c0,0-0.1,0-0.1,0c-0.5,0-0.9,0.4-1,0.9c-0.1,0.5,0.3,1.1,0.8,1.1c0.2,0,0.4,0,0.6,0h10.7
			c0.6,0,1-0.4,1-1S64.4,146.8,63.8,146.8z"/>
		<path d="M50.1,36.7c-0.6,0-1,0.4-1,1v11c0,0.6,0.4,1,1,1c0.6,0,1-0.4,1-1v-11C51.1,37.2,50.7,36.7,50.1,36.7z"/>
		<path d="M84.1,1.8c0-0.6-0.4-1-1-1h-11c-0.6,0-1,0.4-1,1s0.4,1,1,1h11C83.7,2.8,84.1,2.4,84.1,1.8z"/>
	</g>
	<g class="st0">
		<path class="st1" d="M267.2,101H123V76.8c0-1.1,0.9-2,2-2h140.2c1.1,0,2,0.9,2,2V101z"/>
	</g>
	<g class="st2">
		<path class="st3" d="M267.1,79.3v139.1c0,1.1-0.9,2-2,2h-140c-1.1,0-2-0.9-2-2V79.3c-1.4,0.4-2.5,1.6-2.5,3.2v142.4
			c0,1.8,1.5,3.3,3.3,3.3h142.4c1.8,0,3.3-1.5,3.3-3.3V82.5C269.6,80.9,268.5,79.7,267.1,79.3z"/>
	</g>
	<g>
		<g>
			<path class="st1" d="M265.1,75.4c1.1,0,2,0.9,2,2v140c0,1.1-0.9,2-2,2h-140c-1.1,0-2-0.9-2-2v-140c0-1.1,0.9-2,2-2H265.1
				 M265.1,72.4h-140c-2.8,0-5,2.2-5,5v140c0,2.8,2.2,5,5,5h140c2.8,0,5-2.2,5-5v-140C270.1,74.6,267.9,72.4,265.1,72.4L265.1,72.4z
				"/>
		</g>
	</g>
	<path class="st1" d="M177.7,90.4h-40.2c-1.3,0-2.4-1.1-2.4-2.4l0,0c0-1.3,1.1-2.4,2.4-2.4h40.2c1.3,0,2.4,1.1,2.4,2.4l0,0
		C180.1,89.3,179,90.4,177.7,90.4z"/>
	<line class="st4" x1="123" y1="101.5" x2="267.2" y2="101.5"/>
	<g>
		<path class="st5" d="M230.3,175.7c3.5,5.6,5.8,12,6.3,19c0.1,1.8,1.6,3.2,3.4,3.2h0c2,0,3.5-1.7,3.4-3.6
			c-0.7-8.7-3.7-16.8-8.3-23.7"/>
		<path class="st6" d="M222.9,158.4c-7.8-5.4-17.3-8.6-27.5-8.6c-25.4,0-46.2,19.6-48,44.5c-0.1,2,1.4,3.6,3.4,3.6h0
			c1.8,0,3.2-1.4,3.4-3.2c1.6-21.4,19.4-38.2,41.2-38.2c8.5,0,16.5,2.6,23,7"/>
		<g>
			<path class="st7" d="M227.9,164.3c0.3,0,0.6,0.1,0.8,0.4c0.5,0.3,0.5,1,0,1.5l-29.5,29.5c1,1.7,0.8,3.9-0.7,5.4
				c-0.8,0.8-1.9,1.3-3.1,1.3c-1.4,0-2.9-0.7-3.7-2.1c-0.8-1.4-0.8-3.2,0-4.6c0.9-1.4,2.3-2.1,3.8-2.1c0.8,0,1.5,0.2,2.2,0.6
				l29.5-29.5C227.4,164.4,227.6,164.3,227.9,164.3 M227.9,162.3c-0.9,0-1.7,0.4-2.2,1.1l-28.4,28.4c-0.6-0.2-1.1-0.2-1.7-0.2
				c-2.2,0-4.3,1.2-5.5,3.1c-1.2,2-1.2,4.7,0,6.7c1.1,1.9,3.2,3,5.4,3c1.7,0,3.3-0.7,4.5-1.8c1.7-1.7,2.3-4.2,1.6-6.4l28.5-28.5
				c0.7-0.7,1-1.6,1-2.5c-0.1-0.8-0.5-1.5-1.1-2C229.4,162.6,228.7,162.3,227.9,162.3L227.9,162.3z"/>
		</g>
		<circle class="st3" cx="195.6" cy="197.9" r="1.8"/>
		<g>
			<path class="st3" d="M186.4,121.8l-2.3,1.1c-0.3,0.1-0.5,0.1-0.6-0.2l-0.3-1c-0.1-0.2,0-0.5,0.1-0.6l4.1-3.7h1.4
				c0.3,0,0.5,0.3,0.5,0.5v18.3c0,0.3-0.2,0.5-0.5,0.5h-1.7c-0.3,0-0.5-0.3-0.5-0.5V121.8z"/>
			<path class="st3" d="M197.1,126.9L197.1,126.9c-1.2-0.7-2.9-2.3-2.9-4.5c0-3.1,2.6-5.2,6.1-5.2c3.5,0,6.1,2.1,6.1,5.2
				c0,2.2-1.7,3.8-2.9,4.4v0.1c1.3,0.6,3.5,2.3,3.5,4.8c0,3.1-2.5,5.5-6.7,5.5c-4,0-6.5-2.4-6.5-5.5
				C193.6,129.1,196,127.3,197.1,126.9z M200.2,134.8c2,0,3.7-1.2,3.7-3.1c0-1.5-1.3-3.1-3.6-3.4c-2.3,0.3-3.6,1.9-3.6,3.4
				C196.6,133.6,198.3,134.8,200.2,134.8z M203.4,122.5c0-1.7-1.4-3-3.3-3c-1.7,0-3.1,1.3-3.1,3c0,1.5,1,2.7,3.2,3.1
				C202.4,125.2,203.4,124,203.4,122.5z"/>
		</g>
	</g>
	<g>
		<path class="st8" d="M143.2,76.4l-7.6-4.6c-0.3-0.2-0.8,0-0.8,0.4v2H128c-0.3,0-0.5-0.2-0.5-0.5v-7.1h2.2c0.4,0,0.6-0.4,0.4-0.8
			l-4.6-7.6c-0.2-0.3-0.7-0.3-0.9,0l-4.6,7.6c-0.2,0.3,0,0.8,0.4,0.8h2.2v7.1c0,0.3-0.2,0.5-0.5,0.5h-6.8v-2c0-0.4-0.4-0.6-0.8-0.4
			l-7.6,4.6c-0.3,0.2-0.3,0.7,0,0.9l7.6,4.6c0.3,0.2,0.8,0,0.8-0.4v-2.3h6.8c0.3,0,0.5,0.2,0.5,0.5V87h-2.2c-0.4,0-0.6,0.4-0.4,0.8
			l4.6,7.6c0.2,0.3,0.7,0.3,0.9,0l4.6-7.6c0.2-0.3,0-0.8-0.4-0.8h-2.2v-7.3c0-0.3,0.2-0.5,0.5-0.5h6.8v2.3c0,0.4,0.4,0.6,0.8,0.4
			l7.6-4.6C143.5,77.1,143.5,76.6,143.2,76.4z"/>
		<path class="st3" d="M140.1,73.4l-7.6-4.6c-0.3-0.2-0.8,0-0.8,0.4v2h-6.8c-0.3,0-0.5-0.2-0.5-0.5v-7.1h2.2c0.4,0,0.6-0.4,0.4-0.8
			l-4.6-7.6c-0.2-0.3-0.7-0.3-0.9,0l-4.6,7.6c-0.2,0.3,0,0.8,0.4,0.8h2.2v7.1c0,0.3-0.2,0.5-0.5,0.5h-6.8v-2c0-0.4-0.4-0.6-0.8-0.4
			l-7.6,4.6c-0.3,0.2-0.3,0.7,0,0.9l7.6,4.6c0.3,0.2,0.8,0,0.8-0.4v-2.3h6.8c0.3,0,0.5,0.2,0.5,0.5V84h-2.2c-0.4,0-0.6,0.4-0.4,0.8
			l4.6,7.6c0.2,0.3,0.7,0.3,0.9,0l4.6-7.6c0.2-0.3,0-0.8-0.4-0.8h-2.2v-7.3c0-0.3,0.2-0.5,0.5-0.5h6.8v2.3c0,0.4,0.4,0.6,0.8,0.4
			l7.6-4.6C140.4,74.1,140.4,73.6,140.1,73.4z"/>
	</g>
</g>
</svg>
