<?xml version="1.0" encoding="utf-8"?>
<!-- Generator: Adobe Illustrator 19.2.0, SVG Export Plug-In . SVG Version: 6.00 Build 0)  -->
<svg version="1.1" id="Layer_1" xmlns="http://www.w3.org/2000/svg" xmlns:xlink="http://www.w3.org/1999/xlink" x="0px" y="0px"
	 viewBox="0 0 58 58" style="enable-background:new 0 0 58 58;" xml:space="preserve">
<style type="text/css">
	.st0{fill:#8CC640;}
</style>
<g>
	<g>
		<path class="st0" d="M29,58C13,58,0,45,0,29S13,0,29,0s29,13,29,29S45,58,29,58z M29,2.6C14.4,2.6,2.6,14.4,2.6,29
			S14.4,55.4,29,55.4S55.4,43.6,55.4,29S43.6,2.6,29,2.6z"/>
	</g>
	<polygon class="st0" points="45,28 31,28 31,14 28,14 28,28 14,28 14,31 28,31 28,45 31,45 31,31 45,31 	"/>
	<polygon class="st0" points="34.8,18 29.5,10.5 24.2,18 	"/>
	<polygon class="st0" points="34.8,41 29.5,48.5 24.2,41 	"/>
	<polygon class="st0" points="41,34.7 48.5,29.4 41,24.2 	"/>
	<polygon class="st0" points="18,34.7 10.5,29.4 18,24.2 	"/>
</g>
</svg>
