<?xml version="1.0" encoding="utf-8"?>
<!-- Generator: Adobe Illustrator 19.2.0, SVG Export Plug-In . SVG Version: 6.00 Build 0)  -->
<svg version="1.1" id="Layer_1" xmlns="http://www.w3.org/2000/svg" xmlns:xlink="http://www.w3.org/1999/xlink" x="0px" y="0px"
	 viewBox="0 0 58 58" style="enable-background:new 0 0 58 58;" xml:space="preserve">
<style type="text/css">
	.st0{fill:#8CC640;}
	.st1{fill:#8DC63F;}
	.st2{opacity:0.5;}
</style>
<g>
	<g>
		<g>
			<path class="st0" d="M28.8,51.4l-2-2.4c-1.3-1.6-2.6-3.5-2.6-5.4L25,29.1c0-1-0.4-1.4-1.8-2l-1.8-0.9c-0.6-0.4-1.4-1-1.4-2.3V21
				h2v2.8c0,0.3,0,0.4,0.4,0.6l1.7,0.9c1.2,0.6,2.9,1.5,2.9,3.8l0,0.1l-0.7,14.4c0,1.2,1.1,2.8,2.1,4.1l0.4,0.5l0.5-0.6
				c1-1.3,1.9-2.6,1.9-3.9l-0.5-14.6c0-1.8,0.4-3,2.4-3.8l1.9-0.6c0.7-0.3,1-0.5,1-0.7v-3h2v3c0,1.7-1.6,2.3-2.4,2.6l-1.8,0.6
				c-1,0.4-1.1,0.6-1.1,1.9l0.5,14.6c0,2-1.1,3.6-2.3,5.2L28.8,51.4z"/>
		</g>
		<g>
			<g>
				<path class="st1" d="M20,22.2l0-10.6c0-0.4,0.1-0.7,0.4-1c0.3-0.3,0.6-0.4,1-0.4l15.2-0.1c0.4,0,0.8,0.2,1.1,0.5
					c0.2,0.2,0.4,0.6,0.4,0.9L38,22l-2,0l0-9.9l-14,0.1l0,10L20,22.2z M21.4,12.2L21.4,12.2L21.4,12.2
					C21.3,12.2,21.3,12.2,21.4,12.2z M22,11.6L22,11.6C22,11.6,22,11.6,22,11.6z M36.1,11.5C36.1,11.5,36.1,11.5,36.1,11.5
					L36.1,11.5z"/>
			</g>
			<g class="st2">
				<path class="st1" d="M28.8,45.5c-0.8,0-1.5-0.7-1.5-1.5c0-0.8,0.7-1.5,1.5-1.5c0.8,0,1.5,0.7,1.5,1.5
					C30.3,44.8,29.6,45.5,28.8,45.5z M28.8,43.4c-0.3,0-0.5,0.2-0.5,0.5s0.2,0.5,0.5,0.5c0.3,0,0.5-0.2,0.5-0.5S29,43.4,28.8,43.4z"
					/>
			</g>
		</g>
		<g>
			<rect x="26" y="28" class="st0" width="6" height="3"/>
		</g>
	</g>
</g>
<g>
	<g>
		<path class="st0" d="M29,58C13,58,0,45,0,29S13,0,29,0s29,13,29,29S45,58,29,58z M29,2.6C14.4,2.6,2.6,14.4,2.6,29
			S14.4,55.4,29,55.4S55.4,43.6,55.4,29S43.6,2.6,29,2.6z"/>
	</g>
</g>
<g class="st2">
	<rect x="24.2" y="11.1" class="st1" width="1" height="6.6"/>
</g>
<g class="st2">
	<rect x="28.5" y="11.1" class="st1" width="1" height="6.6"/>
</g>
<g class="st2">
	<rect x="33" y="11.1" class="st1" width="1" height="6.6"/>
</g>
<g>
	<rect x="21" y="20.6" class="st1" width="16.1" height="1"/>
</g>
</svg>
