<?xml version="1.0" encoding="utf-8"?>
<!-- Generator: Adobe Illustrator 19.2.0, SVG Export Plug-In . SVG Version: 6.00 Build 0)  -->
<svg version="1.1" id="Layer_1" xmlns="http://www.w3.org/2000/svg" xmlns:xlink="http://www.w3.org/1999/xlink" x="0px" y="0px"
	 viewBox="0 0 58 58" style="enable-background:new 0 0 58 58;" xml:space="preserve">
<style type="text/css">
	.st0{fill:#8CC640;}
</style>
<g>
	<g>
		<g>
			<path class="st0" d="M29,58C13,58,0,45,0,29S13,0,29,0s29,13,29,29S45,58,29,58z M29,2.6C14.4,2.6,2.6,14.4,2.6,29
				S14.4,55.4,29,55.4S55.4,43.6,55.4,29S43.6,2.6,29,2.6z"/>
		</g>
	</g>
	<g>
		<path class="st0" d="M22,40c-6,0-11-5-11-11c0-6,4.9-11,11-11c6,0,11,4.9,11,11c0,1.5-0.3,3-0.9,4.4l-1.8-0.8
			c0.5-1.2,0.8-2.4,0.8-3.6c0-4.9-4-9-9-9c-4.9,0-9,4-9,9c0,4.9,4,9,9,9c1.3,0,2.5-0.3,3.7-0.8l0.8,1.8C25,39.7,23.5,40,22,40z"/>
	</g>
	<g>
		<path class="st0" d="M36,40c-6.1,0-11-4.9-11-11c0-1.6,0.3-3.1,1-4.6l1.8,0.8C27.3,26.4,27,27.7,27,29c0,4.9,4,9,9,9
			c4.9,0,9-4,9-9c0-5-4-9-9-9c-1.3,0-2.6,0.3-3.8,0.9l-0.9-1.8c1.5-0.7,3-1,4.7-1c6,0,11,4.9,11,11C47,35.1,42.1,40,36,40z"/>
	</g>
</g>
</svg>
