<?xml version="1.0" encoding="utf-8"?>
<!-- Generator: Adobe Illustrator 19.2.0, SVG Export Plug-In . SVG Version: 6.00 Build 0)  -->
<svg version="1.1" id="Layer_1" xmlns="http://www.w3.org/2000/svg" xmlns:xlink="http://www.w3.org/1999/xlink" x="0px" y="0px"
	 viewBox="0 0 168 42" style="enable-background:new 0 0 168 42;" xml:space="preserve">
<style type="text/css">
	.st0{fill:#B5B6BB;}
</style>
<g>
	<g>
		<path class="st0" d="M11.9,8.1h3c0.3,0,0.5,0,0.8,0c0.2,0,0.4,0.1,0.5,0.3s0.2,0.4,0.2,0.7s0,0.6,0,0.9v3.2v10.7V26
			c0,0.2,0,0.4,0,0.5c0,0.2,0,0.3,0.1,0.5v0.4c0,0.2,0,0.3,0,0.5s0,0.3,0.1,0.4c0.2,0.3,0.5,0.5,1,0.5s1,0,1.5,0h4.8
			c0.2,0,0.4,0,0.7,0c0.3,0,0.6,0,0.8,0c0.3,0,0.5,0,0.7,0.1c0.2,0,0.4,0.1,0.4,0.2c0.1,0.1,0.2,0.3,0.2,0.5s0,0.4,0,0.7v1.6
			c0,0.2,0,0.4,0,0.5c0,0.2,0,0.3-0.1,0.4c-0.1,0.2-0.2,0.3-0.4,0.4c-0.1,0.1-0.3,0.1-0.5,0.1s-0.5,0-0.7,0h-2.5H15h-2.5
			c-0.3,0-0.6,0-0.9-0.1c-0.2,0-0.4-0.1-0.5-0.3C11,32.8,11,32.6,11,32.4s0-0.4,0-0.7v-2.5v-9.4v-8V9.6c0-0.2,0-0.4,0-0.6
			c0-0.2,0.1-0.4,0.1-0.5c0.1-0.2,0.3-0.3,0.6-0.4H11.9C11.8,8.1,11.8,8.1,11.9,8.1z"/>
		<path class="st0" d="M45.7,23.4c0,0.1,0.1,0.3,0.1,0.6c0,0.3,0,0.5-0.1,0.6V25c0,0.2-0.1,0.4-0.1,0.6s0,0.4-0.1,0.6
			c0,0.2-0.1,0.3-0.1,0.5c0,0.1,0,0.3-0.1,0.5c-0.1,0.3-0.2,0.5-0.2,0.8c-0.1,0.3-0.2,0.5-0.3,0.8c-0.5,1.1-1.1,2.1-1.9,2.8
			c-0.8,0.7-1.8,1.3-2.9,1.8c-0.3,0.1-0.6,0.2-0.9,0.3c-0.3,0.1-0.6,0.1-0.9,0.2c-0.1,0-0.2,0.1-0.4,0.1c-0.1,0-0.3,0-0.4,0
			c-0.1,0-0.1,0-0.2,0c-0.1,0-0.2,0-0.2,0c-0.1,0-0.3,0-0.6,0.1c-0.3,0-0.5,0-0.6-0.1h-0.4c-0.1,0-0.2,0-0.4,0c-0.1,0-0.3,0-0.4-0.1
			c-0.1,0-0.2,0-0.3,0s-0.2,0-0.3,0c-0.2-0.1-0.5-0.1-0.7-0.2c-0.2,0-0.5-0.1-0.7-0.2c-0.3-0.1-0.5-0.2-0.8-0.3
			c-0.2-0.1-0.5-0.2-0.8-0.4c-0.8-0.5-1.5-1.1-2.1-1.7c-0.6-0.7-1.1-1.4-1.5-2.4c-0.1-0.2-0.2-0.4-0.3-0.7c-0.1-0.2-0.1-0.5-0.2-0.7
			c0-0.1-0.1-0.2-0.1-0.3c0-0.1,0-0.2-0.1-0.3c0-0.2-0.1-0.4-0.1-0.6s0-0.4-0.1-0.6c0-0.1,0-0.2,0-0.3c0-0.1,0-0.2,0-0.3
			c0-0.1-0.1-0.3-0.1-0.6c0-0.3,0-0.5,0.1-0.6v-0.2c0-0.1,0-0.2,0-0.4c0-0.1,0-0.3,0.1-0.4c0-0.1,0-0.2,0-0.3c0-0.1,0-0.2,0.1-0.3
			c0.1-0.3,0.2-0.6,0.2-0.9c0.1-0.3,0.2-0.6,0.3-0.9c0.4-1,0.9-1.8,1.5-2.4s1.3-1.2,2.2-1.8c0.2-0.1,0.5-0.2,0.7-0.3
			c0.3-0.1,0.5-0.2,0.8-0.3s0.6-0.2,1-0.2c0.3,0,0.7-0.1,1-0.2c0.2,0,0.4,0,0.5,0c0.2,0,0.3,0,0.5,0c1.4,0,2.6,0.1,3.6,0.4
			c1,0.3,1.9,0.7,2.7,1.3c0.3,0.2,0.5,0.4,0.8,0.6s0.5,0.5,0.7,0.7s0.4,0.5,0.5,0.7c0.2,0.2,0.3,0.5,0.5,0.7
			c0.2,0.3,0.3,0.5,0.4,0.8c0.1,0.3,0.2,0.6,0.3,0.9c0.1,0.2,0.1,0.4,0.2,0.6c0,0.2,0.1,0.4,0.1,0.6c0,0.1,0,0.2,0,0.3
			c0,0.1,0,0.2,0,0.3c0,0.1,0.1,0.2,0,0.4C45.6,23.2,45.6,23.3,45.7,23.4z M40.7,24.7c0-0.1,0-0.3,0-0.5s0-0.4,0-0.5v-0.3
			c0-0.1-0.1-0.2-0.1-0.4c0-0.1,0-0.3,0-0.4s0-0.2,0-0.2c0-0.2-0.1-0.4-0.1-0.6s-0.1-0.4-0.2-0.6c-0.3-0.6-0.6-1.1-0.9-1.6
			c-0.4-0.4-0.8-0.8-1.4-1c-0.1,0-0.3-0.1-0.4-0.1c-0.1,0-0.3-0.1-0.5-0.1s-0.4-0.1-0.6-0.1c-0.2,0-0.4,0-0.6,0
			c-0.1,0-0.2,0.1-0.2,0.1c-0.1,0-0.2,0-0.2,0c-0.2,0-0.3,0.1-0.5,0.1s-0.3,0.1-0.4,0.2c-0.6,0.3-1.1,0.6-1.4,1.1
			c-0.4,0.5-0.7,1-0.9,1.7c-0.1,0.2-0.1,0.5-0.2,0.7c0,0.3-0.1,0.5-0.1,0.8c0,0.1,0,0.2,0,0.4c0,0.1,0,0.2,0,0.4
			c0,0.2-0.1,0.4-0.1,0.7c0,0.3,0,0.6,0.1,0.7v0.3c0,0.2,0.1,0.4,0.1,0.5c0,0.2,0.1,0.4,0.1,0.5c0.2,0.7,0.5,1.3,0.8,1.7
			c0.3,0.4,0.7,0.8,1.3,1.2c0.2,0.1,0.3,0.2,0.5,0.3c0.2,0.1,0.4,0.1,0.6,0.2c0.1,0,0.2,0,0.2,0c0.1,0,0.2,0,0.2,0
			c0.1,0,0.2,0,0.3,0.1c0.1,0,0.2,0,0.3,0h0.3c0.2,0,0.4-0.1,0.6-0.1c0.2,0,0.4-0.1,0.5-0.1c0.6-0.2,1.1-0.6,1.5-1s0.7-0.9,1-1.5
			c0.1-0.2,0.2-0.5,0.2-0.7s0.1-0.5,0.2-0.7c0-0.1,0-0.2,0-0.3c0-0.1,0-0.2,0-0.3c0-0.1,0-0.2,0-0.3C40.7,24.9,40.7,24.8,40.7,24.7z
			"/>
		<path class="st0" d="M65,15.3c0.2,0.1,0.3,0.3,0.3,0.6s0,0.5,0,0.8v15.1c0,0.2,0,0.4,0,0.5c0,0.2,0,0.4,0,0.5c0,0.2,0,0.4-0.1,0.5
			c0,0.2,0,0.3-0.1,0.5c-0.1,0.3-0.2,0.6-0.2,0.9c-0.1,0.3-0.1,0.6-0.3,0.8c-0.4,0.9-0.9,1.6-1.5,2.2c-0.6,0.6-1.4,1.1-2.3,1.5
			c-0.3,0.1-0.5,0.2-0.8,0.3s-0.5,0.1-0.8,0.2c-0.3,0.1-0.5,0.1-0.8,0.1s-0.5,0.1-0.8,0.1c-0.1,0-0.2,0-0.3,0s-0.2,0-0.3,0
			s-0.2,0-0.3,0s-0.2,0-0.4,0c-0.1,0-0.3,0-0.5,0s-0.3,0-0.5,0c-0.1,0-0.2,0-0.3,0s-0.2,0-0.3,0c-0.2,0-0.4-0.1-0.6-0.1
			c-0.2,0-0.4,0-0.5-0.1c0,0-0.1,0-0.2,0c-0.1,0-0.1,0-0.2,0c-0.2,0-0.5-0.1-0.7-0.2c-0.2-0.1-0.4-0.1-0.7-0.2
			c-0.9-0.4-1.7-0.9-2.4-1.4c-0.7-0.6-1.2-1.4-1.6-2.3c0-0.1-0.1-0.1-0.1-0.2c0-0.1,0-0.1,0-0.2c-0.1-0.3,0-0.5,0.1-0.7
			s0.3-0.3,0.5-0.3s0.5-0.1,0.8-0.1s0.6,0,0.8,0h1.2c0.1,0,0.2,0,0.3,0s0.2,0,0.3,0c0.4,0.1,0.6,0.2,0.7,0.4
			c0.1,0.2,0.2,0.4,0.4,0.6c0.1,0.1,0.2,0.2,0.3,0.4c0,0,0,0.1,0.1,0.1c0,0,0,0.1,0.1,0.1c0.2,0.1,0.4,0.3,0.6,0.4
			c0.2,0.1,0.4,0.2,0.7,0.3c0.2,0,0.3,0.1,0.5,0.1s0.3,0,0.5,0.1H56c0.2,0,0.4,0.1,0.6,0c0.3,0,0.5-0.1,0.6-0.1s0.2-0.1,0.3-0.1
			s0.2,0,0.3-0.1c0.5-0.2,0.9-0.5,1.2-0.8c0.3-0.4,0.6-0.8,0.8-1.2c0-0.1,0.1-0.3,0.1-0.4c0-0.1,0.1-0.3,0.1-0.5s0.1-0.4,0.1-0.7
			c0-0.2,0-0.5,0-0.8c0-0.1,0-0.2,0-0.3c0-0.1,0-0.2,0-0.2c0-0.1-0.1-0.2-0.1-0.3c0-0.1,0-0.2-0.1-0.3l-0.1-0.1l-0.1-0.1
			c-0.2,0-0.4,0-0.5,0.1s-0.3,0.2-0.4,0.3c-0.2,0.2-0.4,0.3-0.6,0.5c-0.2,0.1-0.4,0.3-0.7,0.4c-0.3,0.1-0.5,0.2-0.8,0.3
			s-0.5,0.1-0.8,0.2c-0.1,0-0.3,0-0.4,0.1c-0.1,0-0.3,0-0.4,0.1c-0.1,0-0.3,0-0.6,0s-0.4,0-0.6,0h-0.3c-0.1,0-0.1,0-0.2,0
			c-0.1,0-0.2,0-0.3,0c-0.3-0.1-0.7-0.1-1-0.2c-0.3-0.1-0.6-0.1-0.8-0.3c-1-0.4-1.8-1-2.5-1.7c-0.6-0.7-1.2-1.6-1.6-2.6
			C47.1,27.5,47,27.3,47,27s-0.1-0.6-0.2-0.8c0-0.1,0-0.2,0-0.3c0-0.2-0.1-0.4-0.1-0.6s0-0.4-0.1-0.6c0-0.1,0-0.2,0-0.3
			c0-0.1,0-0.2,0-0.3c0-0.1,0-0.3,0-0.4c0-0.2,0-0.3,0-0.4v-0.4c0-0.1,0-0.2,0-0.3c0-0.1,0-0.2,0.1-0.3c0-0.2,0.1-0.5,0.1-0.7
			s0.1-0.5,0.1-0.7c0.1-0.5,0.3-0.9,0.4-1.3c0.2-0.4,0.3-0.8,0.6-1.2c0.1-0.2,0.3-0.5,0.4-0.7c0.2-0.2,0.3-0.4,0.5-0.6
			c0.1-0.1,0.2-0.2,0.3-0.4c0.1-0.1,0.3-0.2,0.4-0.3l0.2-0.2c0.1-0.1,0.2-0.2,0.4-0.3c0.1-0.1,0.2-0.2,0.4-0.2
			c0.3-0.2,0.6-0.4,1-0.5c0.3-0.1,0.7-0.3,1.1-0.4c0.2-0.1,0.4-0.1,0.6-0.1c0.2,0,0.4,0,0.6-0.1c0.1,0,0.2,0,0.4,0s0.3,0,0.3,0
			c0.8,0,1.4,0,2,0.2s1.1,0.4,1.6,0.7c0.1,0,0.1,0.1,0.2,0.2c0.1,0.1,0.2,0.1,0.2,0.2c0.1,0.1,0.3,0.2,0.4,0.4
			c0.1,0.1,0.3,0.2,0.4,0.3c0,0,0.1,0,0.2,0.1c0.1,0,0.1,0,0.2,0c0.1,0,0.2-0.1,0.2-0.2s0.1-0.2,0.1-0.4c0-0.1,0.1-0.2,0.1-0.4
			c0-0.1,0.1-0.2,0.2-0.3c0.1-0.1,0.3-0.1,0.5-0.2c0.2,0,0.4,0,0.6,0h1.8c0.3,0,0.5,0,0.7,0C64.6,15.1,64.8,15.1,65,15.3z
			 M60.1,26.2c0.1-0.2,0.2-0.5,0.2-0.8c0.1-0.3,0.1-0.7,0.1-1c0-0.4,0-0.7,0-1.1s-0.1-0.7-0.1-1c0-0.1-0.1-0.2-0.1-0.2
			c0-0.1,0-0.1,0-0.2c0-0.2-0.1-0.3-0.1-0.5s-0.1-0.3-0.2-0.5c-0.3-0.8-0.8-1.5-1.4-1.9c-0.6-0.4-1.5-0.7-2.7-0.7
			c0,0-0.1,0.1-0.2,0.1c-0.1,0-0.2,0-0.2,0c-0.2,0-0.3,0.1-0.5,0.1c-0.1,0-0.3,0.1-0.4,0.1c-0.6,0.3-1.1,0.6-1.4,1.2
			c-0.3,0.5-0.6,1.1-0.8,1.7c0,0.1-0.1,0.2-0.1,0.3c0,0.1,0,0.2,0,0.3c-0.1,0.3-0.1,0.6-0.1,1.1s0,0.9,0.1,1.2v0.4
			c0,0.2,0.1,0.4,0.1,0.5c0,0.2,0.1,0.4,0.1,0.5c0.2,0.6,0.5,1.2,0.8,1.6c0.3,0.5,0.7,0.8,1.3,1.1c0.2,0.1,0.6,0.2,1,0.4
			c0.2,0,0.3,0,0.4,0c0,0,0.1,0,0.2,0c0.1,0,0.2,0,0.2,0h0.4c0.2,0,0.4-0.1,0.6-0.1c0.2,0,0.4-0.1,0.6-0.2c0.6-0.2,1.1-0.6,1.4-1
			C59.6,27.3,59.9,26.8,60.1,26.2z"/>
		<path class="st0" d="M68.2,8.1h4.6c0.4,0,0.8,0,1.2,0c0.4,0,0.7,0.1,0.9,0.2c0.2,0.1,0.3,0.3,0.4,0.5s0.1,0.4,0.2,0.7
			c0.1,0.4,0.3,0.8,0.4,1.2s0.3,0.8,0.4,1.2c0.5,1.5,1.1,3,1.5,4.5c0.5,1.5,1,3.1,1.6,4.6c0.2,0.5,0.4,1,0.5,1.5s0.3,1,0.5,1.5
			c0,0.1,0.1,0.2,0.1,0.4c0,0.1,0.1,0.2,0.2,0.3c0,0,0.1,0,0.1,0.1h0.1c0.2,0,0.3-0.2,0.4-0.4c0.1-0.2,0.1-0.4,0.2-0.6
			c0.2-0.5,0.4-1.1,0.5-1.6c0.2-0.5,0.3-1.1,0.5-1.6c0.5-1.4,0.9-2.9,1.4-4.3c0.5-1.5,0.9-2.9,1.4-4.4c0.1-0.4,0.2-0.7,0.4-1.1
			c0.1-0.4,0.2-0.7,0.4-1.1c0.1-0.2,0.1-0.4,0.2-0.6c0.1-0.2,0.2-0.3,0.4-0.5c0.1-0.1,0.3-0.2,0.5-0.2s0.5,0,0.7,0h2.3h2.4
			c0.2,0,0.4,0,0.7,0c0.2,0,0.4,0,0.5,0.1c0.3,0.1,0.4,0.4,0.4,0.8c0,0.4,0,0.8,0,1.2v5.3V29v3.1c0,0.3,0,0.5,0,0.8
			c0,0.2-0.1,0.4-0.2,0.5s-0.3,0.2-0.5,0.2s-0.4,0-0.7,0h-1.7h-1c-0.2,0-0.3-0.1-0.5-0.1c-0.1,0-0.2-0.1-0.3-0.2
			c-0.1-0.1-0.1-0.3-0.1-0.5s0-0.4,0-0.6v-1.8V21c0-0.3,0-0.6,0-0.9s0-0.6,0-0.9c0-0.2,0-0.4,0-0.6s0-0.4-0.1-0.6
			c0-0.2-0.1-0.3-0.1-0.5s-0.1-0.3-0.2-0.4c-0.1,0-0.1,0-0.2,0l-0.1,0.1c-0.1,0.1-0.2,0.2-0.2,0.3c-0.1,0.1-0.1,0.3-0.2,0.4
			c-0.1,0.4-0.3,0.7-0.4,1.1s-0.3,0.8-0.4,1.1c0,0.1-0.1,0.3-0.1,0.4s-0.1,0.3-0.2,0.4c-0.1,0.3-0.2,0.6-0.3,0.9
			c-0.1,0.3-0.2,0.6-0.3,0.9c0,0.1-0.1,0.1-0.1,0.2s0,0.2-0.1,0.2c-0.1,0.2-0.2,0.4-0.2,0.7c-0.1,0.2-0.1,0.5-0.3,0.7
			c-0.1,0.2-0.2,0.4-0.2,0.7c-0.1,0.2-0.1,0.5-0.2,0.7c-0.3,0.7-0.5,1.4-0.7,2.1s-0.4,1.4-0.7,2.1c0,0.1-0.1,0.1-0.1,0.2
			s0,0.1-0.1,0.2c-0.1,0.3-0.2,0.5-0.3,0.8c-0.1,0.3-0.2,0.5-0.3,0.8c-0.1,0.2-0.1,0.3-0.2,0.5c-0.1,0.1-0.1,0.3-0.3,0.4
			c-0.1,0.1-0.2,0.1-0.4,0.2c-0.1,0-0.3,0-0.4,0.1H81c-0.2,0-0.4,0-0.6,0s-0.4,0-0.7,0c-0.2,0-0.4,0-0.6,0s-0.3-0.1-0.4-0.1
			c-0.2-0.1-0.3-0.3-0.4-0.4c-0.1-0.2-0.2-0.3-0.2-0.5c-0.1-0.3-0.2-0.6-0.3-0.9c-0.1-0.3-0.2-0.6-0.3-0.9l-0.1-0.3
			c-0.1-0.3-0.2-0.6-0.3-0.9c-0.1-0.3-0.2-0.6-0.3-0.9c0-0.1,0-0.1-0.1-0.2c0-0.1,0-0.1-0.1-0.2c-0.1-0.2-0.2-0.4-0.3-0.7
			c-0.1-0.2-0.2-0.5-0.2-0.7c0,0,0-0.1-0.1-0.2c0-0.1,0-0.1-0.1-0.2c-0.1-0.2-0.2-0.5-0.2-0.7c-0.1-0.2-0.1-0.5-0.3-0.7
			c-0.2-0.5-0.4-1-0.5-1.5c-0.2-0.5-0.3-1-0.5-1.5c-0.2-0.6-0.4-1.2-0.6-1.8c-0.2-0.6-0.4-1.2-0.7-1.8c-0.1-0.3-0.2-0.6-0.4-0.8
			l-0.1-0.1c0,0-0.1,0-0.2,0c-0.1,0.1-0.2,0.2-0.2,0.4c0,0.2,0,0.3-0.1,0.5c0,0.2-0.1,0.3-0.1,0.5s0,0.4,0,0.5c0,0.3,0,0.5,0,0.8
			s0,0.5,0,0.8v9.4v1.7c0,0.2,0,0.4,0,0.6s0,0.3-0.1,0.5s-0.3,0.3-0.5,0.3s-0.3,0.1-0.5,0.1s-0.4,0-0.6,0h-1.8c-0.3,0-0.5,0-0.7,0
			s-0.4-0.1-0.5-0.2c-0.1-0.1-0.2-0.3-0.2-0.5s0-0.5,0-0.8v-3.1V15.5v-5c0-0.1,0-0.3,0-0.5s0-0.4,0-0.6c0-0.2,0-0.4,0-0.5
			c0-0.2,0.1-0.3,0.1-0.4c0.1-0.2,0.3-0.3,0.6-0.4h0.1C68.1,8.1,68.2,8.1,68.2,8.1z"/>
		<path class="st0" d="M113.9,24c0,0.2,0,0.4,0,0.6s-0.1,0.4-0.2,0.5s-0.3,0.2-0.5,0.2s-0.5,0.1-0.7,0.1c-0.3,0-0.5,0-0.8,0
			s-0.5,0-0.7,0h-8.6c-0.2,0-0.3,0-0.5,0s-0.3,0-0.4,0.1c-0.2,0.1-0.3,0.2-0.4,0.3c0,0-0.1,0.1-0.1,0.3c0,0.1-0.1,0.3,0,0.4
			c0,0.1,0.1,0.3,0.1,0.4s0,0.3,0.1,0.4c0.2,0.6,0.4,1,0.7,1.4c0.3,0.4,0.6,0.7,1.1,1c0.2,0.1,0.4,0.2,0.6,0.2s0.4,0.1,0.6,0.2
			c0.2,0,0.4,0.1,0.8,0.1c0.3,0,0.6,0,0.8,0h0.3c0.2,0,0.5-0.1,0.7-0.2s0.4-0.1,0.6-0.2s0.5-0.3,0.8-0.5s0.5-0.4,0.7-0.6
			c0.1-0.2,0.2-0.3,0.4-0.5c0.1-0.2,0.3-0.3,0.5-0.3c0.2-0.1,0.5-0.2,0.9-0.2s0.7,0,1,0c0.1,0,0.3,0,0.4,0c0.2,0,0.3,0,0.4,0.1h0.4
			c0.2,0,0.4,0.1,0.5,0.2c0.1,0,0.1,0.2,0.2,0.3c0,0.2,0,0.3-0.1,0.4c-0.1,0.3-0.2,0.6-0.4,0.9c-0.1,0.3-0.3,0.5-0.5,0.8
			c-0.5,0.8-1.1,1.4-1.8,1.9c-0.7,0.5-1.5,0.9-2.5,1.2c-0.3,0.1-0.5,0.2-0.8,0.2s-0.5,0.1-0.8,0.1c-0.1,0-0.2,0-0.3,0
			c-0.1,0-0.2,0-0.3,0h-0.4c-0.1,0-0.3,0.1-0.4,0.1c-0.2,0-0.3,0-0.4-0.1c-0.2,0-0.4,0-0.5,0s-0.3,0-0.5,0c-0.1,0-0.2-0.1-0.4-0.1
			c-0.1,0-0.3,0-0.4-0.1c-0.3,0-0.5-0.1-0.8-0.2c-0.3-0.1-0.5-0.1-0.7-0.3c-0.3-0.1-0.5-0.2-0.7-0.3s-0.4-0.2-0.6-0.3
			c-0.8-0.5-1.4-1-2-1.6s-1.1-1.4-1.5-2.2c-0.1-0.3-0.2-0.5-0.3-0.8c-0.1-0.3-0.2-0.5-0.3-0.8c0-0.1,0-0.2,0-0.3c0-0.1,0-0.2,0-0.3
			c-0.1-0.3-0.2-0.6-0.2-0.9s0-0.7-0.1-1c0-0.1,0-0.2,0-0.4c0-0.1,0-0.3,0-0.4v-0.4l0.1-0.9c0.1-0.4,0.2-0.8,0.2-1.2
			c0.1-0.4,0.2-0.7,0.3-1.1c1-2.5,2.7-4.2,5.2-5.2c0.3-0.1,0.7-0.2,1-0.3s0.7-0.1,1.1-0.2c0.2,0,0.4,0,0.5,0c0.2,0,0.3,0,0.5,0
			c1.2,0,2.2,0.1,3.1,0.4c0.9,0.3,1.6,0.7,2.3,1.1c0.2,0.1,0.4,0.3,0.6,0.5s0.4,0.4,0.6,0.5c0.1,0.1,0.2,0.2,0.3,0.3
			c0.2,0.3,0.4,0.5,0.5,0.8c0.2,0.3,0.3,0.5,0.5,0.8c0.1,0.2,0.2,0.4,0.3,0.7c0.1,0.2,0.2,0.5,0.3,0.7c0.1,0.3,0.2,0.6,0.3,1
			c0.1,0.3,0.2,0.7,0.2,1c0,0.2,0.1,0.4,0.1,0.6s0,0.4,0.1,0.6L113.9,24L113.9,24z M108.6,21.9c0.2-0.2,0.2-0.5,0.1-0.9
			c-0.1-0.3-0.2-0.6-0.3-0.8c-0.3-0.6-0.8-1.1-1.3-1.5c-0.5-0.3-1.3-0.5-2.3-0.5c-0.1,0-0.2,0.1-0.2,0c-0.1,0-0.2,0-0.2,0
			c-0.1,0-0.2,0.1-0.4,0.1c-0.1,0-0.3,0-0.4,0.1c-1,0.3-1.8,1-2.3,1.9c0,0.1-0.1,0.2-0.2,0.4c-0.1,0.2-0.1,0.3-0.1,0.5s0,0.3,0,0.4
			s0.1,0.3,0.2,0.4c0.2,0.1,0.4,0.2,0.8,0.2c0.3,0,0.6,0,1,0h3.9c0.3,0,0.7,0,1,0S108.5,22.1,108.6,21.9z"/>
	</g>
	<path class="st0" d="M136.1,0c-11.6,0-21,9.4-21,21s9.4,21,21,21s21-9.4,21-21S147.7,0,136.1,0z M128.9,33.2
		c-0.1,0.2-0.3,0.3-0.6,0.4c-0.2,0-0.3,0.1-0.5,0c-0.2,0-0.4,0-0.6,0h-2.1c-0.3,0-0.5,0-0.7,0s-0.4-0.1-0.5-0.2
		c-0.1-0.1-0.2-0.3-0.2-0.5s0-0.5,0-0.7v-3.1V16v-5.2c0-0.3,0-0.7,0-1.2c0-0.4,0-0.8,0.2-1c0.1-0.1,0.2-0.3,0.5-0.4
		c0.1,0,0.1,0,0.2,0s0.1,0,0.2,0h3c0.3,0,0.5,0,0.7,0s0.4,0.1,0.5,0.3c0,0.3,0,0.5,0,0.8s0,0.5,0,0.8v3.1v12.3v5.8c0,0.3,0,0.6,0,1
		C129.1,32.7,129,33,128.9,33.2z M149.7,22.5v3.1v5.7c0,0.4,0,0.9,0,1.3c0,0.4-0.2,0.7-0.5,0.8c-0.1,0-0.3,0.1-0.5,0.1s-0.4,0-0.6,0
		h-1.9c-0.3,0-0.5,0-0.8-0.1c-0.2,0-0.4-0.1-0.5-0.3c-0.1-0.1-0.1-0.3-0.2-0.5c0-0.2,0-0.5,0-0.7v-2.5v-5.3c0-0.9,0-1.7-0.1-2.4
		c-0.1-0.7-0.3-1.4-0.6-1.9s-0.8-0.8-1.5-1c-0.1,0-0.2-0.1-0.4-0.1c-0.1,0-0.3,0-0.4-0.1c-0.1,0-0.3,0-0.4,0c-0.2,0-0.3,0-0.4,0.1
		c-0.1,0-0.2,0-0.2,0c-0.1,0-0.1,0-0.2,0c-0.5,0.1-1,0.3-1.3,0.6c-0.8,0.5-1.2,1.3-1.3,2.4c-0.1,1-0.2,2.2-0.2,3.5v4.4v2.2
		c0,0.2,0,0.4,0,0.6c0,0.2,0,0.4-0.1,0.5c-0.1,0.3-0.3,0.4-0.6,0.5c-0.3,0-0.6,0.1-1,0.1h-1.8c-0.3,0-0.5,0-0.8,0s-0.4-0.1-0.6-0.2
		c-0.2-0.2-0.2-0.5-0.2-0.9c0-0.4,0-0.8,0-1.1v-4.8v-7.8v-1.8c0-0.3,0-0.5,0-0.7c0-0.2,0.1-0.4,0.2-0.5c0-0.1,0.1-0.1,0.2-0.2
		c0.1,0,0.2-0.1,0.3-0.1h0.2c0.1,0,0.2,0,0.4,0c0.1,0,0.3,0,0.4,0h1.5c0.2,0,0.4,0,0.5,0c0.2,0,0.3,0,0.5,0.1s0.3,0.2,0.3,0.3
		c0.1,0.1,0.1,0.3,0.2,0.5c0,0.1,0,0.2,0,0.2c0,0.1,0,0.1,0.1,0.2c0,0.1,0.1,0.2,0.1,0.2s0.1,0.1,0.2,0.1c0.3,0,0.5-0.1,0.6-0.3
		c0.2-0.2,0.3-0.4,0.5-0.5c0.6-0.5,1.3-0.8,2.1-1.1c0.2-0.1,0.4-0.1,0.7-0.1c0.2,0,0.5-0.1,0.7-0.1c0.1,0,0.2,0,0.3,0s0.2,0,0.3,0
		c1.4,0,2.6,0.2,3.5,0.6c0.9,0.4,1.7,1.1,2.2,2c0.2,0.3,0.3,0.5,0.4,0.8c0.1,0.3,0.2,0.6,0.3,0.9c0,0.2,0.1,0.4,0.1,0.5
		c0,0.2,0,0.3,0.1,0.5c0,0.1,0,0.2,0,0.3c0,0.3,0.1,0.7,0.1,1C149.7,21.8,149.7,22.2,149.7,22.5z"/>
</g>
</svg>
