<?xml version="1.0" encoding="utf-8"?>
<!-- Generator: Adobe Illustrator 19.2.0, SVG Export Plug-In . SVG Version: 6.00 Build 0)  -->
<svg version="1.1" id="Layer_1" xmlns="http://www.w3.org/2000/svg" xmlns:xlink="http://www.w3.org/1999/xlink" x="0px" y="0px"
	 viewBox="0 0 58 58" style="enable-background:new 0 0 58 58;" xml:space="preserve">
<style type="text/css">
	.st0{fill:#8CC640;}
</style>
<g>
	<g>
		<path class="st0" d="M29,58C13,58,0,45,0,29S13,0,29,0s29,13,29,29S45,58,29,58z M29,2.6C14.4,2.6,2.6,14.4,2.6,29
			S14.4,55.4,29,55.4S55.4,43.6,55.4,29S43.6,2.6,29,2.6z"/>
	</g>
	<path class="st0" d="M44.5,18.3c-0.6-0.6-1.5-0.6-2.1,0L21.8,38.9L15,32.1c-0.6-0.6-1.5-0.6-2.1,0c-0.6,0.6-0.6,1.5,0,2.1l7.6,7.6
		c0.1,0.1,0.2,0.2,0.3,0.2c0,0,0,0,0,0c0.3,0.3,0.7,0.4,1.1,0.4s0.8-0.1,1.1-0.4l21.6-21.6C45.1,19.8,45.1,18.9,44.5,18.3z"/>
</g>
</svg>
