<?xml version="1.0" encoding="utf-8"?>
<!-- Generator: Adobe Illustrator 19.2.0, SVG Export Plug-In . SVG Version: 6.00 Build 0)  -->
<svg version="1.1" id="Layer_1" xmlns="http://www.w3.org/2000/svg" xmlns:xlink="http://www.w3.org/1999/xlink" x="0px" y="0px"
	 viewBox="0 0 168 42" style="enable-background:new 0 0 168 42;" xml:space="preserve">
<style type="text/css">
	.st0{fill:#B5B6BB;}
</style>
<g>
	<g id="g38907" transform="matrix(1.25,0,0,-1.25,-539.88561,154.39707)">
		<g id="XMLID_1_">
			<g>
				<path class="st0" d="M539.7,115.5c1.2,0,2.1-0.9,2.1-2.1s-1-2.1-2.1-2.1c-1.2,0-2.1,0.9-2.1,2.1
					C537.6,114.6,538.5,115.5,539.7,115.5z M541.5,113.4c0,1-0.8,1.8-1.8,1.8s-1.8-0.8-1.8-1.8s0.8-1.8,1.8-1.8
					S541.5,112.4,541.5,113.4z"/>
				<path class="st0" d="M540.6,112.3h-0.4c0,0.1,0,0.2,0,0.3c0,0.5-0.2,0.6-0.6,0.6h-0.4v-0.9h-0.4v2.3h0.8c0.5,0,1-0.1,1-0.7
					c0-0.4-0.3-0.5-0.6-0.6c0.3-0.1,0.5-0.3,0.5-0.7C540.6,112.5,540.6,112.3,540.6,112.3z M540.2,113.9c0,0.3-0.2,0.4-0.6,0.4h-0.4
					v-0.8h0.4C540,113.5,540.2,113.6,540.2,113.9z"/>
				<polygon class="st0" points="530.8,107.4 536.9,98 530.6,98 527.7,103.1 524,98 517.6,98 524.6,107.4 519.3,115.5 525.7,115.5 
					527.7,111.8 530.1,115.5 536.6,115.5 				"/>
				<path class="st0" d="M514.1,96.5c1.8,0,3.3-1.5,3.3-3.3s-1.5-3.3-3.3-3.3s-3.3,1.5-3.3,3.3S512.3,96.5,514.1,96.5z"/>
				<path class="st0" d="M504.9,104.9l5.4-7h-6.6l-3.3,5.2V98h-5.2v17.5h6.9c2,0,3.7-0.6,4.8-1.7c1-1,1.5-2.3,1.5-3.9
					C508.2,107.5,506.9,105.6,504.9,104.9z M503.5,109.6c0,0.6-0.2,1-0.5,1.3c-0.6,0.6-1.8,0.7-2.7,0.7v-4.1
					C502.6,107.6,503.5,108.2,503.5,109.6z"/>
				<polygon class="st0" points="493.7,115.5 493.7,110.9 489.7,110.9 489.7,98 484.4,98 484.4,110.9 480.5,110.9 480.5,115.5 				
					"/>
				<polygon class="st0" points="479,115.5 479,98 473.8,98 473.8,100.4 473.8,113.1 473.8,115.5 				"/>
				<path class="st0" d="M476.4,123.5c1.8,0,3.3-1.5,3.3-3.3s-1.5-3.3-3.3-3.3s-3.3,1.5-3.3,3.3S474.6,123.5,476.4,123.5z"/>
				<path class="st0" d="M472.2,113.1l-2.8-4.5c-0.8,1.3-2.3,2.1-3.9,2.1c-2.2,0-3.8-1.8-3.8-4s1.6-4,3.8-4c1.5,0,3.1,0.8,3.9,2.1
					l2.8-4.5c-1.7-1.7-4-2.8-6.6-2.8c-5.1,0-9.2,4.1-9.2,9.2s4.1,9.2,9.2,9.2C468.2,115.9,470.5,114.8,472.2,113.1z"/>
			</g>
		</g>
	</g>
	<polygon class="st0" points="106,10.1 106,31.9 99.4,31.9 99.4,28.9 99.4,13.1 99.4,10.1 	"/>
</g>
</svg>
