<?xml version="1.0" encoding="utf-8"?>
<!-- Generator: Adobe Illustrator 18.0.0, SVG Export Plug-In . SVG Version: 6.00 Build 0)  -->
<!DOCTYPE svg PUBLIC "-//W3C//DTD SVG 1.1//EN" "http://www.w3.org/Graphics/SVG/1.1/DTD/svg11.dtd">
<svg version="1.1" id="Layer_1" xmlns="http://www.w3.org/2000/svg" xmlns:xlink="http://www.w3.org/1999/xlink" x="0px" y="0px"
	 viewBox="0 0 370 265" enable-background="new 0 0 370 265" xml:space="preserve">
<g>
	<g>
		<path fill="none" stroke="#3B4251" stroke-width="2" stroke-miterlimit="10" d="M281.1,255.5h0.4h66.5c0.6,0,0.6-0.9,0.6-1.6
			v-83.5c0-1.9-1.4-3.3-3.3-3.3H216.6c-1.7,0-3.2,1.4-3.2,3.2v83.7c0,0.7,0,1.6,0.7,1.6L281.1,255.5L281.1,255.5z M217.8,171.9H344
			v78.7H217.8V171.9z"/>
		<path fill="none" stroke="#3B4251" stroke-width="2" stroke-miterlimit="10" d="M364.5,258.6c-0.2,0.3-1.3,0.8-2.3,1.2
			c-0.5,0.2-2.3,0.7-3.2,0.8c-0.9,0.1-3.2,0.1-3.2,0.1h-74h-0.4h-73.3c0,0-2.3,0-3.2-0.1c-0.9-0.1-2.6-0.6-3.2-0.8
			c-1.1-0.4-2-1-2.3-1.2c0-0.1-0.1-0.3-0.1-0.5v-0.7v-1.7c0-0.1,0.1-0.2,0.2-0.2h81.8h0.4h82.6c0.1,0,0.2,0.1,0.2,0.2v1.7v0.7
			C364.6,258.3,364.5,258.6,364.5,258.6z"/>
	</g>
	<g>
		<g>
			<path fill="none" stroke="#3C4352" stroke-width="0.5" stroke-miterlimit="10" d="M303.1,216.8c-0.3,0-0.6-0.3-0.6-0.6
				s0.3-0.6,0.6-0.6c0.3,0,0.6,0.3,0.6,0.6C303.7,216.6,303.5,216.8,303.1,216.8z"/>
			<g>
				<path fill="#3C4352" d="M313,224.7v-0.2l1.7-2.1l0.1,0h0.1l0.1,0.1l0,2h0.4l0.1,0.1v0.1l-0.1,0.1h-0.4v0.6l-0.1,0.1h-0.1
					l-0.1-0.1v-0.6L313,224.7L313,224.7L313,224.7z M314.6,224.5V223l-1.2,1.5H314.6z M317.2,222.4L317.2,222.4l0.1,0.1
					c0,0.1,0,0.1-0.1,0.1c-0.2,0.1-1,0.5-1.1,1.1c0,0,0.3-0.2,0.7-0.2c0.5,0,0.9,0.4,0.9,0.9c0,0.6-0.4,1-1,1c-0.7,0-1-0.6-1-1.2
					C315.7,223.1,316.7,222.5,317.2,222.4L317.2,222.4z M317.4,224.5c0-0.4-0.3-0.7-0.7-0.7c-0.4,0-0.7,0.3-0.7,0.3
					c-0.1,0.4,0.1,1.1,0.7,1.1C317.1,225.2,317.4,224.9,317.4,224.5z"/>
			</g>
			<path fill="none" stroke="#8BC541" stroke-miterlimit="10" d="M320.7,238.7l-0.2,0c-0.2-0.1-0.3-0.2-0.4-0.4
				c-0.8-1.8-2.5-3-4.5-3c-2,0-3.7,1.2-4.5,3c-0.1,0.2-0.2,0.3-0.4,0.4c-0.2,0.1-0.4,0-0.5-0.1l-5.5-3.6c-0.3-0.2-0.4-0.5-0.2-0.8
				c2.2-4.1,6.5-6.6,11.1-6.6s8.9,2.5,11.1,6.6c0.2,0.3,0.1,0.6-0.2,0.8l-5.5,3.6C321,238.7,320.8,238.7,320.7,238.7z"/>
			<path fill="none" stroke="#3C4352" stroke-miterlimit="10" d="M315.4,239.6c-0.6,0-1.1-0.3-1.3-0.8l-2.3-5.6
				c-0.1-0.1-0.1-0.4,0-0.5c0.1-0.2,0.2-0.4,0.4-0.5c0.1,0,0.3-0.1,0.4-0.1c0.3,0,0.5,0.2,0.7,0.4l3.5,4.8c0.2,0.4,0.3,0.8,0.2,1.2
				c-0.1,0.4-0.4,0.7-0.7,0.9C315.9,239.6,315.6,239.6,315.4,239.6L315.4,239.6z"/>
			<g>
				<path fill="#3C4352" d="M326.1,242.3l-0.1,0.1l0,0l0,0l0,0l0.3-0.2h0l0,0v1.2l0,0h-0.1l0,0L326.1,242.3L326.1,242.3z
					 M326.6,243.1L326.6,243.1L326.6,243.1c0.1,0,0.2,0.1,0.4,0.1c0.2,0,0.3-0.2,0.3-0.3c0-0.1-0.1-0.3-0.3-0.3h-0.3l-0.1-0.1v-0.5
					l0,0h0.5l0,0v0.1l0,0h-0.5v0.3h0.2c0.3,0,0.4,0.1,0.4,0.4c0,0.2-0.2,0.4-0.4,0.4C326.7,243.3,326.6,243.2,326.6,243.1
					L326.6,243.1L326.6,243.1z M327.7,243.2c0.1,0,0.4-0.2,0.5-0.4c0,0-0.1,0.1-0.3,0.1c-0.2,0-0.4-0.2-0.4-0.4
					c0-0.2,0.2-0.4,0.4-0.4c0.3,0,0.4,0.2,0.4,0.5c0,0.5-0.4,0.7-0.6,0.8L327.7,243.2L327.7,243.2L327.7,243.2L327.7,243.2z
					 M328.1,242.6c0-0.2,0-0.5-0.3-0.5c-0.2,0-0.3,0.1-0.3,0.3c0,0.2,0.1,0.3,0.3,0.3C328,242.7,328.1,242.6,328.1,242.6z"/>
			</g>
			<g>
				<path fill="#8BC541" d="M302.3,240.7L302.3,240.7L302.3,240.7l0.2,0.1c0.1,0,0.2-0.1,0.2-0.1c0-0.1-0.1-0.1-0.2-0.1h-0.1l0,0v0
					l0,0h0.1c0.1,0,0.2-0.1,0.2-0.1c0-0.1-0.1-0.1-0.1-0.1l-0.1,0.1l0,0l0,0v0c0,0,0.1-0.1,0.2-0.1c0.1,0,0.2,0.1,0.2,0.2
					c0,0.1-0.1,0.2-0.1,0.2v0c0.1,0,0.1,0.1,0.1,0.2c0,0.1-0.1,0.2-0.2,0.2C302.4,240.8,302.4,240.7,302.3,240.7L302.3,240.7
					L302.3,240.7z M303,240.4c0-0.2,0.1-0.4,0.3-0.4c0.2,0,0.3,0.1,0.3,0.4c0,0.2-0.1,0.4-0.3,0.4C303.1,240.8,303,240.7,303,240.4z
					 M303.5,240.4c0-0.2-0.1-0.3-0.2-0.3c-0.1,0-0.2,0.1-0.2,0.3c0,0.2,0.1,0.3,0.2,0.3C303.4,240.7,303.5,240.6,303.5,240.4z
					 M303.8,240.4L303.8,240.4L303.8,240.4l0.3,0l0,0v0l0,0L303.8,240.4L303.8,240.4z M304.3,240L304.3,240l0.3,0
					c0.2,0,0.4,0.2,0.4,0.4c0,0.2-0.2,0.4-0.4,0.4h-0.3l0,0V240L304.3,240z M304.6,240.7c0.2,0,0.3-0.1,0.3-0.3
					c0-0.2-0.1-0.3-0.3-0.3h-0.2v0.6H304.6L304.6,240.7z M305.1,240.8l0.3-0.8l0,0h0l0,0l0.3,0.8l0,0h0l0,0l-0.1-0.2h-0.4
					L305.1,240.8L305.1,240.8L305.1,240.8L305.1,240.8z M305.6,240.5l-0.2-0.4h0l-0.2,0.4H305.6z M306.1,240.4l-0.3-0.4l0,0h0.1l0,0
					L306.1,240.4l0.3-0.4l0,0h0.1l0,0L306.1,240.4l0.1,0.4l0,0h0l0,0V240.4z M307,240L307,240L307,240L307,240l0.3,0.6h0l0.2-0.6
					l0,0h0l0,0l0.1,0.8l0,0h0l0,0l-0.1-0.6h0l-0.2,0.6l0,0h0l0,0l-0.2-0.6h0l-0.1,0.6l0,0h0l0,0L307,240L307,240z M307.9,240
					L307.9,240L307.9,240L307.9,240l0.1,0.7l0,0h0l0,0V240z M308.3,240L308.3,240L308.3,240l0.6,0.6h0V240l0,0h0l0,0v0.8l0,0h0
					l-0.5-0.6h0v0.6l0,0h0l0,0L308.3,240L308.3,240z"/>
			</g>
			<g>
				<path fill="#8BC541" d="M321.4,240.7L321.4,240.7L321.4,240.7l0.2,0.1c0.1,0,0.2-0.1,0.2-0.1c0-0.1-0.1-0.1-0.2-0.1h-0.1l0,0v0
					l0,0h0.1c0.1,0,0.2-0.1,0.2-0.1c0-0.1-0.1-0.1-0.1-0.1l-0.1,0.1l0,0l0,0v0c0,0,0.1-0.1,0.2-0.1c0.1,0,0.2,0.1,0.2,0.2
					c0,0.1-0.1,0.2-0.1,0.2v0c0.1,0,0.1,0.1,0.1,0.2c0,0.1-0.1,0.2-0.2,0.2C321.5,240.8,321.4,240.7,321.4,240.7L321.4,240.7
					L321.4,240.7z M322.1,240.4c0-0.2,0.1-0.4,0.3-0.4c0.2,0,0.3,0.1,0.3,0.4c0,0.2-0.1,0.4-0.3,0.4
					C322.2,240.8,322.1,240.7,322.1,240.4z M322.6,240.4c0-0.2-0.1-0.3-0.2-0.3c-0.1,0-0.2,0.1-0.2,0.3c0,0.2,0.1,0.3,0.2,0.3
					C322.5,240.7,322.6,240.6,322.6,240.4z M322.9,240.4L322.9,240.4L322.9,240.4l0.3,0l0,0v0l0,0L322.9,240.4L322.9,240.4z
					 M323.4,240L323.4,240l0.3,0c0.2,0,0.4,0.2,0.4,0.4c0,0.2-0.2,0.4-0.4,0.4h-0.3l0,0V240L323.4,240z M323.6,240.7
					c0.2,0,0.3-0.1,0.3-0.3c0-0.2-0.1-0.3-0.3-0.3h-0.2v0.6H323.6L323.6,240.7z M324.1,240.8l0.3-0.8l0,0h0l0,0l0.3,0.8l0,0h0l0,0
					l-0.1-0.2h-0.4L324.1,240.8L324.1,240.8L324.1,240.8L324.1,240.8z M324.7,240.5l-0.2-0.4h0l-0.2,0.4H324.7z M325.1,240.4
					l-0.3-0.4l0,0h0.1l0,0L325.1,240.4l0.3-0.4l0,0h0.1l0,0L325.1,240.4l0.1,0.4l0,0h0l0,0V240.4z M326.1,240L326.1,240L326.1,240
					L326.1,240l0.3,0.6h0l0.2-0.6l0,0h0l0,0l0.1,0.8l0,0h0l0,0l-0.1-0.6h0l-0.2,0.6l0,0h0l0,0l-0.2-0.6h0l-0.1,0.6l0,0h0l0,0
					L326.1,240L326.1,240z M326.9,240.8l0.3-0.8l0,0h0l0,0l0.3,0.8l0,0h0l0,0l-0.1-0.2H327L326.9,240.8L326.9,240.8L326.9,240.8
					L326.9,240.8z M327.4,240.5l-0.2-0.4h0l-0.2,0.4H327.4z M327.9,240.4l-0.2-0.4l0,0h0.1l0,0L327.9,240.4L327.9,240.4l0.2-0.4l0,0
					h0.1l0,0l-0.2,0.4l0.2,0.4l0,0h-0.1l0,0L327.9,240.4L327.9,240.4l-0.1,0.4l0,0h-0.1l0,0L327.9,240.4z"/>
			</g>
			<path fill="none" stroke="#8BC541" stroke-miterlimit="10" d="M331.6,247.1h-30.9c-0.3,0-0.6-0.3-0.6-0.6v-32.8
				c0-0.3,0.3-0.6,0.6-0.6h30.9c0.3,0,0.6,0.3,0.6,0.6v32.8C332.2,246.8,331.9,247.1,331.6,247.1z"/>
			<line fill="none" stroke="#8BC541" stroke-miterlimit="10" x1="300" y1="219.2" x2="332" y2="219.2"/>
			<polygon fill="#3C4352" points="302.7,242.5 302.5,242.6 302.5,242.6 302.5,242.5 302.5,242.5 302.7,242.3 302.8,242.3 
				302.8,242.3 302.8,243.4 302.8,243.5 302.7,243.5 302.7,243.4 302.7,242.5 			"/>
			<g>
				<path fill="#3C4352" d="M305.6,215.8C305.6,215.8,305.6,215.7,305.6,215.8l0.2,0c0,0,0,0,0,0v0.8h0.4c0,0,0,0,0,0v0.1
					c0,0,0,0,0,0h-0.5c0,0,0,0,0,0V215.8z"/>
				<path fill="#3C4352" d="M306.4,215.8C306.4,215.8,306.4,215.7,306.4,215.8l0.2,0c0,0,0,0,0,0v1c0,0,0,0,0,0h-0.1c0,0,0,0,0,0
					V215.8z"/>
				<path fill="#3C4352" d="M306.8,215.8C306.8,215.8,306.8,215.7,306.8,215.8l0.2,0c0,0,0,0,0,0l0.3,0.6h0l0.3-0.6c0,0,0,0,0,0h0.1
					c0,0,0,0,0,0l-0.5,1c0,0,0,0,0,0h0c0,0,0,0,0,0L306.8,215.8z"/>
				<path fill="#3C4352" d="M307.9,215.8C307.9,215.8,308,215.7,307.9,215.8l0.6,0c0,0,0,0,0,0v0.1c0,0,0,0,0,0h-0.4v0.2h0.4
					c0,0,0,0,0,0v0.1c0,0,0,0,0,0h-0.4v0.3h0.4c0,0,0,0,0,0v0.1c0,0,0,0,0,0H308c0,0,0,0,0,0V215.8z"/>
				<path fill="#3C4352" d="M309.1,215.8C309.1,215.8,309.1,215.7,309.1,215.8l0.2,0c0,0,0,0,0,0l0.3,0.6h0l0.3-0.6c0,0,0,0,0,0h0.1
					c0,0,0,0,0,0l-0.5,1c0,0,0,0,0,0h0c0,0,0,0,0,0L309.1,215.8z"/>
				<path fill="#3C4352" d="M310.3,215.8C310.3,215.8,310.3,215.7,310.3,215.8l0.2,0c0,0,0,0,0,0v1c0,0,0,0,0,0h-0.1c0,0,0,0,0,0
					V215.8z"/>
				<path fill="#3C4352" d="M310.8,216.6L310.8,216.6c0.1-0.1,0.1-0.1,0.1-0.1c0,0,0.1,0.1,0.2,0.1c0.1,0,0.1-0.1,0.1-0.1
					c0-0.1-0.1-0.1-0.2-0.2c-0.1-0.1-0.3-0.1-0.3-0.3c0-0.1,0.1-0.3,0.3-0.3c0.1,0,0.3,0.1,0.3,0.1c0,0,0,0,0,0l-0.1,0.1
					c0,0,0,0-0.1,0c0,0-0.1-0.1-0.2-0.1c-0.1,0-0.1,0.1-0.1,0.1c0,0.1,0.1,0.1,0.2,0.2c0.1,0.1,0.3,0.1,0.3,0.3
					c0,0.2-0.1,0.3-0.3,0.3C310.9,216.8,310.8,216.7,310.8,216.6C310.8,216.7,310.8,216.7,310.8,216.6z"/>
				<path fill="#3C4352" d="M311.7,215.8C311.7,215.8,311.7,215.7,311.7,215.8l0.2,0c0,0,0,0,0,0v1c0,0,0,0,0,0h-0.1c0,0,0,0,0,0
					V215.8z"/>
				<path fill="#3C4352" d="M312.4,215.9h-0.2c0,0,0,0,0,0v-0.1c0,0,0,0,0,0h0.6c0,0,0,0,0,0v0.1c0,0,0,0,0,0h-0.2v0.8c0,0,0,0,0,0
					h-0.1c0,0,0,0,0,0V215.9z"/>
				<path fill="#3C4352" d="M313.5,215.7c0.3,0,0.5,0.2,0.5,0.5c0,0.3-0.2,0.5-0.5,0.5c-0.3,0-0.5-0.2-0.5-0.5
					C313,216,313.2,215.7,313.5,215.7z M313.5,216.6c0.2,0,0.3-0.2,0.3-0.3s-0.2-0.3-0.3-0.3c-0.2,0-0.3,0.2-0.3,0.3
					S313.3,216.6,313.5,216.6z"/>
				<path fill="#3C4352" d="M314.3,215.8C314.3,215.8,314.3,215.7,314.3,215.8l0.4,0c0.2,0,0.3,0.1,0.3,0.3c0,0.1-0.1,0.2-0.2,0.3
					l0.2,0.4c0,0,0,0,0,0h-0.2c0,0,0,0,0,0l-0.2-0.4h-0.2v0.4c0,0,0,0,0,0h-0.1c0,0,0,0,0,0V215.8z M314.7,216.2
					c0.1,0,0.1-0.1,0.1-0.1c0-0.1-0.1-0.1-0.1-0.1h-0.2v0.3H314.7z"/>
				<path fill="#3C4352" d="M315.3,216.6L315.3,216.6c0.1-0.1,0.1-0.1,0.1-0.1c0,0,0.1,0.1,0.2,0.1c0.1,0,0.1-0.1,0.1-0.1
					c0-0.1-0.1-0.1-0.2-0.2c-0.1-0.1-0.3-0.1-0.3-0.3c0-0.1,0.1-0.3,0.3-0.3c0.1,0,0.3,0.1,0.3,0.1c0,0,0,0,0,0l-0.1,0.1
					c0,0,0,0-0.1,0c0,0-0.1-0.1-0.2-0.1c-0.1,0-0.1,0.1-0.1,0.1c0,0.1,0.1,0.1,0.2,0.2c0.1,0.1,0.3,0.1,0.3,0.3
					c0,0.2-0.1,0.3-0.3,0.3C315.4,216.8,315.3,216.7,315.3,216.6C315.3,216.7,315.3,216.7,315.3,216.6z"/>
			</g>
		</g>
		<g>
			<path fill="none" stroke="#3C4352" stroke-width="0.5" stroke-miterlimit="10" d="M267.2,216.6c-0.3,0-0.6-0.3-0.6-0.6
				s0.3-0.6,0.6-0.6c0.3,0,0.6,0.3,0.6,0.6C267.7,216.4,267.5,216.6,267.2,216.6z"/>
			<g>
				<path fill="#3C4352" d="M269.8,215.6c0.1,0,0.2,0,0.3,0.1l0,0l-0.1,0.1h0l-0.2-0.1c-0.2,0-0.3,0.1-0.3,0.3
					c0,0.2,0.1,0.3,0.3,0.3l0.2-0.1h0l0.1,0.1l0,0c-0.1,0.1-0.2,0.1-0.3,0.1c-0.3,0-0.5-0.2-0.5-0.5
					C269.3,215.8,269.5,215.6,269.8,215.6L269.8,215.6z M270.7,215.6c0.3,0,0.5,0.2,0.5,0.5c0,0.3-0.2,0.5-0.5,0.5
					c-0.3,0-0.5-0.2-0.5-0.5C270.3,215.8,270.5,215.6,270.7,215.6z M270.7,216.4c0.2,0,0.3-0.1,0.3-0.3s-0.1-0.3-0.3-0.3
					s-0.3,0.1-0.3,0.3S270.6,216.4,270.7,216.4z M271.4,215.6L271.4,215.6L271.4,215.6l0.6,0.5h0v-0.5l0,0h0.1l0,0v0.9l0,0h0
					l-0.5-0.6h0v0.5l0,0h-0.1l0,0L271.4,215.6L271.4,215.6z M272.3,215.7L272.3,215.7l0.2,0l0,0l0.2,0.5h0l0.2-0.5l0,0h0.1l0,0
					l-0.4,0.9l0,0h0l0,0L272.3,215.7L272.3,215.7z M273.4,215.7L273.4,215.7l0.5,0l0,0v0.1l0,0h-0.4v0.2h0.3l0,0v0.1l0,0h-0.3v0.2
					h0.4l0,0v0.1l0,0h-0.5l0,0V215.7z M274.2,215.7L274.2,215.7l0.4,0c0.2,0,0.3,0.1,0.3,0.3c0,0.1-0.1,0.2-0.2,0.3l0.2,0.3l0,0
					h-0.1l0,0l-0.2-0.3h-0.1v0.3l0,0h-0.1l0,0V215.7z M274.6,216c0.1,0,0.1-0.1,0.1-0.1c0-0.1-0.1-0.1-0.1-0.1h-0.2v0.3H274.6z
					 M275,216.4L275,216.4L275,216.4l0.3,0c0.1,0,0.1,0,0.1-0.1c0-0.1-0.1-0.1-0.2-0.2c-0.1,0-0.2-0.1-0.2-0.3
					c0-0.1,0.1-0.2,0.3-0.2c0.1,0,0.2,0.1,0.3,0.1l0,0l0,0.1l0,0l-0.2-0.1c-0.1,0-0.1,0-0.1,0.1c0,0.1,0,0.1,0.2,0.1
					c0.1,0,0.3,0.1,0.3,0.3c0,0.1-0.1,0.3-0.3,0.3C275.2,216.5,275.1,216.5,275,216.4L275,216.4L275,216.4z M275.8,215.7
					L275.8,215.7l0.1,0l0,0v0.8l0,0h-0.1l0,0V215.7z M276.7,215.6c0.3,0,0.5,0.2,0.5,0.5c0,0.3-0.2,0.5-0.5,0.5
					c-0.3,0-0.5-0.2-0.5-0.5C276.2,215.8,276.4,215.6,276.7,215.6z M276.7,216.4c0.2,0,0.3-0.1,0.3-0.3s-0.1-0.3-0.3-0.3
					s-0.3,0.1-0.3,0.3S276.5,216.4,276.7,216.4z M277.4,215.6L277.4,215.6L277.4,215.6l0.6,0.5h0v-0.5l0,0h0.1l0,0v0.9l0,0h0
					l-0.5-0.6h0v0.5l0,0h-0.1l0,0V215.6z M278.8,215.7L278.8,215.7l0.4,0c0.2,0,0.3,0.1,0.3,0.3c0,0.1-0.1,0.2-0.2,0.3l0.2,0.3l0,0
					h-0.1l0,0l-0.2-0.3H279v0.3l0,0h-0.1l0,0V215.7z M279.2,216c0.1,0,0.1-0.1,0.1-0.1c0-0.1-0.1-0.1-0.1-0.1H279v0.3H279.2z
					 M279.6,216.5l0.4-0.9l0,0h0l0,0l0.4,0.9l0,0h-0.1l0,0l-0.1-0.1h-0.4l-0.1,0.1l0,0L279.6,216.5L279.6,216.5L279.6,216.5z
					 M280.1,216.2l-0.1-0.3h0l-0.1,0.3H280.1L280.1,216.2z M280.7,215.8h-0.2l0,0v-0.1l0,0h0.6l0,0v0.1l0,0h-0.2v0.7l0,0h-0.1l0,0
					L280.7,215.8L280.7,215.8z M281.3,215.7L281.3,215.7l0.5,0l0,0v0.1l0,0h-0.4v0.2h0.3l0,0v0.1l0,0h-0.3v0.2h0.4l0,0v0.1l0,0h-0.5
					l0,0V215.7z"/>
			</g>
			<g>
				<path fill="#8BC541" d="M269.5,227l-0.8,0.6c-0.1,0.1-0.2,0.1-0.2,0l-0.2-0.2c-0.1-0.1,0-0.2,0-0.2l1.5-1.4h0.3
					c0.1,0,0.2,0.1,0.2,0.2v6.8c0,0.1-0.1,0.2-0.2,0.2h-0.4c-0.1,0-0.2-0.1-0.2-0.2V227z M271.9,232.4l2.6-2.8
					c0.7-0.8,1.1-1.4,1.1-1.9c0-0.6-0.4-1.4-1.5-1.4c-0.7,0-1.2,0.4-1.5,0.8c-0.1,0.1-0.2,0.1-0.3,0l-0.2-0.2
					c-0.1-0.1-0.1-0.2,0-0.3c0,0,0.8-1,2-1c1.5,0,2.3,1,2.3,2.1c0,0.9-0.6,1.6-1.3,2.4l-2,2.2h3.1c0.1,0,0.2,0.1,0.2,0.2v0.3
					c0,0.1-0.1,0.2-0.2,0.2h-4c-0.1,0-0.2-0.1-0.2-0.2L271.9,232.4L271.9,232.4z M278.1,231.8c0.3,0,0.6,0.3,0.6,0.6
					c0,0.3-0.3,0.6-0.6,0.6c-0.3,0-0.6-0.3-0.6-0.6C277.5,232,277.8,231.8,278.1,231.8z M279.8,232.4l2.6-2.8
					c0.7-0.8,1.1-1.4,1.1-1.9c0-0.6-0.4-1.4-1.5-1.4c-0.7,0-1.2,0.4-1.5,0.8c-0.1,0.1-0.2,0.1-0.3,0l-0.2-0.2
					c-0.1-0.1-0.1-0.2,0-0.3c0,0,0.8-1,2-1c1.5,0,2.3,1,2.3,2.1c0,0.9-0.6,1.6-1.3,2.4l-2,2.2h3.1c0.1,0,0.2,0.1,0.2,0.2v0.3
					c0,0.1-0.1,0.2-0.2,0.2h-4c-0.1,0-0.2-0.1-0.2-0.2L279.8,232.4L279.8,232.4z M285.4,231.8l0.3-0.2c0.1-0.1,0.2-0.1,0.3,0.1
					c0.1,0.1,0.7,0.7,1.6,0.7c0.8,0,1.5-0.5,1.5-1.3c0-0.7-0.6-1.4-1.9-1.4h-0.6c-0.1,0-0.2-0.1-0.2-0.2v-0.3c0-0.2,0.1-0.2,0.2-0.2
					h0.6c1.1,0,1.7-0.6,1.7-1.3c0-0.8-0.6-1.4-1.4-1.4c-0.7,0-1.2,0.4-1.4,0.7c-0.1,0.1-0.2,0.1-0.3,0l-0.3-0.2
					c-0.1-0.1-0.1-0.2,0-0.3c0,0,0.8-0.9,1.9-0.9c1.3,0,2.2,0.8,2.2,1.9c0,0.8-0.6,1.5-1.1,1.7v0c0.5,0.2,1.3,0.8,1.3,1.7
					c0,1.2-0.9,2.1-2.4,2.1c-1.3,0-1.9-0.7-2.1-0.9C285.3,232,285.3,231.8,285.4,231.8L285.4,231.8z"/>
			</g>
			<g>
				<path fill="#3C4352" d="M275.4,239.7l0.8-0.9c0.2-0.3,0.3-0.5,0.3-0.6c0-0.2-0.1-0.4-0.5-0.4c-0.2,0-0.4,0.1-0.5,0.3h-0.1
					l-0.1-0.1l0-0.1c0,0,0.2-0.3,0.7-0.3c0.5,0,0.7,0.3,0.7,0.7c0,0.3-0.2,0.5-0.4,0.8l-0.7,0.7h1l0.1,0.1v0.1l-0.1,0.1h-1.3
					l-0.1-0.1L275.4,239.7L275.4,239.7z M277.3,239.8l1-2h-1.1l-0.1-0.1v-0.1l0.1-0.1h1.4l0.1,0.1v0l-1,2.2l-0.1,0.1h-0.1
					L277.3,239.8L277.3,239.8z M279.1,239.5c0.1,0,0.2,0.1,0.2,0.2c0,0.1-0.1,0.2-0.2,0.2c-0.1,0-0.2-0.1-0.2-0.2
					C278.9,239.6,278.9,239.5,279.1,239.5z M279.9,239.7c0.2-0.1,0.8-0.4,0.9-0.9c0,0-0.2,0.2-0.5,0.2c-0.4,0-0.7-0.3-0.7-0.7
					c0-0.4,0.3-0.8,0.8-0.8c0.6,0,0.8,0.4,0.8,1c0,0.9-0.8,1.3-1.1,1.5l-0.1,0l0-0.1L279.9,239.7L279.9,239.7z M280.8,238.6
					c0.1-0.3-0.1-0.9-0.5-0.9c-0.3,0-0.5,0.3-0.5,0.5c0,0.3,0.2,0.5,0.5,0.5C280.6,238.8,280.8,238.6,280.8,238.6L280.8,238.6z
					 M281.4,239.5L281.4,239.5l0.2-0.1c0,0,0.2,0.2,0.5,0.2c0.3,0,0.5-0.2,0.5-0.4c0-0.2-0.2-0.5-0.6-0.5h-0.2l-0.1-0.1v-0.1
					l0.1-0.1h0.2c0.4,0,0.5-0.2,0.5-0.4c0-0.3-0.2-0.4-0.4-0.4c-0.2,0-0.4,0.1-0.5,0.2l-0.1,0l-0.1-0.1v-0.1c0,0,0.2-0.3,0.6-0.3
					c0.4,0,0.7,0.2,0.7,0.6c0,0.3-0.2,0.5-0.4,0.5v0c0.2,0.1,0.4,0.3,0.4,0.6c0,0.4-0.3,0.7-0.8,0.7
					C281.7,239.9,281.5,239.7,281.4,239.5L281.4,239.5L281.4,239.5z M283.2,237.9c0-0.3,0.2-0.5,0.5-0.5c0.3,0,0.5,0.2,0.5,0.5
					s-0.2,0.5-0.5,0.5C283.4,238.4,283.2,238.2,283.2,237.9z M283.9,237.9c0-0.1-0.1-0.3-0.3-0.3c-0.2,0-0.3,0.1-0.3,0.3
					c0,0.2,0.1,0.3,0.3,0.3C283.8,238.2,283.9,238.1,283.9,237.9z M284.7,237.5L284.7,237.5l0.1,0l0.1,0.1l-1.2,2.3l-0.1,0h0
					l-0.1-0.1L284.7,237.5L284.7,237.5z M284.7,239c0.3,0,0.5,0.2,0.5,0.5c0,0.3-0.2,0.5-0.5,0.5c-0.3,0-0.5-0.2-0.5-0.5
					C284.3,239.2,284.5,239,284.7,239z M284.7,239.7c0.1,0,0.3-0.1,0.3-0.3c0-0.1-0.1-0.3-0.3-0.3c-0.2,0-0.3,0.1-0.3,0.3
					C284.5,239.6,284.6,239.7,284.7,239.7z"/>
			</g>
			<path fill="none" stroke="#3C4352" stroke-miterlimit="10" d="M270.5,241.2c-0.3,0-0.7-0.2-0.9-0.5l-1.5-2.7
				c-0.2-0.3-0.2-0.7,0-1c0.2-0.3,0.5-0.5,0.9-0.5h3c0.4,0,0.7,0.2,0.9,0.5c0.2,0.3,0.2,0.7,0,1l-1.5,2.7
				C271.1,241,270.8,241.2,270.5,241.2L270.5,241.2z"/>
			<g>
				<path fill="none" stroke="#8BC541" stroke-miterlimit="10" d="M295.5,247h-30.9c-0.3,0-0.6-0.3-0.6-0.6v-32.8
					c0-0.3,0.3-0.6,0.6-0.6h30.9c0.3,0,0.6,0.3,0.6,0.6v32.8C296.1,246.7,295.8,247,295.5,247z"/>
				<line fill="none" stroke="#8BC541" stroke-miterlimit="10" x1="263.9" y1="219" x2="296" y2="219"/>
			</g>
		</g>
		<g>
			<g>
				<path fill="#3C4352" d="M269.3,178.5L269.3,178.5l0.2,0l0,0l0.2,0.5h0l0.2-0.5l0,0h0.1l0,0l-0.4,0.9l0,0h0l0,0L269.3,178.5z
					 M270.4,178.5L270.4,178.5l0.1,0l0,0v0.8l0,0h-0.1l0,0V178.5z M270.8,179.2L270.8,179.2L270.8,179.2l0.3,0c0.1,0,0.1,0,0.1-0.1
					c0-0.1-0.1-0.1-0.2-0.2c-0.1,0-0.2-0.1-0.2-0.3c0-0.1,0.1-0.2,0.3-0.2c0.1,0,0.2,0.1,0.3,0.1l0,0l0,0.1l0,0l-0.2-0.1
					c-0.1,0-0.1,0-0.1,0.1c0,0.1,0,0.1,0.2,0.1c0.1,0,0.3,0.1,0.3,0.3c0,0.1-0.1,0.3-0.3,0.3C270.9,179.4,270.8,179.3,270.8,179.2
					L270.8,179.2z M271.6,178.5L271.6,178.5l0.1,0l0,0v0.8l0,0h-0.1l0,0V178.5z M272.1,178.6H272l0,0v-0.1l0,0h0.6l0,0v0.1l0,0h-0.2
					v0.7l0,0h-0.1l0,0V178.6z M273.1,178.5c0.3,0,0.5,0.2,0.5,0.5c0,0.3-0.2,0.5-0.5,0.5c-0.3,0-0.5-0.2-0.5-0.5
					C272.7,178.7,272.9,178.5,273.1,178.5z M273.1,179.2c0.2,0,0.3-0.1,0.3-0.3s-0.1-0.3-0.3-0.3s-0.3,0.1-0.3,0.3
					S273,179.2,273.1,179.2z M273.8,178.5L273.8,178.5l0.4,0c0.2,0,0.3,0.1,0.3,0.3c0,0.1-0.1,0.2-0.2,0.3l0.2,0.3l0,0h-0.1l0,0
					l-0.2-0.3H274v0.3l0,0h-0.1l0,0V178.5z M274.2,178.9c0.1,0,0.1-0.1,0.1-0.1c0-0.1-0.1-0.1-0.1-0.1H274v0.3H274.2z M274.7,179.2
					L274.7,179.2L274.7,179.2l0.3,0c0.1,0,0.1,0,0.1-0.1c0-0.1-0.1-0.1-0.2-0.2c-0.1,0-0.2-0.1-0.2-0.3c0-0.1,0.1-0.2,0.3-0.2
					c0.1,0,0.2,0.1,0.3,0.1l0,0l0,0.1l0,0l-0.2-0.1c-0.1,0-0.1,0-0.1,0.1c0,0.1,0,0.1,0.2,0.1c0.1,0,0.3,0.1,0.3,0.3
					c0,0.1-0.1,0.3-0.3,0.3C274.8,179.4,274.7,179.3,274.7,179.2L274.7,179.2L274.7,179.2z"/>
			</g>
			<path fill="none" stroke="#8BC541" stroke-miterlimit="10" d="M331.6,209.7h-66.9c-0.3,0-0.6-0.3-0.6-0.6v-32.9
				c0-0.3,0.3-0.6,0.6-0.6h66.9c0.3,0,0.6,0.3,0.6,0.6v32.9C332.3,209.5,332,209.7,331.6,209.7z"/>
			<g>
				<path fill="#3C4352" d="M270.3,194.3l2.6-2.8c0.7-0.8,1.1-1.4,1.1-1.9c0-0.6-0.4-1.4-1.5-1.4c-0.7,0-1.2,0.4-1.5,0.8
					c-0.1,0.1-0.2,0.1-0.3,0l-0.2-0.2c-0.1-0.1-0.1-0.2,0-0.3c0,0,0.8-1,2-1c1.5,0,2.3,1,2.3,2.1c0,0.9-0.6,1.6-1.3,2.4l-2,2.2h3.1
					c0.1,0,0.2,0.1,0.2,0.2v0.3c0,0.1-0.1,0.2-0.2,0.2h-4c-0.1,0-0.2-0.1-0.2-0.2V194.3L270.3,194.3z M276.3,194.5l3-6.2h-3.5
					c-0.1,0-0.2-0.1-0.2-0.2v-0.3c0-0.1,0.1-0.2,0.2-0.2h4.3c0.1,0,0.2,0.1,0.2,0.2v0.1l-3.1,6.7c0,0.1-0.1,0.3-0.4,0.3h-0.3
					c-0.1,0-0.2-0.1-0.2-0.2L276.3,194.5L276.3,194.5z M281.6,193.7c0.3,0,0.7,0.2,0.7,1c0,0.9-0.6,1.6-0.9,2
					c-0.1,0.1-0.2,0.1-0.3,0l-0.1-0.1c-0.1-0.1,0-0.2,0.1-0.3c0.1-0.1,0.7-0.6,0.7-1.3l-0.1,0c-0.3,0-0.6-0.3-0.6-0.6
					C281,194,281.3,193.7,281.6,193.7z M284.2,194.3c0.5-0.2,2.4-1.2,2.7-2.6c0,0-0.7,0.5-1.6,0.5c-1.2,0-2.3-0.9-2.3-2.3
					c0-1.3,1.1-2.4,2.3-2.4c1.7,0,2.5,1.3,2.5,3c0,2.8-2.4,4.1-3.5,4.6c-0.1,0-0.2,0-0.2-0.1l-0.1-0.3
					C284,194.5,284,194.4,284.2,194.3z M287.1,190.8c0.2-1.1-0.2-2.7-1.7-2.7c-0.9,0-1.6,0.8-1.6,1.7c0,0.9,0.7,1.7,1.6,1.7
					C286.4,191.5,287.1,190.8,287.1,190.8z M289.2,191.2c0-2.3,0.9-3.7,2.6-3.7s2.6,1.4,2.6,3.7c0,2.3-0.9,3.7-2.6,3.7
					S289.2,193.5,289.2,191.2z M293.6,191.2c0-1.9-0.7-3-1.8-3c-1.2,0-1.8,1.1-1.8,3c0,1.9,0.7,3,1.8,3
					C293,194.2,293.6,193.1,293.6,191.2z M295.6,194.3l2.6-2.8c0.7-0.8,1.1-1.4,1.1-1.9c0-0.6-0.4-1.4-1.5-1.4
					c-0.7,0-1.2,0.4-1.5,0.8c-0.1,0.1-0.2,0.1-0.3,0l-0.2-0.2c-0.1-0.1-0.1-0.2,0-0.3c0,0,0.8-1,2-1c1.5,0,2.3,1,2.3,2.1
					c0,0.9-0.6,1.6-1.3,2.4l-2,2.2h3.1c0.1,0,0.2,0.1,0.2,0.2v0.3c0,0.1-0.1,0.2-0.2,0.2h-4c-0.1,0-0.2-0.1-0.2-0.2L295.6,194.3
					L295.6,194.3z"/>
			</g>
			<g>
				<path fill="#8BC541" d="M270.2,199.8L270.2,199.8l0.8-0.1c0.4,0,0.7,0.3,0.7,0.7c0,0.4-0.3,0.7-0.7,0.7h-0.5v0.8l-0.1,0.1h-0.1
					l-0.1-0.1L270.2,199.8L270.2,199.8z M270.9,201c0.3,0,0.5-0.2,0.5-0.5c0-0.3-0.2-0.5-0.5-0.5h-0.5v1H270.9z M271.8,201.9l1-2.2
					l0.1,0h0l0.1,0l1,2.2l-0.1,0.1h-0.1l-0.1,0l-0.2-0.5h-1.1l-0.2,0.5l-0.1,0L271.8,201.9L271.8,201.9z M273.4,201.3l-0.5-1.1h0
					l-0.5,1.1H273.4z M274.3,201.7L274.3,201.7l0.2-0.1c0,0,0.3,0.2,0.5,0.2c0.3,0,0.4-0.2,0.4-0.4c0-0.2-0.2-0.4-0.6-0.5
					c-0.4-0.2-0.6-0.3-0.6-0.7c0-0.2,0.2-0.6,0.7-0.6c0.3,0,0.5,0.2,0.5,0.2l0,0.1l0,0.1l-0.1,0c0,0-0.2-0.1-0.4-0.1
					c-0.3,0-0.4,0.2-0.4,0.4c0,0.2,0.2,0.3,0.4,0.5c0.4,0.2,0.7,0.3,0.7,0.7c0,0.3-0.3,0.6-0.7,0.6c-0.4,0-0.6-0.2-0.7-0.3
					L274.3,201.7L274.3,201.7z M276.6,200h-0.6l-0.1-0.1v-0.1l0.1-0.1h1.4l0.1,0.1v0.1l-0.1,0.1h-0.6v2l-0.1,0.1h-0.1l-0.1-0.1
					L276.6,200L276.6,200z M278.7,201.7L278.7,201.7l0.2-0.1c0,0,0.2,0.2,0.5,0.2c0.2,0,0.5-0.1,0.5-0.4c0-0.2-0.2-0.4-0.6-0.4h-0.2
					L279,201v-0.1l0.1-0.1h0.2c0.3,0,0.5-0.2,0.5-0.4c0-0.3-0.2-0.4-0.4-0.4c-0.2,0-0.3,0.1-0.4,0.2l-0.1,0l-0.1-0.1v-0.1
					c0,0,0.2-0.3,0.6-0.3c0.4,0,0.7,0.2,0.7,0.6c0,0.2-0.2,0.4-0.3,0.5v0c0.2,0.1,0.4,0.2,0.4,0.5c0,0.3-0.3,0.6-0.7,0.6
					C278.9,202.1,278.8,201.9,278.7,201.7L278.7,201.7L278.7,201.7z M280.6,200.9c0-0.7,0.3-1.1,0.8-1.1c0.5,0,0.8,0.4,0.8,1.1
					c0,0.7-0.3,1.1-0.8,1.1C280.9,202.1,280.6,201.6,280.6,200.9z M282,200.9c0-0.6-0.2-0.9-0.6-0.9c-0.4,0-0.6,0.3-0.6,0.9
					c0,0.6,0.2,0.9,0.6,0.9C281.8,201.9,282,201.5,282,200.9z M283.8,199.8L283.8,199.8l0.8-0.1c0.6,0,1.1,0.5,1.1,1.1
					c0,0.6-0.5,1.1-1.1,1.1h-0.7l-0.1-0.1V199.8z M284.5,201.8c0.5,0,0.9-0.4,0.9-0.9c0-0.5-0.4-0.9-0.9-0.9H284v1.8L284.5,201.8
					L284.5,201.8z M286,201.9l1-2.2l0.1,0h0l0.1,0l1,2.2L288,202h-0.1l-0.1,0l-0.2-0.5h-1.1l-0.2,0.5l-0.1,0L286,201.9L286,201.9z
					 M287.5,201.3l-0.5-1.1h0l-0.5,1.1H287.5z M288.9,200.9l-0.8-1.1l0.1-0.1h0.2l0.1,0l0.6,0.9l0.6-0.9l0.1,0h0.2l0.1,0.1l-0.8,1.1
					v1l-0.1,0.1H289l-0.1-0.1L288.9,200.9L288.9,200.9z M290.3,201.7L290.3,201.7l0.2-0.1c0,0,0.3,0.2,0.5,0.2
					c0.3,0,0.4-0.2,0.4-0.4c0-0.2-0.2-0.4-0.6-0.5c-0.4-0.2-0.6-0.3-0.6-0.7c0-0.2,0.2-0.6,0.7-0.6c0.3,0,0.5,0.2,0.5,0.2l0,0.1
					l0,0.1l-0.1,0c0,0-0.2-0.1-0.4-0.1c-0.3,0-0.4,0.2-0.4,0.4c0,0.2,0.2,0.3,0.4,0.5c0.4,0.2,0.7,0.3,0.7,0.7
					c0,0.3-0.3,0.6-0.7,0.6c-0.4,0-0.6-0.2-0.7-0.3L290.3,201.7L290.3,201.7z"/>
			</g>
			<line fill="none" stroke="#8BC541" stroke-miterlimit="10" x1="264.2" y1="181.8" x2="332.2" y2="181.8"/>
			<path fill="none" stroke="#3C4352" stroke-width="0.5" stroke-miterlimit="10" d="M267.3,179.4c-0.3,0-0.6-0.3-0.6-0.6
				c0-0.3,0.3-0.6,0.6-0.6c0.3,0,0.6,0.3,0.6,0.6C267.9,179.2,267.6,179.4,267.3,179.4z"/>
		</g>
		<g>
			<g>
				<g>
					<path fill="#3B4251" d="M233.3,178.8L233.3,178.8C233.3,178.8,233.3,178.8,233.3,178.8c0.1-0.1,0.2,0,0.3,0
						c0.1,0,0.1,0,0.1-0.1c0-0.1,0-0.1-0.1-0.1c-0.1,0-0.2-0.1-0.2-0.2c0-0.1,0.1-0.2,0.3-0.2c0.1,0,0.2,0.1,0.2,0.1c0,0,0,0,0,0
						l0,0.1c0,0,0,0,0,0c0,0-0.1-0.1-0.2-0.1c-0.1,0-0.1,0-0.1,0.1c0,0.1,0,0.1,0.1,0.1c0.1,0,0.2,0.1,0.2,0.3
						c0,0.1-0.1,0.2-0.3,0.2C233.4,179,233.3,178.9,233.3,178.8C233.2,178.9,233.2,178.9,233.3,178.8z M233.9,178.9l0.4-0.8
						c0,0,0,0,0,0h0c0,0,0,0,0,0l0.4,0.8c0,0,0,0,0,0h-0.1c0,0,0,0,0,0l-0.1-0.1h-0.3l-0.1,0.1c0,0,0,0,0,0L233.9,178.9
						C233.9,178.9,233.9,178.9,233.9,178.9z M234.4,178.7l-0.1-0.3h0l-0.1,0.3H234.4z M234.8,178.2
						C234.8,178.2,234.8,178.1,234.8,178.2l0.1,0c0,0,0,0,0,0v0.6h0.3c0,0,0,0,0,0v0.1c0,0,0,0,0,0h-0.4c0,0,0,0,0,0L234.8,178.2
						L234.8,178.2z M235.4,178.2C235.4,178.2,235.4,178.1,235.4,178.2l0.5,0c0,0,0,0,0,0v0.1c0,0,0,0,0,0h-0.3v0.2h0.3c0,0,0,0,0,0
						v0.1c0,0,0,0,0,0h-0.3v0.2h0.3c0,0,0,0,0,0v0.1c0,0,0,0,0,0h-0.5c0,0,0,0,0,0V178.2z M236.1,178.8L236.1,178.8
						C236.2,178.8,236.2,178.8,236.1,178.8c0.1-0.1,0.2,0,0.3,0c0.1,0,0.1,0,0.1-0.1c0-0.1,0-0.1-0.1-0.1c-0.1,0-0.2-0.1-0.2-0.2
						c0-0.1,0.1-0.2,0.3-0.2c0.1,0,0.2,0.1,0.2,0.1c0,0,0,0,0,0l0,0.1c0,0,0,0,0,0c0,0-0.1-0.1-0.2-0.1c-0.1,0-0.1,0-0.1,0.1
						c0,0.1,0,0.1,0.1,0.1c0.1,0,0.2,0.1,0.2,0.3c0,0.1-0.1,0.2-0.3,0.2C236.2,179,236.2,178.9,236.1,178.8
						C236.1,178.9,236.1,178.9,236.1,178.8z"/>
				</g>
				<g>
					<path fill="#8CC640" d="M231.4,192C231.4,192,231.4,192,231.4,192l0.4,0c0.2,0,0.3,0.2,0.3,0.3c0,0.2-0.2,0.3-0.3,0.3h-0.2v0.4
						c0,0,0,0,0,0h-0.1c0,0,0,0,0,0V192z M231.7,192.5c0.1,0,0.2-0.1,0.2-0.2c0-0.1-0.1-0.2-0.2-0.2h-0.2v0.4H231.7z M232.2,193
						l0.5-1c0,0,0,0,0,0h0c0,0,0,0,0,0l0.5,1c0,0,0,0,0,0h-0.1c0,0,0,0,0,0l-0.1-0.2h-0.5l-0.1,0.2C232.3,193,232.3,193,232.2,193
						L232.2,193C232.2,193,232.2,193,232.2,193L232.2,193z M232.9,192.7l-0.2-0.5h0l-0.2,0.5H232.9z M233.3,192.9L233.3,192.9
						C233.4,192.8,233.4,192.8,233.3,192.9c0.1,0,0.2,0.1,0.3,0.1c0.1,0,0.2-0.1,0.2-0.2c0-0.1-0.1-0.2-0.3-0.2
						c-0.2-0.1-0.3-0.1-0.3-0.3c0-0.1,0.1-0.3,0.3-0.3c0.1,0,0.3,0.1,0.3,0.1c0,0,0,0,0,0.1l0,0c0,0,0,0-0.1,0c0,0-0.1-0.1-0.2-0.1
						c-0.2,0-0.2,0.1-0.2,0.2c0,0.1,0.1,0.2,0.2,0.2c0.2,0.1,0.3,0.2,0.3,0.3c0,0.2-0.1,0.3-0.3,0.3
						C233.5,193,233.3,192.9,233.3,192.9C233.3,192.9,233.3,192.9,233.3,192.9L233.3,192.9z M234.4,192.1h-0.3c0,0,0,0,0,0v0
						c0,0,0,0,0,0h0.6c0,0,0,0,0,0v0c0,0,0,0,0,0h-0.3v0.9c0,0,0,0,0,0h-0.1c0,0,0,0,0,0V192.1z M235.4,192.9L235.4,192.9
						C235.5,192.8,235.5,192.8,235.4,192.9c0.1,0,0.2,0.1,0.3,0.1c0.1,0,0.2-0.1,0.2-0.2c0-0.1-0.1-0.2-0.3-0.2h-0.1c0,0,0,0,0,0v0
						c0,0,0,0,0,0h0.1c0.2,0,0.2-0.1,0.2-0.2c0-0.1-0.1-0.2-0.2-0.2c-0.1,0-0.2,0.1-0.2,0.1c0,0,0,0,0,0l0,0c0,0,0,0,0,0
						c0,0,0.1-0.1,0.3-0.1c0.2,0,0.3,0.1,0.3,0.3c0,0.1-0.1,0.2-0.2,0.2v0c0.1,0,0.2,0.1,0.2,0.2c0,0.2-0.1,0.3-0.3,0.3
						C235.5,193,235.4,192.9,235.4,192.9C235.4,192.9,235.4,192.9,235.4,192.9L235.4,192.9z M236.3,192.5c0-0.3,0.1-0.5,0.4-0.5
						c0.2,0,0.4,0.2,0.4,0.5c0,0.3-0.1,0.5-0.4,0.5C236.4,193,236.3,192.8,236.3,192.5z M236.9,192.5c0-0.3-0.1-0.4-0.3-0.4
						s-0.3,0.2-0.3,0.4c0,0.3,0.1,0.4,0.3,0.4S236.9,192.8,236.9,192.5z M237.8,192C237.8,192,237.8,192,237.8,192l0.4,0
						c0.3,0,0.5,0.2,0.5,0.5c0,0.3-0.2,0.5-0.5,0.5h-0.3c0,0,0,0,0,0V192L237.8,192z M238.1,192.9c0.2,0,0.4-0.2,0.4-0.4
						c0-0.2-0.2-0.4-0.4-0.4h-0.2v0.9H238.1z M238.9,193l0.5-1c0,0,0,0,0,0h0c0,0,0,0,0,0l0.5,1c0,0,0,0,0,0h-0.1c0,0,0,0,0,0
						l-0.1-0.2h-0.5L239,193C239,193,239,193,238.9,193L238.9,193C238.9,193,238.8,193,238.9,193z M239.6,192.7l-0.2-0.5h0l-0.2,0.5
						H239.6z M240.2,192.5l-0.4-0.5c0,0,0,0,0,0h0.1c0,0,0,0,0,0l0.3,0.4l0.3-0.4c0,0,0,0,0,0h0.1c0,0,0,0,0,0l-0.4,0.5v0.5
						c0,0,0,0,0,0h-0.1c0,0,0,0,0,0L240.2,192.5L240.2,192.5z M240.9,192.9L240.9,192.9C240.9,192.8,240.9,192.8,240.9,192.9
						c0.1,0,0.2,0.1,0.3,0.1c0.1,0,0.2-0.1,0.2-0.2c0-0.1-0.1-0.2-0.3-0.2c-0.2-0.1-0.3-0.1-0.3-0.3c0-0.1,0.1-0.3,0.3-0.3
						c0.1,0,0.3,0.1,0.3,0.1c0,0,0,0,0,0.1l0,0c0,0,0,0-0.1,0c0,0-0.1-0.1-0.2-0.1c-0.2,0-0.2,0.1-0.2,0.2c0,0.1,0.1,0.2,0.2,0.2
						c0.2,0.1,0.3,0.2,0.3,0.3c0,0.2-0.1,0.3-0.3,0.3C241,193,240.9,192.9,240.9,192.9C240.9,192.9,240.8,192.9,240.9,192.9
						L240.9,192.9z"/>
				</g>
				<path fill="#3B4251" d="M241.9,206.6h-1.1c0,0-0.1,0-0.1-0.1l-0.8-0.9c0,0,0,0,0,0l-0.9-1.8c0,0,0,0,0,0l-0.9-4.3l-0.8,4.8
					c0,0,0,0.1-0.1,0.1c0,0-0.1,0-0.1,0l-0.9-0.2l-0.9,2.3c0,0.1-0.1,0.1-0.2,0.1l-1-0.3c0,0-0.1,0-0.1-0.1l-1.8-2.6l-0.8,0.7
					c0,0-0.1,0-0.1,0c0,0-0.1,0-0.1-0.1l-1.1-2.1c0-0.1,0-0.2,0.1-0.2c0.1,0,0.2,0,0.2,0.1l1,1.9l0.8-0.7c0,0,0.1,0,0.1,0
					c0,0,0.1,0,0.1,0.1l1.9,2.7l0.8,0.2l0.9-2.3c0-0.1,0.1-0.1,0.2-0.1l0.8,0.2l1-5.5c0-0.1,0.1-0.1,0.2-0.1h0
					c0.1,0,0.1,0.1,0.2,0.1l1,5.1l0.9,1.8l0.7,0.9h1l0.8-0.7c0,0,0.1,0,0.1,0l1.1,0.1l2.7-2.1c0,0,0.1,0,0.1,0c0,0,0.1,0,0.1,0.1
					l1,1.8l0.7-0.1l0.9-1.1l1.1-9.2c0-0.1,0.1-0.1,0.2-0.1h0c0.1,0,0.1,0.1,0.2,0.1l0.8,6.2l0.8-0.6l0.9-1.4c0-0.1,0.1-0.1,0.2-0.1
					c0.1,0,0.1,0.1,0.1,0.1l0.9,4.5l0.8,0.8l0.9-2.8c0-0.1,0.1-0.1,0.1-0.1l0.9,0c0.1,0,0.1,0,0.1,0.1l1.1,1.6c0,0.1,0,0.2,0,0.2
					c-0.1,0-0.2,0-0.2,0l-1-1.5l-0.7,0l-1,2.9c0,0.1-0.1,0.1-0.1,0.1c-0.1,0-0.1,0-0.1,0l-1-1c0,0,0,0,0-0.1l-0.9-4.2l-0.7,1.1
					c0,0,0,0,0,0l-1,0.8c0,0-0.1,0-0.2,0c-0.1,0-0.1-0.1-0.1-0.1l-0.7-5.2l-1,8c0,0,0,0.1,0,0.1l-1,1.2c0,0-0.1,0-0.1,0.1l-0.9,0.1
					c-0.1,0-0.1,0-0.2-0.1l-1-1.8l-2.6,2c0,0-0.1,0-0.1,0l-1.1-0.1l-0.8,0.7C241.9,206.6,241.9,206.6,241.9,206.6z"/>
				<path fill="none" stroke="#8BC541" stroke-miterlimit="10" d="M259.8,246.9h-30.9c-0.3,0-0.6-0.3-0.6-0.6v-70.2
					c0-0.3,0.3-0.6,0.6-0.6h30.9c0.3,0,0.6,0.3,0.6,0.6v70.2C260.4,246.6,260.1,246.9,259.8,246.9z"/>
				<line fill="none" stroke="#8BC541" stroke-miterlimit="10" x1="228.2" y1="211.7" x2="260" y2="211.7"/>
				<line fill="none" stroke="#8BC541" stroke-miterlimit="10" x1="228.6" y1="181.7" x2="260.5" y2="181.7"/>
			</g>
			<g>
				<path fill="#3B4251" d="M236.7,224.7c-0.1,0-0.1,0-0.1,0l-0.1-0.1c0,0,0-0.1,0-0.1"/>
			</g>
			<path fill="#3B4251" d="M241.9,240.8h-1.1c0,0-0.1,0-0.1-0.1l-0.8-0.9c0,0,0,0,0,0l-0.9-1.8c0,0,0,0,0,0l-0.9-4.3l-0.8,4.8
				c0,0,0,0.1-0.1,0.1c0,0-0.1,0-0.1,0l-0.9-0.2l-0.9,2.3c0,0.1-0.1,0.1-0.2,0.1l-1-0.3c0,0-0.1,0-0.1-0.1l-1.8-2.6l-0.8,0.7
				c0,0-0.1,0-0.1,0s-0.1,0-0.1-0.1l-1.1-2.1c0-0.1,0-0.2,0.1-0.2c0.1,0,0.2,0,0.2,0.1l1,1.9l0.8-0.7c0,0,0.1,0,0.1,0
				c0,0,0.1,0,0.1,0.1l1.9,2.7l0.8,0.2l0.9-2.3c0-0.1,0.1-0.1,0.2-0.1l0.8,0.2l1-5.5c0-0.1,0.1-0.1,0.2-0.1h0c0.1,0,0.1,0.1,0.2,0.1
				l1,5.1l0.9,1.8l0.7,0.9h1l0.8-0.7c0,0,0.1,0,0.1,0l1.1,0.1l2.7-2.1c0,0,0.1,0,0.1,0c0,0,0.1,0,0.1,0.1l1,1.8l0.7-0.1l0.9-1.1
				l1.1-9.2c0-0.1,0.1-0.1,0.2-0.1h0c0.1,0,0.1,0.1,0.2,0.1l0.8,6.2l0.8-0.6l0.9-1.4c0-0.1,0.1-0.1,0.2-0.1c0.1,0,0.1,0.1,0.1,0.1
				l0.9,4.5l0.8,0.8l0.9-2.8c0-0.1,0.1-0.1,0.1-0.1l0.9,0c0.1,0,0.1,0,0.1,0.1l1.1,1.6c0,0.1,0,0.2,0,0.2c-0.1,0-0.2,0-0.2,0l-1-1.5
				l-0.7,0l-1,2.9c0,0.1-0.1,0.1-0.1,0.1c-0.1,0-0.1,0-0.1,0l-1-1c0,0,0,0,0-0.1l-0.9-4.2l-0.7,1.1c0,0,0,0,0,0l-1,0.8
				c0,0-0.1,0-0.2,0c-0.1,0-0.1-0.1-0.1-0.1l-0.7-5.2l-1,8c0,0,0,0.1,0,0.1l-1,1.2c0,0-0.1,0-0.1,0.1l-0.9,0.1c-0.1,0-0.1,0-0.2-0.1
				l-1-1.8l-2.6,2c0,0-0.1,0-0.1,0l-1.1-0.1l-0.8,0.7C241.9,240.8,241.9,240.8,241.9,240.8z"/>
			<g>
				<path fill="#3C4352" d="M231.2,221c0,0,0.1-0.1,0.1-0.1c0,0,0.1-0.1,0.1,0c0.1,0.1,0.3,0.4,0.8,0.4c0.5,0,0.8-0.4,0.8-0.9
					c0-0.4-0.3-0.7-0.8-0.7h-0.8c-0.1,0-0.2-0.1-0.2-0.2v-1.4c0-0.1,0-0.1,0.1-0.1h1.6c0.1,0,0.1,0,0.1,0.1v0.2c0,0.1,0,0.1-0.1,0.1
					h-1.3v1h0.6c0.8,0,1.2,0.4,1.2,1.1c0,0.6-0.5,1.2-1.2,1.2c-0.6,0-0.9-0.3-1-0.4C231.2,221.1,231.2,221,231.2,221z"/>
				<path fill="#3C4352" d="M234.3,221c0.2,0,0.3,0.1,0.3,0.5c0,0.4-0.3,0.8-0.4,1c-0.1,0-0.1,0-0.1,0l-0.1-0.1c0,0,0-0.1,0-0.1
					c0.1,0,0.3-0.3,0.3-0.7c0,0,0,0-0.1,0c-0.2,0-0.3-0.1-0.3-0.3C234,221.1,234.1,221,234.3,221z"/>
				<path fill="#3C4352" d="M235.1,221l0.1-0.1c0.1,0,0.1,0,0.1,0c0,0.1,0.3,0.4,0.8,0.4c0.4,0,0.7-0.2,0.7-0.6
					c0-0.4-0.3-0.7-0.9-0.7h-0.3c-0.1,0-0.1,0-0.1-0.1v-0.1c0-0.1,0-0.1,0.1-0.1h0.3c0.6,0,0.8-0.3,0.8-0.6c0-0.4-0.3-0.7-0.7-0.7
					c-0.4,0-0.6,0.2-0.7,0.3c0,0-0.1,0.1-0.1,0l-0.1-0.1c0,0,0-0.1,0-0.1c0,0,0.4-0.5,0.9-0.5c0.6,0,1.1,0.4,1.1,0.9
					c0,0.4-0.3,0.7-0.5,0.8v0c0.2,0.1,0.6,0.4,0.6,0.8c0,0.6-0.4,1-1.2,1c-0.6,0-0.9-0.3-1-0.5C235.1,221.1,235.1,221,235.1,221z"/>
				<path fill="#3C4352" d="M238,219.7c0-1.1,0.5-1.8,1.3-1.8c0.8,0,1.3,0.7,1.3,1.8c0,1.1-0.5,1.8-1.3,1.8
					C238.5,221.6,238,220.9,238,219.7z M240.2,219.7c0-0.9-0.3-1.5-0.9-1.5s-0.9,0.5-0.9,1.5c0,0.9,0.3,1.5,0.9,1.5
					S240.2,220.7,240.2,219.7z"/>
				<path fill="#3C4352" d="M241,220.6v-0.2l2-2.5c0,0,0,0,0.1,0h0.1c0.1,0,0.1,0,0.1,0.1l0,2.4h0.4c0.1,0,0.1,0,0.1,0.1v0.1
					c0,0.1,0,0.1-0.1,0.1h-0.4v0.7c0,0.1,0,0.1-0.1,0.1H243c-0.1,0-0.1,0-0.1-0.1v-0.7L241,220.6C241.1,220.7,241,220.7,241,220.6z
					 M242.9,220.4v-1.8l-1.5,1.8H242.9z"/>
			</g>
			<g>
				<path fill="#8BC541" d="M231.4,224.1C231.4,224.1,231.4,224.1,231.4,224.1l0.4,0c0.2,0,0.4,0.2,0.4,0.4c0,0.2-0.2,0.4-0.4,0.4
					h-0.3v0.4c0,0,0,0,0,0h-0.1c0,0,0,0,0,0V224.1z M231.8,224.7c0.1,0,0.3-0.1,0.3-0.3c0-0.1-0.1-0.2-0.3-0.2h-0.3v0.5H231.8z"/>
				<path fill="#8BC541" d="M232.2,225.2l0.5-1.2c0,0,0,0,0,0h0c0,0,0,0,0,0l0.5,1.2c0,0,0,0,0,0h-0.1c0,0,0,0,0,0l-0.1-0.3h-0.6
					l-0.1,0.3C232.3,225.3,232.3,225.3,232.2,225.2L232.2,225.2C232.2,225.3,232.2,225.3,232.2,225.2z M233,224.9
					c-0.1-0.2-0.2-0.4-0.3-0.6h0l-0.3,0.6H233z"/>
				<path fill="#8BC541" d="M233.4,225.1C233.4,225.1,233.4,225.1,233.4,225.1C233.5,225,233.5,225,233.4,225.1
					c0.1,0,0.2,0.1,0.4,0.1c0.1,0,0.2-0.1,0.2-0.2c0-0.1-0.1-0.2-0.3-0.3c-0.2-0.1-0.3-0.2-0.3-0.4c0-0.1,0.1-0.3,0.4-0.3
					c0.2,0,0.3,0.1,0.3,0.1c0,0,0,0,0,0.1c0,0,0,0,0,0c0,0,0,0-0.1,0c0,0-0.1-0.1-0.2-0.1c-0.2,0-0.2,0.1-0.2,0.2
					c0,0.1,0.1,0.2,0.2,0.2c0.2,0.1,0.4,0.2,0.4,0.4c0,0.2-0.2,0.3-0.4,0.3C233.6,225.3,233.5,225.2,233.4,225.1
					C233.4,225.2,233.4,225.1,233.4,225.1z"/>
				<path fill="#8BC541" d="M234.6,224.2h-0.3c0,0,0,0,0,0v-0.1c0,0,0,0,0,0h0.7c0,0,0,0,0,0v0.1c0,0,0,0,0,0h-0.3v1.1c0,0,0,0,0,0
					h-0.1c0,0,0,0,0,0V224.2z"/>
				<path fill="#8BC541" d="M235.6,225.2l0.5-1h-0.6c0,0,0,0,0,0v-0.1c0,0,0,0,0,0h0.7c0,0,0,0,0,0v0l-0.5,1.1
					C235.8,225.3,235.7,225.3,235.6,225.2L235.6,225.2C235.6,225.3,235.6,225.3,235.6,225.2L235.6,225.2z"/>
				<path fill="#8BC541" d="M236.8,224.1C236.8,224.1,236.9,224.1,236.8,224.1l0.4,0c0.3,0,0.6,0.3,0.6,0.6c0,0.3-0.3,0.6-0.6,0.6
					h-0.4c0,0,0,0,0,0V224.1z M237.2,225.2c0.3,0,0.5-0.2,0.5-0.5c0-0.3-0.2-0.5-0.5-0.5H237v1H237.2z"/>
				<path fill="#8BC541" d="M238,225.2l0.5-1.2c0,0,0,0,0,0h0c0,0,0,0,0,0l0.5,1.2c0,0,0,0,0,0H239c0,0,0,0,0,0l-0.1-0.3h-0.6
					l-0.1,0.3C238.1,225.3,238.1,225.3,238,225.2L238,225.2C238,225.3,238,225.3,238,225.2z M238.8,224.9c-0.1-0.2-0.2-0.4-0.3-0.6
					h0l-0.3,0.6H238.8z"/>
				<path fill="#8BC541" d="M239.4,224.7l-0.4-0.6c0,0,0-0.1,0-0.1h0.1c0,0,0,0,0,0l0.3,0.5l0.3-0.5c0,0,0,0,0,0h0.1c0,0,0,0,0,0.1
					l-0.4,0.6v0.6c0,0,0,0,0,0h-0.1c0,0,0,0,0,0V224.7z"/>
				<path fill="#8BC541" d="M240.1,225.1C240.1,225.1,240.1,225.1,240.1,225.1C240.1,225,240.2,225,240.1,225.1
					c0.1,0,0.2,0.1,0.4,0.1c0.1,0,0.2-0.1,0.2-0.2c0-0.1-0.1-0.2-0.3-0.3c-0.2-0.1-0.3-0.2-0.3-0.4c0-0.1,0.1-0.3,0.4-0.3
					c0.2,0,0.3,0.1,0.3,0.1c0,0,0,0,0,0.1c0,0,0,0,0,0c0,0,0,0-0.1,0c0,0-0.1-0.1-0.2-0.1c-0.2,0-0.2,0.1-0.2,0.2
					c0,0.1,0.1,0.2,0.2,0.2c0.2,0.1,0.4,0.2,0.4,0.4c0,0.2-0.2,0.3-0.4,0.3C240.3,225.3,240.1,225.2,240.1,225.1
					C240.1,225.2,240.1,225.1,240.1,225.1z"/>
			</g>
			<g>
				<path fill="#3C4352" d="M231.3,189.5c0.4-0.5,0.8-0.9,1.3-1.4c0.4-0.4,0.5-0.7,0.5-0.9c0-0.3-0.2-0.7-0.7-0.7
					c-0.3,0-0.6,0.2-0.7,0.4c0,0-0.1,0-0.1,0l-0.1-0.1c0,0,0-0.1,0-0.1c0,0,0.4-0.5,1-0.5c0.7,0,1.1,0.5,1.1,1
					c0,0.5-0.3,0.8-0.6,1.2c-0.3,0.4-0.7,0.7-1,1.1h1.5c0.1,0,0.1,0,0.1,0.1v0.1c0,0.1,0,0.1-0.1,0.1h-2c-0.1,0-0.1,0-0.1-0.1V189.5
					z"/>
				<path fill="#3C4352" d="M234.5,186.9l-0.4,0.3c0,0-0.1,0-0.1,0l-0.1-0.1c0,0,0-0.1,0-0.1l0.7-0.7h0.1c0.1,0,0.1,0,0.1,0.1v3.3
					c0,0.1,0,0.1-0.1,0.1h-0.2c-0.1,0-0.1,0-0.1-0.1V186.9z"/>
				<path fill="#3C4352" d="M236,189.2c0.2,0,0.3,0.1,0.3,0.5c0,0.4-0.3,0.8-0.4,1c-0.1,0-0.1,0-0.1,0l-0.1-0.1c0,0,0-0.1,0-0.1
					c0.1,0,0.3-0.3,0.3-0.7c0,0,0,0-0.1,0c-0.2,0-0.3-0.1-0.3-0.3C235.7,189.4,235.9,189.2,236,189.2z"/>
				<path fill="#3C4352" d="M236.7,188.9v-0.2l2-2.5c0,0,0,0,0.1,0h0.1c0.1,0,0.1,0,0.1,0.1l0,2.4h0.4c0.1,0,0.1,0,0.1,0.1v0.1
					c0,0.1,0,0.1-0.1,0.1h-0.4v0.7c0,0.1,0,0.1-0.1,0.1h-0.2c-0.1,0-0.1,0-0.1-0.1V189L236.7,188.9
					C236.7,189,236.7,188.9,236.7,188.9z M238.6,188.7v-1.8l-1.5,1.8H238.6z"/>
				<path fill="#3C4352" d="M240.4,189.5c0.2-0.1,1.2-0.6,1.3-1.3c0,0-0.3,0.2-0.8,0.2c-0.6,0-1.1-0.4-1.1-1.1
					c0-0.7,0.5-1.2,1.1-1.2c0.8,0,1.2,0.7,1.2,1.5c0,1.4-1.2,2-1.7,2.2c-0.1,0-0.1,0-0.1-0.1l-0.1-0.1
					C240.3,189.6,240.3,189.6,240.4,189.5z M241.8,187.8c0.1-0.5-0.1-1.3-0.8-1.3c-0.4,0-0.8,0.4-0.8,0.8c0,0.5,0.3,0.8,0.8,0.8
					C241.4,188.1,241.8,187.8,241.8,187.8z"/>
				<path fill="#3C4352" d="M243.4,188L243.4,188c-0.2-0.1-0.5-0.4-0.5-0.8c0-0.6,0.5-0.9,1.1-0.9c0.6,0,1.1,0.4,1.1,0.9
					c0,0.4-0.3,0.7-0.5,0.8v0c0.2,0.1,0.6,0.4,0.6,0.9c0,0.6-0.4,1-1.2,1c-0.7,0-1.2-0.4-1.2-1C242.8,188.4,243.1,188.1,243.4,188z
					 M243.9,189.5c0.4,0,0.8-0.2,0.8-0.7c0-0.3-0.3-0.6-0.8-0.7c-0.5,0.1-0.8,0.4-0.8,0.7C243.1,189.3,243.5,189.5,243.9,189.5z
					 M244.6,187.2c0-0.4-0.3-0.7-0.7-0.7c-0.4,0-0.7,0.3-0.7,0.7c0,0.3,0.2,0.6,0.7,0.6C244.4,187.7,244.6,187.5,244.6,187.2z"/>
			</g>
			<path fill="none" stroke="#3C4352" stroke-width="0.5" stroke-miterlimit="10" d="M231.2,179.1c-0.3,0-0.6-0.3-0.6-0.6
				c0-0.3,0.3-0.6,0.6-0.6s0.6,0.3,0.6,0.6C231.8,178.9,231.6,179.1,231.2,179.1z"/>
		</g>
	</g>
</g>
<g>
	<g>
		<rect x="12.5" y="128.2" fill="none" width="166.3" height="93.5"/>
		<g>
			<path fill="none" stroke="#3B4251" stroke-width="2" stroke-miterlimit="10" d="M181.9,231h-68.1c0.3,3,1,11.6,1.2,13.6
				c0.3,2.9,0.2,4.7,2.3,6.8c2,2,3.3,2.9,3.3,2.9c1.4,1.2,2.2,1.9,2.4,2c0.1,0.1,0.1,0.2,0.1,0.4c-0.2,0.4-1,1.4-3.9,1.4
				c-2.4,0-14.6,0-23.7,0s-21,0-23.5,0c-2.9,0-3.6-0.8-3.9-1.3c-0.1-0.2,0-0.3,0.1-0.5c0.3-0.3,1.1-1,2.3-2c0,0,1.3-1,3.3-2.9
				c2.2-2,2-3.9,2.3-6.8c0.2-2,1-10.6,1.2-13.6h-68c-2.3,0-4.3-2-4.3-4.3V125.2c0-2.3,2-4.3,4.3-4.3h172.2c2.3,0,4.3,2,4.3,4.3
				v101.4C186.1,229,184.2,231,181.9,231z M178.8,128.4H12.5v93.5h166.3V128.4L178.8,128.4z"/>
		</g>
	</g>
</g>
<g>
	<path fill="none" stroke="#3B4251" stroke-width="2" stroke-miterlimit="10" d="M129.8,121.3v-17.6c0-2.7,2.2-4.9,4.9-4.9h22.6
		c2.7,0,5.1-2.3,5.1-5.1V73.9"/>
</g>
<g>
	<path fill="none" stroke="#3B4251" stroke-width="2" stroke-miterlimit="10" d="M241.3,166.6v-29.1c0-2.7-2.2-4.9-4.9-4.9h-22.6
		c-2.7,0-5.1-2.3-5.1-5.1V73.7"/>
</g>
<g>
	<path fill="none" stroke="#8CC640" stroke-width="2" stroke-miterlimit="10" d="M226.6,36.4c0.2-0.8,0.3-1.7,0.3-2.3
		c0-6.2-5.1-11.2-11.2-11.2c-1,0-2,0.1-2.7,0.4c-5.8-9.9-16.5-16.4-28.8-16.4c-13.6,0-25.4,8.2-30.5,19.8c-1-0.1-2-0.2-3-0.2
		c-12.9,0-24.2,10.9-24.2,23.8c0,12.9,9.5,23.8,22.4,23.8h72.5c0,0,1.3,0,1.4,0c10.3,0,18.9-8.9,18.9-19.2
		C241.4,45.8,235.4,37.9,226.6,36.4z"/>
	<path fill="#3B4251" d="M195.1,48.2V56c0,0.2,0,0.5-0.1,0.6c0,0-3.7,2.4-9.2,2.4c-7.5,0-13.5-6-13.5-13.5s6.1-13.5,13.6-13.5
		c3.7,0,6.5,1.4,9,3.4c0.3,0.3,0.4,0.8,0,1.1c-0.4,0.4-0.8,0.7-1.1,1.1c-0.4,0.4-0.6,0.4-1,0c-2-1.7-4.6-2.9-7-2.9
		c-5.9,0-10.3,4.9-10.3,10.7s3.9,10.7,9.7,10.7c4.1,0,7-1.6,7-1.6v-6.6h-3.9c-0.8,0-1-0.8-1-1.2v-0.5c0-0.4,0.5-1.3,1-1.3h6.7"/>
</g>
<g>
	<g>
		<path fill="none" stroke="#3C4352" stroke-width="0.5" stroke-miterlimit="10" d="M100.7,181c-0.3,0-0.6-0.3-0.6-0.6
			s0.3-0.6,0.6-0.6c0.3,0,0.6,0.3,0.6,0.6C101.4,180.7,101.1,181,100.7,181z"/>
		<g>
			<path fill="#3C4352" d="M111.6,189.6v-0.2l1.8-2.3l0.1,0h0.1l0.1,0.1l0,2.2h0.4l0.1,0.1v0.1l-0.1,0.1h-0.4v0.7l-0.1,0.1h-0.2
				l-0.1-0.1v-0.6L111.6,189.6L111.6,189.6L111.6,189.6z M113.3,189.4v-1.7l-1.4,1.7H113.3z M116.2,187l0.1,0l0.1,0.1
				c0,0.1,0,0.1-0.1,0.1c-0.2,0.1-1.1,0.5-1.2,1.2c0,0,0.3-0.2,0.7-0.2c0.5,0,1,0.4,1,1c0,0.6-0.5,1.1-1.1,1.1
				c-0.8,0-1.1-0.6-1.1-1.4C114.6,187.8,115.7,187.2,116.2,187L116.2,187z M116.4,189.4c0-0.4-0.3-0.7-0.7-0.7
				c-0.4,0-0.8,0.3-0.8,0.3c-0.1,0.5,0.1,1.2,0.8,1.2C116.1,190.1,116.4,189.8,116.4,189.4z"/>
		</g>
		<path fill="none" stroke="#8BC541" stroke-miterlimit="10" d="M120,205l-0.2,0c-0.2-0.1-0.3-0.2-0.4-0.4c-0.8-2-2.8-3.3-4.9-3.3
			c-2.1,0-4.1,1.3-4.9,3.3c-0.1,0.2-0.2,0.3-0.4,0.4c-0.2,0.1-0.4,0-0.6-0.1l-6-3.9c-0.3-0.2-0.4-0.6-0.2-0.9
			c2.4-4.5,7.1-7.3,12.2-7.3s9.8,2.8,12.2,7.3c0.2,0.3,0.1,0.7-0.2,0.9l-6,3.9C120.3,205,120.2,205,120,205z"/>
		<path fill="none" stroke="#3C4352" stroke-miterlimit="10" d="M114.2,206c-0.6,0-1.2-0.3-1.5-0.9l-2.5-6.2c-0.1-0.1-0.1-0.4,0-0.6
			c0.1-0.2,0.2-0.4,0.4-0.5c0.1-0.1,0.3-0.1,0.4-0.1c0.3,0,0.6,0.2,0.7,0.4l3.9,5.2c0.3,0.5,0.3,0.9,0.2,1.4c-0.1,0.4-0.4,0.8-0.8,1
			C114.8,205.9,114.5,206,114.2,206L114.2,206z"/>
		<g>
			<path fill="#3C4352" d="M126,208.9l-0.1,0.1l0,0l0,0l0,0l0.3-0.3h0.1l0,0v1.3l0,0H126l0,0L126,208.9L126,208.9z M126.5,209.8
				L126.5,209.8L126.5,209.8c0.1,0,0.2,0.1,0.4,0.1c0.2,0,0.3-0.2,0.3-0.3c0-0.2-0.1-0.3-0.3-0.3h-0.3l-0.1-0.1v-0.5l0,0h0.6l0,0
				v0.1l0,0h-0.5v0.4h0.2c0.3,0,0.5,0.2,0.5,0.4c0,0.2-0.2,0.5-0.5,0.5C126.6,210,126.5,209.9,126.5,209.8L126.5,209.8L126.5,209.8z
				 M127.7,209.9c0.1,0,0.4-0.2,0.5-0.5c0,0-0.1,0.1-0.3,0.1c-0.2,0-0.4-0.2-0.4-0.4c0-0.3,0.2-0.5,0.4-0.5c0.3,0,0.5,0.3,0.5,0.6
				c0,0.5-0.5,0.8-0.7,0.8l0,0L127.7,209.9L127.7,209.9L127.7,209.9z M128.2,209.3c0-0.2,0-0.5-0.3-0.5c-0.2,0-0.3,0.1-0.3,0.3
				c0,0.2,0.1,0.3,0.3,0.3C128.1,209.4,128.2,209.3,128.2,209.3z"/>
		</g>
		<g>
			<path fill="#8BC541" d="M99.8,207.2L99.8,207.2L99.8,207.2l0.2,0.1c0.1,0,0.2-0.1,0.2-0.2c0-0.1-0.1-0.2-0.2-0.2H100l0,0v0l0,0
				h0.1c0.1,0,0.2-0.1,0.2-0.1c0-0.1-0.1-0.2-0.2-0.2l-0.2,0.1l0,0l0,0v0c0,0,0.1-0.1,0.2-0.1c0.1,0,0.3,0.1,0.3,0.2
				c0,0.1-0.1,0.2-0.1,0.2v0c0.1,0,0.1,0.1,0.1,0.2c0,0.1-0.1,0.2-0.3,0.2C99.9,207.3,99.9,207.2,99.8,207.2L99.8,207.2L99.8,207.2z
				 M100.6,206.9c0-0.3,0.1-0.4,0.3-0.4c0.2,0,0.3,0.2,0.3,0.4c0,0.3-0.1,0.4-0.3,0.4C100.7,207.3,100.6,207.1,100.6,206.9z
				 M101.1,206.9c0-0.2-0.1-0.4-0.2-0.4s-0.2,0.1-0.2,0.4c0,0.2,0.1,0.4,0.2,0.4S101.1,207.1,101.1,206.9z M101.4,206.9L101.4,206.9
				L101.4,206.9l0.3,0l0,0v0l0,0L101.4,206.9L101.4,206.9z M102,206.4L102,206.4l0.3,0c0.2,0,0.4,0.2,0.4,0.4c0,0.2-0.2,0.4-0.4,0.4
				H102l0,0V206.4L102,206.4z M102.3,207.2c0.2,0,0.3-0.1,0.3-0.3c0-0.2-0.1-0.3-0.3-0.3h-0.2v0.7H102.3L102.3,207.2z M102.9,207.2
				l0.4-0.8l0,0h0l0,0l0.4,0.8l0,0h0l0,0l-0.1-0.2H103L102.9,207.2L102.9,207.2L102.9,207.2L102.9,207.2z M103.4,207l-0.2-0.4h0
				l-0.2,0.4H103.4z M104,206.9l-0.3-0.4l0,0h0.1l0,0L104,206.9l0.3-0.4l0,0h0.1l0,0L104,206.9l0.1,0.4l0,0h0l0,0V206.9z M105,206.4
				L105,206.4L105,206.4L105,206.4l0.3,0.7h0l0.2-0.7l0,0h0l0,0l0.2,0.8l0,0h0l0,0l-0.1-0.6h0l-0.2,0.7l0,0h0l0,0l-0.2-0.7h0
				l-0.1,0.6l0,0h0l0,0L105,206.4L105,206.4z M106,206.4L106,206.4L106,206.4L106,206.4l0.1,0.8l0,0h0l0,0V206.4z M106.4,206.4
				L106.4,206.4L106.4,206.4l0.6,0.7h0v-0.7l0,0h0l0,0v0.8l0,0h0l-0.6-0.7h0v0.7l0,0h0l0,0L106.4,206.4L106.4,206.4z"/>
		</g>
		<g>
			<path fill="#8BC541" d="M120.8,207.2L120.8,207.2L120.8,207.2l0.2,0.1c0.1,0,0.2-0.1,0.2-0.2c0-0.1-0.1-0.2-0.2-0.2h-0.1l0,0v0
				l0,0h0.1c0.1,0,0.2-0.1,0.2-0.1c0-0.1-0.1-0.2-0.2-0.2l-0.2,0.1l0,0l0,0v0c0,0,0.1-0.1,0.2-0.1c0.1,0,0.3,0.1,0.3,0.2
				c0,0.1-0.1,0.2-0.1,0.2v0c0.1,0,0.1,0.1,0.1,0.2c0,0.1-0.1,0.2-0.3,0.2C120.9,207.3,120.8,207.2,120.8,207.2L120.8,207.2
				L120.8,207.2z M121.5,206.9c0-0.3,0.1-0.4,0.3-0.4c0.2,0,0.3,0.2,0.3,0.4c0,0.3-0.1,0.4-0.3,0.4
				C121.6,207.3,121.5,207.1,121.5,206.9z M122.1,206.9c0-0.2-0.1-0.4-0.2-0.4s-0.2,0.1-0.2,0.4c0,0.2,0.1,0.4,0.2,0.4
				S122.1,207.1,122.1,206.9z M122.4,206.9L122.4,206.9L122.4,206.9l0.3,0l0,0v0l0,0L122.4,206.9L122.4,206.9z M123,206.4L123,206.4
				l0.3,0c0.2,0,0.4,0.2,0.4,0.4c0,0.2-0.2,0.4-0.4,0.4H123l0,0V206.4L123,206.4z M123.2,207.2c0.2,0,0.3-0.1,0.3-0.3
				c0-0.2-0.1-0.3-0.3-0.3H123v0.7H123.2L123.2,207.2z M123.8,207.2l0.4-0.8l0,0h0l0,0l0.4,0.8l0,0h-0.1l0,0l-0.1-0.2H124
				L123.8,207.2L123.8,207.2L123.8,207.2L123.8,207.2z M124.4,207l-0.2-0.4h0L124,207H124.4z M124.9,206.9l-0.3-0.4l0,0h0.1l0,0
				L124.9,206.9l0.3-0.4l0,0h0.1l0,0L124.9,206.9l0.1,0.4l0,0h0l0,0V206.9z M125.9,206.4L125.9,206.4L125.9,206.4L125.9,206.4
				l0.3,0.7h0l0.2-0.7l0,0h0l0,0l0.2,0.8l0,0h0l0,0l-0.1-0.6h0l-0.2,0.7l0,0h0l0,0l-0.2-0.7h0l-0.1,0.6l0,0h0l0,0L125.9,206.4
				L125.9,206.4z M126.8,207.2l0.4-0.8l0,0h0l0,0l0.4,0.8l0,0h0l0,0l-0.1-0.2H127L126.8,207.2L126.8,207.2L126.8,207.2L126.8,207.2z
				 M127.4,207l-0.2-0.4h0L127,207H127.4z M128,206.8l-0.2-0.4l0,0h0.1l0,0L128,206.8L128,206.8l0.3-0.4l0,0h0.1l0,0l-0.2,0.4
				l0.2,0.4l0,0h-0.1l0,0L128,206.8L128,206.8l-0.1,0.4l0,0h-0.1l0,0L128,206.8z"/>
		</g>
		<path fill="none" stroke="#8BC541" stroke-miterlimit="10" d="M131.9,214.2H98c-0.4,0-0.7-0.3-0.7-0.7v-36c0-0.4,0.3-0.7,0.7-0.7
			h34c0.4,0,0.7,0.3,0.7,0.7v36C132.6,213.9,132.3,214.2,131.9,214.2z"/>
		<line fill="none" stroke="#8BC541" stroke-miterlimit="10" x1="97.3" y1="183.5" x2="132.5" y2="183.5"/>
		<polygon fill="#3C4352" points="100.2,209.1 100.1,209.2 100,209.2 100,209.2 100,209.2 100.3,208.9 100.3,208.9 100.3,208.9 
			100.3,210.2 100.3,210.2 100.2,210.2 100.2,210.2 100.2,209.1 		"/>
		<g>
			<path fill="#3C4352" d="M103.4,179.8C103.4,179.8,103.4,179.8,103.4,179.8l0.2,0c0,0,0,0,0,0v0.9h0.4c0,0,0,0,0,0v0.1
				c0,0,0,0,0,0h-0.6c0,0,0,0,0,0V179.8z"/>
			<path fill="#3C4352" d="M104.3,179.8C104.3,179.8,104.3,179.8,104.3,179.8l0.2,0c0,0,0,0,0,0v1.1c0,0,0,0,0,0h-0.1c0,0,0,0,0,0
				V179.8z"/>
			<path fill="#3C4352" d="M104.7,179.8C104.7,179.8,104.7,179.8,104.7,179.8l0.2,0c0,0,0,0,0,0l0.3,0.7h0l0.3-0.7c0,0,0,0,0,0h0.2
				c0,0,0,0,0,0l-0.5,1.1c0,0,0,0,0,0h0c0,0,0,0,0,0L104.7,179.8z"/>
			<path fill="#3C4352" d="M106,179.8C106,179.8,106,179.8,106,179.8l0.7,0c0,0,0,0,0,0v0.1c0,0,0,0,0,0h-0.5v0.3h0.4c0,0,0,0,0,0
				v0.1c0,0,0,0,0,0h-0.4v0.3h0.5c0,0,0,0,0,0v0.1c0,0,0,0,0,0H106c0,0,0,0,0,0V179.8z"/>
			<path fill="#3C4352" d="M107.3,179.8C107.3,179.8,107.3,179.8,107.3,179.8l0.2,0c0,0,0,0,0,0l0.3,0.7h0l0.3-0.7c0,0,0,0,0,0h0.2
				c0,0,0,0,0,0l-0.5,1.1c0,0,0,0,0,0h0c0,0,0,0,0,0L107.3,179.8z"/>
			<path fill="#3C4352" d="M108.6,179.8C108.6,179.8,108.6,179.8,108.6,179.8l0.2,0c0,0,0,0,0,0v1.1c0,0,0,0,0,0h-0.1c0,0,0,0,0,0
				V179.8z"/>
			<path fill="#3C4352" d="M109.1,180.7L109.1,180.7c0.1-0.1,0.1-0.1,0.1-0.1c0,0,0.1,0.1,0.2,0.1c0.1,0,0.1-0.1,0.1-0.1
				c0-0.1-0.1-0.1-0.2-0.2c-0.2-0.1-0.3-0.2-0.3-0.3c0-0.1,0.1-0.3,0.4-0.3c0.2,0,0.3,0.1,0.3,0.1c0,0,0,0,0,0.1l-0.1,0.1
				c0,0,0,0-0.1,0c0,0-0.1-0.1-0.2-0.1c-0.1,0-0.1,0.1-0.1,0.1c0,0.1,0.1,0.1,0.2,0.2c0.2,0.1,0.3,0.2,0.3,0.4
				c0,0.2-0.1,0.3-0.4,0.3C109.3,180.9,109.2,180.8,109.1,180.7C109.1,180.8,109.1,180.8,109.1,180.7z"/>
			<path fill="#3C4352" d="M110.1,179.8C110.1,179.8,110.2,179.8,110.1,179.8l0.2,0c0,0,0,0,0,0v1.1c0,0,0,0,0,0h-0.1c0,0,0,0,0,0
				V179.8z"/>
			<path fill="#3C4352" d="M110.9,180h-0.2c0,0,0,0,0,0v-0.1c0,0,0,0,0,0h0.7c0,0,0,0,0,0v0.1c0,0,0,0,0,0h-0.2v0.9c0,0,0,0,0,0
				h-0.1c0,0,0,0,0,0V180z"/>
			<path fill="#3C4352" d="M112.1,179.8c0.3,0,0.6,0.3,0.6,0.6c0,0.3-0.3,0.6-0.6,0.6c-0.3,0-0.6-0.3-0.6-0.6
				C111.5,180,111.8,179.8,112.1,179.8z M112.1,180.7c0.2,0,0.4-0.2,0.4-0.4c0-0.2-0.2-0.4-0.4-0.4c-0.2,0-0.4,0.2-0.4,0.4
				C111.7,180.5,111.9,180.7,112.1,180.7z"/>
			<path fill="#3C4352" d="M113,179.8C113,179.8,113,179.8,113,179.8l0.5,0c0.2,0,0.4,0.2,0.4,0.3c0,0.1-0.1,0.3-0.2,0.3l0.2,0.4
				c0,0,0,0,0,0h-0.2c0,0,0,0,0,0l-0.2-0.4h-0.2v0.4c0,0,0,0,0,0H113c0,0,0,0,0,0V179.8z M113.4,180.3c0.1,0,0.2-0.1,0.2-0.2
				c0-0.1-0.1-0.2-0.2-0.2h-0.3v0.3H113.4z"/>
			<path fill="#3C4352" d="M114.1,180.7L114.1,180.7c0.1-0.1,0.1-0.1,0.1-0.1c0,0,0.1,0.1,0.2,0.1c0.1,0,0.1-0.1,0.1-0.1
				c0-0.1-0.1-0.1-0.2-0.2c-0.2-0.1-0.3-0.2-0.3-0.3c0-0.1,0.1-0.3,0.4-0.3c0.2,0,0.3,0.1,0.3,0.1c0,0,0,0,0,0.1l-0.1,0.1
				c0,0,0,0-0.1,0c0,0-0.1-0.1-0.2-0.1c-0.1,0-0.1,0.1-0.1,0.1c0,0.1,0.1,0.1,0.2,0.2c0.2,0.1,0.3,0.2,0.3,0.4
				c0,0.2-0.1,0.3-0.4,0.3C114.2,180.9,114.1,180.8,114.1,180.7C114.1,180.8,114,180.8,114.1,180.7z"/>
		</g>
	</g>
	<g>
		<path fill="none" stroke="#3C4352" stroke-width="0.5" stroke-miterlimit="10" d="M61.2,180.7c-0.3,0-0.6-0.3-0.6-0.6
			c0-0.3,0.3-0.6,0.6-0.6s0.6,0.3,0.6,0.6C61.8,180.5,61.6,180.7,61.2,180.7z"/>
		<g>
			<path fill="#3C4352" d="M64.1,179.6c0.1,0,0.2,0,0.3,0.1l0,0l-0.1,0.1h0l-0.2-0.1c-0.2,0-0.3,0.1-0.3,0.3c0,0.2,0.1,0.3,0.3,0.3
				l0.2-0.1h0l0.1,0.1l0,0c-0.1,0.1-0.2,0.1-0.3,0.1c-0.3,0-0.5-0.2-0.5-0.5C63.6,179.9,63.8,179.6,64.1,179.6L64.1,179.6z
				 M65.1,179.6c0.3,0,0.5,0.2,0.5,0.5c0,0.3-0.2,0.5-0.5,0.5c-0.3,0-0.5-0.2-0.5-0.5S64.8,179.6,65.1,179.6z M65.1,180.5
				c0.2,0,0.3-0.1,0.3-0.3s-0.1-0.3-0.3-0.3s-0.3,0.1-0.3,0.3S64.9,180.5,65.1,180.5z M65.9,179.7L65.9,179.7L65.9,179.7l0.6,0.6h0
				v-0.6l0,0h0.1l0,0v0.9l0,0h0L66,180h0v0.6l0,0h-0.1l0,0L65.9,179.7L65.9,179.7z M66.9,179.7L66.9,179.7l0.2,0l0,0l0.3,0.6h0
				l0.3-0.6l0,0h0.1l0,0l-0.4,0.9l0,0h0l0,0L66.9,179.7L66.9,179.7z M68,179.7L68,179.7l0.6,0l0,0v0.1l0,0h-0.4v0.2h0.3l0,0v0.1l0,0
				h-0.3v0.2h0.4l0,0v0.1l0,0H68l0,0V179.7z M68.9,179.7L68.9,179.7l0.4,0c0.2,0,0.3,0.1,0.3,0.3c0,0.1-0.1,0.2-0.2,0.3l0.2,0.4l0,0
				h-0.1l0,0l-0.2-0.4h-0.2v0.4l0,0h-0.1l0,0V179.7z M69.3,180.1c0.1,0,0.1-0.1,0.1-0.1c0-0.1-0.1-0.1-0.1-0.1h-0.2v0.3H69.3z
				 M69.9,180.5L69.9,180.5L69.9,180.5l0.3,0c0.1,0,0.1,0,0.1-0.1c0-0.1-0.1-0.1-0.2-0.2c-0.1-0.1-0.3-0.1-0.3-0.3
				c0-0.1,0.1-0.3,0.3-0.3c0.1,0,0.3,0.1,0.3,0.1l0,0l-0.1,0.1l0,0l-0.2-0.1c-0.1,0-0.1,0.1-0.1,0.1c0,0.1,0.1,0.1,0.2,0.2
				c0.1,0.1,0.3,0.1,0.3,0.3c0,0.1-0.1,0.3-0.3,0.3C70,180.6,69.9,180.6,69.9,180.5L69.9,180.5L69.9,180.5z M70.7,179.7L70.7,179.7
				l0.2,0l0,0v0.9l0,0h-0.1l0,0V179.7z M71.7,179.6c0.3,0,0.5,0.2,0.5,0.5c0,0.3-0.2,0.5-0.5,0.5c-0.3,0-0.5-0.2-0.5-0.5
				C71.2,179.9,71.4,179.6,71.7,179.6z M71.7,180.5c0.2,0,0.3-0.1,0.3-0.3s-0.1-0.3-0.3-0.3c-0.2,0-0.3,0.1-0.3,0.3
				S71.5,180.5,71.7,180.5z M72.4,179.7L72.4,179.7L72.4,179.7l0.6,0.6h0v-0.6l0,0h0.1l0,0v0.9l0,0h0l-0.6-0.6h0v0.6l0,0h-0.1l0,0
				V179.7z M74,179.7L74,179.7l0.4,0c0.2,0,0.3,0.1,0.3,0.3c0,0.1-0.1,0.2-0.2,0.3l0.2,0.4l0,0h-0.1l0,0l-0.2-0.4h-0.2v0.4l0,0H74
				l0,0V179.7z M74.4,180.1c0.1,0,0.1-0.1,0.1-0.1c0-0.1-0.1-0.1-0.1-0.1h-0.2v0.3H74.4z M74.8,180.6l0.4-0.9l0,0h0l0,0l0.4,0.9l0,0
				h-0.1l0,0l-0.1-0.2h-0.4l-0.1,0.2l0,0L74.8,180.6L74.8,180.6L74.8,180.6z M75.4,180.3l-0.1-0.3h0l-0.1,0.3H75.4L75.4,180.3z
				 M76.1,179.8h-0.2l0,0v-0.1l0,0h0.6l0,0v0.1l0,0h-0.2v0.8l0,0h-0.1l0,0L76.1,179.8L76.1,179.8z M76.7,179.7L76.7,179.7l0.6,0l0,0
				v0.1l0,0h-0.4v0.2h0.3l0,0v0.1l0,0h-0.3v0.2h0.4l0,0v0.1l0,0h-0.6l0,0V179.7z"/>
		</g>
		<g>
			<path fill="#8BC541" d="M63.8,192.1l-0.8,0.7c-0.1,0.1-0.2,0.1-0.3,0l-0.2-0.2c-0.1-0.1,0-0.2,0-0.3l1.6-1.6h0.3
				c0.1,0,0.2,0.1,0.2,0.2v7.5c0,0.1-0.1,0.2-0.2,0.2H64c-0.1,0-0.2-0.1-0.2-0.2V192.1z M66.4,198l2.9-3.1c0.8-0.9,1.2-1.6,1.2-2.1
				c0-0.7-0.4-1.5-1.6-1.5c-0.7,0-1.3,0.5-1.7,0.9c-0.1,0.1-0.2,0.1-0.3,0l-0.2-0.2c-0.1-0.1-0.1-0.2,0-0.3c0,0,0.8-1.1,2.2-1.1
				c1.7,0,2.5,1.1,2.5,2.3c0,1-0.7,1.8-1.5,2.7l-2.2,2.4H71c0.1,0,0.2,0.1,0.2,0.2v0.3c0,0.1-0.1,0.2-0.2,0.2h-4.4
				c-0.1,0-0.2-0.1-0.2-0.2L66.4,198L66.4,198z M73.3,197.4c0.4,0,0.7,0.3,0.7,0.7c0,0.4-0.3,0.7-0.7,0.7c-0.4,0-0.7-0.3-0.7-0.7
				C72.6,197.7,72.9,197.4,73.3,197.4z M75.1,198l2.9-3.1c0.8-0.9,1.2-1.6,1.2-2.1c0-0.7-0.4-1.5-1.6-1.5c-0.7,0-1.3,0.5-1.7,0.9
				c-0.1,0.1-0.2,0.1-0.3,0l-0.2-0.2c-0.1-0.1-0.1-0.2,0-0.3c0,0,0.8-1.1,2.2-1.1c1.7,0,2.5,1.1,2.5,2.3c0,1-0.7,1.8-1.5,2.7
				l-2.2,2.4h3.4c0.1,0,0.2,0.1,0.2,0.2v0.3c0,0.1-0.1,0.2-0.2,0.2h-4.4c-0.1,0-0.2-0.1-0.2-0.2L75.1,198L75.1,198z M81.2,197.4
				l0.3-0.3c0.1-0.1,0.2-0.1,0.3,0.1c0.1,0.1,0.7,0.8,1.7,0.8c0.9,0,1.7-0.5,1.7-1.5c0-0.8-0.6-1.5-2.1-1.5h-0.7
				c-0.1,0-0.2-0.1-0.2-0.3v-0.3c0-0.2,0.1-0.3,0.2-0.3h0.6c1.3,0,1.9-0.6,1.9-1.4c0-0.9-0.7-1.5-1.5-1.5c-0.8,0-1.3,0.5-1.5,0.8
				c-0.1,0.1-0.2,0.1-0.3,0l-0.3-0.2c-0.1-0.1-0.1-0.2,0-0.3c0,0,0.8-1,2.1-1c1.4,0,2.4,0.8,2.4,2.1c0,0.9-0.7,1.6-1.2,1.8v0
				c0.5,0.2,1.4,0.9,1.4,1.9c0,1.3-1,2.3-2.6,2.3c-1.4,0-2.1-0.7-2.3-1C81.1,197.6,81.1,197.4,81.2,197.4L81.2,197.4z"/>
		</g>
		<g>
			<path fill="#3C4352" d="M70.2,206.1l0.9-1c0.3-0.3,0.4-0.5,0.4-0.7c0-0.2-0.1-0.5-0.5-0.5c-0.2,0-0.4,0.2-0.5,0.3h-0.1l-0.1-0.1
				l0-0.1c0,0,0.3-0.4,0.7-0.4c0.5,0,0.8,0.3,0.8,0.7c0,0.3-0.2,0.6-0.5,0.9l-0.7,0.8h1.1l0.1,0.1v0.1l-0.1,0.1h-1.4l-0.1-0.1
				L70.2,206.1L70.2,206.1z M72.4,206.2l1.1-2.2h-1.2l-0.1-0.1v-0.1l0.1-0.1h1.5l0.1,0.1v0l-1.1,2.4l-0.1,0.1h-0.1L72.4,206.2
				L72.4,206.2z M74.3,205.9c0.1,0,0.2,0.1,0.2,0.2c0,0.1-0.1,0.2-0.2,0.2c-0.1,0-0.2-0.1-0.2-0.2C74.1,206,74.2,205.9,74.3,205.9z
				 M75.2,206.1c0.2-0.1,0.8-0.4,1-0.9c0,0-0.3,0.2-0.6,0.2c-0.4,0-0.8-0.3-0.8-0.8c0-0.5,0.4-0.9,0.8-0.9c0.6,0,0.9,0.5,0.9,1.1
				c0,1-0.9,1.5-1.2,1.6l-0.1,0l0-0.1L75.2,206.1L75.2,206.1z M76.2,204.9c0.1-0.4-0.1-0.9-0.6-0.9c-0.3,0-0.6,0.3-0.6,0.6
				c0,0.3,0.3,0.6,0.6,0.6C75.9,205.1,76.2,204.9,76.2,204.9L76.2,204.9z M76.9,205.9l0.1-0.1l0.1,0c0,0,0.2,0.3,0.6,0.3
				c0.3,0,0.5-0.2,0.5-0.5c0-0.3-0.2-0.5-0.7-0.5h-0.2l-0.1-0.1v-0.1l0.1-0.1h0.2c0.4,0,0.6-0.2,0.6-0.5c0-0.3-0.2-0.5-0.5-0.5
				c-0.3,0-0.4,0.2-0.5,0.2l-0.1,0l-0.1-0.1V204c0,0,0.3-0.3,0.7-0.3c0.5,0,0.8,0.3,0.8,0.7c0,0.3-0.2,0.5-0.4,0.6v0
				c0.2,0.1,0.5,0.3,0.5,0.6c0,0.4-0.3,0.7-0.8,0.7C77.1,206.3,76.9,206.1,76.9,205.9L76.9,205.9L76.9,205.9z M78.8,204.1
				c0-0.3,0.2-0.5,0.5-0.5c0.3,0,0.5,0.2,0.5,0.5s-0.2,0.5-0.5,0.5C79,204.6,78.8,204.4,78.8,204.1z M79.6,204.1
				c0-0.2-0.1-0.3-0.3-0.3c-0.2,0-0.3,0.1-0.3,0.3c0,0.2,0.1,0.3,0.3,0.3C79.5,204.4,79.6,204.3,79.6,204.1z M80.5,203.7L80.5,203.7
				l0.1,0l0.1,0.1l-1.3,2.5l-0.1,0h-0.1l-0.1-0.1L80.5,203.7L80.5,203.7z M80.5,205.3c0.3,0,0.5,0.2,0.5,0.5c0,0.3-0.2,0.5-0.5,0.5
				c-0.3,0-0.5-0.2-0.5-0.5C80,205.5,80.2,205.3,80.5,205.3z M80.5,206.1c0.2,0,0.3-0.1,0.3-0.3c0-0.2-0.1-0.3-0.3-0.3
				c-0.2,0-0.3,0.1-0.3,0.3C80.2,206,80.4,206.1,80.5,206.1z"/>
		</g>
		<path fill="none" stroke="#3C4352" stroke-miterlimit="10" d="M64.8,207.7c-0.4,0-0.7-0.2-0.9-0.6l-1.7-3c-0.2-0.4-0.2-0.8,0-1.1
			s0.5-0.5,1-0.5h3.3c0.4,0,0.8,0.2,1,0.5c0.2,0.3,0.2,0.7,0,1.1l-1.7,3C65.6,207.5,65.2,207.7,64.8,207.7L64.8,207.7z"/>
		<g>
			<path fill="none" stroke="#8BC541" stroke-miterlimit="10" d="M92.3,214.1h-34c-0.4,0-0.7-0.3-0.7-0.7v-36c0-0.4,0.3-0.7,0.7-0.7
				h34c0.4,0,0.7,0.3,0.7,0.7v36C93,213.8,92.7,214.1,92.3,214.1z"/>
			<line fill="none" stroke="#8BC541" stroke-miterlimit="10" x1="57.7" y1="183.4" x2="92.8" y2="183.4"/>
		</g>
	</g>
	<g>
		<g>
			<path fill="#3C4352" d="M63.6,138.9L63.6,138.9l0.2,0l0,0l0.3,0.6h0l0.3-0.6l0,0h0.1l0,0l-0.4,0.9l0,0h0l0,0L63.6,138.9z
				 M64.7,138.8L64.7,138.8l0.2,0l0,0v0.9l0,0h-0.1l0,0V138.8z M65.2,139.7L65.2,139.7L65.2,139.7l0.3,0c0.1,0,0.1,0,0.1-0.1
				c0-0.1-0.1-0.1-0.2-0.2c-0.1-0.1-0.3-0.1-0.3-0.3c0-0.1,0.1-0.3,0.3-0.3c0.1,0,0.3,0.1,0.3,0.1l0,0l-0.1,0.1l0,0l-0.2-0.1
				c-0.1,0-0.1,0.1-0.1,0.1c0,0.1,0.1,0.1,0.2,0.2c0.1,0.1,0.3,0.1,0.3,0.3c0,0.1-0.1,0.3-0.3,0.3C65.3,139.8,65.2,139.7,65.2,139.7
				L65.2,139.7z M66,138.8L66,138.8l0.2,0l0,0v0.9l0,0h-0.1l0,0V138.8z M66.7,139h-0.2l0,0v-0.1l0,0h0.6l0,0v0.1l0,0h-0.2v0.8l0,0
				h-0.1l0,0V139z M67.7,138.8c0.3,0,0.5,0.2,0.5,0.5c0,0.3-0.2,0.5-0.5,0.5c-0.3,0-0.5-0.2-0.5-0.5C67.2,139,67.5,138.8,67.7,138.8
				z M67.7,139.6c0.2,0,0.3-0.1,0.3-0.3c0-0.2-0.1-0.3-0.3-0.3c-0.2,0-0.3,0.1-0.3,0.3C67.4,139.5,67.6,139.6,67.7,139.6z
				 M68.5,138.8L68.5,138.8l0.4,0c0.2,0,0.3,0.1,0.3,0.3c0,0.1-0.1,0.2-0.2,0.3l0.2,0.4l0,0H69l0,0l-0.2-0.4h-0.2v0.4l0,0h-0.1l0,0
				L68.5,138.8z M68.9,139.3c0.1,0,0.1-0.1,0.1-0.1c0-0.1-0.1-0.1-0.1-0.1h-0.2v0.3H68.9z M69.4,139.7L69.4,139.7L69.4,139.7l0.3,0
				c0.1,0,0.1,0,0.1-0.1c0-0.1-0.1-0.1-0.2-0.2c-0.1-0.1-0.3-0.1-0.3-0.3c0-0.1,0.1-0.3,0.3-0.3c0.1,0,0.3,0.1,0.3,0.1l0,0L70,139
				l0,0l-0.2-0.1c-0.1,0-0.1,0.1-0.1,0.1c0,0.1,0.1,0.1,0.2,0.2c0.1,0.1,0.3,0.1,0.3,0.3c0,0.1-0.1,0.3-0.3,0.3
				C69.6,139.8,69.5,139.7,69.4,139.7L69.4,139.7L69.4,139.7z"/>
		</g>
		<path fill="none" stroke="#8BC541" stroke-miterlimit="10" d="M132,173.2H58.5c-0.4,0-0.7-0.3-0.7-0.7v-36.2
			c0-0.4,0.3-0.7,0.7-0.7H132c0.4,0,0.7,0.3,0.7,0.7v36.2C132.7,172.9,132.4,173.2,132,173.2z"/>
		<g>
			<path fill="#3C4352" d="M64.6,156.2l2.9-3.1c0.8-0.9,1.2-1.6,1.2-2.1c0-0.7-0.4-1.5-1.6-1.5c-0.7,0-1.3,0.5-1.7,0.9
				c-0.1,0.1-0.2,0.1-0.3,0l-0.2-0.2c-0.1-0.1-0.1-0.2,0-0.3c0,0,0.8-1.1,2.2-1.1c1.7,0,2.5,1.1,2.5,2.3c0,1-0.7,1.8-1.5,2.7
				l-2.2,2.4h3.4c0.1,0,0.2,0.1,0.2,0.2v0.3c0,0.1-0.1,0.2-0.2,0.2h-4.4c-0.1,0-0.2-0.1-0.2-0.2V156.2L64.6,156.2z M71.3,156.4
				l3.3-6.8h-3.8c-0.1,0-0.2-0.1-0.2-0.2V149c0-0.1,0.1-0.2,0.2-0.2h4.7c0.1,0,0.2,0.1,0.2,0.2v0.1l-3.4,7.3c0,0.1-0.2,0.3-0.4,0.3
				h-0.3c-0.1,0-0.2-0.1-0.2-0.2L71.3,156.4L71.3,156.4z M77.1,155.5c0.4,0,0.8,0.2,0.8,1.1c0,1-0.6,1.8-1,2.2
				c-0.1,0.1-0.2,0.1-0.3,0l-0.2-0.2c-0.1-0.1,0-0.2,0.1-0.3c0.1-0.1,0.7-0.6,0.7-1.5l-0.1,0c-0.4,0-0.7-0.3-0.7-0.7
				C76.4,155.8,76.7,155.5,77.1,155.5z M80,156.2c0.5-0.2,2.6-1.3,3-2.9c0,0-0.8,0.5-1.8,0.5c-1.3,0-2.5-1-2.5-2.5
				c0-1.5,1.2-2.7,2.6-2.7c1.9,0,2.7,1.5,2.7,3.3c0,3.1-2.7,4.5-3.8,5c-0.1,0-0.2,0-0.3-0.1l-0.1-0.3
				C79.7,156.4,79.7,156.3,80,156.2z M83.1,152.3c0.2-1.2-0.3-2.9-1.9-2.9c-1,0-1.8,0.9-1.8,1.9c0,1,0.8,1.8,1.8,1.8
				C82.4,153.1,83.1,152.3,83.1,152.3z M85.4,152.8c0-2.6,1-4.1,2.8-4.1c1.8,0,2.8,1.5,2.8,4.1s-1,4.1-2.8,4.1
				C86.5,156.9,85.4,155.3,85.4,152.8z M90.3,152.8c0-2.1-0.7-3.3-2-3.3s-2,1.2-2,3.3c0,2.1,0.7,3.3,2,3.3S90.3,154.9,90.3,152.8z
				 M92.4,156.2l2.9-3.1c0.8-0.9,1.2-1.6,1.2-2.1c0-0.7-0.4-1.5-1.6-1.5c-0.7,0-1.3,0.5-1.7,0.9c-0.1,0.1-0.2,0.1-0.3,0l-0.2-0.2
				c-0.1-0.1-0.1-0.2,0-0.3c0,0,0.8-1.1,2.2-1.1c1.7,0,2.5,1.1,2.5,2.3c0,1-0.7,1.8-1.5,2.7l-2.2,2.4h3.4c0.1,0,0.2,0.1,0.2,0.2v0.3
				c0,0.1-0.1,0.2-0.2,0.2h-4.4c-0.1,0-0.2-0.1-0.2-0.2L92.4,156.2L92.4,156.2z"/>
		</g>
		<g>
			<path fill="#8BC541" d="M64.5,162.3L64.5,162.3l0.8-0.1c0.4,0,0.8,0.4,0.8,0.8c0,0.4-0.4,0.8-0.8,0.8h-0.6v0.8l-0.1,0.1h-0.1
				l-0.1-0.1L64.5,162.3L64.5,162.3z M65.3,163.5c0.3,0,0.5-0.2,0.5-0.5c0-0.3-0.2-0.5-0.5-0.5h-0.6v1H65.3z M66.3,164.6l1.1-2.4
				l0.1,0h0l0.1,0l1.1,2.4l-0.1,0.1h-0.1l-0.1,0l-0.3-0.6h-1.3l-0.3,0.6l-0.1,0L66.3,164.6L66.3,164.6z M68,163.9l-0.5-1.2h0
				l-0.5,1.2H68z M69,164.3L69,164.3l0.2-0.1c0,0,0.3,0.3,0.6,0.3c0.3,0,0.5-0.2,0.5-0.4c0-0.2-0.2-0.4-0.6-0.6
				c-0.4-0.2-0.6-0.3-0.6-0.7c0-0.2,0.2-0.6,0.8-0.6c0.3,0,0.6,0.2,0.6,0.2l0,0.1l0,0.1l-0.1,0c0,0-0.2-0.2-0.5-0.2
				c-0.4,0-0.5,0.2-0.5,0.4c0,0.2,0.2,0.4,0.5,0.5c0.5,0.2,0.8,0.4,0.8,0.8c0,0.4-0.3,0.6-0.8,0.6c-0.4,0-0.7-0.2-0.7-0.3L69,164.3
				L69,164.3z M71.6,162.5H71l-0.1-0.1v-0.1l0.1-0.1h1.5l0.1,0.1v0.1l-0.1,0.1h-0.6v2.2l-0.1,0.1h-0.1l-0.1-0.1L71.6,162.5
				L71.6,162.5z M73.9,164.3L73.9,164.3l0.2-0.1c0,0,0.2,0.2,0.5,0.2c0.3,0,0.5-0.2,0.5-0.4c0-0.2-0.2-0.5-0.6-0.5h-0.2l-0.1-0.1
				v-0.1l0.1-0.1h0.2c0.4,0,0.6-0.2,0.6-0.4c0-0.3-0.2-0.4-0.5-0.4c-0.2,0-0.4,0.1-0.5,0.2l-0.1,0l-0.1-0.1v-0.1
				c0,0,0.3-0.3,0.6-0.3c0.4,0,0.7,0.3,0.7,0.6c0,0.3-0.2,0.5-0.4,0.6v0c0.2,0.1,0.4,0.3,0.4,0.6c0,0.4-0.3,0.7-0.8,0.7
				C74.1,164.7,73.9,164.5,73.9,164.3L73.9,164.3L73.9,164.3z M76,163.5c0-0.8,0.3-1.2,0.9-1.2c0.5,0,0.9,0.5,0.9,1.2
				c0,0.8-0.3,1.2-0.9,1.2C76.3,164.7,76,164.3,76,163.5z M77.5,163.5c0-0.6-0.2-1-0.6-1s-0.6,0.4-0.6,1c0,0.6,0.2,1,0.6,1
				S77.5,164.1,77.5,163.5z M79.5,162.3L79.5,162.3l0.9-0.1c0.7,0,1.2,0.6,1.2,1.2c0,0.7-0.6,1.2-1.2,1.2h-0.8l-0.1-0.1V162.3z
				 M80.3,164.5c0.6,0,1-0.4,1-1c0-0.6-0.4-1-1-1h-0.5v2L80.3,164.5L80.3,164.5z M81.9,164.6l1.1-2.4l0.1,0h0l0.1,0l1.1,2.4
				l-0.1,0.1H84l-0.1,0l-0.3-0.6h-1.3l-0.3,0.6l-0.1,0L81.9,164.6L81.9,164.6z M83.6,163.9l-0.5-1.2h0l-0.5,1.2H83.6z M85.1,163.5
				l-0.8-1.2l0.1-0.1h0.2l0.1,0l0.7,1l0.7-1l0.1,0h0.2l0.1,0.1l-0.9,1.2v1.1l-0.1,0.1h-0.1l-0.1-0.1L85.1,163.5L85.1,163.5z
				 M86.6,164.3L86.6,164.3l0.2-0.1c0,0,0.3,0.3,0.6,0.3c0.3,0,0.5-0.2,0.5-0.4c0-0.2-0.2-0.4-0.6-0.6c-0.4-0.2-0.6-0.3-0.6-0.7
				c0-0.2,0.2-0.6,0.8-0.6c0.3,0,0.6,0.2,0.6,0.2l0,0.1l0,0.1l-0.1,0c0,0-0.2-0.2-0.5-0.2c-0.4,0-0.5,0.2-0.5,0.4
				c0,0.2,0.2,0.4,0.5,0.5c0.5,0.2,0.8,0.4,0.8,0.8c0,0.4-0.3,0.6-0.8,0.6c-0.4,0-0.7-0.2-0.7-0.3L86.6,164.3L86.6,164.3z"/>
		</g>
		<line fill="none" stroke="#8BC541" stroke-miterlimit="10" x1="58" y1="142.5" x2="132.6" y2="142.5"/>
		<path fill="none" stroke="#3C4352" stroke-width="0.5" stroke-miterlimit="10" d="M61.3,139.9c-0.3,0-0.6-0.3-0.6-0.6
			s0.3-0.6,0.6-0.6c0.3,0,0.6,0.3,0.6,0.6C62,139.6,61.7,139.9,61.3,139.9z"/>
	</g>
	<g>
		<g>
			<g>
				<path fill="#3B4251" d="M23.9,139.2L23.9,139.2C24,139.1,24,139.1,23.9,139.2c0.1-0.1,0.2,0,0.3,0c0.1,0,0.1,0,0.1-0.1
					c0-0.1-0.1-0.1-0.2-0.2c-0.1,0-0.2-0.1-0.2-0.3c0-0.1,0.1-0.2,0.3-0.2c0.1,0,0.2,0.1,0.3,0.1c0,0,0,0,0,0l0,0.1c0,0,0,0,0,0
					c0,0-0.1-0.1-0.2-0.1c-0.1,0-0.1,0-0.1,0.1c0,0.1,0,0.1,0.1,0.1c0.1,0,0.3,0.1,0.3,0.3c0,0.1-0.1,0.2-0.3,0.2
					C24.1,139.4,24,139.3,23.9,139.2C23.9,139.2,23.9,139.2,23.9,139.2z M24.6,139.3l0.4-0.8c0,0,0,0,0,0h0c0,0,0,0,0,0l0.4,0.8
					c0,0,0,0,0,0h-0.1c0,0,0,0,0,0l-0.1-0.1h-0.4l-0.1,0.1c0,0,0,0,0,0L24.6,139.3C24.6,139.3,24.6,139.3,24.6,139.3z M25.2,139
					l-0.1-0.3h0l-0.1,0.3H25.2z M25.6,138.5C25.6,138.5,25.7,138.5,25.6,138.5l0.1,0c0,0,0,0,0,0v0.7h0.3c0,0,0,0,0,0v0.1
					c0,0,0,0,0,0h-0.5c0,0,0,0,0,0L25.6,138.5L25.6,138.5z M26.3,138.5C26.3,138.5,26.4,138.5,26.3,138.5l0.5,0c0,0,0,0,0,0v0.1
					c0,0,0,0,0,0h-0.4v0.2h0.3c0,0,0,0,0,0v0.1c0,0,0,0,0,0h-0.3v0.2h0.4c0,0,0,0,0,0v0.1c0,0,0,0,0,0h-0.5c0,0,0,0,0,0V138.5z
					 M27.1,139.2L27.1,139.2C27.2,139.1,27.2,139.1,27.1,139.2c0.1-0.1,0.2,0,0.3,0c0.1,0,0.1,0,0.1-0.1c0-0.1-0.1-0.1-0.2-0.2
					c-0.1,0-0.2-0.1-0.2-0.3c0-0.1,0.1-0.2,0.3-0.2c0.1,0,0.2,0.1,0.3,0.1c0,0,0,0,0,0l0,0.1c0,0,0,0,0,0c0,0-0.1-0.1-0.2-0.1
					c-0.1,0-0.1,0-0.1,0.1c0,0.1,0,0.1,0.1,0.1c0.1,0,0.3,0.1,0.3,0.3c0,0.1-0.1,0.2-0.3,0.2C27.2,139.4,27.1,139.3,27.1,139.2
					C27.1,139.2,27.1,139.2,27.1,139.2z"/>
			</g>
			<g>
				<path fill="#8CC640" d="M21.9,153.7C21.9,153.7,21.9,153.6,21.9,153.7l0.4,0c0.2,0,0.4,0.2,0.4,0.4c0,0.2-0.2,0.4-0.4,0.4H22
					v0.4c0,0,0,0,0,0h-0.1c0,0,0,0,0,0V153.7z M22.3,154.3c0.1,0,0.3-0.1,0.3-0.3c0-0.1-0.1-0.2-0.3-0.2H22v0.5H22.3z M22.8,154.8
					l0.5-1.1c0,0,0,0,0,0h0c0,0,0,0,0,0l0.5,1.1c0,0,0,0,0,0h-0.1c0,0,0,0,0,0l-0.1-0.3H23l-0.1,0.3
					C22.9,154.8,22.9,154.8,22.8,154.8L22.8,154.8C22.8,154.8,22.7,154.8,22.8,154.8L22.8,154.8z M23.5,154.4l-0.2-0.5h0l-0.2,0.5
					H23.5z M24,154.6L24,154.6C24.1,154.6,24.1,154.6,24,154.6c0.1,0,0.2,0.1,0.4,0.1c0.1,0,0.2-0.1,0.2-0.2c0-0.1-0.1-0.2-0.3-0.3
					c-0.2-0.1-0.3-0.2-0.3-0.3c0-0.1,0.1-0.3,0.4-0.3c0.2,0,0.3,0.1,0.3,0.1c0,0,0,0,0,0.1l0,0c0,0,0,0-0.1,0c0,0-0.1-0.1-0.2-0.1
					c-0.2,0-0.2,0.1-0.2,0.2c0,0.1,0.1,0.2,0.2,0.2c0.2,0.1,0.4,0.2,0.4,0.4c0,0.2-0.2,0.3-0.4,0.3C24.2,154.8,24.1,154.7,24,154.6
					C24,154.7,24,154.7,24,154.6L24,154.6z M25.2,153.8h-0.3c0,0,0,0,0,0v0c0,0,0,0,0,0h0.7c0,0,0,0,0,0v0c0,0,0,0,0,0h-0.3v1
					c0,0,0,0,0,0h-0.1c0,0,0,0,0,0V153.8z M26.3,154.6L26.3,154.6C26.4,154.6,26.4,154.6,26.3,154.6c0.1,0,0.2,0.1,0.3,0.1
					c0.1,0,0.2-0.1,0.2-0.2c0-0.1-0.1-0.2-0.3-0.2h-0.1c0,0,0,0,0,0v0c0,0,0,0,0,0h0.1c0.2,0,0.3-0.1,0.3-0.2c0-0.1-0.1-0.2-0.2-0.2
					c-0.1,0-0.2,0.1-0.2,0.1c0,0,0,0,0,0l0,0c0,0,0,0,0,0c0,0,0.1-0.1,0.3-0.1c0.2,0,0.3,0.1,0.3,0.3c0,0.1-0.1,0.2-0.2,0.3v0
					c0.1,0,0.2,0.1,0.2,0.3c0,0.2-0.1,0.3-0.4,0.3C26.4,154.8,26.3,154.7,26.3,154.6C26.3,154.7,26.3,154.6,26.3,154.6L26.3,154.6z
					 M27.3,154.2c0-0.4,0.1-0.6,0.4-0.6c0.3,0,0.4,0.2,0.4,0.6c0,0.4-0.1,0.6-0.4,0.6C27.5,154.8,27.3,154.6,27.3,154.2z M28,154.2
					c0-0.3-0.1-0.5-0.3-0.5c-0.2,0-0.3,0.2-0.3,0.5c0,0.3,0.1,0.5,0.3,0.5C27.9,154.7,28,154.5,28,154.2z M28.9,153.7
					C28.9,153.7,29,153.6,28.9,153.7l0.4,0c0.3,0,0.6,0.3,0.6,0.6c0,0.3-0.3,0.6-0.6,0.6H29c0,0,0,0,0,0V153.7L28.9,153.7z
					 M29.3,154.7c0.3,0,0.5-0.2,0.5-0.5c0-0.3-0.2-0.5-0.5-0.5h-0.2v0.9H29.3z M30.1,154.8l0.5-1.1c0,0,0,0,0,0h0c0,0,0,0,0,0
					l0.5,1.1c0,0,0,0,0,0h-0.1c0,0,0,0,0,0l-0.1-0.3h-0.6l-0.1,0.3C30.2,154.8,30.2,154.8,30.1,154.8L30.1,154.8
					C30.1,154.8,30.1,154.8,30.1,154.8z M30.9,154.4l-0.2-0.5h0l-0.2,0.5H30.9z M31.6,154.2l-0.4-0.6c0,0,0,0,0,0h0.1c0,0,0,0,0,0
					l0.3,0.5l0.3-0.5c0,0,0,0,0,0h0.1c0,0,0,0,0,0l-0.4,0.6v0.5c0,0,0,0,0,0h-0.1c0,0,0,0,0,0L31.6,154.2L31.6,154.2z M32.3,154.6
					L32.3,154.6C32.4,154.6,32.4,154.6,32.3,154.6c0.1,0,0.2,0.1,0.4,0.1c0.1,0,0.2-0.1,0.2-0.2c0-0.1-0.1-0.2-0.3-0.3
					c-0.2-0.1-0.3-0.2-0.3-0.3c0-0.1,0.1-0.3,0.4-0.3c0.2,0,0.3,0.1,0.3,0.1c0,0,0,0,0,0.1l0,0c0,0,0,0-0.1,0c0,0-0.1-0.1-0.2-0.1
					c-0.2,0-0.2,0.1-0.2,0.2c0,0.1,0.1,0.2,0.2,0.2c0.2,0.1,0.4,0.2,0.4,0.4c0,0.2-0.2,0.3-0.4,0.3
					C32.5,154.8,32.3,154.7,32.3,154.6C32.3,154.7,32.3,154.7,32.3,154.6L32.3,154.6z"/>
			</g>
			<path fill="#3B4251" d="M33.4,169.7h-1.2c-0.1,0-0.1,0-0.1-0.1l-0.9-1c0,0,0,0,0,0l-1-2c0,0,0,0,0,0l-1-4.7l-0.9,5.3
				c0,0,0,0.1-0.1,0.1c0,0-0.1,0-0.1,0l-0.9-0.3l-1,2.5c0,0.1-0.1,0.1-0.2,0.1l-1.1-0.3c0,0-0.1,0-0.1-0.1l-2-2.8l-0.9,0.8
				c0,0-0.1,0.1-0.1,0c-0.1,0-0.1,0-0.1-0.1l-1.2-2.3c0-0.1,0-0.2,0.1-0.2c0.1,0,0.2,0,0.2,0.1l1.1,2.1l0.8-0.8c0,0,0.1-0.1,0.1,0
				c0,0,0.1,0,0.1,0.1l2.1,2.9l0.9,0.2l1-2.5c0-0.1,0.1-0.1,0.2-0.1l0.9,0.3l1.1-6c0-0.1,0.1-0.1,0.2-0.1h0c0.1,0,0.2,0.1,0.2,0.1
				l1.1,5.6l1,2l0.8,1h1.1l0.9-0.8c0,0,0.1,0,0.1,0l1.2,0.1l3-2.3c0,0,0.1,0,0.1,0c0,0,0.1,0,0.1,0.1l1.1,2l0.8-0.1l1-1.2l1.2-10.1
				c0-0.1,0.1-0.2,0.2-0.2h0c0.1,0,0.2,0.1,0.2,0.1l0.9,6.8l0.9-0.6l1-1.5c0-0.1,0.1-0.1,0.2-0.1c0.1,0,0.1,0.1,0.1,0.1l1,5l0.8,0.9
				l1-3.1c0-0.1,0.1-0.1,0.2-0.1l1,0c0.1,0,0.1,0,0.1,0.1l1.2,1.7c0.1,0.1,0,0.2,0,0.2c-0.1,0.1-0.2,0-0.2,0l-1.1-1.6l-0.8,0
				l-1.1,3.2c0,0.1-0.1,0.1-0.1,0.1c-0.1,0-0.1,0-0.2-0.1l-1.1-1.1c0,0,0-0.1,0-0.1l-1-4.6l-0.7,1.2c0,0,0,0,0,0l-1.1,0.8
				c0,0-0.1,0-0.2,0c-0.1,0-0.1-0.1-0.1-0.1l-0.8-5.7l-1,8.8c0,0,0,0.1,0,0.1l-1.1,1.3c0,0-0.1,0.1-0.1,0.1l-1,0.1
				c-0.1,0-0.1,0-0.2-0.1l-1.1-1.9l-2.9,2.2c0,0-0.1,0-0.1,0l-1.2-0.1l-0.9,0.8C33.5,169.7,33.4,169.7,33.4,169.7z"/>
			<path fill="none" stroke="#8BC541" stroke-miterlimit="10" d="M53.1,214h-34c-0.4,0-0.7-0.3-0.7-0.7v-77.2c0-0.4,0.3-0.7,0.7-0.7
				h34c0.4,0,0.7,0.3,0.7,0.7v77.2C53.7,213.7,53.4,214,53.1,214z"/>
			<line fill="none" stroke="#8BC541" stroke-miterlimit="10" x1="18.4" y1="175.3" x2="53.4" y2="175.3"/>
			<line fill="none" stroke="#8BC541" stroke-miterlimit="10" x1="18.8" y1="142.3" x2="53.9" y2="142.3"/>
		</g>
		<g>
			<path fill="#3B4251" d="M27.7,189.6c-0.1,0-0.1,0-0.1,0l-0.1-0.1c0,0,0-0.1,0-0.1"/>
		</g>
		<path fill="#3B4251" d="M33.4,207.3h-1.2c-0.1,0-0.1,0-0.1-0.1l-0.9-1c0,0,0,0,0,0l-1-2c0,0,0,0,0,0l-1-4.7l-0.9,5.3
			c0,0,0,0.1-0.1,0.1c0,0-0.1,0-0.1,0l-0.9-0.3l-1,2.5c0,0.1-0.1,0.1-0.2,0.1l-1.1-0.3c0,0-0.1,0-0.1-0.1l-2-2.8l-0.9,0.8
			c0,0-0.1,0.1-0.1,0c-0.1,0-0.1,0-0.1-0.1l-1.2-2.3c0-0.1,0-0.2,0.1-0.2c0.1,0,0.2,0,0.2,0.1l1.1,2.1l0.8-0.8c0,0,0.1-0.1,0.1,0
			c0,0,0.1,0,0.1,0.1l2.1,2.9l0.9,0.2l1-2.5c0-0.1,0.1-0.1,0.2-0.1l0.9,0.3l1.1-6c0-0.1,0.1-0.1,0.2-0.1h0c0.1,0,0.2,0.1,0.2,0.1
			l1.1,5.6l1,2l0.8,1h1.1l0.9-0.8c0,0,0.1,0,0.1,0l1.2,0.1l3-2.3c0,0,0.1,0,0.1,0c0,0,0.1,0,0.1,0.1l1.1,2l0.8-0.1l1-1.2l1.2-10.1
			c0-0.1,0.1-0.2,0.2-0.2h0c0.1,0,0.2,0.1,0.2,0.1l0.9,6.8l0.9-0.6l1-1.5c0-0.1,0.1-0.1,0.2-0.1c0.1,0,0.1,0.1,0.1,0.1l1,5l0.8,0.9
			l1-3.1c0-0.1,0.1-0.1,0.2-0.1l1,0c0.1,0,0.1,0,0.1,0.1l1.2,1.7c0.1,0.1,0,0.2,0,0.2c-0.1,0.1-0.2,0-0.2,0l-1.1-1.6l-0.8,0
			l-1.1,3.2c0,0.1-0.1,0.1-0.1,0.1c-0.1,0-0.1,0-0.2-0.1l-1.1-1.1c0,0,0-0.1,0-0.1l-1-4.6l-0.7,1.2c0,0,0,0,0,0l-1.1,0.8
			c0,0-0.1,0-0.2,0c-0.1,0-0.1-0.1-0.1-0.1l-0.8-5.7l-1,8.8c0,0,0,0.1,0,0.1l-1.1,1.3c0,0-0.1,0.1-0.1,0.1l-1,0.1
			c-0.1,0-0.1,0-0.2-0.1l-1.1-1.9l-2.9,2.2c0,0-0.1,0-0.1,0l-1.2-0.1l-0.9,0.8C33.5,207.3,33.4,207.3,33.4,207.3z"/>
		<g>
			<path fill="#3C4352" d="M21.7,185.5c0,0,0.1-0.1,0.1-0.1c0.1,0,0.1-0.1,0.1,0c0.1,0.1,0.3,0.4,0.8,0.4c0.5,0,0.9-0.5,0.9-0.9
				c0-0.4-0.3-0.8-0.9-0.8H22c-0.1,0-0.2-0.1-0.2-0.2v-1.5c0-0.1,0-0.1,0.1-0.1h1.7c0.1,0,0.1,0.1,0.1,0.1v0.2c0,0.1,0,0.1-0.1,0.1
				h-1.4v1h0.7c0.9,0,1.3,0.5,1.3,1.2c0,0.7-0.6,1.3-1.3,1.3c-0.6,0-1-0.3-1.1-0.5C21.7,185.6,21.7,185.6,21.7,185.5z"/>
			<path fill="#3C4352" d="M25.1,185.5c0.2,0,0.4,0.1,0.4,0.5c0,0.5-0.3,0.9-0.5,1.1c-0.1,0.1-0.1,0-0.1,0l-0.1-0.1c0,0,0-0.1,0-0.1
				c0.1-0.1,0.4-0.3,0.4-0.7c0,0,0,0-0.1,0c-0.2,0-0.3-0.1-0.3-0.3C24.7,185.6,24.9,185.5,25.1,185.5z"/>
			<path fill="#3C4352" d="M26,185.5l0.2-0.1c0.1,0,0.1,0,0.2,0c0.1,0.1,0.4,0.4,0.8,0.4c0.4,0,0.8-0.3,0.8-0.7c0-0.4-0.3-0.7-1-0.7
				h-0.3c-0.1,0-0.1,0-0.1-0.1v-0.1c0-0.1,0-0.1,0.1-0.1H27c0.6,0,0.9-0.3,0.9-0.7c0-0.5-0.3-0.7-0.7-0.7c-0.4,0-0.6,0.2-0.7,0.4
				c0,0-0.1,0.1-0.1,0l-0.1-0.1c0,0,0-0.1,0-0.1c0,0,0.4-0.5,1-0.5c0.7,0,1.2,0.4,1.2,1c0,0.4-0.3,0.8-0.6,0.9v0
				c0.3,0.1,0.7,0.4,0.7,0.9c0,0.6-0.5,1.1-1.3,1.1c-0.7,0-1-0.4-1.1-0.5C26,185.6,26,185.5,26,185.5z"/>
			<path fill="#3C4352" d="M29.2,184.2c0-1.2,0.5-2,1.4-2s1.4,0.7,1.4,2c0,1.2-0.5,2-1.4,2S29.2,185.4,29.2,184.2z M31.6,184.2
				c0-1-0.4-1.6-1-1.6s-1,0.6-1,1.6c0,1,0.4,1.6,1,1.6S31.6,185.2,31.6,184.2z"/>
			<path fill="#3C4352" d="M32.5,185.1v-0.2l2.2-2.7c0,0,0,0,0.1,0h0.1c0.1,0,0.1,0,0.1,0.1l0,2.6h0.5c0.1,0,0.1,0,0.1,0.1v0.1
				c0,0.1,0,0.1-0.1,0.1h-0.5v0.8c0,0.1-0.1,0.1-0.1,0.1h-0.2c-0.1,0-0.1-0.1-0.1-0.1v-0.8h-2C32.5,185.2,32.5,185.2,32.5,185.1z
				 M34.6,184.9v-2l-1.6,2H34.6z"/>
		</g>
		<g>
			<path fill="#8BC541" d="M21.9,189C21.9,188.9,21.9,188.9,21.9,189l0.5,0c0.2,0,0.4,0.2,0.4,0.4c0,0.2-0.2,0.4-0.4,0.4H22v0.4
				c0,0,0,0,0,0h-0.1c0,0,0,0,0,0V189z M22.3,189.6c0.2,0,0.3-0.1,0.3-0.3c0-0.2-0.1-0.3-0.3-0.3H22v0.6H22.3z"/>
			<path fill="#8BC541" d="M22.8,190.2l0.6-1.3c0,0,0,0,0,0h0c0,0,0,0,0,0l0.6,1.3c0,0,0,0,0,0h-0.1c0,0,0,0,0,0l-0.1-0.3h-0.7
				l-0.1,0.3c0,0,0,0,0,0L22.8,190.2C22.8,190.3,22.8,190.2,22.8,190.2z M23.7,189.8c-0.1-0.2-0.2-0.4-0.3-0.6h0l-0.3,0.6H23.7z"/>
			<path fill="#8BC541" d="M24.1,190.1C24.1,190,24.2,190,24.1,190.1C24.2,190,24.2,190,24.1,190.1c0.1,0,0.2,0.1,0.4,0.1
				c0.2,0,0.3-0.1,0.3-0.2c0-0.1-0.1-0.2-0.3-0.3c-0.2-0.1-0.3-0.2-0.3-0.4c0-0.1,0.1-0.3,0.4-0.3c0.2,0,0.3,0.1,0.3,0.1
				c0,0,0,0,0,0.1c0,0,0,0,0,0c0,0,0,0-0.1,0c0,0-0.1-0.1-0.2-0.1c-0.2,0-0.3,0.1-0.3,0.2c0,0.1,0.1,0.2,0.3,0.3
				c0.3,0.1,0.4,0.2,0.4,0.4c0,0.2-0.2,0.3-0.4,0.3C24.3,190.3,24.2,190.1,24.1,190.1C24.1,190.1,24.1,190.1,24.1,190.1z"/>
			<path fill="#8BC541" d="M25.4,189h-0.3c0,0,0,0,0,0V189c0,0,0,0,0,0h0.8c0,0,0,0,0,0v0.1c0,0,0,0,0,0h-0.3v1.2c0,0,0,0,0,0h-0.1
				c0,0,0,0,0,0V189z"/>
			<path fill="#8BC541" d="M26.5,190.2l0.5-1.1h-0.6c0,0,0,0,0,0V189c0,0,0,0,0,0h0.8c0,0,0,0,0,0v0l-0.6,1.2
				C26.7,190.2,26.7,190.3,26.5,190.2L26.5,190.2C26.6,190.3,26.5,190.2,26.5,190.2L26.5,190.2z"/>
			<path fill="#8BC541" d="M27.9,189C27.9,188.9,27.9,188.9,27.9,189l0.5,0c0.4,0,0.7,0.3,0.7,0.7c0,0.4-0.3,0.7-0.7,0.7h-0.4
				c0,0,0,0,0,0V189z M28.3,190.1c0.3,0,0.5-0.2,0.5-0.5c0-0.3-0.2-0.5-0.5-0.5H28v1.1H28.3z"/>
			<path fill="#8BC541" d="M29.1,190.2l0.6-1.3c0,0,0,0,0,0h0c0,0,0,0,0,0l0.6,1.3c0,0,0,0,0,0h-0.1c0,0,0,0,0,0l-0.1-0.3h-0.7
				l-0.1,0.3c0,0,0,0,0,0L29.1,190.2C29.1,190.3,29.1,190.2,29.1,190.2z M30,189.8c-0.1-0.2-0.2-0.4-0.3-0.6h0l-0.3,0.6H30z"/>
			<path fill="#8BC541" d="M30.7,189.6l-0.5-0.6c0,0,0-0.1,0-0.1h0.1c0,0,0,0,0,0l0.4,0.5l0.4-0.5c0,0,0,0,0,0h0.1c0,0,0,0,0,0.1
				l-0.5,0.6v0.6c0,0,0,0,0,0h-0.1c0,0,0,0,0,0V189.6z"/>
			<path fill="#8BC541" d="M31.5,190.1C31.5,190,31.5,190,31.5,190.1C31.5,190,31.5,190,31.5,190.1c0.1,0,0.2,0.1,0.4,0.1
				c0.2,0,0.3-0.1,0.3-0.2c0-0.1-0.1-0.2-0.3-0.3c-0.2-0.1-0.3-0.2-0.3-0.4c0-0.1,0.1-0.3,0.4-0.3c0.2,0,0.3,0.1,0.3,0.1
				c0,0,0,0,0,0.1c0,0,0,0,0,0c0,0,0,0-0.1,0c0,0-0.1-0.1-0.2-0.1c-0.2,0-0.3,0.1-0.3,0.2c0,0.1,0.1,0.2,0.3,0.3
				c0.3,0.1,0.4,0.2,0.4,0.4c0,0.2-0.2,0.3-0.4,0.3C31.6,190.3,31.5,190.1,31.5,190.1C31.5,190.1,31.4,190.1,31.5,190.1z"/>
		</g>
		<g>
			<path fill="#3C4352" d="M21.8,151c0.5-0.5,0.9-1,1.4-1.5c0.4-0.4,0.6-0.8,0.6-1c0-0.3-0.2-0.7-0.8-0.7c-0.4,0-0.6,0.2-0.8,0.4
				c0,0-0.1,0-0.2,0l-0.1-0.1c0,0,0-0.1,0-0.1c0,0,0.4-0.6,1.1-0.6c0.8,0,1.2,0.5,1.2,1.1c0,0.5-0.3,0.9-0.7,1.3
				c-0.4,0.4-0.7,0.8-1.1,1.2H24c0.1,0,0.1,0.1,0.1,0.1v0.2c0,0.1-0.1,0.1-0.1,0.1h-2.2c-0.1,0-0.1-0.1-0.1-0.1V151z"/>
			<path fill="#3C4352" d="M25.3,148.1l-0.4,0.3c0,0-0.1,0-0.1,0l-0.1-0.1c0,0,0-0.1,0-0.1l0.8-0.8h0.2c0.1,0,0.1,0.1,0.1,0.1v3.7
				c0,0.1,0,0.1-0.1,0.1h-0.2c-0.1,0-0.1-0.1-0.1-0.1V148.1z"/>
			<path fill="#3C4352" d="M27,150.6c0.2,0,0.4,0.1,0.4,0.5c0,0.5-0.3,0.9-0.5,1.1c-0.1,0.1-0.1,0-0.1,0l-0.1-0.1c0,0,0-0.1,0-0.1
				c0.1-0.1,0.4-0.3,0.4-0.7c0,0,0,0-0.1,0c-0.2,0-0.3-0.1-0.3-0.3C26.7,150.8,26.8,150.6,27,150.6z"/>
			<path fill="#3C4352" d="M27.7,150.2V150l2.2-2.7c0,0,0,0,0.1,0h0.1c0.1,0,0.1,0,0.1,0.1l0,2.6h0.5c0.1,0,0.1,0,0.1,0.1v0.1
				c0,0.1,0,0.1-0.1,0.1h-0.5v0.8c0,0.1-0.1,0.1-0.1,0.1h-0.2c-0.1,0-0.1-0.1-0.1-0.1v-0.8h-2C27.8,150.4,27.7,150.3,27.7,150.2z
				 M29.8,150v-2l-1.6,2H29.8z"/>
			<path fill="#3C4352" d="M31.8,151c0.3-0.1,1.3-0.6,1.5-1.4c0,0-0.4,0.3-0.9,0.3c-0.6,0-1.2-0.5-1.2-1.2c0-0.7,0.6-1.3,1.3-1.3
				c0.9,0,1.3,0.7,1.3,1.6c0,1.5-1.3,2.2-1.9,2.4c-0.1,0-0.1,0-0.1-0.1l-0.1-0.1C31.6,151.1,31.7,151,31.8,151z M33.3,149.1
				c0.1-0.6-0.1-1.4-0.9-1.4c-0.5,0-0.9,0.4-0.9,0.9c0,0.5,0.4,0.9,0.9,0.9C32.9,149.4,33.3,149.1,33.3,149.1z"/>
			<path fill="#3C4352" d="M35.1,149.2L35.1,149.2c-0.3-0.1-0.6-0.5-0.6-0.9c0-0.6,0.5-1,1.2-1c0.7,0,1.2,0.4,1.2,1
				c0,0.4-0.3,0.8-0.6,0.9v0c0.3,0.1,0.7,0.5,0.7,1c0,0.6-0.5,1.1-1.3,1.1c-0.8,0-1.3-0.5-1.3-1.1C34.4,149.7,34.8,149.4,35.1,149.2
				z M35.7,151c0.5,0,0.9-0.3,0.9-0.7c0-0.4-0.3-0.7-0.9-0.8c-0.5,0.1-0.9,0.4-0.9,0.8C34.8,150.7,35.2,151,35.7,151z M36.4,148.4
				c0-0.4-0.3-0.7-0.8-0.7c-0.4,0-0.7,0.3-0.7,0.7c0,0.4,0.2,0.6,0.8,0.7C36.2,149,36.4,148.7,36.4,148.4z"/>
		</g>
		<path fill="none" stroke="#3C4352" stroke-width="0.5" stroke-miterlimit="10" d="M21.7,139.6c-0.3,0-0.6-0.3-0.6-0.6
			c0-0.3,0.3-0.6,0.6-0.6c0.3,0,0.6,0.3,0.6,0.6C22.4,139.3,22.1,139.6,21.7,139.6z"/>
	</g>
	<g>
		<g>
			<path fill="#3C4352" d="M142.4,179.9L142.4,179.9L142.4,179.9l0.7,0.6l0,0v-0.6c0,0,0,0,0,0h0.1c0,0,0,0,0,0v1c0,0,0,0,0,0h0
				l-0.6-0.7l0,0v0.6c0,0,0,0,0,0h-0.1c0,0,0,0,0,0V179.9L142.4,179.9z"/>
			<path fill="#3C4352" d="M143.6,179.9C143.6,179.9,143.6,179.9,143.6,179.9l0.6,0c0,0,0,0,0,0v0.1c0,0,0,0,0,0h-0.4v0.2h0.4
				c0,0,0,0,0,0v0.1c0,0,0,0,0,0h-0.4v0.2h0.4c0,0,0,0,0,0v0.1c0,0,0,0,0,0h-0.6c0,0,0,0,0,0L143.6,179.9L143.6,179.9z"/>
			<path fill="#3C4352" d="M144.4,179.9C144.4,179.9,144.4,179.9,144.4,179.9l0.2,0c0,0,0,0,0,0l0.2,0.6l0,0l0.2-0.6c0,0,0,0,0,0h0
				c0,0,0,0,0,0l0.2,0.6l0,0l0.2-0.6c0,0,0,0,0,0h0.1c0,0,0,0,0,0l-0.3,1c0,0,0,0,0,0h0c0,0,0,0,0,0l-0.2-0.7l0,0l-0.2,0.7
				c0,0,0,0,0,0h0c0,0,0,0,0,0L144.4,179.9z"/>
			<path fill="#3C4352" d="M146.2,179.9C146.2,179.9,146.2,179.9,146.2,179.9l0.2,0c0,0,0,0,0,0l0.3,0.6l0,0l0.3-0.6c0,0,0,0,0,0
				h0.2c0,0,0,0,0,0l-0.5,1c0,0,0,0,0,0l0,0c0,0,0,0,0,0L146.2,179.9z"/>
			<path fill="#3C4352" d="M147.3,180.7L147.3,180.7c0.1-0.1,0.1-0.1,0.1-0.1c0,0,0.1,0.1,0.2,0.1c0.1,0,0.1-0.1,0.1-0.1
				s-0.1-0.1-0.2-0.2c-0.1-0.1-0.3-0.2-0.3-0.3c0-0.1,0.1-0.3,0.3-0.3c0.2,0,0.3,0.1,0.3,0.1c0,0,0,0,0,0.1l-0.1,0.1c0,0,0,0-0.1,0
				c0,0-0.1-0.1-0.2-0.1c-0.1,0-0.1,0.1-0.1,0.1c0,0.1,0.1,0.1,0.2,0.2c0.2,0.1,0.3,0.2,0.3,0.3c0,0.2-0.1,0.3-0.3,0.3
				C147.4,180.9,147.3,180.8,147.3,180.7C147.3,180.8,147.3,180.8,147.3,180.7z"/>
			<path fill="#3C4352" d="M148.6,179.9C148.6,179.9,148.7,179.9,148.6,179.9l0.4,0c0.2,0,0.3,0.2,0.3,0.3c0,0.1-0.1,0.2-0.2,0.3
				l0.2,0.4c0,0,0,0,0,0h-0.2h0l-0.2-0.4h-0.2v0.4c0,0,0,0,0,0h-0.1c0,0,0,0,0,0L148.6,179.9C148.6,179.9,148.6,179.9,148.6,179.9z
				 M149.1,180.3c0.1,0,0.2-0.1,0.2-0.2c0-0.1-0.1-0.2-0.2-0.2h-0.2v0.3L149.1,180.3L149.1,180.3z"/>
			<path fill="#3C4352" d="M149.7,179.9C149.7,179.9,149.7,179.9,149.7,179.9l0.6,0c0,0,0,0,0,0v0.1c0,0,0,0,0,0h-0.4v0.2h0.4
				c0,0,0,0,0,0v0.1c0,0,0,0,0,0h-0.4v0.2h0.4c0,0,0,0,0,0v0.1c0,0,0,0,0,0h-0.6c0,0,0,0,0,0V179.9z"/>
			<path fill="#3C4352" d="M150.8,180h-0.2c0,0,0,0,0,0v-0.1c0,0,0,0,0,0h0.7c0,0,0,0,0,0v0.1c0,0,0,0,0,0H151v0.8c0,0,0,0,0,0h-0.1
				c0,0,0,0,0,0L150.8,180L150.8,180z"/>
			<path fill="#3C4352" d="M151.4,179.9C151.4,179.9,151.4,179.9,151.4,179.9l0.2,0c0,0,0,0,0,0v0.6c0,0.1,0.1,0.2,0.2,0.2
				c0.1,0,0.2-0.1,0.2-0.2v-0.6c0,0,0,0,0,0h0.1c0,0,0,0,0,0v0.6c0,0.2-0.2,0.4-0.4,0.4s-0.4-0.2-0.4-0.4V179.9z"/>
			<path fill="#3C4352" d="M152.6,179.9C152.6,179.9,152.6,179.9,152.6,179.9l0.4,0c0.2,0,0.3,0.2,0.3,0.3c0,0.1-0.1,0.2-0.2,0.3
				l0.2,0.4c0,0,0,0,0,0h-0.2h0l-0.2-0.4h-0.2v0.4c0,0,0,0,0,0h-0.1c0,0,0,0,0,0V179.9L152.6,179.9z M153,180.3
				c0.1,0,0.2-0.1,0.2-0.2c0-0.1-0.1-0.2-0.2-0.2h-0.2v0.3L153,180.3L153,180.3z"/>
			<path fill="#3C4352" d="M153.7,179.9L153.7,179.9L153.7,179.9l0.7,0.6l0,0v-0.6c0,0,0,0,0,0h0.1c0,0,0,0,0,0v1c0,0,0,0,0,0h0
				l-0.6-0.7l0,0v0.6c0,0,0,0,0,0h-0.1c0,0,0,0,0,0V179.9L153.7,179.9z"/>
			<path fill="#3C4352" d="M154.9,179.9C154.9,179.9,154.9,179.9,154.9,179.9l0.2,0c0,0,0,0,0,0v1c0,0,0,0,0,0h-0.1c0,0,0,0,0,0
				V179.9z"/>
			<path fill="#3C4352" d="M155.4,179.9L155.4,179.9L155.4,179.9l0.7,0.6l0,0v-0.6c0,0,0,0,0,0h0.1c0,0,0,0,0,0v1c0,0,0,0,0,0h0
				l-0.6-0.7l0,0v0.6c0,0,0,0,0,0h-0.1c0,0,0,0,0,0V179.9z"/>
			<path fill="#3C4352" d="M157.1,179.9c0.1,0,0.2,0.1,0.4,0.1v0l-0.1,0.1h0c-0.1-0.1-0.2-0.1-0.2-0.1c-0.2,0-0.3,0.2-0.3,0.3
				s0.2,0.3,0.3,0.3c0.1,0,0.2,0,0.2,0v-0.1h-0.1c0,0,0,0,0,0v-0.1c0,0,0,0,0,0h0.3c0,0,0,0,0,0v0.4v0c0,0-0.2,0.1-0.4,0.1
				c-0.3,0-0.5-0.2-0.5-0.5C156.5,180.1,156.8,179.9,157.1,179.9z"/>
		</g>
		
			<line fill="none" stroke="#8BC541" stroke-linecap="round" stroke-linejoin="round" stroke-miterlimit="10" x1="136.9" y1="183.8" x2="172.6" y2="183.8"/>
		<path fill="none" stroke="#8BC541" stroke-linecap="round" stroke-linejoin="round" stroke-miterlimit="10" d="M172.3,214.4h-35.1
			c-0.2,0-0.3-0.1-0.3-0.3v-36.7c0-0.2,0.1-0.3,0.3-0.3h35.1c0.2,0,0.3,0.1,0.3,0.3v36.7C172.6,214.2,172.4,214.4,172.3,214.4z"/>
		<g>
			<path fill="none" stroke="#8BC541" stroke-linecap="round" stroke-linejoin="round" stroke-miterlimit="10" d="M168.2,201.1h-2.8
				c-0.2,0-0.3-0.1-0.3-0.3V198c0-0.2,0.2-0.3,0.3-0.3h2.8c0.2,0,0.3,0.1,0.3,0.3v2.8C168.5,201,168.4,201.1,168.2,201.1z"/>
			<path fill="none" stroke="#3C4352" stroke-miterlimit="10" d="M168.2,207h-2.8c-0.2,0-0.3-0.1-0.3-0.3v-2.8
				c0-0.2,0.2-0.3,0.3-0.3h2.8c0.2,0,0.3,0.2,0.3,0.3v2.8C168.5,206.8,168.4,207,168.2,207z"/>
		</g>
		<path fill="none" stroke="#8BC541" stroke-linecap="round" stroke-linejoin="round" stroke-miterlimit="10" d="M161,198.1
			c0-5.2-4.2-9.3-9.3-9.3s-9.3,4.2-9.3,9.3c0,1.1,0.2,2.2,0.6,3.2"/>
		<path fill="none" stroke="#3C4352" stroke-linecap="round" stroke-linejoin="round" stroke-miterlimit="10" d="M142.8,201.3
			c1.3,3.6,4.7,6.1,8.8,6.1c5.2,0,9.3-4.2,9.3-9.3h-9.3L142.8,201.3z"/>
		<path fill="none" stroke="#3C4352" stroke-width="0.5" stroke-miterlimit="10" d="M140.1,181c-0.3,0-0.6-0.3-0.6-0.6
			c0-0.3,0.3-0.6,0.6-0.6c0.3,0,0.6,0.3,0.6,0.6C140.7,180.7,140.4,181,140.1,181z"/>
	</g>
	<g>
		
			<line fill="none" stroke="#8BC541" stroke-linecap="round" stroke-linejoin="round" stroke-miterlimit="10" x1="136.9" y1="142.5" x2="172.6" y2="142.5"/>
		<path fill="none" stroke="#8BC541" stroke-linecap="round" stroke-linejoin="round" stroke-miterlimit="10" d="M172.3,173.1h-35.1
			c-0.2,0-0.3-0.1-0.3-0.3v-36.7c0-0.2,0.1-0.3,0.3-0.3h35.1c0.2,0,0.3,0.1,0.3,0.3v36.7C172.7,172.9,172.5,173.1,172.3,173.1z"/>
		<g>
			<path fill="none" stroke="#3C4352" stroke-linecap="round" stroke-linejoin="round" stroke-miterlimit="10" d="M147.1,152.1
				c0.3,0.6,0.1,1-0.6,1h-5.8c-0.7,0-0.9-0.5-0.6-1l2.9-5.1c0.3-0.6,0.8-0.6,1.2,0L147.1,152.1z"/>
			<g>
				<path fill="#3C4352" d="M149.8,146.7c0-0.1,0.1-0.2,0.2-0.2h0.4c0.1,0,0.2,0.1,0.2,0.2v4.1c0,1.1,0.7,2,1.8,2s1.9-0.9,1.9-2
					v-4.1c0-0.1,0.1-0.2,0.2-0.2h0.4c0.1,0,0.2,0.1,0.2,0.2v4.2c0,1.5-1.1,2.6-2.6,2.6c-1.6,0-2.6-1.2-2.6-2.6L149.8,146.7
					L149.8,146.7z"/>
				<path fill="#3C4352" d="M157,146.7c0-0.1,0.1-0.2,0.2-0.2h2.2c1.2,0,2.2,1,2.2,2.2c0,1.2-1,2.2-2.2,2.2h-1.6v2.3
					c0,0.1-0.1,0.2-0.2,0.2h-0.4c-0.1,0-0.2-0.1-0.2-0.2C157,153.2,157,146.7,157,146.7z M159.3,150.2c0.8,0,1.5-0.7,1.5-1.5
					c0-0.8-0.7-1.4-1.5-1.4h-1.6v2.9L159.3,150.2L159.3,150.2z"/>
			</g>
		</g>
		<g>
			<path fill="#8BC541" d="M140,166.1l0.2-0.2c0,0,0.1,0,0.1,0c0,0,0.2,0.2,0.4,0.2c0.2,0,0.3-0.1,0.3-0.3c0-0.2-0.2-0.3-0.4-0.3
				h-0.2c0,0-0.1,0-0.1-0.1v-0.2c0,0,0-0.1,0.1-0.1h0.2c0.2,0,0.4-0.1,0.4-0.3c0-0.2-0.2-0.3-0.3-0.3s-0.3,0.1-0.3,0.2
				c0,0-0.1,0-0.1,0l-0.2-0.2c0,0,0-0.1,0-0.1c0,0,0.2-0.3,0.6-0.3c0.4,0,0.7,0.2,0.7,0.6c0,0.2-0.2,0.4-0.3,0.5l0,0
				c0.2,0.1,0.4,0.2,0.4,0.5c0,0.4-0.3,0.6-0.7,0.6C140.2,166.5,140,166.3,140,166.1C140,166.1,140,166.1,140,166.1z"/>
			<path fill="#8BC541" d="M141.9,165.9v-0.3l1.2-1.4c0,0,0,0,0.1,0h0.2c0,0,0.1,0,0.1,0.1v1.4h0.2c0,0,0.1,0,0.1,0.1v0.2
				c0,0,0,0.1-0.1,0.1h-0.2v0.4c0,0,0,0.1-0.1,0.1H143c0,0-0.1,0-0.1-0.1v-0.4L141.9,165.9C141.9,166,141.9,165.9,141.9,165.9z
				 M142.9,165.6v-0.8l-0.7,0.8H142.9z"/>
			<path fill="#8BC541" d="M144.7,165.1c0.1,0,0.2,0,0.3,0.1v-0.9c0,0,0-0.1,0.1-0.1h0.3c0,0,0.1,0,0.1,0.1v2.1c0,0,0,0.1-0.1,0.1
				h-0.1c0,0-0.1,0-0.1-0.1l0-0.1c0,0-0.2,0.2-0.4,0.2c-0.3,0-0.6-0.3-0.6-0.7C144,165.4,144.3,165.1,144.7,165.1z M144.7,166.1
				c0.2,0,0.2-0.1,0.3-0.2v-0.4c0,0-0.1-0.1-0.2-0.1c-0.2,0-0.3,0.2-0.3,0.3C144.4,166,144.5,166.1,144.7,166.1z"/>
			<path fill="#8BC541" d="M147.2,164.8l-0.3,0.1c0,0-0.1,0-0.1,0l0-0.2c0,0,0,0,0-0.1l0.5-0.4h0.2c0,0,0.1,0,0.1,0.1v2.1
				c0,0,0,0.1-0.1,0.1h-0.3c0,0-0.1,0-0.1-0.1L147.2,164.8L147.2,164.8z"/>
			<path fill="#8BC541" d="M148.5,166.1c0.2-0.1,0.6-0.2,0.7-0.6c-0.1,0-0.2,0.1-0.4,0.1c-0.3,0-0.7-0.2-0.7-0.7
				c0-0.4,0.3-0.7,0.7-0.7c0.5,0,0.8,0.4,0.8,0.9c0,0.9-0.8,1.3-1.1,1.4c0,0-0.1,0-0.1,0L148.5,166.1
				C148.5,166.2,148.5,166.2,148.5,166.1z M149.4,165c0-0.2-0.1-0.5-0.4-0.5c-0.2,0-0.4,0.2-0.4,0.4c0,0.2,0.2,0.4,0.4,0.4
				S149.3,165.2,149.4,165z"/>
			<path fill="#8BC541" d="M150.3,164.3C150.3,164.2,150.3,164.2,150.3,164.3l0.3-0.1c0,0,0.1,0,0.1,0.1v1c0.1-0.1,0.2-0.1,0.3-0.1
				c0.4,0,0.6,0.3,0.6,0.6v0.6c0,0,0,0.1-0.1,0.1h-0.2c0,0-0.1,0-0.1-0.1v-0.6c0-0.2-0.1-0.3-0.2-0.3s-0.2,0.1-0.3,0.2v0.7
				c0,0,0,0.1-0.1,0.1h-0.3c0,0-0.1,0-0.1-0.1C150.3,166.4,150.3,164.3,150.3,164.3z"/>
			<path fill="#8BC541" d="M152.2,165.2C152.2,165.2,152.2,165.2,152.2,165.2l0.2-0.1c0,0,0.1,0,0.1,0l0,0.1c0-0.1,0.2-0.2,0.4-0.2
				c0.2,0,0.3,0.1,0.2,0.1l-0.1,0.2c0,0-0.1,0-0.1,0s-0.1,0-0.1,0c-0.1,0-0.2,0.1-0.2,0.1v0.8c0,0,0,0.1-0.1,0.1h-0.2
				c0,0-0.1,0-0.1-0.1L152.2,165.2L152.2,165.2z"/>
		</g>
		<g>
			<path fill="#8BC541" d="M140.1,159.5C140.1,159.5,140.2,159.4,140.1,159.5l0.2-0.1c0,0,0.1,0,0.1,0.1v1.5h0.7c0,0,0.1,0,0.1,0.1
				v0.1c0,0,0,0.1-0.1,0.1h-0.8c0,0-0.1,0-0.1-0.1L140.1,159.5L140.1,159.5z"/>
			<path fill="#8BC541" d="M141.3,161.1l0.7-1.6l0,0h0c0,0,0,0,0,0l0.7,1.6c0,0,0,0.1,0,0.1h-0.1c0,0,0,0,0,0l-0.2-0.4h-0.9
				l-0.2,0.4l0,0L141.3,161.1C141.3,161.2,141.3,161.1,141.3,161.1z M142.5,160.6c-0.1-0.3-0.2-0.5-0.4-0.8h0l-0.4,0.8H142.5z"/>
			<path fill="#8BC541" d="M143.2,160.9C143.2,160.9,143.2,160.9,143.2,160.9c0.1-0.1,0.1-0.1,0.1-0.1c0,0,0.2,0.2,0.4,0.2
				c0.2,0,0.3-0.1,0.3-0.3s-0.2-0.3-0.4-0.4s-0.4-0.2-0.4-0.5c0-0.2,0.1-0.4,0.5-0.4c0.2,0,0.4,0.1,0.4,0.1s0,0,0,0.1c0,0,0,0,0,0.1
				c0,0-0.1,0-0.1,0c0,0-0.2-0.1-0.3-0.1c-0.2,0-0.3,0.2-0.3,0.3c0,0.2,0.1,0.2,0.3,0.3c0.3,0.1,0.6,0.2,0.6,0.6
				c0,0.2-0.2,0.4-0.5,0.4S143.3,161,143.2,160.9C143.2,161,143.2,161,143.2,160.9z"/>
			<path fill="#8BC541" d="M145,159.6h-0.4c0,0-0.1,0-0.1-0.1v-0.1c0,0,0-0.1,0.1-0.1h1.1c0,0,0.1,0,0.1,0.1v0.1c0,0,0,0.1-0.1,0.1
				h-0.4v1.5c0,0,0,0.1-0.1,0.1H145c0,0-0.1,0-0.1-0.1L145,159.6L145,159.6z"/>
			<path fill="#8BC541" d="M146.7,159.5C146.7,159.5,146.7,159.4,146.7,159.5l0.6-0.1c0.5,0,0.9,0.4,0.9,0.9c0,0.5-0.4,0.9-0.9,0.9
				h-0.6c0,0,0,0,0-0.1V159.5z M147.3,161c0.4,0,0.7-0.3,0.7-0.7s-0.3-0.7-0.7-0.7h-0.4v1.4L147.3,161L147.3,161z"/>
			<path fill="#8BC541" d="M149.5,159.4c0.5,0,0.9,0.4,0.9,0.9c0,0.5-0.4,0.9-0.9,0.9c-0.5,0-0.9-0.4-0.9-0.9
				C148.6,159.9,149,159.4,149.5,159.4z M149.5,161c0.4,0,0.7-0.3,0.7-0.7c0-0.4-0.3-0.7-0.7-0.7s-0.7,0.3-0.7,0.7
				C148.8,160.7,149.1,161,149.5,161z"/>
			<path fill="#8BC541" d="M150.7,159.5C150.7,159.5,150.7,159.4,150.7,159.5l0.1-0.1c0,0,0,0,0,0l0.3,1.3l0,0l0.4-1.3l0,0h0
				c0,0,0,0,0,0l0.4,1.3l0,0l0.3-1.3c0,0,0,0,0,0h0.1c0,0,0.1,0,0,0.1l-0.5,1.6c0,0,0,0,0,0h0c0,0,0,0,0,0l-0.4-1.3l0,0l-0.4,1.3
				l0,0h0c0,0,0,0,0,0L150.7,159.5z"/>
			<path fill="#8BC541" d="M153.2,159.5C153.2,159.4,153.2,159.4,153.2,159.5l0.1,0l1.1,1.4l0,0v-1.3c0,0,0-0.1,0.1-0.1h0.1
				c0,0,0.1,0,0.1,0.1v1.6c0,0,0,0-0.1,0h0l-1.1-1.4l0,0v1.3c0,0,0,0.1-0.1,0.1h-0.1c0,0-0.1,0-0.1-0.1L153.2,159.5L153.2,159.5
				L153.2,159.5z"/>
			<path fill="#8BC541" d="M155.4,159.6H155c0,0-0.1,0-0.1-0.1v-0.1c0,0,0-0.1,0.1-0.1h1.1c0,0,0.1,0,0.1,0.1v0.1c0,0,0,0.1-0.1,0.1
				h-0.4v1.5c0,0,0,0.1-0.1,0.1h-0.1c0,0-0.1,0-0.1-0.1L155.4,159.6L155.4,159.6z"/>
			<path fill="#8BC541" d="M156.5,159.5C156.5,159.5,156.5,159.4,156.5,159.5l0.2-0.1c0,0,0.1,0,0.1,0.1v1.6c0,0,0,0.1-0.1,0.1h-0.1
				c0,0-0.1,0-0.1-0.1V159.5z"/>
			<path fill="#8BC541" d="M157.5,159.5C157.5,159.4,157.6,159.4,157.5,159.5L157.5,159.5C157.6,159.4,157.6,159.4,157.5,159.5
				l0.6,1.4l0,0l0.5-1.4l0,0h0c0,0,0,0,0,0l0.3,1.6c0,0,0,0.1,0,0.1h-0.1c0,0,0,0,0,0l-0.2-1.3l0,0l-0.5,1.3l0,0l0,0c0,0,0,0,0,0
				l-0.5-1.3l0,0l-0.2,1.3c0,0,0,0,0,0h-0.1c0,0-0.1,0,0-0.1L157.5,159.5z"/>
			<path fill="#8BC541" d="M159.6,159.5C159.6,159.5,159.6,159.4,159.6,159.5l1-0.1c0,0,0.1,0,0.1,0.1v0.1c0,0,0,0.1-0.1,0.1h-0.8
				v0.6h0.7c0,0,0.1,0,0.1,0.1v0.1c0,0,0,0.1-0.1,0.1h-0.7v0.6h0.8c0,0,0.1,0,0.1,0.1v0.1c0,0,0,0.1-0.1,0.1h-1c0,0-0.1,0-0.1-0.1
				C159.6,161.1,159.6,159.5,159.6,159.5z"/>
		</g>
		<g>
			<path fill="#3C4352" d="M142.3,138.5C142.3,138.5,142.3,138.5,142.3,138.5l0.2,0c0,0,0,0,0,0l0.2,0.6l0,0l0.2-0.6c0,0,0,0,0,0h0
				c0,0,0,0,0,0l0.2,0.6l0,0l0.2-0.6c0,0,0,0,0,0h0.1c0,0,0,0,0,0l-0.3,1c0,0,0,0,0,0h0c0,0,0,0,0,0l-0.2-0.7l0,0l-0.2,0.7
				c0,0,0,0,0,0h0c0,0,0,0,0,0L142.3,138.5z"/>
			<path fill="#3C4352" d="M143.8,138.5L143.8,138.5l0.6,0c0,0,0,0,0,0v0.1c0,0,0,0,0,0H144v0.2h0.4c0,0,0,0,0,0v0.1c0,0,0,0,0,0
				H144v0.2h0.4c0,0,0,0,0,0v0.1c0,0,0,0,0,0h-0.6c0,0,0,0,0,0V138.5z"/>
			<path fill="#3C4352" d="M144.7,138.5L144.7,138.5l0.4,0c0.2,0,0.3,0.1,0.3,0.3c0,0.1-0.1,0.2-0.2,0.2c0.1,0,0.2,0.1,0.2,0.2
				s-0.2,0.3-0.3,0.3h-0.3c0,0,0,0,0,0L144.7,138.5L144.7,138.5L144.7,138.5z M145.1,138.9c0.1,0,0.1-0.1,0.1-0.1s-0.1-0.1-0.1-0.1
				h-0.2v0.2H145.1L145.1,138.9z M145.1,139.3c0.1,0,0.1-0.1,0.1-0.1s-0.1-0.1-0.2-0.1h-0.2v0.2H145.1L145.1,139.3z"/>
			<path fill="#3C4352" d="M145.7,139.4L145.7,139.4c0.1-0.1,0.1-0.1,0.1-0.1c0,0,0.1,0.1,0.2,0.1c0.1,0,0.1-0.1,0.1-0.1
				s-0.1-0.1-0.2-0.2c-0.1-0.1-0.3-0.2-0.3-0.3c0-0.1,0.1-0.3,0.3-0.3c0.2,0,0.2,0.1,0.3,0.1c0,0,0,0,0,0.1l-0.1,0.1c0,0,0,0-0.1,0
				c0,0-0.1-0.1-0.2-0.1c-0.1,0-0.1,0.1-0.1,0.1c0,0.1,0.1,0.1,0.2,0.2c0.2,0.1,0.3,0.2,0.3,0.3c0,0.2-0.1,0.3-0.3,0.3
				C145.8,139.5,145.7,139.4,145.7,139.4C145.6,139.4,145.6,139.4,145.7,139.4z"/>
			<path fill="#3C4352" d="M146.6,138.5C146.6,138.5,146.6,138.5,146.6,138.5l0.2,0c0,0,0,0,0,0v1c0,0,0,0,0,0h-0.1c0,0,0,0,0,0
				V138.5z"/>
			<path fill="#3C4352" d="M147.2,138.7H147c0,0,0,0,0,0v-0.1c0,0,0,0,0,0h0.7c0,0,0,0,0,0v0.1c0,0,0,0,0,0h-0.2v0.8c0,0,0,0,0,0
				h-0.1c0,0,0,0,0,0L147.2,138.7L147.2,138.7z"/>
			<path fill="#3C4352" d="M147.9,138.5L147.9,138.5l0.6,0c0,0,0,0,0,0v0.1c0,0,0,0,0,0h-0.4v0.2h0.3c0,0,0,0,0,0v0.1c0,0,0,0,0,0
				h-0.4v0.2h0.4c0,0,0,0,0,0v0.1c0,0,0,0,0,0h-0.6c0,0,0,0,0,0L147.9,138.5L147.9,138.5z"/>
			<path fill="#3C4352" d="M149.3,138.5L149.3,138.5l0.2,0c0,0,0,0,0,0v0.6c0,0.1,0.1,0.2,0.2,0.2c0.1,0,0.2-0.1,0.2-0.2v-0.6
				c0,0,0,0,0,0h0.1c0,0,0,0,0,0v0.6c0,0.2-0.2,0.4-0.4,0.4c-0.2,0-0.4-0.2-0.4-0.4V138.5L149.3,138.5z"/>
			<path fill="#3C4352" d="M150.4,138.5L150.4,138.5l0.4,0c0.2,0,0.3,0.2,0.3,0.3c0,0.2-0.2,0.3-0.3,0.3h-0.2v0.3c0,0,0,0,0,0h-0.1
				c0,0,0,0,0,0C150.4,139.5,150.4,138.5,150.4,138.5z M150.8,139c0.1,0,0.2-0.1,0.2-0.2s-0.1-0.2-0.2-0.2h-0.2v0.3L150.8,139
				L150.8,139z"/>
			<path fill="#3C4352" d="M151.5,138.7h-0.2c0,0,0,0,0,0v-0.1c0,0,0,0,0,0h0.6c0,0,0,0,0,0v0.1c0,0,0,0,0,0h-0.2v0.8c0,0,0,0,0,0
				h-0.1c0,0,0,0,0,0C151.5,139.5,151.5,138.7,151.5,138.7z"/>
			<path fill="#3C4352" d="M152.1,138.5C152.1,138.5,152.2,138.5,152.1,138.5l0.2,0c0,0,0,0,0,0v1c0,0,0,0,0,0h-0.1c0,0,0,0,0,0
				V138.5z"/>
			<path fill="#3C4352" d="M152.8,138.5C152.8,138.5,152.8,138.5,152.8,138.5L152.8,138.5L152.8,138.5l0.4,0.7l0,0l0.3-0.7
				c0,0,0,0,0,0h0c0,0,0,0,0,0l0.2,1c0,0,0,0,0,0h-0.1c0,0,0,0,0,0l-0.1-0.6l0,0l-0.2,0.6c0,0,0,0,0,0h0c0,0,0,0,0,0l-0.2-0.6l0,0
				l-0.1,0.6c0,0,0,0,0,0h-0.1c0,0,0,0,0,0L152.8,138.5z"/>
			<path fill="#3C4352" d="M154,138.5L154,138.5l0.6,0c0,0,0,0,0,0v0.1c0,0,0,0,0,0h-0.4v0.2h0.4c0,0,0,0,0,0v0.1c0,0,0,0,0,0h-0.4
				v0.2h0.4c0,0,0,0,0,0v0.1c0,0,0,0,0,0h-0.6c0,0,0,0,0,0V138.5z"/>
		</g>
		<path fill="none" stroke="#3C4352" stroke-width="0.5" stroke-miterlimit="10" d="M139.9,139.7c-0.4,0-0.6-0.3-0.6-0.6
			s0.3-0.6,0.6-0.6s0.6,0.3,0.6,0.6C140.6,139.4,140.3,139.7,139.9,139.7z"/>
	</g>
</g>
</svg>
