<?xml version="1.0" encoding="utf-8"?>
<!-- Generator: Adobe Illustrator 18.1.0, SVG Export Plug-In . SVG Version: 6.00 Build 0)  -->
<!DOCTYPE svg PUBLIC "-//W3C//DTD SVG 1.1//EN" "http://www.w3.org/Graphics/SVG/1.1/DTD/svg11.dtd">
<svg version="1.1" id="Layer_1" xmlns="http://www.w3.org/2000/svg" xmlns:xlink="http://www.w3.org/1999/xlink" x="0px" y="0px"
	 viewBox="0 0 58 58" enable-background="new 0 0 58 58" xml:space="preserve">
<g>
	<path fill="#8CC640" d="M29,58C13,58,0,45,0,29S13,0,29,0s29,13,29,29S45,58,29,58z M29,2.6C14.4,2.6,2.6,14.4,2.6,29
		S14.4,55.4,29,55.4S55.4,43.6,55.4,29S43.6,2.6,29,2.6z"/>
</g>
<g>
	<path fill="#8CC640" d="M30,45.3v-2c8,0,14.1-6.2,14.1-14.1S38,15.1,30,15.1v-2c9,0,16.1,7.1,16.1,16.1S39,45.3,30,45.3z"/>
</g>
<path fill="#8CC640" d="M29,13.1c-8,0-16.1,7.2-16.1,16.1S21,45.3,29,45.3V13.1z"/>
<g>
	<path fill="#8CC640" d="M29,51c-0.6,0-1-0.4-1-1V8c0-0.6,0.4-1,1-1s1,0.4,1,1v42C30,50.6,29.6,51,29,51z"/>
</g>
</svg>
