<?xml version="1.0" encoding="utf-8"?>
<!-- Generator: Adobe Illustrator 18.1.0, SVG Export Plug-In . SVG Version: 6.00 Build 0)  -->
<!DOCTYPE svg PUBLIC "-//W3C//DTD SVG 1.1//EN" "http://www.w3.org/Graphics/SVG/1.1/DTD/svg11.dtd">
<svg version="1.1" id="Layer_4" xmlns="http://www.w3.org/2000/svg" xmlns:xlink="http://www.w3.org/1999/xlink" x="0px" y="0px"
	 viewBox="0 0 1340.1 700" enable-background="new 0 0 1340.1 700" xml:space="preserve">
<g>
	<g>
		<path fill="#F0F4F7" d="M64.4,603.2H91c2.4,0,4.6-0.8,6.5-2.2l0,0c1.9-1.4,4.2-2.2,6.5-2.2h25.7c3.4,0,6,2.9,5.8,6.2l-3.1,33.3
			c-0.2,3.1-2.7,5.4-5.8,5.4h-59c-3,0-5.6-2.3-5.8-5.4l-3.2-28.9C58.3,606.1,61,603.2,64.4,603.2z"/>
	</g>
	<g>
		<path fill="#F0F4F7" d="M66.4,591.1v6.9H91c2.4,0,4.6-0.8,6.5-2.2h0c1.9-1.4,4.2-2.2,6.5-2.2h23.7v-2.5c0-3.2-2.6-5.8-5.8-5.8
			H72.2C69,585.3,66.4,587.9,66.4,591.1z"/>
	</g>
</g>
<g>
	<g>
		<path fill="#F0F4F7" d="M454.8,485.6h33.5c3,0,5.9-1,8.2-2.7h0c2.4-1.8,5.3-2.7,8.2-2.7h32.4c4.3,0,7.6,3.6,7.3,7.8l-3.9,41.9
			c-0.3,3.8-3.5,6.8-7.3,6.8h-74.3c-3.8,0-7-2.9-7.3-6.8l-4.1-36.4C447.2,489.2,450.6,485.6,454.8,485.6z"/>
	</g>
	<g>
		<path fill="#F0F4F7" d="M457.4,470.4v8.6h30.9c3,0,5.9-1,8.2-2.7h0c2.4-1.8,5.3-2.7,8.2-2.7h29.8v-3.2c0-4-3.3-7.3-7.3-7.3h-62.5
			C460.7,463,457.4,466.3,457.4,470.4z"/>
	</g>
</g>
<g>
	<g>
		<path fill="#F0F4F7" d="M735.8,211.1h27.2c2.4,0,4.8-0.8,6.7-2.2l0,0c1.9-1.4,4.3-2.2,6.7-2.2h26.4c3.5,0,6.2,2.9,6,6.4l-3.2,34.1
			c-0.2,3.1-2.8,5.6-6,5.6h-60.6c-3.1,0-5.7-2.4-6-5.5l-3.3-29.7C729.6,214.1,732.4,211.1,735.8,211.1z"/>
	</g>
	<g>
		<path fill="#F0F4F7" d="M737.9,198.7v7h25.2c2.4,0,4.8-0.8,6.7-2.2l0,0c1.9-1.4,4.3-2.2,6.7-2.2h24.3v-2.6c0-3.3-2.7-6-6-6h-50.9
			C740.6,192.7,737.9,195.4,737.9,198.7z"/>
	</g>
</g>
<g>
	<g>
		<path fill="#F0F4F7" d="M329.5,85.5H356c2.4,0,4.6-0.8,6.5-2.2v0c1.9-1.4,4.2-2.2,6.5-2.2h25.7c3.4,0,6,2.9,5.8,6.2l-3.1,33.3
			c-0.2,3.1-2.7,5.4-5.8,5.4h-59c-3,0-5.6-2.3-5.8-5.4l-3.2-28.9C323.4,88.4,326.1,85.5,329.5,85.5z"/>
	</g>
	<g>
		<path fill="#F0F4F7" d="M331.5,73.4v6.9H356c2.4,0,4.6-0.8,6.5-2.2l0,0c1.9-1.4,4.2-2.2,6.5-2.2h23.7v-2.5c0-3.2-2.6-5.8-5.8-5.8
			h-49.6C334.1,67.6,331.5,70.2,331.5,73.4z"/>
	</g>
</g>
<g>
	<g>
		<path fill="#F0F4F7" d="M266.5,467.9c-6.1,0-11.1-4.9-11.1-11.1v-18.2h-53.1c-3.7,0-6.6,3-6.6,6.6v118c0,3.7,3,6.6,6.6,6.6h73.7
			c3.7,0,6.6-3,6.6-6.6v-95.5H266.5z M274,531.5h-69.6v-7.9H274V531.5z M274,514c0,0.2-0.1,0.3-0.3,0.3h-69.3v-7.9h69.3
			c0.2,0,0.3,0.1,0.3,0.3V514z M274,496.8h-69.6V489H274V496.8z"/>
	</g>
	<g>
		<path fill="#F0F4F7" d="M282.7,460h-13.1c-3.7,0-6.6-3-6.6-6.6v-14.7L282.7,460z"/>
	</g>
</g>
<g>
	<g>
		<path fill="#F0F4F7" d="M656,352.3c-3.9,0-7.1-3.2-7.1-7.1v-11.7h-34.2c-2.4,0-4.3,1.9-4.3,4.3v76c0,2.4,1.9,4.3,4.3,4.3h47.5
			c2.4,0,4.3-1.9,4.3-4.3v-61.5H656z M660.8,393.3H616v-5.1h44.8V393.3z M660.8,382c0,0.1-0.1,0.2-0.2,0.2H616v-5.1h44.6
			c0.1,0,0.2,0.1,0.2,0.2V382z M660.8,370.9H616v-5.1h44.8V370.9z"/>
	</g>
	<g>
		<path fill="#F0F4F7" d="M666.4,347.3H658c-2.4,0-4.3-1.9-4.3-4.3v-9.5L666.4,347.3z"/>
	</g>
</g>
<g>
	<g>
		<path fill="#F0F4F7" d="M114.6,76.1c-3.9,0-7.1-3.2-7.1-7.1V57.3H73.3c-2.4,0-4.3,1.9-4.3,4.3v76c0,2.4,1.9,4.3,4.3,4.3h47.5
			c2.4,0,4.3-1.9,4.3-4.3V76.1H114.6z M119.5,117.1H74.7V112h44.8V117.1z M119.5,105.8c0,0.1-0.1,0.2-0.2,0.2H74.7v-5.1h44.6
			c0.1,0,0.2,0.1,0.2,0.2V105.8z M119.5,94.8H74.7v-5.1h44.8V94.8z"/>
	</g>
	<g>
		<path fill="#F0F4F7" d="M125.1,71.1h-8.4c-2.4,0-4.3-1.9-4.3-4.3v-9.5L125.1,71.1z"/>
	</g>
</g>
<g>
	<g>
		<path fill="#F0F4F7" d="M137.8,344H56.3c-1.2,0-2.3-1-2.3-2.3v0c0-1.2,1-2.3,2.3-2.3h81.5c1.2,0,2.3,1,2.3,2.3v0
			C140.1,343,139,344,137.8,344z"/>
	</g>
	<g>
		<g>
			<path fill="#F0F4F7" d="M125,403.1h-5.1l5.8,10.4c0.6,1,1.8,1.4,2.8,1c1.2-0.5,1.8-2,1.1-3.2L125,403.1z"/>
		</g>
		<g>
			<path fill="#F0F4F7" d="M70.3,403.1l-4.4,7.8c-0.7,1.2-0.1,2.7,1.1,3.2c1,0.4,2.3,0,2.8-1l5.6-10H70.3z"/>
		</g>
	</g>
	<g>
		<path fill="#F0F4F7" d="M60.7,349.7v48.1h73.8v-48.1H60.7z M97.6,389.8c-8.8,0-15.9-7.1-16-15.8h16.3v-16.2
			c8.7,0.2,15.7,7.3,15.7,16C113.6,382.7,106.4,389.8,97.6,389.8z"/>
	</g>
</g>
<g>
	<g>
		<path fill="#F0F4F7" d="M676.6,578.6H596c-1.2,0-2.2-1-2.2-2.2v0c0-1.2,1-2.2,2.2-2.2h80.5c1.2,0,2.2,1,2.2,2.2v0
			C678.8,577.6,677.8,578.6,676.6,578.6z"/>
	</g>
	<g>
		<g>
			<path fill="#F0F4F7" d="M664,637h-5.1l5.8,10.3c0.5,1,1.7,1.4,2.8,1c1.2-0.5,1.7-2,1.1-3.1L664,637z"/>
		</g>
		<g>
			<path fill="#F0F4F7" d="M609.9,637l-4.3,7.8c-0.6,1.2-0.1,2.6,1.1,3.1c1,0.4,2.2,0,2.8-1l5.6-9.9H609.9z"/>
		</g>
	</g>
	<g>
		<path fill="#F0F4F7" d="M600.3,584.2v47.6h72.9v-47.6H600.3z M636.8,623.8c-8.7,0-15.7-7-15.8-15.6h16.1v-16
			c8.6,0.2,15.6,7.2,15.6,15.8C652.7,616.7,645.6,623.8,636.8,623.8z"/>
	</g>
</g>
<g>
	<g>
		<path fill="#F0F4F7" d="M551,186.7H441c-1.7,0-3-1.4-3-3v0c0-1.7,1.4-3,3-3H551c1.7,0,3,1.4,3,3v0
			C554,185.3,552.6,186.7,551,186.7z"/>
	</g>
	<g>
		<g>
			<path fill="#F0F4F7" d="M533.7,266.4h-6.9l7.9,14c0.7,1.3,2.4,1.9,3.8,1.3c1.7-0.7,2.4-2.7,1.5-4.3L533.7,266.4z"/>
		</g>
		<g>
			<path fill="#F0F4F7" d="M459.9,266.4l-5.9,10.6c-0.9,1.6-0.2,3.6,1.5,4.3c1.4,0.6,3,0,3.8-1.3l7.6-13.5H459.9z"/>
		</g>
	</g>
	<g>
		<path fill="#F0F4F7" d="M446.9,194.3v64.9h99.5v-64.9H446.9z M496.7,248.4c-11.9,0-21.5-9.5-21.6-21.4h22v-21.9
			c11.8,0.2,21.2,9.8,21.2,21.6C518.3,238.7,508.6,248.4,496.7,248.4z"/>
	</g>
</g>
<g>
	<g>
		<rect x="335.9" y="610.9" fill="#F0F4F7" width="12.5" height="24.2"/>
	</g>
	<g>
		<rect x="359.5" y="591.4" fill="#F0F4F7" width="12.5" height="43.7"/>
	</g>
	<g>
		<rect x="384.3" y="569.5" fill="#F0F4F7" width="12.5" height="65.5"/>
	</g>
	<g>
		<path fill="#F0F4F7" d="M406.6,647.7h-80.8c-1.4,0-2.6-1.2-2.6-2.6v0c0-1.4,1.2-2.6,2.6-2.6h80.8c1.4,0,2.6,1.2,2.6,2.6v0
			C409.2,646.5,408,647.7,406.6,647.7z"/>
	</g>
</g>
<g>
	<g>
		<rect x="615.8" y="101.4" fill="#F0F4F7" width="10.2" height="19.7"/>
	</g>
	<g>
		<rect x="635.1" y="85.6" fill="#F0F4F7" width="10.2" height="35.6"/>
	</g>
	<g>
		<rect x="655.3" y="67.8" fill="#F0F4F7" width="10.2" height="53.3"/>
	</g>
	<g>
		<path fill="#F0F4F7" d="M673.4,131.4h-65.7c-1.2,0-2.1-1-2.1-2.1v0c0-1.2,1-2.1,2.1-2.1h65.7c1.2,0,2.1,1,2.1,2.1v0
			C675.5,130.4,674.6,131.4,673.4,131.4z"/>
	</g>
</g>
<g>
	<g>
		<rect x="207.9" y="231.2" fill="#F0F4F7" width="12.5" height="24.2"/>
	</g>
	<g>
		<rect x="231.5" y="211.8" fill="#F0F4F7" width="12.5" height="43.7"/>
	</g>
	<g>
		<rect x="256.4" y="189.9" fill="#F0F4F7" width="12.5" height="65.5"/>
	</g>
	<g>
		<path fill="#F0F4F7" d="M278.6,268.1h-80.8c-1.4,0-2.6-1.2-2.6-2.6v0c0-1.4,1.2-2.6,2.6-2.6h80.8c1.4,0,2.6,1.2,2.6,2.6v0
			C281.2,266.9,280.1,268.1,278.6,268.1z"/>
	</g>
</g>
<g>
	<g>
		<g>
			<path fill="#F0F4F7" d="M341.8,379.8l-5.8,9.9l-7.8-12c-0.6-0.9-1.8-1.2-2.8-0.7c-1,0.5-1.3,1.6-0.8,2.4l8.7,13.4
				c0.6,1,1.6,1.5,2.8,1.5c1.1,0,2.1-0.6,2.7-1.6l6.5-11.2C344,381.2,342.8,380.6,341.8,379.8z"/>
		</g>
		<g>
			<path fill="#F0F4F7" d="M409,364.1l-11.7-15.3c-0.7-0.9-1.7-1.3-2.7-1.3c-1.1,0.1-2.1,0.7-2.6,1.7l-25.3,45.9l-9.2-15.3
				c-1,0.8-2.3,1.4-3.6,1.8l10.1,16.7c0.6,1,1.6,1.6,2.8,1.6c0,0,0,0,0.1,0c1.2,0,2.2-0.6,2.7-1.7l25.4-46.1l10.7,13.9
				c0.6,0.8,1.9,1,2.9,0.5C409.4,366,409.6,364.9,409,364.1z"/>
		</g>
	</g>
	<g>
		<path fill="#F0F4F7" d="M349.6,380c-5.4,0-9.9-4.4-9.9-9.9s4.4-9.9,9.9-9.9s9.9,4.4,9.9,9.9S355,380,349.6,380z M349.6,366.3
			c-2.1,0-3.9,1.7-3.9,3.9s1.7,3.9,3.9,3.9c2.1,0,3.9-1.7,3.9-3.9S351.7,366.3,349.6,366.3z"/>
	</g>
	<g>
		<circle fill="#F0F4F7" cx="395" cy="350.6" r="6"/>
	</g>
	<g>
		<circle fill="#F0F4F7" cx="367" cy="397.3" r="6"/>
	</g>
	<g>
		<circle fill="#F0F4F7" cx="336.2" cy="391.9" r="6"/>
	</g>
</g>
<g>
	<g>
		<g>
			<path fill="#F0F4F7" d="M731.7,502.7l-9.1,15.7l-12.2-18.9c-0.9-1.4-2.9-1.8-4.4-1.1c-1.6,0.8-2.1,2.5-1.2,3.8l13.8,21.2
				c1,1.5,2.5,2.4,4.4,2.3c1.8,0,3.3-1,4.2-2.5l10.3-17.7C735.2,504.9,733.3,503.9,731.7,502.7z"/>
		</g>
		<g>
			<path fill="#F0F4F7" d="M837.7,478l-18.5-24.1c-1-1.3-2.6-2.1-4.3-2c-1.7,0.1-3.2,1.1-4.1,2.6L771,526.9l-14.5-24.1
				c-1.7,1.2-3.6,2.2-5.6,2.9l15.9,26.3c0.9,1.6,2.6,2.5,4.3,2.5c0,0,0.1,0,0.1,0c1.8,0,3.4-1,4.3-2.6l40-72.7l16.8,21.9
				c1,1.3,3,1.6,4.5,0.8C838.3,481.1,838.7,479.3,837.7,478z"/>
		</g>
	</g>
	<g>
		<path fill="#F0F4F7" d="M744,501.3c-7.6,0-13.8-6.2-13.8-13.8s6.2-13.8,13.8-13.8s13.8,6.2,13.8,13.8S751.6,501.3,744,501.3z
			 M744,479.7c-4.3,0-7.8,3.5-7.8,7.8s3.5,7.8,7.8,7.8s7.8-3.5,7.8-7.8S748.3,479.7,744,479.7z"/>
	</g>
	<g>
		<circle fill="#F0F4F7" cx="815.6" cy="456.7" r="9.4"/>
	</g>
	<g>
		<circle fill="#F0F4F7" cx="771.4" cy="530.4" r="9.4"/>
	</g>
	<g>
		<circle fill="#F0F4F7" cx="722.9" cy="521.9" r="9.4"/>
	</g>
</g>
<g>
	<g>
		<path fill="#F0F4F7" d="M867.5,595.1h26.6c2.4,0,4.6-0.8,6.5-2.2l0,0c1.9-1.4,4.2-2.2,6.5-2.2h25.7c3.4,0,6,2.9,5.8,6.2l-3.1,33.3
			c-0.2,3.1-2.7,5.4-5.8,5.4h-59c-3,0-5.6-2.3-5.8-5.4l-3.2-28.9C861.5,598,864.1,595.1,867.5,595.1z"/>
	</g>
	<g>
		<path fill="#F0F4F7" d="M869.6,583v6.9h24.5c2.4,0,4.6-0.8,6.5-2.2l0,0c1.9-1.4,4.2-2.2,6.5-2.2h23.7V583c0-3.2-2.6-5.8-5.8-5.8
			h-49.6C872.2,577.2,869.6,579.8,869.6,583z"/>
	</g>
</g>
<g>
	<g>
		<path fill="#F0F4F7" d="M1132.6,77.3h26.6c2.4,0,4.6-0.8,6.5-2.2l0,0c1.9-1.4,4.2-2.2,6.5-2.2h25.7c3.4,0,6,2.9,5.8,6.2l-3.1,33.3
			c-0.2,3.1-2.7,5.4-5.8,5.4h-59c-3,0-5.6-2.3-5.8-5.4l-3.2-28.9C1126.5,80.2,1129.2,77.3,1132.6,77.3z"/>
	</g>
	<g>
		<path fill="#F0F4F7" d="M1134.6,65.3v6.9h24.5c2.4,0,4.6-0.8,6.5-2.2l0,0c1.9-1.4,4.2-2.2,6.5-2.2h23.7v-2.5
			c0-3.2-2.6-5.8-5.8-5.8h-49.6C1137.3,59.4,1134.6,62.1,1134.6,65.3z"/>
	</g>
</g>
<g>
	<g>
		<path fill="#F0F4F7" d="M1049.9,472.8c-3.9,0-7.1-3.2-7.1-7.1V454h-34.2c-2.4,0-4.3,1.9-4.3,4.3v76c0,2.4,1.9,4.3,4.3,4.3h47.5
			c2.4,0,4.3-1.9,4.3-4.3v-61.5H1049.9z M1054.8,513.7H1010v-5.1h44.8V513.7z M1054.8,502.4c0,0.1-0.1,0.2-0.2,0.2H1010v-5.1h44.6
			c0.1,0,0.2,0.1,0.2,0.2V502.4z M1054.8,491.4H1010v-5.1h44.8V491.4z"/>
	</g>
	<g>
		<path fill="#F0F4F7" d="M1060.4,467.7h-8.4c-2.4,0-4.3-1.9-4.3-4.3V454L1060.4,467.7z"/>
	</g>
</g>
<g>
	<g>
		<path fill="#F0F4F7" d="M1304,199.2c-3.4,0-6.2-2.8-6.2-6.2v-10.2h-29.9c-2.1,0-3.7,1.7-3.7,3.7V253c0,2.1,1.7,3.7,3.7,3.7h41.5
			c2.1,0,3.7-1.7,3.7-3.7v-53.8H1304z M1308.2,235H1269v-4.4h39.2V235z M1308.2,225.1c0,0.1-0.1,0.2-0.2,0.2h-39v-4.4h39
			c0.1,0,0.2,0.1,0.2,0.2V225.1z M1308.2,215.5H1269V211h39.2V215.5z"/>
	</g>
	<g>
		<path fill="#F0F4F7" d="M1313.1,194.8h-7.4c-2.1,0-3.7-1.7-3.7-3.7v-8.3L1313.1,194.8z"/>
	</g>
</g>
<g>
	<g>
		<path fill="#F0F4F7" d="M917.8,68c-3.9,0-7.1-3.2-7.1-7.1V49.2h-34.2c-2.4,0-4.3,1.9-4.3,4.3v76c0,2.4,1.9,4.3,4.3,4.3h47.5
			c2.4,0,4.3-1.9,4.3-4.3V68H917.8z M922.6,109h-44.8v-5.1h44.8V109z M922.6,97.7c0,0.1-0.1,0.2-0.2,0.2h-44.6v-5.1h44.6
			c0.1,0,0.2,0.1,0.2,0.2V97.7z M922.6,86.6h-44.8v-5.1h44.8V86.6z"/>
	</g>
	<g>
		<path fill="#F0F4F7" d="M928.2,63h-8.4c-2.4,0-4.3-1.9-4.3-4.3v-9.5L928.2,63z"/>
	</g>
</g>
<g>
	<g>
		<path fill="#F0F4F7" d="M940.5,340.3h-80.5c-1.2,0-2.2-1-2.2-2.2v0c0-1.2,1-2.2,2.2-2.2h80.5c1.2,0,2.2,1,2.2,2.2v0
			C942.7,339.3,941.7,340.3,940.5,340.3z"/>
	</g>
	<g>
		<g>
			<path fill="#F0F4F7" d="M927.9,398.7h-5.1l5.8,10.3c0.5,1,1.7,1.4,2.8,1c1.2-0.5,1.7-2,1.1-3.1L927.9,398.7z"/>
		</g>
		<g>
			<path fill="#F0F4F7" d="M873.8,398.7l-4.3,7.8c-0.6,1.2-0.1,2.6,1.1,3.1c1,0.4,2.2,0,2.8-1l5.6-9.9H873.8z"/>
		</g>
	</g>
	<g>
		<path fill="#F0F4F7" d="M864.2,345.9v47.6h72.9v-47.6H864.2z M900.7,385.6c-8.7,0-15.7-7-15.8-15.6H901v-16
			c8.6,0.2,15.6,7.2,15.6,15.8C916.5,378.5,909.5,385.6,900.7,385.6z"/>
	</g>
</g>
<g>
	<g>
		<path fill="#F0F4F7" d="M1328.4,465.4h-80.5c-1.2,0-2.2-1-2.2-2.2v0c0-1.2,1-2.2,2.2-2.2h80.5c1.2,0,2.2,1,2.2,2.2v0
			C1330.6,464.4,1329.6,465.4,1328.4,465.4z"/>
	</g>
	<g>
		<g>
			<path fill="#F0F4F7" d="M1315.8,523.8h-5.1l5.8,10.3c0.5,1,1.7,1.4,2.8,1c1.2-0.5,1.7-2,1.1-3.1L1315.8,523.8z"/>
		</g>
		<g>
			<path fill="#F0F4F7" d="M1261.7,523.8l-4.3,7.8c-0.6,1.2-0.1,2.6,1.1,3.1c1,0.4,2.2,0,2.8-1l5.6-9.9H1261.7z"/>
		</g>
	</g>
	<g>
		<path fill="#F0F4F7" d="M1252.2,471.1v47.6h72.9v-47.6H1252.2z M1288.6,510.7c-8.7,0-15.7-7-15.8-15.6h16.1v-16
			c8.6,0.2,15.6,7.2,15.6,15.8C1304.5,503.6,1297.4,510.7,1288.6,510.7z"/>
	</g>
</g>
<g>
	<g>
		<rect x="1132" y="602.7" fill="#F0F4F7" width="12.5" height="24.2"/>
	</g>
	<g>
		<rect x="1155.6" y="583.3" fill="#F0F4F7" width="12.5" height="43.7"/>
	</g>
	<g>
		<rect x="1180.5" y="561.4" fill="#F0F4F7" width="12.5" height="65.5"/>
	</g>
	<g>
		<path fill="#F0F4F7" d="M1202.7,639.6h-80.8c-1.4,0-2.6-1.2-2.6-2.6v0c0-1.4,1.2-2.6,2.6-2.6h80.8c1.4,0,2.6,1.2,2.6,2.6v0
			C1205.3,638.4,1204.2,639.6,1202.7,639.6z"/>
	</g>
</g>
<g>
	<g>
		<rect x="985.8" y="224.3" fill="#F0F4F7" width="19.2" height="37.2"/>
	</g>
	<g>
		<rect x="1022.1" y="194.5" fill="#F0F4F7" width="19.2" height="67.1"/>
	</g>
	<g>
		<rect x="1060.2" y="160.9" fill="#F0F4F7" width="19.2" height="100.6"/>
	</g>
	<g>
		<path fill="#F0F4F7" d="M1094.3,280.9h-124c-2.2,0-4-1.8-4-4v0c0-2.2,1.8-4,4-4h124c2.2,0,4,1.8,4,4v0
			C1098.4,279.1,1096.6,280.9,1094.3,280.9z"/>
	</g>
</g>
<g>
	<g>
		<g>
			<path fill="#F0F4F7" d="M1135.6,373.6l-7.7,13.2l-10.3-15.9c-0.7-1.1-2.4-1.5-3.7-0.9c-1.3,0.6-1.8,2.1-1,3.2l11.6,17.9
				c0.8,1.3,2.1,2,3.7,2c1.5,0,2.8-0.8,3.6-2.1l8.7-14.9C1138.6,375.5,1137,374.6,1135.6,373.6z"/>
		</g>
		<g>
			<path fill="#F0F4F7" d="M1225,352.7l-15.6-20.3c-0.9-1.1-2.2-1.8-3.6-1.7c-1.5,0.1-2.7,0.9-3.5,2.2l-33.6,61l-12.3-20.3
				c-1.4,1-3,1.8-4.7,2.4l13.4,22.2c0.8,1.3,2.2,2.1,3.7,2.1c0,0,0,0,0.1,0c1.5,0,2.9-0.9,3.6-2.2l33.7-61.3l14.2,18.5
				c0.8,1.1,2.5,1.4,3.8,0.7C1225.5,355.3,1225.9,353.8,1225,352.7z"/>
		</g>
	</g>
	<g>
		<path fill="#F0F4F7" d="M1146,372.9c-6.7,0-12.1-5.4-12.1-12.1s5.4-12.1,12.1-12.1s12.1,5.4,12.1,12.1S1152.7,372.9,1146,372.9z
			 M1146,354.7c-3.4,0-6.1,2.7-6.1,6.1s2.7,6.1,6.1,6.1s6.1-2.7,6.1-6.1S1149.4,354.7,1146,354.7z"/>
	</g>
	<g>
		<circle fill="#F0F4F7" cx="1206.4" cy="334.8" r="7.9"/>
	</g>
	<g>
		<circle fill="#F0F4F7" cx="1169.2" cy="396.9" r="7.9"/>
	</g>
	<g>
		<circle fill="#F0F4F7" cx="1128.2" cy="389.8" r="7.9"/>
	</g>
</g>
</svg>
