<?xml version="1.0" encoding="utf-8"?>
<!-- Generator: Adobe Illustrator 18.1.0, SVG Export Plug-In . SVG Version: 6.00 Build 0)  -->
<!DOCTYPE svg PUBLIC "-//W3C//DTD SVG 1.1//EN" "http://www.w3.org/Graphics/SVG/1.1/DTD/svg11.dtd">
<svg version="1.1" id="Layer_1" xmlns="http://www.w3.org/2000/svg" xmlns:xlink="http://www.w3.org/1999/xlink" x="0px" y="0px"
	 viewBox="0 0 58 58" enable-background="new 0 0 58 58" xml:space="preserve">
<path fill="#8CC640" d="M29,0C13,0,0,13,0,29c0,16,13,29,29,29c16,0,29-13,29-29S45,0,29,0z M29,55.4C14.4,55.4,2.6,43.6,2.6,29
	C2.6,14.4,14.4,2.6,29,2.6c14.6,0,26.4,11.9,26.4,26.4S43.6,55.4,29,55.4z"/>
<g>
	<g>
		<path fill="#8CC640" d="M29,40.4L29,40.4c-0.5,0-1,0-1.5,0c-0.5,0-1-0.1-1.5-0.1c-0.5-0.1-1-0.1-1.4-0.2c-0.5-0.1-0.9-0.2-1.4-0.3
			c-0.5-0.1-0.9-0.3-1.3-0.4c-0.4-0.2-0.8-0.3-1.2-0.5c-1-0.4-1.9-0.9-2.7-1.4l-10-6.5c-0.5-0.3-0.7-0.8-0.7-1.4
			c0-0.6,0.3-1.1,0.7-1.4l9.9-6.5c2.9-2,6.9-3.1,11.1-3.1c0.5,0,0.9,0,1.5,0c0.5,0,1,0.1,1.5,0.1c0.5,0.1,1,0.1,1.4,0.2
			c0.5,0.1,0.9,0.2,1.4,0.3c0.5,0.1,0.9,0.2,1.3,0.4c0.5,0.2,0.9,0.3,1.2,0.5c1,0.4,1.9,0.9,2.7,1.4l10,6.5c0.5,0.3,0.7,0.8,0.7,1.4
			c0,0.6-0.3,1.1-0.7,1.4l-9.9,6.5C37.1,39.3,33.2,40.4,29,40.4z M9.6,29.5l9.5,6.2c0.7,0.5,1.5,0.9,2.3,1.2
			c0.4,0.2,0.8,0.3,1.1,0.4c0.4,0.1,0.8,0.3,1.2,0.4c0.5,0.1,0.8,0.2,1.2,0.3c0.5,0.1,0.9,0.2,1.3,0.2c0.5,0.1,0.9,0.1,1.3,0.1
			c0.5,0,1,0,1.4,0h0c3.8,0,7.3-1,9.9-2.7l9.4-6.2l-9.5-6.2c-0.7-0.5-1.5-0.9-2.4-1.3c-0.4-0.2-0.7-0.3-1.1-0.4
			c-0.4-0.1-0.8-0.3-1.2-0.4c-0.4-0.1-0.8-0.2-1.2-0.3c-0.5-0.1-0.9-0.2-1.3-0.2c-0.5-0.1-0.9-0.1-1.3-0.1c-0.6,0-1,0-1.4,0
			c-3.8,0-7.3,1-9.9,2.7L9.6,29.5z M29,37.8c-4.6,0-8.3-3.7-8.3-8.3c0-4.6,3.7-8.3,8.3-8.3c4.6,0,8.3,3.7,8.3,8.3
			C37.3,34.1,33.6,37.8,29,37.8z M29,23.2c-3.5,0-6.3,2.8-6.3,6.3c0,3.5,2.8,6.3,6.3,6.3c3.5,0,6.3-2.8,6.3-6.3
			C35.3,26.1,32.5,23.2,29,23.2z"/>
	</g>
	<g>
		<path fill="#8CC640" d="M29,33.8c-2.4,0-4.3-1.9-4.3-4.3c0-2.4,1.9-4.3,4.3-4.3s4.3,1.9,4.3,4.3C33.3,31.9,31.4,33.8,29,33.8z
			 M29,26.2c-1.8,0-3.3,1.5-3.3,3.3c0,1.8,1.5,3.3,3.3,3.3s3.3-1.5,3.3-3.3C32.3,27.7,30.8,26.2,29,26.2z"/>
	</g>
</g>
</svg>
