<?xml version="1.0" encoding="utf-8"?>
<!-- Generator: Adobe Illustrator 18.1.0, SVG Export Plug-In . SVG Version: 6.00 Build 0)  -->
<!DOCTYPE svg PUBLIC "-//W3C//DTD SVG 1.1//EN" "http://www.w3.org/Graphics/SVG/1.1/DTD/svg11.dtd">
<svg version="1.1" id="Layer_1" xmlns="http://www.w3.org/2000/svg" xmlns:xlink="http://www.w3.org/1999/xlink" x="0px" y="0px"
	 viewBox="0 0 58 58" enable-background="new 0 0 58 58" xml:space="preserve">
<g>
	<path fill="#8CC640" d="M28.9,58C13,58,0,45.1,0,29.2S13,0.3,28.9,0.3s28.8,12.9,28.8,28.8S44.8,58,28.9,58z M28.9,2.9
		C14.4,2.9,2.6,14.7,2.6,29.2s11.8,26.3,26.3,26.3s26.3-11.8,26.3-26.3S43.4,2.9,28.9,2.9z"/>
</g>
<path fill="#8CC640" d="M44.4,18.4c-0.6-0.6-1.5-0.6-2.1,0L21.8,38.9l-6.8-6.8c-0.6-0.6-1.5-0.6-2.1,0c-0.6,0.6-0.6,1.5,0,2.1
	l7.5,7.5c0.1,0.1,0.2,0.2,0.3,0.2c0,0,0,0,0,0c0.3,0.3,0.7,0.4,1.1,0.4s0.8-0.1,1.1-0.4l21.5-21.5C45,19.9,45,18.9,44.4,18.4z"/>
</svg>
