<?xml version="1.0" encoding="utf-8"?>
<!-- Generator: Adobe Illustrator 18.1.0, SVG Export Plug-In . SVG Version: 6.00 Build 0)  -->
<!DOCTYPE svg PUBLIC "-//W3C//DTD SVG 1.1//EN" "http://www.w3.org/Graphics/SVG/1.1/DTD/svg11.dtd">
<svg version="1.1" id="Layer_1" xmlns="http://www.w3.org/2000/svg" xmlns:xlink="http://www.w3.org/1999/xlink" x="0px" y="0px"
	 viewBox="0 0 58 58" enable-background="new 0 0 58 58" xml:space="preserve">
<g>
	<path fill="#8CC640" d="M29,57.8c-15.9,0-28.8-12.9-28.8-28.8S13.1,0.2,29,0.2s28.8,12.9,28.8,28.8S44.9,57.8,29,57.8z M29,2.8
		C14.5,2.8,2.7,14.6,2.7,29.1S14.5,55.3,29,55.3s26.3-11.8,26.3-26.3S43.5,2.8,29,2.8z"/>
</g>
<path fill="#8CC640" d="M28.7,25.4c2.2,0,4,1.8,4,4s-1.8,4-4,4s-4-1.8-4-4S26.5,25.4,28.7,25.4 M28.7,23.4c-3.3,0-6,2.7-6,6
	s2.7,6,6,6s6-2.7,6-6C34.7,26,32.1,23.4,28.7,23.4L28.7,23.4z"/>
<g>
	<g>
		<path fill="#8CC640" d="M28.8,19.1c-0.6,0-1-0.4-1-1v-11c0-0.6,0.4-1,1-1s1,0.4,1,1v11C29.8,18.6,29.4,19.1,28.8,19.1z"/>
	</g>
	<g>
		<path fill="#8CC640" d="M28.8,20.6c-0.3,0-0.5-0.1-0.7-0.3c-0.4-0.4-0.4-1,0-1.4l4.8-4.8c0.4-0.4,1-0.4,1.4,0s0.4,1,0,1.4
			l-4.8,4.8C29.3,20.6,29.1,20.6,28.8,20.6z"/>
	</g>
	<g>
		<path fill="#8CC640" d="M28.6,20.6c-0.3,0-0.5-0.1-0.7-0.3l-4.8-4.8c-0.4-0.4-0.4-1,0-1.4s1-0.4,1.4,0l4.8,4.8
			c0.4,0.4,0.4,1,0,1.4C29.1,20.6,28.9,20.6,28.6,20.6z"/>
	</g>
</g>
<g>
	<g>
		<path fill="#8CC640" d="M50.8,30.9h-11c-0.6,0-1-0.4-1-1s0.4-1,1-1h11c0.6,0,1,0.4,1,1S51.4,30.9,50.8,30.9z"/>
	</g>
	<g>
		<path fill="#8CC640" d="M43.2,36.2c-0.3,0-0.5-0.1-0.7-0.3l-4.8-4.8c-0.4-0.4-0.4-1,0-1.4s1-0.4,1.4,0l4.8,4.8
			c0.4,0.4,0.4,1,0,1.4C43.7,36.1,43.5,36.2,43.2,36.2z"/>
	</g>
	<g>
		<path fill="#8CC640" d="M38.4,31.2c-0.3,0-0.5-0.1-0.7-0.3c-0.4-0.4-0.4-1,0-1.4l4.8-4.8c0.4-0.4,1-0.4,1.4,0s0.4,1,0,1.4L39.1,31
			C38.9,31.1,38.6,31.2,38.4,31.2z"/>
	</g>
</g>
<g>
	<g>
		<path fill="#8CC640" d="M28.8,52c-0.6,0-1-0.4-1-1V40c0-0.6,0.4-1,1-1s1,0.4,1,1v11C29.8,51.5,29.4,52,28.8,52z"/>
	</g>
	<g>
		<path fill="#8CC640" d="M24,44.4c-0.3,0-0.5-0.1-0.7-0.3c-0.4-0.4-0.4-1,0-1.4l4.8-4.8c0.4-0.4,1-0.4,1.4,0s0.4,1,0,1.4l-4.8,4.8
			C24.5,44.3,24.2,44.4,24,44.4z"/>
	</g>
	<g>
		<path fill="#8CC640" d="M33.8,44.4c-0.3,0-0.5-0.1-0.7-0.3l-4.8-4.8c-0.4-0.4-0.4-1,0-1.4s1-0.4,1.4,0l4.8,4.8
			c0.4,0.4,0.4,1,0,1.4C34.3,44.3,34.1,44.4,33.8,44.4z"/>
	</g>
</g>
<g>
	<g>
		<path fill="#8CC640" d="M17.8,30.9h-11c-0.6,0-1-0.4-1-1s0.4-1,1-1h11c0.6,0,1,0.4,1,1S18.4,30.9,17.8,30.9z"/>
	</g>
	<g>
		<path fill="#8CC640" d="M19.2,30.9c-0.3,0-0.5-0.1-0.7-0.3l-4.8-4.8c-0.4-0.4-0.4-1,0-1.4s1-0.4,1.4,0l4.8,4.8
			c0.4,0.4,0.4,1,0,1.4C19.7,30.8,19.5,30.9,19.2,30.9z"/>
	</g>
	<g>
		<path fill="#8CC640" d="M14.4,35.8c-0.3,0-0.5-0.1-0.7-0.3c-0.4-0.4-0.4-1,0-1.4l4.8-4.8c0.4-0.4,1-0.4,1.4,0s0.4,1,0,1.4
			l-4.8,4.8C14.9,35.8,14.6,35.8,14.4,35.8z"/>
	</g>
</g>
</svg>
