<?xml version="1.0" encoding="utf-8"?>
<!-- Generator: Adobe Illustrator 18.0.0, SVG Export Plug-In . SVG Version: 6.00 Build 0)  -->
<!DOCTYPE svg PUBLIC "-//W3C//DTD SVG 1.1//EN" "http://www.w3.org/Graphics/SVG/1.1/DTD/svg11.dtd">
<svg version="1.1" id="Layer_1" xmlns="http://www.w3.org/2000/svg" xmlns:xlink="http://www.w3.org/1999/xlink" x="0px" y="0px"
	 viewBox="0 0 370 265" enable-background="new 0 0 370 265" xml:space="preserve">
<g>
	
		<polygon opacity="0.7" fill="#F9F9F9" stroke="#3B4251" stroke-width="2" stroke-miterlimit="10" enable-background="new    " points="
		186,9.9 61.5,72.6 61.5,196.9 186,134.2 310.5,196.9 310.5,72.6 	"/>
	<g>
		<path fill="#FFFFFF" d="M206.4,116.5L96.4,139c-0.9,0.2-1.8-0.4-2-1.3L71.7,26.2c-0.2-0.9,0.4-1.8,1.3-2L183,1.7
			c0.9-0.2,1.8,0.4,2,1.3l22.8,111.5C207.9,115.5,207.3,116.4,206.4,116.5z"/>
		<g>
			<path fill="#8EC348" d="M94.4,48.3c-1.7,0.4-3.4-0.8-3.7-2.5c-0.4-1.7,0.8-3.4,2.5-3.7s3.4,0.8,3.7,2.5S96.1,47.9,94.4,48.3z
				 M93.6,44.3c-0.5,0.1-0.8,0.6-0.7,1.1c0.1,0.5,0.6,0.8,1.1,0.7s0.8-0.6,0.7-1.1C94.6,44.5,94.1,44.2,93.6,44.3z"/>
			<g>
				<path fill="#8EC348" d="M105.5,48.8c1.1-2.1,3.2-6.3,4.2-8.6c0.5-1,0.8-1.9,0.6-2.7c-0.2-1-1.2-1.9-2.8-1.5
					c-1.1,0.2-1.8,1.2-2.2,1.8c-0.1,0.2-0.4,0.3-0.6,0.1l-1.3-0.8c-0.2-0.1-0.3-0.4-0.1-0.6c0,0,1.3-2.5,3.9-3.1
					c3.2-0.6,5.4,1,5.9,3.4c0.3,1.4-0.1,2.5-0.8,3.9c-0.7,1.6-1.9,4-2.8,5.7l4.8-1c0.2,0,0.5,0.1,0.5,0.3l0.3,1.5
					c0,0.2-0.1,0.5-0.3,0.5l-8.8,1.8c-0.2,0-0.5-0.1-0.5-0.3L105.5,48.8L105.5,48.8z M117.5,46.6l3.3-13.2l-5.9,1.2
					c-0.2,0-0.5-0.1-0.5-0.3l-0.3-1.6c0-0.2,0.1-0.5,0.3-0.5l9.2-1.9c0.2,0,0.5,0.1,0.5,0.3v0.2L120.5,46c-0.1,0.4-0.3,0.7-0.6,0.8
					l-1.6,0.3c-0.3,0.1-0.6,0-0.6-0.3L117.5,46.6L117.5,46.6z M129.3,41.3c1-0.2,2.4,0.3,2.8,2.5c0.6,2.7-0.8,4.6-1.6,5.3
					c-0.2,0.2-0.3,0.2-0.6,0.1l-0.4-0.3c-0.2-0.1-0.2-0.4,0-0.6c0.2-0.3,1.5-1.7,1.1-3.6c0,0-0.3,0.3-0.8,0.4c-1,0.2-2-0.5-2.2-1.4
					C127.5,42.6,128.2,41.5,129.3,41.3z M135.2,41.7c1-0.5,3.8-2.7,4-5.3c-0.3,0.3-1.4,0.9-2.4,1.1c-2.2,0.5-4.9-0.7-5.5-3.9
					c-0.6-2.8,1.2-5.6,4-6.1c3.5-0.7,5.9,1.7,6.5,5.1c1.3,6.5-3.6,10.2-5.4,11.2c-0.3,0.2-0.5,0.1-0.7-0.2l-0.8-1.2
					C134.7,42.2,134.8,41.9,135.2,41.7z M139.1,32.8c-0.3-1.5-1.5-3.1-3.3-2.7c-1.4,0.3-2.3,1.7-2,3.1c0.3,1.4,1.7,2.4,3.1,2.1
					C138.3,35,139,33.7,139.1,32.8z M144.5,33.9c-1-4.9,0.5-8.2,4-8.9c3.6-0.7,6.2,1.8,7.2,6.6c1,4.9-0.5,8.2-4,8.9
					C148.1,41.3,145.5,38.8,144.5,33.9z M152.8,32.2c-0.7-3.3-2-5-3.7-4.6c-1.7,0.3-2.3,2.4-1.6,5.7s2,5,3.7,4.6
					C152.8,37.6,153.4,35.5,152.8,32.2z M159,37.8c1.1-2.1,3.2-6.3,4.2-8.6c0.5-1,0.8-1.9,0.6-2.7c-0.2-1-1.2-1.9-2.8-1.5
					c-1.1,0.2-1.8,1.2-2.2,1.8c-0.1,0.2-0.4,0.3-0.6,0.1l-1.3-0.8c-0.2-0.1-0.3-0.4-0.1-0.6c0,0,1.3-2.5,3.9-3.1
					c3.2-0.6,5.4,1,5.9,3.4c0.3,1.4-0.1,2.5-0.8,3.9c-0.7,1.6-1.9,4-2.8,5.7l4.8-1c0.2,0,0.5,0.1,0.5,0.3l0.3,1.5
					c0,0.2-0.1,0.5-0.3,0.5l-8.8,1.8c-0.2,0-0.5-0.1-0.5-0.3L159,37.8L159,37.8z"/>
			</g>
			<path fill="#8EC348" d="M192.4,47.7l-110,22.5c-0.6,0.1-1.2-0.3-1.3-0.9C81,68.7,81.4,68.1,82,68l110-22.5
				c0.6-0.1,1.2,0.3,1.3,0.9S193,47.6,192.4,47.7z M206.4,116.5L96.4,139c-0.9,0.2-1.8-0.4-2-1.3L71.7,26.2c-0.2-0.9,0.4-1.8,1.3-2
				L183,1.7c0.9-0.2,1.8,0.4,2,1.3l22.8,111.5C207.9,115.5,207.3,116.4,206.4,116.5z M97.4,135.4l106.7-21.8L182,5.4L75.3,27.2
				L97.4,135.4z"/>
			<path fill="#3B4251" d="M111.1,101.7c-0.3,0.1-0.7,0-0.9-0.2l-7-5.8c-0.5-0.4-0.5-1.1-0.1-1.6s1.1-0.5,1.6-0.1l7,5.8
				c0.5,0.4,0.5,1.1,0.1,1.6C111.5,101.5,111.3,101.6,111.1,101.7z M111.1,101.7c-0.2,0-0.5,0-0.7-0.1c-0.6-0.3-0.8-0.9-0.5-1.5
				l4.8-9.9c0.3-0.6,0.9-0.8,1.5-0.5s0.8,0.9,0.5,1.5l-4.8,9.9C111.7,101.4,111.4,101.6,111.1,101.7z M131.8,109.3
				c-0.4,0.1-0.8,0-1.1-0.3l-15.9-17.5c-0.4-0.5-0.4-1.2,0.1-1.6s1.2-0.4,1.6,0.1l15.9,17.5c0.4,0.5,0.4,1.2-0.1,1.6
				C132.2,109.2,132,109.3,131.8,109.3z M131.8,109.3c-0.2,0-0.4,0-0.6,0c-0.6-0.2-0.9-0.8-0.7-1.4l4.2-12.8
				c0.2-0.6,0.8-0.9,1.4-0.7c0.6,0.2,0.9,0.8,0.7,1.4l-4.2,12.8C132.5,109,132.2,109.3,131.8,109.3z M146.3,103.5
				c-0.3,0.1-0.6,0-0.9-0.2l-10.3-7c-0.5-0.3-0.6-1-0.3-1.6c0.3-0.5,1-0.6,1.6-0.3l10.3,7c0.5,0.3,0.6,1,0.3,1.6
				C146.9,103.3,146.6,103.5,146.3,103.5z M146.3,103.5c-0.2,0-0.4,0-0.6-0.1c-0.6-0.2-0.9-0.9-0.6-1.5l7.5-19.5
				c0.2-0.6,0.9-0.9,1.5-0.6c0.6,0.2,0.9,0.9,0.6,1.5l-7.5,19.5C147,103.2,146.7,103.5,146.3,103.5z M167,98.3c-0.4,0.1-0.8,0-1-0.3
				l-13.2-14.2c-0.4-0.5-0.4-1.2,0.1-1.6s1.2-0.4,1.6,0.1l13.2,14.2c0.4,0.5,0.4,1.2-0.1,1.6C167.4,98.2,167.2,98.3,167,98.3
				L167,98.3z M167,98.3c-0.2,0-0.5,0-0.7-0.1c-0.6-0.2-0.8-0.9-0.6-1.5l15.5-35.6c0.2-0.6,0.9-0.8,1.5-0.6s0.8,0.9,0.6,1.5
				l-15.5,35.6C167.7,98,167.4,98.2,167,98.3L167,98.3z"/>
		</g>
	</g>
	<g>
		<path fill="#FFFFFF" d="M273,117.4c-23.3,19.9-58.4,17.1-78.3-6.2s-17.1-58.4,6.2-78.3s58.4-17.1,78.3,6.2S296.3,97.5,273,117.4z"
			/>
		<path fill="#8EC348" d="M231.4,106.9c-1.6,0.6-3.3-0.3-3.9-1.8c-0.6-1.6,0.3-3.3,1.8-3.9c1.6-0.6,3.3,0.3,3.9,1.8
			C233.8,104.6,233,106.4,231.4,106.9z M230.1,103.4c-0.4,0.1-0.6,0.6-0.5,1s0.6,0.6,1,0.5s0.6-0.6,0.5-1S230.5,103.2,230.1,103.4z
			 M246.2,101.6c-1.6,0.6-3.3-0.3-3.9-1.8c-0.6-1.6,0.3-3.3,1.8-3.9c1.6-0.6,3.3,0.3,3.9,1.8C248.6,99.3,247.8,101,246.2,101.6z
			 M244.9,98c-0.4,0.1-0.6,0.6-0.5,1s0.6,0.6,1,0.5s0.6-0.6,0.5-1C245.8,98.1,245.3,97.9,244.9,98z M261,96.3
			c-1.6,0.6-3.3-0.3-3.9-1.8c-0.6-1.6,0.3-3.3,1.8-3.9c1.6-0.6,3.3,0.3,3.9,1.8C263.4,94,262.5,95.7,261,96.3z M259.7,92.7
			c-0.4,0.1-0.6,0.6-0.5,1s0.6,0.6,1,0.5s0.6-0.6,0.5-1C260.5,92.8,260.1,92.6,259.7,92.7z M203.4,69.6c-0.3,0.1-0.6,0.1-0.9,0.1
			l-8.2-1.5c-0.9-0.2-1.5-1-1.4-2c0.2-0.9,1-1.5,2-1.4l8.2,1.5c0.9,0.2,1.5,1,1.4,2C204.4,69,204,69.4,203.4,69.6z M211,53.7
			c-0.5,0.2-1.2,0.1-1.7-0.3L203,48c-0.7-0.6-0.8-1.7-0.2-2.4s1.7-0.8,2.4-0.2l6.3,5.4c0.7,0.6,0.8,1.7,0.2,2.4
			C211.5,53.4,211.2,53.6,211,53.7z M225.5,43.6c-0.9,0.3-1.8-0.1-2.2-1l-2.8-7.8c-0.3-0.9,0.1-1.8,1-2.2c0.9-0.3,1.8,0.1,2.2,1
			l2.8,7.8C226.8,42.3,226.3,43.3,225.5,43.6z"/>
		<path fill="#3B4251" d="M243.1,42.1c-0.3,0.1-0.6,0.1-0.9,0.1c-0.9-0.2-1.5-1-1.4-2l1.5-8.2c0.2-0.9,1-1.5,2-1.4
			c0.9,0.2,1.5,1,1.4,2l-1.5,8.2C244,41.5,243.6,41.9,243.1,42.1z M259,49.7c-0.5,0.2-1.2,0.1-1.7-0.3c-0.7-0.6-0.8-1.7-0.2-2.4
			l5.4-6.3c0.6-0.7,1.7-0.8,2.4-0.2c0.7,0.6,0.8,1.7,0.2,2.4l-5.4,6.3C259.5,49.4,259.3,49.6,259,49.7z"/>
		<path fill="#8EC348" d="M204.9,87.2l-7.8,2.8c-0.9,0.3-1.8-0.1-2.2-1s0.1-1.8,1-2.2l7.8-2.8c0.9-0.3,1.8,0.1,2.2,1
			C206.2,85.9,205.8,86.9,204.9,87.2z"/>
		<path fill="#3B4251" d="M276.9,61.3l-7.8,2.8c-0.9,0.3-1.8-0.1-2.2-1s0.1-1.8,1-2.2l7.8-2.8c0.9-0.3,1.8,0.1,2.2,1
			C278.2,60.1,277.8,61,276.9,61.3z"/>
		<path fill="#8EC348" d="M255.7,127.4c-28.8,10.4-60.7-4.7-71.1-33.5s4.7-60.7,33.5-71.1s60.7,4.7,71.1,33.5S284.5,117,255.7,127.4
			z M219.2,26c-27.1,9.7-41.2,39.7-31.5,66.8s39.7,41.2,66.8,31.5s41.2-39.7,31.5-66.8S246.3,16.3,219.2,26z M252.3,118
			c-23.6,8.5-49.8-3.8-58.3-27.5s3.8-49.8,27.5-58.3s49.8,3.8,58.3,27.5S275.9,109.5,252.3,118z M222.2,34.4
			c-22.5,8.1-34.2,32.9-26.1,55.4s32.9,34.2,55.4,26.1s34.2-32.9,26.1-55.4C269.6,38,244.7,26.3,222.2,34.4z"/>
		<path fill="none" stroke="#8EC348" stroke-width="3" stroke-linecap="round" stroke-linejoin="round" stroke-miterlimit="10" d="
			M248.2,109.2"/>
		<path fill="#3B4251" d="M239.2,84.4c-3.1,1.1-6.6,0.7-9.4-1.3c-2.2-1.6-3.7-3.9-4.2-6.6s0.2-5.4,1.7-7.6c2.1-2.9,5.7-4.6,9.3-4.2
			l10.1-12.2c0.4-0.5,1-1,1.6-1.2c1.1-0.4,2.3-0.2,3.2,0.4c1.6,1.1,2,3.3,0.8,4.9l-7.9,13.2c1.9,3.4,1.7,7.6-0.6,10.9
			C242.8,82.4,241.1,83.7,239.2,84.4z M233,67.3c-1.5,0.5-2.8,1.5-3.8,2.9c-1.2,1.7-1.7,3.8-1.4,5.9c0.4,2.1,1.5,3.9,3.2,5.2
			c2.1,1.5,4.9,1.9,7.3,1c1.5-0.6,2.8-1.5,3.8-2.9c1.9-2.7,2-6.2,0.2-8.9c-0.2-0.4-0.2-0.8,0-1.2l8.3-13.9c0.5-0.7,0.3-1.5-0.3-1.9
			s-1.4-0.3-1.8,0.3L238,66.6c-0.3,0.3-0.7,0.5-1,0.4C235.6,66.7,234.3,66.9,233,67.3z M237.4,79.5c-0.3,0.1-0.6,0.2-0.9,0.2
			c-1.3,0.2-2.6-0.1-3.7-0.9c-1.2-0.8-1.7-1.9-1.9-2.6c-0.4-1.5-0.2-3.1,0.7-4.3c0.8-1.1,1.9-1.8,3.2-2s2.6,0.1,3.7,0.9
			c1.2,0.8,1.7,1.9,1.9,2.6c0.4,1.5,0.2,3.1-0.7,4.3C239.2,78.5,238.4,79.2,237.4,79.5z M234.8,72.2c-0.5,0.2-1,0.5-1.3,1
			c-0.5,0.7-0.6,1.6-0.4,2.4c0.1,0.4,0.4,1,1,1.5c0.6,0.4,1.3,0.6,2.1,0.5c0.7-0.1,1.4-0.5,1.8-1.1c0.5-0.7,0.6-1.6,0.4-2.4
			c-0.1-0.4-0.4-1-1-1.5c-0.6-0.4-1.3-0.6-2.1-0.5C235.1,72.1,234.9,72.2,234.8,72.2L234.8,72.2z"/>
	</g>
	<g>
		<path fill="#FFFFFF" d="M173.3,164.5c-5.1-0.8-9.5-3.6-12.5-7.8l-30.2-42.2c-6.2-8.6-4.2-20.7,4.5-26.9l42.2-30.2
			c4.2-3,9.3-4.2,14.4-3.3s9.5,3.6,12.5,7.8l30.2,42.2c6.2,8.6,4.2,20.7-4.5,26.9l-42.2,30.2C183.5,164.2,178.4,165.4,173.3,164.5z"
			/>
		<g>
			<path fill="#8EC348" d="M187.6,78.6c-1.6-0.3-2.8-1.8-2.5-3.5c0.3-1.6,1.8-2.8,3.5-2.5c1.6,0.3,2.8,1.8,2.5,3.5
				C190.8,77.7,189.2,78.8,187.6,78.6z M188.2,74.8c-0.4-0.1-0.8,0.2-0.9,0.6c-0.1,0.4,0.2,0.8,0.6,0.9s0.8-0.2,0.9-0.6
				S188.6,74.9,188.2,74.8z M176.5,145c-1.6-0.3-2.8-1.8-2.5-3.5c0.3-1.6,1.8-2.8,3.5-2.5c1.6,0.3,2.8,1.8,2.5,3.5
				S178.2,145.3,176.5,145z M177.2,141.2c-0.4-0.1-0.8,0.2-0.9,0.6c-0.1,0.4,0.2,0.8,0.6,0.9s0.8-0.2,0.9-0.6
				C177.9,141.7,177.6,141.3,177.2,141.2z M148.8,106.2c-1.6-0.3-2.8-1.8-2.5-3.5c0.3-1.6,1.8-2.8,3.5-2.5c1.6,0.3,2.8,1.8,2.5,3.5
				C152,105.4,150.5,106.5,148.8,106.2z M149.5,102.5c-0.4-0.1-0.8,0.2-0.9,0.6c-0.1,0.4,0.2,0.8,0.6,0.9c0.4,0.1,0.8-0.2,0.9-0.6
				S149.9,102.6,149.5,102.5z M215.3,117.3c-1.6-0.3-2.8-1.8-2.5-3.5s1.8-2.8,3.5-2.5s2.8,1.8,2.5,3.5S216.9,117.6,215.3,117.3z
				 M215.9,113.6c-0.4-0.1-0.8,0.2-0.9,0.6c-0.1,0.4,0.2,0.8,0.6,0.9c0.4,0.1,0.8-0.2,0.9-0.6C216.6,114,216.3,113.6,215.9,113.6z
				 M173.3,164.5c-5.1-0.8-9.5-3.6-12.5-7.8l-30.2-42.2c-6.2-8.6-4.2-20.7,4.5-26.9l42.2-30.2c4.2-3,9.3-4.2,14.4-3.3
				s9.5,3.6,12.5,7.8l30.2,42.2c6.2,8.6,4.2,20.7-4.5,26.9l-42.2,30.2C183.5,164.2,178.4,165.4,173.3,164.5z M191.1,57.5
				c-4.2-0.7-8.4,0.3-11.9,2.7L137,90.4c-7.1,5.1-8.8,15.1-3.7,22.2l30.2,42.2c2.5,3.4,6.1,5.7,10.3,6.4s8.4-0.3,11.9-2.7l42.2-30.2
				c7.1-5.1,8.8-15.1,3.7-22.2l-30.2-42.2C199,60.4,195.3,58.2,191.1,57.5z M175.2,152.9c-2-0.3-3.7-1.4-4.9-3l-30.2-42.2
				c-1.2-1.6-1.6-3.6-1.3-5.6s1.4-3.7,3-4.9L184.1,67c1.6-1.2,3.6-1.6,5.6-1.3c2,0.3,3.7,1.4,4.9,3l30.2,42.2
				c1.2,1.6,1.6,3.6,1.3,5.6s-1.4,3.7-3,4.9l-42.2,30.2C179.2,152.8,177.2,153.2,175.2,152.9z M189.4,68c-1.4-0.2-2.8,0.1-3.9,0.9
				L143.2,99c-1.1,0.8-1.9,2-2.1,3.4c-0.2,1.4,0.1,2.8,0.9,3.9l30.2,42.2c0.8,1.1,2,1.9,3.4,2.1c1.4,0.2,2.8-0.1,3.9-0.9l42.2-30.2
				c1.1-0.8,1.9-2,2.1-3.4c0.2-1.4-0.1-2.8-0.9-3.9L192.7,70C192,69,190.7,68.2,189.4,68L189.4,68z"/>
			<path fill="#3B4251" d="M179.1,129.9c-0.9-0.2-1.5-1-1.4-1.9l2.4-14.2c0.2-0.9,1-1.5,1.9-1.4s1.5,1,1.4,1.9l-2.4,14.2
				C180.9,129.4,180.1,130,179.1,129.9z M181.5,115.6c-0.4-0.1-0.8-0.3-1.1-0.7c-0.5-0.8-0.4-1.8,0.4-2.3l19.3-13.8
				c0.8-0.5,1.8-0.4,2.3,0.4s0.4,1.8-0.4,2.3l-19.3,13.8C182.4,115.6,181.9,115.7,181.5,115.6z M181.5,115.6
				c-0.4-0.1-0.8-0.3-1.1-0.7l-13.8-19.3c-0.5-0.8-0.4-1.8,0.4-2.3s1.8-0.4,2.3,0.4l13.8,19.3c0.5,0.8,0.4,1.8-0.4,2.3
				C182.4,115.6,181.9,115.7,181.5,115.6z M199.4,109.9c-0.9-0.2-1.5-1-1.4-1.9l1.1-6.4l-6.4-1.1c-0.9-0.2-1.5-1-1.4-1.9
				c0.2-0.9,1-1.5,1.9-1.4l8,1.3c0.9,0.2,1.5,1,1.4,1.9l-1.3,8C201.2,109.4,200.4,110.1,199.4,109.9z M166.2,104.4
				c-0.9-0.2-1.5-1-1.4-1.9l1.3-8c0.2-0.9,1-1.5,1.9-1.4l8,1.3c0.9,0.2,1.5,1,1.4,1.9c-0.2,0.9-1,1.5-1.9,1.4l-6.4-1.1L168,103
				C168,103.9,167.1,104.5,166.2,104.4z"/>
		</g>
	</g>
	<polygon fill="#F9F9F9" stroke="#3B4251" stroke-width="2" stroke-miterlimit="10" points="186,136.8 61.5,74.1 61.5,198.5 
		186,261.2 310.5,198.5 310.5,74.1 	"/>
	<line fill="none" stroke="#3B4251" stroke-width="2" stroke-miterlimit="10" x1="185.6" y1="134.7" x2="185.6" y2="259.1"/>
</g>
</svg>
