<?xml version="1.0" encoding="utf-8"?>
<!-- Generator: Adobe Illustrator 19.2.0, SVG Export Plug-In . SVG Version: 6.00 Build 0)  -->
<svg version="1.1" id="Layer_1" xmlns="http://www.w3.org/2000/svg" xmlns:xlink="http://www.w3.org/1999/xlink" x="0px" y="0px"
	 viewBox="0 0 58 58" style="enable-background:new 0 0 58 58;" xml:space="preserve">
<style type="text/css">
	.st0{fill:#8CC640;}
	.st1{fill:none;stroke:#8CC640;stroke-miterlimit:10;stroke-dasharray:1.0059,1.0059;}
	.st2{fill:none;stroke:#8CC640;stroke-width:2;stroke-miterlimit:10;}
</style>
<g>
	<g>
		<path class="st0" d="M29,58C13,58,0,45,0,29S13,0,29,0s29,13,29,29S45,58,29,58z M29,2.6C14.4,2.6,2.6,14.4,2.6,29
			S14.4,55.4,29,55.4S55.4,43.6,55.4,29S43.6,2.6,29,2.6z"/>
	</g>
	<g>
		<g>
			<path class="st1" d="M11.7,19.5c0-4.3,3.5-7.8,7.8-7.8h19c4.3,0,7.7,3.2,7.8,7.8v18.9c0,4.3-3.5,7.8-7.8,7.8h-19
				c-4.3,0-7.8-3.5-7.8-7.8V19.5L11.7,19.5z"/>
		</g>
		<path class="st2" d="M25.6,11.3v6.7c1.1-0.3,2.2-0.5,3.4-0.5c1.2,0,2.4,0.2,3.4,0.5v-6.7c-1.1-0.2-2.3-0.3-3.4-0.3
			C27.8,10.9,26.7,11.1,25.6,11.3z M29,40.5c-1.2,0-2.4-0.2-3.4-0.5v6.7c1.1,0.2,2.3,0.3,3.4,0.3s2.3-0.1,3.4-0.3v-6.7
			C31.4,40.3,30.2,40.5,29,40.5z M17.5,28.9c0-1.2,0.2-2.4,0.5-3.4h-6.7c-0.2,1.1-0.3,2.3-0.3,3.4s0.1,2.3,0.3,3.4H18
			C17.7,31.3,17.5,30.2,17.5,28.9z M40.5,28.9c0,1.2-0.2,2.4-0.5,3.4h6.7c0.2-1.1,0.3-2.3,0.3-3.4s-0.1-2.3-0.3-3.4H40
			C40.3,26.6,40.5,27.7,40.5,28.9L40.5,28.9z"/>
		<path class="st2" d="M20.9,37.1c-1.3-1.3-2.3-2.9-2.9-4.7h-6.7c0.7,3.6,2.5,6.8,4.9,9.3c2.5,2.5,5.7,4.2,9.3,4.9v-6.7
			C23.8,39.4,22.2,38.4,20.9,37.1z M20.9,20.8c1.3-1.3,2.9-2.3,4.7-2.9v-6.7c-3.6,0.7-6.8,2.5-9.3,4.9s-4.2,5.7-4.9,9.3H18
			C18.6,23.7,19.6,22.1,20.9,20.8z M37.1,20.8c1.3,1.3,2.3,2.9,2.9,4.7h6.7c-0.7-3.6-2.5-6.8-4.9-9.3c-2.5-2.5-5.7-4.2-9.3-4.9v6.7
			C34.2,18.5,35.8,19.5,37.1,20.8z M37.1,37.1c-1.3,1.3-2.9,2.3-4.7,2.9v6.7c3.6-0.7,6.8-2.5,9.3-4.9c2.5-2.5,4.2-5.7,4.9-9.3H40
			C39.4,34.2,38.4,35.8,37.1,37.1L37.1,37.1z"/>
	</g>
</g>
</svg>
