<?xml version="1.0" encoding="utf-8"?>
<!-- Generator: Adobe Illustrator 19.2.0, SVG Export Plug-In . SVG Version: 6.00 Build 0)  -->
<svg version="1.1" id="Layer_1" xmlns="http://www.w3.org/2000/svg" xmlns:xlink="http://www.w3.org/1999/xlink" x="0px" y="0px"
	 viewBox="0 0 18 18" style="enable-background:new 0 0 18 18;" xml:space="preserve">
<style type="text/css">
	.st0{fill:#3D4351;}
</style>
<path class="st0" d="M6.9,13.9C4.3,13.3,2.5,10.8,3.1,8C3.5,6.1,5,4.6,6.9,4.2C10.1,3.5,13,6,13,9.1h3c0-4.9-4.5-8.8-9.6-7.8
	C3.3,1.8,0.8,4.3,0.2,7.5C-0.7,12,2.2,16,6.3,16.9C7.2,17.1,8,16.4,8,15.5v-0.2C8,14.6,7.5,14.1,6.9,13.9z"/>
<path class="st0" d="M14.1,13.6l-2.9-3.3C10.7,9.8,11.1,9,11.8,9h5.4c0.7,0,1.1,0.8,0.6,1.3l-2.9,3.3C14.7,13.8,14.3,13.8,14.1,13.6
	z"/>
</svg>
