<?xml version="1.0" encoding="utf-8"?>
<!-- Generator: Adobe Illustrator 19.2.0, SVG Export Plug-In . SVG Version: 6.00 Build 0)  -->
<svg version="1.1" id="Layer_1" xmlns="http://www.w3.org/2000/svg" xmlns:xlink="http://www.w3.org/1999/xlink" x="0px" y="0px"
	 viewBox="0 0 58 58" style="enable-background:new 0 0 58 58;" xml:space="preserve">
<style type="text/css">
	.st0{fill:#8CC640;}
	.st1{fill:#8DC63F;}
	.st2{opacity:0.5;fill:#8DC63F;}
</style>
<g>
	<g>
		<path class="st0" d="M29,58C13,58,0,45,0,29S13,0,29,0s29,13,29,29S45,58,29,58z M29,2.6C14.4,2.6,2.6,14.4,2.6,29
			S14.4,55.4,29,55.4S55.4,43.6,55.4,29S43.6,2.6,29,2.6z"/>
	</g>
	<g>
		<path class="st1" d="M17.9,44.3c-0.6,0-1.2-0.3-1.6-0.8c-0.4-0.5-0.5-1.1-0.3-1.7l1-3.9c-3.5-2.6-5.4-6.3-5.4-10.1
			c0-7.8,8-14.1,17.7-14.1S47,20,47,27.7c0,7.8-8,14.1-17.7,14.1c-1.4,0-2.8-0.1-4.3-0.4l-6.3,2.8C18.4,44.3,18.2,44.3,17.9,44.3z
			 M29.3,15.7c-8.7,0-15.7,5.4-15.7,12.1c0,3.4,1.9,6.6,5.2,8.9l0.6,0.4l-1.4,5.3l6.9-3l0.3,0.1c1.4,0.3,2.8,0.4,4.2,0.4
			C38,39.8,45,34.4,45,27.7S38,15.7,29.3,15.7z"/>
	</g>
</g>
<circle class="st2" cx="22" cy="28" r="2"/>
<circle class="st2" cx="36" cy="28" r="2"/>
<circle class="st2" cx="29" cy="28" r="2"/>
</svg>
