<?xml version="1.0" encoding="utf-8"?>
<!-- Generator: Adobe Illustrator 16.0.4, SVG Export Plug-In . SVG Version: 6.00 Build 0)  -->
<!DOCTYPE svg PUBLIC "-//W3C//DTD SVG 1.1//EN" "http://www.w3.org/Graphics/SVG/1.1/DTD/svg11.dtd">
<svg version="1.1" id="Layer_1" xmlns="http://www.w3.org/2000/svg" xmlns:xlink="http://www.w3.org/1999/xlink" x="0px" y="0px"
	 width="530px" height="40px" viewBox="0 0 530 40" enable-background="new 0 0 530 40" xml:space="preserve">
<g>
	<path fill="#FFFFFF" d="M10.035,8.907H2.222c-0.601,0-1.038-0.492-1.038-1.038V1.913c0-0.547,0.437-1.038,1.038-1.038h24.261
		c0.601,0,1.038,0.491,1.038,1.038v5.956c0,0.546-0.437,1.038-1.038,1.038h-7.813v29.179c0,0.546-0.492,1.038-1.039,1.038h-6.557
		c-0.546,0-1.039-0.492-1.039-1.038V8.907z"/>
	<path fill="#FFFFFF" d="M43.914,1.913c0-0.547,0.437-1.038,1.038-1.038h22.622c0.601,0,1.039,0.491,1.039,1.038v5.956
		c0,0.546-0.438,1.038-1.039,1.038H52.438v6.775h12.458c0.546,0,1.038,0.492,1.038,1.038v5.956c0,0.602-0.492,1.038-1.038,1.038
		H52.438v7.377h15.136c0.601,0,1.039,0.491,1.039,1.038v5.956c0,0.546-0.438,1.038-1.039,1.038H44.952
		c-0.601,0-1.038-0.492-1.038-1.038V1.913z"/>
	<path fill="#FFFFFF" d="M100.524,0.329c5.464,0,9.508,1.693,13.223,5.081c0.492,0.437,0.492,1.093,0.055,1.53l-4.262,4.426
		c-0.382,0.383-0.983,0.383-1.366,0c-2.022-1.803-4.699-2.787-7.377-2.787c-6.174,0-10.709,5.137-10.709,11.256
		c0,6.066,4.59,11.093,10.764,11.093c2.568,0,5.355-0.929,7.322-2.622c0.382-0.328,1.093-0.328,1.42,0.054l4.262,4.536
		c0.382,0.382,0.328,1.092-0.055,1.475c-3.716,3.606-8.415,5.301-13.278,5.301c-10.928,0-19.726-8.688-19.726-19.617
		C80.799,9.126,89.596,0.329,100.524,0.329z"/>
	<path fill="#FFFFFF" d="M128.01,1.913c0-0.547,0.492-1.038,1.038-1.038h6.502c0.601,0,1.038,0.491,1.038,1.038v13.77h15.627V1.913
		c0-0.547,0.438-1.038,1.039-1.038h6.502c0.547,0,1.039,0.491,1.039,1.038v36.173c0,0.546-0.492,1.038-1.039,1.038h-6.502
		c-0.601,0-1.039-0.492-1.039-1.038V23.715h-15.627v14.371c0,0.546-0.437,1.038-1.038,1.038h-6.502
		c-0.546,0-1.038-0.492-1.038-1.038V1.913z"/>
	<path fill="#FFFFFF" d="M184.127,4.536h-9.508c-0.601,0-1.038-0.492-1.038-1.039V1.913c0-0.547,0.437-1.038,1.038-1.038h23.168
		c0.601,0,1.038,0.491,1.038,1.038v1.584c0,0.547-0.437,1.039-1.038,1.039h-9.508v33.55c0,0.546-0.492,1.038-1.038,1.038h-2.077
		c-0.546,0-1.038-0.492-1.038-1.038V4.536z"/>
	<path fill="#FFFFFF" d="M205.165,37.703L221.776,0.93c0.164-0.328,0.437-0.601,0.929-0.601h0.546c0.492,0,0.765,0.272,0.929,0.601
		l16.502,36.773c0.328,0.71-0.109,1.421-0.929,1.421h-2.186c-0.492,0-0.82-0.328-0.929-0.602l-4.043-9.016h-19.397l-3.989,9.016
		c-0.109,0.273-0.438,0.602-0.929,0.602h-2.186C205.274,39.124,204.837,38.413,205.165,37.703z M231.12,26.119
		c-2.678-5.956-5.3-11.966-7.978-17.923h-0.438l-7.978,17.923H231.12z"/>
	<path fill="#FFFFFF" d="M253.196,2.187c0-0.711,0.547-1.312,1.312-1.312h1.584c0.71,0,1.312,0.601,1.312,1.312v15.463
		l17.048-16.229c0.219-0.273,0.71-0.546,1.038-0.546h2.678c0.983,0,1.53,1.093,0.655,1.912l-17.267,16.12l18.086,18.523
		c0.382,0.382,0.273,1.693-0.929,1.693h-2.787c-0.382,0-0.874-0.219-0.983-0.383l-17.54-18.305v17.376
		c0,0.71-0.601,1.312-1.312,1.312h-1.584c-0.765,0-1.312-0.602-1.312-1.312V2.187z"/>
	<path fill="#FFFFFF" d="M293.25,1.913c0-0.547,0.438-1.038,1.039-1.038h21.529c0.601,0,1.038,0.491,1.038,1.038v1.584
		c0,0.547-0.437,1.039-1.038,1.039h-18.36v13.332h15.682c0.546,0,1.039,0.492,1.039,1.039v1.584c0,0.602-0.492,1.038-1.039,1.038
		h-15.682v13.934h18.36c0.601,0,1.038,0.491,1.038,1.038v1.585c0,0.546-0.437,1.038-1.038,1.038h-21.529
		c-0.601,0-1.039-0.492-1.039-1.038V1.913z"/>
	<path fill="#FFFFFF" d="M348.823,0.329c10.928,0,19.67,8.797,19.67,19.725c0,10.929-8.742,19.617-19.67,19.617
		c-10.929,0-19.617-8.688-19.617-19.617C329.206,9.126,337.894,0.329,348.823,0.329z M348.823,35.846
		c8.688,0,15.846-7.104,15.846-15.792c0-8.688-7.158-15.9-15.846-15.9c-8.688,0-15.792,7.213-15.792,15.9
		C333.031,28.742,340.134,35.846,348.823,35.846z"/>
	<path fill="#FFFFFF" d="M378.003,2.296c-0.328-0.711,0.109-1.421,0.929-1.421h2.186c0.492,0,0.819,0.327,0.929,0.601l13.606,30.6
		h0.218l13.606-30.6c0.109-0.273,0.491-0.601,0.929-0.601h2.186c0.819,0,1.257,0.71,0.929,1.421l-16.611,36.773
		c-0.163,0.328-0.491,0.602-0.929,0.602h-0.546c-0.383,0-0.766-0.273-0.929-0.602L378.003,2.296z"/>
	<path fill="#FFFFFF" d="M426.033,1.913c0-0.547,0.438-1.038,1.038-1.038h21.529c0.601,0,1.038,0.491,1.038,1.038v1.584
		c0,0.547-0.438,1.039-1.038,1.039h-18.359v13.332h15.682c0.547,0,1.038,0.492,1.038,1.039v1.584c0,0.602-0.491,1.038-1.038,1.038
		h-15.682v13.934h18.359c0.601,0,1.038,0.491,1.038,1.038v1.585c0,0.546-0.438,1.038-1.038,1.038h-21.529
		c-0.601,0-1.038-0.492-1.038-1.038V1.913z"/>
	<path fill="#FFFFFF" d="M464.939,1.913c0-0.547,0.438-1.038,1.038-1.038h14.152c6.558,0,11.912,5.136,11.912,11.639
		c0,5.026-3.333,9.234-8.087,11.147l7.485,13.879c0.383,0.71,0,1.584-0.929,1.584h-2.786c-0.492,0-0.766-0.273-0.875-0.492
		l-7.267-14.479h-10.437v13.934c0,0.546-0.492,1.038-1.039,1.038h-2.131c-0.601,0-1.038-0.492-1.038-1.038V1.913z M479.856,20.546
		c4.208,0,7.869-3.497,7.869-7.978c0-4.153-3.661-7.704-7.869-7.704h-10.6v15.682H479.856z"/>
	<path fill="#FFFFFF" d="M505.156,33.387c0.273-0.328,0.547-0.71,0.82-1.038c0.546-0.711,1.147-1.147,1.912-0.492
		c0.383,0.328,4.371,4.152,9.234,4.152c4.426,0,7.322-2.786,7.322-6.01c0-3.771-3.278-6.011-9.562-8.634
		c-6.011-2.622-9.617-5.081-9.617-11.311c0-3.716,2.951-9.726,11.639-9.726c5.355,0,9.344,2.786,9.344,2.786
		c0.328,0.164,0.983,0.819,0.328,1.858c-0.219,0.327-0.438,0.709-0.655,1.037c-0.492,0.766-1.039,0.984-1.913,0.492
		c-0.383-0.219-3.825-2.514-7.158-2.514c-5.792,0-7.54,3.716-7.54,6.011c0,3.661,2.786,5.792,7.376,7.704
		c7.377,3.006,12.131,5.793,12.131,12.131c0,5.683-5.409,9.836-11.803,9.836c-6.447,0-10.819-3.771-11.529-4.426
		C505.047,34.862,504.501,34.425,505.156,33.387z"/>
</g>
</svg>
