<?xml version="1.0" encoding="utf-8"?>
<!-- Generator: Adobe Illustrator 19.2.0, SVG Export Plug-In . SVG Version: 6.00 Build 0)  -->
<svg version="1.1" id="Layer_1" xmlns="http://www.w3.org/2000/svg" xmlns:xlink="http://www.w3.org/1999/xlink" x="0px" y="0px"
	 viewBox="0 0 58 58" style="enable-background:new 0 0 58 58;" xml:space="preserve">
<style type="text/css">
	.st0{fill:#8CC640;}
	.st1{fill-rule:evenodd;clip-rule:evenodd;fill:none;stroke:#8CC640;stroke-width:2;stroke-linecap:round;stroke-miterlimit:10;}
</style>
<g>
	<path class="st0" d="M29,58C13,58,0,45,0,29S13,0,29,0s29,13,29,29S45,58,29,58z M29,2.6C14.4,2.6,2.6,14.4,2.6,29
		S14.4,55.4,29,55.4S55.4,43.6,55.4,29S43.6,2.6,29,2.6z"/>
</g>
<g>
	<path class="st1" d="M32.1,31.4c0.3-0.8,0.5-1.4,0.5-2.4c0-4-3.2-7-7.2-7h-6.2c-4,0-7.3,3-7.3,7s3.2,7,7.3,7H24"/>
	<path class="st1" d="M26.2,26.3c-0.3,0.8-0.3,1.6-0.3,2.5c0,4,3.4,7.2,7.4,7.2h6.2c4,0,7.3-3,7.3-7s-3.2-7-7.3-7H34"/>
</g>
</svg>
