<?xml version="1.0" encoding="utf-8"?>
<!-- Generator: Adobe Illustrator 21.0.0, SVG Export Plug-In . SVG Version: 6.00 Build 0)  -->
<svg version="1.1" id="Layer_1" xmlns="http://www.w3.org/2000/svg" xmlns:xlink="http://www.w3.org/1999/xlink" x="0px" y="0px"
	 viewBox="0 0 92 69" style="enable-background:new 0 0 92 69;" xml:space="preserve">
<style type="text/css">
	.st0{opacity:0.25;}
	.st1{fill:#3D4351;}
	.st2{fill:#FFAD01;}
	.st3{fill:#FF8FFA;}
</style>
<g class="st0">
	<g>
		<path class="st1" d="M12,60c1.1,0,2,0.9,2,2s-0.9,2-2,2s-2-0.9-2-2S10.9,60,12,60 M12,58c-2.2,0-4,1.8-4,4c0,2.2,1.8,4,4,4
			s4-1.8,4-4S14.2,58,12,58L12,58z"/>
	</g>
	<g>
		<g>
			<path class="st1" d="M8,22c-0.3,0-0.5-0.1-0.7-0.3l-2-2c-0.4-0.4-0.4-1,0-1.4s1-0.4,1.4,0l2,2c0.4,0.4,0.4,1,0,1.4
				C8.5,21.9,8.3,22,8,22z"/>
		</g>
		<g>
			<path class="st1" d="M3,17c-0.3,0-0.5-0.1-0.7-0.3l-2-2c-0.4-0.4-0.4-1,0-1.4s1-0.4,1.4,0l2,2c0.4,0.4,0.4,1,0,1.4
				C3.5,16.9,3.3,17,3,17z"/>
		</g>
		<g>
			<path class="st1" d="M1,22c-0.3,0-0.5-0.1-0.7-0.3c-0.4-0.4-0.4-1,0-1.4l2-2c0.4-0.4,1-0.4,1.4,0s0.4,1,0,1.4l-2,2
				C1.5,21.9,1.3,22,1,22z"/>
		</g>
		<g>
			<path class="st1" d="M6,17c-0.3,0-0.5-0.1-0.7-0.3c-0.4-0.4-0.4-1,0-1.4l2-2c0.4-0.4,1-0.4,1.4,0s0.4,1,0,1.4l-2,2
				C6.5,16.9,6.3,17,6,17z"/>
		</g>
	</g>
	<g>
		<g>
			<path class="st1" d="M86.8,10h-7.5C78.5,10,78,9.6,78,9s0.5-1,1.2-1h7.5C87.5,8,88,8.4,88,9S87.5,10,86.8,10z"/>
		</g>
		<g>
			<path class="st1" d="M83,14c-0.6,0-1-0.5-1-1.2V5.2C82,4.5,82.4,4,83,4s1,0.5,1,1.2v7.5C84,13.5,83.6,14,83,14z"/>
		</g>
	</g>
</g>
<g>
	<path class="st2" d="M68,57.2l0.6-7.9c0.4-4.4,4.1-7.9,8.5-7.9c0.3,0,0.7,0,1,0.1c0.6-2.4,0.9-4.9,0.9-7.5C79,16.3,64.7,2,47,2
		S15,16.3,15,34s14.3,32,32,32c8,0,15.3-3,21-7.8C67.9,57.8,68,57.5,68,57.2z"/>
</g>
<g>
	<path class="st1" d="M59.4,39c1,0,1.7,0.8,1.6,1.8c-0.9,6.9-6.8,12.3-14,12.3s-13.1-5.4-14-12.3c-0.1-0.9,0.6-1.8,1.6-1.8H59.4z"/>
</g>
<g>
	<path class="st1" d="M30.1,29.9c-0.1,0-0.1,0-0.2,0c-0.5-0.1-0.9-0.6-0.8-1.2c0.7-3.2,3.5-5.6,6.9-5.6c3.3,0,6.1,2.3,6.8,5.5
		c0.1,0.5-0.2,1.1-0.8,1.2c-0.5,0.1-1.1-0.2-1.2-0.8c-0.5-2.3-2.6-3.9-4.9-3.9c-2.4,0-4.4,1.7-4.9,4C31,29.6,30.6,29.9,30.1,29.9z"
		/>
</g>
<g>
	<path class="st1" d="M52.1,29.9c-0.1,0-0.1,0-0.2,0c-0.5-0.1-0.9-0.6-0.8-1.2c0.7-3.2,3.5-5.6,6.9-5.6c3.3,0,6.1,2.3,6.8,5.5
		c0.1,0.5-0.2,1.1-0.8,1.2c-0.5,0.1-1.1-0.2-1.2-0.8c-0.5-2.3-2.6-3.9-4.9-3.9c-2.4,0-4.4,1.7-4.9,4C53,29.6,52.6,29.9,52.1,29.9z"
		/>
</g>
<g>
	<path class="st2" d="M89.7,56.2c0.3-4.4,0.8-11.2,1.4-14.4l0.6-3.2c0.2-1.1-0.5-2.1-1.6-2.3l0,0c-2.2-0.4-4.3,1.1-4.6,3.2l-1.3,7.1
		c-1.8-1.4-4.7-2.1-4.7-2.1l-0.8-0.1c-3.8-0.7-7.4,2.1-7.7,5.9l-0.6,7.9c-0.3,3.4,2.1,6.4,5.4,7l2.1,0.4c4.1,0.7,8.3-1.2,10.5-5
		C89.2,59.3,89.6,57.7,89.7,56.2z"/>
</g>
<g>
	<path class="st3" d="M47,43.4c-3.5,0-6.7,0.9-9.5,2.4c2.2,2.9,5.7,4.7,9.5,4.7s7.3-1.8,9.5-4.7C53.7,44.3,50.5,43.4,47,43.4z"/>
</g>
</svg>
