<?xml version="1.0" encoding="utf-8"?>
<!-- Generator: Adobe Illustrator 18.1.0, SVG Export Plug-In . SVG Version: 6.00 Build 0)  -->
<!DOCTYPE svg PUBLIC "-//W3C//DTD SVG 1.1//EN" "http://www.w3.org/Graphics/SVG/1.1/DTD/svg11.dtd">
<svg version="1.1" id="Layer_1" xmlns="http://www.w3.org/2000/svg" xmlns:xlink="http://www.w3.org/1999/xlink" x="0px" y="0px"
	 viewBox="0 0 58 58" enable-background="new 0 0 58 58" xml:space="preserve">
<path fill="#8CC640" d="M29,58C13,58,0,45,0,29S13,0,29,0s29,13,29,29S45,58,29,58z M29,2.6C14.4,2.6,2.6,14.5,2.6,29
	S14.5,55.4,29,55.4S55.4,43.5,55.4,29S43.6,2.6,29,2.6z"/>
<rect x="7.5" y="20" fill="#FFFFFF" stroke="#8CC640" stroke-width="2" stroke-miterlimit="10" width="24" height="18"/>
<rect x="26.9" y="19.7" fill="#FFFFFF" stroke="#8CC640" stroke-width="2" stroke-miterlimit="10" width="24" height="18"/>
<rect x="13" y="17" fill="#FFFFFF" stroke="#8CC640" stroke-width="2" stroke-miterlimit="10" width="32" height="24"/>
<path fill="#8CC640" stroke="#8CC640" stroke-width="0.25" stroke-miterlimit="10" d="M19.6,33.6c-0.1,0-0.2,0-0.2-0.1l-1.5-1.9
	c-0.1-0.1-0.1-0.3,0-0.4s0.3-0.1,0.4,0l1.5,1.9c0.1,0.1,0.1,0.3,0,0.4C19.7,33.5,19.7,33.6,19.6,33.6z M19.6,33.6
	c-0.1,0-0.1,0-0.2-0.1c-0.1-0.1-0.2-0.3-0.1-0.4l1.8-2.3c0.1-0.1,0.3-0.2,0.4-0.1c0.1,0.1,0.2,0.3,0.1,0.4l-1.8,2.3
	C19.8,33.5,19.7,33.6,19.6,33.6z M24.6,36.6c-0.1,0-0.2-0.1-0.3-0.1l-3.2-5.4c-0.1-0.1,0-0.3,0.1-0.4c0.1-0.1,0.3,0,0.4,0.1l3.2,5.4
	c0.1,0.1,0,0.3-0.1,0.4C24.7,36.6,24.6,36.6,24.6,36.6z M24.6,36.6c-0.1,0-0.1,0-0.1,0c-0.1-0.1-0.2-0.3-0.1-0.4l1.8-3.1
	c0.1-0.1,0.3-0.2,0.4-0.1c0.1,0.1,0.2,0.3,0.1,0.4l-1.8,3.1C24.8,36.6,24.7,36.6,24.6,36.6z M28.7,35.9c-0.1,0-0.2,0-0.2-0.1
	l-2.3-2.4c-0.1-0.1-0.1-0.3,0-0.4c0.1-0.1,0.3-0.1,0.4,0l2.3,2.4c0.1,0.1,0.1,0.3,0,0.4C28.8,35.9,28.7,35.9,28.7,35.9z M28.7,35.9
	c-0.1,0-0.1,0-0.2,0c-0.1-0.1-0.2-0.3-0.1-0.4l3-4.7c0.1-0.1,0.3-0.2,0.4-0.1c0.1,0.1,0.2,0.3,0.1,0.4l-3,4.7
	C28.8,35.9,28.8,35.9,28.7,35.9z M34.3,35.7c-0.1,0-0.2-0.1-0.3-0.1l-2.7-4.4c-0.1-0.1,0-0.3,0.1-0.4c0.1-0.1,0.3,0,0.4,0.1l2.7,4.4
	c0.1,0.1,0,0.3-0.1,0.4C34.4,35.6,34.4,35.7,34.3,35.7z M34.3,35.7c-0.1,0-0.1,0-0.2-0.1c-0.1-0.1-0.2-0.3-0.1-0.4l5.9-8.4
	c0.1-0.1,0.3-0.2,0.4-0.1c0.1,0.1,0.2,0.3,0.1,0.4l-5.9,8.4C34.5,35.6,34.4,35.7,34.3,35.7z"/>
<line fill="#FFFFFF" stroke="#8CC640" stroke-miterlimit="10" x1="13" y1="23.6" x2="45" y2="23.6"/>
</svg>
