<?xml version="1.0" encoding="utf-8"?>
<!-- Generator: Adobe Illustrator 18.1.0, SVG Export Plug-In . SVG Version: 6.00 Build 0)  -->
<!DOCTYPE svg PUBLIC "-//W3C//DTD SVG 1.1//EN" "http://www.w3.org/Graphics/SVG/1.1/DTD/svg11.dtd">
<svg version="1.1" id="Layer_1" xmlns="http://www.w3.org/2000/svg" xmlns:xlink="http://www.w3.org/1999/xlink" x="0px" y="0px"
	 viewBox="0 0 426 318" enable-background="new 0 0 426 318" xml:space="preserve">
<g>
	<g>
		
			<rect x="109.4" y="40.8" fill="none" stroke="#8BC541" stroke-width="2" stroke-linecap="round" stroke-linejoin="round" stroke-miterlimit="10" width="86" height="88.9"/>
		<g>
			<path fill="none" stroke="#3C4352" stroke-width="3" stroke-linecap="round" stroke-linejoin="round" stroke-miterlimit="10" d="
				M134,80.2c0.8,1.4,0.1,2.5-1.4,2.5h-13.9c-1.6,0-2.2-1.1-1.4-2.5l7-12.4c0.8-1.4,2-1.4,2.8,0L134,80.2z"/>
			<g>
				<path fill="#3C4352" d="M140.5,67.1c0-0.2,0.2-0.5,0.5-0.5h0.9c0.3,0,0.5,0.2,0.5,0.5V77c0,2.7,1.7,4.8,4.5,4.8
					c2.8,0,4.5-2.1,4.5-4.8v-10c0-0.2,0.2-0.5,0.5-0.5h0.9c0.2,0,0.5,0.2,0.5,0.5v10.1c0,3.6-2.6,6.4-6.3,6.4
					c-3.7,0-6.3-2.8-6.3-6.4V67.1z"/>
				<path fill="#3C4352" d="M157.7,67.1c0-0.2,0.2-0.5,0.5-0.5h5.3c2.9,0,5.3,2.4,5.3,5.3c0,2.9-2.4,5.3-5.3,5.3h-3.9v5.6
					c0,0.2-0.2,0.5-0.5,0.5h-0.9c-0.3,0-0.5-0.2-0.5-0.5V67.1z M163.3,75.5c1.9,0,3.6-1.6,3.6-3.6c0-1.9-1.7-3.4-3.6-3.4h-3.8v7
					H163.3z"/>
			</g>
		</g>
		<g>
			<path fill="#8BC541" d="M116.8,113.9l0.4-0.4c0.1-0.1,0.1-0.1,0.2,0c0,0,0.5,0.4,1,0.4c0.4,0,0.8-0.3,0.8-0.7
				c0-0.4-0.4-0.8-1.1-0.8h-0.4c-0.1,0-0.1-0.1-0.1-0.2v-0.5c0-0.1,0.1-0.2,0.1-0.2h0.4c0.6,0,1-0.3,1-0.7c0-0.4-0.4-0.7-0.8-0.7
				c-0.4,0-0.6,0.2-0.8,0.4c-0.1,0.1-0.1,0.1-0.2,0l-0.4-0.4c-0.1-0.1-0.1-0.1,0-0.2c0,0,0.6-0.7,1.5-0.7c0.9,0,1.6,0.5,1.6,1.4
				c0,0.6-0.4,1-0.8,1.2v0c0.4,0.2,0.9,0.6,0.9,1.3c0,0.9-0.7,1.5-1.8,1.5c-1,0-1.4-0.5-1.6-0.7C116.7,114,116.7,113.9,116.8,113.9z
				"/>
			<path fill="#8BC541" d="M121.2,113.4v-0.6l2.8-3.4c0,0,0.1,0,0.1,0h0.4c0.1,0,0.1,0.1,0.1,0.1v3.3h0.6c0.1,0,0.1,0.1,0.1,0.1v0.5
				c0,0.1-0.1,0.1-0.1,0.1h-0.6l0,1c0,0.1-0.1,0.1-0.1,0.1h-0.6c-0.1,0-0.1-0.1-0.1-0.1v-1h-2.4
				C121.3,113.6,121.2,113.5,121.2,113.4z M123.8,112.8v-1.9l-1.5,1.9H123.8z"/>
			<path fill="#8BC541" d="M128.1,111.5c0.3,0,0.5,0.1,0.7,0.1v-2.2c0-0.1,0.1-0.1,0.1-0.1h0.7c0.1,0,0.1,0.1,0.1,0.1v5.1
				c0,0.1-0.1,0.1-0.1,0.1h-0.3c-0.1,0-0.1-0.1-0.1-0.1l-0.1-0.2c0,0-0.4,0.5-1,0.5c-0.8,0-1.5-0.7-1.5-1.6
				C126.5,112.2,127.1,111.5,128.1,111.5z M128.1,113.9c0.4,0,0.6-0.3,0.6-0.5v-0.9c0,0-0.2-0.2-0.6-0.2c-0.4,0-0.8,0.4-0.8,0.8
				S127.7,113.9,128.1,113.9z"/>
			<path fill="#8BC541" d="M134.1,110.8l-0.7,0.1c-0.1,0-0.1,0-0.2-0.1l0-0.4c0-0.1,0-0.1,0-0.1l1.1-0.9h0.5c0.1,0,0.1,0.1,0.1,0.1
				v5c0,0.1-0.1,0.1-0.1,0.1h-0.7c-0.1,0-0.1-0.1-0.1-0.1V110.8z"/>
			<path fill="#8BC541" d="M137.4,114c0.4-0.1,1.5-0.6,1.7-1.5c-0.1,0.1-0.5,0.2-0.9,0.2c-0.8,0-1.6-0.6-1.6-1.7
				c0-1,0.8-1.8,1.7-1.8c1.2,0,1.8,1,1.8,2.1c0,2.3-1.9,3.2-2.6,3.4c-0.1,0-0.2,0-0.2-0.1l-0.2-0.5
				C137.2,114.2,137.2,114.1,137.4,114z M139.3,111.3c0-0.5-0.3-1.1-0.9-1.1c-0.5,0-0.9,0.4-0.9,0.9c0,0.5,0.4,0.9,0.9,0.9
				C138.9,112,139.2,111.6,139.3,111.3z"/>
			<path fill="#8BC541" d="M141.6,109.4c0-0.1,0.1-0.1,0.1-0.1h0.7c0.1,0,0.1,0.1,0.1,0.1v2.4c0.2-0.1,0.5-0.3,0.8-0.3
				c1,0,1.4,0.8,1.4,1.5v1.5c0,0.1-0.1,0.1-0.1,0.1H144c-0.1,0-0.1-0.1-0.1-0.1v-1.5c0-0.4-0.2-0.7-0.6-0.7c-0.4,0-0.6,0.2-0.7,0.5
				v1.6c0,0.1,0,0.1-0.2,0.1h-0.6c-0.1,0-0.1-0.1-0.1-0.1V109.4z"/>
			<path fill="#8BC541" d="M146.2,111.8c0-0.1,0.1-0.1,0.1-0.1h0.3c0.1,0,0.1,0,0.1,0.1l0.1,0.3c0.1-0.2,0.4-0.5,0.9-0.5
				c0.4,0,0.7,0.1,0.6,0.3l-0.3,0.5c0,0.1-0.1,0.1-0.2,0.1c0,0-0.1,0-0.2,0c-0.3,0-0.5,0.2-0.5,0.3v1.9c0,0.1-0.1,0.1-0.2,0.1h-0.6
				c-0.1,0-0.1-0.1-0.1-0.1V111.8z"/>
		</g>
		<g>
			<path fill="#8BC541" d="M117.1,98c0-0.1,0-0.1,0.1-0.1h0.2c0.1,0,0.1,0.1,0.1,0.1v3.7h1.7c0.1,0,0.1,0.1,0.1,0.1v0.2
				c0,0.1,0,0.1-0.1,0.1h-2.1c-0.1,0-0.1-0.1-0.1-0.1V98z"/>
			<path fill="#8BC541" d="M119.9,101.9l1.8-4c0,0,0-0.1,0.1-0.1h0.1c0.1,0,0.1,0,0.1,0.1l1.8,4c0,0.1,0,0.2-0.1,0.2h-0.2
				c-0.1,0-0.1,0-0.1-0.1l-0.4-1h-2.1l-0.4,1c0,0,0,0.1-0.1,0.1H120C119.9,102.1,119.9,102,119.9,101.9z M122.8,100.6
				c-0.3-0.6-0.6-1.3-0.9-2h0l-0.9,2H122.8z"/>
			<path fill="#8BC541" d="M124.5,101.4c0,0,0.1-0.1,0.1-0.1c0.1-0.1,0.1-0.1,0.2-0.1c0,0,0.5,0.5,1,0.5c0.5,0,0.8-0.3,0.8-0.7
				c0-0.4-0.4-0.7-1-0.9c-0.7-0.3-1-0.6-1-1.2c0-0.4,0.3-1.1,1.3-1.1c0.6,0,1,0.3,1,0.3c0,0,0.1,0.1,0,0.2c0,0,0,0.1-0.1,0.1
				c-0.1,0.1-0.1,0.1-0.2,0.1c0,0-0.4-0.3-0.8-0.3c-0.6,0-0.8,0.4-0.8,0.7c0,0.4,0.3,0.6,0.8,0.8c0.8,0.3,1.3,0.6,1.3,1.3
				c0,0.6-0.6,1.1-1.3,1.1c-0.7,0-1.2-0.4-1.3-0.5C124.5,101.6,124.4,101.5,124.5,101.4z"/>
			<path fill="#8BC541" d="M128.8,98.3h-1c-0.1,0-0.1-0.1-0.1-0.1V98c0-0.1,0-0.1,0.1-0.1h2.5c0.1,0,0.1,0.1,0.1,0.1v0.2
				c0,0.1,0,0.1-0.1,0.1h-1v3.7c0,0.1-0.1,0.1-0.1,0.1h-0.2c-0.1,0-0.1-0.1-0.1-0.1V98.3z"/>
			<path fill="#8BC541" d="M133,98c0-0.1,0-0.1,0.1-0.1h1.3c1.1,0,2.1,0.9,2.1,2.1c0,1.2-0.9,2.1-2.1,2.1h-1.3
				c-0.1,0-0.1-0.1-0.1-0.1V98z M134.3,101.6c1,0,1.7-0.7,1.7-1.7c0-1-0.7-1.7-1.7-1.7h-0.9v3.4H134.3z"/>
			<path fill="#8BC541" d="M139.6,97.8c1.2,0,2.1,1,2.1,2.1c0,1.2-1,2.1-2.1,2.1c-1.2,0-2.1-0.9-2.1-2.1
				C137.4,98.8,138.4,97.8,139.6,97.8z M139.6,101.7c0.9,0,1.7-0.8,1.7-1.7c0-0.9-0.8-1.7-1.7-1.7s-1.7,0.8-1.7,1.7
				C137.8,100.9,138.6,101.7,139.6,101.7z"/>
			<path fill="#8BC541" d="M142.5,98c0-0.1,0-0.1,0.1-0.1h0.2c0,0,0.1,0,0.1,0.1l0.8,3.1h0l1-3.2c0,0,0-0.1,0.1-0.1h0.1
				c0,0,0.1,0,0.1,0.1l1,3.2h0L147,98c0,0,0.1-0.1,0.1-0.1h0.2c0.1,0,0.1,0.1,0.1,0.1l-1.1,4c0,0-0.1,0.1-0.1,0.1h-0.1
				c0,0-0.1,0-0.1-0.1l-1-3.2h0l-1,3.2c0,0-0.1,0.1-0.1,0.1h-0.1c0,0-0.1,0-0.1-0.1L142.5,98z"/>
			<path fill="#8BC541" d="M148.5,97.9c0-0.1,0.1-0.1,0.1-0.1h0.1l2.7,3.3c0,0,0,0,0,0V98c0-0.1,0-0.1,0.1-0.1h0.2
				c0.1,0,0.1,0.1,0.1,0.1v4c0,0.1-0.1,0.1-0.1,0.1h-0.1l-2.7-3.4h0v3.2c0,0.1,0,0.1-0.1,0.1h-0.2c-0.1,0-0.1-0.1-0.1-0.1V97.9z"/>
			<path fill="#8BC541" d="M154,98.3h-1c-0.1,0-0.1-0.1-0.1-0.1V98c0-0.1,0-0.1,0.1-0.1h2.5c0.1,0,0.1,0.1,0.1,0.1v0.2
				c0,0.1,0,0.1-0.1,0.1h-1v3.7c0,0.1-0.1,0.1-0.1,0.1h-0.2c-0.1,0-0.1-0.1-0.1-0.1V98.3z"/>
			<path fill="#8BC541" d="M156.6,98c0-0.1,0.1-0.1,0.1-0.1h0.2c0.1,0,0.1,0.1,0.1,0.1v3.9c0,0.1-0.1,0.1-0.1,0.1h-0.2
				c-0.1,0-0.1-0.1-0.1-0.1V98z"/>
			<path fill="#8BC541" d="M159,97.9c0,0,0.1-0.1,0.1-0.1h0.1c0,0,0.1,0,0.1,0.1l1.2,3.3c0,0,0,0,0,0l1.2-3.3c0,0,0.1-0.1,0.1-0.1
				h0.1c0,0,0.1,0,0.1,0.1l0.8,4c0,0.1,0,0.1-0.1,0.1h-0.2c0,0-0.1,0-0.1-0.1l-0.5-3.1c0,0,0,0,0,0l-1.1,3.1c0,0-0.1,0.1-0.1,0.1
				h-0.1c0,0-0.1,0-0.1-0.1l-1.1-3.1c0,0,0,0,0,0l-0.5,3.1c0,0-0.1,0.1-0.1,0.1h-0.2c-0.1,0-0.1-0.1-0.1-0.1L159,97.9z"/>
			<path fill="#8BC541" d="M164,98c0-0.1,0-0.1,0.1-0.1h2.3c0.1,0,0.1,0.1,0.1,0.1v0.2c0,0.1,0,0.1-0.1,0.1h-2v1.5h1.7
				c0.1,0,0.1,0.1,0.1,0.1v0.2c0,0.1-0.1,0.1-0.1,0.1h-1.7v1.5h2c0.1,0,0.1,0.1,0.1,0.1v0.2c0,0.1,0,0.1-0.1,0.1h-2.3
				c-0.1,0-0.1-0.1-0.1-0.1V98z"/>
		</g>
		
			<circle fill="none" stroke="#3C4352" stroke-linecap="round" stroke-linejoin="round" stroke-miterlimit="10" cx="116.7" cy="48.4" r="1.1"/>
		<g>
			<path fill="#3C4352" d="M122.3,47.4C122.3,47.4,122.3,47.3,122.3,47.4l0.4-0.1c0,0,0.1,0,0.1,0l0.4,1.4h0l0.6-1.5c0,0,0,0,0.1,0
				h0.1c0,0,0.1,0,0.1,0l0.6,1.5h0l0.4-1.4c0,0,0,0,0.1,0h0.3c0,0,0.1,0,0.1,0.1l-0.7,2.4c0,0,0,0-0.1,0h-0.1c0,0-0.1,0-0.1,0
				l-0.6-1.6h0l-0.6,1.6c0,0,0,0-0.1,0H123c0,0-0.1,0-0.1,0L122.3,47.4z"/>
			<path fill="#3C4352" d="M125.9,47.4C125.9,47.4,125.9,47.3,125.9,47.4l1.5-0.1c0,0,0.1,0,0.1,0.1v0.3c0,0,0,0.1-0.1,0.1h-1v0.6
				h0.9c0,0,0.1,0,0.1,0.1v0.3c0,0,0,0.1-0.1,0.1h-0.9v0.6h1c0,0,0.1,0,0.1,0.1v0.3c0,0,0,0.1-0.1,0.1H126c0,0-0.1,0-0.1-0.1V47.4z"
				/>
			<path fill="#3C4352" d="M128.2,47.4C128.2,47.4,128.2,47.3,128.2,47.4l0.9-0.1c0.4,0,0.7,0.3,0.7,0.7c0,0.3-0.2,0.5-0.4,0.6
				c0.2,0.1,0.5,0.3,0.5,0.6c0,0.4-0.3,0.7-0.8,0.7h-0.9c0,0-0.1,0-0.1-0.1V47.4z M129,48.4c0.2,0,0.3-0.1,0.3-0.3s-0.1-0.3-0.3-0.3
				h-0.4v0.6H129z M129,49.4c0.2,0,0.3-0.1,0.3-0.3c0-0.2-0.2-0.3-0.4-0.3h-0.4v0.6H129z"/>
			<path fill="#3C4352" d="M130.4,49.5l0.1-0.2c0,0,0.1,0,0.1,0c0,0,0.3,0.2,0.5,0.2c0.2,0,0.3-0.1,0.3-0.3c0-0.2-0.2-0.3-0.4-0.4
				c-0.3-0.1-0.7-0.3-0.7-0.8c0-0.3,0.2-0.7,0.8-0.7c0.4,0,0.6,0.2,0.7,0.2c0,0,0,0.1,0,0.1l-0.1,0.2c0,0-0.1,0.1-0.1,0
				c0,0-0.3-0.2-0.5-0.2c-0.2,0-0.3,0.1-0.3,0.2c0,0.2,0.1,0.3,0.4,0.4c0.3,0.1,0.7,0.3,0.7,0.8c0,0.4-0.3,0.7-0.8,0.7
				c-0.4,0-0.7-0.2-0.8-0.3C130.4,49.5,130.3,49.5,130.4,49.5z"/>
			<path fill="#3C4352" d="M132.6,47.4C132.6,47.4,132.6,47.3,132.6,47.4l0.4-0.1c0,0,0.1,0,0.1,0.1v2.3c0,0,0,0.1-0.1,0.1h-0.3
				c0,0-0.1,0-0.1-0.1V47.4z"/>
			<path fill="#3C4352" d="M134.2,47.7h-0.5c0,0-0.1,0-0.1-0.1v-0.3c0,0,0-0.1,0.1-0.1h1.5c0,0,0.1,0,0.1,0.1v0.3c0,0,0,0.1-0.1,0.1
				h-0.5v2c0,0,0,0.1-0.1,0.1h-0.3c0,0-0.1,0-0.1-0.1V47.7z"/>
			<path fill="#3C4352" d="M135.9,47.4C135.9,47.4,135.9,47.3,135.9,47.4l1.5-0.1c0,0,0.1,0,0.1,0.1v0.3c0,0,0,0.1-0.1,0.1h-1v0.6
				h0.9c0,0,0.1,0,0.1,0.1v0.3c0,0,0,0.1-0.1,0.1h-0.9v0.6h1c0,0,0.1,0,0.1,0.1v0.3c0,0,0,0.1-0.1,0.1h-1.4c0,0-0.1,0-0.1-0.1V47.4z
				"/>
			<path fill="#3C4352" d="M139,47.4C139,47.4,139.1,47.3,139,47.4l0.4-0.1c0,0,0.1,0,0.1,0.1v1.4c0,0.3,0.2,0.5,0.5,0.5
				s0.5-0.2,0.5-0.5v-1.5c0,0,0-0.1,0.1-0.1h0.3c0,0,0.1,0,0.1,0.1v1.5c0,0.5-0.4,1-1,1c-0.6,0-1-0.4-1-1V47.4z"/>
			<path fill="#3C4352" d="M141.8,47.4C141.8,47.4,141.8,47.3,141.8,47.4l0.9-0.1c0.4,0,0.8,0.4,0.8,0.8c0,0.4-0.4,0.8-0.8,0.8h-0.4
				v0.8c0,0,0,0.1-0.1,0.1h-0.3c0,0-0.1,0-0.1-0.1V47.4z M142.7,48.5c0.2,0,0.4-0.2,0.4-0.4c0-0.2-0.2-0.3-0.4-0.3h-0.4v0.7H142.7z"
				/>
			<path fill="#3C4352" d="M144.4,47.7h-0.5c0,0-0.1,0-0.1-0.1v-0.3c0,0,0-0.1,0.1-0.1h1.5c0,0,0.1,0,0.1,0.1v0.3c0,0,0,0.1-0.1,0.1
				h-0.5v2c0,0,0,0.1-0.1,0.1h-0.3c0,0-0.1,0-0.1-0.1V47.7z"/>
			<path fill="#3C4352" d="M146,47.4C146,47.4,146.1,47.3,146,47.4l0.4-0.1c0,0,0.1,0,0.1,0.1v2.3c0,0,0,0.1-0.1,0.1h-0.3
				c0,0-0.1,0-0.1-0.1V47.4z"/>
			<path fill="#3C4352" d="M147.6,47.3C147.6,47.3,147.6,47.3,147.6,47.3l0.1-0.1c0,0,0,0,0.1,0l0.8,1.7c0,0,0,0,0,0l0.8-1.7
				c0,0,0,0,0.1,0h0.1c0,0,0.1,0,0.1,0.1l0.4,2.4c0,0,0,0.1-0.1,0.1h-0.3c0,0-0.1,0-0.1-0.1l-0.2-1.3c0,0,0,0,0,0l-0.6,1.4
				c0,0,0,0-0.1,0h-0.1c0,0,0,0-0.1,0l-0.6-1.4c0,0,0,0,0,0l-0.2,1.3c0,0,0,0.1-0.1,0.1h-0.3c0,0-0.1,0-0.1-0.1L147.6,47.3z"/>
			<path fill="#3C4352" d="M150.6,47.4C150.6,47.4,150.6,47.3,150.6,47.4l1.5-0.1c0,0,0.1,0,0.1,0.1v0.3c0,0,0,0.1-0.1,0.1h-1v0.6
				h0.9c0,0,0.1,0,0.1,0.1v0.3c0,0,0,0.1-0.1,0.1h-0.9v0.6h1c0,0,0.1,0,0.1,0.1v0.3c0,0,0,0.1-0.1,0.1h-1.4c0,0-0.1,0-0.1-0.1V47.4z
				"/>
		</g>
		
			<line fill="none" stroke="#8BC541" stroke-width="2" stroke-linecap="round" stroke-linejoin="round" stroke-miterlimit="10" x1="109.4" y1="56.7" x2="195.4" y2="56.7"/>
	</g>
	<g>
		
			<circle fill="none" stroke="#3C4352" stroke-linecap="round" stroke-linejoin="round" stroke-miterlimit="10" cx="308.6" cy="48.5" r="1.1"/>
		<g>
			<path fill="#3C4352" d="M314.5,47.5C314.5,47.4,314.5,47.4,314.5,47.5l0.4-0.1c0,0,0.1,0,0.1,0.1v2h0.9c0,0,0.1,0,0.1,0.1v0.3
				c0,0,0,0.1-0.1,0.1h-1.3c0,0-0.1,0-0.1-0.1V47.5z"/>
			<path fill="#3C4352" d="M316.5,47.5C316.5,47.4,316.5,47.4,316.5,47.5l0.4-0.1c0,0,0.1,0,0.1,0.1v2.3c0,0,0,0.1-0.1,0.1h-0.3
				c0,0-0.1,0-0.1-0.1V47.5z"/>
			<path fill="#3C4352" d="M317.4,47.5C317.4,47.4,317.4,47.4,317.4,47.5l0.4-0.1c0,0,0.1,0,0.1,0l0.7,1.5h0l0.7-1.5c0,0,0,0,0.1,0
				h0.4c0.1,0,0.1,0,0.1,0.1l-1.1,2.4c0,0,0,0-0.1,0h0c0,0,0,0-0.1,0L317.4,47.5z"/>
			<path fill="#3C4352" d="M320.3,47.5C320.3,47.4,320.3,47.4,320.3,47.5l1.5-0.1c0,0,0.1,0,0.1,0.1v0.3c0,0,0,0.1-0.1,0.1h-1v0.6
				h0.9c0,0,0.1,0,0.1,0.1v0.3c0,0,0,0.1-0.1,0.1h-0.9v0.6h1c0,0,0.1,0,0.1,0.1v0.3c0,0,0,0.1-0.1,0.1h-1.4c0,0-0.1,0-0.1-0.1V47.5z
				"/>
			<path fill="#3C4352" d="M323.2,47.5C323.2,47.4,323.2,47.4,323.2,47.5l0.4-0.1c0,0,0.1,0,0.1,0l0.7,1.5h0l0.7-1.5c0,0,0,0,0.1,0
				h0.4c0.1,0,0.1,0,0.1,0.1l-1.1,2.4c0,0,0,0-0.1,0h0c0,0,0,0-0.1,0L323.2,47.5z"/>
			<path fill="#3C4352" d="M326,47.5C326,47.4,326.1,47.4,326,47.5l0.4-0.1c0,0,0.1,0,0.1,0.1v2.3c0,0,0,0.1-0.1,0.1h-0.3
				c0,0-0.1,0-0.1-0.1V47.5z"/>
			<path fill="#3C4352" d="M327.2,49.5l0.1-0.2c0,0,0.1,0,0.1,0c0,0,0.3,0.2,0.5,0.2c0.2,0,0.3-0.1,0.3-0.3c0-0.2-0.2-0.3-0.4-0.4
				c-0.3-0.1-0.7-0.3-0.7-0.8c0-0.3,0.2-0.7,0.8-0.7c0.4,0,0.6,0.2,0.7,0.2c0,0,0,0.1,0,0.1l-0.1,0.2c0,0-0.1,0.1-0.1,0
				c0,0-0.3-0.2-0.5-0.2c-0.2,0-0.3,0.1-0.3,0.2c0,0.2,0.1,0.3,0.4,0.4c0.3,0.1,0.7,0.3,0.7,0.8c0,0.4-0.3,0.7-0.8,0.7
				c-0.4,0-0.7-0.2-0.8-0.3C327.2,49.6,327.1,49.6,327.2,49.5z"/>
			<path fill="#3C4352" d="M329.4,47.5C329.4,47.4,329.4,47.4,329.4,47.5l0.4-0.1c0,0,0.1,0,0.1,0.1v2.3c0,0,0,0.1-0.1,0.1h-0.3
				c0,0-0.1,0-0.1-0.1V47.5z"/>
			<path fill="#3C4352" d="M331,47.8h-0.5c0,0-0.1,0-0.1-0.1v-0.3c0,0,0-0.1,0.1-0.1h1.5c0,0,0.1,0,0.1,0.1v0.3c0,0,0,0.1-0.1,0.1
				h-0.5v2c0,0,0,0.1-0.1,0.1h-0.3c0,0-0.1,0-0.1-0.1V47.8z"/>
			<path fill="#3C4352" d="M333.7,47.4c0.7,0,1.3,0.6,1.3,1.3s-0.6,1.3-1.3,1.3s-1.3-0.6-1.3-1.3S333,47.4,333.7,47.4z M333.7,49.5
				c0.4,0,0.8-0.4,0.8-0.8c0-0.4-0.4-0.8-0.8-0.8s-0.8,0.4-0.8,0.8C332.9,49.1,333.3,49.5,333.7,49.5z"/>
			<path fill="#3C4352" d="M335.6,47.5C335.6,47.4,335.7,47.4,335.6,47.5l1.1-0.1c0.4,0,0.8,0.3,0.8,0.8c0,0.3-0.2,0.6-0.5,0.7
				l0.5,0.9c0,0,0,0.1-0.1,0.1H337c0,0,0,0-0.1,0l-0.5-0.9h-0.4v0.9c0,0,0,0.1-0.1,0.1h-0.3c0,0-0.1,0-0.1-0.1V47.5z M336.7,48.5
				c0.2,0,0.3-0.2,0.3-0.4c0-0.2-0.2-0.3-0.3-0.3h-0.6v0.7H336.7z"/>
			<path fill="#3C4352" d="M338,49.5l0.1-0.2c0,0,0.1,0,0.1,0c0,0,0.3,0.2,0.5,0.2c0.2,0,0.3-0.1,0.3-0.3c0-0.2-0.2-0.3-0.4-0.4
				c-0.3-0.1-0.7-0.3-0.7-0.8c0-0.3,0.2-0.7,0.8-0.7c0.4,0,0.6,0.2,0.7,0.2c0,0,0,0.1,0,0.1l-0.1,0.2c0,0-0.1,0.1-0.1,0
				c0,0-0.3-0.2-0.5-0.2c-0.2,0-0.3,0.1-0.3,0.2c0,0.2,0.1,0.3,0.4,0.4c0.3,0.1,0.7,0.3,0.7,0.8c0,0.4-0.3,0.7-0.8,0.7
				c-0.4,0-0.7-0.2-0.8-0.3C338,49.6,338,49.6,338,49.5z"/>
		</g>
		
			<line fill="none" stroke="#8BC541" stroke-width="2" stroke-linecap="round" stroke-linejoin="round" stroke-miterlimit="10" x1="301.3" y1="56.8" x2="387.3" y2="56.8"/>
		
			<rect x="301.3" y="41.1" fill="none" stroke="#8BC541" stroke-width="2" stroke-linecap="round" stroke-linejoin="round" stroke-miterlimit="10" width="86" height="88.8"/>
		<g>
			<path fill="#3C4352" d="M337.9,71.9v-0.5l4.6-5.8c0,0,0.1-0.1,0.2-0.1h0.2c0.1,0,0.2,0.1,0.2,0.2l0,5.6h1c0.1,0,0.2,0.1,0.2,0.2
				v0.3c0,0.1-0.1,0.2-0.2,0.2h-1v1.7c0,0.1-0.1,0.2-0.2,0.2h-0.4c-0.1,0-0.2-0.1-0.2-0.2v-1.6h-4.2C338,72.2,337.9,72,337.9,71.9z
				 M342.3,71.4v-4.2l-3.4,4.2H342.3z"/>
			<path fill="#3C4352" d="M349.5,65.5c0.1,0,0.2,0,0.3,0.1l0.1,0.3c0.1,0.1,0,0.3-0.2,0.4c-0.5,0.2-2.7,1.4-3.1,3
				c0,0,0.8-0.5,1.9-0.5c1.4,0,2.6,1,2.6,2.6c0,1.5-1.2,2.8-2.7,2.8c-2,0-2.8-1.5-2.8-3.5C345.5,67.4,348.2,66,349.5,65.5z
				 M350.1,71.4c0-1.1-0.8-1.9-1.8-1.9c-1.1,0-1.9,0.8-1.9,0.8c-0.2,1.2,0.3,3,1.9,3C349.3,73.3,350.1,72.5,350.1,71.4z"/>
		</g>
		<path fill="none" stroke="#8BC541" stroke-width="2" stroke-linecap="round" stroke-linejoin="round" stroke-miterlimit="10" d="
			M345.2,97.2c6.3,0,11.7,3.8,14.1,9.3l15.3-9.9c-5.6-10.4-16.7-17.5-29.4-17.5c-12.7,0-23.7,7.1-29.4,17.5l15.3,9.9
			C333.5,101,338.9,97.2,345.2,97.2z"/>
		<path fill="none" stroke="#3C4352" stroke-width="2" stroke-linecap="round" stroke-linejoin="round" stroke-miterlimit="10" d="
			M342.2,107.7c0.7,1.2,2.2,1.7,3.5,1c1.2-0.7,1.7-2.2,1-3.5l-9.9-13.4c-0.1-0.2-0.4-0.3-0.6-0.2c-0.2,0.1-0.3,0.4-0.2,0.6
			L342.2,107.7z"/>
		<g>
			<g>
				<path fill="#3C4352" d="M308.4,119.8c0-1.1,0.4-1.8,1.2-1.8c0.8,0,1.2,0.7,1.2,1.8s-0.4,1.8-1.2,1.8
					C308.8,121.5,308.4,120.9,308.4,119.8z M310.4,119.8c0-0.9-0.3-1.4-0.9-1.4c-0.5,0-0.9,0.5-0.9,1.4c0,0.9,0.3,1.4,0.9,1.4
					C310.1,121.2,310.4,120.7,310.4,119.8z"/>
			</g>
			<g>
				<path fill="#3C4352" d="M374.3,118.1l-0.4,0.3c0,0-0.1,0-0.1,0l-0.1-0.1c0,0,0-0.1,0-0.1l0.7-0.7h0.1c0.1,0,0.1,0,0.1,0.1v3.2
					c0,0.1,0,0.1-0.1,0.1h-0.2c-0.1,0-0.1,0-0.1-0.1V118.1z"/>
				<path fill="#3C4352" d="M375.5,120.4c0,0,0.1-0.1,0.1-0.1c0,0,0.1-0.1,0.1,0c0,0.1,0.3,0.4,0.7,0.4c0.5,0,0.8-0.4,0.8-0.8
					c0-0.4-0.2-0.7-0.8-0.7h-0.8c-0.1,0-0.2-0.1-0.2-0.2v-1.3c0-0.1,0-0.1,0.1-0.1h1.5c0.1,0,0.1,0,0.1,0.1v0.1c0,0,0,0.1-0.1,0.1
					h-1.3v0.9h0.6c0.8,0,1.2,0.4,1.2,1.1c0,0.6-0.5,1.1-1.2,1.1c-0.6,0-0.8-0.3-1-0.4C375.5,120.5,375.5,120.4,375.5,120.4z"/>
				<path fill="#3C4352" d="M378.6,120.7c0.2-0.1,1.1-0.6,1.3-1.2c0,0-0.3,0.2-0.8,0.2c-0.6,0-1.1-0.4-1.1-1.1
					c0-0.6,0.5-1.1,1.1-1.1c0.8,0,1.2,0.6,1.2,1.4c0,1.3-1.1,1.9-1.6,2.1c0,0-0.1,0-0.1,0l-0.1-0.1
					C378.5,120.8,378.5,120.7,378.6,120.7z M380,119c0.1-0.5-0.1-1.3-0.8-1.3c-0.4,0-0.8,0.4-0.8,0.8c0,0.4,0.3,0.8,0.8,0.8
					C379.6,119.3,380,119,380,119z"/>
			</g>
			<g>
				<path fill="#8BC541" d="M308.1,113.7L308.1,113.7c0.1-0.1,0.1-0.1,0.2-0.1c0,0,0.2,0.2,0.5,0.2c0.2,0,0.4-0.1,0.4-0.4
					c0-0.2-0.2-0.4-0.5-0.4h-0.2c0,0-0.1,0-0.1-0.1v-0.1c0,0,0-0.1,0.1-0.1h0.2c0.3,0,0.5-0.2,0.5-0.4c0-0.2-0.2-0.4-0.4-0.4
					c-0.2,0-0.3,0.1-0.4,0.2c0,0,0,0-0.1,0l-0.1-0.1c0,0,0-0.1,0-0.1c0,0,0.2-0.3,0.6-0.3c0.4,0,0.6,0.2,0.6,0.6
					c0,0.2-0.2,0.4-0.3,0.5v0c0.1,0.1,0.4,0.2,0.4,0.5c0,0.3-0.3,0.6-0.7,0.6C308.4,114,308.2,113.8,308.1,113.7
					C308.1,113.7,308.1,113.7,308.1,113.7z"/>
				<path fill="#8BC541" d="M310,112.9c0-0.7,0.3-1.1,0.8-1.1c0.5,0,0.8,0.4,0.8,1.1s-0.3,1.1-0.8,1.1
					C310.3,114,310,113.6,310,112.9z M311.3,112.9c0-0.6-0.2-0.9-0.5-0.9s-0.5,0.3-0.5,0.9c0,0.6,0.2,0.9,0.5,0.9
					S311.3,113.5,311.3,112.9z"/>
				<path fill="#8BC541" d="M312.2,113L312.2,113c0-0.1,0-0.1,0.1-0.1h0.6c0,0,0.1,0,0.1,0.1v0.1c0,0,0,0.1-0.1,0.1L312.2,113
					C312.2,113,312.2,113,312.2,113z"/>
				<path fill="#8BC541" d="M313.6,111.9C313.6,111.8,313.6,111.8,313.6,111.9l0.7-0.1c0.6,0,1.1,0.5,1.1,1.1c0,0.6-0.5,1.1-1.1,1.1
					h-0.7c0,0-0.1,0-0.1-0.1V111.9z M314.3,113.8c0.5,0,0.9-0.4,0.9-0.9c0-0.5-0.4-0.9-0.9-0.9h-0.5v1.7H314.3z"/>
				<path fill="#8BC541" d="M315.8,113.9l0.9-2.1c0,0,0,0,0.1,0h0c0,0,0,0,0.1,0l0.9,2.1c0,0,0,0.1-0.1,0.1h-0.1c0,0,0,0-0.1,0
					l-0.2-0.5h-1.1l-0.2,0.5c0,0,0,0-0.1,0L315.8,113.9C315.8,114,315.7,113.9,315.8,113.9z M317.2,113.2c-0.2-0.3-0.3-0.7-0.5-1h0
					l-0.5,1H317.2z"/>
				<path fill="#8BC541" d="M318.5,112.9l-0.7-1c0,0,0-0.1,0-0.1h0.1c0,0,0,0,0,0l0.6,0.9l0.6-0.9c0,0,0,0,0,0h0.1c0,0,0.1,0,0,0.1
					l-0.8,1v1c0,0,0,0.1-0.1,0.1h-0.1c0,0-0.1,0-0.1-0.1V112.9z"/>
				<path fill="#8BC541" d="M321.1,111.8C321.1,111.8,321.1,111.8,321.1,111.8l0.1,0c0,0,0,0,0.1,0l0.6,1.7c0,0,0,0,0,0l0.6-1.7
					c0,0,0,0,0.1,0h0c0,0,0,0,0.1,0l0.4,2.1c0,0,0,0.1-0.1,0.1h-0.1c0,0,0,0-0.1,0l-0.3-1.6c0,0,0,0,0,0L322,114c0,0,0,0-0.1,0h-0.1
					c0,0,0,0-0.1,0l-0.6-1.6c0,0,0,0,0,0l-0.3,1.6c0,0,0,0-0.1,0h-0.1c0,0-0.1,0-0.1-0.1L321.1,111.8z"/>
				<path fill="#8BC541" d="M323.7,111.9C323.7,111.8,323.7,111.8,323.7,111.9l0.2-0.1c0,0,0.1,0,0.1,0.1v2.1c0,0,0,0.1-0.1,0.1
					h-0.1c0,0-0.1,0-0.1-0.1V111.9z"/>
				<path fill="#8BC541" d="M324.7,111.8C324.7,111.8,324.7,111.8,324.7,111.8l0.1-0.1l1.4,1.7c0,0,0,0,0,0v-1.7c0,0,0-0.1,0.1-0.1
					h0.1c0,0,0.1,0,0.1,0.1v2.1c0,0,0,0.1-0.1,0.1h-0.1l-1.4-1.8h0v1.7c0,0,0,0.1-0.1,0.1h-0.1c0,0-0.1,0-0.1-0.1V111.8z"/>
			</g>
			<g>
				<path fill="#8BC541" d="M361.2,113.7L361.2,113.7c0.1-0.1,0.1-0.1,0.2-0.1c0,0,0.2,0.2,0.5,0.2c0.2,0,0.4-0.1,0.4-0.4
					c0-0.2-0.2-0.4-0.5-0.4h-0.2c0,0-0.1,0-0.1-0.1v-0.1c0,0,0-0.1,0.1-0.1h0.2c0.3,0,0.5-0.2,0.5-0.4c0-0.2-0.2-0.4-0.4-0.4
					c-0.2,0-0.3,0.1-0.4,0.2c0,0,0,0-0.1,0l-0.1-0.1c0,0,0-0.1,0-0.1c0,0,0.2-0.3,0.6-0.3c0.4,0,0.6,0.2,0.6,0.6
					c0,0.2-0.2,0.4-0.3,0.5v0c0.1,0.1,0.4,0.2,0.4,0.5c0,0.3-0.3,0.6-0.7,0.6C361.5,114,361.3,113.8,361.2,113.7
					C361.2,113.7,361.2,113.7,361.2,113.7z"/>
				<path fill="#8BC541" d="M363.1,112.9c0-0.7,0.3-1.1,0.8-1.1c0.5,0,0.8,0.4,0.8,1.1s-0.3,1.1-0.8,1.1
					C363.4,114,363.1,113.6,363.1,112.9z M364.4,112.9c0-0.6-0.2-0.9-0.5-0.9s-0.5,0.3-0.5,0.9c0,0.6,0.2,0.9,0.5,0.9
					S364.4,113.5,364.4,112.9z"/>
				<path fill="#8BC541" d="M365.2,113L365.2,113c0-0.1,0-0.1,0.1-0.1h0.6c0,0,0.1,0,0.1,0.1v0.1c0,0,0,0.1-0.1,0.1L365.2,113
					C365.3,113,365.2,113,365.2,113z"/>
				<path fill="#8BC541" d="M366.7,111.9C366.7,111.8,366.7,111.8,366.7,111.9l0.7-0.1c0.6,0,1.1,0.5,1.1,1.1c0,0.6-0.5,1.1-1.1,1.1
					h-0.7c0,0-0.1,0-0.1-0.1V111.9z M367.4,113.8c0.5,0,0.9-0.4,0.9-0.9c0-0.5-0.4-0.9-0.9-0.9h-0.5v1.7H367.4z"/>
				<path fill="#8BC541" d="M368.8,113.9l0.9-2.1c0,0,0,0,0.1,0h0c0,0,0,0,0.1,0l0.9,2.1c0,0,0,0.1-0.1,0.1h-0.1c0,0,0,0-0.1,0
					l-0.2-0.5h-1.1l-0.2,0.5c0,0,0,0-0.1,0L368.8,113.9C368.8,114,368.8,113.9,368.8,113.9z M370.3,113.2c-0.2-0.3-0.3-0.7-0.5-1h0
					l-0.5,1H370.3z"/>
				<path fill="#8BC541" d="M371.6,112.9l-0.7-1c0,0,0-0.1,0-0.1h0.1c0,0,0,0,0,0l0.6,0.9l0.6-0.9c0,0,0,0,0,0h0.1c0,0,0.1,0,0,0.1
					l-0.8,1v1c0,0,0,0.1-0.1,0.1h-0.1c0,0-0.1,0-0.1-0.1V112.9z"/>
				<path fill="#8BC541" d="M374.2,111.8C374.2,111.8,374.2,111.8,374.2,111.8l0.1,0c0,0,0,0,0.1,0l0.6,1.7c0,0,0,0,0,0l0.6-1.7
					c0,0,0,0,0.1,0h0c0,0,0,0,0.1,0l0.4,2.1c0,0,0,0.1-0.1,0.1h-0.1c0,0,0,0-0.1,0l-0.3-1.6c0,0,0,0,0,0L375,114c0,0,0,0-0.1,0h-0.1
					c0,0,0,0-0.1,0l-0.6-1.6c0,0,0,0,0,0l-0.3,1.6c0,0,0,0-0.1,0h-0.1c0,0-0.1,0-0.1-0.1L374.2,111.8z"/>
				<path fill="#8BC541" d="M376.5,113.9l0.9-2.1c0,0,0,0,0.1,0h0c0,0,0,0,0.1,0l0.9,2.1c0,0,0,0.1-0.1,0.1h-0.1c0,0,0,0-0.1,0
					l-0.2-0.5h-1.1l-0.2,0.5c0,0,0,0-0.1,0L376.5,113.9C376.5,114,376.4,113.9,376.5,113.9z M377.9,113.2c-0.2-0.3-0.3-0.7-0.5-1h0
					l-0.5,1H377.9z"/>
				<path fill="#8BC541" d="M379.4,112.9l-0.6-1c0,0,0-0.1,0.1-0.1h0.2c0,0,0,0,0.1,0l0.5,0.8h0l0.5-0.8c0,0,0,0,0.1,0h0.2
					c0.1,0,0.1,0,0.1,0.1l-0.6,1l0.6,1c0,0,0,0.1-0.1,0.1h-0.1c0,0,0,0-0.1,0l-0.5-0.9h0l-0.5,0.9c0,0,0,0-0.1,0h-0.1
					c-0.1,0-0.1,0-0.1-0.1L379.4,112.9z"/>
			</g>
		</g>
	</g>
	<g>
		
			<circle fill="none" stroke="#3C4352" stroke-linecap="round" stroke-linejoin="round" stroke-miterlimit="10" cx="308.4" cy="148.7" r="1.1"/>
		<g>
			<path fill="#3C4352" d="M314.2,147.6C314.2,147.6,314.3,147.5,314.2,147.6l0.2-0.1l1.5,1.6h0v-1.5c0,0,0-0.1,0.1-0.1h0.3
				c0,0,0.1,0,0.1,0.1v2.4c0,0,0,0.1-0.1,0.1h-0.1l-1.5-1.6h0v1.5c0,0,0,0.1-0.1,0.1h-0.3c0,0-0.1,0-0.1-0.1V147.6z"/>
			<path fill="#3C4352" d="M317.2,147.6C317.2,147.6,317.2,147.6,317.2,147.6l1.5-0.1c0,0,0.1,0,0.1,0.1v0.3c0,0,0,0.1-0.1,0.1h-1
				v0.6h0.9c0,0,0.1,0,0.1,0.1v0.3c0,0,0,0.1-0.1,0.1h-0.9v0.6h1c0,0,0.1,0,0.1,0.1v0.3c0,0,0,0.1-0.1,0.1h-1.4c0,0-0.1,0-0.1-0.1
				V147.6z"/>
			<path fill="#3C4352" d="M319.2,147.7C319.2,147.6,319.2,147.6,319.2,147.7l0.4-0.1c0,0,0.1,0,0.1,0l0.4,1.4h0l0.6-1.5
				c0,0,0,0,0.1,0h0.1c0,0,0.1,0,0.1,0l0.6,1.5h0l0.4-1.4c0,0,0,0,0.1,0h0.3c0,0,0.1,0,0.1,0.1l-0.7,2.4c0,0,0,0-0.1,0h-0.1
				c0,0-0.1,0-0.1,0l-0.6-1.6h0l-0.6,1.6c0,0,0,0-0.1,0h-0.1c0,0-0.1,0-0.1,0L319.2,147.7z"/>
			<path fill="#3C4352" d="M323.4,147.7C323.4,147.6,323.4,147.6,323.4,147.7l0.4-0.1c0,0,0.1,0,0.1,0l0.7,1.5h0l0.7-1.5
				c0,0,0,0,0.1,0h0.4c0.1,0,0.1,0,0.1,0.1l-1.1,2.4c0,0,0,0-0.1,0h0c0,0,0,0-0.1,0L323.4,147.7z"/>
			<path fill="#3C4352" d="M326.1,149.7l0.1-0.2c0,0,0.1,0,0.1,0c0,0,0.3,0.2,0.5,0.2c0.2,0,0.3-0.1,0.3-0.3c0-0.2-0.2-0.3-0.4-0.4
				c-0.3-0.1-0.7-0.3-0.7-0.8c0-0.3,0.2-0.7,0.8-0.7c0.4,0,0.6,0.2,0.7,0.2c0,0,0,0.1,0,0.1l-0.1,0.2c0,0-0.1,0.1-0.1,0
				c0,0-0.3-0.2-0.5-0.2c-0.2,0-0.3,0.1-0.3,0.2c0,0.2,0.1,0.3,0.4,0.4c0.3,0.1,0.7,0.3,0.7,0.8c0,0.4-0.3,0.7-0.8,0.7
				c-0.4,0-0.7-0.2-0.8-0.3C326.1,149.8,326.1,149.8,326.1,149.7z"/>
			<path fill="#3C4352" d="M329.3,147.6C329.3,147.6,329.4,147.6,329.3,147.6l1.1-0.1c0.4,0,0.8,0.3,0.8,0.8c0,0.3-0.2,0.6-0.5,0.7
				l0.5,0.9c0,0,0,0.1-0.1,0.1h-0.4c0,0,0,0-0.1,0l-0.5-0.9h-0.4v0.9c0,0,0,0.1-0.1,0.1h-0.3c0,0-0.1,0-0.1-0.1V147.6z M330.4,148.7
				c0.2,0,0.4-0.2,0.4-0.4c0-0.2-0.2-0.3-0.4-0.3h-0.6v0.7H330.4z"/>
			<path fill="#3C4352" d="M331.9,147.6C331.9,147.6,331.9,147.6,331.9,147.6l1.5-0.1c0,0,0.1,0,0.1,0.1v0.3c0,0,0,0.1-0.1,0.1h-1
				v0.6h0.9c0,0,0.1,0,0.1,0.1v0.3c0,0,0,0.1-0.1,0.1h-0.9v0.6h1c0,0,0.1,0,0.1,0.1v0.3c0,0,0,0.1-0.1,0.1h-1.4c0,0-0.1,0-0.1-0.1
				V147.6z"/>
			<path fill="#3C4352" d="M334.5,148h-0.5c0,0-0.1,0-0.1-0.1v-0.3c0,0,0-0.1,0.1-0.1h1.5c0,0,0.1,0,0.1,0.1v0.3c0,0,0,0.1-0.1,0.1
				h-0.5v2c0,0,0,0.1-0.1,0.1h-0.3c0,0-0.1,0-0.1-0.1V148z"/>
			<path fill="#3C4352" d="M336.1,147.6C336.1,147.6,336.1,147.6,336.1,147.6l0.4-0.1c0,0,0.1,0,0.1,0.1v1.4c0,0.3,0.2,0.5,0.5,0.5
				c0.3,0,0.5-0.2,0.5-0.5v-1.5c0,0,0-0.1,0.1-0.1h0.3c0,0,0.1,0,0.1,0.1v1.5c0,0.5-0.4,1-1,1c-0.6,0-1-0.4-1-1V147.6z"/>
			<path fill="#3C4352" d="M338.8,147.6C338.8,147.6,338.8,147.6,338.8,147.6l1.1-0.1c0.4,0,0.8,0.3,0.8,0.8c0,0.3-0.2,0.6-0.5,0.7
				l0.5,0.9c0,0,0,0.1-0.1,0.1h-0.4c0,0,0,0-0.1,0l-0.5-0.9h-0.4v0.9c0,0,0,0.1-0.1,0.1h-0.3c0,0-0.1,0-0.1-0.1V147.6z M339.9,148.7
				c0.2,0,0.3-0.2,0.3-0.4c0-0.2-0.2-0.3-0.3-0.3h-0.6v0.7H339.9z"/>
			<path fill="#3C4352" d="M341.4,147.6C341.4,147.6,341.4,147.5,341.4,147.6l0.2-0.1l1.5,1.6h0v-1.5c0,0,0-0.1,0.1-0.1h0.3
				c0,0,0.1,0,0.1,0.1v2.4c0,0,0,0.1-0.1,0.1h-0.1l-1.5-1.6h0v1.5c0,0,0,0.1-0.1,0.1h-0.3c0,0-0.1,0-0.1-0.1V147.6z"/>
			<path fill="#3C4352" d="M344.3,147.6C344.3,147.6,344.3,147.6,344.3,147.6l0.4-0.1c0,0,0.1,0,0.1,0.1v2.3c0,0,0,0.1-0.1,0.1h-0.3
				c0,0-0.1,0-0.1-0.1V147.6z"/>
			<path fill="#3C4352" d="M345.6,147.6C345.6,147.6,345.6,147.5,345.6,147.6l0.2-0.1l1.5,1.6h0v-1.5c0,0,0-0.1,0.1-0.1h0.3
				c0,0,0.1,0,0.1,0.1v2.4c0,0,0,0.1-0.1,0.1h-0.1l-1.5-1.6h0v1.5c0,0,0,0.1-0.1,0.1h-0.3c0,0-0.1,0-0.1-0.1V147.6z"/>
			<path fill="#3C4352" d="M349.6,147.5c0.3,0,0.6,0.1,0.9,0.3c0,0,0,0.1,0,0.1l-0.2,0.2c0,0-0.1,0-0.1,0c-0.2-0.1-0.3-0.2-0.5-0.2
				c-0.4,0-0.8,0.4-0.8,0.8c0,0.4,0.4,0.8,0.8,0.8c0.2,0,0.4-0.1,0.4-0.1v-0.3h-0.3c0,0-0.1,0-0.1-0.1v-0.3c0,0,0-0.1,0.1-0.1h0.7
				c0,0,0.1,0,0.1,0.1v0.9c0,0,0,0,0,0.1c0,0-0.4,0.2-0.9,0.2c-0.7,0-1.3-0.6-1.3-1.3S348.9,147.5,349.6,147.5z"/>
		</g>
		
			<line fill="none" stroke="#8BC541" stroke-width="2" stroke-linecap="round" stroke-linejoin="round" stroke-miterlimit="10" x1="301.1" y1="156.9" x2="387.1" y2="156.9"/>
		
			<rect x="301.1" y="141.3" fill="none" stroke="#8BC541" stroke-width="2" stroke-linecap="round" stroke-linejoin="round" stroke-miterlimit="10" width="86" height="88.8"/>
		<g>
			
				<rect x="369.2" y="190.8" fill="none" stroke="#8BC541" stroke-width="2" stroke-linecap="round" stroke-linejoin="round" stroke-miterlimit="10" width="7.7" height="7.7"/>
			
				<rect x="369.2" y="204.7" fill="none" stroke="#3C4352" stroke-width="2" stroke-linecap="round" stroke-linejoin="round" stroke-miterlimit="10" width="7.7" height="7.7"/>
		</g>
		<path fill="none" stroke="#8BC541" stroke-width="2" stroke-linecap="round" stroke-linejoin="round" stroke-miterlimit="10" d="
			M358.9,191.5c0-12.4-10-22.4-22.4-22.4c-12.4,0-22.4,10-22.4,22.4c0,2.7,0.5,5.3,1.4,7.7"/>
		<path fill="none" stroke="#3C4352" stroke-width="2" stroke-linecap="round" stroke-linejoin="round" stroke-miterlimit="10" d="
			M315.4,199.2c3.1,8.6,11.4,14.7,21.1,14.7c12.4,0,22.4-10,22.4-22.4h-22.4L315.4,199.2z"/>
	</g>
	<g>
		
			<circle fill="none" stroke="#3C4352" stroke-linecap="round" stroke-linejoin="round" stroke-miterlimit="10" cx="212.6" cy="48.4" r="1.1"/>
		<g>
			<path fill="#3C4352" d="M219.6,47.3c0.4,0,0.6,0.1,0.9,0.3c0,0,0,0.1,0,0.1l-0.2,0.2c0,0-0.1,0-0.1,0c-0.1-0.1-0.3-0.2-0.5-0.2
				c-0.5,0-0.8,0.4-0.8,0.8c0,0.4,0.3,0.8,0.8,0.8c0.2,0,0.4-0.1,0.5-0.2c0,0,0.1,0,0.1,0l0.2,0.2c0,0,0,0.1,0,0.1
				c-0.2,0.2-0.5,0.3-0.9,0.3c-0.7,0-1.3-0.6-1.3-1.3S218.9,47.3,219.6,47.3z"/>
			<path fill="#3C4352" d="M222.2,47.3c0.7,0,1.3,0.6,1.3,1.3s-0.6,1.3-1.3,1.3s-1.3-0.6-1.3-1.3S221.5,47.3,222.2,47.3z
				 M222.2,49.4c0.4,0,0.8-0.4,0.8-0.8c0-0.4-0.4-0.8-0.8-0.8s-0.8,0.4-0.8,0.8C221.4,49,221.7,49.4,222.2,49.4z"/>
			<path fill="#3C4352" d="M224.1,47.3C224.1,47.3,224.1,47.3,224.1,47.3l0.2-0.1l1.5,1.6h0v-1.5c0,0,0-0.1,0.1-0.1h0.3
				c0,0,0.1,0,0.1,0.1v2.4c0,0,0,0.1-0.1,0.1H226l-1.5-1.6h0v1.5c0,0,0,0.1-0.1,0.1h-0.3c0,0-0.1,0-0.1-0.1V47.3z"/>
			<path fill="#3C4352" d="M226.7,47.4C226.7,47.4,226.7,47.3,226.7,47.4l0.4-0.1c0,0,0.1,0,0.1,0l0.7,1.5h0l0.7-1.5c0,0,0,0,0.1,0
				h0.4c0.1,0,0.1,0,0.1,0.1l-1.1,2.4c0,0,0,0-0.1,0h0c0,0,0,0-0.1,0L226.7,47.4z"/>
			<path fill="#3C4352" d="M229.6,47.4C229.6,47.4,229.6,47.3,229.6,47.4l1.5-0.1c0,0,0.1,0,0.1,0.1v0.3c0,0,0,0.1-0.1,0.1h-1v0.6
				h0.9c0,0,0.1,0,0.1,0.1v0.3c0,0,0,0.1-0.1,0.1H230v0.6h1c0,0,0.1,0,0.1,0.1v0.3c0,0,0,0.1-0.1,0.1h-1.4c0,0-0.1,0-0.1-0.1V47.4z"
				/>
			<path fill="#3C4352" d="M231.8,47.4C231.8,47.4,231.8,47.3,231.8,47.4l1.1-0.1c0.4,0,0.8,0.3,0.8,0.8c0,0.3-0.2,0.6-0.5,0.7
				l0.5,0.9c0,0,0,0.1-0.1,0.1h-0.4c0,0,0,0-0.1,0l-0.5-0.9h-0.4v0.9c0,0,0,0.1-0.1,0.1h-0.3c0,0-0.1,0-0.1-0.1V47.4z M232.9,48.5
				c0.2,0,0.3-0.2,0.3-0.4c0-0.2-0.2-0.3-0.3-0.3h-0.6v0.7H232.9z"/>
			<path fill="#3C4352" d="M234.2,49.5l0.1-0.2c0,0,0.1,0,0.1,0c0,0,0.3,0.2,0.5,0.2c0.2,0,0.3-0.1,0.3-0.3c0-0.2-0.2-0.3-0.4-0.4
				c-0.3-0.1-0.7-0.3-0.7-0.8c0-0.3,0.2-0.7,0.8-0.7c0.4,0,0.6,0.2,0.7,0.2c0,0,0,0.1,0,0.1l-0.1,0.2c0,0-0.1,0.1-0.1,0
				c0,0-0.3-0.2-0.5-0.2c-0.2,0-0.3,0.1-0.3,0.2c0,0.2,0.1,0.3,0.4,0.4c0.3,0.1,0.7,0.3,0.7,0.8c0,0.4-0.3,0.7-0.8,0.7
				c-0.4,0-0.7-0.2-0.8-0.3C234.2,49.5,234.2,49.5,234.2,49.5z"/>
			<path fill="#3C4352" d="M236.5,47.4C236.5,47.4,236.5,47.3,236.5,47.4l0.4-0.1c0,0,0.1,0,0.1,0.1v2.3c0,0,0,0.1-0.1,0.1h-0.3
				c0,0-0.1,0-0.1-0.1V47.4z"/>
			<path fill="#3C4352" d="M238.8,47.3c0.7,0,1.3,0.6,1.3,1.3s-0.6,1.3-1.3,1.3s-1.3-0.6-1.3-1.3S238.1,47.3,238.8,47.3z
				 M238.8,49.4c0.4,0,0.8-0.4,0.8-0.8c0-0.4-0.4-0.8-0.8-0.8s-0.8,0.4-0.8,0.8C238,49,238.4,49.4,238.8,49.4z"/>
			<path fill="#3C4352" d="M240.8,47.3C240.8,47.3,240.8,47.3,240.8,47.3l0.2-0.1l1.5,1.6h0v-1.5c0,0,0-0.1,0.1-0.1h0.3
				c0,0,0.1,0,0.1,0.1v2.4c0,0,0,0.1-0.1,0.1h-0.1l-1.5-1.6h0v1.5c0,0,0,0.1-0.1,0.1h-0.3c0,0-0.1,0-0.1-0.1V47.3z"/>
			<path fill="#3C4352" d="M244.6,47.4C244.6,47.4,244.7,47.3,244.6,47.4l1.1-0.1c0.4,0,0.8,0.3,0.8,0.8c0,0.3-0.2,0.6-0.5,0.7
				l0.5,0.9c0,0,0,0.1-0.1,0.1H246c0,0,0,0-0.1,0l-0.5-0.9h-0.4v0.9c0,0,0,0.1-0.1,0.1h-0.3c0,0-0.1,0-0.1-0.1V47.4z M245.7,48.5
				c0.2,0,0.4-0.2,0.4-0.4c0-0.2-0.2-0.3-0.4-0.3h-0.6v0.7H245.7z"/>
			<path fill="#3C4352" d="M246.8,49.7l1.1-2.4c0,0,0,0,0.1,0h0c0,0,0,0,0.1,0l1.1,2.4c0,0,0,0.1-0.1,0.1h-0.3c-0.1,0-0.1,0-0.1-0.1
				l-0.2-0.4h-1.1l-0.2,0.4c0,0,0,0.1-0.1,0.1L246.8,49.7C246.9,49.8,246.8,49.8,246.8,49.7z M248.4,49l-0.4-0.8h0l-0.3,0.8H248.4z"
				/>
			<path fill="#3C4352" d="M249.9,47.7h-0.5c0,0-0.1,0-0.1-0.1v-0.3c0,0,0-0.1,0.1-0.1h1.5c0,0,0.1,0,0.1,0.1v0.3c0,0,0,0.1-0.1,0.1
				h-0.5v2c0,0,0,0.1-0.1,0.1H250c0,0-0.1,0-0.1-0.1V47.7z"/>
			<path fill="#3C4352" d="M251.5,47.4C251.5,47.4,251.5,47.3,251.5,47.4l1.5-0.1c0,0,0.1,0,0.1,0.1v0.3c0,0,0,0.1-0.1,0.1h-1v0.6
				h0.9c0,0,0.1,0,0.1,0.1v0.3c0,0,0,0.1-0.1,0.1H252v0.6h1c0,0,0.1,0,0.1,0.1v0.3c0,0,0,0.1-0.1,0.1h-1.4c0,0-0.1,0-0.1-0.1V47.4z"
				/>
		</g>
		
			<line fill="none" stroke="#8BC541" stroke-width="2" stroke-linecap="round" stroke-linejoin="round" stroke-miterlimit="10" x1="205.3" y1="56.7" x2="291.3" y2="56.7"/>
		
			<rect x="205.3" y="41" fill="none" stroke="#8BC541" stroke-width="2" stroke-linecap="round" stroke-linejoin="round" stroke-miterlimit="10" width="86" height="88.8"/>
		<g>
			<g>
				<path fill="#8BC541" d="M218.9,75.2l-2.1,1.7c-0.2,0.2-0.5,0.2-0.7,0l-0.6-0.6c-0.2-0.2-0.1-0.5,0.1-0.7l4.1-4h0.8
					c0.3,0,0.5,0.3,0.5,0.6v19c0,0.3-0.2,0.6-0.5,0.6h-1.1c-0.3,0-0.6-0.3-0.6-0.6V75.2z"/>
				<path fill="#8BC541" d="M225.4,90.2c2.4-2.6,4.8-5.2,7.3-7.8c2-2.2,3-4,3-5.4c0-1.7-1.1-3.8-4.1-3.8c-1.8,0-3.3,1.2-4.2,2.2
					c-0.2,0.2-0.6,0.2-0.8,0l-0.6-0.6c-0.2-0.2-0.2-0.5,0-0.8c0,0,2.1-2.9,5.6-2.9c4.2,0,6.4,2.7,6.4,5.7c0,2.6-1.7,4.5-3.7,6.7
					c-1.9,2-3.8,4.1-5.7,6.1h8.7c0.3,0,0.6,0.3,0.6,0.6v0.8c0,0.3-0.3,0.6-0.6,0.6h-11.2c-0.3,0-0.6-0.3-0.6-0.6V90.2z"/>
				<path fill="#8BC541" d="M242.8,88.6c0.9,0,1.7,0.7,1.7,1.7c0,0.9-0.7,1.7-1.7,1.7c-0.9,0-1.7-0.8-1.7-1.7
					C241.1,89.3,241.9,88.6,242.8,88.6z"/>
				<path fill="#8BC541" d="M247.4,90.2c2.4-2.6,4.8-5.2,7.3-7.8c2-2.2,3-4,3-5.4c0-1.7-1.1-3.8-4.1-3.8c-1.8,0-3.3,1.2-4.2,2.2
					c-0.2,0.2-0.6,0.2-0.8,0l-0.6-0.6c-0.2-0.2-0.2-0.5,0-0.8c0,0,2.1-2.9,5.6-2.9c4.2,0,6.4,2.7,6.4,5.7c0,2.6-1.7,4.5-3.7,6.7
					c-1.9,2-3.8,4.1-5.7,6.1h8.7c0.3,0,0.6,0.3,0.6,0.6v0.8c0,0.3-0.3,0.6-0.6,0.6H248c-0.3,0-0.6-0.3-0.6-0.6V90.2z"/>
				<path fill="#8BC541" d="M263,88.6l0.8-0.7c0.3-0.2,0.6-0.2,0.8,0.1c0.3,0.3,1.9,2,4.4,2c2.2,0,4.3-1.4,4.3-3.7
					c0-2-1.6-3.9-5.2-3.9h-1.7c-0.3,0-0.6-0.2-0.6-0.7v-0.7c0-0.5,0.1-0.7,0.6-0.7h1.6c3.2,0,4.7-1.6,4.7-3.6c0-2.3-1.8-3.8-3.9-3.8
					c-2,0-3.2,1.2-3.9,1.9c-0.2,0.2-0.5,0.3-0.8,0.1l-0.7-0.6c-0.2-0.2-0.2-0.6,0-0.8c0,0,2.1-2.6,5.4-2.6c3.6,0,6.1,2.1,6.1,5.4
					c0,2.3-1.7,4.1-3,4.7v0.1c1.4,0.6,3.6,2.2,3.6,4.8c0,3.2-2.5,5.7-6.6,5.7c-3.6,0-5.3-1.9-6-2.6C262.7,89.1,262.7,88.8,263,88.6z
					"/>
			</g>
			<g>
				<path fill="#3C4352" d="M232.4,107.9c0.8-0.8,1.6-1.7,2.3-2.5c0.7-0.7,1-1.3,1-1.7c0-0.5-0.4-1.2-1.3-1.2
					c-0.6,0-1.1,0.4-1.4,0.7c-0.1,0.1-0.2,0.1-0.3,0l-0.2-0.2c-0.1-0.1-0.1-0.2,0-0.2c0,0,0.7-0.9,1.8-0.9c1.4,0,2.1,0.9,2.1,1.8
					c0,0.8-0.5,1.5-1.2,2.2c-0.6,0.7-1.2,1.3-1.8,2h2.8c0.1,0,0.2,0.1,0.2,0.2v0.3c0,0.1-0.1,0.2-0.2,0.2h-3.6
					c-0.1,0-0.2-0.1-0.2-0.2V107.9z"/>
				<path fill="#3C4352" d="M237.9,108.1l2.7-5.6h-3.1c-0.1,0-0.2-0.1-0.2-0.2v-0.3c0-0.1,0.1-0.2,0.2-0.2h3.9
					c0.1,0,0.2,0.1,0.2,0.2v0.1l-2.8,6c0,0.1-0.1,0.2-0.3,0.2H238c-0.1,0-0.2-0.1-0.2-0.2V108.1z"/>
				<path fill="#3C4352" d="M242.6,107.4c0.3,0,0.5,0.2,0.5,0.5c0,0.3-0.2,0.5-0.5,0.5c-0.3,0-0.5-0.2-0.5-0.5
					C242.1,107.6,242.3,107.4,242.6,107.4z"/>
				<path fill="#3C4352" d="M244.9,108c0.4-0.1,2.1-1.1,2.5-2.4c0,0-0.6,0.4-1.5,0.4c-1.1,0-2.1-0.8-2.1-2.1c0-1.2,1-2.2,2.1-2.2
					c1.6,0,2.2,1.2,2.2,2.7c0,2.5-2.2,3.7-3.2,4.1c-0.1,0-0.2,0-0.2-0.1l-0.1-0.2C244.7,108.1,244.7,108,244.9,108z M247.5,104.8
					c0.2-1-0.2-2.4-1.5-2.4c-0.8,0-1.4,0.7-1.4,1.5c0,0.8,0.6,1.5,1.4,1.5C246.9,105.4,247.5,104.8,247.5,104.8z"/>
				<path fill="#3C4352" d="M249.2,107.4l0.3-0.2c0.1-0.1,0.2-0.1,0.3,0c0.1,0.1,0.6,0.7,1.4,0.7c0.7,0,1.4-0.4,1.4-1.2
					c0-0.7-0.5-1.3-1.7-1.3h-0.5c-0.1,0-0.2-0.1-0.2-0.2V105c0-0.2,0-0.2,0.2-0.2h0.5c1,0,1.5-0.5,1.5-1.2c0-0.8-0.6-1.2-1.3-1.2
					c-0.7,0-1,0.4-1.3,0.6c-0.1,0.1-0.2,0.1-0.2,0l-0.2-0.2c-0.1-0.1-0.1-0.2,0-0.2c0,0,0.7-0.8,1.7-0.8c1.2,0,2,0.7,2,1.8
					c0,0.7-0.6,1.3-1,1.5v0c0.5,0.2,1.2,0.7,1.2,1.6c0,1-0.8,1.9-2.1,1.9c-1.2,0-1.7-0.6-1.9-0.9
					C249.1,107.6,249.1,107.5,249.2,107.4z"/>
				<path fill="#3C4352" d="M254.1,102.9c0-0.7,0.6-1.3,1.3-1.3c0.7,0,1.3,0.6,1.3,1.3s-0.6,1.3-1.3,1.3
					C254.7,104.2,254.1,103.6,254.1,102.9z M256.2,102.9c0-0.4-0.3-0.7-0.7-0.7c-0.4,0-0.7,0.3-0.7,0.7c0,0.4,0.3,0.7,0.7,0.7
					C255.8,103.6,256.2,103.3,256.2,102.9z M258.3,101.8c0-0.1,0.1-0.1,0.2-0.1h0.2c0.1,0,0.2,0.1,0.2,0.3l-3.3,6.4
					c0,0-0.1,0.1-0.2,0.1h-0.1c-0.1,0-0.2-0.1-0.2-0.3L258.3,101.8z M258.5,105.9c0.7,0,1.3,0.6,1.3,1.3c0,0.7-0.6,1.3-1.3,1.3
					c-0.7,0-1.3-0.6-1.3-1.3C257.2,106.5,257.7,105.9,258.5,105.9z M258.5,108c0.4,0,0.7-0.3,0.7-0.7c0-0.4-0.3-0.7-0.7-0.7
					c-0.4,0-0.7,0.3-0.7,0.7C257.7,107.6,258,108,258.5,108z"/>
			</g>
			<path fill="none" stroke="#3C4352" stroke-width="2" stroke-linecap="round" stroke-linejoin="round" stroke-miterlimit="10" d="
				M216.3,102.2c-0.5-0.8-0.1-1.5,0.9-1.5h8.5c1,0,1.4,0.7,0.9,1.5l-4.3,7.6c-0.5,0.8-1.2,0.8-1.7,0L216.3,102.2z"/>
		</g>
	</g>
	<g>
		
			<circle fill="none" stroke="#3C4352" stroke-linecap="round" stroke-linejoin="round" stroke-miterlimit="10" cx="116.7" cy="148.6" r="1.1"/>
		<g>
			<path fill="#3C4352" d="M122.2,147.6C122.2,147.5,122.2,147.5,122.2,147.6l0.4-0.1c0,0,0.1,0,0.1,0l0.7,1.5h0l0.7-1.5
				c0,0,0,0,0.1,0h0.4c0.1,0,0.1,0,0.1,0.1l-1.1,2.4c0,0,0,0-0.1,0h0c0,0,0,0-0.1,0L122.2,147.6z"/>
			<path fill="#3C4352" d="M125.1,147.5C125.1,147.5,125.1,147.5,125.1,147.5l0.4-0.1c0,0,0.1,0,0.1,0.1v2.3c0,0,0,0.1-0.1,0.1h-0.3
				c0,0-0.1,0-0.1-0.1V147.5z"/>
			<path fill="#3C4352" d="M126.2,149.6l0.1-0.2c0,0,0.1,0,0.1,0c0,0,0.3,0.2,0.5,0.2c0.2,0,0.3-0.1,0.3-0.3c0-0.2-0.2-0.3-0.4-0.4
				c-0.3-0.1-0.7-0.3-0.7-0.8c0-0.3,0.2-0.7,0.8-0.7c0.4,0,0.6,0.2,0.7,0.2c0,0,0,0.1,0,0.1l-0.1,0.2c0,0-0.1,0.1-0.1,0
				c0,0-0.3-0.2-0.5-0.2c-0.2,0-0.3,0.1-0.3,0.2c0,0.2,0.1,0.3,0.4,0.4c0.3,0.1,0.7,0.3,0.7,0.8c0,0.4-0.3,0.7-0.8,0.7
				c-0.4,0-0.7-0.2-0.8-0.3C126.2,149.7,126.2,149.7,126.2,149.6z"/>
			<path fill="#3C4352" d="M128.4,147.5C128.4,147.5,128.5,147.5,128.4,147.5l0.4-0.1c0,0,0.1,0,0.1,0.1v2.3c0,0,0,0.1-0.1,0.1h-0.3
				c0,0-0.1,0-0.1-0.1V147.5z"/>
			<path fill="#3C4352" d="M130.1,147.9h-0.5c0,0-0.1,0-0.1-0.1v-0.3c0,0,0-0.1,0.1-0.1h1.5c0,0,0.1,0,0.1,0.1v0.3
				c0,0,0,0.1-0.1,0.1h-0.5v2c0,0,0,0.1-0.1,0.1h-0.3c0,0-0.1,0-0.1-0.1V147.9z"/>
			<path fill="#3C4352" d="M132.8,147.4c0.7,0,1.3,0.6,1.3,1.3s-0.6,1.3-1.3,1.3s-1.3-0.6-1.3-1.3S132.1,147.4,132.8,147.4z
				 M132.8,149.5c0.4,0,0.8-0.4,0.8-0.8s-0.4-0.8-0.8-0.8s-0.8,0.4-0.8,0.8S132.3,149.5,132.8,149.5z"/>
			<path fill="#3C4352" d="M134.7,147.5C134.7,147.5,134.7,147.5,134.7,147.5l1.1-0.1c0.4,0,0.8,0.3,0.8,0.8c0,0.3-0.2,0.6-0.5,0.7
				l0.5,0.9c0,0,0,0.1-0.1,0.1h-0.4c0,0,0,0-0.1,0l-0.5-0.9h-0.4v0.9c0,0,0,0.1-0.1,0.1h-0.3c0,0-0.1,0-0.1-0.1V147.5z M135.7,148.6
				c0.2,0,0.4-0.2,0.4-0.4c0-0.2-0.2-0.3-0.4-0.3h-0.6v0.7H135.7z"/>
			<path fill="#3C4352" d="M137.1,149.6l0.1-0.2c0,0,0.1,0,0.1,0c0,0,0.3,0.2,0.5,0.2c0.2,0,0.3-0.1,0.3-0.3c0-0.2-0.2-0.3-0.4-0.4
				c-0.3-0.1-0.7-0.3-0.7-0.8c0-0.3,0.2-0.7,0.8-0.7c0.4,0,0.6,0.2,0.7,0.2c0,0,0,0.1,0,0.1l-0.1,0.2c0,0-0.1,0.1-0.1,0
				c0,0-0.3-0.2-0.5-0.2c-0.2,0-0.3,0.1-0.3,0.2c0,0.2,0.1,0.3,0.4,0.4c0.3,0.1,0.7,0.3,0.7,0.8c0,0.4-0.3,0.7-0.8,0.7
				c-0.4,0-0.7-0.2-0.8-0.3C137.1,149.7,137,149.7,137.1,149.6z"/>
		</g>
		
			<line fill="none" stroke="#8BC541" stroke-width="2" stroke-linecap="round" stroke-linejoin="round" stroke-miterlimit="10" x1="109.4" y1="156.8" x2="291.5" y2="156.8"/>
		
			<rect x="109.4" y="141.2" fill="none" stroke="#8BC541" stroke-width="2" stroke-linecap="round" stroke-linejoin="round" stroke-miterlimit="10" width="182.2" height="88.8"/>
		<g>
			<path fill="#3C4352" d="M124.9,194.9c2.4-2.6,4.8-5.2,7.3-7.8c2-2.2,3-4,3-5.4c0-1.7-1.1-3.8-4.1-3.8c-1.8,0-3.3,1.2-4.2,2.2
				c-0.2,0.2-0.6,0.2-0.8,0l-0.6-0.6c-0.2-0.2-0.2-0.5,0-0.8c0,0,2.1-2.9,5.6-2.9c4.2,0,6.4,2.7,6.4,5.7c0,2.6-1.7,4.5-3.7,6.7
				c-1.9,2-3.8,4.1-5.7,6.1h8.7c0.3,0,0.6,0.3,0.6,0.6v0.8c0,0.3-0.3,0.6-0.6,0.6h-11.2c-0.3,0-0.6-0.3-0.6-0.6V194.9z"/>
			<path fill="#3C4352" d="M141.7,195.5l8.3-17.3h-9.7c-0.3,0-0.6-0.3-0.6-0.6v-0.9c0-0.3,0.3-0.6,0.6-0.6h11.9
				c0.3,0,0.6,0.3,0.6,0.6v0.2l-8.6,18.6c-0.1,0.3-0.4,0.8-1,0.8h-0.9c-0.3,0-0.6-0.3-0.6-0.6V195.5z"/>
			<path fill="#3C4352" d="M156.4,193.3c0.9,0,2,0.5,2,2.7c0,2.5-1.5,4.6-2.5,5.5c-0.3,0.3-0.5,0.2-0.7,0.1l-0.4-0.4
				c-0.1-0.1-0.1-0.4,0.2-0.7s1.8-1.6,1.8-3.7c-0.1,0-0.2,0-0.4,0c-0.9,0-1.7-0.8-1.7-1.7C154.7,194,155.5,193.3,156.4,193.3z"/>
			<path fill="#3C4352" d="M163.7,195c1.3-0.4,6.6-3.4,7.6-7.4c0,0-2,1.3-4.5,1.3c-3.3,0-6.4-2.5-6.4-6.4c0-3.7,3-6.8,6.5-6.8
				c4.8,0,6.9,3.7,6.9,8.4c0,7.9-6.7,11.5-9.7,12.7c-0.3,0.1-0.5,0-0.7-0.3l-0.3-0.7C163,195.5,163.1,195.2,163.7,195z M171.7,185.1
				c0.5-3-0.7-7.4-4.7-7.4c-2.5,0-4.4,2.2-4.4,4.7c0,2.6,2,4.6,4.5,4.6C169.8,187,171.7,185.1,171.7,185.1z"/>
			<path fill="#3C4352" d="M177.6,186.3c0-6.5,2.6-10.4,7.2-10.4c4.6,0,7.2,3.9,7.2,10.4c0,6.5-2.6,10.4-7.2,10.4
				C180.2,196.7,177.6,192.8,177.6,186.3z M189.9,186.3c0-5.4-1.8-8.4-5.1-8.4c-3.3,0-5.1,3.1-5.1,8.4c0,5.4,1.8,8.4,5.1,8.4
				C188.1,194.7,189.9,191.7,189.9,186.3z"/>
			<path fill="#3C4352" d="M195.3,194.9c2.4-2.6,4.8-5.2,7.3-7.8c2-2.2,3-4,3-5.4c0-1.7-1.1-3.8-4.1-3.8c-1.8,0-3.3,1.2-4.2,2.2
				c-0.2,0.2-0.6,0.2-0.8,0l-0.6-0.6c-0.2-0.2-0.2-0.5,0-0.8c0,0,2.1-2.9,5.6-2.9c4.2,0,6.4,2.7,6.4,5.7c0,2.6-1.7,4.5-3.7,6.7
				c-1.9,2-3.8,4.1-5.7,6.1h8.7c0.3,0,0.6,0.3,0.6,0.6v0.8c0,0.3-0.3,0.6-0.6,0.6h-11.2c-0.3,0-0.6-0.3-0.6-0.6V194.9z"/>
		</g>
		<g>
			<path fill="#8BC541" d="M124.6,210.4c0-0.1,0.1-0.2,0.2-0.2h2c1.1,0,2,0.9,2,2c0,1.1-0.9,2-2,2h-1.5v2.1c0,0.1-0.1,0.2-0.2,0.2
				h-0.3c-0.1,0-0.2-0.1-0.2-0.2V210.4z M126.7,213.5c0.7,0,1.4-0.6,1.4-1.4c0-0.7-0.6-1.3-1.4-1.3h-1.4v2.6H126.7z"/>
			<path fill="#8BC541" d="M129.2,216.2l2.7-6c0-0.1,0.1-0.1,0.2-0.1h0.1c0.1,0,0.1,0,0.2,0.1l2.7,6c0.1,0.1,0,0.2-0.2,0.2h-0.4
				c-0.1,0-0.1-0.1-0.2-0.1l-0.7-1.5h-3.2l-0.7,1.5c0,0-0.1,0.1-0.2,0.1h-0.4C129.2,216.5,129.2,216.3,129.2,216.2z M133.4,214.3
				c-0.4-1-0.9-2-1.3-2.9h-0.1l-1.3,2.9H133.4z"/>
			<path fill="#8BC541" d="M136,215.5c0-0.1,0.1-0.1,0.1-0.2c0.1-0.1,0.2-0.2,0.3-0.1c0.1,0.1,0.7,0.7,1.5,0.7c0.7,0,1.2-0.5,1.2-1
				c0-0.6-0.5-1-1.6-1.4c-1-0.4-1.6-0.8-1.6-1.8c0-0.6,0.5-1.6,1.9-1.6c0.9,0,1.5,0.5,1.5,0.5c0.1,0,0.2,0.1,0.1,0.3
				c0,0.1-0.1,0.1-0.1,0.2c-0.1,0.1-0.2,0.2-0.3,0.1c-0.1,0-0.6-0.4-1.2-0.4c-0.9,0-1.2,0.6-1.2,1c0,0.6,0.5,0.9,1.2,1.3
				c1.2,0.5,2,0.9,2,2c0,0.9-0.9,1.6-1.9,1.6c-1.1,0-1.8-0.6-1.9-0.7C136,215.8,135.9,215.7,136,215.5z"/>
			<path fill="#8BC541" d="M142.5,210.8H141c-0.1,0-0.2-0.1-0.2-0.2v-0.3c0-0.1,0.1-0.2,0.2-0.2h3.8c0.1,0,0.2,0.1,0.2,0.2v0.3
				c0,0.1-0.1,0.2-0.2,0.2h-1.6v5.5c0,0.1-0.1,0.2-0.2,0.2h-0.3c-0.1,0-0.2-0.1-0.2-0.2V210.8z"/>
			<path fill="#8BC541" d="M148.3,215.5l0.2-0.2c0.1-0.1,0.2-0.1,0.2,0c0.1,0.1,0.6,0.6,1.3,0.6c0.7,0,1.3-0.4,1.3-1.1
				c0-0.6-0.5-1.2-1.6-1.2h-0.5c-0.1,0-0.2-0.1-0.2-0.2v-0.2c0-0.1,0-0.2,0.2-0.2h0.5c1,0,1.4-0.5,1.4-1.1c0-0.7-0.5-1.1-1.2-1.1
				c-0.6,0-1,0.4-1.2,0.6c-0.1,0.1-0.1,0.1-0.2,0l-0.2-0.2c-0.1-0.1-0.1-0.2,0-0.2c0,0,0.6-0.8,1.6-0.8c1.1,0,1.8,0.6,1.8,1.6
				c0,0.7-0.5,1.2-0.9,1.4v0c0.4,0.2,1.1,0.7,1.1,1.4c0,1-0.7,1.7-2,1.7c-1.1,0-1.6-0.6-1.8-0.8
				C148.2,215.7,148.2,215.6,148.3,215.5z"/>
			<path fill="#8BC541" d="M153.7,213.4c0-2,0.8-3.1,2.2-3.1s2.2,1.2,2.2,3.1c0,2-0.8,3.1-2.2,3.1S153.7,215.4,153.7,213.4z
				 M157.4,213.4c0-1.6-0.6-2.5-1.5-2.5s-1.5,0.9-1.5,2.5c0,1.6,0.6,2.5,1.5,2.5S157.4,215.1,157.4,213.4z"/>
			<path fill="#8BC541" d="M162.4,210.4c0-0.1,0.1-0.2,0.2-0.2h2c1.7,0,3.1,1.4,3.1,3.1c0,1.7-1.4,3.1-3.1,3.1h-2
				c-0.1,0-0.2-0.1-0.2-0.2V210.4z M164.5,215.8c1.5,0,2.5-1,2.5-2.5c0-1.5-1.1-2.5-2.5-2.5h-1.3v5H164.5z"/>
			<path fill="#8BC541" d="M168.7,216.2l2.7-6c0-0.1,0.1-0.1,0.2-0.1h0.1c0.1,0,0.1,0,0.2,0.1l2.7,6c0.1,0.1,0,0.2-0.2,0.2h-0.4
				c-0.1,0-0.1-0.1-0.2-0.1l-0.7-1.5H170l-0.7,1.5c0,0-0.1,0.1-0.2,0.1h-0.4C168.7,216.5,168.6,216.3,168.7,216.2z M172.9,214.3
				c-0.4-1-0.9-2-1.3-2.9h-0.1l-1.3,2.9H172.9z"/>
			<path fill="#8BC541" d="M176.7,213.5l-2.1-3c-0.1-0.1,0-0.3,0.1-0.3h0.4c0.1,0,0.1,0,0.1,0.1l1.8,2.5l1.8-2.5
				c0,0,0.1-0.1,0.1-0.1h0.4c0.1,0,0.2,0.1,0.1,0.3l-2.2,3v2.8c0,0.1-0.1,0.2-0.2,0.2h-0.3c-0.1,0-0.2-0.1-0.2-0.2V213.5z"/>
			<path fill="#8BC541" d="M180.5,215.5c0-0.1,0.1-0.1,0.1-0.2c0.1-0.1,0.2-0.2,0.3-0.1c0.1,0.1,0.7,0.7,1.5,0.7
				c0.7,0,1.2-0.5,1.2-1c0-0.6-0.5-1-1.6-1.4c-1-0.4-1.6-0.8-1.6-1.8c0-0.6,0.5-1.6,1.9-1.6c0.9,0,1.5,0.5,1.5,0.5
				c0.1,0,0.2,0.1,0.1,0.3c0,0.1-0.1,0.1-0.1,0.2c-0.1,0.1-0.2,0.2-0.3,0.1c-0.1,0-0.6-0.4-1.2-0.4c-0.9,0-1.2,0.6-1.2,1
				c0,0.6,0.5,0.9,1.2,1.3c1.2,0.5,2,0.9,2,2c0,0.9-0.9,1.6-1.9,1.6c-1.1,0-1.8-0.6-1.9-0.7C180.5,215.8,180.4,215.7,180.5,215.5z"
				/>
		</g>
	</g>
	<g>
		<path fill="none" stroke="#3C4352" stroke-width="2" stroke-linecap="round" stroke-linejoin="round" stroke-miterlimit="10" d="
			M395.1,240.6H101.2c-0.9,0-1.6-0.7-1.6-1.6v-207c0-0.9,0.7-1.6,1.6-1.6h293.9c0.9,0,1.6,0.7,1.6,1.6v207
			C396.7,239.9,396,240.6,395.1,240.6z"/>
		<path fill="none" stroke="#3C4352" stroke-width="2" stroke-linecap="round" stroke-linejoin="round" stroke-miterlimit="10" d="
			M397.5,246.3H98.8c-2.7,0-4.9-2.2-4.9-4.9V29.5c0-2.7,2.2-4.9,4.9-4.9h298.7c2.7,0,4.9,2.2,4.9,4.9v211.9
			C402.4,244.1,400.2,246.3,397.5,246.3z"/>
	</g>
</g>
<g>
	<path fill="#FFFFFF" d="M115.4,185.6L115.4,185.6c0,0,0-0.1,0-0.1c0-5-4.5-9.5-12.7-12.9l-5.8-31.1l-0.1-0.5l-20-13.6l-45.4,8.4
		l7.1,38.2c-6.4,3.2-9.7,7.2-9.7,11.5c0,0,0,0.1,0,0.1l0,0l0,0c0,0.4,0,0.8,0.1,1.1l8.6,88.8c0.1,7.9,14.9,14.1,33.7,14.1
		c21.6,0,34.6-7.1,34.7-14.1l9.3-88.7C115.3,186.5,115.4,186,115.4,185.6L115.4,185.6z"/>
	<g>
		<path fill="none" stroke="#3C4352" stroke-width="2" stroke-miterlimit="10" d="M38.8,173.3c-6.2,3-10,6.8-10,11
			c0,9.5,19.4,17.2,43.3,17.2s43.3-7.7,43.3-17.2c0-4.8-4.9-9.2-12.9-12.3"/>
		<path fill="none" stroke="#3C4352" stroke-width="2" stroke-miterlimit="10" d="M115.4,184.3l-9.8,93c0,7.3-15.9,13.2-34.4,13.2
			s-33.4-5.9-33.4-13.2l-9-93"/>
		
			<line opacity="0.5" fill="none" stroke="#3C4352" stroke-width="2" stroke-linecap="round" stroke-miterlimit="10" x1="38.2" y1="204" x2="44.8" y2="271.7"/>
	</g>
	<g>
		<defs>
			<path id="SVGID_1_" d="M115.4,184.3c0,9.5-19.4,17.2-43.3,17.2s-43.3-7.7-43.3-17.2v-81.5h86.8L115.4,184.3z"/>
		</defs>
		<clipPath id="SVGID_2_">
			<use xlink:href="#SVGID_1_"  overflow="visible"/>
		</clipPath>
		<g clip-path="url(#SVGID_2_)">
			<polygon fill="none" stroke="#3C4352" stroke-width="2" stroke-miterlimit="10" points="96.4,139.2 110.6,215.8 49,227.2 
				31.8,134.1 76.7,125.8 			"/>
			
				<rect x="47.6" y="150.4" transform="matrix(0.9833 -0.1822 0.1822 0.9833 -31.3492 16.06)" fill="none" stroke="#3C4352" stroke-width="2" stroke-linecap="round" stroke-miterlimit="10" width="48.3" height="56.6"/>
			
				<line opacity="0.5" fill="none" stroke="#3C4352" stroke-width="2" stroke-linecap="round" stroke-miterlimit="10" x1="44.4" y1="163.3" x2="60.4" y2="160.3"/>
			
				<line opacity="0.5" fill="none" stroke="#3C4352" stroke-width="2" stroke-linecap="round" stroke-miterlimit="10" x1="45.8" y1="171.2" x2="61.8" y2="168.2"/>
			
				<line opacity="0.5" fill="none" stroke="#3C4352" stroke-width="2" stroke-linecap="round" stroke-miterlimit="10" x1="47.3" y1="179.3" x2="94.8" y2="170.5"/>
			
				<line opacity="0.5" fill="none" stroke="#3C4352" stroke-width="2" stroke-linecap="round" stroke-miterlimit="10" x1="48.8" y1="187.1" x2="96.3" y2="178.3"/>
			
				<line opacity="0.5" fill="none" stroke="#3C4352" stroke-width="2" stroke-linecap="round" stroke-miterlimit="10" x1="50.2" y1="195.2" x2="97.8" y2="186.4"/>
			
				<line opacity="0.5" fill="none" stroke="#3C4352" stroke-width="2" stroke-linecap="round" stroke-miterlimit="10" x1="51.7" y1="203.1" x2="98.2" y2="194.5"/>
			
				<line opacity="0.5" fill="none" stroke="#3C4352" stroke-width="2" stroke-linecap="round" stroke-miterlimit="10" x1="58.9" y1="152.3" x2="69.1" y2="207.2"/>
			
				<line opacity="0.5" fill="none" stroke="#3C4352" stroke-width="2" stroke-linecap="round" stroke-miterlimit="10" x1="79.1" y1="173.4" x2="84.9" y2="205"/>
			<polyline fill="none" stroke="#3C4352" stroke-width="2" stroke-miterlimit="10" points="75.6,125.4 78.7,142.1 96.3,138.9 			
				"/>
			
				<rect x="67.3" y="167" transform="matrix(0.9833 -0.1822 0.1822 0.9833 -29.9904 15.5817)" fill="none" stroke="#3C4352" stroke-width="2" stroke-linecap="round" stroke-miterlimit="10" width="5" height="8"/>
			
				<rect x="75.4" y="161" transform="matrix(0.9833 -0.1822 0.1822 0.9833 -29.1658 16.9969)" fill="none" stroke="#3C4352" stroke-width="2" stroke-linecap="round" stroke-miterlimit="10" width="5" height="12.5"/>
			
				<rect x="83.6" y="153.9" transform="matrix(0.9833 -0.1822 0.1822 0.9833 -28.2419 18.4153)" fill="none" stroke="#3C4352" stroke-width="2" stroke-linecap="round" stroke-miterlimit="10" width="5" height="18"/>
		</g>
	</g>
</g>
<path fill="none" stroke="#3C4352" stroke-width="2" stroke-miterlimit="10" d="M291.1,288.2h-92c-1.7,0-3-1.4-3-3l0,0
	c0-1.6,1.3-3,3-3h92c1.6,0,3,1.4,3,3l0,0C294.1,286.9,292.7,288.2,291.1,288.2z"/>
<line fill="none" stroke="#3C4352" stroke-width="2" stroke-miterlimit="10" x1="215.7" y1="282.8" x2="215.7" y2="245.8"/>
<line fill="none" stroke="#3C4352" stroke-width="2" stroke-miterlimit="10" x1="274.3" y1="245.8" x2="274.3" y2="282.8"/>
</svg>
