<?xml version="1.0" encoding="utf-8"?>
<!-- Generator: Adobe Illustrator 18.1.0, SVG Export Plug-In . SVG Version: 6.00 Build 0)  -->
<!DOCTYPE svg PUBLIC "-//W3C//DTD SVG 1.1//EN" "http://www.w3.org/Graphics/SVG/1.1/DTD/svg11.dtd">
<svg version="1.1" id="Layer_1" xmlns="http://www.w3.org/2000/svg" xmlns:xlink="http://www.w3.org/1999/xlink" x="0px" y="0px"
	 viewBox="0 0 426 318" enable-background="new 0 0 426 318" xml:space="preserve">
<g>
	<rect x="220.4" y="65.5" fill="#FFFFFF" width="183.2" height="188.4"/>
	
		<circle fill="none" stroke="#3C4352" stroke-width="2" stroke-linecap="round" stroke-linejoin="round" stroke-miterlimit="10" cx="236.4" cy="80.9" r="2.3"/>
	<g>
		<text transform="matrix(1 0 0 1 248.1466 83.8277)" fill="#3C4352" font-family="'BrandonGrotesque-Bold'" font-size="7.5515">new vs returning</text>
	</g>
	
		<line fill="none" stroke="#8BC541" stroke-width="3" stroke-linecap="round" stroke-linejoin="round" stroke-miterlimit="10" x1="220.8" y1="98.5" x2="404" y2="98.5"/>
	
		<rect x="220.8" y="65.1" fill="none" stroke="#8BC541" stroke-width="3" stroke-linecap="round" stroke-linejoin="round" stroke-miterlimit="10" width="183.2" height="189.2"/>
	<g>
		
			<rect x="365.9" y="170.7" fill="none" stroke="#8BC541" stroke-width="3" stroke-linecap="round" stroke-linejoin="round" stroke-miterlimit="10" width="16.4" height="16.4"/>
		
			<rect x="365.9" y="200.2" fill="none" stroke="#3C4352" stroke-width="3" stroke-linecap="round" stroke-linejoin="round" stroke-miterlimit="10" width="16.4" height="16.4"/>
	</g>
	<path fill="none" stroke="#8BC541" stroke-width="3" stroke-linecap="round" stroke-linejoin="round" stroke-miterlimit="10" d="
		M344,172.1c0-26.4-21.4-47.8-47.8-47.8s-47.8,21.4-47.8,47.8c0,5.8,1,11.3,2.9,16.5"/>
	<path fill="none" stroke="#3C4352" stroke-width="3" stroke-linecap="round" stroke-linejoin="round" stroke-miterlimit="10" d="
		M251.3,188.6c6.7,18.3,24.3,31.4,44.9,31.4c26.4,0,47.8-21.4,47.8-47.8h-47.8L251.3,188.6z"/>
</g>
<g>
	<rect x="22.5" y="65.2" fill="#FFFFFF" stroke="#8BC541" stroke-width="3" stroke-miterlimit="10" width="183.2" height="188.5"/>
	
		<circle fill="none" stroke="#3C4352" stroke-width="2" stroke-linecap="round" stroke-linejoin="round" stroke-miterlimit="10" cx="38.1" cy="80.6" r="2.3"/>
	<g>
		<g enable-background="new    ">
			<path fill="#3C4352" d="M50.5,78.5C50.5,78.4,50.6,78.4,50.5,78.5l0.8-0.1c0.1,0,0.1,0.1,0.1,0.1v4.2h1.9c0.1,0,0.1,0.1,0.1,0.1
				v0.6c0,0.1-0.1,0.1-0.1,0.1h-2.8c-0.1,0-0.1-0.1-0.1-0.1L50.5,78.5L50.5,78.5z"/>
			<path fill="#3C4352" d="M54.4,78.5C54.4,78.4,54.5,78.4,54.4,78.5l0.8-0.1c0.1,0,0.1,0.1,0.1,0.1v5c0,0.1-0.1,0.1-0.1,0.1h-0.7
				c-0.1,0-0.1-0.1-0.1-0.1V78.5z"/>
			<path fill="#3C4352" d="M56,78.5c0-0.1,0-0.2,0.1-0.2h0.8c0.1,0,0.1,0,0.1,0.1l1.5,3.2h0.1l1.5-3.2l0.1-0.1H61
				c0.1,0,0.2,0.1,0.1,0.2l-2.3,5.1l-0.1,0.1h-0.1c-0.1,0-0.1,0-0.1-0.1L56,78.5z"/>
			<path fill="#3C4352" d="M61.7,78.5C61.7,78.4,61.8,78.4,61.7,78.5l3.3-0.1c0.1,0,0.1,0.1,0.1,0.1v0.6c0,0.1-0.1,0.1-0.1,0.1h-2.2
				v1.2h1.9c0.1,0,0.1,0.1,0.1,0.1v0.6c0,0.1-0.1,0.1-0.1,0.1h-1.9v1.3H65c0.1,0,0.1,0.1,0.1,0.1v0.6c0,0.1-0.1,0.1-0.1,0.1h-3.1
				c-0.1,0-0.1-0.1-0.1-0.1v-4.7H61.7z"/>
			<path fill="#3C4352" d="M67.2,78.5c0-0.1,0-0.2,0.1-0.2h0.8c0.1,0,0.1,0,0.1,0.1l1.5,3.2h0.1l1.5-3.2l0.1-0.1H72
				c0.1,0,0.2,0.1,0.1,0.2l-2.3,5.1l-0.1,0.1h-0.1c-0.1,0-0.1,0-0.1-0.1L67.2,78.5z"/>
			<path fill="#3C4352" d="M72.9,78.5C72.9,78.4,73,78.4,72.9,78.5l0.8-0.1c0.1,0,0.1,0.1,0.1,0.1v5c0,0.1-0.1,0.1-0.1,0.1H73
				c-0.1,0-0.1-0.1-0.1-0.1V78.5z"/>
			<path fill="#3C4352" d="M74.9,82.9l0.3-0.5c0.1-0.1,0.2-0.1,0.3-0.1c0,0,0.6,0.5,1.1,0.5c0.4,0,0.7-0.3,0.7-0.6
				c0-0.4-0.3-0.6-1-0.9s-1.4-0.7-1.4-1.6c0-0.7,0.5-1.5,1.7-1.5c0.8,0,1.4,0.4,1.5,0.5c0.1,0,0.1,0.2,0,0.2l-0.3,0.4
				c-0.1,0.1-0.2,0.2-0.3,0.1c-0.1,0-0.6-0.4-1-0.4s-0.7,0.3-0.7,0.5c0,0.4,0.3,0.6,0.9,0.8c0.7,0.3,1.6,0.7,1.6,1.7
				c0,0.8-0.7,1.5-1.7,1.5S75.1,83.1,74.9,82.9C74.9,83,74.8,83,74.9,82.9z"/>
			<path fill="#3C4352" d="M79.3,78.5C79.3,78.4,79.4,78.4,79.3,78.5l0.8-0.1c0.1,0,0.1,0.1,0.1,0.1v5c0,0.1-0.1,0.1-0.1,0.1h-0.7
				c-0.1,0-0.1-0.1-0.1-0.1V78.5z"/>
			<path fill="#3C4352" d="M82.4,79.2h-1.2c-0.1,0-0.1-0.1-0.1-0.1v-0.6c0-0.1,0.1-0.1,0.1-0.1h3.3c0.1,0,0.1,0.1,0.1,0.1v0.6
				c0,0.1-0.1,0.1-0.1,0.1h-1.2v4.2c0,0.1-0.1,0.1-0.1,0.1h-0.7c-0.1,0-0.1-0.1-0.1-0.1L82.4,79.2L82.4,79.2z"/>
			<path fill="#3C4352" d="M87.7,78.2c1.5,0,2.7,1.2,2.7,2.7s-1.2,2.7-2.7,2.7S85,82.4,85,80.9S86.2,78.2,87.7,78.2z M87.7,82.7
				c1,0,1.7-0.8,1.7-1.7c0-1-0.8-1.7-1.7-1.7c-1,0-1.7,0.8-1.7,1.7C86,81.9,86.8,82.7,87.7,82.7z"/>
			<path fill="#3C4352" d="M91.5,78.5C91.5,78.4,91.6,78.4,91.5,78.5l2.3-0.1c0.9,0,1.6,0.7,1.6,1.6c0,0.7-0.5,1.3-1.1,1.5l1,1.9
				c0.1,0.1,0,0.2-0.1,0.2h-0.8c-0.1,0-0.1,0-0.1-0.1l-1-2h-0.8v1.9c0,0.1-0.1,0.1-0.1,0.1h-0.7c-0.1,0-0.1-0.1-0.1-0.1L91.5,78.5
				L91.5,78.5z M93.7,80.7c0.4,0,0.7-0.3,0.7-0.8c0-0.4-0.3-0.7-0.7-0.7h-1.2v1.5H93.7z"/>
			<path fill="#3C4352" d="M96.2,82.9l0.3-0.5c0.1-0.1,0.2-0.1,0.3-0.1c0,0,0.6,0.5,1.1,0.5c0.4,0,0.7-0.3,0.7-0.6
				c0-0.4-0.3-0.6-1-0.9s-1.4-0.7-1.4-1.6c0-0.7,0.5-1.5,1.7-1.5c0.8,0,1.4,0.4,1.5,0.5c0.1,0,0.1,0.2,0,0.2l-0.3,0.4
				c-0.1,0.1-0.2,0.2-0.3,0.1c-0.1,0-0.6-0.4-1-0.4s-0.7,0.3-0.7,0.5c0,0.4,0.3,0.6,0.9,0.8c0.7,0.3,1.6,0.7,1.6,1.7
				c0,0.8-0.7,1.5-1.7,1.5S96.4,83.1,96.2,82.9C96.1,83,96.1,83,96.2,82.9z"/>
		</g>
	</g>
	
		<line fill="none" stroke="#8BC541" stroke-width="3" stroke-linecap="round" stroke-linejoin="round" stroke-miterlimit="10" x1="22.5" y1="98.3" x2="205.8" y2="98.3"/>
	
		<rect x="22.5" y="64.9" fill="none" stroke="#8BC541" stroke-width="2" stroke-linecap="round" stroke-linejoin="round" stroke-miterlimit="10" width="183.3" height="189.3"/>
	<g>
		<text transform="matrix(1 0 0 1 99.9214 135.0445)" fill="#3C4352" font-family="'BrandonGrotesque-Regular'" font-size="25.948">46</text>
	</g>
	<path fill="none" stroke="#8BC541" stroke-width="3" stroke-linecap="round" stroke-linejoin="round" stroke-miterlimit="10" d="
		M116,184.4c13.5,0,25,8.2,30,19.8l32.6-21.1c-12-22.2-35.6-37.3-62.6-37.3s-50.6,15.1-62.6,37.3L86,204.2
		C91,192.5,102.6,184.4,116,184.4z"/>
	<path fill="none" stroke="#3C4352" stroke-width="3" stroke-miterlimit="10" d="M109.6,206.9c1.4,2.6,4.7,3.6,7.4,2.1
		s3.6-4.7,2.1-7.4L98,173c-0.2-0.4-0.8-0.6-1.3-0.4c-0.4,0.2-0.6,0.8-0.4,1.3L109.6,206.9z"/>
	<g>
		<g>
			<text transform="matrix(1 0 0 1 36.6841 236.1563)" fill="#3C4352" font-family="'BrandonGrotesque-Regular'" font-size="10.66">0</text>
		</g>
		<g>
			
				<text transform="matrix(1 0 0 1 176.4517 234.9707)" fill="#3C4352" font-family="'BrandonGrotesque-Regular'" font-size="10.66">159</text>
		</g>
		<g>
			<g enable-background="new    ">
				<path fill="#8BC541" d="M37,219.5l0.2-0.2c0.1-0.1,0.1,0,0.2,0c0.1,0.1,0.4,0.5,1,0.5c0.5,0,0.9-0.3,0.9-0.8
					c0-0.4-0.3-0.9-1.2-0.9h-0.4c-0.1,0-0.1,0-0.1-0.1v-0.2c0-0.1,0-0.1,0.1-0.1h0.4c0.7,0,1-0.4,1-0.8c0-0.5-0.4-0.8-0.9-0.8
					c-0.4,0-0.7,0.3-0.9,0.4c0,0-0.1,0.1-0.2,0l-0.2-0.1c-0.1,0,0-0.1,0-0.2c0,0,0.5-0.6,1.2-0.6c0.8,0,1.4,0.5,1.4,1.2
					c0,0.5-0.4,0.9-0.7,1l0,0c0.3,0.1,0.8,0.5,0.8,1.1c0,0.7-0.6,1.3-1.5,1.3c-0.8,0-1.2-0.4-1.3-0.6C37,219.6,36.9,219.5,37,219.5z
					"/>
				<path fill="#8BC541" d="M40.7,217.9c0-1.4,0.6-2.3,1.6-2.3s1.6,0.9,1.6,2.3s-0.6,2.3-1.6,2.3S40.7,219.4,40.7,217.9z
					 M43.4,217.9c0-1.2-0.4-1.9-1.1-1.9s-1.1,0.7-1.1,1.9s0.4,1.9,1.1,1.9S43.4,219.1,43.4,217.9z"/>
				<path fill="#8BC541" d="M44.9,218v-0.1c0-0.1,0.1-0.1,0.1-0.1h1.4c0.1,0,0.1,0.1,0.1,0.1v0.1c0,0.1-0.1,0.1-0.1,0.1H45
					C45,218.1,44.9,218.1,44.9,218z"/>
				<path fill="#8BC541" d="M47.6,215.7c0-0.1,0.1-0.1,0.1-0.1h1.5c1.3,0,2.3,1,2.3,2.3s-1,2.3-2.3,2.3h-1.5c-0.1,0-0.1-0.1-0.1-0.1
					V215.7z M49.1,219.7c1.1,0,1.9-0.8,1.9-1.9c0-1.1-0.8-1.9-1.9-1.9h-1v3.7L49.1,219.7L49.1,219.7z"/>
				<path fill="#8BC541" d="M51.9,220l2-4.4l0.1-0.1h0.1c0.1,0,0.1,0,0.1,0.1l2,4.4c0,0.1,0,0.2-0.1,0.2h-0.3c-0.1,0-0.1,0-0.1-0.1
					l-0.5-1.1h-2.3l-0.5,1.1l-0.1,0.1H52C51.9,220.2,51.9,220.1,51.9,220z M55,218.6c-0.3-0.7-0.6-1.4-1-2.2l0,0l-1,2.2H55z"/>
				<path fill="#8BC541" d="M57.5,217.9l-1.6-2.2c-0.1-0.1,0-0.2,0.1-0.2h0.3c0,0,0.1,0,0.1,0.1l1.3,1.8l1.3-1.8l0.1-0.1h0.3
					c0.1,0,0.2,0.1,0.1,0.2l-1.6,2.2v2.1c0,0.1-0.1,0.1-0.1,0.1h-0.3c-0.1,0-0.1-0.1-0.1-0.1v-2.1H57.5z"/>
				<path fill="#8BC541" d="M62.3,215.6c0-0.1,0.1-0.1,0.1-0.1h0.1c0,0,0.1,0,0.1,0.1l1.3,3.6l0,0l1.3-3.6l0.1-0.1h0.1
					c0.1,0,0.1,0,0.1,0.1l0.9,4.4c0,0.1,0,0.2-0.1,0.2H66c-0.1,0-0.1,0-0.1-0.1l-0.6-3.4l0,0l-1.2,3.5l-0.1,0.1h-0.1
					c0,0-0.1,0-0.1-0.1l-1.2-3.5l0,0l-0.6,3.4l-0.1,0.1h-0.3c-0.1,0-0.1-0.1-0.1-0.2L62.3,215.6z"/>
				<path fill="#8BC541" d="M67.5,215.7c0-0.1,0.1-0.1,0.1-0.1h0.3c0.1,0,0.1,0.1,0.1,0.1v4.4c0,0.1-0.1,0.1-0.1,0.1h-0.3
					c-0.1,0-0.1-0.1-0.1-0.1V215.7z"/>
				<path fill="#8BC541" d="M69.3,215.6c0-0.1,0.1-0.1,0.1-0.1h0.2l3,3.7l0,0v-3.5c0-0.1,0.1-0.1,0.1-0.1H73c0.1,0,0.1,0.1,0.1,0.1
					v4.4c0,0.1-0.1,0.1-0.1,0.1h-0.1l-3-3.8l0,0v3.6c0,0.1-0.1,0.1-0.1,0.1h-0.2c-0.1,0-0.1-0.1-0.1-0.1v-4.4H69.3z"/>
			</g>
		</g>
		<g>
			
				<text transform="matrix(1 0 0 1 149.773 220.1621)" fill="#8BC541" font-family="'BrandonGrotesque-Regular'" font-size="6.5949">30-Day max</text>
		</g>
	</g>
</g>
<g>
	<rect x="98.8" y="40.3" fill="#FFFFFF" stroke="#8CC640" stroke-width="3" stroke-miterlimit="10" width="229.5" height="236"/>
	
		<rect x="98.5" y="39.6" fill="none" stroke="#8BC541" stroke-width="2" stroke-linecap="round" stroke-linejoin="round" stroke-miterlimit="10" width="229.5" height="237.2"/>
	<g>
		<path fill="none" stroke="#3C4352" stroke-width="3" stroke-linecap="round" stroke-linejoin="round" stroke-miterlimit="10" d="
			M164.1,144.7c2.1,3.6,0.3,6.6-3.9,6.6h-37.1c-4.2,0-5.9-3-3.9-6.6l18.7-33c2.1-3.6,5.4-3.6,7.5,0L164.1,144.7z"/>
		<g enable-background="new    ">
			<path fill="#3C4352" d="M181.5,109.8c0-0.6,0.6-1.2,1.2-1.2h2.4c0.7,0,1.2,0.6,1.2,1.2v26.5c0,7.2,4.5,12.9,11.9,12.9
				c7.5,0,12.1-5.5,12.1-12.8v-26.6c0-0.6,0.5-1.2,1.2-1.2h2.4c0.6,0,1.2,0.6,1.2,1.2v26.8c0,9.6-6.9,17-16.9,17s-16.8-7.4-16.8-17
				v-26.8H181.5z"/>
			<path fill="#3C4352" d="M227.5,109.8c0-0.6,0.5-1.2,1.2-1.2h14c7.8,0,14.2,6.3,14.2,14c0,7.9-6.4,14.3-14.1,14.3h-10.5v14.9
				c0,0.6-0.6,1.2-1.2,1.2h-2.4c-0.7,0-1.2-0.6-1.2-1.2V109.8z M242.4,132.2c5.2,0,9.6-4.3,9.6-9.7c0-5.1-4.4-9.1-9.6-9.1h-10.1
				v18.8H242.4z"/>
		</g>
	</g>
	<g enable-background="new    ">
		<path fill="#8BC541" d="M118.2,234.7l1.1-1c0.2-0.2,0.4-0.2,0.5,0c0.1,0.1,1.3,1.1,2.5,1.1c1.1,0,2.2-0.8,2.2-1.9c0-1.1-1-2-2.8-2
			h-1.2c-0.2,0-0.4-0.2-0.4-0.4v-1.3c0-0.3,0.1-0.4,0.4-0.4h1.2c1.7,0,2.6-0.8,2.6-1.9c0-1.1-0.9-1.9-2-1.9s-1.7,0.6-2.1,1
			c-0.1,0.2-0.4,0.2-0.6,0l-1-0.9c-0.2-0.1-0.1-0.4,0-0.5c0,0,1.6-1.8,3.9-1.8c2.4,0,4.4,1.5,4.4,3.8c0,1.6-1.2,2.8-2.1,3.2v0.1
			c1,0.4,2.5,1.5,2.5,3.4c0,2.3-1.9,4-4.7,4c-2.6,0-3.8-1.3-4.3-1.8C118.1,235.1,118.1,234.8,118.2,234.7z"/>
		<path fill="#8BC541" d="M129.6,233.4v-1.7l7.4-9c0.1-0.1,0.2-0.1,0.3-0.1h1.1c0.2,0,0.4,0.2,0.4,0.4v8.8h1.7
			c0.2,0,0.4,0.2,0.4,0.4v1.3c0,0.2-0.2,0.4-0.4,0.4h-1.7v2.6c0,0.2-0.2,0.4-0.4,0.4h-1.7c-0.2,0-0.4-0.2-0.4-0.4v-2.6H130
			C129.7,233.8,129.6,233.7,129.6,233.4z M136.4,231.7v-5l-4.1,5H136.4z"/>
		<path fill="#8BC541" d="M147.3,228.4c0.8,0,1.5,0.2,1.8,0.4v-6c0-0.2,0.2-0.4,0.4-0.4h1.8c0.2,0,0.4,0.2,0.4,0.4v13.7
			c0,0.2-0.2,0.4-0.4,0.4h-0.8c-0.2,0-0.3-0.2-0.4-0.4l-0.2-0.6c0,0-1,1.2-2.7,1.2c-2.2,0-4-2-4-4.3
			C143.2,230.3,144.8,228.4,147.3,228.4z M147.5,234.8c1.1,0,1.6-0.8,1.7-1.3v-2.4c0,0-0.6-0.5-1.6-0.5c-1.2,0-2,0.9-2,2.1
			S146.4,234.8,147.5,234.8z"/>
		<path fill="#8BC541" d="M162.3,226.6l-1.8,0.4c-0.2,0-0.4-0.1-0.4-0.3l-0.1-1c0-0.2,0-0.3,0.1-0.4l3-2.5h1.4
			c0.2,0,0.4,0.2,0.4,0.4v13.3c0,0.2-0.2,0.4-0.4,0.4h-1.8c-0.2,0-0.4-0.2-0.4-0.4V226.6z"/>
		<path fill="#8BC541" d="M170.5,235.1c1-0.3,3.9-1.7,4.5-4c-0.4,0.2-1.4,0.6-2.4,0.6c-2.1,0-4.2-1.5-4.2-4.5c0-2.6,2.1-4.7,4.7-4.7
			c3.2,0,4.9,2.6,4.9,5.7c0,6-5.1,8.4-6.9,9c-0.3,0.1-0.5,0-0.6-0.3l-0.5-1.2C170,235.4,170.1,235.2,170.5,235.1z M175.6,227.9
			c0-1.4-0.7-3-2.4-3c-1.3,0-2.4,1.1-2.4,2.4c0,1.3,1.1,2.4,2.4,2.4C174.5,229.6,175.3,228.6,175.6,227.9z"/>
		<path fill="#8BC541" d="M181.2,222.8c0-0.2,0.2-0.4,0.4-0.4h1.8c0.2,0,0.4,0.2,0.4,0.4v6.3c0.4-0.3,1.2-0.7,2.2-0.7
			c2.6,0,3.7,2,3.7,4.1v4c0,0.2-0.2,0.4-0.4,0.4h-1.7c-0.2,0-0.4-0.2-0.4-0.4v-4c0-1.1-0.6-1.9-1.6-1.9c-0.9,0-1.6,0.6-1.8,1.5v4.4
			c0,0.2-0.1,0.4-0.4,0.4h-1.7c-0.2,0-0.4-0.2-0.4-0.4v-13.7H181.2z"/>
		<path fill="#8BC541" d="M192.9,229c0-0.2,0.2-0.4,0.4-0.4h0.8c0.2,0,0.3,0.1,0.4,0.3l0.3,0.8c0.3-0.4,1.1-1.3,2.3-1.3
			c1,0,1.8,0.3,1.6,0.8l-0.8,1.3c-0.1,0.2-0.3,0.3-0.5,0.2c-0.1,0-0.4-0.1-0.6-0.1c-0.8,0-1.3,0.6-1.5,0.8v5c0,0.3-0.2,0.4-0.5,0.4
			h-1.6c-0.2,0-0.4-0.2-0.4-0.4V229H192.9z"/>
	</g>
	<g>
		<g enable-background="new    ">
			<path fill="#8BC541" d="M119.1,192.3c0-0.2,0.1-0.3,0.3-0.3h0.6c0.2,0,0.3,0.1,0.3,0.3v9.8h4.6c0.2,0,0.3,0.1,0.3,0.3v0.5
				c0,0.2-0.1,0.3-0.3,0.3h-5.5c-0.2,0-0.3-0.1-0.3-0.3V192.3z"/>
			<path fill="#8BC541" d="M125.9,202.7l4.8-10.7c0-0.1,0.1-0.2,0.3-0.2h0.2c0.1,0,0.2,0.1,0.3,0.2l4.8,10.7c0.1,0.2,0,0.4-0.3,0.4
				h-0.6c-0.1,0-0.2-0.1-0.3-0.2l-1.2-2.6h-5.6l-1.2,2.6c0,0.1-0.1,0.2-0.3,0.2h-0.6C125.9,203.1,125.8,202.9,125.9,202.7z
				 M133.4,199.3c-0.8-1.7-1.5-3.5-2.3-5.2H131l-2.3,5.2H133.4z"/>
			<path fill="#8BC541" d="M137.2,201.4c0.1-0.1,0.2-0.2,0.2-0.3c0.2-0.2,0.3-0.3,0.6-0.1c0.1,0.1,1.3,1.2,2.7,1.2
				c1.3,0,2.1-0.8,2.1-1.7c0-1.1-1-1.7-2.8-2.5c-1.7-0.8-2.8-1.5-2.8-3.3c0-1.1,0.9-2.8,3.4-2.8c1.6,0,2.7,0.8,2.7,0.8
				c0.1,0,0.3,0.2,0.1,0.5c-0.1,0.1-0.1,0.2-0.2,0.3c-0.1,0.2-0.3,0.3-0.6,0.1c-0.1-0.1-1.1-0.7-2.1-0.7c-1.7,0-2.2,1.1-2.2,1.7
				c0,1.1,0.8,1.7,2.1,2.2c2.1,0.9,3.5,1.7,3.5,3.5c0,1.7-1.6,2.9-3.4,2.9c-1.9,0-3.1-1.1-3.4-1.3
				C137.2,201.9,137,201.7,137.2,201.4z"/>
			<path fill="#8BC541" d="M148,193h-2.8c-0.2,0-0.3-0.1-0.3-0.3v-0.5c0-0.2,0.1-0.3,0.3-0.3h6.7c0.2,0,0.3,0.1,0.3,0.3v0.5
				c0,0.2-0.1,0.3-0.3,0.3h-2.8v9.8c0,0.2-0.1,0.3-0.3,0.3h-0.6c-0.2,0-0.3-0.1-0.3-0.3V193H148z"/>
			<path fill="#8BC541" d="M157.5,192.3c0-0.2,0.1-0.3,0.3-0.3h3.6c3.1,0,5.6,2.5,5.6,5.5c0,3.1-2.5,5.6-5.6,5.6h-3.6
				c-0.2,0-0.3-0.1-0.3-0.3V192.3z M161.1,202c2.6,0,4.5-1.9,4.5-4.5s-1.9-4.5-4.5-4.5h-2.4v9H161.1z"/>
			<path fill="#8BC541" d="M174.3,191.8c3.2,0,5.7,2.6,5.7,5.7s-2.5,5.7-5.7,5.7s-5.7-2.5-5.7-5.7S171.1,191.8,174.3,191.8z
				 M174.3,202.1c2.5,0,4.6-2.1,4.6-4.6s-2.1-4.6-4.6-4.6s-4.6,2.1-4.6,4.6S171.8,202.1,174.3,202.1z"/>
			<path fill="#8BC541" d="M181.4,192.4c-0.1-0.2,0.1-0.4,0.3-0.4h0.7c0.1,0,0.3,0.1,0.3,0.2l2.2,8.2h0.1l2.7-8.4
				c0-0.1,0.1-0.2,0.3-0.2h0.3c0.1,0,0.2,0.1,0.3,0.2l2.7,8.4h0.1l2.2-8.2c0-0.1,0.2-0.2,0.3-0.2h0.7c0.2,0,0.4,0.2,0.3,0.4l-3,10.7
				c0,0.1-0.2,0.2-0.3,0.2H191c-0.1,0-0.2-0.1-0.3-0.2l-2.8-8.6h-0.1l-2.7,8.6c0,0.1-0.2,0.2-0.3,0.2h-0.3c-0.1,0-0.3-0.1-0.3-0.2
				L181.4,192.4z"/>
			<path fill="#8BC541" d="M196.7,192.1c0-0.2,0.1-0.3,0.3-0.3h0.4l7.2,8.9l0,0v-8.5c0-0.2,0.1-0.3,0.3-0.3h0.6
				c0.2,0,0.3,0.1,0.3,0.3V203c0,0.2-0.1,0.3-0.3,0.3h-0.3l-7.3-9.1l0,0v8.6c0,0.2-0.1,0.3-0.3,0.3H197c-0.2,0-0.3-0.1-0.3-0.3
				V192.1z"/>
			<path fill="#8BC541" d="M210.6,193h-2.8c-0.2,0-0.3-0.1-0.3-0.3v-0.5c0-0.2,0.1-0.3,0.3-0.3h6.7c0.2,0,0.3,0.1,0.3,0.3v0.5
				c0,0.2-0.1,0.3-0.3,0.3h-2.8v9.8c0,0.2-0.1,0.3-0.3,0.3h-0.6c-0.2,0-0.3-0.1-0.3-0.3V193H210.6z"/>
			<path fill="#8BC541" d="M216.6,192.3c0-0.2,0.1-0.3,0.3-0.3h0.6c0.2,0,0.3,0.1,0.3,0.3v10.5c0,0.2-0.1,0.3-0.3,0.3h-0.6
				c-0.2,0-0.3-0.1-0.3-0.3V192.3z"/>
			<path fill="#8BC541" d="M222.3,192c0-0.1,0.2-0.2,0.3-0.2h0.3c0.1,0,0.2,0.1,0.3,0.2l3.1,8.8c0,0,0,0,0.1,0l3.1-8.8
				c0-0.1,0.2-0.2,0.3-0.2h0.3c0.1,0,0.3,0.1,0.3,0.2l2.1,10.7c0,0.2,0,0.4-0.3,0.4h-0.6c-0.1,0-0.3-0.1-0.3-0.2l-1.4-8.2
				c0,0,0,0-0.1,0l-2.9,8.4c0,0.1-0.2,0.2-0.3,0.2h-0.3c-0.1,0-0.2-0.1-0.3-0.2l-3-8.4c0,0,0,0-0.1,0l-1.4,8.2
				c0,0.1-0.2,0.2-0.3,0.2h-0.6c-0.2,0-0.3-0.2-0.3-0.4L222.3,192z"/>
			<path fill="#8BC541" d="M234.8,192.3c0-0.2,0.1-0.3,0.3-0.3h6.3c0.2,0,0.3,0.1,0.3,0.3v0.5c0,0.2-0.1,0.3-0.3,0.3H236v3.9h4.6
				c0.2,0,0.3,0.1,0.3,0.3v0.5c0,0.2-0.1,0.3-0.3,0.3H236v4.1h5.3c0.2,0,0.3,0.1,0.3,0.3v0.5c0,0.2-0.1,0.3-0.3,0.3H235
				c-0.2,0-0.3-0.1-0.3-0.3v-10.7H234.8z"/>
		</g>
	</g>
	
		<circle fill="none" stroke="#3C4352" stroke-width="2" stroke-linecap="round" stroke-linejoin="round" stroke-miterlimit="10" cx="118" cy="59.9" r="2.8"/>
	<g enable-background="new    ">
		<path fill="#3C4352" d="M133,57.2c0-0.1,0-0.2,0.2-0.2h0.9c0.1,0,0.2,0.1,0.2,0.1l1,3.8l0,0l1.5-3.9c0-0.1,0.1-0.1,0.2-0.1h0.2
			c0.1,0,0.1,0,0.2,0.1l1.5,3.9l0,0l1-3.8c0-0.1,0.1-0.1,0.2-0.1h0.9c0.1,0,0.2,0.1,0.2,0.2l-1.8,6.4c0,0.1-0.1,0.1-0.2,0.1H139
			c-0.1,0-0.1,0-0.2-0.1l-1.7-4.3l0,0l-1.7,4.3c0,0.1-0.1,0.1-0.2,0.1H135c-0.1,0-0.2-0.1-0.2-0.1L133,57.2z"/>
		<path fill="#3C4352" d="M142.1,57.2c0-0.1,0.1-0.2,0.2-0.2h3.9c0.1,0,0.2,0.1,0.2,0.2V58c0,0.1-0.1,0.2-0.2,0.2h-2.8v1.6h2.3
			c0.1,0,0.2,0.1,0.2,0.2v0.8c0,0.1-0.1,0.2-0.2,0.2h-2.3v1.7h2.8c0.1,0,0.2,0.1,0.2,0.2v0.8c0,0.1-0.1,0.2-0.2,0.2h-3.9
			c-0.1,0-0.2-0.1-0.2-0.2V57.2z"/>
		<path fill="#3C4352" d="M147.7,57.2c0-0.1,0.1-0.2,0.2-0.2h2.2c1.1,0,2,0.8,2,1.8c0,0.7-0.6,1.3-1,1.5c0.5,0.2,1.2,0.7,1.2,1.5
			c0,1.1-0.9,1.8-2.1,1.8h-2.3c-0.1,0-0.2-0.1-0.2-0.2L147.7,57.2L147.7,57.2z M149.9,59.8c0.5,0,0.8-0.4,0.8-0.9s-0.3-0.8-0.8-0.8
			h-1v1.7H149.9z M150,62.5c0.5,0,0.9-0.4,0.9-0.9s-0.5-0.8-1-0.8h-1v1.7H150z"/>
		<path fill="#3C4352" d="M153.1,62.7l0.3-0.6c0.1-0.1,0.2-0.1,0.3-0.1c0,0,0.8,0.6,1.4,0.6c0.5,0,0.9-0.3,0.9-0.7
			c0-0.5-0.4-0.8-1.2-1.1c-0.9-0.4-1.8-0.9-1.8-2c0-0.8,0.6-1.8,2.1-1.8c1,0,1.7,0.5,1.9,0.6c0.1,0.1,0.1,0.2,0.1,0.3l-0.4,0.5
			c-0.1,0.1-0.2,0.2-0.3,0.1c-0.1,0-0.8-0.5-1.3-0.5s-0.8,0.4-0.8,0.7c0,0.4,0.4,0.7,1.1,1.1c0.9,0.4,2,0.9,2,2.1
			c0,1-0.8,1.9-2.2,1.9c-1.2,0-1.9-0.6-2.1-0.7C153.1,62.9,153,62.8,153.1,62.7z"/>
		<path fill="#3C4352" d="M158.6,57.2c0-0.1,0.1-0.2,0.2-0.2h0.9c0.1,0,0.2,0.1,0.2,0.2v6.3c0,0.1-0.1,0.2-0.2,0.2h-0.9
			c-0.1,0-0.2-0.1-0.2-0.2V57.2z"/>
		<path fill="#3C4352" d="M162.5,58.1H161c-0.1,0-0.2-0.1-0.2-0.2v-0.8c0-0.1,0.1-0.2,0.2-0.2h4.1c0.1,0,0.2,0.1,0.2,0.2V58
			c0,0.1-0.1,0.2-0.2,0.2h-1.4v5.3c0,0.1-0.1,0.2-0.2,0.2h-0.9c-0.1,0-0.2-0.1-0.2-0.2L162.5,58.1L162.5,58.1z"/>
		<path fill="#3C4352" d="M166.3,57.2c0-0.1,0.1-0.2,0.2-0.2h3.9c0.1,0,0.2,0.1,0.2,0.2V58c0,0.1-0.1,0.2-0.2,0.2h-2.8v1.6h2.3
			c0.1,0,0.2,0.1,0.2,0.2v0.8c0,0.1-0.1,0.2-0.2,0.2h-2.3v1.7h2.8c0.1,0,0.2,0.1,0.2,0.2v0.8c0,0.1-0.1,0.2-0.2,0.2h-3.9
			c-0.1,0-0.2-0.1-0.2-0.2V57.2z"/>
		<path fill="#3C4352" d="M173.9,57.2c0-0.1,0.1-0.2,0.2-0.2h0.9c0.1,0,0.2,0.1,0.2,0.2v3.9c0,0.8,0.5,1.4,1.4,1.4
			c0.8,0,1.4-0.6,1.4-1.4v-3.9c0-0.1,0.1-0.2,0.2-0.2h0.9c0.1,0,0.2,0.1,0.2,0.2v3.9c0,1.4-1.1,2.6-2.6,2.6s-2.6-1.2-2.6-2.6v-3.9
			H173.9z"/>
		<path fill="#3C4352" d="M180.8,57.2c0-0.1,0.1-0.2,0.2-0.2h2.2c1.2,0,2.1,0.9,2.1,2.1c0,1.2-1,2.1-2.1,2.1H182v2.2
			c0,0.1-0.1,0.2-0.2,0.2H181c-0.1,0-0.2-0.1-0.2-0.2V57.2z M183.1,60.1c0.5,0,1-0.4,1-1c0-0.5-0.4-0.9-1-0.9H182v1.9H183.1z"/>
		<path fill="#3C4352" d="M187.3,58.1h-1.4c-0.1,0-0.2-0.1-0.2-0.2v-0.8c0-0.1,0.1-0.2,0.2-0.2h4.1c0.1,0,0.2,0.1,0.2,0.2V58
			c0,0.1-0.1,0.2-0.2,0.2h-1.4v5.3c0,0.1-0.1,0.2-0.2,0.2h-0.9c-0.1,0-0.2-0.1-0.2-0.2L187.3,58.1L187.3,58.1z"/>
		<path fill="#3C4352" d="M191.1,57.2c0-0.1,0.1-0.2,0.2-0.2h0.9c0.1,0,0.2,0.1,0.2,0.2v6.3c0,0.1-0.1,0.2-0.2,0.2h-0.9
			c-0.1,0-0.2-0.1-0.2-0.2V57.2z"/>
		<path fill="#3C4352" d="M194.8,57c0-0.1,0.1-0.1,0.2-0.1h0.2c0.1,0,0.1,0,0.2,0.1l2.1,4.5l0,0l2.1-4.5c0-0.1,0.1-0.1,0.2-0.1h0.2
			c0.1,0,0.2,0.1,0.2,0.1l1.1,6.4c0,0.1,0,0.2-0.2,0.2H200c-0.1,0-0.2-0.1-0.2-0.1l-0.6-3.6l0,0l-1.7,3.7c0,0.1-0.1,0.1-0.2,0.1
			h-0.2c-0.1,0-0.1,0-0.2-0.1l-1.7-3.7l0,0l-0.5,3.6c0,0.1-0.1,0.1-0.2,0.1h-0.9c-0.1,0-0.2-0.1-0.2-0.2L194.8,57z"/>
		<path fill="#3C4352" d="M202.3,57.2c0-0.1,0.1-0.2,0.2-0.2h3.9c0.1,0,0.2,0.1,0.2,0.2V58c0,0.1-0.1,0.2-0.2,0.2h-2.8v1.6h2.3
			c0.1,0,0.2,0.1,0.2,0.2v0.8c0,0.1-0.1,0.2-0.2,0.2h-2.3v1.7h2.8c0.1,0,0.2,0.1,0.2,0.2v0.8c0,0.1-0.1,0.2-0.2,0.2h-3.9
			c-0.1,0-0.2-0.1-0.2-0.2V57.2z"/>
	</g>
	
		<line fill="none" stroke="#8BC541" stroke-width="3" stroke-linecap="round" stroke-linejoin="round" stroke-miterlimit="10" x1="98.5" y1="82" x2="328" y2="82"/>
</g>
</svg>
