<?xml version="1.0" encoding="utf-8"?>
<!-- Generator: Adobe Illustrator 21.0.0, SVG Export Plug-In . SVG Version: 6.00 Build 0)  -->
<svg version="1.1" id="Layer_1" xmlns="http://www.w3.org/2000/svg" xmlns:xlink="http://www.w3.org/1999/xlink" x="0px" y="0px"
	 viewBox="0 0 48 49" style="enable-background:new 0 0 48 49;" xml:space="preserve">
<style type="text/css">
	.st0{fill:#FFFFFF;}
</style>
<path id="Fill-1" class="st0" d="M34.4,34.3c0,0.2-0.1,0.5-0.3,0.6c0,0-3.6,2.4-8.8,2.4c-7.1,0-12.9-5.7-12.9-12.9
	c0-7.2,5.7-12.9,12.9-12.9c3.6,0,6.2,1.3,8.6,3.3c0.3,0.3,0.3,0.7,0,1c-0.3,0.3-0.7,0.7-1,1c-0.3,0.4-0.5,0.3-0.9,0
	c-1.8-1.6-4.4-2.8-6.8-2.8c-5.6,0-9.9,4.7-9.9,10.3c0,5.5,4.3,10.4,9.9,10.4c3.9,0,6.4-1.5,6.4-1.5v-5h-4.1c-0.4,0-0.7-0.3-0.7-0.6
	v-1.3c0-0.4,0.3-0.7,0.7-0.7h6.2c0.4,0,0.6,0.3,0.6,0.7V34.3z M48,24.1C48,10.8,37.3,0,24,0C10.7,0,0,10.8,0,24.1
	c0,13.3,10.7,24.1,24,24.1c4.2,0,8.2-1.1,11.6-3l8,3.4c0.6,0.3,1.2-0.3,1-1l-2.9-7.3C45.6,36.1,48,30.4,48,24.1L48,24.1z"/>
</svg>
