<svg xmlns="http://www.w3.org/2000/svg" viewBox="146.5 107.7 67.9 67.9" enable-background="new 146.5 107.7 67.9 67.9"><path fill="#8CC640" d="M180.5 175.6c-18.7 0-33.9-15.2-33.9-33.9s15.2-33.9 33.9-33.9 33.9 15.2 33.9 33.9-15.2 33.9-33.9 33.9zm0-64.9c-17.1 0-30.9 13.9-30.9 30.9s13.9 30.9 30.9 30.9 30.9-13.9 30.9-30.9-13.9-30.9-30.9-30.9zM190.1 149c-1.1 0-2.3-.2-3.6-.5-4.1-1.2-5.2-5.5-5.6-7.3l-.1-.3h-.8c0 .1 0 .2-.1.3-.5 1.8-1.5 6.1-5.6 7.3-4.3 1.3-8.4.2-10.7-2.8-1.2-1.6-1.7-3.6-2-5.1-.1-.5-.2-1.1-.3-1.2-.4-.6-.7-.9-.7-.9l-.3-.4c-.1-.3-.5-1.5 0-2.4.2-.4.6-.7 1-.8.8-.2 3.5-.5 5.1-.5.6 0 1 0 1.3.1.4.1 1.7.3 3.3.5 3 .4 6.8 1 8.1 1.3.6.1 2.1.1 2.7 0 1.3-.3 5.1-.8 8.1-1.3 1.6-.2 2.9-.4 3.3-.5.3-.1.7-.1 1.3-.1 1.7 0 4.3.2 5.1.5.4.1.8.4 1 .8.4.9.1 2 0 2.4-.1.2-.2.3-.3.4 0 0-.3.3-.7.9-.1.2-.2.8-.3 1.2-.3 1.4-.8 3.5-2 5.1-1.7 2.1-4.3 3.3-7.2 3.3zm-9.7-10.2c1.1 0 1.8.3 2.1.9.1.2.2.5.3 1 .4 1.6 1.2 5 4.2 5.9 3.5 1.1 6.7.2 8.5-2.1.9-1.2 1.3-3 1.6-4.3.2-.8.3-1.4.5-1.8.3-.6.7-1 .9-1.3l.1-.5c-.8-.2-2.9-.4-4.3-.4h-.9c-.4.1-1.7.3-3.4.5-2.8.4-6.7.9-8 1.2-.6.1-1.4.2-1.8.2-.4 0-1.2 0-1.8-.2-1.3-.3-5.1-.8-8-1.2-1.7-.2-3-.4-3.4-.5h-.9c-1.4 0-3.5.2-4.3.4 0 .1 0 .3.1.5.2.2.6.7.9 1.3.2.4.3 1 .5 1.8.3 1.3.7 3.1 1.6 4.3 1.8 2.3 5 3.1 8.5 2.1 3-.9 3.8-4.3 4.2-5.9.1-.5.2-.8.3-1 .8-.6 1.5-.9 2.5-.9zM190.1 145.5c-.8 0-1.7-.1-2.5-.4-1.9-.6-2.7-2.7-3.2-4.8l-.1-.5c0-.1 0-.3.1-.4s.2-.2.3-.2c1.7-.3 3.9-.6 5.6-.8h.1c1.9-.3 3-.4 3.5-.5h1.8c.2 0 .3.1.4.2s.1.3.1.4c-.1.4-.2.8-.3 1.3-.3 1.2-.6 2.8-1.4 3.8-1 1.2-2.5 1.9-4.4 1.9zm-4.8-5.4c.5 1.9 1.1 3.6 2.5 4.1 2.5.7 4.7.3 5.8-1.2.6-.8.9-2.2 1.2-3.3.1-.3.1-.6.2-.8h-1c-.4.1-1.4.2-3.5.5h-.1c-1.5.2-3.5.5-5.1.7zm-14.5 5.4c-1.8 0-3.4-.7-4.3-1.9-.7-.9-1.1-2.5-1.3-3.7-.1-.5-.2-.9-.3-1.3 0-.1 0-.3.1-.4.1-.1.2-.2.4-.2.7 0 1.4-.1 1.8 0 .4.1 1.6.2 3.5.5h.2c1.7.2 3.9.5 5.6.8.1 0 .3.1.3.2s.1.3.1.4l-.1.5c-.5 2.2-1.3 4.2-3.2 4.8-1.2.2-2 .3-2.8.3zm-4.9-6.7c.1.2.1.5.2.8.2 1.1.6 2.6 1.2 3.3 1.1 1.5 3.3 1.9 5.8 1.2 1.4-.4 2.1-2.2 2.5-4.1-1.6-.2-3.5-.5-5-.7h-.2c-2.1-.3-3.1-.4-3.5-.5h-1z"/></svg>