<svg xmlns="http://www.w3.org/2000/svg" viewBox="146.5 107.7 67.9 67.9" enable-background="new 146.5 107.7 67.9 67.9"><path fill="#8CC640" d="M180.5 175.6c-18.7 0-33.9-15.2-33.9-33.9s15.2-33.9 33.9-33.9 33.9 15.2 33.9 33.9-15.2 33.9-33.9 33.9zm0-64.9c-17.1 0-30.9 13.9-30.9 30.9s13.9 30.9 30.9 30.9c17.1 0 30.9-13.9 30.9-30.9s-13.9-30.9-30.9-30.9zM183.8 154.9h-6.8c-1.1 0-2.1-.9-2.1-2.1v-.3l.6-2h-8.5c-1.7 0-3.1-1.4-3.1-3.1v-15.9c0-1.7 1.4-3.1 3.1-3.1h26.9c1.7 0 3.1 1.4 3.1 3.1v15.9c0 1.7-1.4 3.1-3.1 3.1h-8.7l.6 2v.3c.1 1.2-.8 2.1-2 2.1zm-6.8-2l6.8.1-1-3c-.1-.3 0-.6.1-.9.2-.3.5-.4.8-.4h10c.6 0 1.1-.5 1.1-1.1v-15.9c0-.6-.5-1.1-1.1-1.1h-26.7c-.6 0-1.1.5-1.1 1.1v15.9c0 .6.5 1.1 1.1 1.1h10c.3 0 .6.2.8.4.2.3.2.6.1.9l-.9 2.9zM192.2 146.6h-23.5c-.3 0-.5-.2-.5-.5v-13.4c0-.3.2-.5.5-.5h23.5c.3 0 .5.2.5.5v13.299999999999999c0 .4-.2.6-.5.6zm-23-1h22.5v-12.4h-22.5v12.4z"/></svg>