<svg xmlns="http://www.w3.org/2000/svg" viewBox="146.5 107.7 67.9 67.9" enable-background="new 146.5 107.7 67.9 67.9"><path fill="#8CC640" d="M180.5 175.6c-18.7 0-33.9-15.2-33.9-33.9s15.2-33.9 33.9-33.9 33.9 15.2 33.9 33.9-15.2 33.9-33.9 33.9zm0-64.9c-17.1 0-30.9 13.9-30.9 30.9s13.9 30.9 30.9 30.9 30.9-13.9 30.9-30.9-13.9-30.9-30.9-30.9zM180.5 159.7c-.4 0-.7-.2-.9-.5l-15-26.6c-.2-.3-.2-.8.1-1.1 3.6-5.2 9.6-8.2 15.8-8.2 6.3 0 12.2 3.1 15.8 8.2.2.3.2.7.1 1.1l-15 26.6c-.3.3-.6.5-.9.5zm-13.9-27.6l13.8 24.5 13.8-24.5c-3.3-4.3-8.4-6.9-13.8-6.9s-10.5 2.6-13.8 6.9zM193.8 135.7c-.1 0-.3-.1-.4-.2-.3-.3-.5-.8-.6-1.3-.1-.4-.3-.9-.5-1-.2-.2-.5-.2-.9-.3-.5-.1-1-.1-1.4-.4-.4-.3-.6-.7-.8-1.2-.1-.3-.3-.7-.5-.8s-.6-.1-.9-.1c-.5 0-1 .1-1.4-.1-.4-.2-.7-.6-1-1-.2-.3-.5-.6-.7-.7-.2-.1-.6.1-.9.2-.4.2-.9.3-1.4.3-.5-.1-.8-.4-1.2-.6-.3-.2-.6-.5-.9-.5-.2 0-.5.2-.9.5s-.8.6-1.2.6c-.5.1-1-.1-1.4-.3-.3-.1-.7-.3-.9-.2-.2.1-.5.4-.7.7-.3.4-.6.8-1 .9-.4.2-.9.1-1.4.1-.4 0-.8-.1-.9 0-.2.1-.4.5-.5.8-.2.4-.4.9-.8 1.2-.4.3-.9.4-1.4.4-.4 0-.7.1-.9.2-.2.2-.3.6-.5 1-.2.5-.3 1-.6 1.3-.2.2-.5.2-.7 0-.2-.2-.2-.5 0-.7.2-.2.3-.6.4-1 .2-.5.3-1.1.7-1.5.4-.4 1-.4 1.5-.5.3 0 .7-.1.9-.2.2-.1.3-.5.5-.8.2-.5.4-1 .9-1.3.5-.3 1-.2 1.6-.2.3 0 .7.1.9 0 .2-.1.4-.4.6-.6.3-.4.7-.9 1.2-1 .5-.1 1.1.1 1.5.2.3.1.7.3.9.2.2 0 .5-.2.8-.4.4-.3.9-.7 1.4-.7.6 0 1 .4 1.5.7.3.2.6.4.8.4.2 0 .6-.1.9-.2.5-.2 1-.4 1.5-.2s.9.6 1.2 1c.2.3.4.6.6.6.2.1.6.1.9 0 .5 0 1.1-.1 1.6.2.5.3.7.8.9 1.3.1.3.3.7.5.8.2.1.5.2.9.2.5.1 1.1.1 1.5.5.4.4.6.9.7 1.5.1.4.2.8.4 1 .2.2.2.5 0 .7-.1.4-.2.5-.4.5zM176.1 141.3c-2.5 0-4.5-2-4.5-4.5s2-4.5 4.5-4.5 4.5 2 4.5 4.5-2.1 4.5-4.5 4.5zm0-7c-1.4 0-2.5 1.1-2.5 2.5s1.1 2.5 2.5 2.5 2.5-1.1 2.5-2.5-1.2-2.5-2.5-2.5zM177.5 154.5c-.4 0-.7-.2-.9-.5l-3.6-6.4c-.2-.4-.1-.9.2-1.2.9-.8 2-1.2 3.2-1.2 2.6 0 4.8 2.1 4.8 4.8 0 2.1-1.4 3.9-3.4 4.6-.1-.1-.2-.1-.3-.1zm-2.3-7.1l2.7 4.8c.8-.5 1.3-1.4 1.3-2.3 0-1.5-1.2-2.8-2.8-2.8-.4 0-.8.1-1.2.3zM187.1 148h-.2c-3-.7-5.1-3.3-5.1-6.4 0-3.6 3-6.6 6.6-6.6 1.8 0 3.5.7 4.7 2 .3.3.4.8.2 1.2l-5.3 9.4c-.2.2-.6.4-.9.4zm1.2-11.1c-2.5 0-4.6 2.1-4.6 4.6 0 1.9 1.1 3.6 2.9 4.3l4.5-8c-.8-.6-1.7-.9-2.8-.9z"/></svg>