<svg xmlns="http://www.w3.org/2000/svg" viewBox="146.5 107.7 67.9 67.9" enable-background="new 146.5 107.7 67.9 67.9"><path fill="#8CC640" d="M180.5 175.6c-18.7 0-33.9-15.2-33.9-33.9s15.2-33.9 33.9-33.9 33.9 15.2 33.9 33.9-15.2 33.9-33.9 33.9zm0-64.9c-17.1 0-30.9 13.9-30.9 30.9s13.9 30.9 30.9 30.9c17.1 0 30.9-13.9 30.9-30.9s-13.9-30.9-30.9-30.9zM160.9 140.7h39.1v2h-39.1zM179.5 122.1h2v39.1h-2z"/><circle fill="#fff" cx="180.5" cy="141.7" r="16.4"/><path fill="#8CC640" d="M180.4 142.7c-.4 0-.7-.2-.9-.6l-6.9-14.9c-.2-.5 0-1.1.5-1.3.5-.2 1.1 0 1.3.5l6.9 14.9c.2.5 0 1.1-.5 1.3-.1 0-.2.1-.4.1zM180.4 142.7c-.5 0-.9-.4-1-.9-.1-.5.3-1.1.9-1.1l10.7-1.4c.6-.1 1.1.3 1.1.9.1.5-.3 1.1-.9 1.1l-10.7 1.4h-.1z"/><circle fill="#8CC640" cx="180.5" cy="141.7" r="2.6"/><path fill="#8CC640" d="M171.5 158.6c-.1 0-.2 0-.2-.1-.2-.1-.3-.4-.2-.7l8.9-16.4c.1-.2.4-.3.7-.2.2.1.3.4.2.7l-8.9 16.4c-.1.2-.3.3-.5.3z"/></svg>