<svg xmlns="http://www.w3.org/2000/svg" viewBox="146.5 107.7 67.9 67.9" enable-background="new 146.5 107.7 67.9 67.9"><path fill="#8CC640" d="M180.3 157.8c-.3 0-.6-.1-.8-.4-.3-.4-10.5-12.4-10.3-20.4.2-8.4 7.3-11.1 10.8-11.1h.7c3.3 0 10.6 2.8 10.7 11.1.3 7.9-9.9 20-10.4 20.5-.1.2-.4.3-.7.3zm-.3-29.9c-1.8 0-8.6 1.6-8.8 9.2-.2 6.1 6.8 15.3 9.1 18.2 2.4-2.9 9.4-12.2 9.1-18.2-.1-7.6-7-9.2-8.7-9.2h-.7zm.3 15.1c-3.3 0-5.9-2.7-5.9-5.9 0-3.3 2.7-5.9 5.9-5.9 3.3 0 5.9 2.7 5.9 5.9.1 3.2-2.6 5.9-5.9 5.9zm0-9.9c-2.2 0-3.9 1.8-3.9 3.9 0 2.2 1.8 3.9 3.9 3.9 2.2 0 3.9-1.8 3.9-3.9.1-2.1-1.7-3.9-3.9-3.9z"/><path fill="#8CC640" d="M180.5 175.6c-18.7 0-33.9-15.2-33.9-33.9s15.2-33.9 33.9-33.9 33.9 15.2 33.9 33.9-15.2 33.9-33.9 33.9zm0-64.9c-17.1 0-30.9 13.9-30.9 30.9s13.9 30.9 30.9 30.9c17.1 0 30.9-13.9 30.9-30.9s-13.9-30.9-30.9-30.9z"/></svg>