<svg xmlns="http://www.w3.org/2000/svg" viewBox="0 0 30 27.708" enable-background="new 0 0 30 27.708"><path d="M30 8.855c0 8.166-5.119 15.247-8.267 18.199-.981.885-1.77.789-2.359.196l-1.378-1.378c-.493-.493-.392-1.474.589-2.359.985-.885 6.1-5.215 6.1-12.396-.393.096-.785.096-1.178.096-3.052 0-5.611-2.555-5.611-5.607.001-3.147 2.56-5.606 5.612-5.606 3.148 0 6.492 1.77 6.492 8.855zm-17.711 0c0 8.166-5.115 15.247-8.263 18.199-.985.885-1.77.789-2.359.196l-1.377-1.377c-.493-.493-.397-1.474.589-2.359s6.1-5.215 6.1-12.396c-.393.096-.789.096-1.182.096-3.048 0-5.607-2.555-5.607-5.607 0-3.148 2.559-5.607 5.607-5.607 3.148 0 6.492 1.77 6.492 8.855z"/></svg>