<?xml version="1.0" encoding="utf-8"?>
<!-- Generator: Adobe Illustrator 19.2.0, SVG Export Plug-In . SVG Version: 6.00 Build 0)  -->
<svg version="1.1" id="Layer_1" xmlns="http://www.w3.org/2000/svg" xmlns:xlink="http://www.w3.org/1999/xlink" x="0px" y="0px"
	 viewBox="0 0 132 122" style="enable-background:new 0 0 132 122;" xml:space="preserve">
<style type="text/css">
	.st0{fill:#8CC640;}
	.st1{fill:#3B4251;}
</style>
<g>
	<path class="st0" d="M75.4,58.1c-11.5,0-20.9-9.4-20.9-20.9s9.4-20.9,20.9-20.9c0.9,0,1.6,0.7,1.6,1.6v38.6
		C77,57.4,76.3,58.1,75.4,58.1z M73.8,19.5c-9,0.8-16.1,8.4-16.1,17.6S64.8,54,73.8,54.8V19.5z M90.7,38.8H75.4
		c-0.9,0-1.6-0.7-1.6-1.6s0.7-1.6,1.6-1.6h15.3c0.9,0,1.6,0.7,1.6,1.6S91.6,38.8,90.7,38.8z M28.9,58.7c-1.6,0-3.2-0.6-4.3-1.8
		c-2.4-2.4-2.4-6.3,0-8.7l14-14.1l0.2-0.2c1.2-1.2,2.8-1.9,4.5-1.9H64c3.4,0,6.1,2.8,6.1,6.2c0,3.4-2.8,6.2-6.1,6.2H45.8L33.3,56.9
		C32.1,58,30.6,58.7,28.9,58.7z M43.3,34.1c-1.1,0-2.1,0.5-2.9,1.3l-0.1,0.1l-0.1,0.1l-14,14.1c-1.6,1.6-1.6,4.1,0,5.7
		c1.5,1.5,4.1,1.5,5.7,0l12.9-12.9c0.2-0.2,0.5-0.3,0.8-0.3H64c2.2,0,4-1.8,4-4c0-2.2-1.8-4-4-4L43.3,34.1L43.3,34.1z M50,122
		c-0.9,0-1.6-0.7-1.6-1.6V68.8c0-1.9-1.6-3.5-3.5-3.5H11.8c-1.9,0-3.5,1.6-3.5,3.5v51.6c0,0.9-0.7,1.6-1.6,1.6s-1.6-0.7-1.6-1.6
		V68.8c0-3.7,3-6.7,6.7-6.7h33.1c3.7,0,6.7,3,6.7,6.7v51.6C51.6,121.3,50.9,122,50,122z"/>
	<path class="st1" d="M103.5,63c-0.5,0-1-0.2-1.3-0.6c-0.5-0.7-0.4-1.7,0.3-2.3c7.4-5.6,11.6-14.1,11.6-23.4
		c0-9.3-4.2-17.8-11.6-23.4c-0.7-0.5-0.9-1.5-0.3-2.3c0.5-0.7,1.5-0.9,2.3-0.3c8.2,6.2,12.9,15.7,12.9,25.9
		c0,10.3-4.7,19.7-12.9,25.9C104.2,62.9,103.8,63,103.5,63z M113.9,73.4c-0.5,0-0.9-0.2-1.2-0.6c-0.6-0.7-0.5-1.7,0.2-2.3
		c10.1-8.4,15.9-20.7,15.9-33.8c0-13.1-5.8-25.5-15.9-33.8c-0.7-0.6-0.8-1.6-0.2-2.3c0.6-0.7,1.6-0.8,2.3-0.2
		c10.9,9,17.1,22.2,17.1,36.3c0,14.1-6.2,27.3-17.1,36.3C114.6,73.3,114.3,73.4,113.9,73.4z M94.7,54.2c-0.5,0-1.1-0.3-1.4-0.8
		c-0.5-0.8-0.2-1.8,0.5-2.2c5.1-3.1,8.1-8.5,8.1-14.5c0-5.9-3-11.3-8.1-14.5c-0.8-0.5-1-1.5-0.5-2.2c0.5-0.8,1.5-1,2.2-0.5
		c6,3.7,9.6,10.2,9.6,17.2s-3.6,13.5-9.6,17.2C95.3,54.1,95,54.2,94.7,54.2L94.7,54.2z"/>
	<path class="st0" d="M41.8,65.3c-0.9,0-1.6-0.7-1.6-1.6v-7.1c0-5.5-4.4-9.9-9.9-9.9h-3.1c-5.5,0-9.9,4.5-9.9,9.9v7.1
		c0,0.9-0.7,1.6-1.6,1.6S14,64.6,14,63.7v-7.1c0-7.3,5.9-13.2,13.1-13.2h3.1c7.2,0,13.1,5.9,13.1,13.2v7.1
		C43.4,64.6,42.7,65.3,41.8,65.3z M62.6,40.2c-0.6,0-1.2-0.3-1.7-0.7c-0.9-0.9-0.9-2.5,0-3.4c0.9-0.9,2.5-0.9,3.4,0
		c0.9,0.9,0.9,2.5,0,3.4C63.9,39.9,63.3,40.2,62.6,40.2z M62.6,37.5c0,0-0.1,0-0.2,0.1c-0.1,0.1-0.1,0.3,0,0.4
		c0.1,0.1,0.2,0.1,0.4,0c0.1-0.1,0.1-0.3,0-0.4C62.8,37.5,62.7,37.5,62.6,37.5z M29.7,54.2c-0.6,0-1.2-0.3-1.7-0.7
		c-0.5-0.5-0.7-1.1-0.7-1.7s0.3-1.2,0.7-1.7c0.9-0.9,2.5-0.9,3.4,0c0.9,0.9,0.9,2.5,0,3.4C31,53.9,30.3,54.2,29.7,54.2z M29.7,51.5
		c0,0-0.1,0-0.2,0.1c-0.1,0.1-0.1,0.1-0.1,0.2s0,0.1,0.1,0.2c0.1,0.1,0.2,0.1,0.4,0c0.1-0.1,0.1-0.3,0-0.4
		C29.8,51.5,29.8,51.5,29.7,51.5z M54.3,122H1.6c-0.9,0-1.6-0.7-1.6-1.6s0.7-1.6,1.6-1.6h52.7c0.9,0,1.6,0.7,1.6,1.6
		S55.2,122,54.3,122z M19.1,108.2H6.8c-0.6,0-1.1-0.5-1.1-1.1s0.5-1.1,1.1-1.1h12.3c3.3,0,6-2.7,6-6v-17c0-3.3-2.7-6-6-6H6.8
		c-0.6,0-1.1-0.5-1.1-1.1c0-0.6,0.5-1.1,1.1-1.1h12.3c4.5,0,8.2,3.7,8.2,8.2v17C27.3,104.6,23.6,108.2,19.1,108.2z"/>
</g>
</svg>
