<?xml version="1.0" encoding="utf-8"?>
<!-- Generator: Adobe Illustrator 19.2.0, SVG Export Plug-In . SVG Version: 6.00 Build 0)  -->
<svg version="1.1" id="Layer_1" xmlns="http://www.w3.org/2000/svg" xmlns:xlink="http://www.w3.org/1999/xlink" x="0px" y="0px"
	 viewBox="0 0 48 48" style="enable-background:new 0 0 48 48;" xml:space="preserve">
<style type="text/css">
	.st0{fill:#EAEDF1;}
	.st1{fill:#3D4351;}
</style>
<circle class="st0" cx="24" cy="24" r="24"/>
<path class="st1" d="M37,26H12c-1.1,0-2-0.9-2-2l0,0c0-1.1,0.9-2,2-2h25V26z"/>
<path class="st1" d="M29.2,13.9c-0.8-0.8-1.9-0.8-2.7-0.1c-0.8,0.8-0.8,2.1,0,2.9l7.2,7.2l-7.2,7.2c-0.8,0.8-0.9,2.2,0,2.9
	c0.8,0.7,2,0.7,2.7-0.1l9.1-9.4c0.4-0.4,0.4-1,0-1.4L29.2,13.9z"/>
</svg>
