<?xml version="1.0" encoding="utf-8"?>
<!-- Generator: Adobe Illustrator 19.2.0, SVG Export Plug-In . SVG Version: 6.00 Build 0)  -->
<svg version="1.1" id="Layer_1" xmlns="http://www.w3.org/2000/svg" xmlns:xlink="http://www.w3.org/1999/xlink" x="0px" y="0px"
	 viewBox="0 0 32 32" style="enable-background:new 0 0 32 32;" xml:space="preserve">
<style type="text/css">
	.st0{opacity:0.5;}
	.st1{fill:#3D4350;}
</style>
<g class="st0">
	<path class="st1" d="M18.6,14.8l-9.9,9.9c-0.4,0.4-1,0.4-1.4,0l0,0c-0.4-0.4-0.4-1,0-1.4l9.9-9.9L18.6,14.8z"/>
</g>
<g>
	<path class="st1" d="M21.7,5.3c0.2,0,0.5,0,0.7,0L21,6.8c-0.6,0.6-0.9,1.3-0.9,2.1c0,0.8,0.3,1.6,0.9,2.1c0.6,0.6,1.3,0.9,2.1,0.9
		c0.8,0,1.6-0.3,2.1-0.9l1.4-1.4c0.2,1.5-0.3,3.1-1.4,4.2c-0.9,0.9-2.2,1.5-3.5,1.5c-0.3,0-0.6,0-0.9-0.1l-1-0.2l-0.7,0.7L8.5,26.3
		c-0.3,0.3-0.6,0.4-1,0.4s-0.8-0.2-1-0.4l-0.8-0.8c-0.6-0.6-0.6-1.5,0-2.1l10.5-10.5l0.7-0.7l-0.2-1c-0.3-1.6,0.2-3.3,1.4-4.4
		C19.1,5.8,20.4,5.3,21.7,5.3 M21.7,3.3c-1.8,0-3.6,0.7-4.9,2c-1.7,1.7-2.3,4-1.9,6.2L4.3,22c-1.4,1.4-1.4,3.5,0,4.9l0.8,0.8
		c0.7,0.7,1.6,1,2.4,1s1.8-0.3,2.4-1l10.5-10.5c0.4,0.1,0.8,0.1,1.2,0.1c1.8,0,3.6-0.7,4.9-2c2.5-2.5,2.7-6.4,0.7-9.1l-3.5,3.5
		C23.5,9.9,23.2,10,23,10c-0.3,0-0.5-0.1-0.7-0.3c-0.4-0.4-0.4-1,0-1.4l3.5-3.5C24.7,3.8,23.2,3.3,21.7,3.3L21.7,3.3z"/>
</g>
</svg>
