<?xml version="1.0" encoding="utf-8"?>
<!-- Generator: Adobe Illustrator 19.2.0, SVG Export Plug-In . SVG Version: 6.00 Build 0)  -->
<svg version="1.1" id="Layer_1" xmlns="http://www.w3.org/2000/svg" xmlns:xlink="http://www.w3.org/1999/xlink" x="0px" y="0px"
	 viewBox="0 0 84 84" style="enable-background:new 0 0 84 84;" xml:space="preserve">
<style type="text/css">
	.st0{fill:#FFFFFF;}
	.st1{fill:#5A7CCC;}
	.st2{opacity:0.5;}
</style>
<g>
	<path class="st0" d="M42,0L42,0C18.8,0,0,18.8,0,42s18.8,42,42,42s42-18.8,42-42S65.2,0,42,0"/>
	<path class="st1" d="M42,4c21,0,38,17,38,38S63,80,42,80S4,63,4,42S21,4,42,4 M42,0C18.8,0,0,18.8,0,42s18.8,42,42,42
		s42-18.8,42-42S65.2,0,42,0L42,0z"/>
	<g>
		<g>
			<path class="st1" d="M59,23c1.1,0,2,0.9,2,2v33c0,1.1-0.9,2-2,2H25c-1.1,0-2-0.9-2-2V25c0-1.1,0.9-2,2-2H59 M59,21H25
				c-2.2,0-4,1.8-4,4v33c0,2.2,1.8,4,4,4h34c2.2,0,4-1.8,4-4V25C63,22.8,61.2,21,59,21L59,21z"/>
		</g>
		<g>
			<path class="st1" d="M39,28v10H28V28H39 M41,26H26v14h15V26L41,26z"/>
		</g>
		<g>
			<rect x="30" y="32" class="st1" width="1" height="6"/>
		</g>
		<g>
			<rect x="33" y="34.1" class="st1" width="1" height="5.2"/>
		</g>
		<g>
			<rect x="36" y="36" class="st1" width="1" height="2"/>
		</g>
		<g>
			<rect x="29" y="49" class="st1" width="9" height="1"/>
		</g>
		<g>
			<rect x="29" y="52" class="st1" width="9" height="1"/>
		</g>
		<g>
			<rect x="46" y="35" class="st1" width="8" height="1"/>
		</g>
		<g>
			<rect x="46" y="32" class="st1" width="4" height="1"/>
		</g>
		<g class="st2">
			<rect x="27" y="27" class="st1" width="13" height="3"/>
		</g>
		<g>
			<path class="st1" d="M39,45v10H28V45H39 M41,43H26v14h15V43L41,43z"/>
		</g>
		<g class="st2">
			<rect x="27" y="44" class="st1" width="13" height="3"/>
		</g>
		<g class="st2">
			<rect x="44" y="27" class="st1" width="13" height="3"/>
		</g>
		<g>
			<path class="st1" d="M56,45v10H45V45H56 M58,43H43v14h15V43L58,43z"/>
		</g>
		<g class="st2">
			<rect x="44" y="44" class="st1" width="13" height="3"/>
		</g>
		<g>
			<path class="st1" d="M56,28v10H45V28H56 M58,26H43v14h15V26L58,26z"/>
		</g>
		<g>
			<path class="st1" d="M55.1,53.8h-1c0-2.4-1.5-4.1-3.6-4.1c-2.5,0-3.4,2.2-3.4,4.1h-1c0-3,1.8-5.1,4.4-5.1
				C53.2,48.7,55.1,50.8,55.1,53.8z"/>
		</g>
		<g>
			<circle class="st1" cx="50.5" cy="53.5" r="0.6"/>
		</g>
	</g>
</g>
</svg>
