<?xml version="1.0" encoding="utf-8"?>
<!-- Generator: Adobe Illustrator 19.2.0, SVG Export Plug-In . SVG Version: 6.00 Build 0)  -->
<svg version="1.1" id="Layer_1" xmlns="http://www.w3.org/2000/svg" xmlns:xlink="http://www.w3.org/1999/xlink" x="0px" y="0px"
	 viewBox="0 0 2560 240" style="enable-background:new 0 0 2560 240;" xml:space="preserve">
<style type="text/css">
	.st0{opacity:0.1;fill:#FFFFFF;enable-background:new    ;}
</style>
<polygon class="st0" points="450.1,128.1 571.8,102.8 680.9,128.1 971.4,81 1110.3,93.6 1319.3,133.8 1592.5,91.3 1686.7,107.4 
	1968,155.6 2134.4,133.8 2211.4,146.4 2306.5,147.6 2380,185.1 2458,212.1 2560,240 0,240 124,218 216,177.3 301,175 "/>
<polygon class="st0" points="2280.1,218.6 2356,220.8 2481.5,240 136.1,240 271.1,216.6 391.1,210.6 488.1,192 573.1,190.8 
	641.9,178.6 790.6,199.7 1041.9,152.9 1126.1,137.3 1370.2,178.6 1556.9,146.5 1681,131.3 1940.6,181 2038.1,166.5 2159.5,184.1 "/>
</svg>
