<?xml version="1.0" encoding="utf-8"?>
<!-- Generator: Adobe Illustrator 19.2.0, SVG Export Plug-In . SVG Version: 6.00 Build 0)  -->
<svg version="1.1" id="Layer_1" xmlns="http://www.w3.org/2000/svg" xmlns:xlink="http://www.w3.org/1999/xlink" x="0px" y="0px"
	 viewBox="0 0 84 84" style="enable-background:new 0 0 84 84;" xml:space="preserve">
<style type="text/css">
	.st0{fill:#FFFFFF;}
	.st1{fill:#8DC63F;}
	.st2{opacity:0.5;fill:#8DC63F;enable-background:new    ;}
</style>
<g>
	<path class="st0" d="M42,0L42,0C18.8,0,0,18.8,0,42s18.8,42,42,42s42-18.8,42-42S65.2,0,42,0"/>
	<path class="st1" d="M42,4c21,0,38,17,38,38S63,80,42,80S4,63,4,42S21,4,42,4 M42,0C18.8,0,0,18.8,0,42s18.8,42,42,42
		s42-18.8,42-42S65.2,0,42,0L42,0z"/>
	<g>
		<path class="st1" d="M52,22c0.6,0,1.2,0.1,1.8,0.2l-2.7,2.7c-1.9,1.9-2.1,5-0.3,7c0.9,1.1,2.3,1.7,3.7,1.7c1.3,0,2.6-0.5,3.5-1.5
			l2.8-2.8c0.6,2.9-0.3,6-2.5,8.1c-1.7,1.7-4,2.6-6.4,2.6c-0.6,0-1.3-0.1-1.9-0.2l-1.1-0.2l-0.8,0.8L30.4,58.2
			c-0.8,0.8-1.8,1.2-2.8,1.2c-1.1,0-2.1-0.4-2.8-1.2c-1.6-1.6-1.6-4.1,0-5.7l17.9-17.9l0.8-0.8l-0.2-1.1c-0.6-3,0.3-6.1,2.4-8.2
			C47.3,22.9,49.6,22,52,22 M52,20c-2.8,0-5.6,1.1-7.8,3.2c-2.7,2.7-3.7,6.5-3,10L23.4,51.1c-2.3,2.3-2.3,6.1,0,8.5
			c1.2,1.2,2.7,1.8,4.2,1.8c1.5,0,3.1-0.6,4.2-1.8l17.9-17.9c0.8,0.2,1.5,0.2,2.3,0.2c2.8,0,5.6-1.1,7.8-3.2
			c3.6-3.6,4.2-8.9,1.8-13.1l-5,5c-0.6,0.6-1.4,0.9-2.1,0.9c-0.8,0-1.6-0.3-2.2-1c-1.1-1.2-0.9-3.1,0.2-4.2l4.9-4.9
			C55.7,20.5,53.8,20,52,20L52,20z"/>
		<path class="st2" d="M47.4,38.4L29,56.8c-0.8,0.8-2,0.8-2.8,0l0,0c-0.8-0.8-0.8-2,0-2.8l18.4-18.4L47.4,38.4z"/>
	</g>
</g>
</svg>
