<?xml version="1.0" encoding="utf-8"?>
<!-- Generator: Adobe Illustrator 19.2.0, SVG Export Plug-In . SVG Version: 6.00 Build 0)  -->
<svg version="1.1" id="Layer_1" xmlns="http://www.w3.org/2000/svg" xmlns:xlink="http://www.w3.org/1999/xlink" x="0px" y="0px"
	 viewBox="0 0 32 32" style="enable-background:new 0 0 32 32;" xml:space="preserve">
<style type="text/css">
	.st0{fill:#3D4350;}
	.st1{opacity:0.5;}
</style>
<path class="st0" d="M16,12c-2.2,0-4,1.8-4,4s1.8,4,4,4s4-1.8,4-4S18.2,12,16,12z M16,18c-1.1,0-2-0.9-2-2s0.9-2,2-2s2,0.9,2,2
	S17.1,18,16,18z"/>
<g class="st1">
	<path class="st0" d="M16,10c3.3,0,6,2.7,6,6s-2.7,6-6,6s-6-2.7-6-6S12.7,10,16,10 M16,9c-3.9,0-7,3.1-7,7s3.1,7,7,7s7-3.1,7-7
		S19.9,9,16,9L16,9z"/>
</g>
<path class="st0" d="M16,4c0.6,0,1,0.4,1,1v1.5V8l1.4,0.4c0.4,0.1,0.9,0.3,1.3,0.5L21,9.6l1-1l1-1c0.3-0.3,0.6-0.3,0.7-0.3
	s0.5,0,0.7,0.3c0.4,0.4,0.4,1,0,1.4l-1,1l-1,1l0.7,1.3c0.2,0.4,0.4,0.9,0.5,1.3L24,15h1.5H27c0.6,0,1,0.4,1,1s-0.4,1-1,1h-1.5H24
	l-0.4,1.4c-0.1,0.4-0.3,0.9-0.5,1.3L22.4,21l1,1l1,1c0.4,0.4,0.4,1,0,1.4c-0.3,0.3-0.6,0.3-0.7,0.3s-0.5,0-0.7-0.3l-1-1l-1-1
	l-1.3,0.7c-0.4,0.2-0.9,0.4-1.3,0.5L17,24.1v1.5V27c0,0.6-0.4,1-1,1s-1-0.4-1-1v-1.5V24l-1.4-0.4c-0.4-0.1-0.9-0.3-1.3-0.5L11,22.4
	l-1,1l-1,1c-0.3,0.3-0.6,0.3-0.7,0.3c-0.2,0-0.5,0-0.7-0.3c-0.4-0.4-0.4-1,0-1.4l1-1l1-1l-0.7-1.3c-0.2-0.4-0.4-0.9-0.5-1.3L7.9,17
	H6.5H5c-0.6,0-1-0.4-1-1s0.4-1,1-1h1.5H8l0.4-1.4c0.1-0.4,0.3-0.9,0.5-1.3L9.6,11l-1-1l-1-1C7.3,8.7,7.2,8.4,7.2,8.2s0-0.5,0.3-0.7
	c0.3-0.3,0.6-0.3,0.7-0.3c0.2,0,0.5,0,0.7,0.3l1,1l1,1l1.3-0.7c0.4-0.2,0.9-0.4,1.3-0.5L15,7.9V6.5V5C15,4.4,15.4,4,16,4 M16,2L16,2
	c-1.7,0-3,1.3-3,3v1.5c-0.6,0.2-1.1,0.4-1.6,0.7l-1-1c-0.6-0.7-1.4-1-2.2-1S6.7,5.5,6.1,6.1l0,0c-1.2,1.2-1.2,3.1,0,4.2l1,1
	c-0.3,0.5-0.5,1.1-0.7,1.6H5c-1.7,0-3,1.3-3,3l0,0c0,1.7,1.3,3,3,3h1.5c0.2,0.6,0.4,1.1,0.7,1.6l-1,1c-1.2,1.2-1.2,3.1,0,4.2l0,0
	c0.6,0.6,1.4,0.9,2.1,0.9s1.5-0.3,2.1-0.9l1-1c0.5,0.3,1.1,0.5,1.6,0.7V27c0,1.7,1.3,3,3,3l0,0c1.7,0,3-1.3,3-3v-1.5
	c0.6-0.2,1.1-0.4,1.6-0.7l1,1c0.6,0.6,1.4,0.9,2.1,0.9c0.8,0,1.5-0.3,2.1-0.9l0,0c1.2-1.2,1.2-3.1,0-4.2l-1-1
	c0.3-0.5,0.5-1.1,0.7-1.6H27c1.7,0,3-1.3,3-3l0,0c0-1.7-1.3-3-3-3h-1.5c-0.2-0.6-0.4-1.1-0.7-1.6l1-1c1.2-1.2,1.2-3.1,0-4.2l0,0
	c-0.6-0.6-1.4-0.9-2.1-0.9s-1.5,0.3-2.1,0.9l-1,1c-0.5-0.3-1.1-0.5-1.6-0.7V5C19,3.3,17.7,2,16,2L16,2z"/>
</svg>
