<?xml version="1.0" encoding="utf-8"?>
<!-- Generator: Adobe Illustrator 19.2.0, SVG Export Plug-In . SVG Version: 6.00 Build 0)  -->
<svg version="1.1" id="Layer_1" xmlns="http://www.w3.org/2000/svg" xmlns:xlink="http://www.w3.org/1999/xlink" x="0px" y="0px"
	 viewBox="0 0 32 32" style="enable-background:new 0 0 32 32;" xml:space="preserve">
<style type="text/css">
	.st0{opacity:0.5;}
	.st1{fill:#3D4350;}
</style>
<g class="st0">
	<g>
		<path class="st1" d="M11,9c5,0,9,4,9,9s-4,9-9,9s-9-4-9-9S6,9,11,9 M11,8C5.5,8,1,12.5,1,18s4.5,10,10,10s10-4.5,10-10
			S16.5,8,11,8L11,8z"/>
	</g>
</g>
<g>
	<path class="st1" d="M11,13c2.8,0,5,2.2,5,5s-2.2,5-5,5s-5-2.2-5-5S8.2,13,11,13 M11,11c-3.9,0-7,3.1-7,7s3.1,7,7,7s7-3.1,7-7
		S14.9,11,11,11L11,11z"/>
</g>
<g>
	<path class="st1" d="M26,4c1.1,0,2,0.9,2,2s-0.9,2-2,2s-2-0.9-2-2S24.9,4,26,4 M26,2c-2.2,0-4,1.8-4,4s1.8,4,4,4s4-1.8,4-4
		S28.2,2,26,2L26,2z"/>
</g>
<g>
	<circle class="st1" cx="26" cy="28" r="3"/>
</g>
<g>
	<circle class="st1" cx="11" cy="18" r="2"/>
</g>
<g>
	<rect x="14" y="10" transform="matrix(0.7999 -0.6002 0.6002 0.7999 -2.7989 13.6052)" class="st1" width="10" height="2"/>
</g>
<g>
	<rect x="19" y="19.8" transform="matrix(0.53 -0.848 0.848 0.53 -11.3752 28.4746)" class="st1" width="2" height="9.4"/>
</g>
</svg>
