<svg xmlns="http://www.w3.org/2000/svg" viewBox="0 0 504 456" enable-background="new 0 0 504 456"><path fill="#fff" d="M469.9 225c-9.6-2-80.1-16-151.9-7-1.5-3.8-3.1-7.6-4.7-11.4-4.6-10.8-9.5-21.5-14.7-32 80.7-33 116.8-79.2 121.8-85.9 30.5 37.2 48.9 84.6 49.5 136.3zm-74.1-161.4c-4.7 6.7-37.2 49.7-114 78.5-35.7-65.4-74.6-118.1-81.3-127 16.4-3.9 33.4-6.2 51-6.2 55.3-.1 105.8 20.7 144.3 54.7zm-237.3-33.8c6.1 8.3 44.5 61.2 80.8 125.6-101.5 26.9-190 26.9-201.7 26.8 14.3-67.7 59.9-123.7 120.9-152.4zm-125.6 197.6l.3-6.9c12.8.2 116.5.9 224.3-31.3 6.3 12.3 12.3 24.8 17.8 37.3-2.9.8-5.8 1.7-8.6 2.6-111.7 36.1-171.4 132.7-178 143.8-34.6-38.6-55.8-89.5-55.8-145.5zm84.1 172.1c5.1-10.3 49.8-93.6 171.9-136.1.4-.2 1-.3 1.4-.4 30.4 79 43.2 145.3 46.7 165.7-26.3 11.2-55.2 17.4-85.5 17.4-50.8-.1-97.4-17.6-134.5-46.6zm256.9 9c-2.7-15.4-14.5-78.5-42.6-155.8 67.3-10.8 126 6.2 135.7 9.2-9.6 60.8-44.1 113.4-93.1 146.6z"/></svg>