<?xml version="1.0" encoding="utf-8"?>
<!-- Generator: Adobe Illustrator 19.2.0, SVG Export Plug-In . SVG Version: 6.00 Build 0)  -->
<svg version="1.1" id="Layer_1" xmlns="http://www.w3.org/2000/svg" xmlns:xlink="http://www.w3.org/1999/xlink" x="0px" y="0px"
	 viewBox="0 0 28 28" style="enable-background:new 0 0 28 28;" xml:space="preserve">
<style type="text/css">
	.st0{fill:#EA4335;}
	.st1{fill:#4285F4;}
	.st2{fill:#FBBC05;}
	.st3{fill:#34A853;}
</style>
<g>
	<path class="st0" d="M14.3,5.5c2.1,0,3.9,0.7,5.4,2.1l4-4C21.2,1.4,18.1,0,14.3,0C8.8,0,4.1,3.1,1.8,7.7l4.7,3.6
		C7.5,8,10.6,5.5,14.3,5.5z"/>
	<path class="st1" d="M27.7,14.3c0-0.9-0.1-1.8-0.2-2.7H14.3v5.3h7.5c-0.3,1.7-1.3,3.2-2.8,4.2l4.5,3.5
		C26.2,22.2,27.7,18.6,27.7,14.3z"/>
	<path class="st2" d="M6.4,16.7C6.2,15.8,6,14.9,6,14s0.2-1.8,0.4-2.7L1.8,7.7c-1,1.9-1.5,4-1.5,6.3s0.5,4.4,1.5,6.3L6.4,16.7z"/>
	<path class="st3" d="M14.3,28c3.8,0,7-1.2,9.3-3.4l-4.5-3.5c-1.3,0.8-2.9,1.3-4.8,1.3c-3.7,0-6.7-2.5-7.9-5.8l-4.7,3.6
		C4.1,24.9,8.8,28,14.3,28z"/>
</g>
</svg>
