<svg xmlns="http://www.w3.org/2000/svg" viewBox="0 0 360 283" enable-background="new 0 0 360 283"><path stroke="#fff" stroke-width="4" stroke-linecap="round" stroke-linejoin="round" stroke-dasharray="9.97,9.97" d="M60.4 76.7c0-29.5 23.9-53.4 53.4-53.4h130.8c29.4-.3 53 22.1 53.4 53.4v130c0 29.5-23.9 53.4-53.4 53.4h-130.8c-29.5 0-53.4-23.9-53.4-53.4v-130z" fill="none"/><path fill="#fff" stroke="#fff" stroke-width="4" stroke-linecap="round" stroke-linejoin="round" stroke-miterlimit="10" d="M155.6 20.3v45.8c7.5-2.4 15.4-3.6 23.7-3.6s16.2 1.3 23.7 3.6v-45.8c-7.6-1.5-15.6-2.3-23.7-2.3-8.2 0-16.1.8-23.7 2.3zm23.6 200.6c-8.3 0-16.2-1.3-23.7-3.6v45.8c7.6 1.5 15.6 2.3 23.7 2.3s16-.8 23.7-2.3v-45.8c-7.5 2.3-15.4 3.6-23.7 3.6zm-79.1-79.2c0-8.3 1.3-16.2 3.6-23.7h-45.8c-1.5 7.6-2.3 15.6-2.3 23.7s.8 16 2.3 23.7h45.8c-2.4-7.5-3.6-15.4-3.6-23.7zm158.3 0c0 8.3-1.3 16.2-3.6 23.7h45.8c1.5-7.6 2.3-15.6 2.3-23.7s-.8-16-2.3-23.7h-45.8c2.4 7.5 3.6 15.4 3.6 23.7z"/><path fill="#8EC348" stroke="#3B4251" stroke-width="4" stroke-linecap="round" stroke-linejoin="round" stroke-miterlimit="10" d="M123.3 197.7c-8.9-8.9-15.7-20-19.6-32.3h-45.8c4.8 24.7 16.9 46.7 33.9 63.8s39.2 29.2 63.8 33.9v-45.8c-12.4-3.9-23.4-10.6-32.3-19.6zm0-112c8.9-8.9 20-15.7 32.3-19.6v-45.8c-24.7 4.8-46.7 16.9-63.8 33.9s-29.2 39.2-33.9 63.8h45.8c3.8-12.3 10.7-23.4 19.6-32.3zm111.9 0c8.9 8.9 15.7 20 19.6 32.3h45.8c-4.8-24.7-16.9-46.7-33.9-63.8-17.1-17.1-39.2-29.2-63.8-33.9v45.8c12.4 3.9 23.4 10.6 32.3 19.6zm0 112c-8.9 8.9-20 15.7-32.3 19.6v45.8c24.7-4.8 46.7-16.9 63.8-33.9s29.2-39.2 33.9-63.8h-45.8c-3.8 12.3-10.7 23.4-19.6 32.3z"/></svg>