<svg xmlns="http://www.w3.org/2000/svg" viewBox="0 0 126 114" enable-background="new 0 0 126 114"><path fill="#8EC348" d="M48.805 82.011c-1.484 0-2.691-1.207-2.691-2.691 0-1.483 1.207-2.69 2.691-2.69s2.691 1.207 2.691 2.69c0 1.484-1.207 2.691-2.691 2.691zm0-3.382c-.381 0-.691.31-.691.69s.311.691.691.691.691-.311.691-.691-.31-.69-.691-.69zM62.805 82.011c-1.484 0-2.691-1.207-2.691-2.691 0-1.483 1.207-2.69 2.691-2.69s2.691 1.207 2.691 2.69c0 1.484-1.207 2.691-2.691 2.691zm0-3.382c-.381 0-.691.31-.691.69s.311.691.691.691.691-.311.691-.691-.31-.69-.691-.69zM76.805 82.011c-1.484 0-2.691-1.207-2.691-2.691 0-1.483 1.207-2.69 2.691-2.69s2.691 1.207 2.691 2.69c0 1.484-1.207 2.691-2.691 2.691zm0-3.382c-.381 0-.691.31-.691.69s.311.691.691.691.691-.311.691-.691-.31-.69-.691-.69zM36.603 42.328c-.255 0-.513-.064-.749-.201l-6.414-3.703c-.718-.414-.963-1.332-.549-2.049.413-.718 1.333-.963 2.049-.549l6.414 3.703c.718.414.963 1.331.549 2.049-.278.482-.783.75-1.3.75zM47.722 31.211c-.519 0-1.022-.27-1.3-.751l-3.702-6.417c-.414-.718-.168-1.635.549-2.049s1.635-.169 2.049.55l3.702 6.417c.414.718.168 1.635-.549 2.049-.237.136-.494.201-.749.201zM62.909 27.137c-.828 0-1.5-.671-1.5-1.5v-7.408c0-.829.672-1.5 1.5-1.5s1.5.671 1.5 1.5v7.408c0 .829-.672 1.5-1.5 1.5z"/><path fill="#3B4251" d="M78.096 31.211c-.255 0-.513-.065-.749-.202-.718-.414-.963-1.332-.549-2.049l3.705-6.417c.414-.718 1.333-.963 2.049-.549.718.414.963 1.332.549 2.049l-3.705 6.417c-.278.481-.783.751-1.3.751zM89.217 42.328c-.518 0-1.022-.269-1.3-.75-.414-.718-.169-1.635.549-2.049l6.414-3.703c.717-.415 1.635-.169 2.049.549.414.717.169 1.635-.549 2.049l-6.414 3.703c-.237.137-.494.201-.749.201z"/><path fill="#8EC348" d="M32.529 57.515h-7.408c-.828 0-1.5-.672-1.5-1.5s.672-1.5 1.5-1.5h7.408c.828 0 1.5.672 1.5 1.5s-.672 1.5-1.5 1.5z"/><path fill="#3B4251" d="M100.695 57.515h-7.408c-.828 0-1.5-.672-1.5-1.5s.672-1.5 1.5-1.5h7.408c.828 0 1.5.672 1.5 1.5s-.672 1.5-1.5 1.5z"/><path fill="#8EC348" d="M63 106.5c-27.294 0-49.5-22.206-49.5-49.5s22.206-49.5 49.5-49.5 49.5 22.206 49.5 49.5-22.206 49.5-49.5 49.5zm0-96c-25.641 0-46.5 20.86-46.5 46.5 0 25.641 20.859 46.5 46.5 46.5s46.5-20.859 46.5-46.5c0-25.64-20.859-46.5-46.5-46.5zM63 97.579c-22.375 0-40.579-18.204-40.579-40.579s18.204-40.579 40.579-40.579 40.579 18.204 40.579 40.579-18.204 40.579-40.579 40.579zm0-79.158c-21.272 0-38.579 17.306-38.579 38.579s17.307 38.579 38.579 38.579 38.579-17.307 38.579-38.579-17.307-38.579-38.579-38.579z"/><path stroke="#8EC348" stroke-width="3" stroke-linecap="round" stroke-linejoin="round" stroke-miterlimit="10" d="M62.158 89" fill="none"/><path fill="#3B4251" d="M62.104 65.476c-2.977 0-5.766-1.457-7.462-3.896-1.388-1.991-1.917-4.405-1.488-6.795.428-2.39 1.761-4.469 3.754-5.856 2.633-1.835 6.176-2.116 9.067-.753l12.167-7.148c.466-.328 1.088-.523 1.733-.523 1.032 0 1.999.505 2.589 1.35.991 1.427.639 3.394-.785 4.385l-10.616 8.687c.569 3.452-.869 6.899-3.77 8.918-1.533 1.066-3.328 1.631-5.189 1.631zm-.026-16.173c-1.445 0-2.838.438-4.027 1.268-1.556 1.082-2.596 2.704-2.93 4.567-.333 1.864.079 3.746 1.162 5.299 1.323 1.903 3.499 3.039 5.82 3.039 1.451 0 2.85-.44 4.047-1.273 2.397-1.669 3.513-4.59 2.841-7.441-.087-.372.045-.762.341-1.004l11.143-9.113c.581-.408.709-1.127.348-1.647-.349-.499-1.1-.638-1.603-.286l-12.704 7.468c-.305.18-.682.185-.99.013-1.053-.584-2.246-.89-3.448-.89zM62.104 60.844c-.265 0-.531-.023-.793-.07-1.17-.209-2.188-.862-2.868-1.838-.728-1.045-.833-2.094-.794-2.789.075-1.382.769-2.627 1.903-3.417.972-.676 2.171-.938 3.331-.729 1.171.209 2.19.862 2.872 1.841.725 1.039.831 2.089.793 2.785-.076 1.384-.77 2.628-1.901 3.416-.755.524-1.634.801-2.543.801zm-.013-6.915c-.497 0-.979.153-1.396.442-.625.436-1.008 1.123-1.05 1.886-.021.383.038.959.439 1.536.374.537.935.896 1.579 1.012.65.116 1.301-.029 1.842-.404.622-.434 1.004-1.12 1.047-1.884.021-.382-.039-.959-.438-1.532-.376-.54-.938-.9-1.583-1.016-.147-.027-.294-.04-.44-.04z"/></svg>