<svg xmlns="http://www.w3.org/2000/svg" viewBox="0 0 126 114" enable-background="new 0 0 126 114"><path fill="#8EC348" d="M63 29.193c-1.484 0-2.691-1.208-2.691-2.691s1.207-2.691 2.691-2.691 2.691 1.207 2.691 2.691-1.207 2.691-2.691 2.691zm0-3.382c-.381 0-.691.31-.691.691 0 .381.311.691.691.691s.691-.31.691-.691c0-.381-.311-.691-.691-.691zM63 89.193c-1.484 0-2.691-1.207-2.691-2.691s1.206-2.692 2.691-2.692 2.691 1.207 2.691 2.691-1.207 2.692-2.691 2.692zm0-3.383c-.381 0-.691.311-.691.691s.311.691.691.691.691-.311.691-.691-.311-.691-.691-.691zM33 59.193c-1.484 0-2.691-1.207-2.691-2.691s1.206-2.692 2.691-2.692 2.691 1.207 2.691 2.691-1.207 2.692-2.691 2.692zm0-3.383c-.381 0-.691.311-.691.691s.311.691.691.691.691-.311.691-.691-.311-.691-.691-.691zM93 59.193c-1.484 0-2.691-1.207-2.691-2.691s1.206-2.692 2.691-2.692 2.691 1.207 2.691 2.691-1.207 2.692-2.691 2.692zm0-3.383c-.381 0-.691.311-.691.691s.311.691.691.691.691-.311.691-.691-.311-.691-.691-.691zM63 106.846c-4.6 0-8.912-1.78-12.143-5.012l-32.691-32.691c-6.696-6.696-6.696-17.591 0-24.287l32.691-32.691c3.23-3.231 7.543-5.011 12.143-5.011s8.912 1.78 12.144 5.011l32.691 32.691c6.696 6.696 6.696 17.591 0 24.287l-32.691 32.691c-3.232 3.232-7.545 5.011-12.144 5.012zm0-96.692c-3.798 0-7.356 1.468-10.021 4.132l-32.692 32.691c-5.526 5.526-5.526 14.519 0 20.045l32.691 32.691c2.665 2.665 6.224 4.133 10.021 4.133s7.357-1.468 10.022-4.133l32.691-32.691c5.526-5.526 5.526-14.519 0-20.045l-32.69-32.691c-2.665-2.664-6.225-4.132-10.022-4.132zM63 96.346c-1.793 0-3.469-.688-4.718-1.936l-32.692-32.692c-1.248-1.248-1.936-2.924-1.936-4.719s.688-3.471 1.936-4.719l32.691-32.691c1.247-1.248 2.923-1.936 4.718-1.936 1.794 0 3.471.687 4.72 1.935l32.69 32.692c1.249 1.249 1.937 2.925 1.937 4.719s-.688 3.47-1.937 4.719l-32.691 32.692c-1.249 1.249-2.925 1.936-4.718 1.936zm0-76.692c-1.261 0-2.434.479-3.304 1.349l-32.692 32.692c-.87.87-1.35 2.044-1.35 3.305s.479 2.435 1.35 3.305l32.691 32.692c.871.87 2.045 1.35 3.304 1.35 1.26 0 2.434-.479 3.305-1.351l32.691-32.691c.871-.871 1.351-2.045 1.351-3.305s-.479-2.434-1.351-3.305l-32.69-32.691c-.871-.871-2.045-1.35-3.305-1.35z"/><path fill="#3B4251" d="M63.081 75.512c-.828 0-1.5-.672-1.5-1.5v-12.835c0-.828.672-1.5 1.5-1.5s1.5.672 1.5 1.5v12.835c0 .828-.672 1.5-1.5 1.5zM63.081 62.677c-.384 0-.768-.146-1.061-.439-.586-.586-.586-1.535 0-2.121l14.919-14.919c.586-.586 1.535-.586 2.121 0s.586 1.535 0 2.121l-14.919 14.919c-.293.293-.677.439-1.06.439zM63.081 62.677c-.384 0-.768-.146-1.061-.439l-14.92-14.919c-.586-.586-.586-1.535 0-2.121s1.535-.586 2.121 0l14.92 14.919c.586.586.586 1.535 0 2.121-.293.293-.677.439-1.06.439zM78 55.019c-.828 0-1.5-.672-1.5-1.5v-5.761h-5.761c-.828 0-1.5-.672-1.5-1.5s.672-1.5 1.5-1.5h7.261c.828 0 1.5.672 1.5 1.5v7.261c0 .828-.672 1.5-1.5 1.5zM48 55.019c-.828 0-1.5-.672-1.5-1.5v-7.261c0-.828.672-1.5 1.5-1.5h7.262c.828 0 1.5.672 1.5 1.5s-.672 1.5-1.5 1.5h-5.762v5.761c0 .828-.672 1.5-1.5 1.5z"/></svg>