<svg xmlns="http://www.w3.org/2000/svg" viewBox="0 0 126 114" enable-background="new 0 0 126 114"><path fill="#8EC348" d="M27.397 29.652c-1.56 0-2.828-1.269-2.828-2.828s1.269-2.828 2.828-2.828 2.828 1.269 2.828 2.828-1.269 2.828-2.828 2.828zm0-3.656c-.457 0-.828.372-.828.828s.372.828.828.828.828-.372.828-.828-.372-.828-.828-.828z"/><g fill="#8EC348"><path d="M36.994 32.046c1.334-1.616 3.879-4.93 5.232-6.728.627-.768 1.03-1.556 1.03-2.242 0-.909-.687-1.839-2.141-1.839-.97 0-1.799.688-2.263 1.192-.162.161-.384.161-.546 0l-.97-.97c-.121-.121-.161-.364-.021-.525 0 0 1.576-1.979 3.98-1.979 2.889 0 4.505 1.838 4.505 4.02 0 1.313-.565 2.142-1.354 3.273-.869 1.232-2.404 3.131-3.475 4.484h4.363c.202 0 .384.183.384.385v1.394c0 .202-.182.384-.384.384h-7.96c-.222 0-.384-.182-.384-.384v-.465zM47.906 32.289l5.253-10.949h-5.333c-.202 0-.384-.182-.384-.384v-1.414c0-.202.182-.385.384-.385h8.404c.202 0 .384.183.384.385v.141l-6.021 12.667c-.142.323-.344.546-.687.546h-1.495c-.243 0-.506-.061-.506-.384v-.223zM59.121 29.784c.869 0 2.041.646 2.041 2.646 0 2.485-1.556 3.899-2.304 4.364-.182.121-.323.142-.505-.041l-.303-.323c-.142-.161-.121-.384.081-.545.222-.202 1.616-1.253 1.616-2.95-.021 0-.344.162-.769.162-.889 0-1.636-.748-1.636-1.637.002-.909.749-1.676 1.779-1.676zM64.173 31.158c.95-.303 3.818-1.657 4.445-3.879-.344.202-1.354.565-2.304.565-2.021 0-4.121-1.495-4.121-4.384 0-2.546 2.081-4.626 4.565-4.626 3.172 0 4.809 2.545 4.809 5.575 0 5.899-4.99 8.243-6.728 8.809-.283.081-.484-.021-.565-.283l-.465-1.191c-.1-.243-.02-.465.364-.586zm4.97-7.051c0-1.374-.728-2.97-2.364-2.97-1.272 0-2.303 1.091-2.303 2.363 0 1.293 1.03 2.364 2.323 2.364 1.334.001 2.122-1.03 2.344-1.757zM73.672 26.026c0-4.424 1.858-7.07 5.091-7.07s5.091 2.646 5.091 7.07c0 4.425-1.858 7.071-5.091 7.071s-5.091-2.646-5.091-7.071zm7.535 0c0-2.99-.889-4.687-2.444-4.687s-2.444 1.696-2.444 4.687c0 3.011.889 4.688 2.444 4.688s2.444-1.677 2.444-4.688zM85.614 32.046c1.334-1.616 3.879-4.93 5.232-6.728.627-.768 1.03-1.556 1.03-2.242 0-.909-.687-1.839-2.141-1.839-.97 0-1.799.688-2.263 1.192-.162.161-.385.161-.546 0l-.97-.97c-.121-.121-.162-.364-.021-.525 0 0 1.576-1.979 3.98-1.979 2.889 0 4.505 1.838 4.505 4.02 0 1.313-.565 2.142-1.354 3.273-.869 1.232-2.404 3.131-3.475 4.484h4.363c.202 0 .384.183.384.385v1.394c0 .202-.182.384-.384.384h-7.96c-.222 0-.384-.182-.384-.384v-.465z"/></g><path fill="#8EC348" d="M113 46.595h-100c-.552 0-1-.447-1-1s.448-1 1-1h100c.553 0 1 .447 1 1s-.448 1-1 1zM113 109.191h-100c-.829 0-1.5-.672-1.5-1.5v-101.382c0-.829.671-1.5 1.5-1.5h100c.828 0 1.5.671 1.5 1.5v101.382c0 .828-.672 1.5-1.5 1.5zm-98.5-3h97v-98.382h-97v98.382z"/><path fill="#3B4251" d="M32.441 79.21c-.294 0-.585-.129-.783-.377l-5.044-6.331c-.344-.432-.273-1.061.159-1.405.432-.344 1.06-.273 1.405.159l5.044 6.331c.344.432.273 1.062-.159 1.405-.183.147-.403.218-.622.218zM32.44 79.21c-.214 0-.429-.068-.611-.209-.437-.338-.518-.966-.18-1.402l5.98-7.738c.339-.438.967-.516 1.403-.18.437.338.518.966.18 1.402l-5.98 7.738c-.197.256-.493.389-.792.389zM49.15 89.587c-.342 0-.675-.175-.861-.49l-10.729-18.115c-.282-.476-.125-1.089.351-1.37.476-.281 1.089-.125 1.37.351l10.729 18.115c.281.476.124 1.089-.351 1.37-.16.094-.336.139-.509.139zM49.148 89.587c-.169 0-.341-.043-.498-.134-.479-.275-.644-.887-.367-1.365l5.979-10.377c.274-.479.887-.644 1.365-.367.479.275.644.887.367 1.365l-5.979 10.377c-.184.322-.521.501-.867.501zM62.867 87.125c-.26 0-.52-.101-.715-.301l-7.738-7.914c-.387-.395-.379-1.028.016-1.414.395-.387 1.029-.378 1.414.016l7.738 7.914c.387.395.379 1.028-.016 1.414-.194.19-.447.285-.699.285zM62.866 87.125c-.185 0-.371-.051-.538-.158-.466-.298-.601-.916-.303-1.381l10.025-15.652c.297-.466.915-.602 1.381-.303.466.298.601.916.303 1.381l-10.025 15.652c-.191.297-.514.461-.843.461zM81.863 86.246c-.338 0-.668-.171-.855-.481l-8.97-14.773c-.287-.472-.137-1.087.336-1.373.473-.287 1.088-.137 1.373.336l8.97 14.773c.287.472.137 1.087-.336 1.373-.162.098-.341.145-.518.145zM81.861 86.246c-.198 0-.398-.059-.573-.182-.452-.317-.562-.94-.244-1.393l19.873-28.316c.317-.451.939-.563 1.393-.244.452.317.562.94.244 1.393l-19.874 28.316c-.194.277-.503.426-.819.426z"/></svg>