<svg xmlns="http://www.w3.org/2000/svg" viewBox="0 0 126 114" enable-background="new 0 0 126 114"><path fill="#8CC640" d="M20.748 34.587c-.172 0-.345-.044-.5-.134l-8.83-5.094c-.456-.263-.63-.834-.398-1.307 1.836-3.741 5.563-6.064 9.727-6.064.552 0 1 .448 1 1v10.6c0 .357-.19.688-.5.866-.154.088-.326.133-.499.133zm-7.478-6.469l6.478 3.738v-7.813c-2.677.298-5.045 1.787-6.478 4.075zM11.333 36.653c-.433 0-.828-.282-.957-.712-.305-1.013-.459-2.063-.459-3.123 0-1.67.371-3.273 1.104-4.766.122-.249.342-.436.606-.516.266-.081.552-.048.791.09l8.83 5.094c.358.207.552.611.489 1.019-.063.408-.371.735-.774.824l-9.415 2.066-.215.024zm1.068-6.727c-.322.925-.484 1.894-.484 2.893 0 .555.052 1.107.155 1.649l5.941-1.304-5.612-3.238zM20.748 43.649c-.552 0-1-.448-1-1v-9.062c0-.357.19-.688.5-.866.309-.177.69-.179 1 0l8.163 4.71c.24.139.412.371.474.641s.01.554-.144.784c-2.019 3.001-5.381 4.793-8.993 4.793zm1-8.331v6.274c2.203-.25 4.228-1.319 5.679-2.997l-5.679-3.277zM20.748 43.649c-4.742 0-9.007-3.169-10.372-7.708-.08-.267-.046-.555.095-.795.141-.24.376-.41.648-.47l9.415-2.066c.296-.065.605.008.841.197.236.19.373.477.373.779v9.062c0 .554-.448 1.001-1 1.001zm-8.079-7.265c1.262 2.844 3.983 4.848 7.079 5.208v-6.762l-7.079 1.554z"/><path fill="#3B4251" d="M28.91 39.288c-.17 0-.342-.043-.499-.134l-8.163-4.71c-.309-.179-.5-.509-.5-.866v-10.6c0-.552.448-1 1-1 5.972 0 10.831 4.859 10.831 10.831 0 2.162-.636 4.25-1.838 6.037-.192.286-.508.442-.831.442zm-7.162-6.288l6.812 3.931c.669-1.265 1.019-2.672 1.019-4.122 0-4.532-3.431-8.277-7.831-8.775v8.966z"/><path fill="#8CC640" d="M39.694 53.26h-37.892c-.829 0-1.5-.671-1.5-1.5v-37.892c0-.829.671-1.5 1.5-1.5h37.892c.829 0 1.5.671 1.5 1.5v37.892c0 .828-.672 1.5-1.5 1.5zm-36.392-3h34.892v-34.892h-34.892v34.892zM61.508 101.632h-59.706c-.829 0-1.5-.672-1.5-1.5v-37.892c0-.828.671-1.5 1.5-1.5h59.706c.829 0 1.5.672 1.5 1.5v37.892c0 .828-.672 1.5-1.5 1.5zm-58.206-3h56.706v-34.892h-56.706v34.892zM124.004 101.632h-53.612c-.828 0-1.5-.672-1.5-1.5v-37.892c0-.828.672-1.5 1.5-1.5h53.612c.828 0 1.5.672 1.5 1.5v37.892c0 .828-.672 1.5-1.5 1.5zm-52.112-3h50.612v-34.892h-50.612v34.892zM124.198 53.26h-74.024c-.829 0-1.5-.671-1.5-1.5v-37.892c0-.829.671-1.5 1.5-1.5h74.024c.828 0 1.5.671 1.5 1.5v37.892c0 .828-.672 1.5-1.5 1.5zm-72.524-3h71.024v-34.892h-71.024v34.892z"/><path fill="#3B4251" d="M115.733 40.759c-.359 0-.706-.193-.885-.533l-8.008-15.153-6.39 11.454c-.146.262-.403.445-.699.498l-12.721 2.248c-.26.048-.531-.014-.749-.167l-10.267-7.221-10.699 8.651c-.24.194-.555.266-.858.196-.301-.071-.552-.277-.68-.558l-5.241-11.472c-.229-.502-.008-1.096.494-1.325.503-.229 1.096-.009 1.325.494l4.705 10.299 10.283-8.315c.348-.279.84-.296 1.204-.04l10.544 7.416 11.845-2.093 7.055-12.647c.179-.32.538-.514.885-.513.366.004.701.208.872.533l8.868 16.781c.259.488.071 1.093-.417 1.352-.148.078-.308.115-.466.115z"/><path fill="#8CC640" d="M91.756 93.348h-11.488c-.553 0-1-.447-1-1v-21.115c0-.553.447-1 1-1h11.488c.553 0 1 .447 1 1v21.114c0 .553-.447 1.001-1 1.001zm-10.488-2h9.488v-19.115h-9.488v19.115z"/><path fill="#3B4251" d="M91.756 79.532h-11.488c-.553 0-1-.447-1-1v-7.354c0-.553.447-1 1-1h11.488c.553 0 1 .447 1 1v7.354c0 .553-.447 1-1 1zm-10.488-2h9.488v-5.354h-9.488v5.354z"/><path fill="#8CC640" d="M91.756 93.348h-11.488c-.553 0-1-.447-1-1v-4.712c0-.553.447-1 1-1h11.488c.553 0 1 .447 1 1v4.712c0 .552-.447 1-1 1zm-10.488-2h9.488v-2.712h-9.488v2.712zM101.044 76.4h-2.477c-.342 0-.619-.277-.619-.619v-.324l.114-.139c.41-.497 1.196-1.52 1.614-2.075.177-.218.22-.354.22-.397 0-.065-.116-.072-.166-.072-.088 0-.22.082-.335.208l-.148.163-.306.038c-.166 0-.323-.066-.442-.188l-.299-.3c-.231-.226-.242-.61-.02-.854.003-.005.628-.778 1.606-.778 1.102 0 1.901.736 1.901 1.752 0 .571-.26.943-.511 1.304-.122.174-.285.389-.459.61h.325c.342 0 .62.277.62.619v.434c.002.341-.276.618-.618.618zM99.818 84.525c-.965 0-1.486-.537-1.623-.702-.298-.341-.187-.684.021-.888l.462-.453.286-.034c.147 0 .291.056.403.157.086.078.301.223.477.223.15 0 .229-.122.229-.242 0-.066 0-.203-.261-.203h-.969c-.383 0-.694-.323-.694-.721v-1.854c0-.343.277-.621.619-.621h1.986c.342 0 .62.278.62.621v.428c0 .342-.278.619-.62.619h-.008c.67.285 1.093.918 1.093 1.73.001 1.089-.887 1.94-2.021 1.94zM100.306 92.525h-.541c-.342 0-.619-.277-.619-.619l-.001-2.393-.074.002c-.307 0-.564-.226-.601-.524l-.037-.309c-.027-.192.035-.388.174-.526l1.077-.906h.622c.338 0 .612.277.612.619v4.037c0 .342-.274.619-.612.619zM114.732 74.855h-6.449c-.553 0-1-.447-1-1s.447-1 1-1h6.449c.553 0 1 .447 1 1s-.447 1-1 1zM114.732 82.918h-6.449c-.553 0-1-.447-1-1s.447-1 1-1h6.449c.553 0 1 .447 1 1s-.447 1-1 1zM114.732 90.979h-6.449c-.553 0-1-.447-1-1s.447-1 1-1h6.449c.553 0 1 .447 1 1s-.447 1-1 1zM38.509 92.143c-.152 0-.305-.035-.446-.105-.334-.166-.547-.505-.554-.878-.056-3.392-2.859-6.151-6.25-6.151s-6.194 2.76-6.25 6.151c-.006.373-.22.712-.554.878-.332.167-.732.135-1.035-.086l-11.146-8.112c-.382-.278-.518-.786-.324-1.218 3.408-7.602 10.987-12.513 19.309-12.513s15.9 4.911 19.308 12.513c.193.432.058.939-.324 1.218l-11.146 8.112c-.174.126-.38.191-.588.191zm-24.387-9.434l9.114 6.634c.874-3.622 4.16-6.335 8.023-6.335s7.149 2.713 8.023 6.335l9.114-6.634c-3.232-6.466-9.873-10.601-17.137-10.601-7.264 0-13.905 4.135-17.137 10.601z"/><path fill="#3B4251" d="M31.258 92.764c-.263 0-.529-.068-.771-.214-.71-.426-.94-1.348-.514-2.058l7.256-12.093c.426-.711 1.347-.943 2.058-.515.71.426.94 1.348.514 2.058l-7.256 12.093c-.28.469-.777.729-1.287.729z"/></svg>