<?xml version="1.0" encoding="utf-8"?>
<!-- Generator: Adobe Illustrator 18.1.0, SVG Export Plug-In . SVG Version: 6.00 Build 0)  -->
<!DOCTYPE svg PUBLIC "-//W3C//DTD SVG 1.1//EN" "http://www.w3.org/Graphics/SVG/1.1/DTD/svg11.dtd">
<svg version="1.1" id="Layer_1" xmlns="http://www.w3.org/2000/svg" xmlns:xlink="http://www.w3.org/1999/xlink" x="0px" y="0px"
	 viewBox="0 0 168 42" enable-background="new 0 0 168 42" xml:space="preserve">
<g id="DC">
	<polygon fill="#BEC4CE" points="71.1,23.7 71.1,19.9 69,23.7 	"/>
	<path fill="#BEC4CE" d="M116.3,16.8c-2.6,0-4.6,2-4.6,4.4c0,2.7,2.1,4.7,4.4,4.7c2.5,0,4.4-2,4.4-4.7
		C120.6,18.8,118.6,16.8,116.3,16.8z"/>
	<path fill="#BEC4CE" d="M20.3,5.4v32h126.2v-32C146.4,5.4,20.3,5.4,20.3,5.4z M51.9,29.8h-9.4v-6.6c-0.2,1.8-1.1,3.4-2.3,4.7
		c-1.8,1.7-3.4,2.1-5.8,2.1H28V13h5.8c2.7,0,4.6,0.4,6.4,2c1.4,1.2,2.1,2.8,2.3,4.8v-6.9h9.4v3.7h-5.2v2.7h4.6v3.6h-4.6v3.1h5.2
		V29.8z M75.2,29.8h-4.1v-2.5h-3.9c-0.5,0.5-1,1-1.5,1.2c-1.5,1-3,1.5-5,1.6c-1.5,0-4.2-0.6-6.4-3c-1.4-1.5-2.2-3.4-2.2-5.9
		c0.1-2.1,0.5-3.6,1.7-5.2c2-2.5,4.6-3.6,7-3.6c2.6,0.1,4.6,1,5.8,2.1c0.5,0.4,0.6,0.6,1.1,1l-2.2,3.9c-0.4-0.5-0.6-0.7-1.1-1.2
		c0,0-1.5-1.6-3.6-1.7c-2.5,0-4.3,2-4.4,4.6c0,2.5,2.1,4.8,4.6,4.7c2.5-0.1,3.7-2,3.8-2.2l6.2-10.7h4.4v16.9H75.2z M86.5,16.8h-3.2
		v12.9h-4.2V16.8h-3.2v-3.9h10.6V16.8z M99.9,29.9h-4.2v-6.5h-4.3v6.4h-4.2V13h4.2v6.4h4.3V13h4.2V29.9z M138.8,29.9h-3.7l-6.4-9.4
		v9.4h-4.2v-5.8c-0.4,1.2-1.1,2.5-2.1,3.4c-1.6,1.7-3.9,2.6-6.3,2.6c-2.2,0-4.2-0.7-5.8-2.1v1.7h-9V13h4.2v13.2h3.2
		c-0.9-1.4-1.4-3.1-1.4-4.9c0-2.3,0.9-4.4,2.6-6.2c1.7-1.6,3.8-2.5,6.3-2.5c2.3,0,4.4,0.9,6.2,2.5c1.1,1,1.8,2.2,2.2,3.6V13h3.8
		l6.3,9.4V13h4.2v16.9H138.8z"/>
	<path fill="#BEC4CE" d="M33.8,16.6h-1.6v9.5h1.7c3.2,0,4.7-1.5,4.7-4.8C38.6,18.3,36.9,16.6,33.8,16.6z"/>
</g>
</svg>
