<?xml version="1.0" encoding="utf-8"?>
<!-- Generator: Adobe Illustrator 18.1.0, SVG Export Plug-In . SVG Version: 6.00 Build 0)  -->
<!DOCTYPE svg PUBLIC "-//W3C//DTD SVG 1.1//EN" "http://www.w3.org/Graphics/SVG/1.1/DTD/svg11.dtd">
<svg version="1.1" id="Layer_1" xmlns="http://www.w3.org/2000/svg" xmlns:xlink="http://www.w3.org/1999/xlink" x="0px" y="0px"
	 viewBox="0 0 168 42" enable-background="new 0 0 168 42" xml:space="preserve">
<g>
	<polygon fill="#BEC4CE" points="68.1,24.2 65.3,12.1 60.7,12.1 57.8,24.2 55.1,12.1 51.3,12.1 55.5,28.7 60,28.7 63,16 65.9,28.7 
		70.4,28.7 74.6,12.1 70.8,12.1 	"/>
	<path fill="#BEC4CE" d="M41.7,11.8c-4.5,0-7,2.8-7.8,5.3c-0.7,2.1-0.6,4.9,0,6.8c0.9,3,3.8,5.4,7.8,5.4s6.9-2.4,7.8-5.4
		c0.6-1.9,0.7-4.7,0-6.8C48.7,14.5,46.2,11.8,41.7,11.8z M45.8,23.1L45.8,23.1c-0.7,1.8-2.1,2.8-4.1,2.8c-2,0-3.4-1-4.1-2.8
		c-0.7-1.7-0.7-4,0-5.4c0.8-1.6,2.1-2.7,4-2.7c2,0,3.3,1.1,4,2.7C46.4,19.1,46.4,21.4,45.8,23.1z"/>
	<path fill="#BEC4CE" d="M23,12.1h-7.5v16.6h7.7c3.3,0,5.6-1.9,6.7-4.5c1-2.6,0.8-5.4,0-7.6C29.1,14.5,27,12.1,23,12.1z M26.3,22.9
		c-0.7,1.4-1.7,2.6-3.8,2.6h-3.3l0,0V15.4h3.4c1.9,0,3.2,1.1,3.8,2.6C27.1,19.5,27,21.6,26.3,22.9z"/>
	<path fill="#BEC4CE" d="M83.5,12.1c0,0,0,12.8,0,14.7c0,1.9-1.1,4.2-1.6,4.7h0l3.1,1.2c1-1.5,2.1-2.3,2.1-5.3c0-2.6,0-15.3,0-15.3
		H83.5z"/>
	<path fill="#BEC4CE" d="M149.8,19c-2.1-0.9-3.1-1.6-3.1-2.3c0-1,1-1.6,2.6-1.6c1.6,0,2.9,0.4,4.2,0.9l0.7-3.3c-1.6-0.6-3.5-1-5.1-1
		c-4.3,0-6.2,2.1-6.2,4.9c0,2.2,1.4,3.7,4.3,5c2.6,1.1,3.6,1.8,3.6,2.6c0,1-0.9,1.6-2.7,1.6c-1.2,0-3.1-0.5-4.5-1.2l-0.7,3.3
		c1.3,0.7,3.8,1.2,5.6,1.2l0,0c4,0,6.2-2,6.2-4.8C154.4,22.1,153.1,20.4,149.8,19z"/>
	<path fill="#BEC4CE" d="M107,19.2L107,19.2C107,19.2,107,19.2,107,19.2C107,19.2,107,19.2,107,19.2c-0.1-0.8-0.2-1.5-0.4-2.2
		c-0.8-2.5-3.3-5.3-7.8-5.3c-4.5,0-7,2.8-7.8,5.3c-0.7,2.1-0.6,4.9,0,6.8c0.3,0.9,0.8,1.8,1.4,2.6c0,0,0,0,0,0
		c1.4,1.7,3.6,2.8,6.4,2.8c4.1,0,6.9-2.4,7.8-5.4C107,22.5,107.2,20.9,107,19.2C107,19.2,107,19.2,107,19.2z M103.3,20.6
		C103.3,20.6,103.3,20.6,103.3,20.6c0,0.9-0.2,1.7-0.5,2.5c-0.7,1.8-2.1,2.8-4.1,2.8c-1.4,0-2.5-0.5-3.3-1.5c0,0,0,0,0,0
		c-0.3-0.4-0.6-0.8-0.8-1.3c-0.7-1.7-0.7-4,0-5.4c0.8-1.6,2.1-2.7,4-2.7c2,0,3.3,1.1,4,2.7C103.2,18.5,103.4,19.5,103.3,20.6z"/>
	<path fill="#BEC4CE" d="M121,12.1L121,12.1l0,4c1.1-0.1,2.2-0.3,3.3-0.4c-1.1,0.1-2.2,0.2-3.3,0.4l0,0l0,8.1l-3.9-7.5c0,0,0,0,0,0
		c0,0,0,0,0,0l-2.4-4.6h-4.6l0,0v6.2v10.5h3.7V17.3v0l0,0l0,0c0,0,0,0,0,0c0,0,0,0,0,0l6.2,11.4h4.6v-13c0,0,0,0,0,0v-3.6H121z"/>
	<polygon fill="#BEC4CE" points="132.4,25.5 132.4,21.8 138.7,21.8 138.7,18.5 132.5,18.5 132.4,15.4 132.4,15.4 139.9,15.4 
		139.9,12.1 128.8,12.1 128.8,15.4 128.8,28.7 139.9,28.7 139.9,25.5 	"/>
</g>
</svg>
