<?xml version="1.0" encoding="utf-8"?>
<!-- Generator: Adobe Illustrator 18.1.0, SVG Export Plug-In . SVG Version: 6.00 Build 0)  -->
<!DOCTYPE svg PUBLIC "-//W3C//DTD SVG 1.1//EN" "http://www.w3.org/Graphics/SVG/1.1/DTD/svg11.dtd">
<svg version="1.1" id="Layer_1" xmlns="http://www.w3.org/2000/svg" xmlns:xlink="http://www.w3.org/1999/xlink" x="0px" y="0px"
	 viewBox="0 0 168 42" enable-background="new 0 0 168 42" xml:space="preserve">
<g>
	<path fill="#BEC4CE" d="M35.4,6.5c2.8-2.1,6.7-2.8,10.1-1.9c2.1,0.5,4,1.7,5.5,3.2c-6.2,0.6-12.2,3.3-16.6,7.7
		c-5.1,5-8.1,12-8,19.2c-3.1,0-6.1,0-9.2,0c-2.2,0-4.4-1.1-5.7-2.9c-2.1-2.7-1.8-7,0.7-9.4c2.1-2.2,5.7-2.7,8.4-1.4
		c-0.3-3.4,2.3-6.6,5.6-7.3c1.6-0.3,3.2,0.1,4.6,0.8C31.1,11.3,32.8,8.4,35.4,6.5L35.4,6.5z"/>
	<path fill="#BEC4CE" d="M48.5,11.8c1.6-0.3,3.2-0.4,4.8-0.5c0.5,1.3,0.8,2.7,1,4c-4.2-0.2-8.6,1-12.1,3.4
		c-5.1,3.5-8.3,9.6-8.2,15.8c-1.4,0-2.7,0-4.1,0c0-5.1,1.6-10.1,4.7-14.1C38.1,16,43.1,12.9,48.5,11.8L48.5,11.8z"/>
	<path fill="#BEC4CE" d="M42.7,23.3c4.3-4.2,11.3-5.3,16.7-2.8c0.9,1.6,1.1,3.5,1,5.3c-2.4-1.9-5.5-2.8-8.6-2.4
		c-3.3,0.4-6.5,2.3-8.2,5.2c-1.1,1.8-1.7,3.9-1.7,6c-1.3,0-2.7,0-4,0C37.8,30.3,39.6,26.1,42.7,23.3L42.7,23.3z"/>
	<path fill="#BEC4CE" d="M48.6,28.3c2.4-1.8,5.9-2,8.6-0.5c0.8,0.4,1.5,1.1,2.1,1.7c-0.7,1.2-1.6,2.3-2.7,3.2
		c-0.5-0.6-0.9-1.2-1.6-1.5c-1.5-0.8-3.6-0.4-4.6,1c-0.5,0.7-0.7,1.5-0.8,2.3c-1.3,0-2.7,0-4,0C45.5,32.1,46.7,29.7,48.6,28.3
		L48.6,28.3z"/>
	<g>
		<path fill="#BEC4CE" d="M77.4,28.2c1.3-1.2,2.5-2.5,3.6-3.9c0.2-0.3,0.6-0.7,0.2-0.9c-0.6-0.1-1.2-0.1-1.8,0
			c-0.6,0.1-0.9,0.6-1.3,1c-1,1.2-2.2,2.3-3.5,3.3c0.5-2.5,1-5.1,1.5-7.6c0.1-0.4,0.1-0.7,0-1.1c-0.6-0.3-1.3-0.2-1.9-0.2
			c-0.5,0.1-0.6,0.6-0.7,1c-0.9,4.4-1.7,8.9-2.6,13.3c-0.1,0.4-0.1,0.8,0,1.1c0.7,0.3,1.5,0.2,2.3,0c0.3-1.2,0.5-2.5,0.8-3.7
			c0.4-0.2,0.8-0.5,1.3-0.8c0.6,1.4,1,2.9,1.7,4.3c0.5,0.4,1.3,0.3,1.9,0.3c0.3,0,0.9-0.2,0.7-0.6C78.9,31.9,78.1,30.1,77.4,28.2z"
			/>
		<path fill="#BEC4CE" d="M66.8,23.1c-0.8,0.1-1.6,0.4-2.2,0.9c-1.4,1-1.8,3.2-0.8,4.6c0.9,1.2,2.4,1.2,3.6,1.8
			c0.7,0.5,0.4,1.6-0.3,2c-1.3,0.7-2.8,0.2-4.2-0.2c-0.7,0.3-0.7,1.1-0.7,1.8c0.3,0.4,0.8,0.4,1.2,0.6c1.6,0.3,3.4,0.4,4.9-0.4
			c1.7-0.8,2.5-3.1,1.7-4.8c-0.8-1.3-2.5-1.3-3.7-1.9c-0.8-0.4-0.6-1.5,0.1-1.9c0.9-0.5,2.1-0.4,3-0.1c0.3,0.1,0.8,0.2,1-0.1
			c0.2-0.5,0.6-1.2,0.2-1.7C69.5,23,68.1,22.9,66.8,23.1z"/>
		<path fill="#BEC4CE" d="M96.2,25.1c1-0.2,1.9,0.3,2.9,0.3c0.5-0.5,0.9-1.8,0-2c-1.1-0.4-2.4-0.5-3.5-0.3c-1.3,0.2-2.6,0.9-3.2,2.1
			c-0.5,1.1-0.5,2.6,0.4,3.6c0.9,1,2.4,0.9,3.5,1.7c0.6,0.5,0.3,1.6-0.4,1.9c-1.2,0.6-2.6,0.3-3.8-0.1c-0.3-0.2-0.7,0-0.8,0.4
			c-0.1,0.5-0.5,1.1,0,1.5c0.8,0.4,1.8,0.5,2.7,0.5c1.4,0.1,3-0.2,4.1-1.2c1.1-1,1.4-2.6,1-4c-0.5-1.2-1.8-1.5-2.9-1.8
			c-0.6-0.2-1.4-0.4-1.4-1.2C94.6,25.7,95.4,25.2,96.2,25.1z"/>
		<path fill="#BEC4CE" d="M107.4,32.1c-1.2,0.1-2.5,0.6-3.7,0.1c-1.1-0.5-1.2-1.9-1.1-3c0.1-1.7,1.2-3.4,2.9-3.9
			c1.1-0.3,2.1,0.1,3.2,0.3c0.5-0.4,0.5-1.1,0.7-1.6c-0.3-0.8-1.3-0.9-2-1c-1.9-0.3-3.9,0.2-5.3,1.6c-1.6,1.6-2.2,4-2.1,6.2
			c0.1,1.2,0.6,2.6,1.7,3.2c1.4,0.8,3.1,0.7,4.7,0.4c0.5-0.1,1.1-0.4,1.2-1C107.5,33.1,107.9,32.4,107.4,32.1z"/>
		<path fill="#BEC4CE" d="M117.2,23.4c-1.6-0.7-3.5-0.4-5.2-0.1c-0.5,0.1-1.3,0.3-1.3,0.9c-0.1,0.4-0.2,1.3,0.5,1.3
			c1.4-0.3,2.8-0.8,4.2-0.3c0.8,0.4,0.6,1.3,0.5,2c-2.3-0.1-4.9,0.1-6.5,1.9c-1.2,1.4-1.3,4.1,0.4,5.1c1.6,0.8,3.7,0.4,5.1-0.8
			c0.2,1.3,2.3,1.7,3,0.6c0.5-0.8-0.7-1.4-0.4-2.2c0.3-2,0.8-3.9,1.1-5.8C118.7,25.1,118.3,23.8,117.2,23.4z M114.9,31.6
			c-0.7,0.6-1.6,1-2.6,1c-0.4,0-0.9-0.2-1.1-0.6c-0.3-0.8,0.2-1.8,0.9-2.2c1-0.6,2.2-0.7,3.3-0.7C115.3,29.9,115.2,30.8,114.9,31.6z
			"/>
		<path fill="#BEC4CE" d="M127.9,23.1c-1.7-0.4-3.5,0.3-4.8,1.3c-0.1-0.3,0-0.7-0.2-1c-0.6-0.2-1.3-0.2-1.9,0.1
			c-0.3,0.4-0.3,0.9-0.4,1.4c-0.5,3-1.2,6-1.7,9c0.4,0.6,1.2,0.4,1.8,0.4c0.5,0,0.7-0.5,0.8-0.9c0.4-2.2,0.9-4.4,1.2-6.6
			c1-0.9,2.3-1.6,3.7-1.2c0.7,0.2,0.8,1.1,0.7,1.7c-0.3,2.2-0.9,4.3-1.2,6.5c-0.1,0.6,0.6,0.6,1.1,0.6c0.5,0,1.2,0.1,1.4-0.5
			c0.4-1.4,0.6-2.9,0.9-4.4c0.2-1.4,0.7-2.8,0.6-4.2C129.6,24.2,128.9,23.3,127.9,23.1z"/>
		<path fill="#BEC4CE" d="M138.9,23.1c-1.7-0.3-3.4,0.3-4.7,1.4c0-0.2,0-0.5-0.1-0.7c-0.3-0.5-1.1-0.4-1.6-0.3
			c-0.5,0-0.7,0.5-0.7,0.9c-0.6,3-1.1,5.9-1.7,8.9c0,0.3-0.2,0.7,0,1c0.5,0.3,1.3,0.2,1.9,0.2c0.6-0.1,0.6-0.8,0.7-1.2
			c0.4-2.1,0.8-4.2,1.2-6.3c1-0.8,2.2-1.5,3.6-1.2c0.7,0.1,1,0.9,0.8,1.5c-0.3,2.3-1,4.6-1.3,7c0.3,0.5,0.9,0.4,1.4,0.4
			c0.4,0,0.8-0.2,1.1-0.4c0.3-1.8,0.7-3.5,1-5.3c0.2-1.1,0.5-2.3,0.4-3.4C140.8,24.2,140,23.3,138.9,23.1z"/>
		<path fill="#BEC4CE" d="M149.3,23.1c-1.6-0.3-3.3-0.1-4.7,0.8c-1.6,1.1-2.4,3-2.7,4.9c-0.2,1.5-0.2,3.1,0.6,4.3
			c0.9,1.3,2.7,1.6,4.1,1.5c1.1-0.1,2.3-0.1,3.2-0.7c0.4-0.5,0.6-1.4,0.2-1.9c-1.5,0.2-3.2,0.8-4.7,0c-0.8-0.4-0.9-1.4-0.9-2.2
			c2.1,0,4.2,0,6.3,0c0.4,0,0.9-0.2,0.9-0.6c0.3-1.3,0.4-2.7,0.1-4C151.4,24.2,150.4,23.3,149.3,23.1z M149.2,28.1c-1.5,0-3,0-4.5,0
			c0.3-1.1,0.8-2.2,1.9-2.7c0.7-0.3,1.7-0.4,2.3,0.3C149.5,26.3,149.3,27.2,149.2,28.1z"/>
		<path fill="#BEC4CE" d="M159.9,23.2c-1.3-0.3-2.7,0.4-3.6,1.3c-0.1-0.4,0.1-1-0.4-1.1c-0.7-0.1-1.8-0.2-1.9,0.7
			c-0.6,3.1-1.2,6.3-1.8,9.4c-0.1,0.4,0.1,0.8,0.5,0.8c0.7,0,1.8,0.2,2-0.7c0.5-2.4,0.9-4.9,1.4-7.4c0.7-0.4,1.5-0.7,2.3-0.8
			c0.5-0.1,1.1-0.1,1.3-0.6C159.8,24.4,160.2,23.8,159.9,23.2z"/>
		<path fill="#BEC4CE" d="M91.1,23.6c-0.4-0.4-1.1-0.3-1.7-0.3c-0.4,0-0.8,0.3-0.9,0.8c-0.5,2.3-0.9,4.6-1.4,6.9
			c-0.9,0.7-2.1,1.3-3.3,1c-0.7-0.2-0.7-1.1-0.6-1.6c0.3-2.2,0.9-4.3,1.2-6.5c-0.1-0.6-0.8-0.5-1.2-0.5c-0.5,0-1.2,0-1.3,0.5
			c-0.4,1.5-0.6,3-0.9,4.5c-0.3,1.5-0.7,3-0.4,4.4c0.3,1.2,1.5,1.7,2.6,1.7c1.2,0.1,2.4-0.4,3.4-1.1c-0.2,1.1-0.5,2.5-1.5,3.1
			c-1.1,0.8-2.5,0.5-3.7,0.4c-0.7,0.4-0.9,1.9,0.1,2c1.7,0.3,3.5,0.3,5-0.7c1.5-1,2.1-2.7,2.5-4.3c0.7-3,1.2-6.1,1.8-9.1
			C91,24.5,91.1,24.1,91.1,23.6z"/>
	</g>
</g>
</svg>
