<?xml version="1.0" encoding="utf-8"?>
<!-- Generator: Adobe Illustrator 18.1.0, SVG Export Plug-In . SVG Version: 6.00 Build 0)  -->
<!DOCTYPE svg PUBLIC "-//W3C//DTD SVG 1.1//EN" "http://www.w3.org/Graphics/SVG/1.1/DTD/svg11.dtd">
<svg version="1.1" id="Layer_1" xmlns="http://www.w3.org/2000/svg" xmlns:xlink="http://www.w3.org/1999/xlink" x="0px" y="0px"
	 viewBox="0 0 168 42" enable-background="new 0 0 168 42" xml:space="preserve">
<g id="BBC" transform="translate(-27.1382,-941.70395)">
	<g transform="matrix(0.82302261,0,0,-0.82302261,189.63913,997.27701)">
		<path fill="#BEC4CE" d="M-90.2,35.8c0-4.2-5.3-3.9-5.3-3.9h-5.3v7.6h5.3C-90.1,39.4-90.2,35.8-90.2,35.8 M-100.7,51h4.1
			c4.2-0.2,4.1-3.3,4.1-3.3c0-3.8-4.6-3.9-4.6-3.9h-3.4V51H-100.7z M-91.2,42.3c0,0,3.6,1.5,3.6,5.7c0,0,0.5,6.6-8.2,7.5h-9.8V27.5
			h11.2c0,0,9.4,0,9.4,7.9C-85.1,35.4-84.8,40.7-91.2,42.3 M-116.6,60.9h41.2V22h-41.2V60.9z"/>
	</g>
	<g transform="matrix(0.82302261,0,0,-0.82302261,85.355129,997.27701)">
		<path fill="#BEC4CE" d="M-11,35.8c0-4.2-5.3-3.9-5.3-3.9h-5.3v7.6h5.3C-10.9,39.4-11,35.8-11,35.8 M-21.6,51h4.1
			c4.2-0.2,4.1-3.3,4.1-3.3c0-3.8-4.6-3.9-4.6-3.9h-3.4V51H-21.6z M-12,42.3c0,0,3.6,1.5,3.6,5.7c0,0,0.5,6.6-8.2,7.5h-9.8V27.5
			h11.2c0,0,9.4,0,9.4,7.9C-6,35.4-5.8,40.7-12,42.3 M-37.4,60.9H3.8V22h-41.2V60.9z"/>
	</g>
	<g transform="matrix(0.82302261,0,0,-0.82302261,308.1885,958.5961)">
		<path fill="#BEC4CE" d="M-180.2,6.3V1.2c0,0-5,3.1-10.6,3.2c0,0-10.3,0.2-10.8-10c0,0-0.4-9.4,10.7-9.8c0,0,4.7-0.6,11,3.4v-5.3
			c0,0-8.5-5-18.3-1.1c0,0-8.2,3.1-8.6,12.9c0,0-0.4,10.2,10.7,13.5c0,0,3,1.1,8.2,0.6C-188,8.6-184.8,8.3-180.2,6.3 M-213.1-25
			h41.2v38.9h-41.2V-25z"/>
	</g>
</g>
</svg>
