<svg xmlns="http://www.w3.org/2000/svg" viewBox="0 0 360 283" enable-background="new 0 0 360 283"><path fill="#8EC348" d="M111.8 230.7h-34.3c-2.2 0-3.9-1.7-3.9-3.9v-60.5c0-2.2 1.7-3.9 3.9-3.9h34.2c2.2 0 3.9 1.7 3.9 3.9v60.5c.1 2.2-1.7 3.9-3.8 3.9zm-30.4-7.8h26.4v-52.7h-26.4v52.7zm87.5 7.8h-34.2c-2.2 0-3.9-1.7-3.9-3.9v-125.7c0-2.2 1.7-3.9 3.9-3.9h34.2c2.2 0 3.9 1.7 3.9 3.9v125.7c0 2.2-1.8 3.9-3.9 3.9zm-30.4-7.8h26.5v-117.9h-26.4v117.9h-.1z"/><path fill="#3B4251" d="M225.9 230.7h-34.3c-2.2 0-3.9-1.7-3.9-3.9v-201.7c0-2.2 1.7-3.9 3.9-3.9h34.3c2.2 0 3.9 1.7 3.9 3.9v201.7c0 2.2-1.7 3.9-3.9 3.9zm-30.3-7.8h26.4v-193.9h-26.4v193.9z"/><path fill="#8EC348" d="M283 230.7h-34.3c-2.2 0-3.9-1.7-3.9-3.9v-85c0-2.2 1.7-3.9 3.9-3.9h34.3c2.2 0 3.9 1.7 3.9 3.9v85c0 2.2-1.7 3.9-3.9 3.9zm-30.3-7.8h26.4v-77.2h-26.4v77.2zm61.4 36.4h-266.8c-2.2 0-3.9-1.7-3.9-3.9s1.7-3.9 3.9-3.9h266.8c2.2 0 3.9 1.7 3.9 3.9s-1.8 3.9-3.9 3.9z"/></svg>