<?xml version="1.0" encoding="utf-8"?>
<!-- Generator: Adobe Illustrator 18.1.0, SVG Export Plug-In . SVG Version: 6.00 Build 0)  -->
<!DOCTYPE svg PUBLIC "-//W3C//DTD SVG 1.1//EN" "http://www.w3.org/Graphics/SVG/1.1/DTD/svg11.dtd">
<svg version="1.1" id="Layer_1" xmlns="http://www.w3.org/2000/svg" xmlns:xlink="http://www.w3.org/1999/xlink" x="0px" y="0px"
	 viewBox="0 0 168 42" enable-background="new 0 0 168 42" xml:space="preserve">
<path id="NIKE" fill="#BEC4CE" d="M51.8,37.1c-2.5-0.1-4.6-0.8-6.1-2.1c-0.3-0.2-1-0.9-1.3-1.3c-0.7-0.8-1-1.6-1.4-2.5
	c-0.9-2.8-0.5-6.2,1.4-10.1c1.5-3.3,3.9-6.7,8-11.3C53,9,54.8,7.1,54.8,7.1s-0.1,0.1-0.2,0.3c-1,1.7-2,3.9-2.4,5.7
	c-0.8,2.9-0.7,5.4,0.2,7.4c0.7,1.4,1.8,2.5,3.1,3.1c2.3,1.2,5.7,1.3,9.7,0.2c0.2-0.1,14.2-3.8,31-8.2c16.7-4.5,30.4-8.1,30.4-8.1
	s-39,16.7-59.2,25.4c-3.2,1.4-4,1.7-5.5,2.2C58,36.5,54.6,37.2,51.8,37.1z"/>
</svg>
