<?xml version="1.0" encoding="utf-8"?>
<!-- Generator: Adobe Illustrator 18.1.0, SVG Export Plug-In . SVG Version: 6.00 Build 0)  -->
<!DOCTYPE svg PUBLIC "-//W3C//DTD SVG 1.1//EN" "http://www.w3.org/Graphics/SVG/1.1/DTD/svg11.dtd">
<svg version="1.1" id="Layer_1" xmlns="http://www.w3.org/2000/svg" xmlns:xlink="http://www.w3.org/1999/xlink" x="0px" y="0px"
	 viewBox="0 0 168 42" enable-background="new 0 0 168 42" xml:space="preserve">
<g>
	<path fill="#ADB6C4" d="M4.6,32.6c6.5-2.1,16.2-1.5,22.8,1.1C22.6,31.1,13,27.2,4.6,32.6z"/>
	<path fill="#ADB6C4" d="M12,20.3c0,0,0-0.1,0-0.1C12,20.3,12,20.3,12,20.3c0,0-0.4-4,2.4-6c2.9-2,7.1-0.8,7.1-0.8s-4.4-2.6-7.8-0.2
		c-0.1,0.1-0.2,0.1-0.2,0.2c1.4-1.7,3.5-2.8,5.9-2.8c2.4,0,4.6,1.1,6,2.8h3.2c-1.6-3.4-5.1-5.8-9.1-5.8c-5.5,0-10,4.4-10,9.9
		c0,0.6,0.1,1.2,0.2,1.8C10.5,19.5,11.3,19.8,12,20.3z"/>
	<path fill="#ADB6C4" d="M48.9,26.2c0,0-0.1,0.2-0.2,0.6C48.9,26.4,48.9,26.2,48.9,26.2z"/>
	<path fill="#ADB6C4" d="M41.5,31.7c-6.9,1.7-12.5-2.1-21.4-4.9C14.2,25,9.3,27.5,6.6,29.5c-1.4,1-2.2,1.9-2.2,1.9
		c0,0,0.8-0.4,2.2-1c2.8-1.2,8-2.7,13.3-0.7c7.9,3,14.2,4.3,21,3.1c5.4-0.9,7.3-4.5,7.8-5.9C48.3,27.9,46.7,30.4,41.5,31.7z"/>
	<path fill="#ADB6C4" d="M6.6,28.6c0.5-0.3,1-0.6,1.5-0.9c-0.2-0.1-0.4-0.3-0.6-0.5c-0.4-0.3-0.6-0.7-0.8-1.1
		c-0.9-1.7-0.6-3.7-0.6-3.7s-1.5,3.5,0.6,5.5L6.7,28c0.1,0.1,0.2,0.2,0.3,0.2c-0.1-0.1-0.2-0.1-0.3-0.2c-1.4-0.8-2.3-2.3-2.3-4
		c0-1.7,0.9-3.2,2.3-4c0.6-0.4,1.4-0.6,2.2-0.6c-0.1-0.6-0.2-1.2-0.2-1.8c0-0.4,0-0.7,0.1-1.1c-0.7,0-1.4,0.2-2,0.4
		c-2.9,1-4.9,3.7-4.9,6.8c0,2.5,1.3,4.8,3.3,6C5.5,29.4,6.1,29,6.6,28.6z"/>
	<path fill="#ADB6C4" d="M37.2,31c3.8-0.2,5.3-2.9,5.3-2.9s-1.2,1.4-5.2,1.8c-4,0.4-8.2-1.8-8.2-1.8C29,28.2,33.3,31.2,37.2,31z"/>
	<rect x="25.8" y="14.4" fill="#ADB6C4" width="3.6" height="3.6"/>
	<rect x="39.9" y="24.3" fill="#ADB6C4" width="2.8" height="2.8"/>
	<rect x="30.1" y="11.1" fill="#ADB6C4" width="4.8" height="4.8"/>
	<rect x="43.9" y="19.3" fill="#ADB6C4" width="4.8" height="4.8"/>
	<rect x="35.3" y="16.2" fill="#ADB6C4" width="2.7" height="2.7"/>
	<rect x="37.1" y="21.5" fill="#ADB6C4" width="2.7" height="2.7"/>
	<rect x="31.5" y="21.7" fill="#ADB6C4" width="2.7" height="2.7"/>
	<rect x="40.8" y="16.3" fill="#ADB6C4" width="2.7" height="2.7"/>
	<path fill="#ADB6C4" d="M68.1,16.2c-0.7-0.7-1.5-1.2-2.4-1.6c-0.9-0.4-2-0.6-3.1-0.6h-5.8v15.2h5.8c1.1,0,2.2-0.2,3.1-0.6
		c0.9-0.4,1.8-0.9,2.4-1.6c0.7-0.7,1.2-1.5,1.6-2.4c0.4-0.9,0.6-2,0.6-3.1c0-1.1-0.2-2.1-0.6-3.1C69.3,17.6,68.8,16.8,68.1,16.2z
		 M67,23.9c-0.2,0.7-0.5,1.2-1,1.7c-0.4,0.5-0.9,0.8-1.5,1.1c-0.6,0.2-1.3,0.4-2,0.4h-3V16.3h3c0.7,0,1.4,0.1,2,0.4
		c0.6,0.2,1.1,0.6,1.5,1.1c0.4,0.5,0.7,1,1,1.7c0.2,0.7,0.3,1.4,0.3,2.2C67.3,22.5,67.2,23.2,67,23.9z"/>
	<rect x="71.4" y="18.5" fill="#ADB6C4" width="2.6" height="10.8"/>
	<path fill="#ADB6C4" d="M73.9,14.1c-0.2-0.1-0.3-0.3-0.5-0.4c-0.2-0.1-0.4-0.1-0.7-0.1c-0.2,0-0.4,0-0.6,0.1
		c-0.2,0.1-0.4,0.2-0.5,0.4c-0.1,0.1-0.3,0.3-0.4,0.5c-0.1,0.2-0.1,0.4-0.1,0.7c0,0.2,0,0.4,0.1,0.6c0.1,0.2,0.2,0.4,0.4,0.5
		c0.1,0.1,0.3,0.3,0.5,0.4c0.2,0.1,0.4,0.1,0.6,0.1c0.2,0,0.4,0,0.7-0.1c0.2-0.1,0.4-0.2,0.5-0.4c0.2-0.1,0.3-0.3,0.4-0.5
		c0.1-0.2,0.1-0.4,0.1-0.6c0-0.2,0-0.4-0.1-0.7C74.2,14.5,74.1,14.3,73.9,14.1z"/>
	<path fill="#ADB6C4" d="M80.9,18.4c-0.4-0.1-0.8-0.1-1.3-0.1c-0.6,0-1.2,0.1-1.7,0.2c-0.5,0.2-1,0.4-1.4,0.7
		c-0.4,0.3-0.7,0.7-0.9,1.1c-0.2,0.4-0.3,0.9-0.3,1.4c0,0.7,0.2,1.2,0.5,1.7c0.3,0.5,0.7,0.9,1.3,1.2c-0.2,0.1-0.4,0.3-0.6,0.4
		c-0.2,0.2-0.3,0.3-0.4,0.5c-0.1,0.2-0.2,0.3-0.3,0.5c-0.1,0.2-0.1,0.3-0.1,0.5c0,0.4,0.1,0.7,0.2,1c0.2,0.2,0.4,0.4,0.6,0.6
		c-0.5,0.2-1,0.5-1.3,0.8c-0.3,0.3-0.5,0.8-0.5,1.3c0,0.4,0.1,0.7,0.3,1.1c0.2,0.3,0.5,0.6,0.9,0.9c0.4,0.3,0.9,0.5,1.5,0.6
		c0.6,0.2,1.3,0.2,2.1,0.2c0.8,0,1.6-0.1,2.2-0.3c0.6-0.2,1.2-0.5,1.6-0.8c0.4-0.4,0.8-0.8,1-1.2c0.2-0.4,0.4-0.9,0.4-1.4
		c0-0.5-0.1-0.9-0.3-1.3c-0.2-0.3-0.5-0.6-0.8-0.8c-0.3-0.2-0.7-0.3-1.1-0.4c-0.4-0.1-0.8-0.1-1.3-0.2c-0.4,0-0.9-0.1-1.3-0.1
		s-0.8,0-1.1-0.1c-0.3,0-0.6-0.1-0.8-0.2c-0.2-0.1-0.3-0.3-0.3-0.5c0-0.3,0.2-0.5,0.5-0.7c0.4,0.1,0.8,0.1,1.2,0.1
		c0.6,0,1.2-0.1,1.7-0.2c0.5-0.2,1-0.4,1.3-0.7c0.4-0.3,0.7-0.7,0.9-1.1c0.2-0.4,0.3-0.9,0.3-1.4c0-0.2,0-0.4-0.1-0.6
		c0-0.2-0.1-0.4-0.2-0.6l1-0.2c0.2,0,0.3-0.1,0.4-0.2c0.1-0.1,0.1-0.2,0.1-0.4v-1H82C81.7,18.6,81.3,18.5,80.9,18.4z M78.1,28.5
		c0.3,0.1,0.7,0.1,1,0.1c0.3,0,0.7,0,1,0c0.3,0,0.6,0,0.9,0.1c0.3,0,0.5,0.1,0.8,0.2c0.2,0.1,0.4,0.2,0.5,0.3
		c0.1,0.1,0.2,0.3,0.2,0.5c0,0.2-0.1,0.4-0.2,0.6c-0.1,0.2-0.3,0.3-0.5,0.5c-0.2,0.1-0.5,0.2-0.9,0.3c-0.3,0.1-0.8,0.1-1.2,0.1
		c-0.5,0-0.9,0-1.2-0.1c-0.3-0.1-0.6-0.2-0.8-0.3c-0.2-0.1-0.4-0.3-0.5-0.4c-0.1-0.2-0.1-0.3-0.1-0.5c0-0.3,0.1-0.5,0.3-0.8
		C77.5,28.9,77.8,28.7,78.1,28.5z M81.4,22.5c-0.1,0.2-0.2,0.4-0.4,0.6c-0.2,0.2-0.4,0.3-0.6,0.4c-0.2,0.1-0.5,0.1-0.8,0.1
		c-0.3,0-0.6,0-0.8-0.1c-0.2-0.1-0.4-0.2-0.6-0.4c-0.2-0.2-0.3-0.3-0.4-0.6c-0.1-0.2-0.1-0.5-0.1-0.7c0-0.5,0.2-1,0.5-1.3
		c0.3-0.3,0.8-0.5,1.4-0.5c0.6,0,1.1,0.2,1.4,0.5c0.3,0.3,0.5,0.7,0.5,1.3C81.5,22.1,81.5,22.3,81.4,22.5z"/>
	<path fill="#ADB6C4" d="M88.4,14.1c-0.2-0.1-0.3-0.3-0.5-0.4c-0.2-0.1-0.4-0.1-0.7-0.1c-0.2,0-0.4,0-0.6,0.1
		c-0.2,0.1-0.4,0.2-0.5,0.4c-0.1,0.1-0.3,0.3-0.4,0.5c-0.1,0.2-0.1,0.4-0.1,0.7c0,0.2,0,0.4,0.1,0.6c0.1,0.2,0.2,0.4,0.4,0.5
		c0.1,0.1,0.3,0.3,0.5,0.4c0.2,0.1,0.4,0.1,0.6,0.1c0.2,0,0.4,0,0.7-0.1c0.2-0.1,0.4-0.2,0.5-0.4c0.2-0.1,0.3-0.3,0.4-0.5
		c0.1-0.2,0.1-0.4,0.1-0.6c0-0.2,0-0.4-0.1-0.7C88.6,14.5,88.5,14.3,88.4,14.1z"/>
	<rect x="85.9" y="18.5" fill="#ADB6C4" width="2.6" height="10.8"/>
	<path fill="#ADB6C4" d="M95.8,27c0,0-0.1-0.1-0.2-0.1c-0.1,0-0.1,0-0.2,0.1c-0.1,0-0.1,0.1-0.2,0.1c-0.1,0-0.2,0.1-0.3,0.1
		c-0.1,0-0.2,0.1-0.4,0.1c-0.3,0-0.5-0.1-0.7-0.3c-0.2-0.2-0.3-0.5-0.3-0.8v-5.8h2.8v-1.8h-2.8v-3.4h-1.3c-0.2,0-0.3,0-0.4,0.1
		c-0.1,0.1-0.2,0.2-0.2,0.3l-0.5,2.9l-1.7,0.3v1c0,0.2,0.1,0.3,0.2,0.4c0.1,0.1,0.2,0.1,0.4,0.1H91v6c0,0.9,0.3,1.7,0.8,2.2
		c0.5,0.5,1.2,0.8,2.2,0.8c0.5,0,1-0.1,1.5-0.2c0.5-0.2,0.9-0.4,1.3-0.7l-0.8-1.3C95.9,27.1,95.8,27,95.8,27z"/>
	<path fill="#ADB6C4" d="M104.8,19.4c-0.3-0.4-0.8-0.7-1.3-0.9c-0.5-0.2-1.1-0.3-1.7-0.3c-1.7,0-3.2,0.6-4.5,1.7l0.5,0.8
		c0.1,0.1,0.2,0.2,0.3,0.3c0.1,0.1,0.3,0.1,0.5,0.1c0.2,0,0.4,0,0.6-0.1c0.2-0.1,0.4-0.2,0.6-0.3c0.2-0.1,0.4-0.2,0.7-0.3
		c0.3-0.1,0.6-0.1,1-0.1c0.6,0,1,0.2,1.3,0.5c0.3,0.3,0.5,0.9,0.5,1.6v0.6c-1.2,0-2.3,0.1-3.1,0.3c-0.8,0.2-1.5,0.5-2,0.8
		c-0.5,0.3-0.9,0.7-1.1,1.1c-0.2,0.4-0.3,0.8-0.3,1.2c0,0.5,0.1,0.9,0.2,1.3c0.2,0.4,0.4,0.7,0.6,0.9c0.3,0.2,0.6,0.4,1,0.6
		c0.4,0.1,0.8,0.2,1.3,0.2c0.4,0,0.7,0,1.1-0.1c0.3-0.1,0.6-0.2,0.9-0.3c0.3-0.1,0.6-0.3,0.8-0.5c0.3-0.2,0.5-0.4,0.8-0.6l0.2,0.8
		c0.1,0.2,0.2,0.4,0.3,0.4c0.1,0.1,0.3,0.1,0.6,0.1h1.2v-6.8c0-0.6-0.1-1.2-0.3-1.7C105.4,20.2,105.2,19.8,104.8,19.4z M103.3,26.5
		c-0.2,0.2-0.4,0.4-0.6,0.5c-0.2,0.1-0.4,0.3-0.6,0.4c-0.2,0.1-0.4,0.2-0.6,0.2c-0.2,0-0.5,0.1-0.7,0.1c-0.4,0-0.8-0.1-1.1-0.3
		c-0.3-0.2-0.4-0.5-0.4-1c0-0.2,0.1-0.4,0.2-0.6c0.1-0.2,0.3-0.4,0.7-0.5c0.3-0.1,0.7-0.3,1.2-0.4c0.5-0.1,1.1-0.1,1.9-0.1V26.5z"/>
	<rect x="107.5" y="13.6" fill="#ADB6C4" width="2.6" height="15.6"/>
	<path fill="#ADB6C4" d="M124.6,16.1c-0.7-0.7-1.5-1.2-2.4-1.6c-0.9-0.4-2-0.6-3.1-0.6c-1.1,0-2.2,0.2-3.1,0.6
		c-0.9,0.4-1.8,0.9-2.4,1.6c-0.7,0.7-1.2,1.5-1.6,2.5c-0.4,0.9-0.6,2-0.6,3.1c0,1.1,0.2,2.1,0.6,3.1c0.4,0.9,0.9,1.8,1.6,2.5
		c0.7,0.7,1.5,1.2,2.4,1.6c0.9,0.4,2,0.6,3.1,0.6c1.1,0,2.2-0.2,3.1-0.6c0.9-0.4,1.8-0.9,2.4-1.6c0.7-0.7,1.2-1.5,1.6-2.5
		c0.4-0.9,0.6-2,0.6-3.1c0-1.1-0.2-2.1-0.6-3.1C125.8,17.6,125.3,16.8,124.6,16.1z M123.5,23.9c-0.2,0.7-0.5,1.2-1,1.7
		c-0.4,0.5-0.9,0.8-1.5,1.1c-0.6,0.2-1.3,0.4-2,0.4c-0.7,0-1.4-0.1-2-0.4c-0.6-0.2-1.1-0.6-1.5-1.1c-0.4-0.5-0.7-1-1-1.7
		c-0.2-0.7-0.3-1.4-0.3-2.2c0-0.8,0.1-1.6,0.3-2.2c0.2-0.7,0.5-1.2,1-1.7c0.4-0.5,0.9-0.8,1.5-1.1c0.6-0.2,1.3-0.4,2-0.4
		c0.7,0,1.4,0.1,2,0.4c0.6,0.2,1.1,0.6,1.5,1.1c0.4,0.5,0.7,1,1,1.7c0.2,0.7,0.3,1.4,0.3,2.2C123.8,22.5,123.7,23.2,123.5,23.9z"/>
	<path fill="#ADB6C4" d="M134.9,26.4c-0.2,0-0.3,0.1-0.4,0.2c-0.1,0.1-0.3,0.2-0.5,0.3c-0.2,0.1-0.4,0.2-0.6,0.3
		c-0.3,0.1-0.6,0.2-1,0.2c-0.4,0-0.8-0.1-1.1-0.2c-0.3-0.2-0.6-0.4-0.8-0.7c-0.2-0.3-0.4-0.7-0.5-1.1c-0.1-0.4-0.2-1-0.2-1.5
		c0-0.6,0.1-1,0.2-1.5c0.1-0.4,0.3-0.8,0.5-1.1c0.2-0.3,0.5-0.5,0.9-0.7c0.3-0.2,0.7-0.2,1.2-0.2c0.4,0,0.7,0,0.9,0.1
		c0.2,0.1,0.4,0.2,0.6,0.3c0.2,0.1,0.3,0.2,0.5,0.3c0.1,0.1,0.3,0.1,0.4,0.1c0.1,0,0.2,0,0.3-0.1c0.1-0.1,0.1-0.1,0.2-0.2l0.7-0.9
		c-0.5-0.5-1-0.9-1.6-1.1c-0.6-0.3-1.3-0.4-2.1-0.4c-0.8,0-1.6,0.1-2.2,0.4c-0.7,0.3-1.2,0.7-1.6,1.2c-0.4,0.5-0.8,1.1-1,1.8
		c-0.2,0.7-0.3,1.4-0.3,2.2c0,0.9,0.1,1.7,0.4,2.4c0.3,0.7,0.6,1.3,1,1.7c0.4,0.5,0.9,0.8,1.5,1.1c0.6,0.2,1.2,0.4,1.9,0.4
		c0.4,0,0.8,0,1.1-0.1c0.4-0.1,0.8-0.2,1.1-0.3c0.4-0.1,0.7-0.3,1-0.5c0.3-0.2,0.6-0.5,0.9-0.8l-0.7-0.9
		C135.3,26.5,135.1,26.4,134.9,26.4z"/>
	<path fill="#ADB6C4" d="M144.5,19.6c-0.4-0.4-0.9-0.7-1.5-1c-0.6-0.2-1.2-0.3-1.9-0.3c-0.8,0-1.5,0.1-2.2,0.4
		c-0.6,0.3-1.2,0.7-1.6,1.1c-0.4,0.5-0.8,1-1,1.7c-0.2,0.6-0.4,1.3-0.4,2.1c0,0.9,0.1,1.8,0.4,2.5c0.3,0.7,0.6,1.3,1.1,1.8
		c0.5,0.5,1,0.9,1.7,1.1c0.6,0.2,1.3,0.4,2.1,0.4c0.4,0,0.8,0,1.2-0.1c0.4-0.1,0.8-0.2,1.2-0.3c0.4-0.1,0.8-0.3,1.1-0.5
		c0.4-0.2,0.7-0.5,1-0.8l-0.8-0.9c-0.1-0.1-0.1-0.1-0.2-0.2c-0.1,0-0.2-0.1-0.3-0.1c-0.2,0-0.3,0-0.5,0.1c-0.2,0.1-0.4,0.2-0.6,0.3
		c-0.2,0.1-0.5,0.2-0.8,0.3c-0.3,0.1-0.7,0.1-1.1,0.1c-0.9,0-1.5-0.3-2.1-0.8c-0.5-0.5-0.8-1.3-0.9-2.4h6.7c0.1,0,0.2,0,0.3,0
		c0.1,0,0.1-0.1,0.2-0.2c0-0.1,0.1-0.2,0.1-0.3c0-0.1,0-0.3,0-0.5c0-0.8-0.1-1.5-0.3-2.1C145.2,20.5,144.9,20,144.5,19.6z
		 M138.6,22.6c0.1-0.8,0.4-1.4,0.8-1.8c0.4-0.4,1-0.6,1.8-0.6c0.4,0,0.7,0.1,1,0.2c0.3,0.1,0.5,0.3,0.7,0.5c0.2,0.2,0.3,0.5,0.4,0.8
		c0.1,0.3,0.1,0.6,0.1,1H138.6z"/>
	<path fill="#ADB6C4" d="M154.3,19.4c-0.3-0.4-0.8-0.7-1.3-0.9c-0.5-0.2-1.1-0.3-1.7-0.3c-1.7,0-3.2,0.6-4.5,1.7l0.5,0.8
		c0.1,0.1,0.2,0.2,0.3,0.3c0.1,0.1,0.3,0.1,0.5,0.1c0.2,0,0.4,0,0.6-0.1c0.2-0.1,0.4-0.2,0.6-0.3c0.2-0.1,0.4-0.2,0.7-0.3
		c0.3-0.1,0.6-0.1,1-0.1c0.6,0,1,0.2,1.3,0.5c0.3,0.3,0.5,0.9,0.5,1.6v0.6c-1.2,0-2.3,0.1-3.1,0.3c-0.8,0.2-1.5,0.5-2,0.8
		c-0.5,0.3-0.9,0.7-1.1,1.1c-0.2,0.4-0.3,0.8-0.3,1.2c0,0.5,0.1,0.9,0.2,1.3s0.4,0.7,0.6,0.9c0.3,0.2,0.6,0.4,1,0.6
		c0.4,0.1,0.8,0.2,1.3,0.2c0.4,0,0.7,0,1-0.1c0.3-0.1,0.6-0.2,0.9-0.3c0.3-0.1,0.6-0.3,0.8-0.5c0.3-0.2,0.5-0.4,0.8-0.6l0.2,0.8
		c0.1,0.2,0.2,0.4,0.3,0.4c0.1,0.1,0.3,0.1,0.6,0.1h1.2v-6.8c0-0.6-0.1-1.2-0.3-1.7C154.9,20.2,154.6,19.8,154.3,19.4z M152.8,26.5
		c-0.2,0.2-0.4,0.4-0.6,0.5c-0.2,0.1-0.4,0.3-0.6,0.4c-0.2,0.1-0.4,0.2-0.6,0.2c-0.2,0-0.5,0.1-0.7,0.1c-0.4,0-0.8-0.1-1.1-0.3
		c-0.3-0.2-0.4-0.5-0.4-1c0-0.2,0.1-0.4,0.2-0.6c0.1-0.2,0.3-0.4,0.7-0.5c0.3-0.1,0.7-0.3,1.2-0.4c0.5-0.1,1.1-0.1,1.9-0.1V26.5z"/>
	<path fill="#ADB6C4" d="M166,20.7c-0.2-0.5-0.4-0.9-0.7-1.3c-0.3-0.4-0.7-0.6-1.1-0.8c-0.5-0.2-1-0.3-1.6-0.3c-0.4,0-0.7,0-1,0.1
		c-0.3,0.1-0.6,0.2-0.9,0.3c-0.3,0.1-0.5,0.3-0.8,0.5c-0.2,0.2-0.5,0.4-0.7,0.6l-0.2-0.9c-0.1-0.3-0.3-0.5-0.7-0.5h-1.6v10.8h2.6
		v-7.8c0.4-0.3,0.7-0.6,1.1-0.8c0.4-0.2,0.8-0.3,1.3-0.3c0.6,0,1.1,0.2,1.4,0.5c0.3,0.4,0.5,0.9,0.5,1.5v6.9h2.6v-6.9
		C166.2,21.8,166.1,21.2,166,20.7z"/>
</g>
</svg>
