<?xml version="1.0" encoding="utf-8"?>
<!-- Generator: Adobe Illustrator 18.1.0, SVG Export Plug-In . SVG Version: 6.00 Build 0)  -->
<!DOCTYPE svg PUBLIC "-//W3C//DTD SVG 1.1//EN" "http://www.w3.org/Graphics/SVG/1.1/DTD/svg11.dtd">
<svg version="1.1" id="Layer_1" xmlns="http://www.w3.org/2000/svg" xmlns:xlink="http://www.w3.org/1999/xlink" x="0px" y="0px"
	 viewBox="0 0 156 120" enable-background="new 0 0 156 120" xml:space="preserve">
<g>
	<path fill="#8DC63F" d="M66.2,50.5h24v24h-24V50.5z"/>
	<path fill="#3D4351" d="M79.3,56.5c1.8,0,3.1,0.6,4.3,1.7c0.1,0.1,0.2,0.4,0,0.5c-0.2,0.2-0.4,0.3-0.5,0.5c-0.2,0.2-0.3,0.2-0.5,0
		c-0.9-0.8-2.2-1.4-3.4-1.4c-2.8,0-5,2.4-5,5.1s2.1,5.2,5,5.2c2,0,3.2-0.7,3.2-0.7v-2.5h-2.1c-0.2,0-0.3-0.1-0.3-0.3v-0.7
		c0-0.2,0.1-0.3,0.3-0.3h3.2c0.2,0,0.3,0.2,0.3,0.3V68c0,0.1-0.1,0.2-0.1,0.3c0,0-1.8,1.2-4.4,1.2c-3.6,0-6.4-2.8-6.4-6.4
		C72.8,59.3,75.7,56.5,79.3,56.5z"/>
</g>
<g opacity="0.5">
	<path fill="#3D4351" d="M92.5,16.6c-0.1-0.2-0.2-0.6-0.1-0.9c0-0.9,0.8-1.7,1.7-1.7c1,0,1.8,0.8,1.8,1.8c0,0.1,0,0.2,0,0.3l2.2,1.3
		c0.3-0.3,0.8-0.5,1.3-0.5c0.2,0,0.3,0,0.6,0.1l3.4-5c-0.3-0.3-0.5-0.8-0.5-1.3c0-0.9,0.8-1.7,1.7-1.7c1,0,2,0.8,2,1.8
		c0,0.2,0,0.3-0.1,0.5l1.6,1V8.2c0-0.7-0.6-1.3-1.3-1.3H92c-0.7,0-1.3,0.6-1.3,1.3v10.2L92.5,16.6z"/>
	<path fill="#3D4351" d="M105.8,12.2c-0.3,0.2-0.7,0.3-1,0.3c-0.2,0-0.3,0-0.6-0.1l-3.4,5.1c0.3,0.3,0.5,0.8,0.5,1.3
		c0,0.9-0.8,1.7-1.7,1.7c-1,0-1.8-0.8-1.8-1.8c0-0.1,0-0.2,0-0.3l-2.2-1.3c-0.3,0.3-0.8,0.5-1.3,0.5c-0.3,0-0.7-0.1-0.9-0.2
		l-2.4,2.3v3.2c0,0.7,0.6,1.3,1.3,1.3h14.8c0.7,0,1.3-0.6,1.3-1.3v-9.2L105.8,12.2z"/>
</g>
<g transform="translate(-282.32053,-396.30734)" opacity="0.5">
	<path fill="#3D4351" d="M369.6,496.8c-0.7,0.3-1.3,0.4-2.1,0.6c0.7-0.4,1.3-1.2,1.6-2.1c-0.7,0.4-1.5,0.7-2.3,0.9
		c-0.7-0.7-1.6-1.2-2.6-1.2c-2.1,0-3.7,1.6-3.7,3.7c0,0.3,0,0.6,0.1,0.9c-3.1-0.1-5.9-1.6-7.6-3.8c-0.3,0.6-0.4,1.2-0.4,1.9
		c0,1.3,0.6,2.3,1.6,3.1c-0.6,0-1.2-0.1-1.6-0.4l0,0c0,1.8,1.3,3.2,2.9,3.7c-0.3,0.1-0.6,0.1-1,0.1c-0.3,0-0.4,0-0.7,0
		c0.4,1.5,1.9,2.5,3.5,2.6c-1.3,1-2.9,1.6-4.6,1.6c-0.3,0-0.6,0-0.9,0c1.6,1,3.5,1.6,5.7,1.6c6.8,0,10.6-5.6,10.6-10.6
		c0-0.1,0-0.3,0-0.4C368.4,498.2,369,497.5,369.6,496.8L369.6,496.8z"/>
</g>
<g opacity="0.5">
	<path fill="#3D4351" d="M120.4,37.3c-1.5,0-2.8,1.3-2.8,2.8s1.3,2.8,2.8,2.8c0.5,0,0.9-0.1,1.4-0.3v0.3c0,0.7-0.6,1.4-1.4,1.4
		c-0.3,0-0.7,0.3-0.7,0.7c0,0.4,0.3,0.7,0.7,0.7c1.5,0,2.8-1.3,2.8-2.8v-2.8C123.3,38.6,122.1,37.3,120.4,37.3 M120.4,41.5
		c-0.7,0-1.4-0.6-1.4-1.4c0-0.7,0.6-1.4,1.4-1.4c0.7,0,1.4,0.6,1.4,1.4C121.8,40.8,121.2,41.5,120.4,41.5z"/>
	<path fill="#3D4351" d="M106.7,37.3c-1.5,0-2.8,1.3-2.8,2.8V44c0,0.3,0.3,0.7,0.7,0.7c0.3,0,0.7-0.3,0.7-0.7v-1.5
		c0.3,0.2,0.8,0.3,1.4,0.3c1.5,0,2.8-1.3,2.8-2.8C109.5,38.6,108.2,37.3,106.7,37.3 M106.7,41.5c-0.7,0-1.4-0.6-1.4-1.4
		c0-0.7,0.6-1.4,1.4-1.4c0.7,0,1.4,0.6,1.4,1.4C108.1,40.8,107.4,41.5,106.7,41.5z"/>
	<path fill="#3D4351" d="M114.5,37.3c-1.5,0-2.8,1.3-2.8,2.8v2.1c0,0.3,0.3,0.7,0.7,0.7c0.3,0,0.7-0.3,0.7-0.7v-2
		c0-0.7,0.6-1.4,1.4-1.4c0.7,0,1.4,0.6,1.4,1.4v2.1c0,0.3,0.3,0.7,0.7,0.7c0.3,0,0.7-0.3,0.7-0.7v-2.1
		C117.3,38.6,116,37.3,114.5,37.3"/>
	<path fill="#3D4351" d="M132.3,37.3c-1.5,0-2.8,1.3-2.8,2.8s1.3,2.8,2.8,2.8s2.8-1.3,2.8-2.8C135.1,38.5,134,37.3,132.3,37.3
		 M132.3,41.4c-0.7,0-1.4-0.6-1.4-1.4c0-0.7,0.6-1.4,1.4-1.4c0.7,0,1.4,0.6,1.4,1.4C133.7,40.8,133.1,41.4,132.3,41.4z"/>
	<path fill="#3D4351" d="M128.5,35.3c-0.3,0-0.7,0.3-0.7,0.7v1.5c-0.3-0.2-0.8-0.3-1.4-0.3c-1.5,0-2.8,1.3-2.8,2.8s1.3,2.8,2.8,2.8
		s2.8-1.3,2.8-2.8V36C129.2,35.7,128.9,35.3,128.5,35.3 M126.4,41.5c-0.7,0-1.4-0.6-1.4-1.4c0-0.7,0.6-1.4,1.4-1.4
		c0.7,0,1.4,0.6,1.4,1.4C127.7,40.8,127.1,41.5,126.4,41.5z"/>
	<path fill="#3D4351" d="M110.6,37.3c-0.3,0-0.7,0.3-0.7,0.7v4.2c0,0.3,0.3,0.7,0.7,0.7c0.3,0,0.7-0.3,0.7-0.7V38
		C111.3,37.7,111,37.3,110.6,37.3"/>
	<path fill="#3D4351" d="M109.8,36.2c0,0.3,0.3,0.7,0.7,0.7s0.7-0.3,0.7-0.7c0-0.4-0.3-0.7-0.7-0.7S109.8,35.7,109.8,36.2"/>
	<path fill="#3D4351" d="M139.4,42.9c0.3,0,0.7-0.3,0.7-0.7V39c0-0.1,0.1-0.3,0.3-0.3c0.7,0,1.4,0.6,1.4,1.4v2.1
		c0,0.3,0.3,0.7,0.7,0.7c0.3,0,0.7-0.3,0.7-0.7v-2.1c0-1.5-1.3-2.8-2.8-2.8c-0.3,0-0.7,0.1-1,0.2c-0.3-0.1-0.7-0.2-1-0.2
		c-1.5,0-2.8,1.3-2.8,2.8v2.1c0,0.3,0.3,0.7,0.7,0.7c0.3,0,0.7-0.3,0.7-0.7v-2.1c0-0.7,0.6-1.4,1.4-1.4c0.1,0,0.3,0.1,0.3,0.3v3.1
		C138.6,42.5,138.9,42.9,139.4,42.9"/>
</g>
<g id="outlined_1_" opacity="0.5">
	<g>
		<circle fill="#3D4351" cx="17.4" cy="46.5" r="1.7"/>
		<circle fill="#3D4351" cx="23.6" cy="46.5" r="1.2"/>
		<circle fill="#3D4351" cx="28.7" cy="46.5" r="0.5"/>
	</g>
	<g>
		<path fill="#3D4351" d="M23.3,42.9c-0.3,0-0.5-0.2-0.5-0.5v-2.2c0-0.8-0.4-1.4-1.2-1.4c-0.8,0-1.3,0.6-1.3,1.4v2.2
			c0,0.3-0.2,0.5-0.5,0.5c-0.3,0-0.5-0.2-0.5-0.5v-2.2c0-0.8-0.4-1.4-1.2-1.4s-1.3,0.6-1.3,1.4v2.2c0,0.3-0.2,0.5-0.5,0.5
			c-0.3,0-0.5-0.2-0.5-0.5v-3.9c0-0.3,0.2-0.5,0.5-0.5c0.4,0,0.5,0.2,0.5,0.5v0.4c0.3-0.6,0.9-0.9,1.6-0.9c0.8,0,1.4,0.4,1.7,1
			c0.4-0.7,1.1-1,1.9-1c1.3,0,2,0.9,2,2.2v2.3C23.8,42.7,23.6,42.9,23.3,42.9z"/>
		<path fill="#3D4351" d="M25.2,35.9c0.3,0,0.6,0.3,0.6,0.6s-0.3,0.6-0.6,0.6c-0.3,0-0.6-0.3-0.6-0.6S24.9,35.9,25.2,35.9z
			 M25.2,42.9c-0.3,0-0.5-0.2-0.5-0.5v-4c0-0.3,0.2-0.5,0.5-0.5c0.3,0,0.5,0.2,0.5,0.5v4C25.8,42.7,25.6,42.9,25.2,42.9z"/>
		<path fill="#3D4351" d="M28.7,39.7l1.3-1.6c0.1-0.1,0.2-0.2,0.3-0.2c0.3,0,0.5,0.2,0.5,0.5c0,0.1,0,0.2-0.1,0.3l-1.5,1.7l1.5,1.7
			c0.1,0.1,0.1,0.2,0.1,0.3c0,0.3-0.2,0.5-0.5,0.5c-0.2,0-0.3-0.1-0.4-0.2l-1.3-1.7l-1.3,1.7c-0.1,0.1-0.2,0.2-0.4,0.2
			c-0.2,0-0.5-0.2-0.5-0.5c0-0.1,0-0.2,0.1-0.3l1.5-1.7l-1.4-1.8c-0.1-0.1-0.1-0.2-0.1-0.3c0-0.3,0.2-0.5,0.5-0.5
			c0.1,0,0.3,0.1,0.3,0.2L28.7,39.7z"/>
		<path fill="#3D4351" d="M34.4,43c-0.7,0-1.4-0.4-1.7-1v2.5c0,0.3-0.2,0.5-0.5,0.5c-0.3,0-0.5-0.2-0.5-0.5v-6
			c0-0.3,0.2-0.5,0.5-0.5c0.3,0,0.5,0.2,0.5,0.5v0.4c0.3-0.6,1-1,1.7-1c1.3,0,2.3,1.1,2.3,2.5C36.7,42,35.7,43,34.4,43z M34.2,38.7
			c-0.9,0-1.5,0.8-1.5,1.7c0,0.9,0.6,1.7,1.5,1.7c0.9,0,1.5-0.7,1.5-1.7C35.7,39.4,35.1,38.7,34.2,38.7z"/>
		<path fill="#3D4351" d="M42.2,42.4c0,0.3-0.2,0.5-0.5,0.5c-0.3,0-0.5-0.2-0.5-0.5v-0.2c-0.3,0.5-0.9,0.8-1.6,0.8
			c-1.5,0-2.4-1.1-2.4-2.5c0-1.4,1-2.5,2.6-2.5c1.6,0,2.5,1,2.5,2.5V42.4L42.2,42.4z M39.7,38.8c-0.9,0-1.5,0.7-1.5,1.7
			c0,1,0.5,1.7,1.5,1.7c0.9,0,1.5-0.8,1.5-1.7C41.2,39.4,40.6,38.8,39.7,38.8z"/>
		<path fill="#3D4351" d="M45.4,37.9c1.3,0,2.3,1,2.3,2.3v2.2c0,0.3-0.2,0.5-0.5,0.5s-0.5-0.2-0.5-0.5v-2.3c0-0.7-0.6-1.2-1.3-1.2
			s-1.3,0.5-1.3,1.2v2.3c0,0.3-0.2,0.5-0.5,0.5S43,42.7,43,42.4v-2.2C43.1,38.9,44,37.9,45.4,37.9z"/>
		<path fill="#3D4351" d="M53.1,40.4c0,0.2-0.1,0.4-0.4,0.4h-3.3c0.1,0.8,0.6,1.3,1.5,1.3c0.6,0,0.9-0.2,1.3-0.5
			c0.1-0.1,0.2-0.2,0.3-0.2c0.2,0,0.4,0.2,0.4,0.4c0,0.1-0.1,0.2-0.1,0.3c-0.4,0.5-1.2,0.8-2,0.8c-1.7,0-2.5-1.2-2.5-2.5
			c0-1.5,1.1-2.5,2.5-2.5C52.2,37.9,53.1,39,53.1,40.4z M50.8,38.7c-0.8,0-1.3,0.5-1.4,1.2h2.7C52.1,39.3,51.6,38.7,50.8,38.7z"/>
		<path fill="#3D4351" d="M54.4,42.9c-0.3,0-0.5-0.2-0.5-0.5v-6.5c0-0.3,0.2-0.5,0.5-0.5s0.5,0.2,0.5,0.5v6.5
			C54.9,42.7,54.7,42.9,54.4,42.9z"/>
	</g>
</g>
<g opacity="0.5">
	<path fill="#3D4351" d="M61.7,14.6c-0.2,0-0.3,0.1-0.4,0.2c-0.1,0.1-0.1,0.3-0.1,0.6c0,0.2,0,0.4,0.1,0.6c0.1,0.1,0.2,0.2,0.4,0.2
		c0.2,0,0.3-0.1,0.4-0.2c0.1-0.1,0.1-0.3,0.1-0.6c0-0.2,0-0.4-0.1-0.6C62,14.6,61.9,14.6,61.7,14.6z"/>
	<path fill="#3D4351" d="M55.9,14.5c-0.2,0-0.3,0.1-0.4,0.2c-0.1,0.1-0.1,0.2-0.1,0.3h1c0-0.1,0-0.3-0.1-0.3
		C56.2,14.6,56.1,14.5,55.9,14.5z"/>
	<path fill="#3D4351" d="M52.2,15.5c-0.1,0.1-0.1,0.2-0.1,0.3c0,0.1,0,0.1,0,0.2c0,0,0,0,0.1,0.1c0,0,0.1,0.1,0.4,0.1
		c0.2,0,0.4-0.1,0.4-0.1v-0.7c0,0-0.2,0-0.4,0C52.4,15.4,52.2,15.5,52.2,15.5z"/>
	<path fill="#3D4351" d="M65.6,9.5c-0.8,0-1.5,0.2-2.2,0.5c-0.8-1.4-2.2-2.3-3.8-2.3c-1.2,0-2.4,0.5-3.2,1.4
		c-0.9-1.2-2.3-1.9-3.8-1.9c-2.7,0-4.8,2.2-4.8,4.8c0,0.7,0.1,1.3,0.4,1.9c-1.2,0.7-2.1,2.1-2.1,3.6c0,2.3,1.9,4.2,4.2,4.2
		c0.3,0,0.6,0,0.9-0.1c0.6,1.7,2.3,2.9,4.2,2.9c1.8,0,3.4-1.1,4.1-2.7c0.5,0.3,1.1,0.4,1.7,0.4c1.5,0,2.8-0.8,3.4-2
		c0.3,0.1,0.7,0.1,1.1,0.1c3,0,5.4-2.4,5.4-5.4C70.9,11.9,68.5,9.5,65.6,9.5z M51.4,15.8c0,0.4-0.3,0.7-0.8,0.7
		c-0.3,0-0.5,0-0.7-0.2c0,0-0.1-0.1-0.1-0.1c0,0,0,0,0-0.1l0.1-0.3c0,0,0.1,0,0.1,0c0,0,0,0,0.1,0.1c0.3,0.2,0.6,0.2,0.7,0.2
		c0.2,0,0.4-0.1,0.4-0.3l0,0c0-0.2-0.2-0.2-0.5-0.3l-0.1,0c-0.3-0.1-0.7-0.2-0.7-0.7l0,0c0-0.4,0.3-0.7,0.8-0.7h0.1
		c0.3,0,0.5,0.1,0.7,0.2c0,0,0,0,0,0.1s-0.1,0.3-0.1,0.3c0,0-0.1,0-0.1,0c-0.2-0.1-0.4-0.2-0.6-0.2c-0.2,0-0.3,0.1-0.3,0.2l0,0
		c0,0.2,0.2,0.2,0.5,0.3h0C51,15.2,51.4,15.4,51.4,15.8L51.4,15.8z M53.5,16.4C53.5,16.4,53.4,16.4,53.5,16.4
		c-0.1,0-0.3,0.1-0.5,0.1c-0.1,0-0.3,0-0.4,0c-0.1,0-0.3,0-0.4,0c-0.1,0-0.2-0.1-0.3-0.1c-0.1-0.1-0.1-0.1-0.2-0.2
		c0-0.1-0.1-0.2-0.1-0.3c0-0.1,0-0.2,0.1-0.3c0.1-0.1,0.1-0.2,0.2-0.2c0.1-0.1,0.2-0.1,0.3-0.1c0.1,0,0.2,0,0.4,0c0.1,0,0.2,0,0.2,0
		c0,0,0.1,0,0.2,0V15c0-0.2,0-0.3-0.1-0.3c-0.1-0.1-0.2-0.1-0.4-0.1c0,0-0.4,0-0.6,0.1h0c0,0,0,0,0,0l-0.1-0.3c0,0,0-0.1,0-0.1
		c0.1-0.1,0.4-0.2,0.4-0.2c0.1,0,0.3,0,0.4,0c0.3,0,0.5,0.1,0.7,0.2c0.2,0.1,0.2,0.3,0.2,0.6L53.5,16.4
		C53.5,16.3,53.5,16.4,53.5,16.4z M54.4,16.4C54.4,16.4,54.4,16.4,54.4,16.4l-0.4,0c0,0,0,0,0,0v-3.1c0,0,0,0,0,0h0.4c0,0,0,0,0,0
		V16.4z M56.8,15.4C56.8,15.4,56.8,15.4,56.8,15.4l-1.5,0c0,0.2,0.1,0.4,0.2,0.5c0.1,0.1,0.3,0.2,0.5,0.2c0.3,0,0.5-0.1,0.6-0.1
		c0,0,0,0,0.1,0l0.1,0.3c0,0,0,0.1,0,0.1c-0.1,0.1-0.3,0.1-0.7,0.1c-0.2,0-0.4,0-0.5-0.1c-0.1-0.1-0.3-0.1-0.4-0.2
		C55.1,16,55,15.9,55,15.8c0-0.1-0.1-0.3-0.1-0.5c0-0.2,0-0.3,0.1-0.5c0-0.1,0.1-0.3,0.2-0.4c0.1-0.1,0.2-0.2,0.3-0.3
		c0.1-0.1,0.3-0.1,0.5-0.1c0.2,0,0.3,0,0.4,0.1c0.1,0,0.2,0.1,0.3,0.2c0.1,0.1,0.1,0.2,0.2,0.3C56.9,15.1,56.8,15.4,56.8,15.4z
		 M58,16.5c-0.3,0-0.5,0-0.7-0.2c0,0-0.1-0.1-0.1-0.1c0,0,0,0,0-0.1l0.1-0.3c0,0,0.1,0,0.1,0c0,0,0,0,0.1,0.1
		c0.3,0.2,0.6,0.2,0.7,0.2c0.2,0,0.4-0.1,0.4-0.3l0,0c0-0.2-0.2-0.2-0.5-0.3l-0.1,0c-0.3-0.1-0.7-0.2-0.7-0.7l0,0
		c0-0.4,0.3-0.7,0.8-0.7h0.1c0.3,0,0.5,0.1,0.7,0.2c0,0,0,0,0,0.1s-0.1,0.3-0.1,0.3c0,0-0.1,0-0.1,0c-0.2-0.1-0.4-0.2-0.6-0.2
		s-0.3,0.1-0.3,0.2l0,0c0,0.2,0.2,0.2,0.5,0.3h0c0.3,0.1,0.7,0.3,0.7,0.7l0,0C58.9,16.2,58.5,16.5,58,16.5z M60.5,14.6
		C60.5,14.6,60.5,14.6,60.5,14.6l-0.5,0l-0.3,1.8c0,0.2-0.1,0.4-0.1,0.5s-0.1,0.2-0.2,0.3c-0.1,0.1-0.2,0.1-0.3,0.2
		c-0.1,0-0.2,0.1-0.4,0.1c-0.1,0-0.1,0-0.2,0c-0.1,0-0.1,0-0.1,0s0,0,0-0.1c0,0,0.1-0.3,0.1-0.3c0,0,0.1,0,0.1,0c0,0,0,0,0.1,0
		s0.1,0,0.1,0c0.1,0,0.1,0,0.2,0C58.9,17,59,17,59,17s0.1-0.1,0.1-0.2c0-0.1,0.1-0.2,0.1-0.4l0.3-1.8h-0.3c0,0-0.1,0,0,0l0.1-0.3
		c0,0,0,0,0,0h0.3l0-0.1c0-0.3,0.1-0.5,0.3-0.7c0.1-0.1,0.3-0.2,0.6-0.2c0.1,0,0.1,0,0.2,0s0.1,0,0.1,0c0,0,0,0,0,0.1l-0.1,0.3
		c0,0,0,0-0.1,0c0,0,0,0-0.1,0c0,0-0.1,0-0.1,0c-0.1,0-0.1,0-0.2,0c0,0-0.1,0-0.1,0.1s-0.1,0.1-0.1,0.2c-0.1,0.2-0.1,0.3-0.1,0.3
		h0.5c0,0,0.1,0,0,0L60.5,14.6z M62.7,15.8c0,0.1-0.1,0.3-0.2,0.4c-0.1,0.1-0.2,0.2-0.3,0.2c-0.1,0.1-0.3,0.1-0.5,0.1
		c-0.2,0-0.3,0-0.5-0.1c-0.1-0.1-0.2-0.1-0.3-0.2c-0.1-0.1-0.2-0.2-0.2-0.4c0-0.1-0.1-0.3-0.1-0.5c0-0.2,0-0.3,0.1-0.5
		c0-0.1,0.1-0.3,0.2-0.4c0.1-0.1,0.2-0.2,0.3-0.2c0.1-0.1,0.3-0.1,0.5-0.1c0.2,0,0.3,0,0.5,0.1c0.1,0.1,0.2,0.1,0.3,0.2
		c0.1,0.1,0.2,0.2,0.2,0.4c0,0.1,0.1,0.3,0.1,0.5C62.7,15.5,62.7,15.6,62.7,15.8z M64.4,14.3c0,0-0.1,0.2-0.1,0.3c0,0,0,0-0.1,0
		c0,0-0.1,0-0.2,0c-0.1,0-0.1,0-0.2,0s-0.1,0.1-0.2,0.1c-0.1,0.1-0.1,0.1-0.1,0.2c0,0.1,0,0.2,0,0.4v1.1c0,0,0,0,0,0h-0.4
		c0,0,0,0,0,0v-2.2c0,0,0,0,0,0h0.4c0,0,0,0,0,0v0.2c0.1-0.1,0.2-0.1,0.2-0.2c0.1,0,0.2-0.1,0.4-0.1c0.1,0,0.2,0,0.2,0
		C64.4,14.2,64.5,14.2,64.4,14.3z M66.2,16.4c-0.2,0.1-0.4,0.1-0.6,0.1c-0.4,0-0.7-0.1-0.8-0.3c-0.2-0.2-0.3-0.5-0.3-0.8
		c0-0.2,0-0.3,0.1-0.5c0-0.1,0.1-0.3,0.2-0.4c0.1-0.1,0.2-0.2,0.3-0.2c0.1-0.1,0.3-0.1,0.5-0.1c0.1,0,0.2,0,0.3,0
		c0.1,0,0.2,0.1,0.3,0.1c0,0,0,0,0,0.1c0,0.1-0.1,0.2-0.1,0.3c0,0,0,0,0,0c-0.1,0-0.3-0.1-0.5-0.1c-0.2,0-0.4,0.1-0.5,0.2
		C65.1,15,65,15.2,65,15.4c0,0.3,0.1,0.5,0.2,0.6c0.1,0.1,0.3,0.2,0.5,0.2c0.1,0,0.2,0,0.2,0c0.1,0,0.1,0,0.2-0.1c0,0,0,0,0.1,0
		L66.2,16.4C66.3,16.4,66.2,16.4,66.2,16.4z M68.4,15.4C68.4,15.4,68.3,15.4,68.4,15.4l-1.5,0c0,0.2,0.1,0.4,0.2,0.5
		c0.1,0.1,0.3,0.2,0.5,0.2c0.3,0,0.5-0.1,0.6-0.1c0,0,0,0,0.1,0l0.1,0.3c0,0,0,0.1,0,0.1c-0.1,0.1-0.3,0.1-0.7,0.1
		c-0.2,0-0.4,0-0.5-0.1c-0.1-0.1-0.3-0.1-0.4-0.2c-0.1-0.1-0.2-0.2-0.2-0.4c0-0.1-0.1-0.3-0.1-0.5c0-0.2,0-0.3,0.1-0.5
		c0-0.1,0.1-0.3,0.2-0.4c0.1-0.1,0.2-0.2,0.3-0.3c0.1-0.1,0.3-0.1,0.5-0.1s0.3,0,0.4,0.1c0.1,0,0.2,0.1,0.3,0.2
		c0.1,0.1,0.1,0.2,0.2,0.3C68.4,15.1,68.4,15.4,68.4,15.4z"/>
	<path fill="#3D4351" d="M67.4,14.5c-0.2,0-0.3,0.1-0.4,0.2c-0.1,0.1-0.1,0.2-0.1,0.3h1c0-0.1,0-0.3-0.1-0.3
		C67.7,14.6,67.6,14.5,67.4,14.5z"/>
</g>
<g opacity="0.5">
	<g>
		<g>
			<path fill="#3D4351" d="M117.5,64.2c-0.4,0.2-0.8,0.3-1.2,0.3c-0.3,0-0.5,0-0.8-0.1c-0.4,0.4-0.9,0.6-1.1,0.8
				c0.3,0.5,0.8,0.9,1.5,1.1c0.2,0,0.4,0.1,0.6,0.1c0.4,0,0.9-0.1,1.2-0.3c0.1-0.2,0.1-0.4,0.1-0.6C117.7,65,117.6,64.6,117.5,64.2z
				"/>
		</g>
		<g>
			<path fill="#3D4351" d="M117,61.1C117,61.1,117,61.1,117,61.1L117,61.1C117,61.1,117,61.1,117,61.1z"/>
			<path fill="#3D4351" d="M116.9,61.1c-0.1,0.5-0.3,0.9-0.6,1.2c0,0.1,0,0.2,0,0.3c0,0.6-0.3,1.1-0.7,1.5c0.1,0,0.2,0,0.3,0
				c0.5,0,1.1-0.2,1.5-0.5c0.5-0.4,0.8-1,0.9-1.6c-0.3-0.5-0.9-0.8-1.4-0.9C117,61.1,117,61.1,116.9,61.1L116.9,61.1z"/>
		</g>
		<g>
			<path fill="#3D4351" d="M116.6,60.7c0-0.7-0.3-1.3-0.7-1.7h0c-0.6,0-1.1,0.2-1.6,0.6c0.4,0.5,0.6,1.1,0.6,1.7c0,0,0,0.1,0,0.1
				c0.1,0,0.2,0,0.3,0c0,0,0,0,0,0c0.4,0,0.8,0.2,1,0.6C116.4,61.6,116.6,61.2,116.6,60.7z"/>
		</g>
		<g>
			<path fill="#3D4351" d="M112.2,59.1c0,0-0.1,0-0.1,0c-0.4,0.4-0.6,1-0.6,1.6v0c0,0,0.1,0,0.1,0c0.7,0,1.3,0.3,1.7,0.7
				c0.4,0,0.7,0.2,0.9,0.6c0.1-0.2,0.3-0.4,0.4-0.4c0,0,0-0.1,0-0.1c0-0.7-0.3-1.3-0.8-1.8C113.3,59.3,112.7,59.1,112.2,59.1z"/>
		</g>
		<g>
			<path fill="#3D4351" d="M112.9,61.5L112.9,61.5L112.9,61.5z"/>
			<path fill="#3D4351" d="M112.9,61.5c-0.4-0.2-0.8-0.3-1.2-0.3c-0.1,0-0.3,0-0.4,0c-0.6,0.1-1.2,0.5-1.5,1
				c0.1,0.6,0.4,1.1,0.9,1.5c0.4-0.5,0.9-0.8,1.4-0.9c0,0,0-0.1,0-0.1C112,62,112.4,61.6,112.9,61.5z"/>
		</g>
		<g>
			<path fill="#3D4351" d="M110.7,64.2c-0.2,0.4-0.3,0.8-0.3,1.1c0,0.2,0,0.5,0.1,0.7c0.4,0.2,0.8,0.3,1.2,0.3c0.2,0,0.4,0,0.6-0.1
				c-0.1-0.2-0.1-0.4-0.1-0.7c0-0.5,0.2-1,0.5-1.4c-0.3-0.3-0.5-0.7-0.6-1.1C111.5,63.3,111,63.7,110.7,64.2z"/>
		</g>
		<g>
			<rect x="112.8" y="66.5" fill="#3D4351" width="0" height="0"/>
			<path fill="#3D4351" d="M114.1,67.7c0.5-0.2,1-0.7,1.3-1.3c-0.6-0.3-1.1-0.7-1.3-1.3c-0.2-0.1-0.7-0.4-1.2-0.8
				c-0.2,0.3-0.3,0.7-0.3,1.1c0,0.3,0.1,0.7,0.2,1C113.1,67.1,113.5,67.5,114.1,67.7z"/>
			<polygon fill="#3D4351" points="112.8,66.5 112.8,66.5 112.8,66.5 			"/>
		</g>
		<g>
			<path fill="#3D4351" d="M122,64.8l-2.1,2.5h1.8c0.2,0,0.4,0.2,0.4,0.4c0,0.2-0.2,0.4-0.4,0.4H119c-0.2,0-0.4-0.2-0.4-0.4
				c0-0.1,0-0.2,0.1-0.3l2.1-2.5H119c-0.2,0-0.4-0.2-0.4-0.4c0-0.2,0.2-0.4,0.4-0.4h2.6c0.3,0,0.4,0.2,0.4,0.4
				C122,64.6,122,64.7,122,64.8z"/>
			<path fill="#3D4351" d="M126.2,66.3c0,0,0,0-2.8,0c0,0.6,0.5,1.1,1.2,1.1c0.5,0,0.9-0.2,1.2-0.5c0.1-0.1,0.1-0.1,0.2-0.1
				c0.1,0,0.2,0.1,0.3,0.1c0,0.1,0.1,0.1,0.1,0.2c0,0.1,0,0.2-0.1,0.3c-0.4,0.4-1,0.7-1.6,0.7c-1.1,0-2.1-0.9-2.1-2.1
				c0-1.1,0.9-2.1,2-2.1s2,0.9,2,2C126.5,66.2,126.4,66.3,126.2,66.3z M124.6,64.7c-0.6,0-1,0.4-1.1,1c1.4,0,2.2,0,2.2,0
				C125.6,65.2,125.2,64.7,124.6,64.7z"/>
			<path fill="#3D4351" d="M135.4,68.1c-0.2,0-0.4-0.2-0.4-0.4v-0.2c-0.3,0.4-0.7,0.7-1.3,0.7c-1.1,0-1.9-0.9-1.9-2.1
				c0-1.2,0.8-2.1,1.9-2.1c0.6,0,1.1,0.3,1.3,0.7v-2.3c0-0.2,0.2-0.4,0.4-0.4c0.2,0,0.4,0.2,0.4,0.4v5.3
				C135.8,67.9,135.6,68.1,135.4,68.1z M133.8,64.8c-0.7,0-1.2,0.6-1.2,1.3c0,0.7,0.5,1.3,1.2,1.3c0.7,0,1.2-0.5,1.2-1.3
				C134.9,65.3,134.5,64.8,133.8,64.8z"/>
			<path fill="#3D4351" d="M140.3,66.3c0,0,0,0-2.8,0c0,0.6,0.5,1.1,1.2,1.1c0.5,0,0.9-0.2,1.2-0.5c0.1-0.1,0.1-0.1,0.2-0.1
				c0.1,0,0.2,0.1,0.3,0.1c0,0.1,0.1,0.1,0.1,0.2c0,0.1,0,0.2-0.1,0.3c-0.4,0.4-1,0.7-1.6,0.7c-1.1,0-2.1-0.9-2.1-2.1
				c0-1.1,0.9-2.1,2-2.1s2,0.9,2,2C140.6,66.2,140.5,66.3,140.3,66.3z M138.6,64.7c-0.6,0-1,0.4-1.1,1c1.4,0,2.2,0,2.2,0
				C139.7,65.2,139.2,64.7,138.6,64.7z"/>
			<path fill="#3D4351" d="M142.8,68.1c-0.4,0-1-0.1-1.4-0.4c-0.1-0.1-0.2-0.2-0.2-0.3c0,0,0-0.1,0-0.1c0.1-0.1,0.2-0.2,0.3-0.2
				c0.1,0,0.1,0,0.2,0.1c0.3,0.2,0.7,0.3,1.1,0.3c0.4,0,0.9-0.1,0.9-0.5c0-0.3-0.2-0.4-1.2-0.7c-0.8-0.3-1.1-0.6-1.1-1.2
				c0-0.7,0.7-1.1,1.5-1.1c0.6,0,1,0.1,1.3,0.3c0.2,0.1,0.2,0.2,0.2,0.3c0,0,0,0.1,0,0.1c-0.1,0.1-0.2,0.2-0.3,0.2c0,0-0.1,0-0.1,0
				c-0.3-0.2-0.7-0.2-1-0.2c-0.5,0-0.8,0.1-0.8,0.4c0,0.3,0.2,0.4,0.9,0.6c0.8,0.3,1.4,0.5,1.4,1.2
				C144.5,67.6,143.9,68.1,142.8,68.1z"/>
			<path fill="#3D4351" d="M148.5,68.1c-0.1,0-0.2,0-0.3-0.1l-1.5-1.7l-0.4,0.4v1c0,0.2-0.2,0.4-0.4,0.4c-0.2,0-0.4-0.2-0.4-0.4
				v-5.3c0-0.2,0.2-0.4,0.4-0.4s0.4,0.2,0.4,0.4v3.2l1.9-1.4c0.1-0.1,0.2-0.1,0.2-0.1c0.1,0,0.2,0.1,0.3,0.2
				c0.1,0.1,0.1,0.2,0.1,0.3c0,0.1-0.1,0.2-0.2,0.3l-1.3,1l1.4,1.7c0.1,0.1,0.1,0.2,0.1,0.3C148.9,67.9,148.7,68.1,148.5,68.1z"/>
			<path fill="#3D4351" d="M129.2,64c-1,0-1.9,0.8-1.9,1.9v1.8c0,0.2,0.2,0.4,0.4,0.4c0.2,0,0.4-0.2,0.4-0.4v-1.8
				c0-0.6,0.3-1.1,1-1.1c0.6,0,1,0.5,1,1.1v1.8c0,0.2,0.2,0.4,0.4,0.4s0.4-0.2,0.4-0.4v-1.8C131,64.8,130.2,64,129.2,64z"/>
		</g>
	</g>
	<g>
		<path fill="#3D4351" d="M147.9,62.4c0-0.2,0.2-0.4,0.4-0.4s0.4,0.2,0.4,0.4c0,0.2-0.2,0.4-0.4,0.4
			C148.1,62.8,147.9,62.6,147.9,62.4z M148.7,62.4c0-0.2-0.1-0.3-0.3-0.3c-0.2,0-0.3,0.1-0.3,0.3c0,0.2,0.1,0.3,0.3,0.3
			C148.6,62.7,148.7,62.6,148.7,62.4z M148.2,62.5v-0.4c0,0,0-0.1,0.1-0.1h0.2c0.1,0,0.2,0.1,0.2,0.1c0,0.1,0,0.1-0.1,0.1l0.1,0.1v0
			c0,0,0,0,0,0c0,0,0,0-0.1,0l-0.1-0.2h-0.1l0,0v0.1C148.4,62.5,148.3,62.6,148.2,62.5C148.2,62.6,148.2,62.6,148.2,62.5z
			 M148.5,62.3C148.5,62.2,148.4,62.2,148.5,62.3l-0.2-0.1l0,0v0.1l0,0L148.5,62.3C148.4,62.3,148.5,62.3,148.5,62.3z"/>
	</g>
</g>
<g opacity="0.5">
	<g>
		<path fill="#3D4351" d="M31.4,87.2L31.4,87.2L31.4,87.2z"/>
		<path fill="#3D4351" d="M57.8,89.6L57.8,89.6c0.8,0,1.4-0.6,1.4-1.3c0-0.4-0.1-0.7-0.3-1c-0.2-0.3-0.5-0.4-0.9-0.4l0,0
			c-0.5,0-0.9,0.4-1.4,1.1l0,0.1l0-0.1c-0.1-0.3-0.2-0.6-0.3-0.8c0-0.1-0.1-0.2-0.1-0.2c0-0.1-0.1-0.1-0.2-0.1c-0.1,0-0.1,0-0.2,0.1
			c-0.1,0-0.1,0.1-0.1,0.1l0,0c-0.4,1.4-0.8,2.1-1.1,2.1c0,0-0.1,0-0.1,0c-0.1-0.1-0.1-0.3,0-0.6c0-0.2,0-0.5,0-0.7
			c0-0.5-0.3-0.8-0.7-0.8c-0.6,0-0.9,0.6-1.1,1L52.5,88v-0.1c0-0.4-0.2-1-0.7-1c-0.5,0-1,0.6-1.2,1.2l-0.1,0.1v-0.2
			c0-0.7,0.1-1.1,0.1-1.3c0-0.1,0-0.2,0-0.2s-0.1-0.1-0.2-0.1c-0.2,0-0.3,0.1-0.4,0.5c-0.2,0.6-0.8,1.9-1.2,1.9
			c-0.1,0-0.2,0-0.2-0.1c-0.2-0.2-0.1-0.8,0-1.6v-0.1c0-0.4,0-0.5-0.2-0.5c0,0,0,0-0.1,0c-0.2,0-0.2,0.2-0.4,0.6
			c-0.3,0.8-0.6,1.6-1,1.6h0c-0.2,0-0.2-0.4-0.2-0.8c0-0.2,0-0.5,0-0.7c-0.1-0.4-0.3-0.7-0.6-0.7c-0.7,0-1.1,0.8-1.3,1.3l0,0.1V88
			c0-0.2-0.1-0.6-0.1-1l0,0l0,0c1.2-1.5,1.8-2.6,1.8-3.6c0-0.6-0.3-1-0.7-1c-0.3,0-1.2,0.3-1.5,3c-0.1,0.5-0.1,1-0.1,1.5l0,0l0,0
			c-0.6,0.8-1.8,2.2-2.9,2.2c-1.1,0-1.9-0.9-1.9-2.4c0-2,1.4-3.3,2.5-3.3l0,0c0.2,0,0.4,0.1,0.6,0.2c0.2,0.1,0.2,0.3,0.2,0.5
			c0,0.3-0.1,0.4-0.2,0.6c0,0,0,0.1-0.1,0.1c0,0,0,0.1,0,0.1c0,0,0.1,0.1,0.2,0.1c0.3,0,0.6-0.4,0.6-0.9c0-0.6-0.5-1.2-1.4-1.2
			c-1.3,0-3.1,1.5-3.1,3.8c0,1.7,1,2.8,2.5,2.8c1,0,2-0.7,2.9-1.9l0.1-0.1v0.1c0,0.4,0.1,0.8,0.1,1c0,0.2,0,0.3,0,0.3
			c0,0.1,0,0.2,0.1,0.3c0,0.1,0.1,0.1,0.2,0.1c0.2,0,0.2-0.1,0.3-0.5l0-0.1c0.1-0.4,0.5-1.7,1-1.7c0.1,0,0.2,0,0.2,0.1
			c0.1,0.1,0.1,0.4,0.1,0.7c0,0.2,0,0.4,0,0.6c0.1,0.5,0.3,0.8,0.7,0.8c0.4,0,0.8-0.4,1.1-0.9l0-0.1l0,0.1c0,0.2,0.2,1,0.8,1
			c0.5,0,1-0.6,1.5-1.7l0.1-0.2v0.2c0,0.4,0,1,0,1.4c0,0.3,0,0.4,0.2,0.4h0c0.1,0,0.2-0.1,0.3-0.3c0.4-1.3,0.7-1.9,1-1.9
			c0.3,0,0.3,0.6,0.4,1.6V89c0,0.4,0,0.5,0.2,0.5c0.2,0,0.2-0.1,0.3-0.5c0-0.1,0-0.1,0.1-0.2c0.3-1.1,0.6-1.5,0.9-1.5
			c0.3,0,0.3,0.3,0.3,0.4c0,0.2,0,0.4,0,0.6c0,0.2,0,0.4,0,0.6c0,0.4,0.2,0.6,0.6,0.6c0.5,0,1-0.6,1.4-1.8l0-0.1l0,0.1
			c0.1,0.2,0.2,0.4,0.3,0.7l0,0l0,0c-0.4,0.9-0.7,1.8-0.7,2.4c0,0.7,0.3,1.1,0.8,1.1l0,0c0.3,0,0.9-0.1,0.9-1.1c0-0.4-0.1-1-0.3-1.7
			l0-0.1l0.1,0C57.2,89.5,57.5,89.6,57.8,89.6z M44.5,86.2c0-0.2,0-0.5,0.1-0.7c0.2-1.5,0.6-2.5,1-2.5l0,0c0.2,0,0.3,0.1,0.3,0.4
			C45.8,84.1,45.4,85.1,44.5,86.2l0,0.1L44.5,86.2z M56.6,91.5c-0.1,0.1-0.1,0.1-0.2,0.1c-0.1,0-0.2,0-0.3-0.1
			c-0.2-0.2-0.1-0.8,0.2-1.8c0-0.1,0.1-0.2,0.1-0.4l0-0.1l0,0.1C56.7,90.5,56.8,91.2,56.6,91.5z M56.7,88.6L56.7,88.6L56.7,88.6
			L56.7,88.6c0.3-0.8,0.8-1.2,1.1-1.2l0,0c0.4,0,0.7,0.4,0.7,0.9c0,0.4-0.2,0.6-0.3,0.7c-0.2,0.1-0.4,0.2-0.6,0.2
			C57.2,89.1,56.9,88.8,56.7,88.6z"/>
		<path fill="#3D4351" d="M57.8,87.3L57.8,87.3L57.8,87.3z"/>
		<path fill="#3D4351" d="M32.8,89.4c0.6,0,1-0.8,1.2-1.2l0-0.1v0.1c0.1,0.5,0.3,1.3,1.1,1.3l0,0c0.3,0,0.7-0.2,1.1-0.6l0,0l0,0
			c0.3,0.4,0.6,0.7,1,0.7c0.6,0,0.9-0.4,0.9-0.7c0-0.1,0-0.1-0.1-0.2c-0.1-0.1-0.1-0.1-0.2,0l0,0c-0.1,0.1-0.4,0.4-0.6,0.4
			c-0.3,0-0.6-0.2-0.7-0.6v0l0,0c0.9-1.2,1.5-3,1.5-4.2c0-0.6-0.2-1.2-0.8-1.2h0c-0.2,0-0.4,0.1-0.6,0.3c-0.6,0.6-0.9,2.2-0.8,4
			c0,0.4,0.1,0.7,0.2,1v0l0,0c-0.3,0.4-0.7,0.6-0.9,0.6c-0.6,0-0.6-1.1-0.6-1.9c0-0.2,0-0.3,0-0.4c0,0-0.1-0.1-0.2-0.1l0,0
			c-0.2,0-0.3,0-0.4,0.4c-0.2,0.7-0.7,1.9-1.2,1.9c-0.1,0-0.2,0-0.3-0.1c-0.2-0.3-0.1-1,0.1-1.6c0-0.1,0-0.2,0.1-0.3
			c0-0.1,0-0.2,0-0.3c0-0.1-0.1-0.1-0.3-0.1c-0.2,0-0.3,0.1-0.4,0.5v0.1l0-0.1c-0.1-0.1-0.3-0.3-0.6-0.3c0,0-0.1,0-0.1,0
			c-0.3,0-0.7,0.3-1,0.6c-0.3,0.4-0.5,0.9-0.5,1.5c0,0,0,0.1,0,0.1l0,0l0,0c-0.2,0.2-0.4,0.3-0.6,0.3c-0.3,0-0.5-0.2-0.5-0.6
			c0-0.7,0.4-2.6,0.4-3.3c0-0.8-0.3-1.2-0.9-1.2l0,0c-0.9,0-1.5,1-2.2,3c-0.1,0.2-0.1,0.4-0.2,0.6L25.7,88l0-0.3
			c0.1-0.7,0.1-1.4,0.1-2c0-1-0.1-1.6-0.4-1.9c-0.2-0.2-0.4-0.3-0.7-0.3l0,0c-1,0-1.5,1.8-1.9,3c-0.1,0.4-0.3,1.2-0.5,1.8l0.1-0.1
			c0.1-0.7,0.3-2.6,0.2-3.5c0-1.1-0.4-1.5-1.1-1.5l0,0c-0.4,0-0.7,0.2-0.9,0.4c-0.3,0.3-0.4,0.7-0.4,1c0,0.2,0.1,0.4,0.2,0.4
			c0.1,0,0.1-0.1,0.1-0.1c0.2-0.8,0.6-1.2,1-1.2c0.2,0,0.3,0.1,0.4,0.1c0.3,0.3,0.3,1.2,0.2,2.9c0,0.5-0.1,1.1-0.1,1.8
			c0,0.1,0,0.2,0,0.3c0,0.5-0.1,0.9,0.1,0.9c0.2,0,0.4-0.1,0.5-0.3c0.1-0.3,0.4-1.3,0.9-3c0.5-1.7,0.8-2.3,1.3-2.3
			c0.5,0,0.6,0.9,0.5,2.9c0,0.4,0,0.9-0.1,1.4c0,0.1,0,0.1,0,0.2c0,0.4,0,0.8,0.1,0.9c0,0,0.1,0.1,0.2,0.1c0.2,0,0.3-0.2,0.4-0.5
			c0-0.1,0-0.1,0.1-0.2c0.8-2.2,1.4-4.1,2.2-4.1c0.2,0,0.4,0.2,0.4,0.6c0,0.9-0.4,2.6-0.4,3.4c0,0.3,0.1,0.6,0.3,0.8
			c0.2,0.2,0.4,0.3,0.7,0.3l0,0c0.3,0,0.5-0.1,0.8-0.4l0,0l0,0c0.2,0.2,0.5,0.4,0.8,0.4c0.5,0,0.9-0.5,1.1-0.9l0-0.1l0,0.1
			C32,89.1,32.3,89.5,32.8,89.4z M37.4,83.7L37.4,83.7c0.1,0,0.1,0,0.2,0.1c0.2,0.3,0.2,1.2-0.1,2.3c-0.2,0.6-0.5,1.2-0.7,1.7l0,0.1
			v-0.1c0-0.3-0.1-0.5-0.1-0.8C36.4,85.3,36.9,83.7,37.4,83.7z M31.9,87.5c-0.2,0.7-0.5,1.5-1.1,1.6c0,0,0,0,0,0
			c-0.2,0-0.4-0.2-0.4-0.5c0-0.4,0.1-0.9,0.4-1.2c0.2-0.2,0.4-0.3,0.6-0.3l0,0C31.6,87.1,31.8,87.3,31.9,87.5L31.9,87.5L31.9,87.5z"
			/>
		<path fill="#3D4351" d="M45.5,83.1L45.5,83.1L45.5,83.1z"/>
		<path fill="#3D4351" d="M34.7,85c-0.2,0-0.4,0.2-0.4,0.4c0,0.2,0.2,0.4,0.4,0.4v0l0,0v0c0.2,0,0.4-0.2,0.4-0.4
			C35.1,85.2,34.9,85,34.7,85z"/>
		<path fill="#3D4351" d="M48.5,85c-0.2,0-0.4,0.2-0.4,0.4c0,0.2,0.2,0.4,0.4,0.4v0l0,0v0c0.2,0,0.4-0.2,0.4-0.4
			C48.9,85.2,48.7,85,48.5,85z"/>
	</g>
	<g>
		<path fill="#3D4351" d="M59.3,89.1c-0.1,0-0.3,0.1-0.3,0.3c0,0.1,0.1,0.3,0.3,0.3s0.3-0.1,0.3-0.3S59.5,89.1,59.3,89.1z
			 M59.3,89.6c-0.1,0-0.2-0.1-0.2-0.2s0.1-0.2,0.2-0.2c0.1,0,0.2,0.1,0.2,0.2C59.6,89.5,59.5,89.6,59.3,89.6z"/>
		<path fill="#3D4351" d="M59.5,89.3c0-0.1,0-0.1-0.1-0.1h-0.1v0.3h0v-0.1h0.1l0.1,0.1h0l-0.1-0.1C59.4,89.4,59.5,89.4,59.5,89.3z
			 M59.3,89.4L59.3,89.4L59.3,89.4L59.3,89.4C59.4,89.3,59.4,89.3,59.3,89.4C59.4,89.4,59.4,89.4,59.3,89.4z"/>
	</g>
</g>
<g opacity="0.5">
	<g>
		<path fill="#3D4351" d="M20.5,66.6l-1-2.2c-0.2-0.5-0.5-1.1-0.6-1.4l0,0c0,0.4,0,0.9,0,1.3l0,2.2h-0.7V62H19l1.1,2.3
			c0.2,0.4,0.4,1,0.5,1.2l0,0c0-0.2-0.1-0.9-0.1-1.3V62h0.7v4.6L20.5,66.6L20.5,66.6z"/>
		<path fill="#3D4351" d="M22.6,65.1L22.6,65.1c0,0.5,0.2,1,0.8,1c0.3,0,0.6-0.1,0.8-0.3l0.3,0.4c-0.4,0.3-0.8,0.4-1.2,0.4
			c-1,0-1.6-0.7-1.6-1.8c0-0.6,0.1-1,0.4-1.3c0.3-0.3,0.6-0.5,1-0.5c0.3,0,0.6,0.1,0.9,0.3c0.3,0.3,0.4,0.7,0.4,1.5v0.2L22.6,65.1
			L22.6,65.1z M23.3,63.7c-0.4,0-0.6,0.3-0.6,0.9h1.3C23.9,64,23.7,63.7,23.3,63.7z"/>
		<path fill="#3D4351" d="M28.6,66.6h-0.7l-0.4-1.6c-0.1-0.4-0.2-0.9-0.2-0.9l0,0c0,0-0.1,0.3-0.2,1l-0.4,1.5h-0.7L25,63.3l0.7-0.1
			l0.4,1.6c0.1,0.4,0.2,0.9,0.2,0.9h0c0,0,0.1-0.4,0.2-0.9l0.4-1.6h0.7l0.4,1.5c0.1,0.5,0.2,1,0.2,1h0c0,0,0.1-0.5,0.2-0.9l0.3-1.6
			h0.8L28.6,66.6z"/>
		<path fill="#3D4351" d="M33.8,66.6l-0.4-0.7c-0.3-0.6-0.5-0.9-0.8-1.1c-0.1-0.1-0.2-0.1-0.3-0.1v2h-0.8V62H33c1,0,1.5,0.6,1.5,1.3
			c0,0.7-0.4,1.3-1.2,1.3c0.2,0.1,0.5,0.5,0.7,0.9l0.7,1.1C34.7,66.6,33.8,66.6,33.8,66.6z M32.8,62.6h-0.4v1.5h0.4
			c0.4,0,0.6-0.1,0.8-0.2c0.1-0.1,0.2-0.3,0.2-0.6C33.7,62.9,33.5,62.6,32.8,62.6z"/>
		<path fill="#3D4351" d="M35.8,65.1L35.8,65.1c0,0.5,0.2,1,0.8,1c0.3,0,0.6-0.1,0.8-0.3l0.3,0.4c-0.4,0.3-0.8,0.4-1.2,0.4
			c-1,0-1.6-0.7-1.6-1.8c0-0.6,0.1-1,0.4-1.3c0.3-0.3,0.6-0.5,1-0.5c0.3,0,0.6,0.1,0.9,0.3c0.3,0.3,0.5,0.7,0.5,1.5v0.2H35.8z
			 M36.4,63.7c-0.4,0-0.6,0.3-0.6,0.9h1.3C37,64,36.8,63.7,36.4,63.7z"/>
		<path fill="#3D4351" d="M39.2,66.7c-0.7,0-0.7-0.7-0.7-1v-2.9c0-0.5,0-0.7-0.1-1l0.8-0.1c0.1,0.2,0.1,0.5,0.1,0.9v2.9
			c0,0.5,0,0.5,0.1,0.6c0,0.1,0.2,0.1,0.2,0.1l0.1,0.5C39.5,66.7,39.3,66.7,39.2,66.7z"/>
		<path fill="#3D4351" d="M40.5,62.7c-0.3,0-0.5-0.2-0.5-0.5s0.2-0.5,0.5-0.5c0.3,0,0.5,0.2,0.5,0.5C41,62.5,40.7,62.7,40.5,62.7z
			 M40.1,66.6v-3.3l0.7-0.1v3.5H40.1z"/>
		<path fill="#3D4351" d="M42.9,66.7c-0.9,0-1.4-0.7-1.4-1.7c0-1.2,0.7-1.8,1.5-1.8c0.4,0,0.6,0.1,0.9,0.4L43.6,64
			c-0.2-0.2-0.4-0.3-0.6-0.3c-0.2,0-0.4,0.1-0.5,0.3c-0.1,0.2-0.1,0.5-0.1,0.9c0,0.5,0.1,0.8,0.2,0.9c0.1,0.1,0.3,0.2,0.4,0.2
			c0.2,0,0.5-0.1,0.7-0.3l0.3,0.4C43.7,66.6,43.4,66.7,42.9,66.7z"/>
		<path fill="#3D4351" d="M44.7,66.7c-0.3,0-0.5-0.2-0.5-0.5c0-0.3,0.2-0.5,0.5-0.5s0.5,0.2,0.5,0.5C45.2,66.5,44.9,66.7,44.7,66.7z
			 M44.7,65.8c-0.2,0-0.4,0.2-0.4,0.4c0,0.2,0.2,0.4,0.4,0.4s0.4-0.2,0.4-0.4C45,66,44.9,65.8,44.7,65.8z M44.8,66.5
			C44.7,66.4,44.7,66.4,44.8,66.5c-0.1-0.2-0.1-0.2-0.2-0.2c0,0,0,0,0,0v0.2h-0.1v-0.6h0.2c0.1,0,0.2,0.1,0.2,0.2
			c0,0.1-0.1,0.2-0.1,0.2c0,0,0,0,0,0C44.8,66.3,44.9,66.5,44.8,66.5L44.8,66.5L44.8,66.5z M44.7,66C44.7,66,44.7,66,44.7,66
			L44.7,66l-0.1,0.2h0c0,0,0.1,0,0.1,0C44.7,66.2,44.8,66.1,44.7,66C44.7,66.1,44.7,66,44.7,66z"/>
	</g>
	<g>
		<path fill="#3D4351" d="M11,68.2c-1.9,0-3.5-1.1-3.8-2.6c-0.4-1.9,1.2-3.8,3.5-4.3c0.4-0.1,0.8-0.1,1.1-0.1c1.9,0,3.5,1.1,3.8,2.6
			c0.2,0.9-0.1,1.9-0.7,2.7c-0.7,0.8-1.6,1.4-2.8,1.6C11.7,68.1,11.3,68.2,11,68.2z M11.8,61.4c-0.4,0-0.7,0-1.1,0.1
			c-2.2,0.5-3.7,2.3-3.3,4.1C7.6,67,9.1,68,11,68c0.4,0,0.7,0,1.1-0.1c1.1-0.2,2-0.8,2.7-1.6c0.6-0.8,0.9-1.6,0.7-2.5
			C15.1,62.4,13.6,61.4,11.8,61.4z"/>
		<path fill="#3D4351" d="M11.7,67.2c-1.4,0-2.5-1.1-2.5-2.5c0-1.4,1.1-2.5,2.5-2.5s2.5,1.1,2.5,2.5S13.1,67.2,11.7,67.2z
			 M11.7,62.4c-1.3,0-2.3,1-2.3,2.3s1,2.3,2.3,2.3s2.3-1,2.3-2.3C14,63.5,13,62.4,11.7,62.4z"/>
		<path fill="#3D4351" d="M11.4,66.2c-0.9,0-1.6-0.7-1.6-1.6c0-0.9,0.7-1.6,1.6-1.6s1.6,0.7,1.6,1.6C12.9,65.5,12.2,66.2,11.4,66.2z
			 M11.4,63.3c-0.7,0-1.4,0.6-1.4,1.4c0,0.7,0.6,1.4,1.4,1.4c0.7,0,1.4-0.6,1.4-1.4C12.7,63.9,12.1,63.3,11.4,63.3z"/>
	</g>
</g>
<g opacity="0.5">
	<path fill="#3D4351" d="M120.6,85.1c-0.6-0.1-1.1,0.1-1.5,0.6v-0.2l0,0v-2.8v0v-0.2l-1.6,0.2V90h1.6v-0.4c0.2,0.1,0.4,0.3,0.7,0.4
		c0.9,0.3,2.1,0.1,2.5-1.1c0.3-0.8,0.3-1.6,0.1-2.4C122,85.6,121.4,85.2,120.6,85.1z M120.8,88.2c-0.1,0.5-0.5,0.7-0.9,0.7
		c-0.1,0-0.2,0-0.3-0.1c-0.4-0.2-0.5-0.6-0.5-0.8l0,0c0-0.3-0.1-1.1,0.1-1.4c0.1-0.3,0.4-0.4,0.7-0.4c0.5,0,0.8,0.2,0.9,0.7
		C120.8,87.4,120.8,87.8,120.8,88.2z"/>
	<path fill="#3D4351" d="M126,85.2c-0.5-0.1-1.1-0.1-1.6,0c-0.8,0.2-1.3,0.7-1.5,1.5c-0.1,0.4-0.1,0.9-0.1,1.4c0.1,1,0.7,1.8,1.7,2
		h0l0,0l0,0c0,0,0.1,0,0.1,0h0l0,0c0,0,0.1,0,0.2,0c0.2,0,0.4,0,0.7,0l0,0h0c1-0.1,1.8-0.7,2-1.7c0.1-0.5,0.1-1.1,0-1.6
		C127.4,85.9,126.9,85.4,126,85.2z M126.1,88.2c0,0,0,0.1,0,0.1c-0.1,0.5-0.4,0.7-0.9,0.7c-0.5,0-0.8-0.3-0.8-0.8c0-0.3,0-0.7,0-1.1
		c0-0.5,0.4-0.8,0.9-0.8c0.4,0,0.7,0.2,0.8,0.7C126.2,87.3,126.1,88.1,126.1,88.2z"/>
	<path fill="#3D4351" d="M102.8,85.1h-1.1v-0.7c0.1-0.7,1.2-0.6,1.2-0.6v0l0,0v-1.1l0,0l0,0l0,0c0,0-2.3-0.5-2.7,1.2l0,0l0,0
		c-0.1,0.2-0.1,1.2-0.1,1.3h-1v1.3h1V90h1.5v-3.6h1.1l0.1-1.3C102.9,85.1,102.8,85.1,102.8,85.1z"/>
	<path fill="#3D4351" d="M106.3,85.8C106.3,85.7,106.3,85.7,106.3,85.8L106.3,85.8L106.3,85.8c-0.1-0.1-0.1-0.1-0.1-0.1l0,0
		c-0.3-0.4-0.5-0.4-0.8-0.5c-1.1-0.3-2.1,0.2-2.4,1.3c-0.2,0.7-0.2,1.3-0.1,2c0.3,1.4,1.3,1.9,2.4,1.7c0.3-0.1,0.6-0.3,0.8-0.6
		c0,0,0,0,0-0.1V90h1.4v-4.9h-1.4L106.3,85.8L106.3,85.8z M106.2,88.2c0,0.5-0.4,0.7-0.8,0.7s-0.7-0.3-0.8-0.7c-0.1-0.6,0-1.3,0-1.4
		c0.1-0.4,0.4-0.6,0.8-0.6s0.8,0.3,0.8,0.7C106.2,87.4,106.2,87.8,106.2,88.2z"/>
	<path fill="#3D4351" d="M112.2,89.7c-0.1-0.2-0.1-0.5-0.2-0.7l-0.1-0.3c0,0-1.8,0.9-2.1-0.8c0-0.3,0-0.6,0-0.8
		c0.1-0.5,0.4-0.8,0.9-0.8c0.2,0,0.3,0,0.5,0c0.2,0,0.4,0.1,0.7,0.2c0.1-0.3,0.2-0.5,0.3-0.8c0,0,0-0.1,0-0.1l0,0l0-0.2
		c0,0,0,0-0.1-0.1l0,0c0,0-0.1-0.1-0.2-0.1c0,0-0.1,0-0.1,0s-0.1,0-0.1,0l0,0c-0.5-0.1-1-0.1-1.5-0.1c-1,0.1-1.8,0.7-2,1.7
		c-0.1,0.5-0.1,1.1,0,1.6c0.2,0.8,0.7,1.3,1.5,1.6c0.5,0.2,1.1,0.2,1.6,0.1c0.2,0,0.5-0.2,0.8-0.2L112.2,89.7L112.2,89.7L112.2,89.7
		z"/>
	<path fill="#3D4351" d="M116.9,87.8c0-0.3,0-0.7-0.1-1c-0.1-0.9-0.7-1.5-1.6-1.6c-0.3-0.1-0.7,0-1.1,0c-1,0.1-1.7,0.7-1.8,1.6
		c-0.1,0.5-0.1,1.1,0,1.7c0.1,0.8,0.5,1.3,1.2,1.6l0,0l0,0l0,0c0.3,0.1,1.9,0.5,3.2-0.2l-0.1-0.2l0,0c-0.1-0.3-0.1-0.5-0.2-0.8v0
		c0,0,0,0-0.1,0l0,0c-0.1,0-0.1,0-0.2,0.1h0c-0.2,0.1-0.5,0.1-0.8,0.2c-0.3,0-0.5,0-0.8,0c-0.4-0.1-0.8-0.3-0.7-0.9h0.2
		c0.8,0,1.7,0,2.5,0c0,0,0,0,0.1,0l0,0c0,0,0.2,0,0.2,0c0,0,0,0,0-0.1V87.8z M115.6,87.1h-1.7c0-0.3,0.1-0.6,0.3-0.8
		c0.3-0.2,0.7-0.2,1,0C115.5,86.4,115.6,86.8,115.6,87.1z"/>
	<polygon fill="#3D4351" points="138.1,85.2 136.5,85.2 135,87.4 135,82.8 135,82.7 135,82.5 133.5,82.7 133.5,90 135,90 135,87.8 
		136.5,90 138.1,90 136.6,87.6 	"/>
	<path fill="#3D4351" d="M131.3,85.2c-0.5-0.1-1.1-0.1-1.6,0c-0.8,0.2-1.3,0.7-1.5,1.5c-0.1,0.4-0.1,0.9-0.1,1.4
		c0.1,1,0.7,1.8,1.7,2h0l0,0l0,0c0,0,0.1,0,0.1,0h0l0,0c0,0,0.1,0,0.2,0c0.2,0,0.4,0,0.7,0l0,0h0c1-0.1,1.8-0.7,2-1.7
		c0.1-0.5,0.1-1.1,0-1.6C132.7,85.9,132.2,85.4,131.3,85.2z M131.4,88.2c0,0,0,0.1,0,0.1c-0.1,0.5-0.4,0.7-0.9,0.7
		c-0.5,0-0.8-0.3-0.8-0.8c0-0.3,0-0.7,0-1.1c0-0.5,0.4-0.9,0.9-0.8c0.4,0,0.7,0.2,0.8,0.7C131.5,87.3,131.4,88.1,131.4,88.2z"/>
</g>
</svg>
