<?xml version="1.0" encoding="utf-8"?>
<!-- Generator: Adobe Illustrator 21.0.0, SVG Export Plug-In . SVG Version: 6.00 Build 0)  -->
<svg version="1.1" id="Layer_1" xmlns="http://www.w3.org/2000/svg" xmlns:xlink="http://www.w3.org/1999/xlink" x="0px" y="0px"
	 viewBox="0 0 36 36" style="enable-background:new 0 0 36 36;" xml:space="preserve">
<style type="text/css">
	.st0{clip-path:url(#SVGID_2_);}
	.st1{clip-path:url(#SVGID_4_);fill:#5A7CCC;}
	.st2{clip-path:url(#SVGID_6_);}
	.st3{opacity:0.4977;clip-path:url(#SVGID_8_);fill:#5A7CCC;}
	.st4{clip-path:url(#SVGID_10_);}
	.st5{clip-path:url(#SVGID_12_);fill:#FFFFFF;}
	.st6{clip-path:url(#SVGID_14_);}
	.st7{opacity:0.4955;clip-path:url(#SVGID_16_);fill:#5A7CCC;}
	.st8{clip-path:url(#SVGID_18_);}
	.st9{opacity:0.4955;clip-path:url(#SVGID_20_);fill:#5A7CCC;}
	.st10{clip-path:url(#SVGID_22_);}
	.st11{opacity:0.4955;clip-path:url(#SVGID_24_);fill:#5A7CCC;}
	.st12{clip-path:url(#SVGID_26_);}
	.st13{opacity:0.4955;clip-path:url(#SVGID_28_);fill:#5A7CCC;}
	.st14{clip-path:url(#SVGID_30_);}
	.st15{opacity:0.4955;clip-path:url(#SVGID_32_);fill:#5A7CCC;}
	.st16{clip-path:url(#SVGID_34_);}
	.st17{opacity:0.4955;clip-path:url(#SVGID_36_);fill:#5A7CCC;}
	.st18{clip-path:url(#SVGID_38_);}
	.st19{opacity:0.4964;clip-path:url(#SVGID_40_);fill:#5A7CCC;}
</style>
<g>
	<defs>
		<path id="SVGID_1_" d="M31,3H6C4.3,3,3,4.3,3,6v23c0,1.7,1.3,3,3,3h25c1.7,0,3-1.3,3-3V6C34,4.3,32.7,3,31,3"/>
	</defs>
	<clipPath id="SVGID_2_">
		<use xlink:href="#SVGID_1_"  style="overflow:visible;"/>
	</clipPath>
	<g class="st0">
		<defs>
			<rect id="SVGID_3_" x="-860" y="-4424" width="1440" height="4490"/>
		</defs>
		<clipPath id="SVGID_4_">
			<use xlink:href="#SVGID_3_"  style="overflow:visible;"/>
		</clipPath>
		<rect x="-2" y="-2" class="st1" width="41" height="39"/>
	</g>
</g>
<g>
	<defs>
		<path id="SVGID_5_" d="M34,11H3V7c0-2.2,1.8-4,4-4h24c2.2,0,3,1.8,3,4V11z"/>
	</defs>
	<clipPath id="SVGID_6_">
		<use xlink:href="#SVGID_5_"  style="overflow:visible;"/>
	</clipPath>
	<g class="st2">
		<defs>
			<rect id="SVGID_7_" x="-860" y="-4424" width="1440" height="4490"/>
		</defs>
		<clipPath id="SVGID_8_">
			<use xlink:href="#SVGID_7_"  style="overflow:visible;"/>
		</clipPath>
		<rect x="-2" y="-2" class="st3" width="41" height="18"/>
	</g>
</g>
<g>
	<defs>
		<rect id="SVGID_9_" x="6" y="10" width="25" height="19"/>
	</defs>
	<clipPath id="SVGID_10_">
		<use xlink:href="#SVGID_9_"  style="overflow:visible;"/>
	</clipPath>
	<g class="st4">
		<defs>
			<rect id="SVGID_11_" x="-860" y="-4424" width="1440" height="4490"/>
		</defs>
		<clipPath id="SVGID_12_">
			<use xlink:href="#SVGID_11_"  style="overflow:visible;"/>
		</clipPath>
		<rect x="1" y="5" class="st5" width="35" height="29"/>
	</g>
</g>
<g>
	<defs>
		<rect id="SVGID_13_" x="11" y="10" width="1" height="19"/>
	</defs>
	<clipPath id="SVGID_14_">
		<use xlink:href="#SVGID_13_"  style="overflow:visible;"/>
	</clipPath>
	<g class="st6">
		<defs>
			<rect id="SVGID_15_" x="-860" y="-4424" width="1440" height="4490"/>
		</defs>
		<clipPath id="SVGID_16_">
			<use xlink:href="#SVGID_15_"  style="overflow:visible;"/>
		</clipPath>
		<rect x="6" y="5" class="st7" width="11" height="29"/>
	</g>
</g>
<g>
	<defs>
		<rect id="SVGID_17_" x="18" y="10" width="1" height="19"/>
	</defs>
	<clipPath id="SVGID_18_">
		<use xlink:href="#SVGID_17_"  style="overflow:visible;"/>
	</clipPath>
	<g class="st8">
		<defs>
			<rect id="SVGID_19_" x="-860" y="-4424" width="1440" height="4490"/>
		</defs>
		<clipPath id="SVGID_20_">
			<use xlink:href="#SVGID_19_"  style="overflow:visible;"/>
		</clipPath>
		<rect x="13" y="5" class="st9" width="11" height="29"/>
	</g>
</g>
<g>
	<defs>
		<rect id="SVGID_21_" x="25" y="10" width="1" height="19"/>
	</defs>
	<clipPath id="SVGID_22_">
		<use xlink:href="#SVGID_21_"  style="overflow:visible;"/>
	</clipPath>
	<g class="st10">
		<defs>
			<rect id="SVGID_23_" x="-860" y="-4424" width="1440" height="4490"/>
		</defs>
		<clipPath id="SVGID_24_">
			<use xlink:href="#SVGID_23_"  style="overflow:visible;"/>
		</clipPath>
		<rect x="20" y="5" class="st11" width="11" height="29"/>
	</g>
</g>
<g>
	<defs>
		<rect id="SVGID_25_" x="6.1" y="14" width="24.9" height="1"/>
	</defs>
	<clipPath id="SVGID_26_">
		<use xlink:href="#SVGID_25_"  style="overflow:visible;"/>
	</clipPath>
	<g class="st12">
		<defs>
			<rect id="SVGID_27_" x="-860" y="-4424" width="1440" height="4490"/>
		</defs>
		<clipPath id="SVGID_28_">
			<use xlink:href="#SVGID_27_"  style="overflow:visible;"/>
		</clipPath>
		<rect x="1.1" y="9" class="st13" width="34.9" height="11"/>
	</g>
</g>
<g>
	<defs>
		<rect id="SVGID_29_" x="6" y="19" width="24.9" height="1"/>
	</defs>
	<clipPath id="SVGID_30_">
		<use xlink:href="#SVGID_29_"  style="overflow:visible;"/>
	</clipPath>
	<g class="st14">
		<defs>
			<rect id="SVGID_31_" x="-860" y="-4424" width="1440" height="4490"/>
		</defs>
		<clipPath id="SVGID_32_">
			<use xlink:href="#SVGID_31_"  style="overflow:visible;"/>
		</clipPath>
		<rect x="1" y="14" class="st15" width="34.9" height="11"/>
	</g>
</g>
<g>
	<defs>
		<rect id="SVGID_33_" x="6.1" y="24" width="24.9" height="1"/>
	</defs>
	<clipPath id="SVGID_34_">
		<use xlink:href="#SVGID_33_"  style="overflow:visible;"/>
	</clipPath>
	<g class="st16">
		<defs>
			<rect id="SVGID_35_" x="-860" y="-4424" width="1440" height="4490"/>
		</defs>
		<clipPath id="SVGID_36_">
			<use xlink:href="#SVGID_35_"  style="overflow:visible;"/>
		</clipPath>
		<rect x="1.1" y="19" class="st17" width="34.9" height="11"/>
	</g>
</g>
<g>
	<defs>
		<rect id="SVGID_37_" x="18" y="14" width="8" height="6"/>
	</defs>
	<clipPath id="SVGID_38_">
		<use xlink:href="#SVGID_37_"  style="overflow:visible;"/>
	</clipPath>
	<g class="st18">
		<defs>
			<rect id="SVGID_39_" x="-860" y="-4424" width="1440" height="4490"/>
		</defs>
		<clipPath id="SVGID_40_">
			<use xlink:href="#SVGID_39_"  style="overflow:visible;"/>
		</clipPath>
		<rect x="13" y="9" class="st19" width="18" height="16"/>
	</g>
</g>
</svg>
