<?xml version="1.0" encoding="utf-8"?>
<!-- Generator: Adobe Illustrator 21.0.0, SVG Export Plug-In . SVG Version: 6.00 Build 0)  -->
<svg version="1.1" id="Layer_1" xmlns="http://www.w3.org/2000/svg" xmlns:xlink="http://www.w3.org/1999/xlink" x="0px" y="0px"
	 viewBox="0 0 36 36" style="enable-background:new 0 0 36 36;" xml:space="preserve">
<style type="text/css">
	.st0{fill:#5A7CCC;}
	.st1{opacity:0.5;fill:#5A7CCC;}
</style>
<path class="st0" d="M32,14.2l0.9-0.5c1.2-0.6,1.3-2.4,0.1-3.1L19.3,3.1C19,3,18.8,2.9,18.5,2.9S18,3,17.7,3.1L4,10.6
	c-1.2,0.7-1.2,2.5,0.1,3.1l13.8,6.8c0.2,0.1,0.5,0.2,0.7,0.2s0.5-0.1,0.7-0.2l10.9-5.4L30,15.2l-9-4.9c-0.5-0.2-0.7-0.8-0.4-1.3
	c0.2-0.5,0.8-0.7,1.3-0.4L32,14.2L32,14.2z"/>
<path class="st0" d="M8,17.7v9.7c0,3.3,4,5.7,10,5.7s10-2.3,10-5.7v-9.3l-8.8,4.4c-0.2,0.1-0.5,0.2-0.7,0.2s-0.5-0.1-0.7-0.2L8,17.7
	z"/>
<path class="st1" d="M30,15.1v5.8c0,0.6,0.4,1,1,1l0,0c0.5,0,1-0.4,1-1v-6.7L30,15.1z"/>
</svg>
