<?xml version="1.0" encoding="utf-8"?>
<!-- Generator: Adobe Illustrator 21.0.0, SVG Export Plug-In . SVG Version: 6.00 Build 0)  -->
<svg version="1.1" id="Layer_1" xmlns="http://www.w3.org/2000/svg" xmlns:xlink="http://www.w3.org/1999/xlink" x="0px" y="0px"
	 viewBox="0 0 65 64" style="enable-background:new 0 0 65 64;" xml:space="preserve">
<style type="text/css">
	.st0{clip-path:url(#SVGID_2_);}
	.st1{fill:#8DC63F;}
	.st2{fill:#B6E073;}
	.st3{clip-path:url(#SVGID_4_);}
	.st4{clip-path:url(#SVGID_6_);}
	.st5{fill:#EBF0F2;}
	.st6{fill:#9DA0A7;}
</style>
<g>
	<g>
		<g>
			<defs>
				<path id="SVGID_1_" d="M26.7,32.3l-20,10c-1.3,0.7-2.2,2.1-2.2,3.6v4c0,1.5,0.9,2.9,2.2,3.6l20,10c1.1,0.6,2.4,0.6,3.6,0l20-10
					c1.4-0.7,2.2-2.1,2.2-3.6v-4c0-1.5-0.9-2.9-2.2-3.6l-20-10C29.2,31.7,27.8,31.7,26.7,32.3z"/>
			</defs>
			<clipPath id="SVGID_2_">
				<use xlink:href="#SVGID_1_"  style="overflow:visible;"/>
			</clipPath>
			<g class="st0">
				<polygon class="st1" points="28.5,65.5 4.5,53.4 4.5,43.4 52.5,43.4 52.5,53.4 				"/>
				<path class="st2" d="M27.2,54.8L4.5,43.4l24-12l24,12L29.8,54.8C29,55.2,28,55.2,27.2,54.8z"/>
			</g>
		</g>
	</g>
	<g>
		<g>
			<defs>
				<path id="SVGID_3_" d="M27.2,15.8l-21,10.5c-1,0.5-1.7,1.6-1.7,2.7v5.3c0,1.2,0.6,2.2,1.7,2.7l21,10.5c0.8,0.4,1.8,0.4,2.7,0
					l21-10.5c1-0.5,1.7-1.6,1.7-2.7V29c0-1.2-0.6-2.2-1.7-2.7l-21-10.5C29,15.4,28,15.4,27.2,15.8z"/>
			</defs>
			<clipPath id="SVGID_4_">
				<use xlink:href="#SVGID_3_"  style="overflow:visible;"/>
			</clipPath>
			<g class="st3">
				<polygon class="st1" points="28.5,49.3 4.5,37.2 4.5,27.2 52.5,27.2 52.5,37.2 				"/>
				<path class="st2" d="M27.2,38.6L4.5,27.2l24-12l24,12L29.8,38.6C29,39,28,39,27.2,38.6z"/>
			</g>
		</g>
	</g>
	<g>
		<g>
			<defs>
				<path id="SVGID_5_" d="M27.2,0.3l-21,10.1c-1.1,0.5-1.7,1.5-1.7,2.6v5.1c0,1.1,0.6,2.1,1.7,2.6l21,10.1c0.8,0.4,1.8,0.4,2.7,0
					l21-10.1c1-0.5,1.7-1.5,1.7-2.6V13c0-1.1-0.6-2.1-1.7-2.6l-21-10.1C29-0.1,28-0.1,27.2,0.3z"/>
			</defs>
			<clipPath id="SVGID_6_">
				<use xlink:href="#SVGID_5_"  style="overflow:visible;"/>
			</clipPath>
			<g class="st4">
				<polygon class="st1" points="28.5,32.4 4.5,20.8 4.5,11.2 52.5,11.2 52.5,20.8 				"/>
				<path class="st2" d="M27.2,22.4L4.5,11l24-12.2l24,12.2L29.8,22.4C29,22.9,28,22.9,27.2,22.4z"/>
			</g>
		</g>
	</g>
</g>
<g>
	<g>
		<path class="st5" d="M55.5,12h-12c-3.3,0-6-2.7-6-6l0,0c0-3.3,2.7-6,6-6h12c3.3,0,6,2.7,6,6l0,0C61.5,9.3,58.8,12,55.5,12z"/>
	</g>
	<g>
		<path class="st6" d="M45.4,3c0.1,0,0.2,0,0.2,0.1l0.2,0.5c0,0.1,0,0.2-0.2,0.2c-0.4,0.1-1.6,0.7-1.9,1.6c0.1-0.1,0.6-0.2,1-0.2
			c0.9,0,1.8,0.6,1.8,1.8c0,1.1-0.9,1.9-2,1.9c-1.3,0.1-2-1-2-2.2C42.5,4.2,44.6,3.2,45.4,3z M45.5,7.1c0-0.5-0.4-1-1-1
			s-0.9,0.4-1,0.7c0,0.6,0.3,1.2,1,1.2C45.1,8,45.5,7.6,45.5,7.1z"/>
		<path class="st6" d="M47.3,6.1c0-1.8,0.8-2.9,2.2-2.9s2.2,1.1,2.2,2.9S50.9,9,49.5,9S47.3,7.9,47.3,6.1z M50.5,6.1
			c0-1.2-0.4-2-1-2s-1,0.7-1,2s0.4,2,1,2S50.5,7.3,50.5,6.1z"/>
		<path class="st6" d="M54.2,6.4h-1.3c-0.1,0-0.2-0.1-0.2-0.2V5.8c0-0.1,0.1-0.2,0.2-0.2h1.3V4.3c0-0.1,0.1-0.2,0.2-0.2h0.5
			c0.1,0,0.2,0.1,0.2,0.2v1.3h1.3c0.1,0,0.2,0.1,0.2,0.2v0.5c0,0.1-0.1,0.2-0.2,0.2h-1.3v1.3C55.1,7.9,55,8,54.9,8h-0.5
			c-0.1,0-0.2-0.1-0.2-0.2V6.4z"/>
	</g>
</g>
</svg>
