<?xml version="1.0" encoding="utf-8"?>
<!-- Generator: Adobe Illustrator 19.2.0, SVG Export Plug-In . SVG Version: 6.00 Build 0)  -->
<svg version="1.1" id="Layer_1" xmlns="http://www.w3.org/2000/svg" xmlns:xlink="http://www.w3.org/1999/xlink" x="0px" y="0px"
	 viewBox="0 0 36 36" style="enable-background:new 0 0 36 36;" xml:space="preserve">
<style type="text/css">
	.st0{fill:#8DC63F;}
	.st1{opacity:0.25;}
</style>
<g>
	<g>
		<path class="st0" d="M18,5l13.7,7.2L18,19L4.3,12.2L18,5 M18,3.1c-0.3,0-0.6,0.1-0.8,0.2L2.9,10.8c-1.3,0.7-1.2,2.5,0.1,3.1
			l14.3,6.8c0.2,0.1,0.5,0.2,0.7,0.2s0.5-0.1,0.7-0.2L33,13.9c1.3-0.6,1.3-2.4,0.1-3.1L18.8,3.3C18.6,3.2,18.3,3.1,18,3.1L18,3.1z"
			/>
	</g>
	<g>
		<path class="st0" d="M17.5,33C11.3,33,7,30.6,7,27.3V16h2v11.3c0,1.8,3.2,3.7,8.5,3.7s8.5-1.9,8.5-3.7V16h2v11.3
			C28,30.6,23.7,33,17.5,33z"/>
	</g>
	<g>
		<path class="st0" d="M30,22.3c-0.6,0-1-0.4-1-1v-6.4l-9.4-4.7c-0.5-0.2-0.7-0.8-0.4-1.3c0.2-0.5,0.8-0.7,1.3-0.4L31,13.6v7.6
			C31,21.8,30.6,22.3,30,22.3z"/>
	</g>
	<g class="st1">
		<polygon class="st0" points="26,19 18,23 9,19 9,16.3 18,20.3 26,16.3 		"/>
	</g>
</g>
</svg>
