<?xml version="1.0" encoding="utf-8"?>
<!-- Generator: Adobe Illustrator 18.0.0, SVG Export Plug-In . SVG Version: 6.00 Build 0)  -->
<!DOCTYPE svg PUBLIC "-//W3C//DTD SVG 1.1//EN" "http://www.w3.org/Graphics/SVG/1.1/DTD/svg11.dtd">
<svg version="1.1" id="Layer_1" xmlns="http://www.w3.org/2000/svg" xmlns:xlink="http://www.w3.org/1999/xlink" x="0px" y="0px"
	 viewBox="0 0 370 265" enable-background="new 0 0 370 265" xml:space="preserve">
<g>
	<path fill="none" stroke="#8BC541" stroke-width="2" stroke-miterlimit="10" d="M186.7,254.7c-5.6,0-10.2-4.1-11-9.5
		c-0.1-0.6-0.1-1.1-0.1-1.7c0-0.8,0.1-1.6,0.3-2.4c1.1-5,5.6-8.7,10.9-8.7s9.8,3.7,10.9,8.7c0.2,0.8,0.3,1.6,0.3,2.4
		c0,0.6-0.1,1.1-0.1,1.7C196.9,250.6,192.3,254.7,186.7,254.7z"/>
	<g>
		<path fill="#3C4352" d="M145.5,79.9v-0.7l7.1-8.9l0.3-0.1h0.4l0.4,0.4v8.6h1.5l0.4,0.3v0.4l-0.4,0.4h-1.5v2.6l-0.4,0.4h-0.6
			l-0.4-0.4v-2.5h-6.4L145.5,79.9L145.5,79.9z M152.4,79.1v-6.5l-5.3,6.5H152.4z M163.4,69.9l0.4,0.2l0.2,0.4c0.1,0.2,0,0.4-0.3,0.5
			c-0.8,0.3-4.2,2.1-4.8,4.7c0,0,1.2-0.8,2.9-0.8c2.1,0,4,1.6,4,4.1c0,2.4-1.9,4.3-4.1,4.3c-3,0-4.4-2.4-4.4-5.3
			C157.2,73,161.5,70.7,163.4,69.9L163.4,69.9z M164.4,79.1c0-1.6-1.3-2.9-2.8-2.9c-1.7,0-3,1.2-3,1.2c-0.3,1.9,0.4,4.7,3,4.7
			C163.2,82.1,164.4,80.7,164.4,79.1z"/>
	</g>
	<path fill="none" stroke="#8BC541" stroke-width="2" stroke-miterlimit="10" d="M214.6,88.3l-0.4-0.1c-0.4-0.1-0.7-0.4-0.8-0.7
		c-1.6-3.7-5.2-6.1-9.2-6.1s-7.6,2.4-9.2,6.1c-0.1,0.3-0.4,0.6-0.8,0.7c-0.4,0.1-0.8,0.1-1.1-0.2l-11.3-7.3
		c-0.6-0.4-0.7-1.1-0.4-1.7c4.5-8.4,13.3-13.6,22.8-13.6S222.5,70.6,227,79c0.3,0.6,0.1,1.3-0.4,1.7L215.3,88
		C215.1,88.2,214.8,88.3,214.6,88.3z"/>
	<path fill="none" stroke="#3C4352" stroke-width="2" stroke-miterlimit="10" d="M203.6,90.2c-1.1,0-2.2-0.6-2.8-1.6L196.2,77
		c-0.1-0.3-0.2-0.8-0.1-1.1c0.1-0.4,0.4-0.8,0.8-1c0.2-0.1,0.6-0.2,0.8-0.2c0.6,0,1.1,0.3,1.4,0.8l7.2,9.8c0.5,0.9,0.6,1.7,0.4,2.5
		c-0.2,0.8-0.8,1.5-1.5,1.9C204.7,90,204.1,90.2,203.6,90.2L203.6,90.2z"/>
	<path fill="none" stroke="#3B4251" stroke-miterlimit="10" d="M141.2,48.5c-1.2,0-2.1-0.9-2.1-2.1s0.9-2.1,2.1-2.1s2.1,0.9,2.1,2.1
		S142.3,48.5,141.2,48.5z"/>
	<line fill="none" stroke="#3B4251" stroke-miterlimit="10" x1="132.8" y1="55" x2="237.6" y2="55"/>
	<line fill="none" stroke="#3B4251" stroke-miterlimit="10" x1="132.2" y1="97.1" x2="238.1" y2="97.1"/>
	<g>
		<path fill="#3C4352" d="M148.3,45.2L148.3,45.2l0.4-0.1l0.1,0.1v2.3h1l0.1,0.1v0.3l-0.1,0.1h-1.5l-0.1-0.1L148.3,45.2L148.3,45.2z
			 M150.5,45.2L150.5,45.2l0.4-0.1l0.1,0.1v2.7V48h-0.4l-0.1-0.1V45.2z M151.6,45.2l0.1-0.1h0.4h0.1l0.8,1.7l0,0l0.8-1.7h0.1h0.4
			l0.1,0.1l-1.3,2.7H153l0,0h-0.1L151.6,45.2z M154.9,45.2L154.9,45.2l1.7-0.1l0.1,0.1v0.3l-0.1,0.1h-1.2v0.7h1l0.1,0.1v0.3
			l-0.1,0.1h-1v0.7h1.2l0.1,0.1v0.3l-0.1,0.1H155l-0.1-0.1V45.2L154.9,45.2z M158.2,45.2l0.1-0.1h0.4h0.1l0.8,1.7l0,0l0.8-1.7h0.1
			h0.4l0.1,0.1l-1.3,2.7h-0.1l0,0h-0.1L158.2,45.2z M161.4,45.2L161.4,45.2l0.4-0.1l0.1,0.1v2.7l-0.1,0.1h-0.4l-0.1-0.1v-2.7H161.4z
			 M162.7,47.6l0.1-0.2h0.1l0.6,0.2c0.2,0,0.4-0.1,0.4-0.3s-0.2-0.3-0.5-0.5c-0.4-0.2-0.8-0.4-0.8-0.9c0-0.4,0.3-0.8,0.9-0.8
			c0.4,0,0.7,0.2,0.8,0.3v0.1l-0.2,0.2l-0.1,0.1l-0.6-0.2c-0.2,0-0.4,0.2-0.4,0.3c0,0.2,0.1,0.3,0.5,0.5s0.8,0.4,0.8,0.9
			c0,0.4-0.4,0.8-0.9,0.8s-0.8-0.2-0.9-0.3L162.7,47.6L162.7,47.6z M165.3,45.2L165.3,45.2l0.4-0.1l0.1,0.1v2.7l-0.1,0.1h-0.4
			l-0.1-0.1v-2.7H165.3z M167.1,45.6h-0.6l-0.1-0.1v-0.3l0.1-0.1h1.8l0.1,0.1v0.3l-0.1,0.1h-0.6v2.3l-0.1,0.1h-0.4l-0.1-0.1
			L167.1,45.6L167.1,45.6z M170.2,45.1c0.8,0,1.5,0.6,1.5,1.5c0,0.8-0.6,1.4-1.5,1.4c-0.8,0-1.4-0.6-1.4-1.4
			C168.8,45.7,169.4,45.1,170.2,45.1z M170.2,47.5c0.5,0,0.9-0.4,0.9-0.9s-0.4-0.9-0.9-0.9s-0.9,0.4-0.9,0.9S169.7,47.5,170.2,47.5z
			 M172.4,45.2L172.4,45.2l1.2-0.1c0.5,0,0.9,0.4,0.9,0.9c0,0.4-0.2,0.7-0.6,0.8l0.6,1l-0.1,0.1H174h-0.1l-0.5-1.1H173v1l-0.1,0.1
			h-0.4l-0.1-0.1V45.2z M173.6,46.4c0.2,0,0.4-0.2,0.4-0.4s-0.2-0.4-0.4-0.4h-0.7v0.8L173.6,46.4L173.6,46.4z M175.1,47.6l0.1-0.2
			h0.1l0.6,0.2c0.2,0,0.4-0.1,0.4-0.3s-0.2-0.3-0.5-0.5c-0.4-0.2-0.8-0.4-0.8-0.9c0-0.4,0.3-0.8,0.9-0.8c0.4,0,0.7,0.2,0.8,0.3v0.1
			l-0.2,0.2l-0.1,0.1l-0.6-0.2c-0.2,0-0.4,0.2-0.4,0.3c0,0.2,0.1,0.3,0.5,0.5s0.8,0.4,0.8,0.9c0,0.4-0.4,0.8-0.9,0.8
			s-0.8-0.2-0.9-0.3L175.1,47.6L175.1,47.6z"/>
	</g>
	<g>
		<path fill="#8BC541" d="M146.7,129.5l-1.7,1.4c-0.2,0.1-0.4,0.2-0.6,0l-0.5-0.5c-0.2-0.2-0.1-0.4,0.1-0.5l3.4-3.3h0.6
			c0.2,0,0.4,0.2,0.4,0.5v15.5c0,0.2-0.2,0.5-0.4,0.5h-0.9c-0.3,0-0.5-0.2-0.5-0.5L146.7,129.5L146.7,129.5z M152,141.7l5.9-6.4
			c1.6-1.8,2.4-3.2,2.4-4.4c0-1.4-0.9-3.1-3.4-3.1c-1.5,0-2.7,1-3.4,1.8c-0.2,0.2-0.5,0.2-0.7,0l-0.5-0.5c-0.1-0.2-0.2-0.4,0-0.6
			c0,0,1.7-2.4,4.6-2.4c3.4,0,5.2,2.2,5.2,4.7c0,2.1-1.4,3.7-3,5.5l-4.6,4.9h7.1c0.2,0,0.5,0.2,0.5,0.5v0.6c0,0.2-0.2,0.5-0.5,0.5
			h-9.2c-0.3,0-0.5-0.2-0.5-0.5L152,141.7L152,141.7z M166.2,140.4c0.8,0,1.4,0.6,1.4,1.4c0,0.7-0.6,1.4-1.4,1.4
			c-0.8,0-1.4-0.6-1.4-1.4S165.5,140.4,166.2,140.4z M169.9,141.7l5.9-6.4c1.6-1.8,2.4-3.2,2.4-4.4c0-1.4-0.9-3.1-3.4-3.1
			c-1.5,0-2.7,1-3.4,1.8c-0.2,0.2-0.5,0.2-0.6,0l-0.5-0.5c-0.1-0.2-0.2-0.4,0-0.6c0,0,1.7-2.4,4.6-2.4c3.4,0,5.2,2.2,5.2,4.7
			c0,2.1-1.4,3.7-3,5.5l-4.6,4.9h7.1c0.2,0,0.5,0.2,0.5,0.5v0.6c0,0.2-0.2,0.5-0.5,0.5h-9.2c-0.3,0-0.5-0.2-0.5-0.5V141.7
			L169.9,141.7z M182.6,140.4l0.6-0.6c0.3-0.2,0.5-0.1,0.7,0.1c0.2,0.3,1.5,1.7,3.6,1.7c1.8,0,3.5-1.1,3.5-3c0-1.6-1.3-3.2-4.3-3.2
			h-1.4c-0.3,0-0.5-0.1-0.5-0.5v-0.6c0-0.4,0.1-0.5,0.5-0.5h1.3c2.6,0,3.8-1.3,3.8-2.9c0-1.9-1.4-3.1-3.2-3.1c-1.6,0-2.6,1-3.2,1.6
			c-0.1,0.2-0.4,0.3-0.6,0.1L183,129c-0.2-0.2-0.2-0.5,0-0.6c0,0,1.7-2.1,4.4-2.1c2.9,0,5,1.7,5,4.4c0,1.9-1.4,3.3-2.5,3.8v0.1
			c1.1,0.5,2.9,1.8,2.9,3.9c0,2.6-2,4.7-5.4,4.7c-3,0-4.3-1.5-4.8-2.1C182.4,140.8,182.4,140.5,182.6,140.4L182.6,140.4z"/>
	</g>
	<g>
		<path fill="#3C4352" d="M159.1,158.9l1.9-2.1c0.5-0.6,0.8-1,0.8-1.4s-0.3-1-1.1-1c-0.5,0-0.9,0.3-1.1,0.6h-0.2l-0.2-0.1v-0.2
			c0,0,0.6-0.8,1.5-0.8c1.1,0,1.7,0.7,1.7,1.5c0,0.7-0.4,1.2-1,1.8l-1.5,1.6h2.3l0.1,0.1v0.2l-0.1,0.1h-3l-0.1-0.1L159.1,158.9
			L159.1,158.9z M163.5,159l2.2-4.5h-2.5l-0.1-0.1v-0.2l0.1-0.1h3.1l0.1,0.1v0.1l-2.3,4.9l-0.3,0.2h-0.2L163.5,159L163.5,159z
			 M167.4,158.4c0.2,0,0.4,0.2,0.4,0.4s-0.2,0.4-0.4,0.4s-0.4-0.2-0.4-0.4C167,158.6,167.2,158.4,167.4,158.4z M169.3,158.9
			c0.3-0.1,1.7-0.9,2-1.9c0,0-0.5,0.4-1.2,0.4c-0.9,0-1.7-0.7-1.7-1.7s0.8-1.8,1.7-1.8c1.3,0,1.8,1,1.8,2.2c0,2.1-1.8,3-2.6,3.3
			l-0.2-0.1l-0.1-0.2L169.3,158.9L169.3,158.9z M171.4,156.3c0.1-0.8-0.2-1.9-1.2-1.9c-0.7,0-1.2,0.6-1.2,1.2c0,0.7,0.5,1.2,1.2,1.2
			S171.4,156.3,171.4,156.3L171.4,156.3z M172.7,158.4l0.2-0.2h0.2c0.1,0.1,0.5,0.5,1.2,0.5c0.6,0,1.1-0.4,1.1-1c0-0.5-0.4-1-1.4-1
			h-0.4l-0.1-0.2v-0.2l0.2-0.2h0.4c0.8,0,1.2-0.4,1.2-0.9c0-0.6-0.5-1-1-1s-0.9,0.3-1,0.5h-0.2l-0.2-0.1v-0.2c0,0,0.6-0.7,1.4-0.7
			c0.9,0,1.6,0.6,1.6,1.4c0,0.6-0.5,1.1-0.8,1.2l0,0c0.4,0.2,0.9,0.6,0.9,1.3c0,0.8-0.7,1.5-1.7,1.5S172.9,158.6,172.7,158.4
			L172.7,158.4L172.7,158.4z M176.8,154.8c0-0.6,0.5-1.1,1.1-1.1s1.1,0.5,1.1,1.1s-0.5,1.1-1.1,1.1
			C177.3,155.8,176.8,155.3,176.8,154.8z M178.4,154.8c0-0.3-0.3-0.6-0.6-0.6s-0.6,0.3-0.6,0.6s0.3,0.6,0.6,0.6
			C178.2,155.4,178.4,155.1,178.4,154.8z M180.2,153.9l0.1-0.1h0.1l0.1,0.2l-2.7,5.2l-0.1,0.1h-0.1l-0.1-0.2L180.2,153.9
			L180.2,153.9z M180.3,157.2c0.6,0,1.1,0.5,1.1,1.1s-0.5,1.1-1.1,1.1s-1-0.5-1-1.1S179.7,157.2,180.3,157.2z M180.3,158.9
			c0.3,0,0.6-0.3,0.6-0.6s-0.3-0.6-0.6-0.6s-0.6,0.3-0.6,0.6C179.7,158.6,180,158.9,180.3,158.9z"/>
	</g>
	<path fill="none" stroke="#3C4352" stroke-width="2" stroke-miterlimit="10" d="M150.2,162.2c-0.8,0-1.5-0.4-1.9-1.2l-3.5-6.1
		c-0.4-0.8-0.5-1.6-0.1-2.3s1.1-1.1,2-1.1h6.9c0.9,0,1.6,0.4,2,1.1c0.4,0.7,0.4,1.5-0.1,2.3L152,161
		C151.7,161.8,151,162.2,150.2,162.2L150.2,162.2z"/>
	<line fill="none" stroke="#3B4251" stroke-miterlimit="10" x1="132.8" y1="112.6" x2="237.6" y2="112.6"/>
	<g>
		<path fill="#3C4352" d="M149.4,103.8c0.4,0,0.7,0.1,1,0.4v0.1l-0.2,0.3H150l-0.6-0.2c-0.5,0-0.9,0.4-0.9,0.9s0.4,0.9,0.9,0.9
			l0.6-0.2h0.1l0.2,0.3v0.1c-0.3,0.3-0.6,0.4-1,0.4c-0.8,0-1.5-0.6-1.5-1.4C147.9,104.5,148.6,103.8,149.4,103.8L149.4,103.8z
			 M152.3,103.8c0.8,0,1.5,0.7,1.5,1.5s-0.6,1.4-1.5,1.4c-0.8,0-1.4-0.6-1.4-1.4C150.9,104.5,151.5,103.8,152.3,103.8z M152.3,106.2
			c0.5,0,0.9-0.4,0.9-0.9s-0.4-0.9-0.9-0.9s-0.9,0.4-0.9,0.9C151.4,105.8,151.8,106.2,152.3,106.2z M154.5,103.9L154.5,103.9
			l0.2-0.1l1.7,1.8l0,0V104l0.1-0.1h0.4l0.1,0.1v2.7l-0.1,0.1h-0.1l-1.7-1.9l0,0v1.7l-0.1,0.1h-0.4l-0.1-0.1L154.5,103.9
			L154.5,103.9z M157.5,104l0.1-0.1h0.4h0.1l0.8,1.7l0,0l0.8-1.7h0.1h0.4l0.1,0.1l-1.2,2.7H159l0,0h-0.1L157.5,104L157.5,104z
			 M160.7,104L160.7,104l1.7-0.1l0.1,0.1v0.3l-0.1,0.1h-1.2v0.7h1l0.1,0.1v0.3l-0.1,0.1h-1v0.7h1.2l0.1,0.1v0.3l-0.1,0.1h-1.6
			l-0.1-0.1L160.7,104L160.7,104z M163.3,104L163.3,104l1.2-0.1c0.5,0,0.9,0.4,0.9,0.9c0,0.4-0.2,0.7-0.6,0.8l0.6,1l-0.1,0.1h-0.4
			h-0.1l-0.5-1.1h-0.4v1l-0.1,0.1h-0.4l-0.1-0.1L163.3,104L163.3,104z M164.5,105.2c0.2,0,0.4-0.2,0.4-0.4c0-0.2-0.2-0.4-0.4-0.4
			h-0.7v0.8H164.5z M166,106.3l0.1-0.2h0.1l0.6,0.2c0.2,0,0.4-0.1,0.4-0.3c0-0.2-0.2-0.3-0.5-0.5c-0.4-0.2-0.8-0.4-0.8-0.9
			c0-0.4,0.3-0.8,0.9-0.8c0.4,0,0.7,0.2,0.8,0.3v0.1l-0.1,0.2h-0.1l-0.6-0.2c-0.2,0-0.4,0.2-0.4,0.3c0,0.2,0.1,0.3,0.5,0.4
			c0.4,0.2,0.8,0.4,0.8,0.9c0,0.4-0.4,0.8-0.9,0.8S166,106.4,166,106.3L166,106.3L166,106.3z M168.6,104L168.6,104l0.5-0.1l0.1,0.1
			v2.7l-0.1,0.1h-0.4l-0.1-0.1V104z M171.3,103.8c0.8,0,1.5,0.7,1.5,1.5s-0.6,1.4-1.5,1.4c-0.8,0-1.4-0.6-1.4-1.4
			C169.8,104.5,170.5,103.8,171.3,103.8z M171.3,106.2c0.5,0,0.9-0.4,0.9-0.9s-0.4-0.9-0.9-0.9s-0.9,0.4-0.9,0.9
			C170.4,105.8,170.8,106.2,171.3,106.2z M173.5,103.9L173.5,103.9l0.2-0.1l1.7,1.8l0,0V104l0.1-0.1h0.4l0.1,0.1v2.7l-0.1,0.1h-0.1
			l-1.7-1.9l0,0v1.7l-0.1,0.1h-0.4l-0.1-0.1L173.5,103.9L173.5,103.9z M177.9,104L177.9,104l1.2-0.1c0.5,0,0.9,0.4,0.9,0.9
			c0,0.4-0.2,0.7-0.6,0.8l0.6,1l-0.1,0.1h-0.4h-0.1l-0.5-1.1h-0.4v1l-0.1,0.1H178l-0.1-0.1V104z M179.1,105.2c0.2,0,0.4-0.2,0.4-0.4
			c0-0.2-0.2-0.4-0.4-0.4h-0.7v0.8H179.1z M180.4,106.6l1.3-2.7h0.1l0,0h0.1l1.2,2.7l-0.1,0.1h-0.4l-0.1-0.1l-0.2-0.4h-1.2l-0.2,0.4
			l-0.1,0.1L180.4,106.6L180.4,106.6L180.4,106.6z M182.1,105.7l-0.4-0.9l0,0l-0.4,0.9H182.1L182.1,105.7z M183.9,104.4h-0.6
			l-0.1-0.1V104l0.1-0.1h1.8l0.1,0.1v0.3l-0.1,0.1h-0.6v2.3l-0.1,0.1H184l-0.1-0.1V104.4L183.9,104.4z M185.7,104L185.7,104l1.7-0.1
			l0.1,0.1v0.3l-0.1,0.1h-1.2v0.7h1l0.1,0.1v0.3l-0.1,0.1h-1v0.7h1.2l0.1,0.1v0.3l-0.1,0.1h-1.6l-0.1-0.1L185.7,104L185.7,104z"/>
	</g>
	<g>
		<g>
			<line fill="none" stroke="#3B4251" stroke-miterlimit="10" x1="133" y1="171.6" x2="237.9" y2="171.6"/>
			<line fill="none" stroke="#3B4251" stroke-miterlimit="10" x1="132.6" y1="187.1" x2="237.4" y2="187.1"/>
			<g>
				<path fill="#8CC640" d="M141.1,218.8C141.1,218.7,141.2,218.7,141.1,218.8l1.1-0.1c0.6,0,1.1,0.5,1.1,1.1s-0.5,1.1-1.1,1.1h-0.8
					v1.1c0,0,0,0.1-0.1,0.1h-0.2c-0.1,0-0.1,0-0.1-0.1v-3.2H141.1z M142.3,220.5c0.4,0,0.7-0.3,0.7-0.7s-0.3-0.7-0.7-0.7h-0.8v1.4
					H142.3z M143.6,221.9l1.5-3.2c0,0,0-0.1,0.1-0.1l0,0c0,0,0.1,0,0.1,0.1l1.4,3.2c0,0.1,0,0.1-0.1,0.1h-0.2c0,0-0.1,0-0.1-0.1
					l-0.4-0.8h-1.7L144,222c0,0,0,0.1-0.1,0.1h-0.2C143.6,222,143.6,222,143.6,221.9L143.6,221.9z M145.9,220.9l-0.7-1.6l0,0
					l-0.7,1.6H145.9z M147.3,221.5L147.3,221.5c0.1-0.2,0.2-0.2,0.2-0.1c0,0,0.4,0.4,0.8,0.4c0.4,0,0.6-0.2,0.6-0.5
					s-0.3-0.5-0.8-0.8c-0.5-0.2-0.8-0.4-0.8-1c0-0.3,0.3-0.9,1-0.9c0.5,0,0.8,0.2,0.8,0.2s0.1,0.1,0,0.2l-0.1,0.1
					c0,0.1-0.1,0.1-0.2,0c0,0-0.3-0.2-0.6-0.2c-0.5,0-0.7,0.3-0.7,0.5c0,0.3,0.2,0.5,0.6,0.7c0.6,0.3,1.1,0.5,1.1,1.1
					c0,0.5-0.5,0.9-1,0.9c-0.6,0-0.9-0.3-1-0.4C147.3,221.7,147.2,221.6,147.3,221.5L147.3,221.5z M150.8,219H150
					c-0.1,0-0.1,0-0.1-0.1v-0.1c0,0,0-0.1,0.1-0.1h2c0.1,0,0.1,0,0.1,0.1v0.1c0,0,0,0.1-0.1,0.1h-0.8v2.9c0,0,0,0.1-0.1,0.1h-0.2
					c0,0-0.1,0-0.1-0.1L150.8,219L150.8,219z M153.9,221.6l0.1-0.1c0.1,0,0.1,0,0.1,0c0,0.1,0.3,0.3,0.7,0.3s0.7-0.2,0.7-0.6
					c0-0.3-0.3-0.6-0.8-0.6h-0.3c-0.1,0-0.1,0-0.1-0.1v-0.1c0-0.1,0-0.1,0.1-0.1h0.3c0.5,0,0.8-0.3,0.8-0.6c0-0.4-0.3-0.6-0.6-0.6
					s-0.5,0.2-0.6,0.3c0,0-0.1,0.1-0.1,0l-0.1-0.1v-0.1c0,0,0.3-0.4,0.9-0.4c0.6,0,1,0.3,1,0.9c0,0.4-0.3,0.7-0.5,0.8l0,0
					c0.2,0.1,0.6,0.4,0.6,0.8c0,0.5-0.4,0.9-1.1,0.9c-0.6,0-0.9-0.3-1-0.4C153.8,221.6,153.8,221.6,153.9,221.6L153.9,221.6z
					 M156.8,220.4c0-1,0.4-1.7,1.2-1.7c0.7,0,1.2,0.6,1.2,1.7c0,1-0.4,1.7-1.2,1.7C157.2,222.1,156.8,221.5,156.8,220.4z
					 M158.8,220.4c0-0.9-0.3-1.4-0.8-1.4s-0.8,0.5-0.8,1.4s0.3,1.4,0.8,1.4C158.5,221.8,158.8,221.3,158.8,220.4z M161.5,218.8
					C161.5,218.7,161.5,218.7,161.5,218.8l1.2-0.1c0.9,0,1.7,0.8,1.7,1.7s-0.8,1.7-1.7,1.7h-1.1c0,0-0.1,0-0.1-0.1L161.5,218.8
					L161.5,218.8z M162.6,221.7c0.8,0,1.4-0.6,1.4-1.4c0-0.8-0.6-1.3-1.4-1.3h-0.7v2.7H162.6z M164.8,221.9l1.5-3.2
					c0,0,0-0.1,0.1-0.1l0,0c0,0,0.1,0,0.1,0.1l1.4,3.2c0,0.1,0,0.1-0.1,0.1h-0.2c0,0-0.1,0-0.1-0.1l-0.4-0.8h-1.7l-0.4,0.8
					c0,0,0,0.1-0.1,0.1h-0.2C164.8,222,164.8,222,164.8,221.9z M167.1,220.9l-0.7-1.6l0,0l-0.7,1.6H167.1z M169.2,220.4l-1.2-1.6
					c0-0.1,0-0.1,0.1-0.1h0.2h0.1l1,1.3l1-1.3c0,0,0,0,0.1,0h0.2c0.1,0,0.1,0.1,0.1,0.1l-1.2,1.6v1.5c0,0,0,0.1-0.1,0.1h-0.2
					c-0.1,0-0.1,0-0.1-0.1L169.2,220.4L169.2,220.4z M171.2,221.5L171.2,221.5c0.1-0.2,0.2-0.2,0.2-0.1c0,0,0.4,0.4,0.8,0.4
					c0.4,0,0.6-0.2,0.6-0.5s-0.3-0.5-0.8-0.8c-0.5-0.2-0.8-0.4-0.8-1c0-0.3,0.3-0.9,1-0.9c0.5,0,0.8,0.2,0.8,0.2s0.1,0.1,0,0.2
					l-0.1,0.1c0,0.1-0.1,0.1-0.2,0c0,0-0.3-0.2-0.6-0.2c-0.5,0-0.7,0.3-0.7,0.5c0,0.3,0.2,0.5,0.6,0.7c0.6,0.3,1.1,0.5,1.1,1.1
					c0,0.5-0.5,0.9-1,0.9c-0.6,0-0.9-0.3-1-0.4C171.2,221.7,171.2,221.6,171.2,221.5L171.2,221.5z"/>
			</g>
			<g>
				<path fill="#3C4352" d="M140.8,210.9c1.3-1.4,2.7-2.9,4-4.4c1.1-1.2,1.7-2.2,1.7-3c0-0.9-0.6-2.1-2.3-2.1c-1,0-1.8,0.7-2.3,1.2
					c-0.1,0.1-0.3,0.1-0.4,0l-0.3-0.3c-0.1-0.1-0.1-0.3,0-0.4c0,0,1.2-1.6,3.1-1.6c2.4,0,3.6,1.5,3.6,3.2c0,1.4-0.9,2.5-2.1,3.7
					c-1.1,1.1-2.1,2.3-3.2,3.4h4.8c0.2,0,0.3,0.1,0.3,0.3v0.4c0,0.2-0.1,0.3-0.3,0.3h-6.3c-0.2,0-0.3-0.1-0.3-0.3V210.9z"/>
				<path fill="#3C4352" d="M151.1,202.6l-1.2,0.9c-0.1,0.1-0.3,0.1-0.4,0l-0.3-0.3c-0.1-0.1,0-0.3,0-0.4l2.3-2.2h0.4
					c0.2,0,0.3,0.1,0.3,0.3v10.6c0,0.2-0.1,0.3-0.3,0.3h-0.6c-0.2,0-0.3-0.1-0.3-0.3v-8.9H151.1z"/>
				<path fill="#3C4352" d="M155.9,210c0.5,0,1.1,0.3,1.1,1.5c0,1.4-0.9,2.6-1.4,3c-0.2,0.1-0.3,0.1-0.4,0l-0.2-0.2
					c-0.1-0.1-0.1-0.2,0.1-0.4c0.2-0.1,1-0.9,1-2.1c-0.1,0-0.1,0-0.2,0c-0.5,0-0.9-0.4-0.9-0.9C154.9,210.4,155.4,210,155.9,210z"/>
				<path fill="#3C4352" d="M158,208.9v-0.6l6.2-7.8c0,0,0.1-0.1,0.2-0.1h0.3c0.2,0,0.3,0.1,0.3,0.3v7.5h1.3c0.2,0,0.3,0.1,0.3,0.3
					v0.4c0,0.2-0.1,0.3-0.3,0.3H165v2.3c0,0.2-0.1,0.3-0.3,0.3h-0.6c-0.2,0-0.3-0.1-0.3-0.3v-2.2h-5.6
					C158.1,209.2,158,209.1,158,208.9z M164,208.2v-5.7l-4.6,5.7H164z"/>
				<path fill="#3C4352" d="M169.7,211c0.7-0.2,3.7-1.9,4.2-4.1c0,0-1.1,0.7-2.5,0.7c-1.9,0-3.5-1.4-3.5-3.6c0-2.1,1.7-3.8,3.6-3.8
					c2.7,0,3.8,2.1,3.8,4.7c0,4.4-3.8,6.4-5.4,7c-0.2,0.1-0.3,0-0.4-0.2l-0.2-0.4C169.3,211.3,169.3,211.1,169.7,211z M174.1,205.5
					c0.3-1.6-0.4-4.1-2.6-4.1c-1.4,0-2.5,1.2-2.5,2.6c0,1.4,1.1,2.6,2.5,2.6C173,206.6,174.1,205.5,174.1,205.5z"/>
				<path fill="#3C4352" d="M179.2,206L179.2,206c-0.7-0.4-1.7-1.3-1.7-2.6c0-1.8,1.4-3,3.4-3s3.4,1.2,3.4,3c0,1.3-1,2.2-1.7,2.5
					l0,0c0.8,0.3,2,1.3,2,2.7c0,1.8-1.4,3.2-3.7,3.2s-3.7-1.4-3.7-3.2C177.2,207.3,178.4,206.3,179.2,206z M180.9,210.9
					c1.4,0,2.5-0.8,2.5-2.1c0-1-0.9-2.1-2.5-2.2c-1.6,0.2-2.5,1.2-2.5,2.2C178.5,210.1,179.6,210.9,180.9,210.9z M183.1,203.4
					c0-1.2-1-2.1-2.3-2.1c-1.2,0-2.1,0.8-2.1,2.1c0,1,0.7,1.8,2.2,2C182.4,205.3,183.1,204.5,183.1,203.4z"/>
			</g>
		</g>
		<g>
			<path fill="#3B4251" d="M147.8,180.9l0.1-0.2c0-0.1,0.1-0.1,0.1,0c0,0,0.3,0.2,0.5,0.2s0.3-0.1,0.3-0.3s-0.2-0.3-0.5-0.4
				c-0.3-0.1-0.7-0.4-0.7-0.8c0-0.3,0.2-0.7,0.8-0.7c0.4,0,0.7,0.2,0.7,0.2v0.1l-0.1,0.2c0,0-0.1,0.1-0.1,0c0,0-0.3-0.2-0.5-0.2
				s-0.3,0.1-0.3,0.3s0.1,0.3,0.4,0.4c0.4,0.1,0.8,0.4,0.8,0.8c0,0.4-0.3,0.7-0.8,0.7s-0.7-0.2-0.8-0.3
				C147.8,181,147.7,181,147.8,180.9z M149.8,181.2l1.1-2.5c0,0,0,0,0.1,0l0,0h0.1l1.1,2.5c0,0,0,0.1-0.1,0.1h-0.3
				c-0.1,0-0.1,0-0.1-0.1l-0.2-0.4h-1.1l-0.2,0.4c0,0,0,0.1-0.1,0.1L149.8,181.2C149.8,181.3,149.7,181.2,149.8,181.2z M151.3,180.4
				l-0.4-0.8l0,0l-0.4,0.8H151.3z M152.7,178.8C152.7,178.7,152.7,178.7,152.7,178.8l0.4-0.1c0,0,0.1,0,0.1,0.1v2h0.9
				c0,0,0.1,0,0.1,0.1v0.3c0,0,0,0.1-0.1,0.1h-1.3c0,0-0.1,0-0.1-0.1L152.7,178.8L152.7,178.8z M154.7,178.8
				C154.7,178.7,154.7,178.7,154.7,178.8l1.6-0.1c0,0,0.1,0,0.1,0.1v0.3c0,0,0,0.1-0.1,0.1h-1.1v0.6h0.9c0,0,0.1,0,0.1,0.1v0.3
				c0,0,0,0.1-0.1,0.1h-0.9v0.6h1.1c0,0,0.1,0,0.1,0.1v0.3c0,0,0,0.1-0.1,0.1h-1.5c0,0-0.1,0-0.1-0.1V178.8z M156.9,180.9l0.1-0.2
				c0-0.1,0.1-0.1,0.1,0c0,0,0.3,0.2,0.5,0.2s0.3-0.1,0.3-0.3s-0.2-0.3-0.5-0.4c-0.3-0.1-0.7-0.4-0.7-0.8c0-0.3,0.2-0.7,0.8-0.7
				c0.4,0,0.7,0.2,0.7,0.2v0.1l-0.1,0.2c0,0-0.1,0.1-0.1,0c0,0-0.3-0.2-0.5-0.2s-0.3,0.1-0.3,0.3s0.1,0.3,0.4,0.4
				c0.4,0.1,0.8,0.4,0.8,0.8c0,0.4-0.3,0.7-0.8,0.7s-0.7-0.2-0.8-0.3C156.9,181,156.8,181,156.9,180.9z"/>
		</g>
	</g>
	<path fill="none" stroke="#3B4251" stroke-width="2" stroke-miterlimit="10" d="M123,47v14 M207.9,1H143c-5,0-10.3,1.3-13.8,4.7
		c-3.5,3.5-6.2,7.5-6.2,12.4v17.1v166v43.1c0,4.9,2.7,10.1,6.2,13.6s8.9,6,13.8,6h87.6c5,0,9-2.5,12.5-6s4.9-8.7,4.9-13.6v-43.8
		v-62.3v-14.1V62V18.2c0-4.9-1.4-8.9-4.9-12.4s-7.6-4.7-12.5-4.7h-3.5h-19.2V1z M123,69v13 M238,225h-5h-4.1h-83.7h-4.1H132V37h106
		V225z"/>
</g>
<path fill="none" stroke="#3B4251" stroke-miterlimit="10" d="M141.1,107.2c-1.2,0-2.1-0.9-2.1-2.1c0-1.2,0.9-2.1,2.1-2.1
	s2.1,0.9,2.1,2.1C143.1,106.3,142.2,107.2,141.1,107.2z"/>
<path fill="none" stroke="#3B4251" stroke-miterlimit="10" d="M141.2,181.7c-1.2,0-2.1-0.9-2.1-2.1c0-1.2,0.9-2.1,2.1-2.1
	s2.1,0.9,2.1,2.1C143.2,180.8,142.3,181.7,141.2,181.7z"/>
</svg>
