<?xml version="1.0" encoding="utf-8"?>
<!-- Generator: Adobe Illustrator 18.0.0, SVG Export Plug-In . SVG Version: 6.00 Build 0)  -->
<!DOCTYPE svg PUBLIC "-//W3C//DTD SVG 1.1//EN" "http://www.w3.org/Graphics/SVG/1.1/DTD/svg11.dtd">
<svg version="1.1" xmlns="http://www.w3.org/2000/svg" xmlns:xlink="http://www.w3.org/1999/xlink" x="0px" y="0px"
	 viewBox="0 0 174 174" enable-background="new 0 0 174 174" xml:space="preserve">
<g id="Layer_1">
</g>
<g id="Layer_2">
	<g>
		<g>
			<g>
				
					<path fill="none" stroke="#FFFFFF" stroke-width="3" stroke-linecap="round" stroke-linejoin="round" stroke-miterlimit="10" d="
					M40.4,87.8c0,61.9,92.8,61.9,92.8,0"/>
			</g>
		</g>
		<path fill="none" stroke="#3B4251" stroke-width="3" stroke-linecap="round" stroke-linejoin="round" stroke-miterlimit="10" d="
			M93.5,85.5v-8h27v-9h-27v-9h27v-8h-27v-9h27v-3.6c0-18.2-14.5-32.4-32.7-32.4h-0.3c-18.2,0-34,14.2-34,32.4v3.6h26v9h-26v8h26v9
			h-26v9h26v8h-26v2.4c0,18.2,15.7,33.6,33.9,33.6h0.3c18.2,0,32.8-15.4,32.8-33.6v-2.4H93.5z"/>
		<path fill="none" stroke="#3B4251" stroke-width="3" stroke-linecap="round" stroke-linejoin="round" stroke-miterlimit="10" d="
			M118.6,80.5"/>
		
			<line fill="none" stroke="#FFFFFF" stroke-width="3" stroke-linecap="round" stroke-linejoin="round" stroke-miterlimit="10" x1="86.5" y1="135" x2="86.5" y2="169"/>
		
			<line fill="none" stroke="#FFFFFF" stroke-width="3" stroke-linecap="round" stroke-linejoin="round" stroke-miterlimit="10" x1="64" y1="169.5" x2="109" y2="169.5"/>
	</g>
</g>
</svg>
