<?xml version="1.0" encoding="utf-8"?>
<!-- Generator: Adobe Illustrator 18.0.0, SVG Export Plug-In . SVG Version: 6.00 Build 0)  -->
<!DOCTYPE svg PUBLIC "-//W3C//DTD SVG 1.1//EN" "http://www.w3.org/Graphics/SVG/1.1/DTD/svg11.dtd">
<svg version="1.1" id="Layer_3" xmlns="http://www.w3.org/2000/svg" xmlns:xlink="http://www.w3.org/1999/xlink" x="0px" y="0px"
	 viewBox="0 0 174 174" enable-background="new 0 0 174 174" xml:space="preserve">
<g>
	<g opacity="0.15" enable-background="new    ">
		<path fill="none" stroke="#000000" stroke-width="3" stroke-miterlimit="10" d="M75.2,168.1l48.3,2.4c3.1,0.2,5.8-2.3,5.9-5.4
			l0.1-1.6L75.2,168.1z"/>
		<path fill="none" stroke="#000000" stroke-width="3" stroke-miterlimit="10" d="M87.7,6.4L33.2,3.7c-3.1-0.2-5.8,2.3-5.9,5.4
			l-0.1,2.4L87.7,6.4z"/>
		<path fill="none" stroke="#000000" stroke-width="3" stroke-miterlimit="10" d="M127.3,25.1c1,0.8,1.5,1.3,1.6,2.6l4.6,58
			l3.6-71.2c0.2-3.1-2.3-5.8-5.4-5.9l-25.3-1.3L127.3,25.1z"/>
		<path fill="none" stroke="#000000" stroke-width="3" stroke-miterlimit="10" d="M23.4,85.9l-3.7,73.7c-0.2,3.1,2.3,5.8,5.4,5.9
			l4.9,0.2L23.4,85.9z"/>
	</g>
	<path fill="none" stroke="#3B4251" stroke-width="3" stroke-linecap="round" stroke-linejoin="round" stroke-miterlimit="10" d="
		M135.8,119.7l3.3,38.1c0.2,2.8-1.9,5.2-4.6,5.4L35,171.4c-2.7,0.2-5.2-1.9-5.4-4.6L17.3,17.2c-0.2-2.7,1.9-5.2,4.6-5.4l80-6.6
		c1.3-0.1,1.8,0.4,2.8,1.2l22.1,18.8c1,0.8,1.5,1.3,1.6,2.6l5.7,72"/>
	<path fill="none" stroke="#3B4251" stroke-width="3" stroke-linecap="round" stroke-linejoin="round" stroke-miterlimit="10" d="
		M127.6,26.4l-17.3,1.4c-2.8,0.2-5.3-1.9-5.6-4.7l-1.4-17.3c0-0.3,0.3-0.5,0.6-0.3l23.9,20.2C128,26.1,127.9,26.4,127.6,26.4z"/>
	<path opacity="0.15" fill="none" stroke="#000000" stroke-width="3" stroke-miterlimit="10" enable-background="new    " d="
		M62.5,56.6l-24.1,2c-2.2,0.2-4-1.5-4.2-3.6l-2-24.1c-0.2-2.2,1.5-4,3.6-4.2l24.1-2c2.2-0.2,4,1.5,4.2,3.6l2,24.1
		C66.2,54.5,64.6,56.5,62.5,56.6z"/>
	
		<line opacity="0.15" fill="none" stroke="#000000" stroke-width="3" stroke-miterlimit="10" enable-background="new    " x1="35.2" y1="75" x2="68.5" y2="72.2"/>
	
		<line opacity="0.15" fill="none" stroke="#000000" stroke-width="3" stroke-miterlimit="10" enable-background="new    " x1="36.3" y1="88.7" x2="74.9" y2="85.3"/>
	
		<line opacity="0.15" fill="none" stroke="#000000" stroke-width="3" stroke-miterlimit="10" enable-background="new    " x1="37.4" y1="102.5" x2="115.8" y2="95.6"/>
	
		<line opacity="0.15" fill="none" stroke="#000000" stroke-width="3" stroke-miterlimit="10" enable-background="new    " x1="38.5" y1="115.5" x2="121.5" y2="108.7"/>
	
		<line opacity="0.15" fill="none" stroke="#000000" stroke-width="3" stroke-miterlimit="10" enable-background="new    " x1="39.6" y1="129.3" x2="122.6" y2="122.4"/>
	
		<line opacity="0.15" fill="none" stroke="#000000" stroke-width="3" stroke-miterlimit="10" enable-background="new    " x1="40.8" y1="142.9" x2="123.8" y2="136.2"/>
	
		<line opacity="0.15" fill="none" stroke="#000000" stroke-width="3" stroke-miterlimit="10" enable-background="new    " x1="41.9" y1="156.7" x2="124.8" y2="149.9"/>
</g>
<line opacity="0.15" fill="none" stroke="#000000" stroke-width="3" stroke-miterlimit="10" enable-background="new    " x1="73.4" y1="65.5" x2="116.2" y2="61.5"/>
<line opacity="0.15" fill="none" stroke="#000000" stroke-width="3" stroke-miterlimit="10" enable-background="new    " x1="72.6" y1="82.9" x2="115" y2="79.5"/>
<g>
	
		<circle fill="none" stroke="#FFFFFF" stroke-width="3" stroke-linecap="round" stroke-linejoin="round" stroke-miterlimit="10" cx="93.3" cy="68.6" r="24.9"/>
	<g>
		
			<rect x="109.4" y="85.3" transform="matrix(-0.7071 -0.7071 0.7071 -0.7071 132.2109 234.4649)" fill="none" stroke="#FFFFFF" stroke-width="3" stroke-linecap="round" stroke-linejoin="round" stroke-miterlimit="10" width="10.5" height="9.1"/>
		<path fill="none" stroke="#FFFFFF" stroke-width="3" stroke-linecap="round" stroke-linejoin="round" stroke-miterlimit="10" d="
			M141,122.8l5.8,5.8c1.9,1.9,4.7,2,6.6,0.1c1.9-1.9,1.8-4.7-0.1-6.6l-5.8-5.8L141,122.8z"/>
	</g>
	<path fill="none" stroke="#3B4251" stroke-width="3" stroke-linecap="round" stroke-linejoin="round" stroke-miterlimit="10" d="
		M147.1,116.7l-5.7,5.7c-0.7,0.7-2,0.7-2.7,0l-23.1-23.2c-0.7-0.7-0.7-2,0-2.7l5.7-5.7c0.7-0.7,2-0.7,2.7,0l23.1,23.1
		C147.9,114.7,147.9,115.9,147.1,116.7z"/>
	<path fill="none" stroke="#FFFFFF" stroke-width="3" stroke-linecap="round" stroke-linejoin="round" stroke-miterlimit="10" d="
		M73.5,73.1c-0.6-2.9-0.5-6,0-9"/>
</g>
</svg>
