<?xml version="1.0" encoding="utf-8"?>
<!-- Generator: Adobe Illustrator 18.1.0, SVG Export Plug-In . SVG Version: 6.00 Build 0)  -->
<!DOCTYPE svg PUBLIC "-//W3C//DTD SVG 1.1//EN" "http://www.w3.org/Graphics/SVG/1.1/DTD/svg11.dtd">
<svg version="1.1" id="Layer_1" xmlns="http://www.w3.org/2000/svg" xmlns:xlink="http://www.w3.org/1999/xlink" x="0px" y="0px"
	 viewBox="0 0 32 32" enable-background="new 0 0 32 32" xml:space="preserve">
<g>
	<path fill="#3D4350" d="M9.2,13.7c-0.2,0.2-0.4,0.4-0.7,0.7c-1.3-1.3-1.3-3.6,0-4.9c0.2,0.2,0.4,0.4,0.7,0.7
		C8.3,11.1,8.3,12.7,9.2,13.7z"/>
	<path fill="#3D4350" d="M25.8,23.9L19.9,18c-0.3,0.6-0.7,1.1-1.2,1.6c-0.4,0.4-1,0.9-1.6,1.2l5.9,5.9c1,1,2.5,1.2,3.2,0.4
		C27,26.4,26.8,24.9,25.8,23.9z"/>
	<path fill="none" stroke="#3D4350" stroke-width="1.7793" stroke-miterlimit="10" d="M6.8,7.4c2.8-2.8,7.3-2.8,9.9,0
		c2.8,2.8,2.8,7.1,0,9.9s-7.3,2.8-9.9,0C4,14.5,4,10,6.8,7.4z"/>
</g>
</svg>
