<?xml version="1.0" encoding="utf-8"?>
<!-- Generator: Adobe Illustrator 18.1.0, SVG Export Plug-In . SVG Version: 6.00 Build 0)  -->
<!DOCTYPE svg PUBLIC "-//W3C//DTD SVG 1.1//EN" "http://www.w3.org/Graphics/SVG/1.1/DTD/svg11.dtd">
<svg version="1.1" id="Layer_1" xmlns="http://www.w3.org/2000/svg" xmlns:xlink="http://www.w3.org/1999/xlink" x="0px" y="0px"
	 viewBox="0 0 32 32" enable-background="new 0 0 32 32" xml:space="preserve">
<g>
	<path fill="#3D4351" d="M21.7,24.1c-3,0-5.7,1.6-5.7,1.6s-2.8-1.6-5.7-1.6S5,25.9,5,25.9v-2.2c0,0,2.3-1.8,5.3-1.8s5.7,1.6,5.7,1.6
		s2.9-1.6,5.7-1.6c3.1,0,5.3,1.8,5.3,1.8v2.2C27,25.9,24.8,24.1,21.7,24.1z M17.1,20.8v-14c1-0.3,2.6-0.8,4.4-0.8
		c3,0,5.5,1.1,5.5,1.1v14.3c0,0-2.2-1.8-5.3-1.8C20,19.7,18.2,20.3,17.1,20.8z M14.9,20.8c-1.1-0.4-2.9-1.1-4.6-1.1
		c-3,0-5.3,1.8-5.3,1.8V7.2c0,0,2.5-1.1,5.5-1.1c1.8,0,3.4,0.4,4.4,0.8V20.8z"/>
</g>
</svg>
