<?xml version="1.0" encoding="utf-8"?>
<!-- Generator: Adobe Illustrator 18.0.0, SVG Export Plug-In . SVG Version: 6.00 Build 0)  -->
<!DOCTYPE svg PUBLIC "-//W3C//DTD SVG 1.1//EN" "http://www.w3.org/Graphics/SVG/1.1/DTD/svg11.dtd">
<svg version="1.1" id="Layer_1" xmlns="http://www.w3.org/2000/svg" xmlns:xlink="http://www.w3.org/1999/xlink" x="0px" y="0px"
	 viewBox="0 0 174 174" enable-background="new 0 0 174 174" xml:space="preserve">
<g>
	
		<polyline fill-rule="evenodd" clip-rule="evenodd" fill="none" stroke="#3B4251" stroke-width="3" stroke-linecap="round" stroke-linejoin="round" stroke-miterlimit="10" points="
		158.3,47.1 169.4,47.1 169.4,148 3.9,148 3.9,47.1 13.9,47.1 	"/>
	<g>
		
			<path fill-rule="evenodd" clip-rule="evenodd" fill="none" stroke="#FFFFFF" stroke-width="3" stroke-linecap="round" stroke-linejoin="round" stroke-miterlimit="10" d="
			M86.3,134.3c0,0-16.5-7.2-35.7-7.2S15,134.3,15,134.3V31.9c0,0,17.9-7.2,35.3-7.2s36,7.2,36,7.2V134.3z"/>
		
			<path fill-rule="evenodd" clip-rule="evenodd" fill="none" stroke="#FFFFFF" stroke-width="3" stroke-linecap="round" stroke-linejoin="round" stroke-miterlimit="10" d="
			M86.2,134.3c0,0,16.5-7.2,35.7-7.2s35.7,7.2,35.7,7.2V31.9c0,0-17.9-7.2-35.3-7.2s-36,7.2-36,7.2V134.3z"/>
	</g>
	<path opacity="0.15" fill="none" stroke="#000000" stroke-width="3" stroke-miterlimit="10" d="M27.4,44.6l1.1-0.2
		c14.3-2.8,29-2.8,43.3,0l1.1,0.2"/>
	<path opacity="0.15" fill="none" stroke="#000000" stroke-width="3" stroke-miterlimit="10" d="M28.5,60.4c14.3-2.8,29-2.8,43.3,0"
		/>
	<path opacity="0.15" fill="none" stroke="#000000" stroke-width="3" stroke-miterlimit="10" d="M29,76.9c14.3-2.8,29-2.8,43.3,0"/>
	<path opacity="0.15" fill="none" stroke="#000000" stroke-width="3" stroke-miterlimit="10" d="M29,93.9c14.3-2.8,29-2.8,43.3,0"/>
	<path opacity="0.15" fill="none" stroke="#000000" stroke-width="3" stroke-miterlimit="10" d="M29,110.5c14.3-2.8,29-2.8,43.3,0"
		/>
	<path opacity="0.15" fill="none" stroke="#000000" stroke-width="3" stroke-miterlimit="10" d="M99.1,45.1l1.1-0.2
		c14.3-2.8,29-2.8,43.3,0l1.1,0.2"/>
	<path opacity="0.15" fill="none" stroke="#000000" stroke-width="3" stroke-miterlimit="10" d="M100.2,60.9c14.3-2.8,29-2.8,43.3,0
		"/>
	<path opacity="0.15" fill="none" stroke="#000000" stroke-width="3" stroke-miterlimit="10" d="M100.6,77.4c14.3-2.8,29-2.8,43.3,0
		"/>
	<path opacity="0.15" fill="none" stroke="#000000" stroke-width="3" stroke-miterlimit="10" d="M100.6,94.4c14.3-2.8,29-2.8,43.3,0
		"/>
	<path opacity="0.15" fill="none" stroke="#000000" stroke-width="3" stroke-miterlimit="10" d="M100.6,111c14.3-2.8,29-2.8,43.3,0"
		/>
</g>
</svg>
