<?xml version="1.0" encoding="utf-8"?>
<!-- Generator: Adobe Illustrator 19.2.0, SVG Export Plug-In . SVG Version: 6.00 Build 0)  -->
<svg version="1.1" id="Layer_1" xmlns="http://www.w3.org/2000/svg" xmlns:xlink="http://www.w3.org/1999/xlink" x="0px" y="0px"
	 viewBox="0 0 452.1 452.4" style="enable-background:new 0 0 452.1 452.4;" xml:space="preserve">
<style type="text/css">
	.st0{fill:#3D4351;}
</style>
<path class="st0" d="M0,0v452.4h452.1V0H0z M332.5,327.1c0,1.7-1.3,4.4-2.7,5.4c0,0-34.3,22.2-83.1,22.2
	c-67.3,0-121.4-53.5-121.4-120.7c0-67.3,54.2-121.5,121.4-121.5c34,0,58.5,11.8,81.4,31.3c2.7,2.7,3,6.7,0.3,9.4
	c-3,3-6.7,6.4-9.4,9.4c-3,3.4-5,3-8.7-0.3c-17.1-15.1-41.4-26.2-63.9-26.2c-53.1,0-93.5,44.4-93.5,96.5c0,51.8,40.4,97.2,93.5,97.2
	c37,0,60.5-14.1,60.5-14.1v-47.1h-38.7c-3.7,0-6.4-2.7-6.4-6.1v-12.4c0-3.7,2.7-6.4,6.4-6.4h58.2c3.4,0,6.1,3,6.1,6.4L332.5,327.1
	L332.5,327.1z"/>
</svg>
