<svg xmlns="http://www.w3.org/2000/svg" width="20" height="20" viewBox="242 218 16 17" enable-background="new 242 218 16 17"><path fill-rule="evenodd" clip-rule="evenodd" fill="#CACBCF" d="M257.8 232.6l-3-3c-.3-.3-.8-.3-1 0l-1.5-1.5.1-.1c.9-1.1 1.4-2.5 1.4-4 0-3.3-2.6-6-5.8-6-3.2 0-5.9 2.7-5.9 6s2.6 5.9 5.9 5.9c1.2 0 2.3-.3 3.2-.9h.1l1.5 1.6c-.3.3-.3.8 0 1.1l2.9 3.1c.3.3.8.3 1 0l1.1-1.1c.3-.4.3-.8 0-1.1zm-10-4.2c-2.4 0-4.4-2-4.4-4.4 0-2.5 2-4.5 4.4-4.5 2.4 0 4.4 2 4.4 4.5 0 2.4-2 4.4-4.4 4.4z"/></svg>
