<?xml version="1.0" encoding="utf-8"?>
<!-- Generator: Adobe Illustrator 18.1.0, SVG Export Plug-In . SVG Version: 6.00 Build 0)  -->
<!DOCTYPE svg PUBLIC "-//W3C//DTD SVG 1.1//EN" "http://www.w3.org/Graphics/SVG/1.1/DTD/svg11.dtd">
<svg version="1.1" id="Layer_1" xmlns="http://www.w3.org/2000/svg" xmlns:xlink="http://www.w3.org/1999/xlink" x="0px" y="0px"
	 viewBox="0 0 58 58" enable-background="new 0 0 58 58" xml:space="preserve">
<g>
	<path fill="#8DC642" d="M29.2,58C13.2,58,0.3,45.1,0.3,29.2S13.2,0.3,29.2,0.3S58,13.2,58,29.2S45.1,58,29.2,58z M29.2,2.9
		C14.7,2.9,2.9,14.7,2.9,29.2s11.8,26.3,26.3,26.3s26.3-11.8,26.3-26.3S43.7,2.9,29.2,2.9z"/>
</g>
<g>
	<path fill="#8DC642" d="M30,31.4c-0.9,0.6-1.2,1-1.2,1.6c0,0.9,0.5,2.4,0.9,3.7c-0.6,0.3-1.4,0.6-2.3,0.8c-0.8-1-2.2-4.1-2.2-5.8
		c5.3-3.7,7.9-6,7.9-10c0-2.9-1.8-5-4.9-5c-1.3,0-2.5,0.3-3.4,1c-0.1,0.1-0.2,0.3-0.3,0.6l-0.9,4c-0.8-0.1-1.8-0.2-2.5-0.3
		c0.1-1.9,0.3-4.1,0.5-6.1c1.6-0.8,4.3-1.5,7.1-1.5c5.8,0,8.3,3.7,8.3,7.1C37.1,25.4,34.6,28.3,30,31.4z M30.9,43
		c0,1.1-1.1,2.2-2.4,2.2c-1.4,0-2.5-1-2.5-2.3c0-1.2,0.9-2.4,2.5-2.4S30.9,41.8,30.9,43z"/>
</g>
</svg>
