<?xml version="1.0" encoding="utf-8"?>
<!-- Generator: Adobe Illustrator 18.1.0, SVG Export Plug-In . SVG Version: 6.00 Build 0)  -->
<!DOCTYPE svg PUBLIC "-//W3C//DTD SVG 1.1//EN" "http://www.w3.org/Graphics/SVG/1.1/DTD/svg11.dtd">
<svg version="1.1" id="Layer_1" xmlns="http://www.w3.org/2000/svg" xmlns:xlink="http://www.w3.org/1999/xlink" x="0px" y="0px"
	 viewBox="0 0 58 58" enable-background="new 0 0 58 58" xml:space="preserve">
<path fill="#8DC642" d="M28.9,57.7C13,57.7,0,44.8,0,28.8S13,0,28.9,0s28.8,12.9,28.8,28.8S44.8,57.7,28.9,57.7z M28.9,2.5
	C14.4,2.5,2.6,14.3,2.6,28.8s11.8,26.3,26.3,26.3s26.3-11.8,26.3-26.3S43.4,2.5,28.9,2.5z"/>
<path id="c_2_" fill="#8DC642" d="M15.7,23L15.7,23c1.4,0,2.5,1.1,2.5,2.5v8.8c0,1.4-1.1,2.5-2.5,2.5l0,0c-1.4,0-2.5-1.1-2.5-2.5
	v-8.8C13.2,24.1,14.3,23,15.7,23z"/>
<path id="c_3_" fill="#8DC642" d="M25.5,33.1L25.5,33.1c1.4,0,2.5,1.1,2.5,2.5v8.8c0,1.4-1.1,2.5-2.5,2.5l0,0
	c-1.4,0-2.5-1.1-2.5-2.5v-8.8C23,34.2,24.1,33.1,25.5,33.1z"/>
<path id="c" fill="#8DC642" d="M42.4,23L42.4,23c-1.4,0-2.5,1.1-2.5,2.5v8.8c0,1.4,1.1,2.5,2.5,2.5l0,0c1.4,0,2.5-1.1,2.5-2.5v-8.8
	C44.9,24.1,43.8,23,42.4,23z"/>
<path id="c_1_" fill="#8DC642" d="M32.6,33.1L32.6,33.1c-1.4,0-2.5,1.1-2.5,2.5v8.8c0,1.4,1.1,2.5,2.5,2.5l0,0
	c1.4,0,2.5-1.1,2.5-2.5v-8.8C35.1,34.2,34,33.1,32.6,33.1z"/>
<path fill="#8DC642" d="M19.6,23.9v13.6c0,1.3,1,2.3,2.3,2.3h14.3c1.3,0,2.3-1,2.3-2.3V23.9H19.6z"/>
<path fill="#8DC642" d="M34.4,15.8l1.5-2.7c0.1-0.3,0.2-0.6,0.1-0.9c-0.1-0.3-0.3-0.5-0.5-0.7c-0.2-0.1-0.4-0.1-0.6-0.1
	c-0.4,0-0.8,0.2-1,0.6l-1.6,2.8c-1-0.4-2.1-0.5-3.3-0.5c-1.2,0-2.3,0.2-3.3,0.5L24.2,12c-0.2-0.4-0.6-0.6-1-0.6
	c-0.2,0-0.4,0.1-0.6,0.1c-0.3,0.1-0.5,0.4-0.5,0.7c-0.1,0.3,0,0.6,0.1,0.9l1.5,2.7c-2.4,1.6-4,4.1-4.1,7.1h18.9
	C38.5,20,36.9,17.4,34.4,15.8z M24.7,19.7c-0.5,0-0.9-0.4-0.9-0.9c0-0.5,0.4-0.9,0.9-0.9c0.5,0,0.9,0.4,0.9,0.9
	C25.6,19.3,25.2,19.7,24.7,19.7z M33.4,19.7c-0.5,0-0.9-0.4-0.9-0.9c0-0.5,0.4-0.9,0.9-0.9s0.9,0.4,0.9,0.9
	C34.3,19.3,33.9,19.7,33.4,19.7z"/>
</svg>
