<?xml version="1.0" encoding="utf-8"?>
<!-- Generator: Adobe Illustrator 18.1.0, SVG Export Plug-In . SVG Version: 6.00 Build 0)  -->
<!DOCTYPE svg PUBLIC "-//W3C//DTD SVG 1.1//EN" "http://www.w3.org/Graphics/SVG/1.1/DTD/svg11.dtd">
<svg version="1.1" id="Layer_1" xmlns="http://www.w3.org/2000/svg" xmlns:xlink="http://www.w3.org/1999/xlink" x="0px" y="0px"
	 viewBox="0 0 58 58" enable-background="new 0 0 58 58" xml:space="preserve">
<g>
	<path fill="#8DC642" d="M29.2,58.3c-15.9,0-28.8-12.9-28.8-28.8S13.3,0.6,29.2,0.6s28.8,12.9,28.8,28.8S45.1,58.3,29.2,58.3z
		 M29.2,3.2C14.7,3.2,2.9,15,2.9,29.5s11.8,26.3,26.3,26.3S55.5,44,55.5,29.5S43.7,3.2,29.2,3.2z"/>
</g>
<g>
	<path fill="#8DC642" d="M42.4,19.7c0,0.3,0.2,0.5,0.5,0.6l4.3,1.2c0.4,0.1,0.8-0.1,0.9-0.5c0.1-0.2,0-0.5-0.1-0.6l-1.5-2.6
		c-0.2-0.3-0.7-0.4-1-0.3L42.8,19C42.5,19.1,42.4,19.4,42.4,19.7z"/>
	<path fill="#8DC642" d="M38.8,24.1L38.8,24.1c0.1-0.4-0.1-0.7-0.4-0.8l-7-2.3c-0.3-0.1-0.7,0.1-0.8,0.4l-1.5,4.5v0l-1.8,5.6
		l-0.9,2.9c-0.1,0.3,0.1,0.7,0.4,0.8l7,2.3c0.1,0,0.2,0,0.3,0c0.2,0,0.5-0.2,0.6-0.4l0,0L38.8,24.1L38.8,24.1z M34.5,33.2l-5.8-1.9
		l1.4-4.4l5.8,1.9L34.5,33.2z M36.3,27.6l-5.8-1.9l0.3-0.9l0.8-2.4l5.8,1.9L36.3,27.6z"/>
	<path fill="#8DC642" d="M44.3,39.3l3.9,1.3c0.3,0.1,0.7-0.1,0.8-0.4s-0.1-0.7-0.4-0.8l-3.9-1.3c-0.3-0.1-0.7,0.1-0.8,0.4
		S44,39.2,44.3,39.3z"/>
	<path fill="#8DC642" d="M38.8,38.6l0.3,0.1h0c0.2,0.1,0.4-0.1,0.5-0.3l0.8-2.5c0.1-0.2,0-0.4-0.3-0.5l-0.4-0.1L39,35.7
		c-0.1,0.1-0.2,0.2-0.2,0.3l0,0.2c0,0.2,0.1,0.4,0.3,0.4l0,0l-0.5,1.5C38.5,38.3,38.6,38.5,38.8,38.6z"/>
	<path fill="#8DC642" d="M6.1,30.6l4.1-7.8l7.9,1.6c0.2,0,0.3,0,0.5-0.1l6.9-4.6c0.2-0.1,0.3-0.3,0.3-0.5l0.9-8.3l8.6,6.8
		c0.2,0.2,0.4,0.2,0.7,0.1c0.1,0,0.2-0.1,0.2-0.2c0.2-0.3,0.2-0.7-0.1-0.9l-9.5-7.5C26.4,9,26.1,9,25.9,9.1
		c-0.2,0.1-0.4,0.3-0.4,0.5l-0.9,9.2l-6.5,4.3L10,21.5c-0.3-0.1-0.6,0.1-0.7,0.3l-3.7,7.1c0,0.2,0,0.4,0,0.5c0,0.5,0,1,0.1,1.5
		c0,0,0,0,0,0C5.8,30.9,6,30.8,6.1,30.6z"/>
	<path fill="#8DC642" d="M38.5,51.2c0.5-0.2,1-0.5,1.5-0.7l-18-6c-0.3-0.1-0.6,0.1-0.7,0.4l-1.6,4.8c-0.1,0.3,0.1,0.6,0.4,0.7
		l8.3,2.8c0.3,0,0.6,0,0.8,0c0.8,0,1.7,0,2.5-0.1L21,49.4l1.2-3.7L38.5,51.2z"/>
	<path fill="#8DC642" d="M43.9,26.8c0.2-0.6-0.1-1.2-0.8-1.5c-0.6-0.2-1.1,0.2-1.1,0.2c-0.2,0.1-0.3,0.3-0.2,0.5l0.1,0.2
		c0,0.1,0.1,0.2,0.2,0.2l0.2,0l0.1-0.1c0.1-0.1,0.2-0.1,0.2-0.1c0,0,0.1,0,0.1,0.1c0,0-0.1,0.1-0.2,0.2c-0.4,0.3-1,0.7-1.4,1
		l-0.1,0.1L41,27.9c-0.1,0.2,0,0.4,0.3,0.5l1.5,0.5c0.2,0.1,0.4,0,0.5-0.3l0.1-0.3c0.1-0.2,0-0.4-0.3-0.5l-0.2-0.1
		c0.1-0.1,0.3-0.2,0.4-0.3C43.6,27.4,43.8,27.2,43.9,26.8z"/>
	<path fill="#8DC642" d="M42.2,31.3l0.1-0.3c0.1-0.2,0-0.4-0.3-0.5l-1.2-0.4c-0.2-0.1-0.4,0-0.5,0.3L40,31.6c-0.1,0.2,0,0.5,0.3,0.6
		l0.6,0.2c0.2,0.1,0.1,0.1,0.1,0.2c0,0.1-0.1,0.1-0.2,0.1c-0.1,0-0.2-0.2-0.2-0.2c0-0.1-0.1-0.1-0.2-0.2l-0.2,0l-0.4,0.2
		c-0.2,0.1-0.3,0.3-0.2,0.5c0.1,0.1,0.3,0.6,0.9,0.8c0.7,0.2,1.4-0.1,1.6-0.8c0.2-0.5,0-1-0.3-1.3l0,0C42,31.7,42.2,31.5,42.2,31.3z
		"/>
	<path fill="#8DC642" d="M36.6,10.1c0,1.7,1.4,3,3,3s3-1.4,3-3c0-0.1,0-0.1,0-0.2c-0.3-0.2-0.5-0.3-0.8-0.5
		c-0.3,0.1-0.6,0.3-0.6,0.7c0,0.9-0.7,1.6-1.6,1.6c-0.9,0-1.6-0.7-1.6-1.6c0-0.9,0.7-1.6,1.6-1.6c0.2,0,0.4,0,0.6,0.1
		c0.1,0,0.2,0.1,0.3,0.1c-0.8-0.4-1.6-0.8-2.4-1.1C37.2,8,36.6,9,36.6,10.1z"/>
	<path fill="#8DC642" d="M15.6,29.3c-2.6,0-5,1.5-6.1,3.9c0,0,0,0,0,0c-0.5,0.9-0.7,2-0.7,3c0,0.7,0.1,1.3,0.3,2
		c0.9,2.9,3.6,4.9,6.6,4.9c2.3,0,4.4-1.1,5.7-3.1c0,0,0,0,0,0c0.8-1.1,1.2-2.5,1.2-3.8C22.6,32.4,19.5,29.3,15.6,29.3
		C15.7,29.3,15.7,29.3,15.6,29.3z M10.1,36.2c0-0.6,0.1-1.3,0.3-1.8l0.8,0.5l2.7,1.6l-3.8,0.8C10.1,36.9,10.1,36.6,10.1,36.2z
		 M15,41.8c-2-0.2-3.7-1.5-4.5-3.3l4.5-1V41.8z M15,35.6l-4.1-2.4c0.9-1.5,2.1-2.4,4.1-2.6V35.6z M16,30.6c3,0.3,5.2,2.7,5.2,5.6
		c0,0.9-0.3,1.8-0.7,2.6L16,36.3V30.6z M16,37.8l3.6,2.1C18.7,41,18,41.7,16,41.8V37.8z"/>
	<path fill="#8DC642" d="M47.7,44.3L41,42c-0.3-0.1-0.6,0.1-0.7,0.4l-1.6,4.8c-0.1,0.3,0.1,0.6,0.4,0.7l3.5,1.2
		C44.5,47.7,46.2,46.1,47.7,44.3z"/>
	<path fill="#8DC642" d="M50.7,35.2c0.1-0.3-0.1-0.7-0.4-0.8l-3.9-1.3c-0.3-0.1-0.7,0.1-0.8,0.4c-0.1,0.3,0.1,0.7,0.4,0.8l3.9,1.3
		C50.2,35.7,50.6,35.5,50.7,35.2z"/>
	<path fill="#8DC642" d="M52.3,30.2c0.1-0.3-0.1-0.7-0.4-0.8l-3.9-1.3c-0.3-0.1-0.7,0.1-0.8,0.4c-0.1,0.3,0.1,0.7,0.4,0.8l3.9,1.3
		C51.8,30.7,52.2,30.6,52.3,30.2z"/>
	<path fill="#8DC642" d="M9.5,17.4c0.2,0.1,0.3,0.1,0.5,0.1c0.3,0,0.6-0.2,0.8-0.5l2-3.3c0.7,0.7,1.2,1.7,1.2,2.7
		c0,0.2,0.1,0.5,0.4,0.6c0.1,0,0.2,0.1,0.3,0.1c0.1,0,0.3,0,0.4-0.1l7.2-5.2c0.2-0.2,0.3-0.5,0.2-0.8c-0.6-1.3-1.4-2.5-2.4-3.5
		c-0.4,0.2-0.8,0.4-1.2,0.6c0.9,0.9,1.6,1.9,2.2,3l-5.9,4.2c-0.3-1.1-0.9-2-1.7-2.7l1.2-2c-2.2,1.7-4.1,3.8-5.6,6.2
		C9.2,17.1,9.3,17.3,9.5,17.4z"/>
</g>
</svg>
