<?xml version="1.0" encoding="utf-8"?>
<!-- Generator: Adobe Illustrator 18.1.0, SVG Export Plug-In . SVG Version: 6.00 Build 0)  -->
<!DOCTYPE svg PUBLIC "-//W3C//DTD SVG 1.1//EN" "http://www.w3.org/Graphics/SVG/1.1/DTD/svg11.dtd">
<svg version="1.1" id="Layer_1" xmlns="http://www.w3.org/2000/svg" xmlns:xlink="http://www.w3.org/1999/xlink" x="0px" y="0px"
	 viewBox="184 130 58 58" enable-background="new 184 130 58 58" xml:space="preserve">
<path fill="#8CC640" d="M213,188c-16,0-29-13-29-29s13-29,29-29s29,13,29,29S229,188,213,188z M213,132.6
	c-14.6,0-26.4,11.9-26.4,26.4s11.9,26.4,26.4,26.4s26.4-11.9,26.4-26.4S227.6,132.6,213,132.6z"/>
<path fill="none" stroke="#8CC640" stroke-width="2" stroke-miterlimit="10" d="M229.1,167.1h-32.2c-1.2,0-2.1-0.9-2.1-2.1V153
	c0-1.2,0.9-2.1,2.1-2.1h32.2c1.2,0,2.1,0.9,2.1,2.1V165C231.2,166.1,230.3,167.1,229.1,167.1z"/>
<path fill="none" stroke="#8CC640" stroke-miterlimit="10" d="M229.2,167.1h-12.5c-1.1,0-2-0.9-2-2v-12.2c0-1.1,0.9-2,2-2h12.5
	c1.1,0,2,0.9,2,2v12.2C231.2,166.2,230.3,167.1,229.2,167.1z"/>
<g>
	<path fill="#8CC640" d="M202.1,156.2c1.6,0,2.8,1.3,2.8,2.8c0,1.6-1.3,2.8-2.8,2.8c-1.6,0-2.8-1.3-2.8-2.8
		C199.3,157.4,200.5,156.2,202.1,156.2z M202.1,160.8c1,0,1.8-0.8,1.8-1.8c0-1-0.8-1.8-1.8-1.8c-1,0-1.8,0.8-1.8,1.8
		C200.3,160,201.1,160.8,202.1,160.8z"/>
	<path fill="#8CC640" d="M206,156.3c0-0.1,0.1-0.1,0.1-0.1h0.2l3.3,3.5h0v-3.3c0-0.1,0.1-0.1,0.2-0.1h0.7c0.1,0,0.2,0.1,0.2,0.1v5.3
		c0,0.1-0.1,0.1-0.2,0.1h-0.2l-3.3-3.6h0v3.4c0,0.1-0.1,0.1-0.1,0.1h-0.7c-0.1,0-0.1-0.1-0.1-0.1V156.3z"/>
</g>
</svg>
