<svg xmlns="http://www.w3.org/2000/svg" viewBox="0 0 30 27.708" enable-background="new 0 0 30 27.708"><path d="M0 18.852c0-8.166 5.119-15.247 8.267-18.199.981-.885 1.77-.789 2.359-.196l1.378 1.378c.493.493.393 1.474-.589 2.359-.985.885-6.1 5.215-6.1 12.396.393-.096.785-.096 1.178-.096 3.052 0 5.611 2.555 5.611 5.607 0 3.148-2.559 5.607-5.611 5.607-3.149 0-6.493-1.771-6.493-8.856zm17.711 0c0-8.166 5.115-15.247 8.263-18.199.985-.885 1.77-.789 2.359-.196l1.378 1.378c.493.493.397 1.474-.589 2.359s-6.1 5.215-6.1 12.396c.392-.096.789-.096 1.182-.096 3.048 0 5.607 2.555 5.607 5.607 0 3.148-2.559 5.607-5.607 5.607-3.149 0-6.493-1.771-6.493-8.856z"/></svg>