<?xml version="1.0" encoding="utf-8"?>
<!-- Generator: Adobe Illustrator 19.2.0, SVG Export Plug-In . SVG Version: 6.00 Build 0)  -->
<svg version="1.1" id="Layer_1" xmlns="http://www.w3.org/2000/svg" xmlns:xlink="http://www.w3.org/1999/xlink" x="0px" y="0px"
	 viewBox="0 0 42 34" style="enable-background:new 0 0 42 34;" xml:space="preserve">
<style type="text/css">
	.st0{fill:#425686;}
	.st1{opacity:0.5;}
</style>
<g>
	<g>
		<path class="st0" d="M18.1,21.4C18.1,21.4,18.1,21.4,18.1,21.4c-0.5,0-1-0.3-1.3-0.7L14,15.9L12.5,18H9v-2h2.5l1.3-1.9
			c0.3-0.4,0.7-0.7,1.3-0.7c0,0,0,0,0,0c0.5,0,1,0.3,1.3,0.7l2.8,4.8l4.8-8.7c0.7-1,2-0.9,2.6-0.1l3.7,5.9l1.2-2H34v2h-2.4l-1.1,1.8
			c-0.3,0.5-0.8,0.7-1.3,0.7c0,0,0,0,0,0c-0.5,0-1-0.2-1.2-0.7l-3.7-5.9l-4.8,8.8C19.2,21.2,18.7,21.4,18.1,21.4z M14.4,15.3
			L14.4,15.3C14.4,15.3,14.4,15.3,14.4,15.3z"/>
	</g>
	<g>
		<g>
			<path class="st0" d="M21,2c10.5,0,19,6.3,19,14s-8.5,14-19,14c-2.9,0-5.7-0.5-8.4-1.5l-0.7-0.3l-0.7,0.3l-5.1,2l1.1-3.4l0.4-1.3
				l-1-0.9C3.6,22.5,2,19.3,2,16C2,8.3,10.5,2,21,2 M21,0C9.4,0,0,7.2,0,16c0,4.1,2,7.8,5.3,10.6l-2,6.4c-0.1,0.3,0.2,0.6,0.5,0.6
				c0.1,0,0.1,0,0.2,0l8-3.2c2.7,1,5.8,1.6,9.1,1.6c11.6,0,21-7.2,21-16C42,7.2,32.6,0,21,0L21,0z"/>
		</g>
	</g>
	<g class="st1">
		<g>
			<path class="st0" d="M21,6c8.3,0,15,4.5,15,10s-6.7,10-15,10S6,21.5,6,16S12.7,6,21,6 M21,5C12.2,5,5,9.9,5,16s7.2,11,16,11
				s16-4.9,16-11S29.8,5,21,5L21,5z"/>
		</g>
	</g>
</g>
</svg>
