<?xml version="1.0" encoding="utf-8"?>
<!-- Generator: Adobe Illustrator 21.0.0, SVG Export Plug-In . SVG Version: 6.00 Build 0)  -->
<svg version="1.1" id="Layer_1" xmlns="http://www.w3.org/2000/svg" xmlns:xlink="http://www.w3.org/1999/xlink" x="0px" y="0px"
	 viewBox="0 0 40 40" style="enable-background:new 0 0 40 40;" xml:space="preserve">
<style type="text/css">
	.st0{fill:#8DC63F;}
</style>
<path class="st0" d="M20,40C9,40,0,31,0,20S9,0,20,0s20,9,20,20S31,40,20,40z M20,1.8C10,1.8,1.8,10,1.8,20S10,38.2,20,38.2
	S38.2,30,38.2,20S30,1.8,20,1.8z M16.8,28.8c-0.1,0-0.3-0.1-0.4-0.1c-0.3-0.2-0.5-0.5-0.5-0.8V12.1c0-0.4,0.2-0.6,0.5-0.8
	c0.3-0.2,0.6-0.1,0.9,0.1l11.4,7.9c0.2,0.2,0.4,0.4,0.4,0.7c0,0.3-0.1,0.6-0.4,0.7l-11.4,8C17.1,28.7,17,28.8,16.8,28.8z M17.7,13.8
	v12.4l9-6.2L17.7,13.8z"/>
</svg>
