<?xml version="1.0" encoding="utf-8"?>
<!-- Generator: Adobe Illustrator 19.2.0, SVG Export Plug-In . SVG Version: 6.00 Build 0)  -->
<svg version="1.1" id="Layer_1" xmlns="http://www.w3.org/2000/svg" xmlns:xlink="http://www.w3.org/1999/xlink" x="0px" y="0px"
	 viewBox="0 0 48 48" style="enable-background:new 0 0 48 48;" xml:space="preserve">
<style type="text/css">
	.st0{opacity:0.25;}
	.st1{fill:none;stroke:#8CC640;stroke-width:2;stroke-linecap:round;stroke-miterlimit:10;}
	.st2{fill:#8CC640;}
</style>
<g>
	<g>
		<g>
			<path class="st2" d="M24,48C10.8,48,0,37.1,0,24S10.8,0,24,0c3.1,0,6,0.6,8.8,1.7l-1,1.6c-2.5-1-5-1.3-7.8-1.3
				C12.1,2,2,12.2,2,24s10.1,22,22,22s22-10.2,22-22c0-2.7-0.3-5.4-1.3-7.9l1.7-1.1c1.1,2.8,1.7,5.9,1.7,9C48,37.1,37.2,48,24,48z"
				/>
		</g>
		<g>
			<circle class="st2" cx="24" cy="24" r="4"/>
		</g>
		<g>
			<path class="st2" d="M24,25.4c-0.3,0-0.6-0.1-0.8-0.3c-0.5-0.5-0.5-1.2,0-1.7L44.9,1.4c0.5-0.5,1.2-0.5,1.7,0
				c0.5,0.5,0.5,1.2,0,1.7L24.9,25.1C24.6,25.3,24.3,25.4,24,25.4z"/>
		</g>
		<g>
			<polygon class="st2" points="40,1 35,6 35,13 42,13 47,8 40,8 			"/>
		</g>
	</g>
</g>
<path class="st2" d="M34.3,21.7c0.2,0.7,0.2,1.5,0.2,2.3c0,5.8-4.7,10.5-10.5,10.5S13.5,29.8,13.5,24c0-5.8,4.7-10.5,10.5-10.5
	c0.8,0,1.5,0.1,2.3,0.2l4.3-4.3C28.6,8.5,26.3,8,24,8C15.2,8,8,15.2,8,24s7.2,16,16,16s16-7.2,16-16c0-2.3-0.5-4.6-1.4-6.6
	L34.3,21.7z"/>
</svg>
