<?xml version="1.0" encoding="utf-8"?>
<!-- Generator: Adobe Illustrator 19.2.0, SVG Export Plug-In . SVG Version: 6.00 Build 0)  -->
<svg version="1.1" id="Layer_1" xmlns="http://www.w3.org/2000/svg" xmlns:xlink="http://www.w3.org/1999/xlink" x="0px" y="0px"
	 viewBox="0 0 48 48" style="enable-background:new 0 0 48 48;" xml:space="preserve">
<style type="text/css">
	.st0{fill:#8CC640;}
	.st1{fill:#8DC63F;}
	.st2{fill:none;stroke:#8DC63F;stroke-width:2;stroke-linecap:round;stroke-miterlimit:10;}
</style>
<g>
	<path class="st0" d="M24,2c12.1,0,22,9.9,22,22s-9.9,22-22,22S2,36.1,2,24S11.9,2,24,2 M24,0C10.7,0,0,10.7,0,24s10.7,24,24,24
		s24-10.7,24-24S37.3,0,24,0L24,0z"/>
</g>
<g>
	<g>
		<g>
			<path class="st1" d="M18,17v4h-5v-4H18 M18,16h-5c-0.6,0-1,0.4-1,1v4c0,0.6,0.4,1,1,1h5c0.6,0,1-0.4,1-1v-4
				C19,16.4,18.6,16,18,16L18,16z"/>
		</g>
		<g>
			<path class="st1" d="M35,17v4H21v-4H35 M35.4,16H20.6c-0.3,0-0.6,0.3-0.6,0.6v4.8c0,0.3,0.3,0.6,0.6,0.6h14.8
				c0.3,0,0.6-0.3,0.6-0.6v-4.8C36,16.3,35.7,16,35.4,16L35.4,16z"/>
		</g>
		<rect x="13" y="17" class="st1" width="5" height="1"/>
		<rect x="21" y="17" class="st1" width="14" height="1"/>
		<g>
			<path class="st1" d="M37,15v15H11V15H37 M37.2,13H10.8c-1,0-1.8,0.8-1.8,1.7v15.6c0,0.9,0.8,1.7,1.8,1.7h26.5
				c1,0,1.8-0.8,1.8-1.7V14.7C39,13.8,38.2,13,37.2,13L37.2,13z"/>
		</g>
	</g>
	<g>
		<path class="st2" d="M21,31.3V34c0,0.6-0.4,1-1,1h0c-0.6,0-1,0.4-1,1v1"/>
		<line class="st2" x1="24" y1="31.5" x2="24" y2="37.2"/>
	</g>
</g>
<g>
	<path class="st1" d="M35,24v4h-5v-4H35 M35,23h-5c-0.6,0-1,0.4-1,1v4c0,0.6,0.4,1,1,1h5c0.6,0,1-0.4,1-1v-4C36,23.4,35.6,23,35,23
		L35,23z"/>
</g>
<g>
	<path class="st1" d="M27,24v4H13v-4H27 M27.4,23H12.6c-0.3,0-0.6,0.3-0.6,0.6v4.8c0,0.3,0.3,0.6,0.6,0.6h14.8
		c0.3,0,0.6-0.3,0.6-0.6v-4.8C28,23.3,27.7,23,27.4,23L27.4,23z"/>
</g>
<rect x="30" y="24" transform="matrix(-1 -3.565249e-11 3.565249e-11 -1 65 49)" class="st1" width="5" height="1"/>
<rect x="13" y="24" transform="matrix(-1 -4.495527e-11 4.495527e-11 -1 40 49)" class="st1" width="14" height="1"/>
<path class="st2" d="M28,34c0.6,0,1,0.4,1,1v2"/>
<path class="st2" d="M27,31.3V33c0,0.6,0.4,1,1,1h0"/>
</svg>
