<?xml version="1.0" encoding="utf-8"?>
<!-- Generator: Adobe Illustrator 18.1.0, SVG Export Plug-In . SVG Version: 6.00 Build 0)  -->
<!DOCTYPE svg PUBLIC "-//W3C//DTD SVG 1.1//EN" "http://www.w3.org/Graphics/SVG/1.1/DTD/svg11.dtd">
<svg version="1.1" id="Layer_1" xmlns="http://www.w3.org/2000/svg" xmlns:xlink="http://www.w3.org/1999/xlink" x="0px" y="0px"
	 viewBox="0 0 72 72" enable-background="new 0 0 72 72" xml:space="preserve">
<path fill="#8CC640" d="M36,72C16.1,72,0,55.8,0,36S16.1,0,36,0s36,16.2,36,36S55.8,72,36,72z M36,3.2C17.9,3.2,3.2,17.9,3.2,36
	S17.9,68.8,36,68.8S68.8,54.1,68.8,36S54.1,3.2,36,3.2z"/>
<g>
	<path fill="#8CC640" d="M36,55c0.8,0,1.4,0.6,1.4,1.4c0,0.8-0.6,1.4-1.4,1.4c-0.8,0-1.4-0.6-1.4-1.4C34.6,55.7,35.2,55,36,55
		 M36,54c-1.3,0-2.4,1.1-2.4,2.4c0,1.3,1.1,2.4,2.4,2.4s2.4-1.1,2.4-2.4C38.4,55.1,37.3,54,36,54L36,54z"/>
	<path fill="#8CC640" d="M44.5,61.5h-17c-2.7,0-4.5-1.9-4.5-4.5V15c0-2.7,1.9-4.5,4.5-4.5h17c2.7,0,4.5,1.9,4.5,4.5V57
		C49,59.6,47.2,61.5,44.5,61.5z M27.5,12.5c-1.6,0-2.5,1-2.5,2.5V57c0,1.6,1,2.5,2.5,2.5h17c1.6,0,2.5-1,2.5-2.5V15
		c0-1.6-1-2.5-2.5-2.5H27.5z"/>
	<path fill="#8CC640" d="M45.8,53.5H26.2V17.3h19.6V53.5z M27.2,52.5h17.6V18.3H27.2V52.5z"/>
</g>
</svg>
