<?xml version="1.0" encoding="utf-8"?>
<!-- Generator: Adobe Illustrator 21.0.0, SVG Export Plug-In . SVG Version: 6.00 Build 0)  -->
<svg version="1.1" id="Layer_1" xmlns="http://www.w3.org/2000/svg" xmlns:xlink="http://www.w3.org/1999/xlink" x="0px" y="0px"
	 viewBox="0 0 12 12" style="enable-background:new 0 0 12 12;" xml:space="preserve">
<style type="text/css">
	.st0{clip-path:url(#SVGID_2_);}
	.st1{clip-path:url(#SVGID_4_);fill:#9DA0A7;}
</style>
<g>
	<defs>
		<path id="SVGID_1_" d="M7,5V1c0-0.5-0.4-1-1-1C5.4,0,5,0.4,5,1v4H1C0.5,5,0,5.4,0,6c0,0.6,0.4,1,1,1h4v4c0,0.5,0.4,1,1,1
			c0.6,0,1-0.4,1-1V7h4c0.5,0,1-0.4,1-1c0-0.6-0.4-1-1-1H7z"/>
	</defs>
	<clipPath id="SVGID_2_">
		<use xlink:href="#SVGID_1_"  style="overflow:visible;"/>
	</clipPath>
	<g class="st0">
		<defs>
			<rect id="SVGID_3_" x="-1073" y="-2644" width="1440" height="3431"/>
		</defs>
		<clipPath id="SVGID_4_">
			<use xlink:href="#SVGID_3_"  style="overflow:visible;"/>
		</clipPath>
		<rect x="-5" y="-5" class="st1" width="22" height="22"/>
	</g>
</g>
</svg>
