<?xml version="1.0" encoding="utf-8"?>
<!-- Generator: Adobe Illustrator 21.0.0, SVG Export Plug-In . SVG Version: 6.00 Build 0)  -->
<svg version="1.1" id="Layer_1" xmlns="http://www.w3.org/2000/svg" xmlns:xlink="http://www.w3.org/1999/xlink" x="0px" y="0px"
	 viewBox="0 0 64 64" style="enable-background:new 0 0 64 64;" xml:space="preserve">
<style type="text/css">
	.st0{clip-path:url(#SVGID_6_);}
	.st1{clip-path:url(#SVGID_8_);fill:#ADDE6A;}
	.st2{clip-path:url(#SVGID_10_);}
	.st3{clip-path:url(#SVGID_12_);fill:#8DC63F;}
	.st4{clip-path:url(#SVGID_14_);}
	.st5{clip-path:url(#SVGID_16_);fill:#ADDE6A;}
	.st6{clip-path:url(#SVGID_18_);}
	.st7{clip-path:url(#SVGID_20_);fill:#ADDE6A;}
	.st8{clip-path:url(#SVGID_22_);}
	.st9{clip-path:url(#SVGID_24_);fill:#ADDE6A;}
	.st10{clip-path:url(#SVGID_26_);}
	.st11{clip-path:url(#SVGID_28_);fill:#FFFFFF;}
	.st12{clip-path:url(#SVGID_30_);}
	.st13{clip-path:url(#SVGID_32_);fill:#FFFFFF;}
	.st14{clip-path:url(#SVGID_34_);}
	.st15{clip-path:url(#SVGID_36_);fill:#FFFFFF;}
	.st16{clip-path:url(#SVGID_38_);}
	.st17{clip-path:url(#SVGID_40_);fill:#FFFFFF;}
	.st18{clip-path:url(#SVGID_42_);}
	.st19{clip-path:url(#SVGID_44_);fill:#FFFFFF;}
</style>
<g>
	<g>
		<defs>
			<rect id="SVGID_1_" x="-1159" y="-1751" width="1440" height="3431"/>
		</defs>
		<clipPath id="SVGID_2_">
			<use xlink:href="#SVGID_1_"  style="overflow:visible;"/>
		</clipPath>
	</g>
</g>
<g>
	<g>
		<defs>
			<rect id="SVGID_3_" x="-1159" y="-1751" width="1440" height="3431"/>
		</defs>
		<clipPath id="SVGID_4_">
			<use xlink:href="#SVGID_3_"  style="overflow:visible;"/>
		</clipPath>
	</g>
</g>
<g>
	<defs>
		<path id="SVGID_5_" d="M9.2,57C7.4,57,6,55.6,6,53.8V9.2C6,7.4,7.4,6,9.2,6h45.6C56.6,6,58,7.4,58,9.2v44.6c0,1.8-1.4,3.2-3.2,3.2
			H9.2z"/>
	</defs>
	<clipPath id="SVGID_6_">
		<use xlink:href="#SVGID_5_"  style="overflow:visible;"/>
	</clipPath>
	<g class="st0">
		<defs>
			<rect id="SVGID_7_" x="-227" y="-2049" width="1440" height="3431"/>
		</defs>
		<clipPath id="SVGID_8_">
			<use xlink:href="#SVGID_7_"  style="overflow:visible;"/>
		</clipPath>
		<rect x="1" y="1" class="st1" width="62" height="61"/>
	</g>
</g>
<g>
	<defs>
		<path id="SVGID_9_" d="M58,19H6V9.2C6,7.5,7.4,6,9.2,6h45.6C56.6,6,58,7.5,58,9.2V19z"/>
	</defs>
	<clipPath id="SVGID_10_">
		<use xlink:href="#SVGID_9_"  style="overflow:visible;"/>
	</clipPath>
	<g class="st2">
		<defs>
			<rect id="SVGID_11_" x="-227" y="-2049" width="1440" height="3431"/>
		</defs>
		<clipPath id="SVGID_12_">
			<use xlink:href="#SVGID_11_"  style="overflow:visible;"/>
		</clipPath>
		<rect x="1" y="1" class="st3" width="62" height="23"/>
	</g>
</g>
<g>
	<defs>
		<path id="SVGID_13_" d="M23,12.5c0,0.8-0.7,1.5-1.5,1.5S20,13.3,20,12.5s0.7-1.5,1.5-1.5S23,11.7,23,12.5"/>
	</defs>
	<clipPath id="SVGID_14_">
		<use xlink:href="#SVGID_13_"  style="overflow:visible;"/>
	</clipPath>
	<g class="st4">
		<defs>
			<rect id="SVGID_15_" x="-227" y="-2049" width="1440" height="3431"/>
		</defs>
		<clipPath id="SVGID_16_">
			<use xlink:href="#SVGID_15_"  style="overflow:visible;"/>
		</clipPath>
		<rect x="15" y="6" class="st5" width="13" height="13"/>
	</g>
</g>
<g>
	<defs>
		<path id="SVGID_17_" d="M18,12.5c0,0.8-0.7,1.5-1.5,1.5c-0.8,0-1.5-0.7-1.5-1.5s0.7-1.5,1.5-1.5C17.3,11,18,11.7,18,12.5"/>
	</defs>
	<clipPath id="SVGID_18_">
		<use xlink:href="#SVGID_17_"  style="overflow:visible;"/>
	</clipPath>
	<g class="st6">
		<defs>
			<rect id="SVGID_19_" x="-227" y="-2049" width="1440" height="3431"/>
		</defs>
		<clipPath id="SVGID_20_">
			<use xlink:href="#SVGID_19_"  style="overflow:visible;"/>
		</clipPath>
		<rect x="10" y="6" class="st7" width="13" height="13"/>
	</g>
</g>
<g>
	<defs>
		<path id="SVGID_21_" d="M13,12.5c0,0.8-0.7,1.5-1.5,1.5S10,13.3,10,12.5s0.7-1.5,1.5-1.5S13,11.7,13,12.5"/>
	</defs>
	<clipPath id="SVGID_22_">
		<use xlink:href="#SVGID_21_"  style="overflow:visible;"/>
	</clipPath>
	<g class="st8">
		<defs>
			<rect id="SVGID_23_" x="-227" y="-2049" width="1440" height="3431"/>
		</defs>
		<clipPath id="SVGID_24_">
			<use xlink:href="#SVGID_23_"  style="overflow:visible;"/>
		</clipPath>
		<rect x="5" y="6" class="st9" width="13" height="13"/>
	</g>
</g>
<g>
	<defs>
		<circle id="SVGID_25_" cx="26" cy="38" r="2"/>
	</defs>
	<clipPath id="SVGID_26_">
		<use xlink:href="#SVGID_25_"  style="overflow:visible;"/>
	</clipPath>
	<g class="st10">
		<defs>
			<rect id="SVGID_27_" x="-227" y="-2049" width="1440" height="3431"/>
		</defs>
		<clipPath id="SVGID_28_">
			<use xlink:href="#SVGID_27_"  style="overflow:visible;"/>
		</clipPath>
		<rect x="19" y="31" class="st11" width="14" height="14"/>
	</g>
</g>
<g>
	<defs>
		<circle id="SVGID_29_" cx="32" cy="38" r="2"/>
	</defs>
	<clipPath id="SVGID_30_">
		<use xlink:href="#SVGID_29_"  style="overflow:visible;"/>
	</clipPath>
	<g class="st12">
		<defs>
			<rect id="SVGID_31_" x="-227" y="-2049" width="1440" height="3431"/>
		</defs>
		<clipPath id="SVGID_32_">
			<use xlink:href="#SVGID_31_"  style="overflow:visible;"/>
		</clipPath>
		<rect x="25" y="31" class="st13" width="14" height="14"/>
	</g>
</g>
<g>
	<defs>
		<circle id="SVGID_33_" cx="38" cy="38" r="2"/>
	</defs>
	<clipPath id="SVGID_34_">
		<use xlink:href="#SVGID_33_"  style="overflow:visible;"/>
	</clipPath>
	<g class="st14">
		<defs>
			<rect id="SVGID_35_" x="-227" y="-2049" width="1440" height="3431"/>
		</defs>
		<clipPath id="SVGID_36_">
			<use xlink:href="#SVGID_35_"  style="overflow:visible;"/>
		</clipPath>
		<rect x="31" y="31" class="st15" width="14" height="14"/>
	</g>
</g>
<g>
	<defs>
		<path id="SVGID_37_" d="M41,29c-0.6,0-1,0.4-1,1c0,0.6,0.4,1,1,1c1.1,0,2,0.9,2,2v3c0,0.5,0.4,1.2,0.8,1.5l0.7,0.4l-0.7,0.4
			c-0.5,0.3-0.8,1-0.8,1.5v3c0,1.1-0.9,2-2,2c-0.6,0-1,0.4-1,1c0,0.6,0.4,1,1,1h0.2c2.1,0,3.8-1.7,3.8-3.7v-0.8
			c0-1.1,0.6-2.6,1.4-3.4l1.1-1.1l-1.1-1.1c-0.8-0.8-1.4-2.3-1.4-3.4v-0.8c0-2.1-1.7-3.7-3.8-3.7H41z"/>
	</defs>
	<clipPath id="SVGID_38_">
		<use xlink:href="#SVGID_37_"  style="overflow:visible;"/>
	</clipPath>
	<g class="st16">
		<defs>
			<rect id="SVGID_39_" x="-227" y="-2049" width="1440" height="3431"/>
		</defs>
		<clipPath id="SVGID_40_">
			<use xlink:href="#SVGID_39_"  style="overflow:visible;"/>
		</clipPath>
		<rect x="35" y="24" class="st17" width="17.5" height="28"/>
	</g>
</g>
<g>
	<defs>
		<path id="SVGID_41_" d="M23,29c0.6,0,1,0.4,1,1c0,0.6-0.4,1-1,1c-1.1,0-2,0.9-2,2v3c0,0.5-0.4,1.2-0.8,1.5L19.5,38l0.7,0.4
			c0.5,0.3,0.8,1,0.8,1.5v3c0,1.1,0.9,2,2,2c0.6,0,1,0.4,1,1c0,0.6-0.4,1-1,1h-0.2c-2.1,0-3.8-1.7-3.8-3.7v-0.8
			c0-1.1-0.6-2.6-1.4-3.4L16.5,38l1.1-1.1c0.8-0.8,1.4-2.3,1.4-3.4v-0.8c0-2.1,1.7-3.7,3.8-3.7H23z"/>
	</defs>
	<clipPath id="SVGID_42_">
		<use xlink:href="#SVGID_41_"  style="overflow:visible;"/>
	</clipPath>
	<g class="st18">
		<defs>
			<rect id="SVGID_43_" x="-227" y="-2049" width="1440" height="3431"/>
		</defs>
		<clipPath id="SVGID_44_">
			<use xlink:href="#SVGID_43_"  style="overflow:visible;"/>
		</clipPath>
		<rect x="11.5" y="24" class="st19" width="17.5" height="28"/>
	</g>
</g>
</svg>
