<?xml version="1.0" encoding="utf-8"?>
<!-- Generator: Adobe Illustrator 19.2.0, SVG Export Plug-In . SVG Version: 6.00 Build 0)  -->
<svg version="1.1" id="Layer_1" xmlns="http://www.w3.org/2000/svg" xmlns:xlink="http://www.w3.org/1999/xlink" x="0px" y="0px"
	 viewBox="0 0 58 58" style="enable-background:new 0 0 58 58;" xml:space="preserve">
<style type="text/css">
	.st0{fill:#8CC640;}
	.st1{opacity:0.5;fill:none;stroke:#8DC63F;stroke-miterlimit:10;}
	.st2{fill:none;stroke:#8CC640;stroke-width:2;stroke-miterlimit:10;}
	.st3{fill:#3B4251;stroke:#8DC63F;stroke-width:0.5;stroke-miterlimit:10;}
	.st4{fill:none;stroke:#8DC63F;stroke-miterlimit:10;}
</style>
<g>
	<g>
		<path class="st0" d="M29,58C13,58,0,45,0,29S13,0,29,0s29,13,29,29S45,58,29,58z M29,2.6C14.4,2.6,2.6,14.4,2.6,29
			S14.4,55.4,29,55.4S55.4,43.6,55.4,29S43.6,2.6,29,2.6z"/>
	</g>
	<g>
		<line class="st1" x1="14.4" y1="22.2" x2="43.6" y2="22.2"/>
		<path class="st2" d="M43.2,41.8H14.8c-0.2,0-0.4-0.2-0.4-0.4V15.6c0-0.2,0.2-0.4,0.4-0.4h28.4c0.2,0,0.4,0.2,0.4,0.4v25.8
			C43.6,41.6,43.4,41.8,43.2,41.8z"/>
		<path class="st3" d="M20.3,32.9c-0.1,0-0.2,0-0.2-0.1L18.7,31c-0.1-0.1-0.1-0.3,0-0.4c0.1-0.1,0.3-0.1,0.4,0l1.4,1.8
			c0.1,0.1,0.1,0.3,0,0.4C20.5,32.8,20.4,32.9,20.3,32.9z M20.3,32.9c-0.1,0-0.1,0-0.2-0.1c-0.1-0.1-0.1-0.3-0.1-0.4l1.7-2.2
			c0.1-0.1,0.3-0.1,0.4-0.1c0.1,0.1,0.1,0.3,0.1,0.4l-1.7,2.2C20.5,32.8,20.4,32.9,20.3,32.9z M25.1,35.8c-0.1,0-0.2,0-0.2-0.1
			l-3-5.1c-0.1-0.1,0-0.3,0.1-0.4c0.1-0.1,0.3,0,0.4,0.1l3,5.1c0.1,0.1,0,0.3-0.1,0.4C25.2,35.8,25.1,35.8,25.1,35.8z M25.1,35.8
			c0,0-0.1,0-0.1,0c-0.1-0.1-0.2-0.3-0.1-0.4l1.7-2.9c0.1-0.1,0.3-0.2,0.4-0.1c0.1,0.1,0.2,0.3,0.1,0.4l-1.7,2.9
			C25.3,35.8,25.2,35.8,25.1,35.8z M29,35.1c-0.1,0-0.1,0-0.2-0.1l-2.2-2.2c-0.1-0.1-0.1-0.3,0-0.4c0.1-0.1,0.3-0.1,0.4,0l2.2,2.2
			c0.1,0.1,0.1,0.3,0,0.4C29.1,35.1,29,35.1,29,35.1z M29,35.1c-0.1,0-0.1,0-0.2,0c-0.1-0.1-0.2-0.3-0.1-0.4l2.8-4.4
			c0.1-0.1,0.3-0.2,0.4-0.1c0.1,0.1,0.2,0.3,0.1,0.4L29.2,35C29.1,35.1,29.1,35.1,29,35.1z M34.4,34.9c-0.1,0-0.2,0-0.2-0.1
			l-2.5-4.2c-0.1-0.1,0-0.3,0.1-0.4c0.1-0.1,0.3,0,0.4,0.1l2.5,4.2c0.1,0.1,0,0.3-0.1,0.4C34.5,34.8,34.4,34.9,34.4,34.9L34.4,34.9z
			 M34.4,34.9c-0.1,0-0.1,0-0.2-0.1c-0.1-0.1-0.2-0.3-0.1-0.4l5.6-8c0.1-0.1,0.3-0.2,0.4-0.1c0.1,0.1,0.2,0.3,0.1,0.4l-5.6,8
			C34.5,34.8,34.4,34.9,34.4,34.9L34.4,34.9z"/>
		<circle class="st4" cx="18.5" cy="19.1" r="1"/>
	</g>
</g>
<path class="st2" d="M14.4,38.5H9.3c-0.2,0-0.3-0.1-0.3-0.3V18.8c0-0.2,0.1-0.3,0.3-0.3h5.1"/>
<line class="st1" x1="8.9" y1="22.2" x2="14.2" y2="22.2"/>
<path class="st2" d="M43.6,18.5h5.1c0.2,0,0.3,0.1,0.3,0.3v19.4c0,0.2-0.1,0.3-0.3,0.3h-5.1"/>
<line class="st1" x1="49.1" y1="22.2" x2="43.8" y2="22.2"/>
</svg>
