<?xml version="1.0" encoding="utf-8"?>
<!-- Generator: Adobe Illustrator 18.1.0, SVG Export Plug-In . SVG Version: 6.00 Build 0)  -->
<!DOCTYPE svg PUBLIC "-//W3C//DTD SVG 1.1//EN" "http://www.w3.org/Graphics/SVG/1.1/DTD/svg11.dtd">
<svg version="1.1" id="Layer_1" xmlns="http://www.w3.org/2000/svg" xmlns:xlink="http://www.w3.org/1999/xlink" x="0px" y="0px"
	 viewBox="-153 -100.5 370 265" enable-background="new -153 -100.5 370 265" xml:space="preserve">
<g>
	<rect x="-114.5" y="71.8" fill="none" stroke="#3B4251" stroke-width="3" stroke-miterlimit="10" width="59.5" height="41.4"/>
	<rect x="-38.5" y="29.9" fill="none" stroke="#8CC640" stroke-width="3" stroke-miterlimit="10" width="59.5" height="83.3"/>
	<rect x="39.6" y="-11.5" fill="none" stroke="#8CC640" stroke-width="3" stroke-miterlimit="10" width="59.5" height="124.6"/>
	<rect x="121.8" y="-52.9" fill="none" stroke="#8CC640" stroke-width="3" stroke-miterlimit="10" width="59.5" height="166"/>
	<line fill="none" stroke="#8CC640" stroke-width="3" stroke-miterlimit="10" x1="-146.8" y1="130.7" x2="210.8" y2="130.7"/>
</g>
<g>
	<path fill="#3B4251" d="M-116.4,52c0.5-0.3,1.2-0.6,2-0.7c0-0.6,0-1.3,0-1.8c0.3-0.1,0.6-0.1,0.9-0.1c0,0.6,0,1.2,0,1.9
		c1.2,0,2.1,0.3,2.5,0.5c0,0.3-0.3,0.9-0.6,1.1c-0.5-0.3-1.3-0.7-2-0.7c0,1.2-0.1,2.5-0.1,3.7c1.7,0.5,2.9,1.2,2.9,2.8
		c0,0.9-0.4,1.7-1,2.2c-0.5,0.4-1.2,0.8-2.3,0.9c0,0.6,0,1.2,0,1.8c-0.3,0-0.6,0.1-0.9,0.1c0-0.6,0-1.2,0-1.9c-1,0-2.4-0.2-3.3-0.7
		c0.1-0.3,0.4-0.8,0.7-1c0.7,0.4,1.6,0.8,2.6,0.9c0-1.3,0.1-2.7,0.1-4c-1.6-0.6-2.9-1.1-2.9-2.8C-117.7,53.3-117.1,52.5-116.4,52z
		 M-114.5,55.6c0-1.2,0-2.4,0.1-3.5c-0.5,0-1,0.2-1.3,0.5c-0.4,0.3-0.6,0.7-0.6,1.3C-116.4,54.9-115.8,55.2-114.5,55.6z
		 M-113.9,57.1c0,1.3,0,2.6-0.1,3.8c0.6-0.1,1.1-0.3,1.4-0.5c0.4-0.3,0.6-0.8,0.6-1.4C-111.9,57.9-112.6,57.5-113.9,57.1z"/>
	<path fill="#3B4251" d="M-100.9,61.5c0,0.3,0,0.5,0,0.8c-0.6,0-1.4,0-2.2,0c-0.9,0-1.8,0-2.6,0c0-0.3,0-0.5,0-0.8l1.9-0.1
		c0,0,0.1,0,0.1-0.1c0-0.7,0-1.5,0-2.2c-0.6,0-4.6,0-5,0c-0.2-0.3-0.3-0.7-0.5-1.1c0.7-1,1.6-2.2,2.6-3.6c1.2-1.6,2.3-3,3-4
		c0.4,0,0.8,0,1.2,0.1c0,2.4,0,5-0.1,7.6c0.8,0,1.5,0,2,0c0,0.3,0,0.7-0.1,1c-0.3,0-1.6,0-2,0c0,0.8,0,1.5,0,2.3L-100.9,61.5z
		 M-103.7,52.3c-0.7,0.9-1.2,1.7-2.1,3c-0.7,1-1.3,1.9-1.9,2.8c-0.1,0.1,0,0.1,0,0.1c0.9,0,3.7,0,4,0L-103.7,52.3L-103.7,52.3z"/>
	<path fill="#3B4251" d="M-92.7,56.5c-0.9,0.7-1.7,1.1-2.9,1.1c-1,0-1.8-0.4-2.3-0.9c-0.6-0.6-1.1-1.4-1.1-2.4c0-1.3,0.5-2.3,1.5-3
		c0.7-0.5,1.5-0.8,2.5-0.8c1,0,1.9,0.4,2.5,1c0.7,0.8,1.3,1.9,1.3,4.1c0,2.5-0.7,4.3-1.5,5.3c-0.9,1.1-2,1.6-3.6,1.6
		c-0.5,0-1.2,0-1.8-0.2c-0.1-0.8-0.3-1.5-0.4-2.3c0.3-0.1,0.6-0.2,0.9-0.2l0.4,1.5c0,0.1,0.1,0.2,0.2,0.2c0.2,0.1,0.7,0.2,1,0.2
		c1,0,1.9-0.6,2.3-1.2C-93,59.3-92.7,57.8-92.7,56.5L-92.7,56.5z M-96.8,52c-0.5,0.5-0.8,1.3-0.8,2.2c0,0.9,0.2,1.4,0.6,1.9
		c0.4,0.5,1.1,0.7,1.7,0.7c0.9,0,1.9-0.5,2.6-1.3c0-1.5-0.4-2.6-0.8-3.2c-0.3-0.4-0.9-0.9-1.7-0.9C-95.8,51.4-96.4,51.6-96.8,52z"/>
	<path fill="#3B4251" d="M-90.1,63.1c1.1-2.5,2.1-4.9,3.1-7.3c0.8-2,1.8-4.3,2.6-6.2c0.3,0.1,0.7,0.2,1,0.3c-0.8,1.8-2,4.4-2.8,6.3
		c-0.9,2.1-2.2,5.1-3.1,7.1C-89.5,63.3-89.8,63.2-90.1,63.1z"/>
	<path fill="#3B4251" d="M-82.7,55.7c0-0.2,0-0.5,0-0.7c0.7-0.1,2.4-0.5,2.5-0.5c0,0,0.1,0,0.1,0.1c0.1,0.3,0.1,0.7,0.1,1l0.1,0
		c1.7-1,2.1-1.1,2.7-1.1c1,0,1.7,0.8,2,1.2h0.1c1.8-1.1,2.2-1.2,2.9-1.2c1,0,1.6,0.7,1.9,1.2c0.3,0.4,0.4,0.9,0.4,1.4
		c0,1.3,0,3-0.1,4.4l1.2,0c0,0.3,0,0.5,0,0.8c-0.5,0-1.3,0-1.9,0s-1.2,0-1.7,0c0-0.3,0-0.5,0-0.8l1-0.1c0,0,0.1-0.1,0.1-0.1
		c0-1.2,0-2.6,0-3.6c0-0.6,0-1.1-0.2-1.5c-0.3-0.5-0.7-0.7-1.2-0.7c-0.7,0-1.5,0.5-2.2,0.9c0,1.4,0,3.4,0,4.9l1.2,0.1
		c0,0.3,0,0.5,0,0.8c-0.6,0-1.3,0-2,0c-0.6,0-1.2,0-1.7,0c0-0.3,0-0.5,0-0.8l1-0.1c0,0,0.1,0,0.1-0.1c0-1.2,0-2.6,0-3.7
		c0-0.7,0-1.1-0.2-1.5c-0.3-0.5-0.7-0.6-1.1-0.6c-0.6,0-1.5,0.4-2.2,1c0,1.5,0,3.4-0.1,4.9l1.3,0.1c0,0.3,0,0.5,0,0.8
		c-0.6,0-1.3,0-2,0c-0.6,0-1.3,0-1.8,0c0-0.3,0-0.6,0-0.8l1.1-0.1c0,0,0.1,0,0.1-0.1l0-5.6L-82.7,55.7z"/>
	<path fill="#3B4251" d="M-66.1,62c-0.5-0.4-0.5-0.9-0.5-1.4c0-0.9,0-2.4,0-2.9c0-0.6,0-1.6,0-2.1c-0.4,0-0.8,0-1.3,0
		c0-0.3,0-0.6,0-0.9c0.4,0,0.8,0,1.2,0c0.1,0,0.1-0.1,0.1-0.1c0-0.5,0-1.1,0.1-1.7c0.5-0.3,1.2-0.6,1.3-0.6c0,0,0.1,0,0.1,0.1
		c0,0.6,0,1.6,0,2.4c0.9,0,1.9,0,2.9,0c0,0.3,0,0.7-0.1,0.9c-0.8,0-1.8,0-2.8,0c0,0.3,0,1.5,0,2c0,0.7,0,1.8,0,2.7
		c0,0.8,0.5,1.1,1.2,1.1c0.4,0,1.1-0.1,1.8-0.3c0.1,0.3,0.1,0.5,0.1,0.8c-0.9,0.3-1.9,0.5-2.6,0.5C-65.1,62.5-65.6,62.5-66.1,62z"/>
	<path fill="#3B4251" d="M-61.4,61.5l1-0.1c0,0,0.1,0,0.1-0.1c0-3.2,0-7.4,0-10.6l-1.4,0c0-0.3,0-0.5,0-0.8c0.7-0.1,2.6-0.4,2.8-0.4
		c0,0,0.1,0,0.1,0.1c0,1.7,0,3.9-0.1,5.9l0.1,0c1.9-1,2.3-1.1,3-1.1c0.9,0,1.6,0.6,2,1.3c0.2,0.4,0.3,0.8,0.3,1.3c0,1.4,0,2.9,0,4.3
		l1.2,0c0,0.3,0,0.5,0,0.8c-0.6,0-1.3,0-1.9,0c-0.6,0-1.3,0-1.8,0c0-0.3,0-0.5,0-0.8l1.1-0.1c0,0,0.1,0,0.1-0.1c0-1,0-2.3,0-3.3
		c0-0.9,0-1.5-0.3-1.9c-0.3-0.5-0.8-0.6-1.1-0.6c-0.7,0-1.8,0.5-2.5,1c0,1.4,0,3.5,0,4.9l1.4,0c0,0.3,0,0.5,0,0.8
		c-0.6,0-1.4,0-2.1,0c-0.5,0-1.2,0-1.8,0C-61.4,62.1-61.4,61.8-61.4,61.5z"/>
</g>
</svg>
