<?xml version="1.0" encoding="utf-8"?>
<!-- Generator: Adobe Illustrator 18.1.0, SVG Export Plug-In . SVG Version: 6.00 Build 0)  -->
<!DOCTYPE svg PUBLIC "-//W3C//DTD SVG 1.1//EN" "http://www.w3.org/Graphics/SVG/1.1/DTD/svg11.dtd">
<svg version="1.1" id="Layer_1" xmlns="http://www.w3.org/2000/svg" xmlns:xlink="http://www.w3.org/1999/xlink" x="0px" y="0px"
	 viewBox="0 0 72 72" enable-background="new 0 0 72 72" xml:space="preserve">
<path fill="#8CC640" d="M36,72C16.1,72,0,55.8,0,36S16.1,0,36,0s36,16.2,36,36S55.8,72,36,72z M36,3.2C17.9,3.2,3.2,17.9,3.2,36
	S17.9,68.8,36,68.8S68.8,54.1,68.8,36S54.1,3.2,36,3.2z"/>
<path fill="#8CC640" d="M39.4,50c-0.2,0-0.5-0.1-0.7-0.4c-0.4-0.4-0.4-1.1,0-1.5L50.9,36L38.2,23.1c-0.4-0.4-0.4-1.1,0-1.5
	c0.2-0.2,0.5-0.3,0.7-0.3c0.3,0,0.6,0.1,0.7,0.3l13.5,13.5c0.2,0.2,0.4,0.5,0.4,0.7c0,0.2,0,0.3-0.1,0.5c-0.1,0.1-0.1,0.1-0.2,0.2
	l-13,13C39.9,49.9,39.6,50,39.4,50z"/>
<path fill="#8CC640" d="M24.2,50.7c-0.2,0-0.5-0.1-0.7-0.4c-0.2-0.2-0.3-0.5-0.3-0.7c0-0.3,0.1-0.6,0.3-0.7l12.3-12.2L22.9,23.8
	c-0.2-0.2-0.3-0.5-0.3-0.7s0.1-0.6,0.3-0.7s0.5-0.3,0.7-0.3s0.6,0.1,0.7,0.3l13.6,13.5c0.2,0.2,0.3,0.6,0.3,0.9
	c0,0.2-0.1,0.4-0.3,0.6l-13,13C24.7,50.6,24.4,50.7,24.2,50.7z"/>
</svg>
