<svg xmlns="http://www.w3.org/2000/svg" viewBox="0 0 67.875 67.875" enable-background="new 0 0 67.875 67.875"><path fill="#8CC640" d="M33.937 67.875c-18.712 0-33.937-15.225-33.937-33.938s15.225-33.937 33.937-33.937 33.938 15.225 33.938 33.938-15.225 33.937-33.938 33.937zm0-64.875c-17.058 0-30.937 13.879-30.937 30.937s13.879 30.938 30.938 30.938 30.938-13.879 30.938-30.938-13.88-30.937-30.939-30.937zM29.589 45.812c-.131 0-.264-.025-.392-.08-.508-.216-.745-.803-.528-1.312l9.25-21.75c.215-.508.804-.745 1.312-.528.508.216.745.803.528 1.312l-9.25 21.75c-.161.38-.532.608-.92.608zM24.047 40.497c-.112 0-.227-.019-.339-.059l-9.369-3.369c-.381-.138-.642-.491-.66-.896-.019-.405.209-.781.576-.952l9.369-4.369c.5-.232 1.095-.016 1.329.483.233.501.017 1.096-.483 1.329l-7.169 3.344 7.085 2.547c.52.188.789.76.603 1.28-.148.408-.532.662-.942.662zM43.829 40.997c-.377 0-.737-.214-.907-.577-.233-.501-.017-1.096.483-1.329l7.169-3.344-7.085-2.547c-.52-.188-.789-.76-.603-1.28.188-.52.756-.79 1.28-.603l9.369 3.369c.381.138.642.491.66.896.019.405-.209.781-.576.952l-9.369 4.369c-.136.064-.279.094-.421.094z"/></svg>