<?xml version="1.0" encoding="utf-8"?>
<!-- Generator: Adobe Illustrator 18.0.0, SVG Export Plug-In . SVG Version: 6.00 Build 0)  -->
<!DOCTYPE svg PUBLIC "-//W3C//DTD SVG 1.1//EN" "http://www.w3.org/Graphics/SVG/1.1/DTD/svg11.dtd">
<svg version="1.1" id="Layer_1" xmlns="http://www.w3.org/2000/svg" xmlns:xlink="http://www.w3.org/1999/xlink" x="0px" y="0px"
	 viewBox="0 0 290 362" enable-background="new 0 0 290 362" xml:space="preserve">
<g>
	<g>
		<path fill-rule="evenodd" clip-rule="evenodd" fill="none" stroke="#3D4351" stroke-width="4" stroke-miterlimit="10" d="
			M79.6,231.2c0,1.2,1,2.2,2.2,2.2h17.5c1.2,0,2.2-1,2.2-2.2v-17.5c0-1.2-1-2.2-2.2-2.2H81.8c-1.2,0-2.2,1-2.2,2.2V231.2z"/>
		<path fill-rule="evenodd" clip-rule="evenodd" fill="none" stroke="#3D4351" stroke-width="4" stroke-miterlimit="10" d="
			M40.1,231.2c0,1.2,1,2.2,2.2,2.2h17.5c1.2,0,2.2-1,2.2-2.2v-17.5c0-1.2-1-2.2-2.2-2.2H42.3c-1.2,0-2.2,1-2.2,2.2V231.2z"/>
		<path fill-rule="evenodd" clip-rule="evenodd" fill="none" stroke="#3D4351" stroke-width="4" stroke-miterlimit="10" d="
			M79.6,270.8c0,1.2,1,2.2,2.2,2.2h17.5c1.2,0,2.2-1,2.2-2.2v-17.5c0-1.2-1-2.2-2.2-2.2H81.8c-1.2,0-2.2,1-2.2,2.2V270.8z"/>
		<path fill-rule="evenodd" clip-rule="evenodd" fill="none" stroke="#3D4351" stroke-width="4" stroke-miterlimit="10" d="
			M40.1,270.8c0,1.2,1,2.2,2.2,2.2h17.5c1.2,0,2.2-1,2.2-2.2v-17.5c0-1.2-1-2.2-2.2-2.2H42.3c-1.2,0-2.2,1-2.2,2.2V270.8z"/>
		<path fill-rule="evenodd" clip-rule="evenodd" fill="none" stroke="#3D4351" stroke-width="4" stroke-miterlimit="10" d="
			M83.6,353.9h-26v-53.8c0-0.5,0.4-1,1-1h24c0.5,0,1,0.4,1,1V353.9z"/>
		<path fill-rule="evenodd" clip-rule="evenodd" fill="none" stroke="#3D4351" stroke-width="4" stroke-miterlimit="10" d="
			M17.5,189v164.9h40.8h22.6h42.8V189c0-2.8-2.3-5.1-5.1-5.1H22.5C19.8,183.9,17.5,186.2,17.5,189z"/>
	</g>
	<path fill-rule="evenodd" clip-rule="evenodd" fill="none" stroke="#3D4351" stroke-width="4" stroke-miterlimit="10" d="
		M62.1,176.7c0-6.6-5.1-6.4-8.1-6.4V163c0-1.7-1.8-3.1-3.5-3.1c-1.7,0-3.5,1.4-3.5,3.1v7H35c-3.5,0-6.3,3.1-6.3,6.6L62.1,176.7z"/>
	<path fill-rule="evenodd" clip-rule="evenodd" fill="#3D4351" d="M131.3,175.3H10.5c-1.1,0-2,0.9-2,2l0,0c0,1.1,0.9,2,2,2h120.8
		c1.1,0,2-0.9,2-2l0,0C133.3,176.2,132.4,175.3,131.3,175.3z"/>
</g>
<g>
	<g>
		<path fill-rule="evenodd" clip-rule="evenodd" fill="none" stroke="#3D4351" stroke-width="4" stroke-miterlimit="10" d="
			M231.4,354.2h-26v-54.6c0-0.5,0.4-1,1-1h24c0.5,0,1,0.4,1,1V354.2z"/>
		<path fill-rule="evenodd" clip-rule="evenodd" fill="none" stroke="#3D4351" stroke-width="4" stroke-miterlimit="10" d="
			M227.4,113.7c0,1.2,1,2.2,2.2,2.2h17.5c1.2,0,2.2-1,2.2-2.2V96.2c0-1.2-1-2.2-2.2-2.2h-17.5c-1.2,0-2.2,1-2.2,2.2V113.7z"/>
		<path fill-rule="evenodd" clip-rule="evenodd" fill="none" stroke="#3D4351" stroke-width="4" stroke-miterlimit="10" d="
			M187.9,113.7c0,1.2,1,2.2,2.2,2.2h17.5c1.2,0,2.2-1,2.2-2.2V96.2c0-1.2-1-2.2-2.2-2.2h-17.5c-1.2,0-2.2,1-2.2,2.2V113.7z"/>
		<path fill-rule="evenodd" clip-rule="evenodd" fill="none" stroke="#3D4351" stroke-width="4" stroke-miterlimit="10" d="
			M227.4,153.4c0,1.2,1,2.2,2.2,2.2h17.5c1.2,0,2.2-1,2.2-2.2v-17.5c0-1.2-1-2.2-2.2-2.2h-17.5c-1.2,0-2.2,1-2.2,2.2V153.4z"/>
		<path fill-rule="evenodd" clip-rule="evenodd" fill="none" stroke="#3D4351" stroke-width="4" stroke-miterlimit="10" d="
			M187.9,153.4c0,1.2,1,2.2,2.2,2.2h17.5c1.2,0,2.2-1,2.2-2.2v-17.5c0-1.2-1-2.2-2.2-2.2h-17.5c-1.2,0-2.2,1-2.2,2.2V153.4z"/>
		<path fill-rule="evenodd" clip-rule="evenodd" fill="none" stroke="#3D4351" stroke-width="4" stroke-miterlimit="10" d="
			M227.4,191.7c0,1.2,1,2.2,2.2,2.2h17.5c1.2,0,2.2-1,2.2-2.2v-17.5c0-1.2-1-2.2-2.2-2.2h-17.5c-1.2,0-2.2,1-2.2,2.2V191.7z"/>
		<path fill-rule="evenodd" clip-rule="evenodd" fill="none" stroke="#3D4351" stroke-width="4" stroke-miterlimit="10" d="
			M187.8,191.7c0,1.2,1,2.2,2.2,2.2h17.5c1.2,0,2.2-1,2.2-2.2v-17.5c0-1.2-1-2.2-2.2-2.2H190c-1.2,0-2.2,1-2.2,2.2V191.7z"/>
		<path fill-rule="evenodd" clip-rule="evenodd" fill="none" stroke="#3D4351" stroke-width="4" stroke-miterlimit="10" d="
			M227.4,231.3c0,1.2,1,2.2,2.2,2.2h17.5c1.2,0,2.2-1,2.2-2.2v-17.5c0-1.2-1-2.2-2.2-2.2h-17.5c-1.2,0-2.2,1-2.2,2.2V231.3z"/>
		<path fill-rule="evenodd" clip-rule="evenodd" fill="none" stroke="#3D4351" stroke-width="4" stroke-miterlimit="10" d="
			M187.8,231.3c0,1.2,1,2.2,2.2,2.2h17.5c1.2,0,2.2-1,2.2-2.2v-17.5c0-1.2-1-2.2-2.2-2.2H190c-1.2,0-2.2,1-2.2,2.2V231.3z"/>
		<path fill-rule="evenodd" clip-rule="evenodd" fill="none" stroke="#3D4351" stroke-width="4" stroke-miterlimit="10" d="
			M227.4,271c0,1.2,1,2.2,2.2,2.2h17.5c1.2,0,2.2-1,2.2-2.2v-17.5c0-1.2-1-2.2-2.2-2.2h-17.5c-1.2,0-2.2,1-2.2,2.2V271z"/>
		<path fill-rule="evenodd" clip-rule="evenodd" fill="none" stroke="#3D4351" stroke-width="4" stroke-miterlimit="10" d="
			M187.8,271c0,1.2,1,2.2,2.2,2.2h17.5c1.2,0,2.2-1,2.2-2.2v-17.5c0-1.2-1-2.2-2.2-2.2H190c-1.2,0-2.2,1-2.2,2.2V271z"/>
		<g>
			<path fill-rule="evenodd" clip-rule="evenodd" fill="none" stroke="#3D4351" stroke-width="4" stroke-miterlimit="10" d="
				M219.6,47.7c22.2,0,40.2,5.1,40.2,10.9c0-0.3-80.5,0.6-80.5-0.4C179.4,52.4,197.4,47.7,219.6,47.7z"/>
		</g>
		<g>
			<path fill-rule="evenodd" clip-rule="evenodd" fill="none" stroke="#3D4351" stroke-width="4" stroke-miterlimit="10" d="
				M165.3,73.5v280.7h40.8h22.6h42.8V73.5c0-2.8-2.3-5.1-5.1-5.1h-96.1C167.6,68.5,165.3,70.7,165.3,73.5z"/>
		</g>
	</g>
	<path fill-rule="evenodd" clip-rule="evenodd" fill="#3D4351" d="M279.3,57H158.5c-1.1,0-2,0.9-2,2v0c0,1.1,0.9,2,2,2h120.8
		c1.1,0,2-0.9,2-2v0C281.3,57.9,280.4,57,279.3,57z"/>
	<path fill-rule="evenodd" clip-rule="evenodd" fill="#3D4351" d="M218.9,48.8L218.9,48.8c-1.1,0-2-0.9-2-2V7.3c0-1.1,0.9-2,2-2h0
		c1.1,0,2,0.9,2,2v39.5C220.9,47.9,220,48.8,218.9,48.8z"/>
</g>
</svg>
