<?xml version="1.0" encoding="UTF-8"?>
<svg width="12px" height="12px" viewBox="0 0 12 12" version="1.1" xmlns="http://www.w3.org/2000/svg" xmlns:xlink="http://www.w3.org/1999/xlink">
    <!-- Generator: Sketch 43.2 (39069) - http://www.bohemiancoding.com/sketch -->
    <title>Combined Shape</title>
    <desc>Created with Sketch.</desc>
    <defs></defs>
    <g id="Page-1" stroke="none" stroke-width="1" fill="none" fill-rule="evenodd">
        <g id="Pricing" transform="translate(-415.000000, -628.000000)" fill="#3D4351">
            <g id="Group-15" transform="translate(123.000000, 327.000000)">
                <path d="M297,306 L293.002473,306 C292.455761,306 292,306.447715 292,307 C292,307.556135 292.448823,308 293.002473,308 L297,308 L297,311.997527 C297,312.544239 297.447715,313 298,313 C298.556135,313 299,312.551177 299,311.997527 L299,308 L302.997527,308 C303.544239,308 304,307.552285 304,307 C304,306.443865 303.551177,306 302.997527,306 L299,306 L299,302.002473 C299,301.455761 298.552285,301 298,301 C297.443865,301 297,301.448823 297,302.002473 L297,306 Z" id="Combined-Shape"></path>
            </g>
        </g>
    </g>
</svg>