<?xml version="1.0" encoding="utf-8"?>
<!-- Generator: Adobe Illustrator 21.0.0, SVG Export Plug-In . SVG Version: 6.00 Build 0)  -->
<svg version="1.1" id="Layer_1" xmlns="http://www.w3.org/2000/svg" xmlns:xlink="http://www.w3.org/1999/xlink" x="0px" y="0px"
	 viewBox="0 0 64 64" style="enable-background:new 0 0 64 64;" xml:space="preserve">
<style type="text/css">
	.st0{clip-path:url(#SVGID_10_);}
	.st1{clip-path:url(#SVGID_12_);fill:#ADDE6A;}
	.st2{clip-path:url(#SVGID_14_);}
	.st3{clip-path:url(#SVGID_16_);fill:#ADDE6A;}
	.st4{clip-path:url(#SVGID_18_);}
	.st5{clip-path:url(#SVGID_20_);fill:#8DC63F;}
	.st6{clip-path:url(#SVGID_22_);}
	.st7{clip-path:url(#SVGID_24_);fill:#FFFFFF;}
	.st8{clip-path:url(#SVGID_26_);}
	.st9{opacity:0.497;clip-path:url(#SVGID_28_);fill:#FFFFFF;}
	.st10{clip-path:url(#SVGID_30_);}
	.st11{clip-path:url(#SVGID_32_);fill:#FFFFFF;}
	.st12{clip-path:url(#SVGID_34_);}
	.st13{opacity:0.5;clip-path:url(#SVGID_36_);fill:#FFFFFF;}
</style>
<g>
	<g>
		<defs>
			<rect id="SVGID_1_" x="-1159" y="-1751" width="1440" height="3431"/>
		</defs>
		<clipPath id="SVGID_2_">
			<use xlink:href="#SVGID_1_"  style="overflow:visible;"/>
		</clipPath>
	</g>
</g>
<g>
	<g>
		<defs>
			<rect id="SVGID_3_" x="-1159" y="-1751" width="1440" height="3431"/>
		</defs>
		<clipPath id="SVGID_4_">
			<use xlink:href="#SVGID_3_"  style="overflow:visible;"/>
		</clipPath>
	</g>
</g>
<g>
	<g>
		<defs>
			<rect id="SVGID_5_" x="-688" y="-1683" width="1440" height="3431"/>
		</defs>
		<clipPath id="SVGID_6_">
			<use xlink:href="#SVGID_5_"  style="overflow:visible;"/>
		</clipPath>
	</g>
</g>
<g>
	<g>
		<defs>
			<rect id="SVGID_7_" x="-688" y="-1683" width="1440" height="3431"/>
		</defs>
		<clipPath id="SVGID_8_">
			<use xlink:href="#SVGID_7_"  style="overflow:visible;"/>
		</clipPath>
	</g>
</g>
<g>
	<defs>
		<path id="SVGID_9_" d="M55,16h5c2.2,0,4,1.8,4,4v24c0,2.2-1.8,4-4,4h-5V16z"/>
	</defs>
	<clipPath id="SVGID_10_">
		<use xlink:href="#SVGID_9_"  style="overflow:visible;"/>
	</clipPath>
	<g class="st0">
		<defs>
			<rect id="SVGID_11_" x="-1160" y="-2048" width="1440" height="3431"/>
		</defs>
		<clipPath id="SVGID_12_">
			<use xlink:href="#SVGID_11_"  style="overflow:visible;"/>
		</clipPath>
		<rect x="50" y="11" class="st1" width="19" height="42"/>
	</g>
</g>
<g>
	<defs>
		<path id="SVGID_13_" d="M9,16H4c-2.2,0-4,1.8-4,4v24c0,2.2,1.8,4,4,4h5V16z"/>
	</defs>
	<clipPath id="SVGID_14_">
		<use xlink:href="#SVGID_13_"  style="overflow:visible;"/>
	</clipPath>
	<g class="st2">
		<defs>
			<rect id="SVGID_15_" x="-1160" y="-2048" width="1440" height="3431"/>
		</defs>
		<clipPath id="SVGID_16_">
			<use xlink:href="#SVGID_15_"  style="overflow:visible;"/>
		</clipPath>
		<rect x="-5" y="11" class="st3" width="19" height="42"/>
	</g>
</g>
<g>
	<defs>
		<path id="SVGID_17_" d="M11,15c0-2.2,1.8-4,4-4h34c2.2,0,4,1.8,4,4v34c0,2.2-1.8,4-4,4H15c-2.2,0-4-1.8-4-4V15z"/>
	</defs>
	<clipPath id="SVGID_18_">
		<use xlink:href="#SVGID_17_"  style="overflow:visible;"/>
	</clipPath>
	<g class="st4">
		<defs>
			<rect id="SVGID_19_" x="-1160" y="-2048" width="1440" height="3431"/>
		</defs>
		<clipPath id="SVGID_20_">
			<use xlink:href="#SVGID_19_"  style="overflow:visible;"/>
		</clipPath>
		<rect x="6" y="6" class="st5" width="52" height="52"/>
	</g>
</g>
<g>
	<defs>
		<path id="SVGID_21_" d="M31.6,28c-8.3,0-15,6.7-15,15H21c0-6,4.6-11,10.6-11c2,0,3.9,0.4,5.5,1.4l3-3C37.7,28.8,34.8,28,31.6,28z"
			/>
	</defs>
	<clipPath id="SVGID_22_">
		<use xlink:href="#SVGID_21_"  style="overflow:visible;"/>
	</clipPath>
	<g class="st6">
		<defs>
			<rect id="SVGID_23_" x="-1160" y="-2048" width="1440" height="3431"/>
		</defs>
		<clipPath id="SVGID_24_">
			<use xlink:href="#SVGID_23_"  style="overflow:visible;"/>
		</clipPath>
		<rect x="11.6" y="23" class="st7" width="33.5" height="25"/>
	</g>
</g>
<g>
	<defs>
		<path id="SVGID_25_" d="M44.8,35c1.7,2.5,2.8,4.8,2.8,8h-4c0-2.1-0.5-3.8-1.5-5.5L44.8,35z"/>
	</defs>
	<clipPath id="SVGID_26_">
		<use xlink:href="#SVGID_25_"  style="overflow:visible;"/>
	</clipPath>
	<g class="st8">
		<defs>
			<rect id="SVGID_27_" x="-1160" y="-2048" width="1440" height="3431"/>
		</defs>
		<clipPath id="SVGID_28_">
			<use xlink:href="#SVGID_27_"  style="overflow:visible;"/>
		</clipPath>
		<rect x="37" y="30" class="st9" width="15.5" height="18"/>
	</g>
</g>
<g>
	<defs>
		<path id="SVGID_29_" d="M32.6,40.6c-1-0.3-2-0.1-2.8,0.7c-1.1,1.1-1.1,2.9,0,4s2.9,1.1,4,0c0.7-0.7,1-1.7,0.8-2.6l7.9-7.9
			c0.4-0.4,0.4-1,0-1.4l-0.6-0.6c-0.4-0.4-1-0.4-1.4,0L32.6,40.6z"/>
	</defs>
	<clipPath id="SVGID_30_">
		<use xlink:href="#SVGID_29_"  style="overflow:visible;"/>
	</clipPath>
	<g class="st10">
		<defs>
			<rect id="SVGID_31_" x="-1160" y="-2048" width="1440" height="3431"/>
		</defs>
		<clipPath id="SVGID_32_">
			<use xlink:href="#SVGID_31_"  style="overflow:visible;"/>
		</clipPath>
		
			<rect x="22.2" y="31.3" transform="matrix(0.7071 -0.7071 0.7071 0.7071 -17.155 36.8689)" class="st11" width="27.4" height="15.6"/>
	</g>
</g>
<g>
	<defs>
		<path id="SVGID_33_" d="M24,20c0-0.6,0.4-1,1-1h14c0.6,0,1,0.4,1,1c0,0.6-0.4,1-1,1H25C24.4,21,24,20.6,24,20z"/>
	</defs>
	<clipPath id="SVGID_34_">
		<use xlink:href="#SVGID_33_"  style="overflow:visible;"/>
	</clipPath>
	<g class="st12">
		<defs>
			<rect id="SVGID_35_" x="-1160" y="-2048" width="1440" height="3431"/>
		</defs>
		<clipPath id="SVGID_36_">
			<use xlink:href="#SVGID_35_"  style="overflow:visible;"/>
		</clipPath>
		<rect x="19" y="14" class="st13" width="26" height="12"/>
	</g>
</g>
</svg>
