<?xml version="1.0" encoding="utf-8"?>
<!-- Generator: Adobe Illustrator 21.0.0, SVG Export Plug-In . SVG Version: 6.00 Build 0)  -->
<svg version="1.1" id="Layer_1" xmlns="http://www.w3.org/2000/svg" xmlns:xlink="http://www.w3.org/1999/xlink" x="0px" y="0px"
	 viewBox="0 0 12 12" style="enable-background:new 0 0 12 12;" xml:space="preserve">
<style type="text/css">
	.st0{fill:#FFFFFF;}
</style>
<title>Combined Shape</title>
<desc>Created with Sketch.</desc>
<g id="Page-1">
	<g id="Pricing" transform="translate(-415.000000, -628.000000)">
		<g id="Group-15" transform="translate(123.000000, 327.000000)">
			<path id="Combined-Shape" class="st0" d="M297,306h-4c-0.5,0-1,0.4-1,1c0,0.6,0.4,1,1,1h4v4c0,0.5,0.4,1,1,1c0.6,0,1-0.4,1-1v-4
				h4c0.5,0,1-0.4,1-1c0-0.6-0.4-1-1-1h-4v-4c0-0.5-0.4-1-1-1c-0.6,0-1,0.4-1,1V306z"/>
		</g>
	</g>
</g>
</svg>
