<?xml version="1.0" encoding="utf-8"?>
<!-- Generator: Adobe Illustrator 19.2.0, SVG Export Plug-In . SVG Version: 6.00 Build 0)  -->
<svg version="1.1" id="Layer_1" xmlns="http://www.w3.org/2000/svg" xmlns:xlink="http://www.w3.org/1999/xlink" x="0px" y="0px"
	 viewBox="0 0 48 48" style="enable-background:new 0 0 48 48;" xml:space="preserve">
<style type="text/css">
	.st0{fill:#8CC640;}
	.st1{fill:none;stroke:#8DC63F;stroke-miterlimit:10;}
	.st2{fill:#FFFFFF;}
</style>
<g>
	<path class="st0" d="M24,2c12.1,0,22,9.9,22,22s-9.9,22-22,22S2,36.1,2,24S11.9,2,24,2 M24,0C10.7,0,0,10.7,0,24s10.7,24,24,24
		s24-10.7,24-24S37.3,0,24,0L24,0z"/>
</g>
<g>
	<path class="st0" d="M14,20v-5h20v5H14z"/>
	<g>
		<path class="st0" d="M33.8,15c0.1,0,0.2,0.1,0.2,0.2v18.6c0,0.1-0.1,0.2-0.2,0.2H14.2c-0.1,0-0.2-0.1-0.2-0.2V15.2
			c0-0.1,0.1-0.2,0.2-0.2H33.8 M33.8,13H14.2C13,13,12,14,12,15.2v18.6c0,1.2,1,2.2,2.2,2.2h19.6c1.2,0,2.2-1,2.2-2.2V15.2
			C36,14,35,13,33.8,13L33.8,13z"/>
	</g>
	<polyline class="st1" points="16,26 17.5,27.9 18.8,26 21.5,30 23,28 24,29 26,26 28,29 32,24 	"/>
	<g>
		<path class="st2" d="M16,16c-0.6,0-1,0.4-1,1s0.4,1,1,1c0.6,0,1-0.4,1-1S16.6,16,16,16L16,16z"/>
	</g>
</g>
</svg>
