<?xml version="1.0" encoding="utf-8"?>
<!-- Generator: Adobe Illustrator 19.2.0, SVG Export Plug-In . SVG Version: 6.00 Build 0)  -->
<svg version="1.1" id="Layer_1" xmlns="http://www.w3.org/2000/svg" xmlns:xlink="http://www.w3.org/1999/xlink" x="0px" y="0px"
	 viewBox="0 0 320 230" style="enable-background:new 0 0 320 230;" xml:space="preserve">
<style type="text/css">
	.st0{opacity:0.1;fill:#3B4251;enable-background:new    ;}
	.st1{fill:#3B4251;}
	.st2{fill:none;stroke:#8DC63F;stroke-width:2;stroke-miterlimit:10;}
	.st3{opacity:0.5;}
	.st4{fill:none;}
	.st5{clip-path:url(#SVGID_2_);}
	.st6{opacity:0.2;fill:#8BC541;enable-background:new    ;}
	.st7{fill:#8BC541;}
	.st8{fill:none;stroke:#8BC541;stroke-miterlimit:10;}
	.st9{opacity:0.25;fill:#3D4351;enable-background:new    ;}
	.st10{fill:#3D4351;}
	.st11{opacity:0.1;fill:#8BC541;enable-background:new    ;}
	.st12{opacity:0.5;fill:#8BC541;enable-background:new    ;}
	.st13{opacity:0.1;fill:#3D4351;enable-background:new    ;}
	.st14{opacity:0.45;fill:#3D4351;enable-background:new    ;}
	.st15{opacity:0.35;fill:#3D4351;enable-background:new    ;}
	.st16{fill:#FFFFFF;}
	.st17{fill:#3B4251;stroke:#3B4251;stroke-width:0.5;stroke-miterlimit:10;}
</style>
<g>
	<ellipse class="st0" cx="160" cy="225.4" rx="56.1" ry="2.5"/>
	<g>
		<path class="st1" d="M199.8,4.6c4.3,0,7.9,1.4,10.4,3.9c1.2,1.2,2.1,2.7,2.8,4.4c0.7,1.8,1,3.7,1,5.8v189.6c0,2.1-0.3,4-1,5.8
			c-0.6,1.7-1.6,3.2-2.8,4.4c-2.5,2.6-6.1,3.9-10.4,3.9h-79c-4.3,0-7.9-1.4-10.4-3.9c-1.2-1.2-2.1-2.7-2.8-4.4c-0.7-1.8-1-3.7-1-5.8
			V18.7c0-2.1,0.3-4,1-5.8c0.6-1.7,1.6-3.2,2.8-4.4c2.5-2.6,6.1-3.9,10.4-3.9H199.8 M199.8,1.6h-79c-5.1,0-9.4,1.7-12.5,4.8
			c-1.5,1.5-2.6,3.4-3.4,5.4c-0.8,2.1-1.2,4.4-1.2,6.8v189.6c0,2.5,0.4,4.8,1.2,6.8c0.8,2.1,1.9,3.9,3.4,5.4
			c3.1,3.2,7.4,4.8,12.5,4.8h79c5.1,0,9.4-1.7,12.5-4.8c1.5-1.5,2.6-3.4,3.4-5.4c0.8-2.1,1.2-4.4,1.2-6.8V18.7
			c0-2.5-0.4-4.8-1.2-6.8c-0.8-2.1-1.9-3.9-3.4-5.4C209.2,3.3,204.9,1.6,199.8,1.6L199.8,1.6z"/>
	</g>
	<path class="st2" d="M160.1,201.8c-4.1,0-7.4,3.3-7.4,7.4c0,4.1,3.3,7.4,7.4,7.4c4.1,0,7.4-3.3,7.4-7.4S164.2,201.8,160.1,201.8
		L160.1,201.8z"/>
	<g class="st3">
		<circle class="st1" cx="160.2" cy="12.4" r="1.4"/>
		<ellipse class="st1" cx="143.8" cy="18.2" rx="1.2" ry="1.2"/>
		<path class="st1" d="M167.4,17.3h-14.6c-0.6,0-1.1,0.5-1.1,1.1s0.5,1.1,1.1,1.1h14.6c0.6,0,1.1-0.5,1.1-1.1S168,17.3,167.4,17.3z"
			/>
	</g>
	<g>
		<path class="st4" d="M212.9,12.9c-0.6-1.7-1.6-3.2-2.8-4.4c-2.5-2.6-6.1-3.9-10.4-3.9h-79c-4.3,0-7.9,1.4-10.4,3.9
			c-1.2,1.2-2.1,2.7-2.8,4.4c-0.7,1.8-1,3.7-1,5.8v189.6c0,2.1,0.3,4,1,5.8c0.6,1.7,1.6,3.2,2.8,4.4c2.5,2.6,6.1,3.9,10.4,3.9h79
			c4.3,0,7.9-1.4,10.4-3.9c1.2-1.2,2.1-2.7,2.8-4.4c0.7-1.8,1-3.7,1-5.8V18.7C213.9,16.6,213.6,14.7,212.9,12.9z M208.9,194.2
			c0,1.1-0.9,2.1-2.1,2.1h-93.2c-1.2,0-2.1-0.9-2.1-2.1V29c0-1.1,0.9-2.1,2.1-2.1h93.2c1.2,0,2.1,0.9,2.1,2.1V194.2z"/>
	</g>
</g>
<g>
	<g>
		<defs>
			<path id="SVGID_1_" d="M206.7,28.5c0.3,0,0.6,0.2,0.6,0.5v165.2c0,0.3-0.3,0.5-0.6,0.5h-93.2c-0.3,0-0.6-0.2-0.6-0.5V29
				c0-0.3,0.3-0.5,0.6-0.5H206.7"/>
		</defs>
		<clipPath id="SVGID_2_">
			<use xlink:href="#SVGID_1_"  style="overflow:visible;"/>
		</clipPath>
		<g class="st5">
			<g>
				<rect x="113.1" y="28.5" class="st6" width="94.3" height="12.3"/>
				<path class="st7" d="M177.6,35.7H143c-0.5,0-1-0.4-1-1l0,0c0-0.6,0.5-1,1-1h34.6c0.5,0,1,0.4,1,1l0,0
					C178.6,35.2,178.1,35.7,177.6,35.7z"/>
				<g>
					<rect x="117.1" y="32.5" class="st7" width="6.2" height="1"/>
					<rect x="117.1" y="34" class="st7" width="6.2" height="1"/>
					<rect x="117.1" y="35.7" class="st7" width="6.2" height="1"/>
				</g>
				<circle class="st7" cx="200.8" cy="34.5" r="2.6"/>
				<line class="st8" x1="113.1" y1="40.8" x2="207.3" y2="40.8"/>
			</g>
			<g>
				<rect x="113.1" y="44" class="st6" width="94.3" height="11.4"/>
				<g>
					<path class="st1" d="M119.5,75.5c0.9-1,2.3-2.7,3.2-3.8c0.6-0.7,0.9-1.3,0.9-1.8c0-0.6-0.4-1.4-1.5-1.4c-0.7,0-1.2,0.5-1.6,0.8
						c-0.1,0.1-0.2,0.1-0.3,0l-0.4-0.4c-0.1-0.1-0.1-0.2,0-0.3c0,0,0.9-1.2,2.5-1.2c1.8,0,2.8,1.1,2.8,2.5c0,1-0.5,1.6-1.2,2.5
						c-0.7,0.8-1.5,1.8-2.4,2.8h3.3c0.1,0,0.2,0.1,0.2,0.2V76c0,0.1-0.1,0.2-0.2,0.2h-4.9c-0.1,0-0.2-0.1-0.2-0.2v-0.5H119.5z"/>
					<path class="st1" d="M126.2,74.8l0.5-0.5c0.1-0.1,0.2-0.1,0.3,0c0.1,0.1,0.8,0.8,1.7,0.8c0.8,0,1.6-0.5,1.6-1.3
						c0-0.7-0.6-1.5-2.1-1.5h-0.7c-0.1,0-0.2-0.1-0.2-0.3v-0.5c0-0.2,0.1-0.3,0.2-0.3h0.7c1.2,0,1.8-0.6,1.8-1.3
						c0-0.8-0.7-1.4-1.4-1.4s-1.2,0.4-1.4,0.7c-0.1,0.1-0.2,0.1-0.3,0l-0.5-0.4c-0.1-0.1-0.1-0.2,0-0.3c0,0,0.9-1.1,2.4-1.1
						c1.4,0,2.7,0.9,2.7,2.4c0,1-0.7,1.7-1.3,2.1l0,0c0.6,0.2,1.5,1,1.5,2.2c0,1.4-1.1,2.5-2.9,2.5c-1.5,0-2.4-0.8-2.7-1.1
						C126.1,75,126.1,74.8,126.2,74.8z"/>
					<path class="st1" d="M134.7,71.6L134.7,71.6c-0.5-0.3-1.3-1-1.3-2.1c0-1.4,1.1-2.4,2.7-2.4s2.8,0.9,2.8,2.4
						c0,1-0.7,1.6-1.3,1.9v0.1c0.6,0.3,1.5,1,1.5,2.2c0,1.4-1.1,2.5-3,2.5c-1.7,0-3-1-3-2.5C133.2,72.6,134.2,71.8,134.7,71.6z
						 M136,75.2c0.9,0,1.6-0.5,1.6-1.4c0-0.7-0.6-1.3-1.6-1.5c-1,0.2-1.6,0.8-1.6,1.5C134.5,74.6,135.2,75.2,136,75.2z M137.5,69.6
						c0-0.8-0.6-1.3-1.4-1.3c-0.7,0-1.4,0.5-1.4,1.3c0,0.7,0.4,1.2,1.4,1.3C137.1,70.9,137.5,70.2,137.5,69.6z"/>
				</g>
				<path class="st9" d="M180.4,72.2c5.1,0,9.4,3.5,10.9,8.2l9.6-3.8c-2.9-8.7-10.9-14.7-20.4-14.7c-9.4,0-17.5,5.8-20.4,14.5
					l9.7,3.6C171.3,75.5,175.5,72.2,180.4,72.2z"/>
				<path class="st10" d="M179.1,80.6L179.1,80.6c-0.8-0.8-0.8-2.1,0-2.9l0,0c0.2-0.2,0.5-0.5,0.8-0.6l7-4.5
					c0.2-0.1,0.4,0.1,0.3,0.3l-4.5,7c-0.2,0.3-0.4,0.5-0.6,0.8l0,0C181.2,81.4,179.8,81.4,179.1,80.6z"/>
				<path class="st7" d="M151.3,50.7h-32.8c-0.6,0-1-0.4-1-1l0,0c0-0.6,0.4-1,1-1h32.8c0.6,0,1,0.4,1,1l0,0
					C152.3,50.2,151.8,50.7,151.3,50.7z"/>
			</g>
			<g>
				<g>
					<rect x="113.1" y="92.6" class="st6" width="94.3" height="11.4"/>
					<path class="st7" d="M151.3,99.3h-32.8c-0.6,0-1-0.4-1-1l0,0c0-0.6,0.4-1,1-1h32.8c0.6,0,1,0.4,1,1l0,0
						C152.3,98.9,151.8,99.3,151.3,99.3z"/>
				</g>
				<g>
					<rect x="117.5" y="128.4" class="st11" width="31.1" height="12.1"/>
					<rect x="148.4" y="128.4" class="st6" width="26.5" height="12.1"/>
					<rect x="174.9" y="128.4" class="st12" width="26.5" height="12.1"/>
					<rect x="117.5" y="133.2" class="st10" width="41.5" height="2.8"/>
					<rect x="159" y="133.2" class="st9" width="30.9" height="2.8"/>
					<rect x="167.1" y="130.5" class="st10" width="2.1" height="8.2"/>
					<path class="st13" d="M141.1,123h-22.6c-0.6,0-1-0.4-1-1l0,0c0-0.6,0.4-1,1-1h22.6c0.6,0,1,0.4,1,1l0,0
						C142.1,122.6,141.7,123,141.1,123z"/>
					<path class="st9" d="M153.4,118.8h-34.9c-0.6,0-1-0.5-1-1l0,0c0-0.5,0.4-1,1-1h34.9c0.5,0,1,0.4,1,1l0,0
						C154.4,118.3,154,118.8,153.4,118.8z"/>
				</g>
			</g>
			<g>
				<g>
					<rect x="113.1" y="150.7" class="st6" width="94.3" height="11.4"/>
					<path class="st7" d="M151.3,157.4h-32.8c-0.6,0-1-0.4-1-1l0,0c0-0.6,0.4-1,1-1h32.8c0.6,0,1,0.4,1,1l0,0
						C152.3,156.9,151.8,157.4,151.3,157.4z"/>
				</g>
				<g>
					<rect x="117.5" y="171.1" class="st14" width="50.2" height="8.8"/>
					<rect x="126.1" y="179.9" class="st15" width="41.5" height="8.8"/>
					<rect x="129.8" y="188.7" class="st9" width="37.9" height="8.8"/>
					<rect x="154.9" y="174.4" class="st16" width="10.3" height="2.1"/>
					<rect x="154.9" y="183.2" class="st16" width="10.3" height="2.1"/>
					<rect x="154.9" y="191.9" class="st16" width="10.3" height="2.1"/>
					<path class="st13" d="M192,176.4h-20.5c-0.6,0-1-0.4-1-1l0,0c0-0.6,0.4-1,1-1H192c0.6,0,1,0.4,1,1l0,0
						C193.1,176,192.6,176.4,192,176.4z"/>
					<path class="st13" d="M185.9,185.2h-14.4c-0.6,0-1-0.4-1-1l0,0c0-0.6,0.4-1,1-1h14.4c0.6,0,1,0.4,1,1l0,0
						C186.9,184.7,186.4,185.2,185.9,185.2z"/>
					<path class="st13" d="M181.8,194h-10.3c-0.6,0-1-0.4-1-1l0,0c0-0.6,0.4-1,1-1h10.3c0.6,0,1,0.4,1,1l0,0
						C182.8,193.5,182.3,194,181.8,194z"/>
				</g>
			</g>
		</g>
	</g>
</g>
<g class="st3">
	<g>
		<path class="st17" d="M206.7,28.5c0.3,0,0.6,0.2,0.6,0.6v165.2c0,0.3-0.3,0.6-0.6,0.6h-93.2c-0.3,0-0.6-0.2-0.6-0.6V29
			c0-0.3,0.3-0.6,0.6-0.6h93.2 M206.7,27h-93.2c-1.2,0-2.1,0.9-2.1,2.1v165.2c0,1.1,0.9,2.1,2.1,2.1h93.2c1.2,0,2.1-0.9,2.1-2.1V29
			C208.9,27.9,207.9,27,206.7,27L206.7,27z"/>
	</g>
</g>
</svg>
