<svg xmlns="http://www.w3.org/2000/svg" viewBox="0 0 126 114" enable-background="new 0 0 126 114"><path fill="#3C4352" d="M96.033 108.48h-68.11c-1.359 0-2.465-1.105-2.465-2.465v-97.97c0-1.359 1.106-2.465 2.465-2.465h68.11c1.359 0 2.465 1.106 2.465 2.465v97.97c0 1.36-1.105 2.465-2.465 2.465zm-68.11-101.899c-.808 0-1.465.657-1.465 1.465v97.97c0 .808.657 1.465 1.465 1.465h68.11c.808 0 1.465-.657 1.465-1.465v-97.971c0-.808-.657-1.465-1.465-1.465h-68.11zM94.315 105.411h-64.795c-.276 0-.5-.224-.5-.5v-95.76c0-.276.224-.5.5-.5h64.795c.276 0 .5.224.5.5v95.76c0 .277-.223.5-.5.5zm-64.295-1h63.795v-94.76h-63.795v94.76z"/><path fill="#8BC541" d="M59.97 40.076h-24.832c-.276 0-.5-.224-.5-.5v-25.657c0-.276.224-.5.5-.5h24.832c.276 0 .5.224.5.5v25.657c0 .277-.223.5-.5.5zm-24.332-1h23.832v-24.657h-23.832v24.657z"/><path fill="#3C4352" d="M41.825 26.5h-4.014c-.399 0-.725-.167-.896-.459-.17-.292-.155-.658.042-1.004l2.021-3.573c.395-.698 1.287-.699 1.681 0l2.02 3.573c.196.347.211.713.042 1.005-.171.291-.497.458-.896.458zm-3.976-1.01l3.932.009-1.958-3.483-1.974 3.474z"/><g fill="#3C4352"><path d="M44.123 21.512c0-.068.062-.13.13-.13h.261c.076 0 .131.062.131.13v2.864c0 .783.487 1.394 1.291 1.394.811 0 1.305-.597 1.305-1.38v-2.877c0-.068.055-.13.13-.13h.261c.068 0 .13.062.13.13v2.905c0 1.043-.742 1.84-1.827 1.84-1.078 0-1.812-.797-1.812-1.84v-2.906zM49.099 21.512c0-.068.055-.13.131-.13h1.517c.845 0 1.538.687 1.538 1.518 0 .852-.693 1.545-1.531 1.545h-1.133v1.614c0 .068-.062.13-.13.13h-.261c-.076 0-.131-.062-.131-.13v-4.547zm1.613 2.425c.563 0 1.044-.46 1.044-1.051 0-.556-.481-.982-1.044-.982h-1.092v2.033h1.092z"/></g><g fill="#8BC541"><path d="M37.276 35.022l.114-.109h.058c.007.009.138.12.274.12.121 0 .236-.087.236-.209 0-.116-.107-.22-.308-.22h-.125l-.042-.044v-.141l.042-.044h.125c.183 0 .276-.091.276-.205 0-.123-.103-.205-.216-.205-.116 0-.187.062-.225.107l-.061.002-.109-.103v-.058s.169-.196.419-.196c.258 0 .474.158.474.408 0 .171-.129.301-.229.348v.006c.104.044.27.165.27.363 0 .251-.205.435-.513.435-.278 0-.414-.141-.463-.198l.003-.057zM38.563 34.889v-.185l.802-.976.033-.014h.12l.042.042v.949h.178l.042.04v.138l-.042.042h-.178l.002.285-.042.042h-.185l-.042-.042v-.281h-.688l-.042-.04zm.74-.189v-.535l-.446.535h.446zM40.536 34.341l.198.04v-.644l.042-.042h.189l.042.042v1.475l-.042.042h-.087l-.042-.042-.022-.069s-.105.134-.292.134c-.243 0-.428-.212-.428-.468.001-.261.177-.468.442-.468zm.02.695c.118 0 .172-.091.188-.145v-.258s-.062-.051-.174-.051c-.125 0-.216.103-.216.227 0 .125.084.227.202.227zM42.289 34.145l-.196.042-.044-.029-.014-.109.011-.04.321-.27h.156l.04.042v1.43l-.04.042h-.191l-.042-.042v-1.066zM43.229 35.063c.105-.034.421-.183.49-.428-.038.022-.149.062-.254.062-.223 0-.455-.165-.455-.483 0-.281.229-.51.503-.51.35 0 .53.28.53.615 0 .65-.55.909-.742.971l-.062-.031-.051-.131.041-.065zm.548-.778c0-.151-.081-.327-.261-.327-.141 0-.254.12-.254.26 0 .143.113.261.256.261.148 0 .234-.113.259-.194zM44.445 33.737l.042-.042h.189l.042.042v.677c.044-.034.131-.074.236-.074.283 0 .398.219.398.443v.428l-.042.042h-.181l-.042-.042v-.43c0-.123-.069-.201-.176-.201-.103 0-.171.067-.194.158v.472l-.047.042h-.185l-.042-.042v-1.473zM45.774 34.406l.042-.042h.085l.04.029.031.087c.031-.044.113-.138.251-.138.105 0 .198.034.172.089l-.083.145-.051.02-.064-.013c-.089 0-.143.06-.158.091v.539l-.051.042h-.172l-.042-.042v-.807z"/></g><g fill="#8BC541"><path d="M37.369 30.431l.033-.033h.067l.033.033v1.059h.497l.033.033v.05l-.033.033h-.597l-.033-.033v-1.142zM38.188 31.561l.524-1.16.029-.019h.017l.029.019.521 1.16-.03.045h-.068l-.029-.019-.127-.285h-.612l-.125.285-.03.019h-.069l-.03-.045zm.819-.366l-.252-.566h-.014l-.252.566h.518zM39.501 31.424l.026-.033.061-.016c.012.011.138.131.292.131.14 0 .231-.088.231-.19 0-.119-.104-.189-.302-.272-.19-.083-.304-.16-.304-.357 0-.117.093-.307.367-.307.169 0 .295.088.295.088l.011.059-.021.033-.06.016c-.012-.007-.121-.08-.226-.08-.183 0-.238.118-.238.19 0 .115.088.183.232.243.233.095.383.183.383.383 0 .179-.17.31-.372.31-.204 0-.342-.119-.364-.14l-.011-.058zM40.752 30.514h-.3l-.033-.033v-.05l.033-.033h.731l.033.033v.05l-.033.033h-.3v1.059l-.033.033h-.065l-.033-.033v-1.059zM41.957 30.431l.031-.033h.386c.333 0 .605.271.605.602 0 .334-.272.605-.605.605h-.386l-.031-.033v-1.141zm.39 1.055c.283 0 .488-.202.488-.486 0-.283-.206-.485-.488-.485h-.258v.971h.258zM43.859 30.381c.345 0 .621.277.621.623 0 .345-.276.619-.621.619s-.619-.274-.619-.619.274-.623.619-.623zm0 1.121c.274 0 .5-.224.5-.498s-.226-.502-.5-.502-.499.228-.499.502.224.498.499.498zM44.707 30.44l.031-.042h.073l.031.024.24.893h.007l.288-.916.029-.019h.031l.029.019.293.916h.007l.234-.892.031-.024h.072l.031.042-.326 1.159-.031.024h-.027l-.029-.019-.298-.933h-.009l-.293.933-.029.019h-.027l-.031-.024-.327-1.16zM46.451 30.412l.033-.031h.043l.777.969h.003v-.919l.033-.033h.061l.033.033v1.161l-.033.031h-.031l-.792-.988h-.001v.938l-.033.033h-.061l-.033-.033v-1.161zM48.039 30.514h-.3l-.033-.033v-.05l.033-.033h.731l.033.033v.05l-.033.033h-.3v1.059l-.033.033h-.065l-.033-.033v-1.059zM48.776 30.431l.033-.033h.069l.033.033v1.142l-.033.033h-.069l-.033-.033v-1.142zM49.483 30.405l.031-.024h.027l.029.019.341.95h.009l.336-.95.029-.019h.027l.031.024.222 1.159-.031.042h-.069l-.031-.024-.153-.888h-.007l-.317.91-.029.019h-.031l-.029-.019-.321-.91h-.007l-.15.888-.031.024h-.069l-.031-.042.224-1.159zM50.915 30.431l.033-.033h.68l.033.033v.05l-.033.033h-.58v.42h.495l.033.033v.05l-.033.033h-.495v.439h.58l.033.033v.05l-.033.033h-.68l-.033-.033v-1.141z"/></g><path fill="#3C4352" d="M37.25 16.924c-.445 0-.807-.362-.807-.807s.362-.807.807-.807.807.362.807.807-.362.807-.807.807zm0-1c-.106 0-.193.086-.193.193 0 .213.386.213.386 0 0-.107-.087-.193-.193-.193z"/><g fill="#3C4352"><path d="M38.877 15.825l.018-.025h.094l.019.015.106.408h.004l.163-.421.017-.011h.019l.018.011.164.421h.004l.104-.408.018-.015h.094l.019.025-.193.687-.019.014h-.016l-.018-.011-.183-.463h-.005l-.181.463-.017.011h-.017l-.019-.014-.193-.687zM39.909 15.819l.019-.02h.416l.02.02v.084l-.02.02h-.302v.167h.252l.02.02v.085l-.02.019h-.252v.179h.302l.02.02v.083l-.02.02h-.416l-.019-.02v-.677zM40.562 15.819l.019-.02h.234c.122 0 .216.082.216.189 0 .079-.064.14-.113.163.054.017.133.072.133.167 0 .114-.098.197-.223.197h-.248l-.019-.02v-.676zm.241.282c.052 0 .088-.041.088-.092s-.036-.087-.088-.087h-.109v.179h.109zm.014.294c.051 0 .092-.04.092-.093 0-.051-.051-.089-.104-.089h-.111v.182h.123zM41.203 16.416l.037-.063.035-.007.154.063c.053 0 .093-.035.093-.079 0-.052-.044-.088-.13-.123-.096-.039-.192-.101-.192-.221 0-.091.068-.196.23-.196.104 0 .184.053.205.069l.006.034-.039.058-.036.012-.142-.056c-.058 0-.09.039-.09.072 0 .048.038.081.121.114.099.04.213.099.213.231 0 .105-.091.203-.235.203-.129 0-.205-.061-.225-.08l-.005-.031zM41.851 15.819l.019-.02h.095l.02.02v.677l-.02.02h-.095l-.019-.02v-.677zM42.318 15.923h-.156l-.02-.02v-.084l.02-.02h.447l.02.02v.084l-.02.02h-.156v.573l-.02.02h-.095l-.02-.02v-.573zM42.786 15.819l.019-.02h.416l.02.02v.084l-.02.02h-.302v.167h.252l.02.02v.085l-.02.019h-.252v.179h.302l.02.02v.083l-.02.02h-.416l-.019-.02v-.677zM43.707 15.819l.019-.02h.097l.02.02v.418c0 .087.059.156.148.156s.149-.069.149-.154v-.419l.02-.02h.097l.02.02v.425c0 .155-.124.281-.285.281-.161 0-.284-.126-.284-.281v-.426zM44.504 15.819l.019-.02h.24c.126 0 .229.103.229.226 0 .127-.103.23-.228.23h-.127v.24l-.02.02h-.094l-.019-.02v-.676zm.251.312c.057 0 .105-.046.105-.106 0-.056-.048-.099-.105-.099h-.119v.206h.119zM45.256 15.923h-.156l-.02-.02v-.084l.02-.02h.447l.02.02v.084l-.02.02h-.156v.573l-.02.02h-.095l-.02-.02v-.573zM45.725 15.819l.019-.02h.095l.02.02v.677l-.02.02h-.095l-.019-.02v-.677zM46.17 15.805l.019-.016h.017l.017.01.225.483h.003l.225-.483.017-.01h.017l.018.016.121.687-.019.023h-.093l-.019-.015-.061-.388h-.003l-.179.402-.017.011h-.019l-.018-.011-.181-.402h-.003l-.06.388-.019.015h-.092l-.02-.023.124-.687zM47.041 15.819l.019-.02h.416l.02.02v.084l-.02.02h-.302v.167h.252l.02.02v.085l-.02.019h-.252v.179h.302l.02.02v.083l-.02.02h-.416l-.019-.02v-.677z"/></g><path fill="#8BC541" d="M59.97 19.005h-24.832c-.276 0-.5-.224-.5-.5s.224-.5.5-.5h24.832c.276 0 .5.224.5.5s-.223.5-.5.5z"/><path fill="#3C4352" d="M65.459 75.84c-.445 0-.808-.362-.808-.808 0-.444.362-.807.808-.807.444 0 .807.362.807.807 0 .446-.363.808-.807.808zm0-1c-.106 0-.193.086-.193.192 0 .213.386.213.386 0-.001-.106-.087-.192-.193-.192z"/><g fill="#3C4352"><path d="M67.149 74.725l.02-.019h.025l.426.451h.001v-.422l.02-.02h.094l.02.02v.688l-.02.018h-.025l-.428-.469h-.001v.439l-.02.02h-.093l-.02-.02v-.686zM67.992 74.735l.02-.02h.416l.02.02v.084l-.02.02h-.303v.167h.253l.02.02v.085l-.02.02h-.253v.179h.303l.02.02v.084l-.02.02h-.416l-.02-.02v-.679zM68.581 74.74l.019-.024h.095l.018.015.106.408h.004l.163-.422.018-.011h.019l.017.011.164.422h.004l.104-.408.019-.015h.094l.019.024-.193.688-.019.014h-.017l-.017-.011-.184-.463h-.005l-.181.463-.018.011h-.017l-.019-.014-.193-.688zM69.801 74.742l.018-.026h.104l.017.012.196.439h.008l.196-.439.018-.012h.104l.018.026-.316.688-.018.011h-.011l-.018-.011-.316-.688zM70.581 75.331l.037-.063.035-.007.154.063c.053 0 .093-.035.093-.079 0-.052-.044-.088-.13-.122-.096-.039-.192-.101-.192-.221 0-.091.067-.196.23-.196.104 0 .184.053.204.068l.006.033-.038.059-.036.013-.143-.057c-.058 0-.09.039-.09.071 0 .049.038.081.121.115.099.039.214.099.214.23 0 .105-.092.202-.235.202-.129 0-.204-.06-.225-.079l-.005-.03zM71.507 74.735l.02-.02h.293c.122 0 .223.099.223.22 0 .095-.062.171-.151.207l.14.26-.018.029h-.106l-.017-.009-.136-.271h-.115v.261l-.02.02h-.094l-.02-.02v-.677zm.301.307c.055 0 .102-.047.102-.104 0-.054-.047-.099-.102-.099h-.167v.203h.167zM72.239 74.735l.02-.02h.416l.02.02v.084l-.02.02h-.303v.167h.253l.02.02v.085l-.02.02h-.253v.179h.303l.02.02v.084l-.02.02h-.416l-.02-.02v-.679zM72.989 74.839h-.157l-.019-.02v-.084l.019-.02h.447l.02.02v.084l-.02.02h-.156v.573l-.02.02h-.095l-.02-.02v-.573zM73.446 74.735l.02-.02h.097l.02.02v.418c0 .087.06.155.148.155s.149-.068.149-.154v-.419l.02-.02h.097l.02.02v.426c0 .155-.124.28-.285.28s-.284-.125-.284-.28v-.426zM74.243 74.735l.02-.02h.293c.122 0 .223.099.223.22 0 .095-.062.171-.151.207l.14.26-.018.029h-.106l-.017-.009-.136-.271h-.114v.261l-.02.02h-.094l-.02-.02v-.677zm.301.307c.055 0 .102-.047.102-.104 0-.054-.047-.099-.102-.099h-.167v.203h.167zM74.977 74.725l.02-.019h.025l.426.451h.001v-.422l.02-.02h.094l.02.02v.688l-.02.018h-.024l-.428-.469h-.001v.439l-.02.02h-.093l-.02-.02v-.686zM75.818 74.735l.02-.02h.096l.019.02v.677l-.019.02h-.096l-.02-.02v-.677zM76.19 74.725l.02-.019h.025l.426.451h.001v-.422l.02-.02h.094l.02.02v.688l-.02.018h-.024l-.428-.469h-.001v.439l-.02.02h-.093l-.02-.02v-.686zM77.349 74.706c.092 0 .18.035.249.095l.001.028-.063.066h-.026l-.154-.059c-.128 0-.229.109-.229.237 0 .126.101.233.229.233l.122-.025v-.087h-.082l-.02-.019v-.08l.02-.02h.196l.019.02v.262l-.009.016s-.104.066-.253.066c-.204 0-.367-.161-.367-.365-.001-.204.163-.368.367-.368z"/></g><path fill="#8BC541" d="M88.179 77.921h-24.832c-.276 0-.5-.224-.5-.5s.224-.5.5-.5h24.832c.276 0 .5.224.5.5s-.224.5-.5.5zM88.179 99.044h-24.832c-.276 0-.5-.224-.5-.5v-25.649c0-.276.224-.5.5-.5h24.832c.276 0 .5.224.5.5v25.649c0 .276-.224.5-.5.5zm-24.332-1h23.832v-24.649h-23.832v24.649zM85.239 89.928h-2.22c-.276 0-.5-.224-.5-.5v-2.22c0-.276.224-.5.5-.5h2.22c.276 0 .5.224.5.5v2.22c0 .276-.223.5-.5.5zm-1.719-1h1.22v-1.22h-1.22v1.22z"/><path fill="#3C4352" d="M85.239 93.925h-2.22c-.276 0-.5-.224-.5-.5v-2.221c0-.276.224-.5.5-.5h2.22c.276 0 .5.224.5.5v2.221c0 .276-.223.5-.5.5zm-1.719-1h1.22v-1.221h-1.22v1.221z"/><path fill="#8BC541" d="M67.483 90.129c-.204 0-.396-.125-.47-.328-.281-.768-.424-1.576-.424-2.402 0-3.849 3.131-6.979 6.979-6.979s6.98 3.131 6.98 6.979c0 .276-.224.5-.5.5s-.5-.224-.5-.5c0-3.297-2.683-5.979-5.98-5.979-3.297 0-5.979 2.683-5.979 5.979 0 .709.122 1.401.363 2.059.095.259-.038.546-.298.642l-.171.029z"/><path fill="#3C4352" d="M73.569 94.379c-2.917 0-5.552-1.84-6.556-4.578-.045-.124-.04-.262.016-.382.057-.121.157-.214.282-.26l6.086-2.23.172-.03h6.48c.276 0 .5.224.5.5.001 3.848-3.131 6.98-6.98 6.98zm-5.424-4.46c.973 2.089 3.093 3.46 5.425 3.46 3.129 0 5.705-2.416 5.96-5.48h-5.871l-5.514 2.02zM37.291 75.784c-.445 0-.807-.362-.807-.807 0-.445.362-.808.807-.808s.807.362.807.808c0 .445-.362.807-.807.807zm0-1c-.106 0-.193.087-.193.193 0 .213.386.213.386 0 0-.106-.087-.193-.193-.193z"/><g fill="#3C4352"><path d="M38.981 74.681l.019-.02h.094l.02.02v.573h.261l.019.02v.084l-.019.02h-.375l-.019-.02v-.677zM39.549 74.681l.019-.02h.095l.02.02v.677l-.02.02h-.095l-.019-.02v-.677zM39.827 74.688l.018-.026h.104l.018.012.196.439h.007l.196-.439.018-.012h.104l.017.026-.317.688-.017.011h-.01l-.018-.011-.316-.688zM40.65 74.681l.019-.02h.416l.02.02v.084l-.02.02h-.302v.167h.252l.02.02v.085l-.02.02h-.252v.179h.302l.02.02v.084l-.02.02h-.416l-.019-.02v-.679zM41.487 74.688l.018-.026h.104l.018.012.196.439h.007l.196-.439.018-.012h.104l.017.026-.317.688-.017.011h-.01l-.018-.011-.316-.688zM42.311 74.681l.019-.02h.095l.02.02v.677l-.02.02h-.095l-.019-.02v-.677zM42.64 75.276l.037-.063.035-.007.154.063c.053 0 .093-.035.093-.079 0-.052-.044-.088-.13-.122-.096-.039-.192-.101-.192-.221 0-.091.068-.196.23-.196.104 0 .184.053.204.068l.006.033-.039.059-.036.013-.142-.057c-.058 0-.09.039-.09.071 0 .049.038.081.121.115.099.039.213.099.213.23 0 .105-.091.202-.235.202-.129 0-.205-.06-.225-.079l-.004-.03zM43.288 74.681l.019-.02h.095l.02.02v.677l-.02.02h-.095l-.019-.02v-.677zM43.755 74.784h-.156l-.02-.02v-.084l.02-.02h.447l.02.02v.084l-.02.02h-.156v.573l-.02.02h-.095l-.02-.02v-.573zM44.532 74.651c.204 0 .368.164.368.369 0 .204-.164.366-.368.366-.205 0-.367-.162-.367-.366 0-.205.163-.369.367-.369zm0 .603c.128 0 .235-.104.235-.233s-.106-.236-.235-.236-.234.107-.234.236.105.233.234.233zM45.086 74.681l.019-.02h.292c.123 0 .223.099.223.22 0 .095-.062.171-.151.207l.14.26-.018.029h-.107l-.016-.009-.136-.271h-.113v.261l-.02.02h-.094l-.019-.02v-.677zm.301.306c.054 0 .101-.047.101-.104 0-.054-.047-.099-.101-.099h-.167v.203h.167zM45.777 75.276l.037-.063.035-.007.154.063c.053 0 .093-.035.093-.079 0-.052-.044-.088-.13-.122-.096-.039-.192-.101-.192-.221 0-.091.068-.196.23-.196.104 0 .184.053.204.068l.006.033-.039.059-.036.013-.142-.057c-.058 0-.09.039-.09.071 0 .049.038.081.121.115.099.039.213.099.213.23 0 .105-.091.202-.235.202-.129 0-.205-.06-.225-.079l-.004-.03z"/></g><path fill="#8BC541" d="M60.011 77.865h-24.832c-.276 0-.5-.224-.5-.5s.224-.5.5-.5h24.833c.276 0 .5.224.5.5s-.224.5-.501.5zM60.011 98.988h-24.832c-.276 0-.5-.224-.5-.5v-25.649c0-.276.224-.5.5-.5h24.833c.276 0 .5.224.5.5v25.649c-.001.277-.224.5-.501.5zm-24.332-1h23.833v-24.649h-23.833v24.649z"/><g fill="#3C4352"><path d="M45.728 81.741v-.13l1.33-1.667.053-.021h.07l.066.066.003 1.604h.285l.066.063v.077l-.066.066h-.285v.481l-.066.066h-.12l-.066-.066v-.474h-1.204l-.066-.065zm1.284-.15v-1.222l-.99 1.222h.99zM49.072 79.882l.077.035.039.084c.018.042.003.08-.063.102-.158.053-.779.4-.902.874 0 0 .232-.158.534-.158.396 0 .754.295.754.762 0 .442-.354.804-.775.804-.569 0-.818-.442-.818-1-.001-.935.8-1.364 1.154-1.503zm.19 1.712c0-.305-.235-.547-.53-.547-.326 0-.554.228-.554.228-.06.352.077.878.558.878.294-.001.526-.257.526-.559z"/></g><path fill="#8BC541" d="M51.916 92.214l-.146-.021c-.141-.044-.255-.146-.313-.282-.617-1.445-2.03-2.379-3.601-2.379s-2.985.934-3.602 2.379c-.058.136-.173.238-.313.282-.142.043-.293.021-.418-.059l-4.42-2.855c-.219-.142-.292-.429-.168-.658 1.777-3.278 5.195-5.315 8.921-5.315s7.145 2.037 8.921 5.315c.125.229.051.517-.168.658l-4.42 2.855c-.084.053-.178.08-.273.08zm-11.874-3.518l3.553 2.295c.87-1.512 2.484-2.46 4.259-2.46 1.774 0 3.388.948 4.258 2.46l3.553-2.295c-1.655-2.721-4.607-4.392-7.812-4.392s-6.155 1.672-7.811 4.392z"/><path fill="#3C4352" d="M47.631 92.956c-.448 0-.861-.243-1.079-.634l-1.823-4.523c-.042-.104-.059-.313-.027-.42.046-.161.153-.294.3-.375.074-.04.216-.077.301-.077.227 0 .436.123.546.321l2.825 3.823c.195.342.232.675.142.991-.09.317-.299.579-.587.739-.183.101-.39.155-.598.155zm-.885-2.818l.707 1.755c.036.051.195.086.29.034.074-.04.101-.104.111-.14.01-.034.021-.104-.02-.176l-1.088-1.473zM37.209 95.555c0-.317.127-.507.352-.507s.353.189.353.507-.128.508-.353.508-.352-.191-.352-.508zm.602 0c0-.262-.09-.413-.25-.413-.159 0-.249.151-.249.413 0 .266.09.413.249.413.16 0 .25-.148.25-.413z"/><g fill="#3C4352"><path d="M56.256 95.082l-.104.081-.034-.002-.027-.03.003-.031.203-.197h.04l.026.027v.931l-.026.027h-.052l-.028-.027v-.779zM56.605 95.732l.033-.031.036.001c.015.021.084.107.215.107.139 0 .228-.123.228-.238 0-.112-.072-.208-.228-.208h-.22l-.045-.051v-.382l.027-.027h.438l.027.027v.042l-.027.027h-.369v.267h.168c.219 0 .335.114.335.305 0 .181-.141.332-.336.332-.161 0-.244-.077-.28-.12l-.002-.051zM57.493 95.821c.065-.022.322-.165.373-.361 0 0-.096.065-.22.065-.164 0-.312-.122-.312-.314 0-.183.146-.332.32-.332.235 0 .338.183.338.413 0 .386-.331.562-.477.62l-.032-.015-.016-.034.026-.042zm.391-.484c.024-.146-.032-.362-.23-.362-.122 0-.217.105-.217.23 0 .126.097.226.219.226.134 0 .228-.094.228-.094z"/></g><g fill="#8BC541"><path d="M37.146 93.788l.024-.021.024.004.134.062c.068 0 .129-.041.129-.112 0-.062-.047-.118-.159-.118h-.05l-.017-.02v-.021l.019-.021h.05c.096 0 .143-.049.143-.108 0-.071-.054-.114-.118-.114l-.118.059-.023.002-.021-.018v-.023s.064-.079.163-.079c.109 0 .186.063.186.165 0 .069-.052.123-.093.142v.003c.042.018.108.068.108.146 0 .099-.076.175-.2.175-.111 0-.161-.058-.181-.08v-.023zM37.689 93.575c0-.197.079-.315.219-.315.139 0 .219.118.219.315 0 .196-.08.314-.219.314-.139.001-.219-.118-.219-.314zm.374 0c0-.163-.056-.257-.155-.257s-.155.094-.155.257c0 .164.056.256.155.256s.155-.092.155-.256zM38.308 93.586v-.018l.017-.017h.188l.017.017v.018l-.017.016h-.188l-.017-.016zM38.722 93.268l.016-.017h.202c.174 0 .316.141.316.313 0 .175-.142.316-.316.316h-.202l-.016-.018v-.594zm.203.55c.147 0 .255-.104.255-.254 0-.147-.107-.253-.255-.253h-.135v.507h.135zM39.344 93.857l.274-.605.015-.011h.009l.016.011.271.605-.015.023h-.036l-.015-.01-.066-.148h-.32l-.066.148-.015.01h-.036l-.016-.023zm.427-.19l-.131-.296h-.007l-.131.296h.269zM40.151 93.577l-.217-.301.014-.025h.042l.014.008.182.251.182-.251.015-.008h.042l.015.025-.22.3v.287l-.017.018h-.035l-.017-.018v-.286zM40.888 93.254l.016-.013h.014l.016.011.178.496h.004l.176-.496.015-.011h.014l.017.013.116.605-.016.021h-.036l-.017-.013-.08-.464h-.003l-.166.476-.016.01h-.016l-.015-.01-.167-.476h-.004l-.078.464-.016.013h-.036l-.016-.021.116-.605zM41.632 93.268l.017-.017h.036l.017.017v.596l-.017.018h-.036l-.017-.018v-.596zM41.928 93.258l.017-.017h.022l.406.507h.001v-.48l.017-.017h.032l.017.017v.606l-.017.016h-.016l-.413-.516h-.001v.489l-.017.018h-.032l-.017-.018v-.605z"/></g><g fill="#8BC541"><path d="M52.47 93.788l.024-.021.024.004.134.062c.068 0 .129-.041.129-.112 0-.062-.047-.118-.159-.118h-.05l-.017-.02v-.021l.019-.021h.05c.096 0 .143-.049.143-.108 0-.071-.054-.114-.118-.114l-.118.059-.023.002-.021-.018v-.023s.064-.079.163-.079c.109 0 .186.063.186.165 0 .069-.052.123-.093.142v.003c.042.018.108.068.108.146 0 .099-.076.175-.2.175-.111 0-.161-.058-.181-.08v-.023zM53.012 93.575c0-.197.079-.315.219-.315.139 0 .219.118.219.315 0 .196-.08.314-.219.314-.14.001-.219-.118-.219-.314zm.374 0c0-.163-.056-.257-.155-.257s-.155.094-.155.257c0 .164.056.256.155.256s.155-.092.155-.256zM53.63 93.586v-.018l.017-.017h.188l.017.017v.018l-.017.016h-.188l-.017-.016zM54.044 93.268l.016-.017h.202c.174 0 .316.141.316.313 0 .175-.142.316-.316.316h-.202l-.016-.018v-.594zm.204.55c.147 0 .255-.104.255-.254 0-.147-.107-.253-.255-.253h-.135v.507h.135zM54.667 93.857l.274-.605.015-.011h.009l.016.011.272.605-.016.023h-.037l-.015-.01-.066-.148h-.32l-.065.148-.016.01h-.036l-.015-.023zm.427-.19l-.131-.296h-.007l-.131.296h.269zM55.474 93.577l-.217-.301.014-.025h.042l.014.008.182.251.182-.251.015-.008h.042l.015.025-.22.3v.287l-.017.018h-.035l-.017-.018v-.286zM56.211 93.254l.016-.013h.014l.016.011.178.496h.004l.176-.496.015-.011h.014l.017.013.116.605-.016.021h-.036l-.016-.013-.08-.464h-.003l-.166.476-.016.01h-.016l-.015-.01-.167-.476h-.004l-.078.464-.016.013h-.036l-.016-.021.115-.605zM56.868 93.857l.274-.605.015-.011h.009l.016.011.271.605-.015.023h-.036l-.015-.01-.066-.148h-.321l-.066.148-.015.01h-.036l-.015-.023zm.428-.19l-.131-.296h-.007l-.131.296h.269zM57.719 93.558l-.176-.282.016-.024h.048l.016.008.139.238h.001l.14-.238.016-.008h.048l.015.024-.175.282.182.298-.015.025h-.042l-.015-.008-.154-.255h-.001l-.152.255-.015.008h-.042l-.016-.025.182-.298z"/></g><path fill="#3C4352" d="M64.959 16.924c-.444 0-.807-.362-.807-.807s.362-.807.807-.807c.445 0 .808.362.808.807s-.363.807-.808.807zm0-1c-.106 0-.192.086-.192.193 0 .213.386.213.386 0-.001-.107-.088-.193-.194-.193z"/><g fill="#3C4352"><path d="M66.967 15.79c.104 0 .178.033.247.095l.001.029-.062.064h-.025l-.157-.061c-.131 0-.229.109-.229.238 0 .128.099.236.229.236l.156-.059h.025l.063.065-.001.028c-.069.067-.157.099-.248.099-.205 0-.369-.163-.369-.367.001-.202.165-.367.37-.367zM67.714 15.79c.204 0 .368.165.368.369 0 .205-.164.367-.368.367-.205 0-.367-.163-.367-.367s.162-.369.367-.369zm0 .603c.129 0 .235-.105.235-.234s-.106-.236-.235-.236-.234.107-.234.236.105.234.234.234zM68.268 15.808l.02-.019h.025l.426.452h.001v-.422l.02-.02h.094l.02.02v.688l-.02.019h-.024l-.43-.469h-.001v.439l-.02.02h-.093l-.02-.02v-.688zM69.018 15.827l.018-.027h.104l.017.011.196.44h.008l.196-.44.018-.011h.104l.018.027-.316.688-.018.011h-.011l-.018-.011-.316-.688zM69.84 15.819l.02-.02h.416l.02.02v.084l-.02.02h-.303v.167h.253l.02.02v.085l-.02.019h-.253v.179h.303l.02.02v.083l-.02.02h-.416l-.02-.02v-.677zM70.493 15.819l.02-.02h.293c.122 0 .223.098.223.22 0 .094-.062.17-.151.206l.14.26-.018.03h-.106l-.017-.009-.136-.271h-.114v.261l-.02.02h-.094l-.02-.02v-.677zm.301.307c.055 0 .102-.047.102-.104 0-.054-.047-.099-.102-.099h-.167v.203h.167zM71.184 16.416l.037-.063.035-.007.154.063c.053 0 .093-.035.093-.079 0-.052-.044-.088-.13-.123-.096-.039-.192-.101-.192-.221 0-.091.067-.196.23-.196.104 0 .184.053.204.069l.006.034-.038.058-.036.012-.143-.056c-.058 0-.09.039-.09.072 0 .048.038.081.121.114.099.04.214.099.214.231 0 .105-.091.203-.235.203-.129 0-.204-.061-.225-.08l-.005-.031zM71.831 15.819l.02-.02h.096l.019.02v.677l-.019.02h-.096l-.02-.02v-.677zM72.52 15.79c.204 0 .368.165.368.369 0 .205-.164.367-.368.367-.205 0-.367-.163-.367-.367-.001-.204.161-.369.367-.369zm0 .603c.129 0 .235-.105.235-.234s-.106-.236-.235-.236-.234.107-.234.236.105.234.234.234zM73.073 15.808l.02-.019h.025l.426.452h.001v-.422l.02-.02h.094l.02.02v.688l-.02.019h-.024l-.428-.469h-.001v.439l-.02.02h-.093l-.02-.02v-.688zM74.192 15.819l.02-.02h.293c.122 0 .223.098.223.22 0 .094-.062.17-.151.206l.14.26-.018.03h-.106l-.017-.009-.136-.271h-.114v.261l-.02.02h-.094l-.02-.02v-.677zm.301.307c.055 0 .102-.047.102-.104 0-.054-.047-.099-.102-.099h-.167v.203h.167zM74.833 16.489l.318-.688.017-.011h.011l.018.011.314.688-.018.026h-.089l-.029-.021-.05-.11h-.305l-.051.11-.029.021h-.089l-.018-.026zm.441-.218l-.102-.225h-.004l-.1.225h.206zM75.714 15.923h-.157l-.019-.02v-.084l.019-.02h.447l.02.02v.084l-.02.02h-.156v.573l-.02.02h-.095l-.02-.02v-.573zM76.182 15.819l.02-.02h.416l.02.02v.084l-.02.02h-.303v.167h.253l.02.02v.085l-.02.019h-.253v.179h.303l.02.02v.083l-.02.02h-.416l-.02-.02v-.677z"/></g><path fill="#8BC541" d="M87.68 19.005h-24.833c-.276 0-.5-.224-.5-.5s.224-.5.5-.5h24.833c.276 0 .5.224.5.5s-.224.5-.5.5zM87.68 40.128h-24.833c-.276 0-.5-.224-.5-.5v-25.649c0-.276.224-.5.5-.5h24.833c.276 0 .5.224.5.5v25.649c0 .276-.224.5-.5.5zm-24.333-1h23.833v-24.649h-23.833v24.649z"/><g fill="#8BC541"><path d="M66.755 23.855l-.615.479c-.068.051-.137.06-.196-.008l-.163-.18c-.06-.068-.025-.146.018-.188l1.196-1.162h.23c.086 0 .154.077.154.163v5.485c0 .086-.068.163-.154.163h-.308c-.094 0-.162-.077-.162-.163v-4.589zM68.627 28.188l2.093-2.265c.581-.632.863-1.145.863-1.547 0-.487-.316-1.085-1.196-1.085-.529 0-.948.359-1.213.641-.068.068-.163.068-.231 0l-.171-.162c-.051-.06-.068-.154-.008-.222 0 0 .606-.837 1.623-.837 1.222 0 1.846.777 1.846 1.649 0 .752-.479 1.307-1.068 1.939l-1.641 1.752h2.513c.085 0 .162.077.162.162v.23c0 .086-.077.163-.162.163h-3.247c-.094 0-.162-.077-.162-.163v-.255zM73.67 27.717c.273 0 .486.213.486.487 0 .265-.213.487-.486.487-.266 0-.487-.222-.487-.487 0-.273.221-.487.487-.487zM74.994 28.188l2.094-2.265c.581-.632.863-1.145.863-1.547 0-.487-.316-1.085-1.196-1.085-.53 0-.948.359-1.214.641-.068.068-.162.068-.23 0l-.171-.162c-.051-.06-.068-.154-.009-.222 0 0 .607-.837 1.624-.837 1.222 0 1.846.777 1.846 1.649 0 .752-.479 1.307-1.068 1.939l-1.641 1.752h2.513c.085 0 .162.077.162.162v.23c0 .086-.077.163-.162.163h-3.247c-.095 0-.163-.077-.163-.163v-.255zM79.481 27.726l.23-.196c.095-.068.163-.051.231.043.076.094.538.589 1.272.589.649 0 1.23-.393 1.23-1.068 0-.581-.452-1.12-1.513-1.12h-.479c-.094 0-.162-.051-.162-.188v-.205c0-.137.043-.188.18-.188h.47c.915 0 1.358-.47 1.358-1.034 0-.675-.512-1.085-1.119-1.085-.581 0-.932.342-1.119.555-.051.06-.137.094-.223.018l-.205-.163c-.068-.06-.06-.163 0-.222 0 0 .615-.752 1.547-.752 1.034 0 1.761.606 1.761 1.563 0 .658-.496 1.171-.88 1.351v.025c.401.171 1.025.649 1.025 1.384 0 .931-.719 1.658-1.897 1.658-1.051 0-1.529-.547-1.718-.761-.048-.059-.057-.153.011-.204z"/></g><g fill="#3C4352"><path d="M70.664 33.3l.677-.732c.188-.205.278-.37.278-.5 0-.157-.102-.351-.387-.351-.171 0-.307.116-.392.207h-.075l-.055-.052-.003-.072s.196-.271.524-.271c.396 0 .597.251.597.533 0 .243-.154.422-.345.627l-.53.566h.812l.053.053v.075l-.053.052h-1.049l-.053-.052v-.083zM72.235 33.353l.771-1.61h-.902l-.053-.053v-.08l.053-.052h1.11l.052.052v.02l-.807 1.734-.091.072h-.08l-.053-.052v-.031zM73.608 33.148c.088 0 .157.069.157.157 0 .086-.069.158-.157.158-.086 0-.158-.072-.158-.158 0-.088.072-.157.158-.157zM74.269 33.309c.124-.042.613-.315.71-.688 0 0-.183.125-.42.125-.312 0-.594-.232-.594-.599 0-.348.278-.633.61-.633.447 0 .644.348.644.787 0 .735-.63 1.072-.909 1.182l-.061-.027-.03-.066.05-.081zm.745-.923c.048-.276-.061-.69-.438-.69-.232 0-.414.201-.414.439 0 .24.185.431.417.431.256-.001.435-.18.435-.18zM75.501 33.151l.074-.063.074.014c.025.03.175.19.412.19.21 0 .397-.127.397-.345 0-.188-.146-.362-.488-.362h-.155l-.053-.061v-.066l.059-.061h.151c.296 0 .439-.152.439-.334 0-.218-.166-.351-.361-.351-.188 0-.302.111-.362.18l-.071.005-.066-.052v-.072s.198-.243.5-.243c.334 0 .568.196.568.505 0 .213-.16.378-.284.437v.008c.13.055.331.21.331.447 0 .301-.231.536-.613.536-.339 0-.494-.177-.555-.246l.003-.066zM76.937 31.845c0-.207.166-.373.373-.373.204 0 .373.166.373.373s-.169.373-.373.373c-.207 0-.373-.166-.373-.373zm.583 0c0-.113-.097-.21-.21-.21-.122 0-.216.097-.216.21 0 .122.094.215.216.215.113 0 .21-.094.21-.215zm.621-.315l.047-.027h.044l.047.074-.952 1.831-.047.028h-.04l-.047-.075.948-1.831zm.041 1.19c.205 0 .373.166.373.373s-.168.373-.373.373c-.207 0-.372-.166-.372-.373s.165-.373.372-.373zm0 .589c.113 0 .21-.094.21-.215 0-.113-.097-.21-.21-.21-.121 0-.215.097-.215.21 0 .121.094.215.215.215z"/></g><path fill="#3C4352" d="M67.508 34.496c-.277 0-.526-.159-.683-.435l-1.233-2.18c-.154-.274-.163-.568-.023-.808s.4-.376.715-.376h2.449c.314 0 .575.138.715.377s.13.534-.025.808l-1.231 2.179c-.157.276-.406.435-.684.435zm-.871-2.799l.87 1.54.871-1.54h-1.741zM37.25 45.839c-.445 0-.807-.362-.807-.807s.362-.807.807-.807.807.362.807.807-.362.807-.807.807zm0-1c-.106 0-.193.086-.193.193 0 .213.386.213.386 0 0-.107-.087-.193-.193-.193z"/><g fill="#3C4352"><path d="M38.848 44.742l.018-.027h.104l.018.011.196.44h.007l.196-.44.018-.011h.104l.017.027-.317.688-.017.011h-.01l-.018-.011-.316-.688zM39.671 44.734l.019-.02h.095l.02.02v.677l-.02.02h-.095l-.019-.02v-.677zM40 45.331l.037-.063.035-.007.154.063c.053 0 .093-.035.093-.079 0-.052-.044-.088-.13-.123-.096-.039-.192-.101-.192-.221 0-.091.068-.196.23-.196.104 0 .184.053.205.069l.006.034-.039.058-.036.012-.142-.056c-.058 0-.09.039-.09.072 0 .048.038.081.121.114.099.04.213.099.213.231 0 .105-.091.203-.235.203-.129 0-.205-.061-.225-.08l-.005-.031zM40.648 44.734l.019-.02h.095l.02.02v.677l-.02.02h-.095l-.019-.02v-.677zM41.115 44.838h-.156l-.02-.02v-.084l.02-.02h.447l.02.02v.084l-.02.02h-.156v.573l-.02.02h-.095l-.02-.02v-.573zM41.893 44.705c.204 0 .368.165.368.369 0 .205-.164.367-.368.367-.205 0-.367-.163-.367-.367-.001-.204.162-.369.367-.369zm0 .603c.128 0 .235-.105.235-.234s-.106-.236-.235-.236-.234.107-.234.236.105.234.234.234zM42.446 44.734l.019-.02h.292c.123 0 .223.098.223.22 0 .094-.062.17-.151.206l.14.26-.018.03h-.107l-.016-.009-.136-.271h-.113v.261l-.02.02h-.094l-.019-.02v-.677zm.301.307c.054 0 .101-.047.101-.104 0-.054-.047-.099-.101-.099h-.167v.203h.167zM43.137 45.331l.037-.063.035-.007.154.063c.053 0 .093-.035.093-.079 0-.052-.044-.088-.13-.123-.096-.039-.192-.101-.192-.221 0-.091.068-.196.23-.196.104 0 .184.053.204.069l.006.034-.039.058-.036.012-.142-.056c-.058 0-.09.039-.09.072 0 .048.038.081.121.114.099.04.213.099.213.231 0 .105-.091.203-.235.203-.129 0-.205-.061-.225-.08l-.004-.031z"/></g><path fill="#8BC541" d="M88.22 47.919h-53.082c-.276 0-.5-.224-.5-.5s.224-.5.5-.5h53.082c.276 0 .5.224.5.5s-.224.5-.5.5zM88.22 69.043h-53.082c-.276 0-.5-.224-.5-.5v-25.649c0-.276.224-.5.5-.5h53.082c.276 0 .5.224.5.5v25.649c0 .276-.224.5-.5.5zm-52.582-1h52.082v-24.649h-52.082v24.649z"/><g fill="#3C4352"><path d="M39.627 58.412l2.093-2.265c.581-.632.863-1.145.863-1.547 0-.487-.316-1.085-1.196-1.085-.53 0-.948.359-1.213.641-.068.068-.163.068-.231 0l-.171-.162c-.051-.06-.068-.154-.008-.222 0 0 .607-.837 1.624-.837 1.222 0 1.846.777 1.846 1.649 0 .752-.479 1.307-1.068 1.939l-1.641 1.752h2.513c.085 0 .162.077.162.162v.23c0 .086-.077.163-.162.163h-3.248c-.094 0-.163-.077-.163-.163v-.255zM44.482 58.574l2.384-4.981h-2.794c-.086 0-.163-.077-.163-.163v-.248c0-.086.077-.163.163-.163h3.435c.086 0 .163.077.163.163v.06l-2.495 5.366c-.034.077-.12.223-.282.223h-.248c-.085 0-.162-.077-.162-.163v-.094zM48.713 57.942c.273 0 .564.153.564.769 0 .709-.444 1.324-.718 1.581-.085.077-.154.068-.205.017l-.12-.119c-.042-.043-.034-.128.051-.205s.53-.453.53-1.077l-.103.009c-.265 0-.487-.222-.487-.487.002-.275.223-.488.488-.488zM50.824 58.438c.385-.128 1.897-.974 2.196-2.128 0 0-.564.385-1.299.385-.966 0-1.837-.718-1.837-1.854 0-1.076.863-1.957 1.888-1.957 1.385 0 1.991 1.077 1.991 2.435 0 2.273-1.948 3.315-2.812 3.657-.085.034-.153-.008-.188-.085l-.094-.205c-.041-.103-.007-.197.155-.248zm2.307-2.855c.145-.854-.188-2.136-1.359-2.136-.718 0-1.281.624-1.281 1.358 0 .744.572 1.333 1.29 1.333.795.001 1.35-.555 1.35-.555zM54.842 55.925c0-1.872.752-2.991 2.076-2.991s2.076 1.119 2.076 2.991-.752 2.991-2.076 2.991-2.076-1.119-2.076-2.991zm3.546 0c0-1.546-.53-2.435-1.47-2.435s-1.47.889-1.47 2.435c0 1.564.53 2.435 1.47 2.435s1.47-.871 1.47-2.435zM59.945 58.412l2.093-2.265c.581-.632.863-1.145.863-1.547 0-.487-.316-1.085-1.196-1.085-.53 0-.948.359-1.213.641-.068.068-.163.068-.231 0l-.171-.162c-.051-.06-.068-.154-.008-.222 0 0 .607-.837 1.624-.837 1.222 0 1.846.777 1.846 1.649 0 .752-.479 1.307-1.068 1.939l-1.641 1.752h2.513c.085 0 .162.077.162.162v.23c0 .086-.077.163-.162.163h-3.247c-.094 0-.163-.077-.163-.163v-.255z"/></g><g fill="#8BC541"><path d="M39.532 62.88l.049-.049h.57c.317 0 .578.258.578.569 0 .32-.26.58-.575.58h-.425v.606l-.049.049h-.098l-.049-.049v-1.706zm.606.91c.211 0 .392-.173.392-.395 0-.209-.181-.369-.392-.369h-.41v.764h.41zM40.87 64.568l.784-1.735.044-.028h.026l.044.028.779 1.735-.044.067h-.104l-.043-.028-.191-.426h-.916l-.188.426-.044.028h-.104l-.043-.067zm1.224-.546l-.376-.847h-.021l-.376.847h.773zM42.836 64.365l.039-.049.09-.023c.018.016.207.195.436.195.208 0 .345-.131.345-.283 0-.178-.155-.283-.451-.407-.284-.124-.454-.24-.454-.534 0-.175.139-.459.549-.459.252 0 .441.132.441.132l.015.088-.031.049-.09.023c-.018-.011-.181-.119-.338-.119-.273 0-.356.176-.356.284 0 .172.132.272.348.363.348.142.573.273.573.572 0 .269-.255.464-.557.464-.304 0-.511-.178-.544-.208l-.015-.088zM44.708 63.003h-.449l-.049-.049v-.074l.049-.049h1.093l.049.049v.074l-.049.049h-.449v1.584l-.049.049h-.098l-.049-.049v-1.584zM46.372 64.37l.069-.06.07.013c.023.029.162.179.384.179.196 0 .371-.119.371-.322 0-.176-.137-.338-.457-.338h-.144l-.049-.057v-.062l.054-.057h.142c.276 0 .41-.142.41-.312 0-.204-.155-.328-.338-.328-.175 0-.281.104-.337.168l-.067.005-.062-.049v-.067s.186-.227.466-.227c.312 0 .531.183.531.472 0 .199-.149.354-.266.407v.008c.122.052.31.196.31.418 0 .281-.216.5-.572.5-.317 0-.462-.165-.519-.229l.004-.062zM47.935 63.759c0-.564.227-.902.626-.902s.626.338.626.902-.227.902-.626.902c-.4 0-.626-.338-.626-.902zm1.069 0c0-.467-.16-.734-.443-.734s-.444.268-.444.734c0 .472.16.735.444.735s.443-.264.443-.735zM50.464 62.88l.046-.049h.578c.498 0 .905.404.905.899 0 .5-.407.905-.905.905h-.578l-.046-.049v-1.706zm.583 1.578c.423 0 .73-.302.73-.728 0-.423-.307-.725-.73-.725h-.387v1.452h.387zM52.258 64.568l.784-1.735.044-.028h.026l.044.028.778 1.735-.043.067h-.104l-.043-.028-.191-.426h-.916l-.188.426-.043.028h-.104l-.044-.067zm1.224-.546l-.376-.847h-.021l-.376.847h.773zM54.58 63.767l-.621-.861.041-.074h.121l.042.022.521.72.521-.72.042-.022h.121l.042.074-.629.858v.823l-.049.049h-.101l-.049-.049v-.82zM55.683 64.365l.039-.049.09-.023c.018.016.207.195.436.195.208 0 .345-.131.345-.283 0-.178-.155-.283-.451-.407-.284-.124-.454-.24-.454-.534 0-.175.139-.459.549-.459.253 0 .441.132.441.132l.015.088-.031.049-.09.023c-.018-.011-.181-.119-.338-.119-.273 0-.356.176-.356.284 0 .172.132.272.348.363.348.142.573.273.573.572 0 .269-.255.464-.557.464-.304 0-.511-.178-.544-.208l-.015-.088z"/></g></svg>