<?xml version="1.0" encoding="utf-8"?>
<!-- Generator: Adobe Illustrator 21.0.0, SVG Export Plug-In . SVG Version: 6.00 Build 0)  -->
<svg version="1.1" id="Layer_1" xmlns="http://www.w3.org/2000/svg" xmlns:xlink="http://www.w3.org/1999/xlink" x="0px" y="0px"
	 viewBox="0 0 56 56" style="enable-background:new 0 0 56 56;" xml:space="preserve">
<style type="text/css">
	.st0{fill-rule:evenodd;clip-rule:evenodd;fill:#ADDE6A;}
	.st1{fill-rule:evenodd;clip-rule:evenodd;fill:#8CC640;}
</style>
<path class="st0" d="M49.7,36.7l-3.1-0.9c-0.7-0.2-1.2-0.6-1.6-1.1c-0.6-0.8-1-1.8-1.1-2.7c3.1-1.9,5-6.5,5-10.5
	c0-5.2-2.5-9.5-8-9.5s-8,4.2-8,9.5c0,4,1.9,8.6,5,10.5c-0.1,0.9-0.5,1.9-1.1,2.7c-0.4,0.5-0.9,0.9-1.6,1.1L34.7,36
	c3.5,2.3,6,6.5,6.2,10.7l0,0.1l0,0.1c0,0.4-0.1,0.8-0.1,1.1h11.1c2.2,0,3.9-1.6,4-3.6C55.8,41.1,53,37.7,49.7,36.7"/>
<path class="st1" d="M31,37l-3.9-1.2c-0.8-0.3-1.5-0.8-2-1.5c-0.7-1.1-1.2-2.4-1.3-3.6c3.9-2.5,6.3-8.6,6.3-14C30,9.7,26.9,4,19.9,4
	S9.8,9.7,9.8,16.6c0,5.4,2.4,11.5,6.3,14c-0.1,1.2-0.6,2.5-1.3,3.6c-0.5,0.7-1.2,1.2-2,1.5L8.9,37C4.6,38.3,1.2,42.7,1,47.1
	C1.1,49.9,3.3,52,6,52h27.8c2.7,0,4.9-2.2,5-4.9C38.6,42.8,35.2,38.3,31,37"/>
</svg>
