<?xml version="1.0" encoding="utf-8"?>
<!-- Generator: Adobe Illustrator 19.2.0, SVG Export Plug-In . SVG Version: 6.00 Build 0)  -->
<svg version="1.1" id="Layer_1" xmlns="http://www.w3.org/2000/svg" xmlns:xlink="http://www.w3.org/1999/xlink" x="0px" y="0px"
	 viewBox="0 0 36 36" style="enable-background:new 0 0 36 36;" xml:space="preserve">
<style type="text/css">
	.st0{fill:#E0E1E3;}
	.st1{fill:#3D4351;}
</style>
<circle class="st0" cx="18" cy="18" r="18"/>
<g>
	<path class="st1" d="M16.7,19.9h1.9c0.3,0,0.5-0.2,0.5-0.5v-0.8c0-1.4,3.6-2.3,3.6-5.2c0-2.4-2.1-4-4.7-4c-3.1,0-4.7,2.1-4.7,2.1
		c-0.2,0.2-0.2,0.5,0,0.6l1.1,1.1c0.2,0.1,0.3,0.1,0.5,0c0.5-0.3,1.1-1.2,2.6-1.2c1.2,0,1.9,0.7,1.9,1.6c0,1.7-3.3,2.5-3.3,4.8v1
		C16.2,19.7,16.4,19.9,16.7,19.9z M15.7,24.7c0,1.1,0.9,2,2,2c1.1,0,2-0.9,2-2c0-1.1-0.9-2-2-2C16.6,22.7,15.7,23.6,15.7,24.7z"/>
</g>
</svg>
