<?xml version="1.0" encoding="utf-8"?>
<!-- Generator: Adobe Illustrator 19.2.0, SVG Export Plug-In . SVG Version: 6.00 Build 0)  -->
<svg version="1.1" id="Layer_1" xmlns="http://www.w3.org/2000/svg" xmlns:xlink="http://www.w3.org/1999/xlink" x="0px" y="0px"
	 viewBox="0 0 996 396" style="enable-background:new 0 0 996 396;" xml:space="preserve">
<style type="text/css">
	.st0{opacity:0.1;fill:#1F2022;}
	.st1{fill:#1F2022;}
	.st2{fill:#101214;}
	.st3{fill:none;stroke:#1F2022;stroke-width:3;stroke-miterlimit:10;}
	.st4{fill:#8BC541;}
	.st5{fill:#2A2A2A;}
	.st6{fill:#303030;}
	.st7{fill:#272727;}
	.st8{opacity:0.15;fill:#FFFFFF;enable-background:new    ;}
	.st9{fill:#FFFFFF;}
	.st10{fill:none;stroke:#43A4CF;stroke-linecap:round;stroke-miterlimit:10;enable-background:new    ;}
	.st11{fill:#E15353;}
	.st12{opacity:0.4;fill:none;stroke:#FFFFFF;stroke-miterlimit:10;}
	.st13{opacity:0.3;fill:none;stroke:#FFFFFF;stroke-miterlimit:10;}
	.st14{opacity:0.2;fill:none;stroke:#FFFFFF;stroke-miterlimit:10;}
	.st15{fill:#2C2F33;}
	.st16{opacity:0.15;enable-background:new    ;}
	.st17{enable-background:new    ;}
	.st18{fill:#43A4CF;}
	.st19{opacity:0.4;}
	.st20{opacity:0.3;}
	.st21{opacity:0.2;}
	.st22{fill:#8A8D91;}
	.st23{fill:#373A3B;}
	.st24{fill:#8DC63F;stroke:#8DC63F;stroke-width:0.5;stroke-miterlimit:10;}
	.st25{opacity:0.25;}
	.st26{fill-rule:evenodd;clip-rule:evenodd;}
	.st27{clip-path:url(#SVGID_2_);}
	.st28{fill:#5EB605;}
	.st29{opacity:0.5;}
	.st30{opacity:0.5;fill:#FFFFFF;}
	.st31{fill:#4D5457;}
	.st32{fill:#5A6266;}
	.st33{fill:#3F4448;}
	.st34{opacity:0.1;fill:#FFFFFF;}
	.st35{fill:#E69448;}
	.st36{fill:#A4C86C;}
	.st37{fill:#007EAF;}
	.st38{fill:#0293BF;}
	.st39{fill:#00A7CE;}
</style>
<g>
	<g>
		<path class="st0" d="M470.5,310.7H4.5c-2.2,0-4-1.8-4-4V8.7c0-2.2,1.8-4,4-4h466c2.2,0,4,1.8,4,4v298
			C474.5,308.9,472.7,310.7,470.5,310.7z"/>
		<path class="st1" d="M470,306H4c-2.2,0-4-1.8-4-4V4c0-2.2,1.8-4,4-4h466c2.2,0,4,1.8,4,4v298C474,304.2,472.2,306,470,306z"/>
		<path class="st2" d="M454.8,284.4h-435c-1.1,0-2-0.9-2-2v-260c0-1.1,0.9-2,2-2h435c1.1,0,2,0.9,2,2v260
			C456.8,283.5,455.9,284.4,454.8,284.4z"/>
		<path class="st3" d="M221,305v71c0,3.3-2.7,6-6,6h-36c-3.3,0-6,2.7-6,6v8"/>
		<line class="st3" x1="237" y1="305" x2="237" y2="396"/>
		<path class="st3" d="M252.5,305v35.5c0,3.3,2.7,6,6,6h36c3.3,0,6,2.7,6,6V396"/>
		<g>
			<path class="st4" d="M452.2,291.6c1.9,0,3.5,1.6,3.5,3.5s-1.6,3.5-3.5,3.5s-3.5-1.6-3.5-3.5S450.3,291.6,452.2,291.6
				 M452.2,290.6c-2.5,0-4.5,2-4.5,4.5s2,4.5,4.5,4.5s4.5-2,4.5-4.5S454.7,290.6,452.2,290.6L452.2,290.6z"/>
		</g>
	</g>
	<g>
		<g>
			<g>
				<path class="st5" d="M23.2,193.9c-0.8,0-1.5-0.7-1.5-1.5V25.3c0-0.8,0.7-1.5,1.5-1.5h167c0.8,0,1.5,0.7,1.5,1.5v167.1
					c0,0.8-0.7,1.5-1.5,1.5H23.2z"/>
				<path class="st6" d="M190.2,24.3c0.6,0,1,0.4,1,1v167.1c0,0.6-0.4,1-1,1h-167c-0.6,0-1-0.4-1-1V25.3c0-0.6,0.4-1,1-1H190.2
					 M190.2,23.3h-167c-1.1,0-2,0.9-2,2v167.1c0,1.1,0.9,2,2,2h167c1.1,0,2-0.9,2-2V25.3C192.2,24.2,191.3,23.3,190.2,23.3
					L190.2,23.3z"/>
			</g>
			<path class="st7" d="M191.2,38.3h-168v-12c0-1.1,0.9-2,2-2h164c1.1,0,2,0.9,2,2V38.3z"/>
			<path class="st8" d="M83.5,32.3h-54c-0.6,0-1-0.4-1-1v0c0-0.6,0.4-1,1-1h54c0.6,0,1,0.4,1,1v0C84.5,31.8,84.1,32.3,83.5,32.3z"/>
			<g>
				<path class="st9" d="M38.7,59.2l-3.5,1.7c-0.4,0.2-0.8,0.1-1-0.3L33.7,59c-0.1-0.4,0-0.7,0.1-0.9l6.3-5.7h2.2
					c0.4,0,0.8,0.4,0.8,0.8v28.3c0,0.4-0.4,0.8-0.8,0.8h-2.7c-0.5,0-0.8-0.4-0.8-0.8V59.2z"/>
				<path class="st9" d="M52.6,76.7c1.6,0,3.7,1.1,3.7,4.9c0,4.5-2.8,7.7-4.4,8.8c-0.4,0.4-0.7,0.4-1.1,0l-0.7-0.7
					c-0.3-0.3-0.2-0.7,0.2-1.1c0.5-0.4,3.1-2.6,3.1-6c-0.1,0-0.5,0.2-1.1,0.2c-1.6,0-3-1.4-3-3C49.4,78.1,50.8,76.7,52.6,76.7z"/>
				<path class="st9" d="M61.3,81.1l11.9-24.8h-13c-0.4,0-0.8-0.4-0.8-0.8v-2.2c0-0.4,0.4-0.8,0.8-0.8h18c0.4,0,0.8,0.4,0.8,0.8v0.3
					L66,81.2c-0.4,0.9-0.6,1.2-1.7,1.2h-2c-0.6,0-1-0.4-1-0.8V81.1z"/>
				<path class="st9" d="M85.3,79.5c2-0.7,9.1-4.3,10.5-9.7c-0.4,0.2-3,1.6-5.9,1.6c-4.7,0-9.3-3.5-9.3-9.6c0-5.6,4.5-10.1,9.9-10.1
					c7,0,10.4,5.6,10.4,12.4c0,12.3-10.5,17.5-14.6,19c-0.5,0.2-0.9,0-1.1-0.5l-0.7-1.8C84.2,80.3,84.4,79.8,85.3,79.5z M96.6,64.5
					c0.4-3.7-1.3-8.8-6.1-8.8c-3.2,0-5.8,2.8-5.8,6.1c0,3.4,2.6,6,5.9,6C94.1,67.8,96.4,65.3,96.6,64.5z"/>
				<path class="st9" d="M109.1,79.5c2-0.7,9.1-4.3,10.5-9.7c-0.4,0.2-3,1.6-5.9,1.6c-4.7,0-9.3-3.5-9.3-9.6
					c0-5.6,4.5-10.1,9.9-10.1c7,0,10.4,5.6,10.4,12.4c0,12.3-10.5,17.5-14.6,19c-0.5,0.2-0.9,0-1.1-0.5l-0.7-1.8
					C108.1,80.3,108.2,79.8,109.1,79.5z M120.4,64.5c0.4-3.7-1.3-8.8-6.1-8.8c-3.2,0-5.8,2.8-5.8,6.1c0,3.4,2.6,6,5.9,6
					C117.9,67.8,120.2,65.3,120.4,64.5z"/>
			</g>
			<polyline class="st10" points="32.3,103.1 48.3,161.3 54.3,151.2 58.7,130.6 64,124 70,124 75.7,131.8 86,165.7 96.7,132.6 
				101.7,118.3 107.3,121.6 112,119.5 117.7,130.8 123,146 129,130.8 133,111.8 139.7,109.8 144.3,110.3 150,118.2 153.7,129.3 
				159.7,143 170.3,98.8 			"/>
		</g>
		<g>
			<g>
				<path class="st5" d="M197.2,106.8c-0.8,0-1.5-0.7-1.5-1.5v-80c0-0.8,0.7-1.5,1.5-1.5h80c0.8,0,1.5,0.7,1.5,1.5v80
					c0,0.8-0.7,1.5-1.5,1.5H197.2z"/>
				<path class="st6" d="M277.2,24.3c0.6,0,1,0.4,1,1v80c0,0.6-0.4,1-1,1h-80c-0.6,0-1-0.4-1-1v-80c0-0.6,0.4-1,1-1H277.2
					 M277.2,23.3h-80c-1.1,0-2,0.9-2,2v80c0,1.1,0.9,2,2,2h80c1.1,0,2-0.9,2-2v-80C279.2,24.2,278.3,23.3,277.2,23.3L277.2,23.3z"/>
			</g>
			<path class="st7" d="M278.2,38.3h-82v-12c0-1.1,0.9-2,2-2h78c1.1,0,2,0.9,2,2V38.3z"/>
			<path class="st8" d="M228.2,32.3h-26.5c-0.6,0-1-0.4-1-1v0c0-0.6,0.4-1,1-1h26.5c0.6,0,1,0.4,1,1v0
				C229.2,31.8,228.7,32.3,228.2,32.3z"/>
			<g>
				<path class="st9" d="M207.7,51.8l-1.8,0.9c-0.2,0.1-0.4,0-0.5-0.2l-0.3-0.8c-0.1-0.2,0-0.4,0.1-0.5l3.2-2.9h1.1
					c0.2,0,0.4,0.2,0.4,0.4v14.7c0,0.2-0.2,0.4-0.4,0.4h-1.4c-0.3,0-0.4-0.2-0.4-0.4V51.8z"/>
				<path class="st9" d="M213.2,61.5l0.9-0.8c0.2-0.2,0.4-0.2,0.6,0c0.1,0.2,1.4,1.4,3.1,1.4c1.5,0,2.9-0.9,2.9-2.5
					c0-1.4-1.2-2.7-3.6-2.7h-1.3c-0.3,0-0.4-0.2-0.4-0.5v-1c0-0.3,0.1-0.5,0.5-0.5h1.3c2.1,0,3.2-1.1,3.2-2.4c0-1.5-1.3-2.5-2.6-2.5
					c-1.4,0-2.2,0.8-2.7,1.3c-0.1,0.2-0.4,0.2-0.6,0l-0.8-0.8c-0.2-0.2-0.2-0.4,0-0.6c0,0,1.7-2,4.2-2c2.7,0,4.8,1.6,4.8,4.2
					c0,1.8-1.3,3.1-2.4,3.6v0.1c1.1,0.5,2.8,1.8,2.8,3.8c0,2.5-2,4.4-5.2,4.4c-2.8,0-4.2-1.4-4.7-2C213,61.8,213,61.6,213.2,61.5z"
					/>
				<path class="st9" d="M225.9,56c0-5,2.1-8,5.7-8c3.6,0,5.6,3,5.6,8c0,5-2.1,8-5.6,8C227.9,64,225.9,61,225.9,56z M234.9,56
					c0-3.7-1.2-5.9-3.3-5.9c-2.1,0-3.4,2.1-3.4,5.9c0,3.8,1.2,5.9,3.4,5.9C233.7,62,234.9,59.8,234.9,56z"/>
			</g>
			<path class="st4" d="M214.3,85.2h-7.8c-0.5,0-0.8-0.5-0.6-0.9l3.9-7.8c0.2-0.5,0.9-0.5,1.1,0l3.9,7.8
				C215,84.7,214.7,85.2,214.3,85.2z"/>
			<g>
				<path class="st4" d="M221,77.7l-1.1,0.5c-0.1,0.1-0.3,0-0.3-0.1l-0.2-0.5c0-0.1,0-0.2,0-0.3l2-1.8h0.7c0.1,0,0.3,0.1,0.3,0.3V85
					c0,0.1-0.1,0.3-0.3,0.3h-0.9c-0.2,0-0.3-0.1-0.3-0.3V77.7z"/>
				<path class="st4" d="M224.3,84.6c1.1-1.2,2.5-3,3.6-4.3c0.7-0.8,1.1-1.5,1.1-2.1c0-0.7-0.5-1.6-1.8-1.6c-0.8,0-1.4,0.5-1.8,1
					c-0.1,0.1-0.3,0.1-0.4,0l-0.5-0.5c-0.1-0.1-0.1-0.3,0-0.4c0,0,1.1-1.4,2.8-1.4c2,0,3.1,1.3,3.1,2.8c0,1.1-0.6,1.9-1.4,2.8
					c-0.8,0.9-1.8,2.1-2.6,3h3.6c0.1,0,0.3,0.1,0.3,0.3V85c0,0.1-0.1,0.3-0.3,0.3h-5.5c-0.2,0-0.3-0.1-0.3-0.3V84.6z"/>
				<path class="st4" d="M232.9,83.4c0.6,0,1,0.4,1,1c0,0.5-0.4,1-1,1c-0.5,0-1-0.4-1-1C231.9,83.9,232.3,83.4,232.9,83.4z"/>
				<path class="st4" d="M235.2,82c0-2.1,0.9-3.3,2.4-3.3c1.5,0,2.4,1.2,2.4,3.3s-0.9,3.3-2.4,3.3C236,85.4,235.2,84.1,235.2,82z
					 M238.9,82c0-1.6-0.5-2.5-1.4-2.5c-0.9,0-1.4,0.9-1.4,2.5c0,1.6,0.5,2.5,1.4,2.5C238.4,84.5,238.9,83.6,238.9,82z"/>
				<path class="st4" d="M241.1,85l2.6-5.4h-2.8c-0.1,0-0.2-0.1-0.2-0.2V79c0-0.1,0.1-0.2,0.2-0.2h3.9c0.1,0,0.2,0.1,0.2,0.2V79
					l-2.8,6c-0.1,0.2-0.1,0.3-0.4,0.3h-0.4c-0.1,0-0.2-0.1-0.2-0.2V85z"/>
				<path class="st4" d="M245.3,79.8c0-0.7,0.6-1.3,1.3-1.3c0.7,0,1.3,0.6,1.3,1.3s-0.6,1.3-1.3,1.3
					C245.8,81.1,245.3,80.5,245.3,79.8z M247.1,79.8c0-0.3-0.3-0.6-0.6-0.6c-0.3,0-0.6,0.3-0.6,0.6c0,0.3,0.3,0.6,0.6,0.6
					C246.9,80.4,247.1,80.1,247.1,79.8z M249.4,78.7c0-0.1,0.1-0.1,0.2-0.1h0.3c0.1,0,0.2,0.1,0.2,0.3l-3.3,6.3c0,0-0.1,0.1-0.2,0.1
					h-0.3c-0.1,0-0.2-0.1-0.2-0.3L249.4,78.7z M249.6,82.8c0.7,0,1.3,0.6,1.3,1.3s-0.6,1.3-1.3,1.3c-0.7,0-1.3-0.6-1.3-1.3
					S248.9,82.8,249.6,82.8z M249.6,84.7c0.3,0,0.6-0.3,0.6-0.6c0-0.3-0.3-0.6-0.6-0.6c-0.3,0-0.6,0.3-0.6,0.6
					C249,84.4,249.3,84.7,249.6,84.7z"/>
			</g>
		</g>
		<g>
			<g>
				<path class="st5" d="M284.2,106.8c-0.8,0-1.5-0.7-1.5-1.5v-80c0-0.8,0.7-1.5,1.5-1.5h80c0.8,0,1.5,0.7,1.5,1.5v80
					c0,0.8-0.7,1.5-1.5,1.5H284.2z"/>
				<path class="st6" d="M364.2,24.3c0.6,0,1,0.4,1,1v80c0,0.6-0.4,1-1,1h-80c-0.6,0-1-0.4-1-1v-80c0-0.6,0.4-1,1-1H364.2
					 M364.2,23.3h-80c-1.1,0-2,0.9-2,2v80c0,1.1,0.9,2,2,2h80c1.1,0,2-0.9,2-2v-80C366.2,24.2,365.3,23.3,364.2,23.3L364.2,23.3z"/>
			</g>
			<path class="st7" d="M365.2,38.3h-82v-12c0-1.1,0.9-2,2-2h78c1.1,0,2,0.9,2,2V38.3z"/>
			<path class="st8" d="M315.2,32.3h-26.5c-0.6,0-1-0.4-1-1v0c0-0.6,0.4-1,1-1h26.5c0.6,0,1,0.4,1,1v0
				C316.2,31.8,315.7,32.3,315.2,32.3z"/>
			<g>
				<path class="st9" d="M294.6,51.8l-1.8,0.9c-0.2,0.1-0.4,0-0.5-0.2l-0.3-0.8c-0.1-0.2,0-0.4,0.1-0.5l3.2-3h1.1
					c0.2,0,0.4,0.2,0.4,0.4v14.7c0,0.2-0.2,0.4-0.4,0.4H295c-0.3,0-0.4-0.2-0.4-0.4V51.8z"/>
				<path class="st9" d="M301.8,60.9c0.8,0,1.9,0.6,1.9,2.5c0,2.4-1.5,4-2.3,4.6c-0.2,0.2-0.4,0.2-0.5,0l-0.3-0.3
					c-0.1-0.1-0.1-0.4,0.1-0.6c0.3-0.2,1.6-1.3,1.6-3.1c0,0-0.3,0.1-0.6,0.1c-0.8,0-1.6-0.7-1.6-1.6
					C300.1,61.6,300.9,60.9,301.8,60.9z"/>
				<path class="st9" d="M305.8,56c0-5,2.1-8,5.7-8c3.6,0,5.7,3,5.7,8s-2.1,8-5.7,8C307.9,64.1,305.8,61.1,305.8,56z M314.8,56
					c0-3.8-1.2-5.9-3.3-5.9c-2.2,0-3.4,2.2-3.4,5.9c0,3.8,1.2,5.9,3.4,5.9C313.6,62,314.8,59.9,314.8,56z"/>
				<path class="st9" d="M322.1,51.8l-1.8,0.9c-0.2,0.1-0.4,0-0.5-0.2l-0.3-0.8c-0.1-0.2,0-0.4,0.1-0.5l3.2-3h1.1
					c0.2,0,0.4,0.2,0.4,0.4v14.7c0,0.2-0.2,0.4-0.4,0.4h-1.4c-0.3,0-0.4-0.2-0.4-0.4V51.8z"/>
				<path class="st9" d="M327.4,62.8c1.7-1.9,4.1-4.8,5.8-6.8c1.1-1.3,1.7-2.4,1.7-3.3c0-1.2-0.8-2.5-2.8-2.5
					c-1.3,0-2.3,0.9-2.9,1.5c-0.2,0.2-0.4,0.2-0.6,0l-0.8-0.8c-0.1-0.1-0.2-0.4,0-0.6c0,0,1.7-2.2,4.4-2.2c3.3,0,5,2.1,5,4.5
					c0,1.8-1,3-2.2,4.5c-1.2,1.5-2.8,3.3-4.2,4.9h5.8c0.2,0,0.4,0.2,0.4,0.4v1.1c0,0.2-0.2,0.4-0.4,0.4h-8.9c-0.3,0-0.4-0.2-0.4-0.4
					V62.8z"/>
			</g>
			<path class="st11" d="M293.5,76.2h7.8c0.5,0,0.8,0.5,0.6,0.9l-3.9,7.8c-0.2,0.5-0.9,0.5-1.1,0l-3.9-7.8
				C292.8,76.7,293.1,76.2,293.5,76.2z"/>
			<g>
				<path class="st11" d="M306.9,82.9V82l5.3-6.5c0,0,0.2-0.1,0.2-0.1h0.5c0.1,0,0.3,0.1,0.3,0.3V82h1.2c0.2,0,0.3,0.1,0.3,0.3v0.6
					c0,0.1-0.1,0.3-0.3,0.3h-1.2l0,1.9c0,0.1-0.1,0.3-0.3,0.3h-0.8c-0.1,0-0.3-0.1-0.3-0.3v-1.9h-4.6C307,83.2,306.9,83,306.9,82.9z
					 M311.8,82v-4.2l-3.4,4.2H311.8z"/>
				<path class="st11" d="M317.6,80.3L317.6,80.3c-0.6-0.4-1.5-1.1-1.5-2.3c0-1.6,1.3-2.6,3-2.6c1.8,0,3.1,1,3.1,2.6
					c0,1.1-0.9,1.9-1.5,2.2v0.1c0.7,0.3,1.7,1.2,1.7,2.4c0,1.6-1.3,2.7-3.3,2.7c-2,0-3.3-1.2-3.3-2.7
					C315.9,81.4,317.1,80.5,317.6,80.3z M319.2,84.3c1,0,1.8-0.6,1.8-1.6c0-0.8-0.7-1.5-1.8-1.7c-1.2,0.2-1.8,1-1.8,1.7
					C317.4,83.7,318.2,84.3,319.2,84.3z M320.8,78.1c0-0.9-0.7-1.5-1.6-1.5c-0.9,0-1.6,0.6-1.6,1.5c0,0.8,0.5,1.4,1.6,1.5
					C320.3,79.5,320.8,78.9,320.8,78.1z"/>
				<path class="st11" d="M324.9,83.4c0.6,0,1,0.4,1,1c0,0.5-0.4,1-1,1c-0.5,0-1-0.4-1-1C323.9,83.9,324.3,83.4,324.9,83.4z"/>
				<path class="st11" d="M327.3,81.6c0-2.3,1-3.7,2.7-3.7c1.7,0,2.6,1.4,2.6,3.7c0,2.3-1,3.7-2.6,3.7
					C328.2,85.4,327.3,84,327.3,81.6z M331.5,81.6c0-1.8-0.6-2.8-1.6-2.8c-1,0-1.6,1-1.6,2.8c0,1.8,0.6,2.8,1.6,2.8
					C330.9,84.4,331.5,83.4,331.5,81.6z"/>
				<path class="st11" d="M333.6,84.8c0.8-0.9,1.9-2.3,2.7-3.2c0.5-0.6,0.8-1.1,0.8-1.6c0-0.5-0.4-1.2-1.3-1.2
					c-0.6,0-1.1,0.4-1.4,0.7c-0.1,0.1-0.2,0.1-0.3,0l-0.4-0.4c-0.1-0.1-0.1-0.2,0-0.3c0,0,0.8-1,2.1-1c1.5,0,2.3,1,2.3,2.1
					c0,0.8-0.4,1.4-1,2.1c-0.6,0.7-1.3,1.6-1.9,2.3h2.7c0.1,0,0.2,0.1,0.2,0.2v0.5c0,0.1-0.1,0.2-0.2,0.2h-4.1
					c-0.1,0-0.2-0.1-0.2-0.2V84.8z"/>
				<path class="st11" d="M339.1,79.1c0-0.8,0.6-1.4,1.4-1.4c0.8,0,1.4,0.6,1.4,1.4c0,0.8-0.7,1.4-1.4,1.4
					C339.7,80.6,339.1,79.9,339.1,79.1z M341.2,79.1c0-0.4-0.3-0.7-0.7-0.7c-0.4,0-0.7,0.3-0.7,0.7c0,0.4,0.3,0.7,0.7,0.7
					C340.9,79.8,341.2,79.5,341.2,79.1z M343.7,77.9c0-0.1,0.1-0.1,0.2-0.1h0.4c0.2,0,0.3,0.1,0.2,0.3l-3.7,7.1c0,0-0.1,0.1-0.2,0.1
					h-0.3c-0.2,0-0.3-0.1-0.2-0.3L343.7,77.9z M344,82.5c0.8,0,1.4,0.6,1.4,1.4c0,0.8-0.7,1.4-1.4,1.4c-0.8,0-1.4-0.6-1.4-1.4
					C342.5,83.1,343.2,82.5,344,82.5z M344,84.6c0.4,0,0.7-0.3,0.7-0.7c0-0.4-0.3-0.7-0.7-0.7c-0.4,0-0.7,0.3-0.7,0.7
					C343.3,84.3,343.6,84.6,344,84.6z"/>
			</g>
		</g>
		<g>
			<g>
				<path class="st5" d="M371.2,106.8c-0.8,0-1.5-0.7-1.5-1.5v-80c0-0.8,0.7-1.5,1.5-1.5h80c0.8,0,1.5,0.7,1.5,1.5v80
					c0,0.8-0.7,1.5-1.5,1.5H371.2z"/>
				<path class="st6" d="M451.2,24.3c0.6,0,1,0.4,1,1v80c0,0.6-0.4,1-1,1h-80c-0.6,0-1-0.4-1-1v-80c0-0.6,0.4-1,1-1H451.2
					 M451.2,23.3h-80c-1.1,0-2,0.9-2,2v80c0,1.1,0.9,2,2,2h80c1.1,0,2-0.9,2-2v-80C453.2,24.2,452.3,23.3,451.2,23.3L451.2,23.3z"/>
			</g>
			<path class="st7" d="M452.2,64.5h-82V26.3c0-1.1,0.9-2,2-2h78c1.1,0,2,0.9,2,2V64.5z"/>
			<g>
				<path class="st9" d="M376.3,49.7l0.9-0.8c0.2-0.2,0.4-0.2,0.6,0c0.1,0.2,1.4,1.4,3,1.4c1.4,0,2.8-0.9,2.8-2.4
					c0-1.3-1.1-2.6-3.5-2.6h-1.2c-0.2,0-0.4-0.2-0.4-0.5v-1c0-0.3,0.1-0.5,0.4-0.5h1.2c2.1,0,3.1-1.1,3.1-2.4c0-1.5-1.2-2.4-2.5-2.4
					c-1.3,0-2.1,0.8-2.6,1.2c-0.1,0.2-0.4,0.2-0.6,0l-0.8-0.7c-0.2-0.2-0.2-0.4,0-0.6c0,0,1.7-2,4.1-2c2.6,0,4.7,1.6,4.7,4.1
					c0,1.7-1.3,3-2.3,3.5v0.1c1,0.4,2.7,1.8,2.7,3.7c0,2.4-2,4.3-5,4.3c-2.8,0-4.1-1.4-4.6-2C376.1,50.1,376.1,49.8,376.3,49.7z"/>
				<path class="st9" d="M389.6,49.1c0.9,0,1.6,0.7,1.6,1.6c0,0.8-0.7,1.5-1.6,1.5c-0.8,0-1.5-0.7-1.5-1.5
					C388.1,49.8,388.8,49.1,389.6,49.1z"/>
				<path class="st9" d="M394.9,40.3l-1.8,0.8c-0.2,0.1-0.4,0-0.5-0.2l-0.3-0.8c-0.1-0.2,0-0.4,0.1-0.4l3.2-2.9h1.1
					c0.2,0,0.4,0.2,0.4,0.4v14.3c0,0.2-0.2,0.4-0.4,0.4h-1.4c-0.2,0-0.4-0.2-0.4-0.4V40.3z"/>
				<path class="st9" d="M400.7,49.6c0.3-0.2,0.5-0.5,0.8-0.8c0.2-0.2,0.4-0.2,0.5,0c0.2,0.2,1.4,1.5,3.1,1.5c1.8,0,3-1.6,3-3.1
					c0-1.6-1-2.9-3.1-2.9h-3.4c-0.4,0-0.7-0.4-0.7-0.8v-6.2c0-0.2,0.2-0.4,0.4-0.4h6.9c0.2,0,0.4,0.2,0.4,0.4v1.1
					c0,0.2-0.2,0.4-0.4,0.4h-5.3v3.5h2.3c3.3,0,5.1,1.9,5.1,4.8c0,2.8-2.2,5.1-5.3,5.1c-2.4,0-3.8-1.2-4.3-1.9
					C400.4,50,400.4,49.9,400.7,49.6z"/>
				<path class="st9" d="M412.8,40.6c0-0.2,0.1-0.3,0.3-0.3h3.8c2.1,0,3.7,1.7,3.7,3.7c0,2.1-1.7,3.8-3.7,3.8h-2.4v3.9
					c0,0.2-0.1,0.3-0.3,0.3h-1.1c-0.2,0-0.3-0.1-0.3-0.3V40.6z M416.8,46.1c1.2,0,2.1-0.9,2.1-2.1c0-1.1-1-2-2.1-2h-2.3v4.1H416.8z"
					/>
				<path class="st9" d="M423.9,40.4c0-0.1,0.2-0.3,0.3-0.3h0.3c0.1,0,0.3,0.1,0.3,0.2l3.5,8.5h0.1l3.5-8.5c0-0.1,0.2-0.2,0.3-0.2
					h0.3c0.1,0,0.3,0.1,0.3,0.3l2.1,11.2c0.1,0.2-0.1,0.4-0.3,0.4h-1.1c-0.2,0-0.3-0.1-0.3-0.2l-1.2-7.5c0,0-0.1,0-0.1,0l-3,7.7
					c0,0.1-0.1,0.2-0.3,0.2h-0.3c-0.1,0-0.3-0.1-0.3-0.2l-3-7.7c0,0-0.1,0-0.1,0l-1.2,7.5c0,0.1-0.2,0.2-0.3,0.2h-1.1
					c-0.2,0-0.4-0.1-0.3-0.4L423.9,40.4z"/>
			</g>
			<path class="st8" d="M417.5,80.2h-40c-0.6,0-1-0.4-1-1l0,0c0-0.6,0.4-1,1-1h40c0.6,0,1,0.4,1,1l0,0
				C418.5,79.8,418.1,80.2,417.5,80.2z"/>
			<path class="st8" d="M402.2,88.5h-24.7c-0.6,0-1-0.4-1-1l0,0c0-0.6,0.4-1,1-1h24.7c0.6,0,1,0.4,1,1l0,0
				C403.2,88.1,402.8,88.5,402.2,88.5z"/>
		</g>
		<g>
			<g>
				<path class="st5" d="M197.2,193.9c-0.8,0-1.5-0.7-1.5-1.5v-80c0-0.8,0.7-1.5,1.5-1.5h167c0.8,0,1.5,0.7,1.5,1.5v80
					c0,0.8-0.7,1.5-1.5,1.5H197.2z"/>
				<path class="st6" d="M364.2,111.4c0.6,0,1,0.4,1,1v80c0,0.6-0.4,1-1,1h-167c-0.6,0-1-0.4-1-1v-80c0-0.6,0.4-1,1-1H364.2
					 M364.2,110.4h-167c-1.1,0-2,0.9-2,2v80c0,1.1,0.9,2,2,2h167c1.1,0,2-0.9,2-2v-80C366.2,111.3,365.3,110.4,364.2,110.4
					L364.2,110.4z"/>
			</g>
			<path class="st7" d="M365.2,125.4h-169v-12c0-1.1,0.9-2,2-2h165c1.1,0,2,0.9,2,2V125.4z"/>
			<path class="st8" d="M261,119.4h-59.3c-0.6,0-1-0.4-1-1v0c0-0.6,0.4-1,1-1H261c0.6,0,1,0.4,1,1v0
				C262,118.9,261.6,119.4,261,119.4z"/>
			<g>
				<line class="st12" x1="216.5" y1="139.8" x2="353.4" y2="139.8"/>
				<line class="st13" x1="216.5" y1="159.3" x2="353.4" y2="159.3"/>
				<line class="st14" x1="216.5" y1="178.8" x2="353.4" y2="178.8"/>
				<path class="st8" d="M207.1,178.8L207.1,178.8c-0.6,0-1-0.4-1-1v-37c0-0.6,0.4-1,1-1l0,0c0.6,0,1,0.4,1,1v37
					C208.1,178.4,207.7,178.8,207.1,178.8z"/>
				<rect x="332.8" y="177" class="st9" width="20.5" height="1.8"/>
				<rect x="309.5" y="168" class="st9" width="20.5" height="10.8"/>
				<rect x="286.2" y="176" class="st9" width="20.5" height="2.8"/>
				<rect x="263" y="148.4" class="st9" width="20.5" height="30.5"/>
				<rect x="239.7" y="165.7" class="st9" width="20.5" height="13.2"/>
				<rect x="216.5" y="174" class="st9" width="20.5" height="4.8"/>
			</g>
		</g>
		<g>
			<g>
				<g>
					<path class="st5" d="M23.2,280.2c-0.8,0-1.5-0.7-1.5-1.5v-80c0-0.8,0.7-1.5,1.5-1.5h80c0.8,0,1.5,0.7,1.5,1.5v80
						c0,0.8-0.7,1.5-1.5,1.5H23.2z"/>
					<path class="st6" d="M103.2,197.7c0.6,0,1,0.4,1,1v80c0,0.6-0.4,1-1,1h-80c-0.6,0-1-0.4-1-1v-80c0-0.6,0.4-1,1-1H103.2
						 M103.2,196.7h-80c-1.1,0-2,0.9-2,2v80c0,1.1,0.9,2,2,2h80c1.1,0,2-0.9,2-2v-80C105.2,197.6,104.3,196.7,103.2,196.7
						L103.2,196.7z"/>
				</g>
				<path class="st7" d="M104.2,211.7h-82v-12c0-1.1,0.9-2,2-2h78c1.1,0,2,0.9,2,2V211.7z"/>
				<path class="st8" d="M54.2,205.7H27.7c-0.6,0-1-0.4-1-1l0,0c0-0.6,0.4-1,1-1h26.5c0.6,0,1,0.4,1,1l0,0
					C55.2,205.3,54.7,205.7,54.2,205.7z"/>
			</g>
			<g>
				<path class="st9" d="M62.4,238.5c-15.7,0-28.4,12.7-28.4,28.4h4c0-13.5,10.9-24.4,24.4-24.4s24.4,10.9,24.4,24.4h4
					C90.8,251.2,78.1,238.5,62.4,238.5z"/>
				<path class="st4" d="M82.5,246.8c5.1,5.1,8.3,12.3,8.3,20.1h-4c0-6.8-2.7-12.9-7.2-17.3L82.5,246.8z"/>
				
					<rect x="79.9" y="243.2" transform="matrix(0.7071 0.7071 -0.7071 0.7071 199.0534 14.7597)" class="st5" width="3.7" height="8.9"/>
				<path class="st9" d="M64.7,265.6l17.4-17.4c0.3-0.3,0.3-0.7,0-0.9c-0.3-0.3-0.7-0.3-0.9,0l-17.4,17.4c-1.1-0.7-2.7-0.4-3.5,0.9
					c-0.5,0.8-0.5,1.9,0,2.7c0.9,1.5,2.9,1.6,4,0.5C65.2,267.9,65.3,266.6,64.7,265.6z M61.6,267.8c-0.5-0.5-0.5-1.3,0-1.8
					s1.3-0.5,1.8,0c0.5,0.5,0.5,1.3,0,1.8C62.9,268.3,62.1,268.3,61.6,267.8z"/>
			</g>
			<g>
				<path class="st9" d="M57.4,224.7l-1.2,0.6c-0.1,0.1-0.3,0-0.3-0.1l-0.2-0.5c0-0.1,0-0.2,0-0.3l2.1-1.9h0.7
					c0.1,0,0.3,0.1,0.3,0.3v9.4c0,0.1-0.1,0.3-0.3,0.3h-0.9c-0.2,0-0.3-0.1-0.3-0.3V224.7z"/>
				<path class="st9" d="M62.9,227.3L62.9,227.3c-0.6-0.4-1.5-1.2-1.5-2.3c0-1.6,1.4-2.7,3.1-2.7c1.8,0,3.1,1.1,3.1,2.7
					c0,1.1-0.9,1.9-1.5,2.3v0.1c0.7,0.3,1.8,1.2,1.8,2.5c0,1.6-1.3,2.8-3.4,2.8c-2.1,0-3.4-1.2-3.4-2.8
					C61.1,228.5,62.3,227.5,62.9,227.3z M64.5,231.4c1,0,1.9-0.6,1.9-1.6c0-0.8-0.7-1.6-1.9-1.8c-1.2,0.2-1.9,1-1.9,1.8
					C62.6,230.7,63.5,231.4,64.5,231.4z M66.1,225c0-0.9-0.7-1.5-1.7-1.5c-0.9,0-1.6,0.6-1.6,1.5c0,0.8,0.5,1.4,1.6,1.6
					C65.6,226.4,66.1,225.8,66.1,225z"/>
			</g>
		</g>
		<g>
			<g>
				<g>
					<path class="st5" d="M110.2,280.2c-0.8,0-1.5-0.7-1.5-1.5v-80c0-0.8,0.7-1.5,1.5-1.5h80c0.8,0,1.5,0.7,1.5,1.5v80
						c0,0.8-0.7,1.5-1.5,1.5H110.2z"/>
					<path class="st6" d="M190.2,197.7c0.6,0,1,0.4,1,1v80c0,0.6-0.4,1-1,1h-80c-0.6,0-1-0.4-1-1v-80c0-0.6,0.4-1,1-1H190.2
						 M190.2,196.7h-80c-1.1,0-2,0.9-2,2v80c0,1.1,0.9,2,2,2h80c1.1,0,2-0.9,2-2v-80C192.2,197.6,191.3,196.7,190.2,196.7
						L190.2,196.7z"/>
				</g>
				<path class="st7" d="M191.2,211.7h-82v-12c0-1.1,0.9-2,2-2h78c1.1,0,2,0.9,2,2V211.7z"/>
				<path class="st8" d="M141.2,205.7h-26.5c-0.6,0-1-0.4-1-1l0,0c0-0.6,0.4-1,1-1h26.5c0.6,0,1,0.4,1,1l0,0
					C142.2,205.3,141.7,205.7,141.2,205.7z"/>
			</g>
			<g>
				<path class="st9" d="M117.7,236.3c1.8-2,4.2-5,6-7.1c1.2-1.3,1.8-2.5,1.8-3.5c0-1.2-0.8-2.6-2.9-2.6c-1.3,0-2.4,0.9-3,1.6
					c-0.2,0.2-0.5,0.2-0.6,0l-0.8-0.8c-0.1-0.1-0.2-0.4,0-0.6c0,0,1.8-2.3,4.6-2.3c3.4,0,5.2,2.2,5.2,4.7c0,1.8-1,3.1-2.3,4.6
					c-1.3,1.5-2.9,3.5-4.3,5.1h6.1c0.2,0,0.5,0.2,0.5,0.5v1.1c0,0.2-0.2,0.5-0.5,0.5h-9.2c-0.3,0-0.5-0.2-0.5-0.5V236.3z"/>
				<path class="st9" d="M131.9,234.3c0.9,0,2,0.6,2,2.6c0,2.4-1.5,4.1-2.4,4.8c-0.2,0.2-0.4,0.2-0.6,0l-0.4-0.4
					c-0.1-0.1-0.1-0.4,0.1-0.6c0.3-0.2,1.7-1.4,1.7-3.2c0,0-0.3,0.1-0.6,0.1c-0.9,0-1.6-0.7-1.6-1.6
					C130.2,235.1,131,234.3,131.9,234.3z"/>
				<path class="st9" d="M137.8,235.8c1.1-0.4,4.9-2.3,5.7-5.2c-0.2,0.1-1.6,0.9-3.2,0.9c-2.5,0-5-1.9-5-5.2c0-3,2.4-5.4,5.3-5.4
					c3.8,0,5.6,3,5.6,6.7c0,6.6-5.7,9.4-7.9,10.3c-0.3,0.1-0.5,0-0.6-0.3l-0.4-1C137.3,236.2,137.3,236,137.8,235.8z M143.9,227.7
					c0.2-2-0.7-4.7-3.3-4.7c-1.7,0-3.1,1.5-3.1,3.3c0,1.8,1.4,3.3,3.2,3.3C142.6,229.5,143.8,228.2,143.9,227.7z"/>
				<path class="st9" d="M151.6,229.1L151.6,229.1c-1-0.6-2.4-1.9-2.4-3.8c0-2.6,2.2-4.3,5-4.3c2.9,0,5.1,1.7,5.1,4.3
					c0,1.8-1.4,3.1-2.4,3.7v0.1c1.1,0.5,2.9,1.9,2.9,4c0,2.6-2.1,4.6-5.5,4.6c-3.3,0-5.4-2-5.4-4.6
					C148.7,231,150.7,229.5,151.6,229.1z M154.2,235.7c1.7,0,3-1,3-2.6c0-1.3-1.1-2.6-3-2.9c-1.9,0.3-3,1.6-3,2.9
					C151.2,234.7,152.6,235.7,154.2,235.7z M156.8,225.4c0-1.4-1.2-2.5-2.7-2.5c-1.4,0-2.6,1-2.6,2.5c0,1.3,0.8,2.3,2.7,2.5
					C156,227.7,156.8,226.7,156.8,225.4z"/>
				<path class="st9" d="M162,234.9l0.9-0.9c0.2-0.2,0.5-0.2,0.6,0.1c0.1,0.2,1.5,1.5,3.2,1.5c1.5,0,3-1,3-2.6
					c0-1.4-1.2-2.8-3.8-2.8h-1.3c-0.3,0-0.5-0.2-0.5-0.5v-1c0-0.4,0.1-0.5,0.5-0.5h1.3c2.2,0,3.3-1.1,3.3-2.5c0-1.6-1.3-2.6-2.7-2.6
					c-1.4,0-2.3,0.8-2.8,1.3c-0.1,0.2-0.4,0.2-0.6,0.1l-0.9-0.8c-0.2-0.2-0.2-0.5,0-0.6c0,0,1.8-2.1,4.4-2.1c2.8,0,5,1.7,5,4.3
					c0,1.8-1.4,3.2-2.4,3.7v0.1c1.1,0.5,2.9,1.9,2.9,3.9c0,2.6-2.1,4.5-5.4,4.5c-2.9,0-4.3-1.5-4.9-2.1
					C161.8,235.4,161.8,235.1,162,234.9z"/>
			</g>
			<path class="st4" d="M190.2,279.7h-80c-0.6,0-1-0.4-1-1v-2h82v2C191.2,279.3,190.7,279.7,190.2,279.7z"/>
			<g>
				<path class="st4" d="M117.7,262.5l-1.1,0.5c-0.1,0.1-0.3,0-0.3-0.1l-0.2-0.5c0-0.1,0-0.2,0-0.3l2-1.8h0.7c0.1,0,0.3,0.1,0.3,0.3
					v9.2c0,0.1-0.1,0.3-0.3,0.3H118c-0.2,0-0.3-0.1-0.3-0.3V262.5z"/>
				<path class="st4" d="M121.5,265.1c0-3.1,1.3-5,3.5-5c2.2,0,3.5,1.9,3.5,5s-1.3,5-3.5,5C122.7,270.2,121.5,268.3,121.5,265.1z
					 M127.1,265.1c0-2.3-0.8-3.7-2.1-3.7c-1.3,0-2.1,1.3-2.1,3.7c0,2.4,0.8,3.7,2.1,3.7C126.3,268.9,127.1,267.5,127.1,265.1z"/>
				<path class="st4" d="M132,265L132,265c-0.6-0.4-1.5-1.1-1.5-2.3c0-1.6,1.3-2.6,3-2.6c1.8,0,3.1,1,3.1,2.6c0,1.1-0.9,1.9-1.5,2.2
					v0.1c0.7,0.3,1.7,1.2,1.7,2.4c0,1.6-1.3,2.7-3.3,2.7c-2,0-3.3-1.2-3.3-2.7C130.3,266.2,131.5,265.3,132,265z M133.6,269
					c1,0,1.8-0.6,1.8-1.6c0-0.8-0.7-1.5-1.8-1.7c-1.2,0.2-1.8,1-1.8,1.7C131.8,268.4,132.6,269,133.6,269z M135.2,262.8
					c0-0.9-0.7-1.5-1.6-1.5c-0.9,0-1.6,0.6-1.6,1.5c0,0.8,0.5,1.4,1.6,1.5C134.7,264.2,135.2,263.6,135.2,262.8z"/>
				<path class="st4" d="M138,263.8c0-0.8,0.6-1.4,1.4-1.4c0.8,0,1.4,0.6,1.4,1.4c0,0.8-0.7,1.4-1.4,1.4
					C138.6,265.3,138,264.6,138,263.8z M140.1,263.8c0-0.4-0.3-0.7-0.7-0.7c-0.4,0-0.7,0.3-0.7,0.7c0,0.4,0.3,0.7,0.7,0.7
					C139.8,264.5,140.1,264.2,140.1,263.8z M142.6,262.6c0-0.1,0.1-0.1,0.2-0.1h0.4c0.2,0,0.3,0.2,0.2,0.3l-3.7,7.1
					c0,0-0.1,0.1-0.2,0.1h-0.3c-0.2,0-0.3-0.2-0.2-0.3L142.6,262.6z M142.9,267.2c0.8,0,1.4,0.6,1.4,1.4c0,0.8-0.7,1.4-1.4,1.4
					c-0.8,0-1.4-0.6-1.4-1.4C141.4,267.9,142.1,267.2,142.9,267.2z M142.9,269.4c0.4,0,0.7-0.3,0.7-0.7c0-0.4-0.3-0.7-0.7-0.7
					c-0.4,0-0.7,0.3-0.7,0.7C142.2,269.1,142.5,269.4,142.9,269.4z"/>
			</g>
			<path class="st4" d="M184,270.2h-19c-0.6,0-1-0.4-1-1v-6.8c0-0.6,0.4-1,1-1h19c0.6,0,1,0.4,1,1v6.8
				C185,269.7,184.6,270.2,184,270.2z"/>
			<g>
				<path class="st5" d="M166.6,267.7c0.5-0.6,1.2-1.5,1.7-2.1c0.3-0.4,0.5-0.7,0.5-1c0-0.4-0.2-0.8-0.8-0.8c-0.4,0-0.7,0.3-0.9,0.5
					c-0.1,0.1-0.1,0.1-0.2,0l-0.2-0.2c0,0-0.1-0.1,0-0.2c0,0,0.5-0.7,1.3-0.7c1,0,1.5,0.6,1.5,1.4c0,0.5-0.3,0.9-0.7,1.3
					c-0.4,0.4-0.8,1-1.3,1.5h1.8c0.1,0,0.1,0.1,0.1,0.1v0.3c0,0.1-0.1,0.1-0.1,0.1h-2.7c-0.1,0-0.1-0.1-0.1-0.1V267.7z"/>
				<path class="st5" d="M170.7,267.1c0.3,0,0.6,0.2,0.6,0.8c0,0.7-0.4,1.2-0.7,1.4c-0.1,0.1-0.1,0.1-0.2,0l-0.1-0.1
					c0,0,0-0.1,0-0.2c0.1-0.1,0.5-0.4,0.5-0.9c0,0-0.1,0-0.2,0c-0.3,0-0.5-0.2-0.5-0.5C170.2,267.3,170.5,267.1,170.7,267.1z"/>
				<path class="st5" d="M172.1,267.8l1.9-3.9h-2c-0.1,0-0.1-0.1-0.1-0.1v-0.3c0-0.1,0.1-0.1,0.1-0.1h2.8c0.1,0,0.1,0.1,0.1,0.1v0
					l-2,4.3c-0.1,0.1-0.1,0.2-0.3,0.2h-0.3C172.2,268,172.1,267.9,172.1,267.8L172.1,267.8z"/>
				<path class="st5" d="M175.3,267.3c0.1-0.1,0.2-0.2,0.3-0.2c0.1,0,0.1-0.1,0.2,0c0,0.1,0.4,0.4,1,0.4c0.6,0,0.9-0.5,0.9-1
					c0-0.5-0.3-0.9-1-0.9h-1.1c-0.1,0-0.2-0.1-0.2-0.2v-1.9c0-0.1,0.1-0.1,0.1-0.1h2.1c0.1,0,0.1,0.1,0.1,0.1v0.3
					c0,0.1-0.1,0.1-0.1,0.1H176v1.1h0.7c1,0,1.6,0.6,1.6,1.5c0,0.9-0.7,1.6-1.6,1.6c-0.8,0-1.2-0.4-1.3-0.6
					C175.2,267.4,175.2,267.3,175.3,267.3z"/>
				<path class="st5" d="M179,265.6c0-1.5,0.6-2.4,1.7-2.4c1.1,0,1.7,0.9,1.7,2.4s-0.6,2.4-1.7,2.4C179.6,268.1,179,267.2,179,265.6
					z M181.7,265.6c0-1.1-0.4-1.8-1-1.8c-0.6,0-1,0.6-1,1.8c0,1.1,0.4,1.8,1,1.8C181.4,267.4,181.7,266.8,181.7,265.6z"/>
			</g>
		</g>
		<g>
			<g>
				<g>
					<path class="st5" d="M197.2,280.2c-0.8,0-1.5-0.7-1.5-1.5v-80c0-0.8,0.7-1.5,1.5-1.5h80c0.8,0,1.5,0.7,1.5,1.5v80
						c0,0.8-0.7,1.5-1.5,1.5H197.2z"/>
					<path class="st6" d="M277.2,197.7c0.6,0,1,0.4,1,1v80c0,0.6-0.4,1-1,1h-80c-0.6,0-1-0.4-1-1v-80c0-0.6,0.4-1,1-1H277.2
						 M277.2,196.7h-80c-1.1,0-2,0.9-2,2v80c0,1.1,0.9,2,2,2h80c1.1,0,2-0.9,2-2v-80C279.2,197.6,278.3,196.7,277.2,196.7
						L277.2,196.7z"/>
				</g>
				<path class="st7" d="M278.2,211.7h-82v-12c0-1.1,0.9-2,2-2h78c1.1,0,2,0.9,2,2V211.7z"/>
				<path class="st8" d="M228.2,205.7h-26.5c-0.6,0-1-0.4-1-1l0,0c0-0.6,0.4-1,1-1h26.5c0.6,0,1,0.4,1,1l0,0
					C229.2,205.3,228.7,205.7,228.2,205.7z"/>
			</g>
			<g>
				<path class="st9" d="M204.8,236.3c1.8-2,4.3-5,6-7.2c1.2-1.3,1.8-2.5,1.8-3.5c0-1.2-0.8-2.6-2.9-2.6c-1.3,0-2.4,0.9-3,1.6
					c-0.2,0.2-0.5,0.2-0.6,0l-0.8-0.8c-0.1-0.1-0.2-0.4,0-0.6c0,0,1.8-2.3,4.6-2.3c3.4,0,5.2,2.2,5.2,4.7c0,1.8-1,3.1-2.3,4.7
					c-1.3,1.5-2.9,3.5-4.4,5.1h6.1c0.2,0,0.5,0.2,0.5,0.5v1.1c0,0.2-0.2,0.5-0.5,0.5h-9.3c-0.3,0-0.5-0.2-0.5-0.5V236.3z"/>
				<path class="st9" d="M219.1,234.3c0.9,0,2,0.6,2,2.7c0,2.5-1.5,4.2-2.4,4.8c-0.2,0.2-0.4,0.2-0.6,0l-0.4-0.4
					c-0.1-0.1-0.1-0.4,0.1-0.6c0.3-0.2,1.7-1.4,1.7-3.3c0,0-0.3,0.1-0.6,0.1c-0.9,0-1.6-0.7-1.6-1.6
					C217.4,235,218.2,234.3,219.1,234.3z"/>
				<path class="st9" d="M223.4,229.2c0-5.2,2.2-8.4,5.9-8.4c3.8,0,5.9,3.1,5.9,8.4s-2.2,8.4-5.9,8.4
					C225.5,237.6,223.4,234.5,223.4,229.2z M232.8,229.2c0-3.9-1.3-6.2-3.5-6.2c-2.2,0-3.5,2.2-3.5,6.2c0,4,1.3,6.2,3.5,6.2
					C231.5,235.4,232.8,233.2,232.8,229.2z"/>
				<path class="st9" d="M238.3,236.6l6.5-13.4h-7.1c-0.2,0-0.5-0.2-0.5-0.5v-1.2c0-0.2,0.2-0.5,0.5-0.5h9.8c0.2,0,0.5,0.2,0.5,0.5
					v0.2l-7,15c-0.2,0.5-0.3,0.6-0.9,0.6h-1.1c-0.3,0-0.5-0.2-0.5-0.5V236.6z"/>
				<path class="st9" d="M252.3,229L252.3,229c-1-0.6-2.5-1.9-2.5-3.8c0-2.6,2.2-4.4,5.1-4.4c2.9,0,5.1,1.7,5.1,4.4
					c0,1.8-1.4,3.2-2.5,3.7v0.1c1.1,0.5,2.9,1.9,2.9,4c0,2.6-2.1,4.6-5.6,4.6c-3.3,0-5.5-2-5.5-4.6
					C249.4,230.9,251.4,229.4,252.3,229z M254.9,235.7c1.7,0,3.1-1,3.1-2.6c0-1.3-1.1-2.6-3-2.9c-1.9,0.3-3,1.6-3,2.9
					C251.9,234.6,253.3,235.7,254.9,235.7z M257.6,225.3c0-1.5-1.2-2.5-2.7-2.5c-1.4,0-2.6,1.1-2.6,2.5c0,1.3,0.8,2.3,2.7,2.6
					C256.8,227.6,257.6,226.6,257.6,225.3z"/>
			</g>
			<polyline class="st10" points="205.2,248.5 213.3,251.6 220.7,268.5 228.7,266.3 236.3,248.5 244.4,247.5 251.8,249.4 			"/>
		</g>
		<g>
			<g>
				<g>
					<path class="st5" d="M284.2,280.2c-0.8,0-1.5-0.7-1.5-1.5v-80c0-0.8,0.7-1.5,1.5-1.5h80c0.8,0,1.5,0.7,1.5,1.5v80
						c0,0.8-0.7,1.5-1.5,1.5H284.2z"/>
					<path class="st6" d="M364.2,197.7c0.6,0,1,0.4,1,1v80c0,0.6-0.4,1-1,1h-80c-0.6,0-1-0.4-1-1v-80c0-0.6,0.4-1,1-1H364.2
						 M364.2,196.7h-80c-1.1,0-2,0.9-2,2v80c0,1.1,0.9,2,2,2h80c1.1,0,2-0.9,2-2v-80C366.2,197.6,365.3,196.7,364.2,196.7
						L364.2,196.7z"/>
				</g>
				<path class="st7" d="M365.2,211.7h-82v-12c0-1.1,0.9-2,2-2h78c1.1,0,2,0.9,2,2V211.7z"/>
				<path class="st8" d="M315.2,205.7h-26.5c-0.6,0-1-0.4-1-1l0,0c0-0.6,0.4-1,1-1h26.5c0.6,0,1,0.4,1,1l0,0
					C316.2,205.3,315.7,205.7,315.2,205.7z"/>
			</g>
			<path class="st9" d="M349.4,223.6h-57.5c-0.6,0-1-0.4-1-1l0,0c0-0.6,0.4-1,1-1h57.5c0.6,0,1,0.4,1,1l0,0
				C350.4,223.1,350,223.6,349.4,223.6z"/>
			<path class="st8" d="M319.8,228.7h-27.8c-0.6,0-1-0.4-1-1v0c0-0.6,0.4-1,1-1h27.8c0.6,0,1,0.4,1,1v0
				C320.8,228.2,320.3,228.7,319.8,228.7z"/>
			<path class="st9" d="M331.4,240.3h-39.5c-0.6,0-1-0.4-1-1l0,0c0-0.6,0.4-1,1-1h39.5c0.6,0,1,0.4,1,1l0,0
				C332.4,239.9,332,240.3,331.4,240.3z"/>
			<path class="st8" d="M310.8,245.4h-18.8c-0.6,0-1-0.4-1-1l0,0c0-0.6,0.4-1,1-1h18.8c0.6,0,1,0.4,1,1l0,0
				C311.8,245,311.3,245.4,310.8,245.4z"/>
			<path class="st9" d="M343.4,257.2h-51.5c-0.6,0-1-0.4-1-1l0,0c0-0.6,0.4-1,1-1h51.5c0.6,0,1,0.4,1,1l0,0
				C344.4,256.7,344,257.2,343.4,257.2z"/>
			<path class="st8" d="M330.8,262.3h-39.8v-2h39.8c0.6,0,1,0.4,1,1l0,0C331.8,261.8,331.3,262.3,330.8,262.3z"/>
		</g>
		<g>
			<g>
				<g>
					<path class="st5" d="M371.2,280.2c-0.8,0-1.5-0.7-1.5-1.5V112.4c0-0.8,0.7-1.5,1.5-1.5h80c0.8,0,1.5,0.7,1.5,1.5v166.4
						c0,0.8-0.7,1.5-1.5,1.5H371.2z"/>
					<path class="st6" d="M451.2,111.4c0.6,0,1,0.4,1,1v166.4c0,0.6-0.4,1-1,1h-80c-0.6,0-1-0.4-1-1V112.4c0-0.6,0.4-1,1-1H451.2
						 M451.2,110.4h-80c-1.1,0-2,0.9-2,2v166.4c0,1.1,0.9,2,2,2h80c1.1,0,2-0.9,2-2V112.4C453.2,111.3,452.3,110.4,451.2,110.4
						L451.2,110.4z"/>
				</g>
				<path class="st7" d="M452.2,125.4h-82v-12c0-1.1,0.9-2,2-2h78c1.1,0,2,0.9,2,2V125.4z"/>
				<path class="st8" d="M402.2,119.4h-26.5c-0.6,0-1-0.4-1-1v0c0-0.6,0.4-1,1-1h26.5c0.6,0,1,0.4,1,1v0
					C403.2,118.9,402.7,119.4,402.2,119.4z"/>
			</g>
			<path class="st9" d="M420,136.7h-41.5c-0.6,0-1-0.4-1-1l0,0c0-0.6,0.4-1,1-1H420c0.6,0,1,0.4,1,1l0,0
				C421,136.2,420.6,136.7,420,136.7z"/>
			<path class="st8" d="M406.4,141.8h-27.8c-0.6,0-1-0.4-1-1l0,0c0-0.6,0.4-1,1-1h27.8c0.6,0,1,0.4,1,1l0,0
				C407.4,141.3,406.9,141.8,406.4,141.8z"/>
			<path class="st9" d="M418,153.4h-39.5c-0.6,0-1-0.4-1-1l0,0c0-0.6,0.4-1,1-1H418c0.6,0,1,0.4,1,1l0,0
				C419,152.9,418.6,153.4,418,153.4z"/>
			<path class="st8" d="M397.4,158.5h-18.8c-0.6,0-1-0.4-1-1l0,0c0-0.6,0.4-1,1-1h18.8c0.6,0,1,0.4,1,1l0,0
				C398.4,158,397.9,158.5,397.4,158.5z"/>
			<path class="st9" d="M430,170.2h-51.5c-0.6,0-1-0.4-1-1l0,0c0-0.6,0.4-1,1-1H430c0.6,0,1,0.4,1,1l0,0
				C431,169.8,430.6,170.2,430,170.2z"/>
			<path class="st8" d="M417.4,175.3h-39.8v-2h39.8c0.6,0,1,0.4,1,1l0,0C418.4,174.9,417.9,175.3,417.4,175.3z"/>
			<path class="st9" d="M436.1,188.4h-57.5c-0.6,0-1-0.4-1-1v0c0-0.6,0.4-1,1-1h57.5c0.6,0,1,0.4,1,1v0
				C437.1,187.9,436.7,188.4,436.1,188.4z"/>
			<path class="st8" d="M406.5,193.5h-27.8c-0.6,0-1-0.4-1-1v0c0-0.6,0.4-1,1-1h27.8c0.6,0,1,0.4,1,1v0
				C407.5,193.1,407,193.5,406.5,193.5z"/>
			<path class="st9" d="M418.1,205.1h-39.5c-0.6,0-1-0.4-1-1l0,0c0-0.6,0.4-1,1-1h39.5c0.6,0,1,0.4,1,1l0,0
				C419.1,204.7,418.7,205.1,418.1,205.1z"/>
			<path class="st8" d="M397.5,210.2h-18.8c-0.6,0-1-0.4-1-1l0,0c0-0.6,0.4-1,1-1h18.8c0.6,0,1,0.4,1,1l0,0
				C398.5,209.8,398,210.2,397.5,210.2z"/>
			<path class="st9" d="M433.1,222h-54.5c-0.6,0-1-0.4-1-1l0,0c0-0.6,0.4-1,1-1h54.5c0.6,0,1,0.4,1,1l0,0
				C434.1,221.5,433.7,222,433.1,222z"/>
			<path class="st8" d="M407.5,227.1h-29.8v-2h29.8c0.6,0,1,0.4,1,1l0,0C408.5,226.6,408,227.1,407.5,227.1z"/>
			<path class="st9" d="M423.1,240.3h-44.5c-0.6,0-1-0.4-1-1l0,0c0-0.6,0.4-1,1-1h44.5c0.6,0,1,0.4,1,1l0,0
				C424.1,239.9,423.7,240.3,423.1,240.3z"/>
			<path class="st8" d="M407.5,245.4h-29.8v-2h29.8c0.6,0,1,0.4,1,1l0,0C408.5,245,408,245.4,407.5,245.4z"/>
		</g>
	</g>
</g>
<g>
	<path class="st1" d="M937.4,306.1h-360v-242c0-6.6,5.4-12,12-12h336c6.6,0,12,5.4,12,12V306.1z"/>
	<path class="st0" d="M980.3,103.5h-72.2c-9.2,0-15.2,5.8-15.2,14.5v177.7c0,0.3,0.2,0.7,0.3,0.7H537c-0.6,0-1,0.7-1,1.2v6.4
		c0,0.4,0.2,0.7,0.5,0.9l0,0c6.5,3.6,13.7,5.4,21.2,5.5l3.3,0h346.7c0.1,0,0.3,0,0.4,0h72.2c9.2,0,14.7-6,14.7-14.7V142.3V118
		C995,109.3,989.6,103.5,980.3,103.5z"/>
	<path class="st15" d="M561,306.1l-3.3-0.1c-7.4-0.1-14.7-2.1-21.2-5.7l0,0c-0.3-0.2-0.5-0.5-0.5-0.9v-6.4c0-0.6,0.4-1,1-1h440
		c0.6,0,1,0.4,1,1v6.4c0,0.4-0.2,0.7-0.5,0.9l0,0c-6.5,3.6-13.7,5.5-21.2,5.7l-3.3,0.1H561z"/>
	<rect x="589.4" y="66.8" class="st2" width="336" height="210.5"/>
	<g>
		<g>
			<g>
				<g>
					<path class="st5" d="M597.8,202.5c-0.6,0-1.1-0.5-1.1-1.1V76.4c0-0.6,0.5-1.1,1.1-1.1h124.8c0.6,0,1.1,0.5,1.1,1.1v124.9
						c0,0.6-0.5,1.1-1.1,1.1H597.8z"/>
				</g>
				<g>
					<path class="st6" d="M722.7,75.7c0.4,0,0.7,0.3,0.7,0.7v124.9c0,0.4-0.3,0.7-0.7,0.7H597.8c-0.4,0-0.7-0.3-0.7-0.7V76.4
						c0-0.4,0.3-0.7,0.7-0.7H722.7 M722.7,74.9H597.8c-0.8,0-1.5,0.7-1.5,1.5v124.9c0,0.8,0.7,1.5,1.5,1.5h124.8
						c0.8,0,1.5-0.7,1.5-1.5V76.4C724.1,75.6,723.5,74.9,722.7,74.9L722.7,74.9z"/>
				</g>
			</g>
			<g>
				<path class="st7" d="M723.4,86.2H597.8v-8.5c0-1.1,0.9-2,2-2h121.6c1.1,0,2,0.9,2,2V86.2z"/>
			</g>
			<g class="st16">
				<path class="st9" d="M643.1,81.7h-40.7c-0.3,0-0.6-0.3-0.6-0.6v-0.3c0-0.3,0.3-0.6,0.6-0.6h40.7c0.3,0,0.6,0.3,0.6,0.6v0.3
					C643.6,81.4,643.4,81.7,643.1,81.7z"/>
			</g>
			<g>
				<g>
					<path class="st9" d="M609.4,101.8l-2.6,1.2c-0.3,0.1-0.6,0.1-0.7-0.2l-0.4-1.2c-0.1-0.3,0-0.5,0.1-0.7l4.7-4.2h1.6
						c0.3,0,0.6,0.3,0.6,0.6v21.2c0,0.3-0.3,0.6-0.6,0.6h-2c-0.4,0-0.6-0.3-0.6-0.6V101.8z"/>
				</g>
				<g>
					<path class="st9" d="M619.8,114.9c1.2,0,2.7,0.8,2.7,3.7c0,3.4-2.1,5.7-3.3,6.6c-0.3,0.3-0.6,0.3-0.8,0l-0.5-0.5
						c-0.2-0.2-0.2-0.6,0.2-0.8c0.4-0.3,2.3-1.9,2.3-4.5c-0.1,0-0.4,0.1-0.8,0.1c-1.2,0-2.3-1-2.3-2.3
						C617.4,116,618.4,114.9,619.8,114.9z"/>
				</g>
				<g>
					<path class="st9" d="M626.3,118.2l8.9-18.5h-9.8c-0.3,0-0.6-0.3-0.6-0.6v-1.6c0-0.3,0.3-0.6,0.6-0.6h13.5
						c0.3,0,0.6,0.3,0.6,0.6v0.2l-9.7,20.7c-0.3,0.7-0.5,0.9-1.3,0.9H627c-0.4,0-0.8-0.3-0.8-0.6V118.2z"/>
				</g>
				<g>
					<path class="st9" d="M644.2,117c1.5-0.5,6.8-3.2,7.9-7.2c-0.3,0.2-2.2,1.2-4.4,1.2c-3.5,0-6.9-2.6-6.9-7.1
						c0-4.2,3.4-7.5,7.4-7.5c5.2,0,7.7,4.2,7.7,9.3c0,9.2-7.9,13-10.9,14.2c-0.4,0.1-0.7,0-0.8-0.4l-0.6-1.4
						C643.5,117.5,643.6,117.2,644.2,117z M652.7,105.8c0.3-2.8-1-6.6-4.5-6.6c-2.4,0-4.3,2.1-4.3,4.5c0,2.5,1.9,4.5,4.4,4.5
						C650.8,108.3,652.5,106.3,652.7,105.8z"/>
				</g>
				<g>
					<path class="st9" d="M662,117c1.5-0.5,6.8-3.2,7.9-7.2c-0.3,0.2-2.2,1.2-4.4,1.2c-3.5,0-6.9-2.6-6.9-7.1c0-4.2,3.4-7.5,7.4-7.5
						c5.2,0,7.7,4.2,7.7,9.3c0,9.2-7.9,13-10.9,14.2c-0.4,0.1-0.7,0-0.8-0.4l-0.6-1.4C661.3,117.5,661.4,117.2,662,117z
						 M670.5,105.8c0.3-2.8-1-6.6-4.5-6.6c-2.4,0-4.3,2.1-4.3,4.5c0,2.5,1.9,4.5,4.4,4.5C668.6,108.3,670.3,106.3,670.5,105.8z"/>
				</g>
			</g>
			<g class="st17">
				<path class="st18" d="M644.8,182.6l-8.1-26.5l-4.1-5.7h-4.1l-3.8,4.8l-3.3,15.5l-4.9,8.3l-12.2-44.4c-0.1-0.2,0.1-0.4,0.3-0.5
					c0.2-0.1,0.4,0.1,0.5,0.3l11.7,42.7l4-6.7l3.2-15.6l4.2-5.3h4.9l4.4,6.3l7.4,24.3l7.6-23.6l3.9-11.1l4.5,2.6l3.6-1.6l4.4,8.8
					l3.7,10.5l4.1-10.4l3-14.3l5.3-1.6l3.7,0.4l4.4,6.1l2.7,8.3l4,9.2l7.7-31.9c0-0.2,0.3-0.3,0.5-0.3c0.2,0,0.3,0.3,0.3,0.5
					l-8.2,34.1l-4.9-11.3l-2.7-8.3l-4.1-5.7l-3.2-0.3l-4.7,1.4l-2.9,14l-4.9,12.4l-4.3-12.3l-4.1-8.1l-3.3,1.5l-4-2.3l-3.6,10.2
					L644.8,182.6z"/>
			</g>
		</g>
		<g>
			<g>
				<g>
					<path class="st5" d="M727.9,137.4c-0.6,0-1.1-0.5-1.1-1.1V76.4c0-0.6,0.5-1.1,1.1-1.1h59.8c0.6,0,1.1,0.5,1.1,1.1v59.8
						c0,0.6-0.5,1.1-1.1,1.1H727.9z"/>
				</g>
				<g>
					<path class="st6" d="M787.7,75.7c0.4,0,0.7,0.3,0.7,0.7v59.8c0,0.4-0.3,0.7-0.7,0.7h-59.8c-0.4,0-0.7-0.3-0.7-0.7V76.4
						c0-0.4,0.3-0.7,0.7-0.7H787.7 M787.7,74.9h-59.8c-0.8,0-1.5,0.7-1.5,1.5v59.8c0,0.8,0.7,1.5,1.5,1.5h59.8
						c0.8,0,1.5-0.7,1.5-1.5V76.4C789.2,75.6,788.5,74.9,787.7,74.9L787.7,74.9z"/>
				</g>
			</g>
			<g>
				<path class="st7" d="M788.4,86.2h-61.3v-8.5c0-1.1,0.9-2,2-2h57.3c1.1,0,2,0.9,2,2V86.2z"/>
			</g>
			<g class="st16">
				<path class="st9" d="M751.2,81.7h-20.2c-0.3,0-0.6-0.3-0.6-0.6v-0.3c0-0.3,0.3-0.6,0.6-0.6h20.2c0.3,0,0.6,0.3,0.6,0.6v0.3
					C751.8,81.4,751.5,81.7,751.2,81.7z"/>
			</g>
			<g>
				<g>
					<path class="st9" d="M735.7,96.2l-1.4,0.6c-0.2,0.1-0.3,0-0.4-0.1l-0.2-0.6c-0.1-0.1,0-0.3,0.1-0.3l2.4-2.2h0.8
						c0.2,0,0.3,0.2,0.3,0.3v11c0,0.2-0.1,0.3-0.3,0.3h-1c-0.2,0-0.3-0.2-0.3-0.3V96.2z"/>
				</g>
				<g>
					<path class="st9" d="M739.9,103.5l0.7-0.6c0.2-0.1,0.3-0.1,0.5,0c0.1,0.1,1.1,1.1,2.3,1.1c1.1,0,2.1-0.7,2.1-1.8
						c0-1-0.9-2-2.7-2h-1c-0.2,0-0.3-0.1-0.3-0.4V99c0-0.3,0.1-0.4,0.3-0.4h1c1.6,0,2.4-0.8,2.4-1.8c0-1.1-0.9-1.9-1.9-1.9
						c-1,0-1.6,0.6-2,1c-0.1,0.1-0.3,0.2-0.4,0l-0.6-0.6c-0.1-0.1-0.1-0.3,0-0.4c0,0,1.3-1.5,3.2-1.5c2,0,3.6,1.2,3.6,3.1
						c0,1.3-1,2.3-1.8,2.7v0.1c0.8,0.3,2.1,1.4,2.1,2.8c0,1.9-1.5,3.3-3.9,3.3c-2.1,0-3.1-1.1-3.5-1.5
						C739.7,103.8,739.7,103.6,739.9,103.5z"/>
				</g>
				<g>
					<path class="st9" d="M749.3,99.4c0-3.7,1.5-6,4.2-6c2.7,0,4.2,2.2,4.2,6c0,3.7-1.5,6-4.2,6C750.9,105.4,749.3,103.2,749.3,99.4
						z M756.1,99.4c0-2.8-0.9-4.4-2.5-4.4c-1.6,0-2.5,1.6-2.5,4.4c0,2.8,0.9,4.4,2.5,4.4C755.2,103.9,756.1,102.3,756.1,99.4z"/>
				</g>
			</g>
			<g>
				<path class="st4" d="M740.7,121.3h-5.8c-0.3,0-0.6-0.4-0.4-0.7l2.9-5.8c0.2-0.3,0.6-0.3,0.8,0l2.9,5.8
					C741.2,120.9,741,121.3,740.7,121.3z"/>
			</g>
			<g>
				<g>
					<path class="st4" d="M745.7,115.7l-0.9,0.4c-0.1,0-0.2,0-0.2-0.1l-0.1-0.4c0-0.1,0-0.2,0-0.2l1.5-1.4h0.5
						c0.1,0,0.2,0.1,0.2,0.2v6.9c0,0.1-0.1,0.2-0.2,0.2h-0.7c-0.1,0-0.2-0.1-0.2-0.2V115.7z"/>
				</g>
				<g>
					<path class="st4" d="M748.2,120.8c0.8-0.9,1.9-2.3,2.7-3.2c0.5-0.6,0.8-1.1,0.8-1.6c0-0.5-0.4-1.2-1.3-1.2
						c-0.6,0-1.1,0.4-1.4,0.7c-0.1,0.1-0.2,0.1-0.3,0l-0.4-0.4c-0.1-0.1-0.1-0.2,0-0.3c0,0,0.8-1,2.1-1c1.5,0,2.3,1,2.3,2.1
						c0,0.8-0.4,1.4-1,2.1c-0.6,0.7-1.3,1.6-1.9,2.3h2.7c0.1,0,0.2,0.1,0.2,0.2v0.5c0,0.1-0.1,0.2-0.2,0.2h-4.1
						c-0.1,0-0.2-0.1-0.2-0.2V120.8z"/>
				</g>
				<g>
					<path class="st4" d="M754.6,119.9c0.4,0,0.7,0.3,0.7,0.7c0,0.4-0.3,0.7-0.7,0.7c-0.4,0-0.7-0.3-0.7-0.7
						C753.8,120.2,754.1,119.9,754.6,119.9z"/>
				</g>
				<g>
					<path class="st4" d="M756.3,118.9c0-1.6,0.6-2.5,1.8-2.5c1.1,0,1.8,0.9,1.8,2.5s-0.6,2.5-1.8,2.5
						C756.9,121.4,756.3,120.4,756.3,118.9z M759.1,118.9c0-1.2-0.4-1.8-1-1.8c-0.7,0-1,0.7-1,1.8c0,1.2,0.4,1.8,1,1.8
						C758.7,120.7,759.1,120.1,759.1,118.9z"/>
				</g>
				<g>
					<path class="st4" d="M760.7,121.1l1.9-4h-2.1c-0.1,0-0.1-0.1-0.1-0.1v-0.4c0-0.1,0.1-0.1,0.1-0.1h2.9c0.1,0,0.1,0.1,0.1,0.1v0
						l-2.1,4.5c-0.1,0.1-0.1,0.2-0.3,0.2h-0.3C760.8,121.3,760.7,121.2,760.7,121.1L760.7,121.1z"/>
				</g>
				<g>
					<path class="st4" d="M763.8,117.2c0-0.5,0.4-1,1-1c0.5,0,1,0.4,1,1c0,0.5-0.4,1-1,1C764.3,118.2,763.8,117.7,763.8,117.2z
						 M765.2,117.2c0-0.2-0.2-0.4-0.4-0.4c-0.2,0-0.4,0.2-0.4,0.4c0,0.3,0.2,0.5,0.4,0.5C765,117.6,765.2,117.5,765.2,117.2z
						 M766.9,116.4c0,0,0.1-0.1,0.1-0.1h0.2c0.1,0,0.2,0.1,0.1,0.2l-2.5,4.7c0,0-0.1,0.1-0.1,0.1h-0.2c-0.1,0-0.2-0.1-0.1-0.2
						L766.9,116.4z M767.1,119.5c0.5,0,1,0.4,1,1s-0.4,1-1,1c-0.5,0-1-0.4-1-1S766.6,119.5,767.1,119.5z M767.1,120.9
						c0.2,0,0.4-0.2,0.4-0.4c0-0.2-0.2-0.4-0.4-0.4c-0.3,0-0.5,0.2-0.5,0.4C766.6,120.7,766.8,120.9,767.1,120.9z"/>
				</g>
			</g>
		</g>
		<g>
			<g>
				<g>
					<path class="st5" d="M792.9,137.4c-0.6,0-1.1-0.5-1.1-1.1V76.4c0-0.6,0.5-1.1,1.1-1.1h59.8c0.6,0,1.1,0.5,1.1,1.1v59.8
						c0,0.6-0.5,1.1-1.1,1.1H792.9z"/>
				</g>
				<g>
					<path class="st6" d="M852.7,75.7c0.4,0,0.7,0.3,0.7,0.7v59.8c0,0.4-0.3,0.7-0.7,0.7h-59.8c-0.4,0-0.7-0.3-0.7-0.7V76.4
						c0-0.4,0.3-0.7,0.7-0.7H852.7 M852.7,74.9h-59.8c-0.8,0-1.5,0.7-1.5,1.5v59.8c0,0.8,0.7,1.5,1.5,1.5h59.8
						c0.8,0,1.5-0.7,1.5-1.5V76.4C854.2,75.6,853.6,74.9,852.7,74.9L852.7,74.9z"/>
				</g>
			</g>
			<g>
				<path class="st7" d="M853.5,86.2h-61.3v-8.5c0-1.1,0.9-2,2-2h57.3c1.1,0,2,0.9,2,2V86.2z"/>
			</g>
			<g class="st16">
				<path class="st9" d="M816.3,81.7h-20.2c-0.3,0-0.6-0.3-0.6-0.6v-0.3c0-0.3,0.3-0.6,0.6-0.6h20.2c0.3,0,0.6,0.3,0.6,0.6v0.3
					C816.8,81.4,816.6,81.7,816.3,81.7z"/>
			</g>
			<g>
				<g>
					<path class="st9" d="M800.7,96.2l-1.4,0.6c-0.2,0.1-0.3,0-0.4-0.1l-0.2-0.6c-0.1-0.1,0-0.3,0.1-0.3l2.4-2.2h0.8
						c0.2,0,0.3,0.2,0.3,0.3v11c0,0.2-0.1,0.3-0.3,0.3h-1c-0.2,0-0.3-0.2-0.3-0.3V96.2z"/>
				</g>
				<g>
					<path class="st9" d="M806.1,103.1c0.6,0,1.4,0.4,1.4,1.9c0,1.8-1.1,3-1.7,3.4c-0.2,0.1-0.3,0.1-0.4,0l-0.3-0.3
						c-0.1-0.1-0.1-0.3,0.1-0.4c0.2-0.2,1.2-1,1.2-2.3c0,0-0.2,0.1-0.4,0.1c-0.6,0-1.2-0.5-1.2-1.2
						C804.8,103.6,805.4,103.1,806.1,103.1z"/>
				</g>
				<g>
					<path class="st9" d="M809.1,99.4c0-3.7,1.5-6,4.2-6c2.7,0,4.2,2.2,4.2,6c0,3.7-1.5,6-4.2,6C810.6,105.4,809.1,103.2,809.1,99.4
						z M815.8,99.4c0-2.8-0.9-4.4-2.5-4.4c-1.6,0-2.5,1.6-2.5,4.4c0,2.8,0.9,4.4,2.5,4.4C814.9,103.9,815.8,102.3,815.8,99.4z"/>
				</g>
				<g>
					<path class="st9" d="M821.2,96.2l-1.4,0.6c-0.2,0.1-0.3,0-0.4-0.1l-0.2-0.6c-0.1-0.1,0-0.3,0.1-0.3l2.4-2.2h0.8
						c0.2,0,0.3,0.2,0.3,0.3v11c0,0.2-0.1,0.3-0.3,0.3h-1c-0.2,0-0.3-0.2-0.3-0.3V96.2z"/>
				</g>
				<g>
					<path class="st9" d="M825.2,104.5c1.3-1.4,3-3.6,4.3-5.1c0.9-1,1.3-1.8,1.3-2.5c0-0.9-0.6-1.9-2.1-1.9c-0.9,0-1.7,0.6-2.2,1.1
						c-0.1,0.1-0.3,0.1-0.5,0l-0.6-0.6c-0.1-0.1-0.1-0.3,0-0.4c0,0,1.3-1.7,3.3-1.7c2.4,0,3.7,1.6,3.7,3.4c0,1.3-0.7,2.2-1.6,3.3
						c-0.9,1.1-2.1,2.5-3.1,3.6h4.4c0.2,0,0.3,0.2,0.3,0.3v0.8c0,0.2-0.2,0.3-0.3,0.3h-6.6c-0.2,0-0.3-0.2-0.3-0.3V104.5z"/>
				</g>
			</g>
			<g>
				<path class="st11" d="M799.9,114.5h5.8c0.3,0,0.6,0.4,0.4,0.7l-2.9,5.8c-0.2,0.3-0.6,0.3-0.8,0l-2.9-5.8
					C799.3,114.9,799.6,114.5,799.9,114.5z"/>
			</g>
			<g>
				<g>
					<path class="st11" d="M809.9,119.5v-0.6l3.9-4.9c0,0,0.1-0.1,0.2-0.1h0.4c0.1,0,0.2,0.1,0.2,0.2v4.7h0.9c0.1,0,0.2,0.1,0.2,0.2
						v0.4c0,0.1-0.1,0.2-0.2,0.2h-0.9l0,1.4c0,0.1-0.1,0.2-0.2,0.2h-0.6c-0.1,0-0.2-0.1-0.2-0.2v-1.4h-3.5
						C810,119.7,809.9,119.6,809.9,119.5z M813.6,118.8v-3.1l-2.6,3.1H813.6z"/>
				</g>
				<g>
					<path class="st11" d="M817.9,117.6L817.9,117.6c-0.5-0.3-1.1-0.9-1.1-1.7c0-1.2,1-2,2.3-2c1.3,0,2.3,0.8,2.3,2
						c0,0.8-0.6,1.4-1.1,1.6v0c0.5,0.2,1.3,0.9,1.3,1.8c0,1.2-0.9,2-2.5,2c-1.5,0-2.4-0.9-2.4-2
						C816.6,118.4,817.5,117.8,817.9,117.6z M819.1,120.5c0.8,0,1.4-0.4,1.4-1.2c0-0.6-0.5-1.2-1.4-1.3c-0.9,0.1-1.4,0.7-1.4,1.3
						C817.7,120.1,818.4,120.5,819.1,120.5z M820.3,115.9c0-0.7-0.5-1.1-1.2-1.1c-0.6,0-1.2,0.5-1.2,1.1c0,0.6,0.4,1,1.2,1.1
						C819.9,117,820.3,116.5,820.3,115.9z"/>
				</g>
				<g>
					<path class="st11" d="M823.4,119.9c0.4,0,0.7,0.3,0.7,0.7c0,0.4-0.3,0.7-0.7,0.7c-0.4,0-0.7-0.3-0.7-0.7
						C822.6,120.3,822.9,119.9,823.4,119.9z"/>
				</g>
				<g>
					<path class="st11" d="M825.1,118.6c0-1.8,0.7-2.8,2-2.8c1.3,0,2,1,2,2.8s-0.7,2.8-2,2.8C825.8,121.4,825.1,120.3,825.1,118.6z
						 M828.3,118.6c0-1.3-0.4-2.1-1.2-2.1c-0.8,0-1.2,0.8-1.2,2.1c0,1.3,0.4,2.1,1.2,2.1C827.9,120.6,828.3,119.9,828.3,118.6z"/>
				</g>
				<g>
					<path class="st11" d="M829.9,120.9c0.6-0.7,1.4-1.7,2-2.4c0.4-0.4,0.6-0.8,0.6-1.2c0-0.4-0.3-0.9-1-0.9c-0.4,0-0.8,0.3-1,0.5
						c-0.1,0.1-0.2,0.1-0.2,0l-0.3-0.3c0,0-0.1-0.1,0-0.2c0,0,0.6-0.8,1.6-0.8c1.1,0,1.8,0.7,1.8,1.6c0,0.6-0.3,1-0.8,1.6
						c-0.4,0.5-1,1.2-1.5,1.7h2c0.1,0,0.2,0.1,0.2,0.2v0.4c0,0.1-0.1,0.2-0.2,0.2H830c-0.1,0-0.2-0.1-0.2-0.2V120.9z"/>
				</g>
				<g>
					<path class="st11" d="M834,116.7c0-0.6,0.5-1.1,1.1-1.1c0.6,0,1.1,0.5,1.1,1.1c0,0.6-0.5,1.1-1.1,1.1
						C834.4,117.8,834,117.3,834,116.7z M835.5,116.7c0-0.3-0.2-0.5-0.5-0.5c-0.3,0-0.5,0.2-0.5,0.5c0,0.3,0.2,0.5,0.5,0.5
						C835.3,117.2,835.5,117,835.5,116.7z M837.4,115.8c0,0,0.1-0.1,0.1-0.1h0.3c0.1,0,0.2,0.1,0.1,0.2l-2.8,5.3
						c0,0-0.1,0.1-0.1,0.1h-0.2c-0.1,0-0.2-0.1-0.1-0.2L837.4,115.8z M837.6,119.2c0.6,0,1.1,0.5,1.1,1.1c0,0.6-0.5,1.1-1.1,1.1
						c-0.6,0-1.1-0.5-1.1-1.1C836.5,119.7,837,119.2,837.6,119.2z M837.6,120.8c0.3,0,0.5-0.2,0.5-0.5c0-0.3-0.2-0.5-0.5-0.5
						c-0.3,0-0.5,0.2-0.5,0.5C837.1,120.6,837.3,120.8,837.6,120.8z"/>
				</g>
			</g>
		</g>
		<g>
			<g>
				<g>
					<path class="st5" d="M858,137.4c-0.6,0-1.1-0.5-1.1-1.1V76.4c0-0.6,0.5-1.1,1.1-1.1h59.8c0.6,0,1.1,0.5,1.1,1.1v59.8
						c0,0.6-0.5,1.1-1.1,1.1H858z"/>
				</g>
				<g>
					<path class="st6" d="M917.8,75.7c0.4,0,0.7,0.3,0.7,0.7v59.8c0,0.4-0.3,0.7-0.7,0.7H858c-0.4,0-0.7-0.3-0.7-0.7V76.4
						c0-0.4,0.3-0.7,0.7-0.7H917.8 M917.8,74.9H858c-0.8,0-1.5,0.7-1.5,1.5v59.8c0,0.8,0.7,1.5,1.5,1.5h59.8c0.8,0,1.5-0.7,1.5-1.5
						V76.4C919.3,75.6,918.6,74.9,917.8,74.9L917.8,74.9z"/>
				</g>
			</g>
			<g>
				<path class="st7" d="M918.5,105.8h-61.3V77.7c0-1.1,0.9-2,2-2h57.3c1.1,0,2,0.9,2,2V105.8z"/>
			</g>
			<g>
				<g>
					<path class="st9" d="M861.8,94.7l0.6-0.6c0.2-0.1,0.3-0.1,0.4,0c0.1,0.1,1,1,2.3,1c1.1,0,2.1-0.7,2.1-1.8c0-1-0.8-1.9-2.6-1.9
						h-0.9c-0.2,0-0.3-0.1-0.3-0.3v-0.7c0-0.3,0.1-0.3,0.3-0.3h0.9c1.6,0,2.3-0.8,2.3-1.8c0-1.1-0.9-1.8-1.9-1.8
						c-1,0-1.6,0.6-1.9,0.9c-0.1,0.1-0.3,0.2-0.4,0l-0.6-0.5c-0.1-0.1-0.1-0.3,0-0.4c0,0,1.3-1.5,3.1-1.5c1.9,0,3.5,1.2,3.5,3
						c0,1.3-1,2.3-1.7,2.6v0.1c0.8,0.3,2,1.3,2,2.8c0,1.8-1.5,3.2-3.8,3.2c-2.1,0-3-1-3.4-1.5C861.7,95,861.7,94.8,861.8,94.7z"/>
				</g>
				<g>
					<path class="st9" d="M871.8,94.3c0.6,0,1.2,0.5,1.2,1.2c0,0.6-0.5,1.1-1.2,1.1c-0.6,0-1.1-0.5-1.1-1.1
						C870.6,94.8,871.1,94.3,871.8,94.3z"/>
				</g>
				<g>
					<path class="st9" d="M875.7,87.6l-1.3,0.6c-0.2,0.1-0.3,0-0.4-0.1l-0.2-0.6c0-0.1,0-0.3,0-0.3l2.4-2.1h0.8
						c0.2,0,0.3,0.2,0.3,0.3v10.7c0,0.2-0.1,0.3-0.3,0.3h-1c-0.2,0-0.3-0.2-0.3-0.3V87.6z"/>
				</g>
				<g>
					<path class="st9" d="M880,94.6c0.2-0.2,0.4-0.4,0.6-0.6c0.1-0.1,0.3-0.1,0.4,0c0.1,0.2,1,1.1,2.3,1.1c1.4,0,2.3-1.2,2.3-2.3
						c0-1.2-0.8-2.1-2.3-2.1h-2.5c-0.3,0-0.5-0.3-0.5-0.6v-4.7c0-0.2,0.1-0.3,0.3-0.3h5.1c0.2,0,0.3,0.2,0.3,0.3v0.8
						c0,0.2-0.1,0.3-0.3,0.3h-4v2.6h1.7c2.4,0,3.8,1.4,3.8,3.6c0,2.1-1.7,3.8-3.9,3.8c-1.8,0-2.8-0.9-3.2-1.4
						C879.8,95,879.8,94.8,880,94.6z"/>
				</g>
				<g>
					<path class="st9" d="M889,87.9c0-0.1,0.1-0.2,0.2-0.2h2.8c1.5,0,2.8,1.2,2.8,2.8c0,1.5-1.3,2.8-2.8,2.8h-1.8v2.9
						c0,0.1-0.1,0.2-0.2,0.2h-0.8c-0.1,0-0.2-0.1-0.2-0.2V87.9z M892,92c0.9,0,1.6-0.7,1.6-1.6c0-0.8-0.7-1.5-1.6-1.5h-1.7V92H892z"
						/>
				</g>
				<g>
					<path class="st9" d="M897.3,87.7c0-0.1,0.1-0.2,0.2-0.2h0.2c0.1,0,0.2,0.1,0.2,0.1l2.6,6.4h0l2.6-6.4c0-0.1,0.1-0.1,0.2-0.1
						h0.2c0.1,0,0.2,0.1,0.2,0.2l1.5,8.4c0,0.2,0,0.3-0.2,0.3h-0.8c-0.1,0-0.2-0.1-0.2-0.2l-0.9-5.6c0,0,0,0,0,0l-2.2,5.7
						c0,0.1-0.1,0.1-0.2,0.1h-0.2c-0.1,0-0.2-0.1-0.2-0.1l-2.3-5.7c0,0,0,0,0,0l-0.9,5.6c0,0.1-0.1,0.2-0.2,0.2H896
						c-0.2,0-0.3-0.1-0.2-0.3L897.3,87.7z"/>
				</g>
			</g>
			<g class="st16">
				<path class="st9" d="M892.8,117.5h-30.3c-0.3,0-0.6-0.3-0.6-0.6v-0.3c0-0.3,0.3-0.6,0.6-0.6h30.3c0.3,0,0.6,0.3,0.6,0.6v0.3
					C893.4,117.3,893.1,117.5,892.8,117.5z"/>
			</g>
			<g class="st16">
				<path class="st9" d="M881.4,123.7h-18.8c-0.3,0-0.6-0.3-0.6-0.6v-0.3c0-0.3,0.3-0.6,0.6-0.6h18.8c0.3,0,0.6,0.3,0.6,0.6v0.3
					C881.9,123.5,881.7,123.7,881.4,123.7z"/>
			</g>
		</g>
		<g>
			<g>
				<g>
					<path class="st5" d="M727.9,202.5c-0.6,0-1.1-0.5-1.1-1.1v-59.8c0-0.6,0.5-1.1,1.1-1.1h124.8c0.6,0,1.1,0.5,1.1,1.1v59.8
						c0,0.6-0.5,1.1-1.1,1.1H727.9z"/>
				</g>
				<g>
					<path class="st6" d="M852.7,140.8c0.4,0,0.7,0.3,0.7,0.7v59.8c0,0.4-0.3,0.7-0.7,0.7H727.9c-0.4,0-0.7-0.3-0.7-0.7v-59.8
						c0-0.4,0.3-0.7,0.7-0.7H852.7 M852.7,140.1H727.9c-0.8,0-1.5,0.7-1.5,1.5v59.8c0,0.8,0.7,1.5,1.5,1.5h124.8
						c0.8,0,1.5-0.7,1.5-1.5v-59.8C854.2,140.7,853.6,140.1,852.7,140.1L852.7,140.1z"/>
				</g>
			</g>
			<g>
				<path class="st7" d="M853.5,151.3H727.1v-8.5c0-1.1,0.9-2,2-2h122.3c1.1,0,2,0.9,2,2V151.3z"/>
			</g>
			<g class="st16">
				<path class="st9" d="M775.8,146.8h-44.7c-0.3,0-0.6-0.3-0.6-0.6v-0.3c0-0.3,0.3-0.6,0.6-0.6h44.7c0.3,0,0.6,0.3,0.6,0.6v0.3
					C776.3,146.5,776.1,146.8,775.8,146.8z"/>
			</g>
			<g>
				<g class="st19">
					<rect x="742.3" y="161.7" class="st9" width="102.4" height="0.7"/>
				</g>
				<g class="st20">
					<rect x="742.3" y="176.3" class="st9" width="102.4" height="0.7"/>
				</g>
				<g class="st21">
					<rect x="742.3" y="190.9" class="st9" width="102.4" height="0.7"/>
				</g>
				<g class="st16">
					<path class="st9" d="M735.5,191.2h-0.3c-0.3,0-0.6-0.3-0.6-0.6v-28c0-0.3,0.3-0.6,0.6-0.6h0.3c0.3,0,0.6,0.3,0.6,0.6v28
						C736.1,191,735.8,191.2,735.5,191.2z"/>
				</g>
				<g>
					<rect x="829.3" y="189.9" class="st9" width="15.3" height="1.3"/>
				</g>
				<g>
					<rect x="811.9" y="183.2" class="st9" width="15.3" height="8.1"/>
				</g>
				<g>
					<rect x="794.5" y="189.2" class="st9" width="15.3" height="2.1"/>
				</g>
				<g>
					<rect x="777.1" y="168.5" class="st9" width="15.3" height="22.8"/>
				</g>
				<g>
					<rect x="759.7" y="181.4" class="st9" width="15.3" height="9.8"/>
				</g>
				<g>
					<rect x="742.3" y="187.7" class="st9" width="15.3" height="3.6"/>
				</g>
			</g>
		</g>
		<g>
			<g>
				<g>
					<g>
						<path class="st5" d="M597.8,267c-0.6,0-1.1-0.5-1.1-1.1v-59.8c0-0.6,0.5-1.1,1.1-1.1h59.8c0.6,0,1.1,0.5,1.1,1.1v59.8
							c0,0.6-0.5,1.1-1.1,1.1H597.8z"/>
					</g>
					<g>
						<path class="st6" d="M657.6,205.4c0.4,0,0.7,0.3,0.7,0.7v59.8c0,0.4-0.3,0.7-0.7,0.7h-59.8c-0.4,0-0.7-0.3-0.7-0.7v-59.8
							c0-0.4,0.3-0.7,0.7-0.7H657.6 M657.6,204.6h-59.8c-0.8,0-1.5,0.7-1.5,1.5v59.8c0,0.8,0.7,1.5,1.5,1.5h59.8
							c0.8,0,1.5-0.7,1.5-1.5v-59.8C659.1,205.3,658.4,204.6,657.6,204.6L657.6,204.6z"/>
					</g>
				</g>
				<g>
					<path class="st7" d="M658.4,215.8h-61.3v-8.5c0-1.1,0.9-2,2-2h57.3c1.1,0,2,0.9,2,2V215.8z"/>
				</g>
				<g class="st16">
					<path class="st9" d="M621.1,211.3H601c-0.3,0-0.6-0.3-0.6-0.6v-0.3c0-0.3,0.3-0.6,0.6-0.6h20.2c0.3,0,0.6,0.3,0.6,0.6v0.3
						C621.7,211.1,621.5,211.3,621.1,211.3z"/>
				</g>
			</g>
			<g>
				<path class="st9" d="M627.1,235.8c-11.7,0-21.3,9.5-21.3,21.3h3c0-10.1,8.2-18.3,18.3-18.3c10.1,0,18.3,8.2,18.3,18.3h3
					C648.4,245.3,638.9,235.8,627.1,235.8z"/>
				<path class="st4" d="M642.1,242c3.8,3.8,6.2,9.2,6.2,15h-3c0-5.1-2.1-9.6-5.4-12.9L642.1,242z"/>
				
					<rect x="640.2" y="239.4" transform="matrix(0.7071 0.7071 -0.7071 0.7071 359.5152 -382.5682)" class="st5" width="2.8" height="6.7"/>
				<path class="st9" d="M628.8,256.1l13-13c0.2-0.2,0.2-0.5,0-0.7c-0.2-0.2-0.5-0.2-0.7,0l-13,13c-0.9-0.5-2-0.3-2.6,0.7
					c-0.4,0.6-0.4,1.4,0,2c0.7,1.1,2.1,1.2,3,0.4C629.2,257.8,629.3,256.8,628.8,256.1z M626.5,257.7c-0.4-0.4-0.4-1,0-1.4
					s1-0.4,1.4,0c0.4,0.4,0.4,1,0,1.4C627.5,258.1,626.9,258.1,626.5,257.7z"/>
			</g>
			<g>
				<path class="st9" d="M623.4,225.5l-0.9,0.4c-0.1,0-0.2,0-0.2-0.1l-0.1-0.4c0-0.1,0-0.2,0-0.2l1.6-1.4h0.5c0.1,0,0.2,0.1,0.2,0.2
					v7c0,0.1-0.1,0.2-0.2,0.2h-0.7c-0.1,0-0.2-0.1-0.2-0.2V225.5z"/>
				<path class="st9" d="M627.5,227.5L627.5,227.5c-0.5-0.3-1.1-0.9-1.1-1.7c0-1.2,1-2,2.3-2c1.4,0,2.3,0.8,2.3,2
					c0,0.8-0.7,1.5-1.1,1.7v0c0.5,0.2,1.3,0.9,1.3,1.8c0,1.2-1,2.1-2.6,2.1c-1.5,0-2.5-0.9-2.5-2.1
					C626.1,228.3,627.1,227.6,627.5,227.5z M628.7,230.5c0.8,0,1.4-0.5,1.4-1.2c0-0.6-0.5-1.2-1.4-1.3c-0.9,0.1-1.4,0.7-1.4,1.3
					C627.3,230,627.9,230.5,628.7,230.5z M629.9,225.8c0-0.7-0.5-1.2-1.3-1.2c-0.7,0-1.2,0.5-1.2,1.2c0,0.6,0.4,1,1.2,1.2
					C629.5,226.8,629.9,226.3,629.9,225.8z"/>
			</g>
		</g>
		<g>
			<g>
				<g>
					<g>
						<path class="st5" d="M662.8,267c-0.6,0-1.1-0.5-1.1-1.1v-59.8c0-0.6,0.5-1.1,1.1-1.1h59.8c0.6,0,1.1,0.5,1.1,1.1v59.8
							c0,0.6-0.5,1.1-1.1,1.1H662.8z"/>
					</g>
					<g>
						<path class="st6" d="M722.7,205.4c0.4,0,0.7,0.3,0.7,0.7v59.8c0,0.4-0.3,0.7-0.7,0.7h-59.8c-0.4,0-0.7-0.3-0.7-0.7v-59.8
							c0-0.4,0.3-0.7,0.7-0.7H722.7 M722.7,204.6h-59.8c-0.8,0-1.5,0.7-1.5,1.5v59.8c0,0.8,0.7,1.5,1.5,1.5h59.8
							c0.8,0,1.5-0.7,1.5-1.5v-59.8C724.1,205.3,723.5,204.6,722.7,204.6L722.7,204.6z"/>
					</g>
				</g>
				<g>
					<path class="st7" d="M723.4,215.8h-61.3v-8.5c0-1.1,0.9-2,2-2h57.3c1.1,0,2,0.9,2,2V215.8z"/>
				</g>
				<g class="st16">
					<path class="st9" d="M686.2,211.3H666c-0.3,0-0.6-0.3-0.6-0.6v-0.3c0-0.3,0.3-0.6,0.6-0.6h20.2c0.3,0,0.6,0.3,0.6,0.6v0.3
						C686.8,211.1,686.5,211.3,686.2,211.3z"/>
				</g>
			</g>
			<g>
				<path class="st9" d="M668.4,234.2c1.3-1.5,3.2-3.7,4.5-5.3c0.9-1,1.3-1.9,1.3-2.6c0-0.9-0.6-1.9-2.2-1.9c-1,0-1.8,0.7-2.3,1.2
					c-0.1,0.1-0.3,0.1-0.5,0l-0.6-0.6c-0.1-0.1-0.1-0.3,0-0.5c0,0,1.3-1.7,3.4-1.7c2.5,0,3.9,1.6,3.9,3.5c0,1.4-0.7,2.3-1.7,3.5
					c-0.9,1.1-2.2,2.6-3.2,3.8h4.5c0.2,0,0.3,0.2,0.3,0.3v0.9c0,0.2-0.2,0.3-0.3,0.3h-6.9c-0.2,0-0.3-0.2-0.3-0.3V234.2z"/>
				<path class="st9" d="M679.1,232.7c0.7,0,1.5,0.4,1.5,2c0,1.8-1.1,3.1-1.8,3.6c-0.2,0.1-0.3,0.1-0.4,0l-0.3-0.3
					c-0.1-0.1-0.1-0.3,0.1-0.4c0.2-0.2,1.3-1,1.3-2.4c0,0-0.2,0.1-0.4,0.1c-0.7,0-1.2-0.5-1.2-1.2
					C677.8,233.3,678.4,232.7,679.1,232.7z"/>
				<path class="st9" d="M683.5,233.8c0.8-0.3,3.7-1.7,4.2-3.9c-0.2,0.1-1.2,0.6-2.4,0.6c-1.9,0-3.7-1.4-3.7-3.9
					c0-2.2,1.8-4.1,4-4.1c2.8,0,4.2,2.2,4.2,5c0,5-4.2,7-5.9,7.7c-0.2,0.1-0.4,0-0.4-0.2l-0.3-0.7
					C683.1,234.1,683.2,234,683.5,233.8z M688.1,227.8c0.2-1.5-0.5-3.5-2.5-3.5c-1.3,0-2.3,1.1-2.3,2.4c0,1.4,1,2.4,2.4,2.4
					C687.1,229.1,688,228.1,688.1,227.8z"/>
				<path class="st9" d="M693.8,228.8L693.8,228.8c-0.8-0.4-1.8-1.4-1.8-2.8c0-2,1.6-3.3,3.8-3.3c2.2,0,3.8,1.3,3.8,3.3
					c0,1.4-1.1,2.3-1.8,2.7v0.1c0.8,0.4,2.1,1.4,2.1,3c0,1.9-1.6,3.4-4.1,3.4c-2.5,0-4.1-1.5-4.1-3.4
					C691.6,230.2,693.1,229.1,693.8,228.8z M695.7,233.8c1.3,0,2.3-0.7,2.3-1.9c0-0.9-0.8-1.9-2.3-2.1c-1.4,0.2-2.3,1.2-2.3,2.1
					C693.5,233,694.5,233.8,695.7,233.8z M697.7,226.1c0-1.1-0.9-1.9-2-1.9c-1.1,0-1.9,0.8-1.9,1.9c0,1,0.6,1.7,2,1.9
					C697.1,227.8,697.7,227,697.7,226.1z"/>
				<path class="st9" d="M701.6,233.2l0.7-0.6c0.2-0.1,0.3-0.1,0.5,0c0.1,0.1,1.1,1.1,2.4,1.1c1.2,0,2.2-0.7,2.2-1.9
					c0-1.1-0.9-2.1-2.8-2.1h-1c-0.2,0-0.3-0.1-0.3-0.4v-0.8c0-0.3,0.1-0.4,0.4-0.4h1c1.7,0,2.5-0.9,2.5-1.9c0-1.2-1-1.9-2-1.9
					c-1.1,0-1.7,0.6-2.1,1c-0.1,0.1-0.3,0.2-0.5,0l-0.7-0.6c-0.1-0.1-0.1-0.3,0-0.5c0,0,1.4-1.6,3.3-1.6c2.1,0,3.7,1.3,3.7,3.3
					c0,1.4-1,2.4-1.8,2.8v0.1c0.8,0.4,2.1,1.4,2.1,2.9c0,1.9-1.6,3.4-4,3.4c-2.2,0-3.2-1.1-3.6-1.6
					C701.5,233.5,701.5,233.3,701.6,233.2z"/>
			</g>
			<path class="st4" d="M722.4,266.7h-59.3c-0.6,0-1-0.4-1-1v-1.2h61.3v1.2C723.4,266.2,723,266.7,722.4,266.7z"/>
			<g>
				<path class="st4" d="M668.5,253.8l-0.9,0.4c-0.1,0-0.2,0-0.2-0.1l-0.1-0.4c0-0.1,0-0.2,0-0.2l1.5-1.4h0.5c0.1,0,0.2,0.1,0.2,0.2
					v6.9c0,0.1-0.1,0.2-0.2,0.2h-0.7c-0.1,0-0.2-0.1-0.2-0.2V253.8z"/>
				<path class="st4" d="M671.3,255.8c0-2.3,1-3.7,2.6-3.7c1.7,0,2.6,1.4,2.6,3.7s-1,3.7-2.6,3.7
					C672.2,259.5,671.3,258.1,671.3,255.8z M675.5,255.8c0-1.8-0.6-2.8-1.6-2.8c-1,0-1.6,1-1.6,2.8c0,1.8,0.6,2.8,1.6,2.8
					C674.9,258.5,675.5,257.5,675.5,255.8z"/>
				<path class="st4" d="M679.2,255.7L679.2,255.7c-0.5-0.3-1.1-0.9-1.1-1.7c0-1.2,1-2,2.3-2c1.3,0,2.3,0.8,2.3,2
					c0,0.8-0.6,1.4-1.1,1.6v0c0.5,0.2,1.3,0.9,1.3,1.8c0,1.2-0.9,2.1-2.5,2.1c-1.5,0-2.4-0.9-2.4-2.1
					C677.9,256.5,678.8,255.9,679.2,255.7z M680.3,258.6c0.8,0,1.4-0.4,1.4-1.2c0-0.6-0.5-1.2-1.4-1.3c-0.9,0.1-1.4,0.7-1.4,1.3
					C679,258.2,679.6,258.6,680.3,258.6z M681.5,254c0-0.7-0.5-1.1-1.2-1.1c-0.6,0-1.2,0.5-1.2,1.1c0,0.6,0.4,1,1.2,1.1
					C681.2,255,681.5,254.6,681.5,254z"/>
				<path class="st4" d="M683.6,254.8c0-0.6,0.5-1.1,1.1-1.1c0.6,0,1.1,0.5,1.1,1.1s-0.5,1.1-1.1,1.1
					C684.1,255.9,683.6,255.4,683.6,254.8z M685.2,254.8c0-0.3-0.2-0.5-0.5-0.5c-0.3,0-0.5,0.2-0.5,0.5c0,0.3,0.2,0.5,0.5,0.5
					C685,255.3,685.2,255.1,685.2,254.8z M687.1,253.9c0,0,0.1-0.1,0.1-0.1h0.3c0.1,0,0.2,0.1,0.1,0.2l-2.8,5.3c0,0-0.1,0.1-0.1,0.1
					h-0.2c-0.1,0-0.2-0.1-0.1-0.2L687.1,253.9z M687.3,257.3c0.6,0,1.1,0.5,1.1,1.1c0,0.6-0.5,1.1-1.1,1.1c-0.6,0-1.1-0.5-1.1-1.1
					C686.2,257.8,686.7,257.3,687.3,257.3z M687.3,258.9c0.3,0,0.5-0.2,0.5-0.5c0-0.3-0.2-0.5-0.5-0.5c-0.3,0-0.5,0.2-0.5,0.5
					C686.8,258.7,687,258.9,687.3,258.9z"/>
			</g>
			<path class="st4" d="M717.8,259.5h-13.7c-0.6,0-1-0.4-1-1v-4.6c0-0.6,0.4-1,1-1h13.7c0.6,0,1,0.4,1,1v4.6
				C718.8,259.1,718.3,259.5,717.8,259.5z"/>
			<g>
				<path class="st5" d="M705,257.7c0.4-0.4,0.9-1.1,1.3-1.5c0.3-0.3,0.4-0.5,0.4-0.8c0-0.3-0.2-0.6-0.6-0.6c-0.3,0-0.5,0.2-0.7,0.3
					c0,0-0.1,0-0.1,0l-0.2-0.2c0,0,0-0.1,0-0.1c0,0,0.4-0.5,1-0.5c0.7,0,1.1,0.5,1.1,1c0,0.4-0.2,0.7-0.5,1
					c-0.3,0.3-0.6,0.8-0.9,1.1h1.3c0.1,0,0.1,0,0.1,0.1v0.2c0,0.1,0,0.1-0.1,0.1h-2c-0.1,0-0.1,0-0.1-0.1V257.7z"/>
				<path class="st5" d="M708.1,257.2c0.2,0,0.4,0.1,0.4,0.6c0,0.5-0.3,0.9-0.5,1c0,0-0.1,0-0.1,0l-0.1-0.1c0,0,0-0.1,0-0.1
					c0.1-0.1,0.4-0.3,0.4-0.7c0,0-0.1,0-0.1,0c-0.2,0-0.4-0.2-0.4-0.4C707.7,257.4,707.9,257.2,708.1,257.2z"/>
				<path class="st5" d="M709.1,257.7l1.4-2.9H709c-0.1,0-0.1,0-0.1-0.1v-0.3c0-0.1,0-0.1,0.1-0.1h2.1c0.1,0,0.1,0,0.1,0.1v0
					l-1.5,3.2c0,0.1-0.1,0.1-0.2,0.1h-0.2C709.2,257.9,709.1,257.8,709.1,257.7L709.1,257.7z"/>
				<path class="st5" d="M711.5,257.3c0.1-0.1,0.1-0.1,0.2-0.2c0,0,0.1,0,0.1,0c0,0,0.3,0.3,0.7,0.3c0.4,0,0.7-0.4,0.7-0.7
					c0-0.4-0.2-0.7-0.7-0.7h-0.8c-0.1,0-0.2-0.1-0.2-0.2v-1.4c0-0.1,0-0.1,0.1-0.1h1.6c0.1,0,0.1,0,0.1,0.1v0.3c0,0.1,0,0.1-0.1,0.1
					h-1.2v0.8h0.5c0.8,0,1.2,0.4,1.2,1.1c0,0.6-0.5,1.2-1.2,1.2c-0.6,0-0.9-0.3-1-0.4C711.5,257.4,711.5,257.4,711.5,257.3z"/>
				<path class="st5" d="M714.3,256.1c0-1.1,0.5-1.8,1.3-1.8c0.8,0,1.3,0.7,1.3,1.8c0,1.1-0.5,1.8-1.3,1.8
					C714.8,257.9,714.3,257.3,714.3,256.1z M716.3,256.1c0-0.8-0.3-1.3-0.8-1.3c-0.5,0-0.8,0.5-0.8,1.3c0,0.9,0.3,1.3,0.8,1.3
					C716.1,257.5,716.3,257,716.3,256.1z"/>
			</g>
		</g>
		<g>
			<g>
				<g>
					<g>
						<path class="st5" d="M727.9,267c-0.6,0-1.1-0.5-1.1-1.1v-59.8c0-0.6,0.5-1.1,1.1-1.1h59.8c0.6,0,1.1,0.5,1.1,1.1v59.8
							c0,0.6-0.5,1.1-1.1,1.1H727.9z"/>
					</g>
					<g>
						<path class="st6" d="M787.7,205.4c0.4,0,0.7,0.3,0.7,0.7v59.8c0,0.4-0.3,0.7-0.7,0.7h-59.8c-0.4,0-0.7-0.3-0.7-0.7v-59.8
							c0-0.4,0.3-0.7,0.7-0.7H787.7 M787.7,204.6h-59.8c-0.8,0-1.5,0.7-1.5,1.5v59.8c0,0.8,0.7,1.5,1.5,1.5h59.8
							c0.8,0,1.5-0.7,1.5-1.5v-59.8C789.2,205.3,788.5,204.6,787.7,204.6L787.7,204.6z"/>
					</g>
				</g>
				<g>
					<path class="st7" d="M788.4,215.8h-61.3v-8.5c0-1.1,0.9-2,2-2h57.3c1.1,0,2,0.9,2,2V215.8z"/>
				</g>
				<g class="st16">
					<path class="st9" d="M751.2,211.3h-20.2c-0.3,0-0.6-0.3-0.6-0.6v-0.3c0-0.3,0.3-0.6,0.6-0.6h20.2c0.3,0,0.6,0.3,0.6,0.6v0.3
						C751.8,211.1,751.5,211.3,751.2,211.3z"/>
				</g>
			</g>
			<g>
				<path class="st9" d="M733.6,234.2c1.3-1.5,3.2-3.8,4.5-5.3c0.9-1,1.4-1.9,1.4-2.6c0-0.9-0.6-1.9-2.2-1.9c-1,0-1.8,0.7-2.3,1.2
					c-0.1,0.1-0.3,0.1-0.5,0l-0.6-0.6c-0.1-0.1-0.1-0.3,0-0.5c0,0,1.3-1.8,3.5-1.8c2.6,0,3.9,1.6,3.9,3.5c0,1.4-0.8,2.3-1.7,3.5
					c-0.9,1.1-2.2,2.6-3.3,3.8h4.6c0.2,0,0.3,0.2,0.3,0.3v0.9c0,0.2-0.2,0.3-0.3,0.3h-6.9c-0.2,0-0.3-0.2-0.3-0.3V234.2z"/>
				<path class="st9" d="M744.3,232.7c0.7,0,1.5,0.4,1.5,2c0,1.8-1.1,3.1-1.8,3.6c-0.2,0.1-0.3,0.1-0.4,0l-0.3-0.3
					c-0.1-0.1-0.1-0.3,0.1-0.4c0.2-0.2,1.3-1,1.3-2.4c0,0-0.2,0.1-0.4,0.1c-0.7,0-1.2-0.6-1.2-1.2
					C743,233.3,743.6,232.7,744.3,232.7z"/>
				<path class="st9" d="M747.4,228.9c0-3.9,1.6-6.3,4.4-6.3c2.8,0,4.4,2.3,4.4,6.3c0,3.9-1.6,6.3-4.4,6.3
					C749.1,235.2,747.4,232.8,747.4,228.9z M754.5,228.9c0-2.9-0.9-4.6-2.6-4.6c-1.7,0-2.6,1.7-2.6,4.6c0,3,0.9,4.6,2.6,4.6
					C753.5,233.5,754.5,231.9,754.5,228.9z"/>
				<path class="st9" d="M758.6,234.5l4.8-10h-5.3c-0.2,0-0.3-0.2-0.3-0.3v-0.9c0-0.2,0.2-0.3,0.3-0.3h7.3c0.2,0,0.3,0.2,0.3,0.3
					v0.1l-5.3,11.2c-0.2,0.4-0.3,0.5-0.7,0.5h-0.8c-0.2,0-0.4-0.2-0.4-0.3V234.5z"/>
				<path class="st9" d="M769.1,228.8L769.1,228.8c-0.8-0.4-1.8-1.4-1.8-2.8c0-2,1.6-3.3,3.8-3.3c2.2,0,3.8,1.3,3.8,3.3
					c0,1.4-1.1,2.4-1.8,2.8v0.1c0.8,0.4,2.2,1.4,2.2,3c0,2-1.6,3.4-4.2,3.4c-2.5,0-4.1-1.5-4.1-3.4
					C766.9,230.2,768.4,229.1,769.1,228.8z M771,233.7c1.3,0,2.3-0.8,2.3-1.9c0-0.9-0.8-1.9-2.3-2.1c-1.4,0.2-2.3,1.2-2.3,2.1
					C768.8,233,769.8,233.7,771,233.7z M773,226c0-1.1-0.9-1.9-2.1-1.9c-1.1,0-1.9,0.8-1.9,1.9c0,1,0.6,1.7,2,1.9
					C772.4,227.7,773,226.9,773,226z"/>
			</g>
			<polyline class="st10" points="733.9,243.3 739.9,245.6 745.4,258.3 751.4,256.6 757.1,243.3 763.1,242.6 768.7,244 			"/>
		</g>
		<g>
			<g>
				<g>
					<g>
						<path class="st5" d="M792.9,267c-0.6,0-1.1-0.5-1.1-1.1v-59.8c0-0.6,0.5-1.1,1.1-1.1h59.8c0.6,0,1.1,0.5,1.1,1.1v59.8
							c0,0.6-0.5,1.1-1.1,1.1H792.9z"/>
					</g>
					<g>
						<path class="st6" d="M852.7,205.4c0.4,0,0.7,0.3,0.7,0.7v59.8c0,0.4-0.3,0.7-0.7,0.7h-59.8c-0.4,0-0.7-0.3-0.7-0.7v-59.8
							c0-0.4,0.3-0.7,0.7-0.7H852.7 M852.7,204.6h-59.8c-0.8,0-1.5,0.7-1.5,1.5v59.8c0,0.8,0.7,1.5,1.5,1.5h59.8
							c0.8,0,1.5-0.7,1.5-1.5v-59.8C854.2,205.3,853.6,204.6,852.7,204.6L852.7,204.6z"/>
					</g>
				</g>
				<g>
					<path class="st7" d="M853.5,215.8h-61.3v-8.5c0-1.1,0.9-2,2-2h57.3c1.1,0,2,0.9,2,2V215.8z"/>
				</g>
				<g class="st16">
					<path class="st9" d="M816.3,211.3h-20.2c-0.3,0-0.6-0.3-0.6-0.6v-0.3c0-0.3,0.3-0.6,0.6-0.6h20.2c0.3,0,0.6,0.3,0.6,0.6v0.3
						C816.8,211.1,816.6,211.3,816.3,211.3z"/>
				</g>
			</g>
			<path class="st9" d="M841.9,224.7h-43.3c-0.3,0-0.6-0.3-0.6-0.6v-0.3c0-0.3,0.3-0.6,0.6-0.6h43.3c0.3,0,0.6,0.3,0.6,0.6v0.3
				C842.4,224.4,842.2,224.7,841.9,224.7z"/>
			<path class="st8" d="M819.7,228.5h-21.2c-0.3,0-0.6-0.3-0.6-0.6v-0.3c0-0.3,0.3-0.6,0.6-0.6h21.2c0.3,0,0.6,0.3,0.6,0.6v0.3
				C820.3,228.3,820,228.5,819.7,228.5z"/>
			<path class="st9" d="M828.4,237.2h-29.9c-0.3,0-0.6-0.3-0.6-0.6v-0.3c0-0.3,0.3-0.6,0.6-0.6h29.9c0.3,0,0.6,0.3,0.6,0.6v0.3
				C829,236.9,828.7,237.2,828.4,237.2z"/>
			<path class="st8" d="M813,241h-14.4c-0.3,0-0.6-0.3-0.6-0.6v-0.3c0-0.3,0.3-0.6,0.6-0.6H813c0.3,0,0.6,0.3,0.6,0.6v0.3
				C813.6,240.8,813.3,241,813,241z"/>
			<path class="st9" d="M837.4,249.8h-38.8c-0.3,0-0.6-0.3-0.6-0.6v-0.3c0-0.3,0.3-0.6,0.6-0.6h38.8c0.3,0,0.6,0.3,0.6,0.6v0.3
				C837.9,249.5,837.7,249.8,837.4,249.8z"/>
			<path class="st8" d="M827.9,253.6h-30v-1.5h30c0.3,0,0.6,0.3,0.6,0.6v0.3C828.5,253.3,828.3,253.6,827.9,253.6z"/>
		</g>
		<g>
			<g>
				<g>
					<g>
						<path class="st5" d="M858,267c-0.6,0-1.1-0.5-1.1-1.1V141.5c0-0.6,0.5-1.1,1.1-1.1h59.8c0.6,0,1.1,0.5,1.1,1.1v124.4
							c0,0.6-0.5,1.1-1.1,1.1H858z"/>
					</g>
					<g>
						<path class="st6" d="M917.8,140.8c0.4,0,0.7,0.3,0.7,0.7v124.4c0,0.4-0.3,0.7-0.7,0.7H858c-0.4,0-0.7-0.3-0.7-0.7V141.5
							c0-0.4,0.3-0.7,0.7-0.7H917.8 M917.8,140.1H858c-0.8,0-1.5,0.7-1.5,1.5v124.4c0,0.8,0.7,1.5,1.5,1.5h59.8
							c0.8,0,1.5-0.7,1.5-1.5V141.5C919.3,140.7,918.6,140.1,917.8,140.1L917.8,140.1z"/>
					</g>
				</g>
				<g>
					<path class="st7" d="M918.5,151.3h-61.3v-8.5c0-1.1,0.9-2,2-2h57.3c1.1,0,2,0.9,2,2V151.3z"/>
				</g>
				<g class="st16">
					<path class="st9" d="M881.3,146.8h-20.2c-0.3,0-0.6-0.3-0.6-0.6v-0.3c0-0.3,0.3-0.6,0.6-0.6h20.2c0.3,0,0.6,0.3,0.6,0.6v0.3
						C881.9,146.5,881.6,146.8,881.3,146.8z"/>
				</g>
			</g>
			<path class="st9" d="M894.6,159.7h-31.4c-0.3,0-0.6-0.3-0.6-0.6v-0.3c0-0.3,0.3-0.6,0.6-0.6h31.4c0.3,0,0.6,0.3,0.6,0.6v0.3
				C895.2,159.5,894.9,159.7,894.6,159.7z"/>
			<path class="st8" d="M884.4,163.5h-21.2c-0.3,0-0.6-0.3-0.6-0.6v-0.3c0-0.3,0.3-0.6,0.6-0.6h21.2c0.3,0,0.6,0.3,0.6,0.6v0.3
				C885,163.3,884.8,163.5,884.4,163.5z"/>
			<path class="st9" d="M893.1,172.2h-29.9c-0.3,0-0.6-0.3-0.6-0.6v-0.3c0-0.3,0.3-0.6,0.6-0.6h29.9c0.3,0,0.6,0.3,0.6,0.6v0.3
				C893.7,172,893.5,172.2,893.1,172.2z"/>
			<path class="st8" d="M877.7,176h-14.4c-0.3,0-0.6-0.3-0.6-0.6v-0.3c0-0.3,0.3-0.6,0.6-0.6h14.4c0.3,0,0.6,0.3,0.6,0.6v0.3
				C878.3,175.8,878,176,877.7,176z"/>
			<path class="st9" d="M902.1,184.8h-38.8c-0.3,0-0.6-0.3-0.6-0.6v-0.3c0-0.3,0.3-0.6,0.6-0.6h38.8c0.3,0,0.6,0.3,0.6,0.6v0.3
				C902.7,184.6,902.4,184.8,902.1,184.8z"/>
			<path class="st8" d="M892.7,188.6h-30v-1.5h30c0.3,0,0.6,0.3,0.6,0.6v0.3C893.2,188.4,893,188.6,892.7,188.6z"/>
			<path class="st9" d="M906.7,198.4h-43.3c-0.3,0-0.6-0.3-0.6-0.6v-0.3c0-0.3,0.3-0.6,0.6-0.6h43.3c0.3,0,0.6,0.3,0.6,0.6v0.3
				C907.2,198.1,907,198.4,906.7,198.4z"/>
			<path class="st8" d="M884.5,202.2h-21.2c-0.3,0-0.6-0.3-0.6-0.6v-0.3c0-0.3,0.3-0.6,0.6-0.6h21.2c0.3,0,0.6,0.3,0.6,0.6v0.3
				C885.1,201.9,884.8,202.2,884.5,202.2z"/>
			<path class="st9" d="M893.2,210.9h-29.9c-0.3,0-0.6-0.3-0.6-0.6V210c0-0.3,0.3-0.6,0.6-0.6h29.9c0.3,0,0.6,0.3,0.6,0.6v0.3
				C893.8,210.6,893.5,210.9,893.2,210.9z"/>
			<path class="st8" d="M877.8,214.7h-14.4c-0.3,0-0.6-0.3-0.6-0.6v-0.3c0-0.3,0.3-0.6,0.6-0.6h14.4c0.3,0,0.6,0.3,0.6,0.6v0.3
				C878.4,214.4,878.1,214.7,877.8,214.7z"/>
			<path class="st9" d="M904.4,223.5h-41.1c-0.3,0-0.6-0.3-0.6-0.6v-0.3c0-0.3,0.3-0.6,0.6-0.6h41.1c0.3,0,0.6,0.3,0.6,0.6v0.3
				C905,223.2,904.7,223.5,904.4,223.5z"/>
			<path class="st8" d="M885.3,227.3h-22.5v-1.5h22.5c0.3,0,0.6,0.3,0.6,0.6v0.3C885.8,227,885.6,227.3,885.3,227.3z"/>
			<path class="st9" d="M897,237.2h-33.6c-0.3,0-0.6-0.3-0.6-0.6v-0.3c0-0.3,0.3-0.6,0.6-0.6H897c0.3,0,0.6,0.3,0.6,0.6v0.3
				C897.5,236.9,897.3,237.2,897,237.2z"/>
			<path class="st8" d="M885.3,241h-22.5v-1.5h22.5c0.3,0,0.6,0.3,0.6,0.6v0.3C885.8,240.8,885.6,241,885.3,241z"/>
		</g>
	</g>
</g>
<g>
	<g>
		<g>
			<path class="st22" d="M892.8,130.1c0.1,0,1.2,0,1.2,0V123c0,0-1.1,0-1.2,0c-0.1,0-0.2,0-0.2,0.2c0,0.1,0,6.5,0,6.7
				C892.6,130,892.7,130.1,892.8,130.1z"/>
			<path class="st22" d="M893.7,138.4c0,0-0.9,0-1.1,0c-0.2,0-0.3,0.1-0.3,0.3c0,0.2,0,12.4,0,12.7c0,0.2,0.2,0.3,0.3,0.3h1.2
				L893.7,138.4z"/>
			<path class="st22" d="M893.7,154.9c0,0-0.9,0-1.1,0c-0.2,0-0.3,0.1-0.3,0.3c0,0.2,0,12.4,0,12.7c0,0.2,0.2,0.3,0.3,0.3h1.2
				L893.7,154.9z"/>
			<path class="st22" d="M980.3,98.4h-72.2c-9.2,0-15,6.2-15,15v177.7c0,8.7,5.7,15,15,15h72.2c9.2,0,15-6.2,15-15V137.6v-24.2
				C995.3,104.7,989.6,98.4,980.3,98.4z"/>
			<path class="st22" d="M995.7,137.6c-0.2,0-1.3,0-1.3,0v13.3h1.3c0.1,0,0.3-0.1,0.3-0.3c0-0.2,0-12.5,0-12.7
				C996,137.8,995.9,137.6,995.7,137.6z"/>
		</g>
		<path class="st1" d="M992.7,107.6c-0.6-1.6-1.4-2.9-2.5-4c-2.3-2.4-5.6-3.6-9.5-3.6h-72.5c-3.9,0-7.2,1.2-9.5,3.6
			c-1.1,1.1-2,2.5-2.5,4c-0.6,1.6-0.9,3.4-0.9,5.3v178.5c0,1.9,0.3,3.7,0.9,5.3c0.6,1.6,1.4,2.9,2.5,4c2.3,2.4,5.6,3.6,9.5,3.6h72.5
			c3.9,0,7.2-1.2,9.5-3.6c1.1-1.1,2-2.5,2.5-4c0.6-1.6,0.9-3.4,0.9-5.3V113C993.6,111,993.3,109.3,992.7,107.6z"/>
		<rect x="898.4" y="119.9" class="st23" width="92" height="162"/>
		<path class="st24" d="M944.3,287.1c3.4,0,6.1,2.8,6.1,6.1c0,3.4-2.8,6.1-6.1,6.1c-3.4,0-6.1-2.8-6.1-6.1
			C938.1,289.8,940.9,287.1,944.3,287.1 M944.3,286.4c-3.8,0-6.8,3.1-6.8,6.8c0,3.8,3.1,6.8,6.8,6.8c3.8,0,6.8-3.1,6.8-6.8
			C951.1,289.5,948,286.4,944.3,286.4L944.3,286.4z"/>
		<g class="st25">
			<path class="st26" d="M944.4,103.3c0.6,0,1,0.5,1,1c0,0.6-0.5,1-1,1c-0.6,0-1-0.5-1-1C943.4,103.8,943.8,103.3,944.4,103.3z"/>
			<path class="st26" d="M929.3,109.7c0.5,0,0.9,0.4,0.9,0.9c0,0.5-0.4,0.9-0.9,0.9s-0.9-0.4-0.9-0.9
				C928.4,110.1,928.8,109.7,929.3,109.7z"/>
			<path d="M951.7,110.8c0,0.4-0.3,0.7-0.7,0.7h-13.4c-0.4,0-0.7-0.3-0.7-0.7l0,0c0-0.4,0.3-0.7,0.7-0.7H951
				C951.4,110,951.7,110.3,951.7,110.8L951.7,110.8z"/>
		</g>
	</g>
	<g>
		<defs>
			<rect id="SVGID_1_" x="898.4" y="119.9" width="92" height="162"/>
		</defs>
		<clipPath id="SVGID_2_">
			<use xlink:href="#SVGID_1_"  style="overflow:visible;"/>
		</clipPath>
		<g class="st27">
			<g>
				<rect x="898.5" y="119.9" class="st28" width="91.9" height="12"/>
				<path class="st9" d="M961.4,126.9h-33.7c-0.5,0-1-0.4-1-1l0,0c0-0.6,0.5-1,1-1h33.7c0.5,0,1,0.4,1,1l0,0
					C962.4,126.4,961.9,126.9,961.4,126.9z"/>
				<g class="st29">
					<rect x="902.4" y="123.8" class="st9" width="6" height="1"/>
					<rect x="902.4" y="125.3" class="st9" width="6" height="1"/>
					<rect x="902.4" y="126.9" class="st9" width="6" height="1"/>
				</g>
				<circle class="st30" cx="984" cy="125.8" r="2.5"/>
			</g>
			<g>
				<rect x="898.5" y="135" class="st31" width="91.9" height="44.4"/>
				<rect x="898.5" y="135" class="st32" width="91.9" height="11.1"/>
				<g>
					<path class="st9" d="M904.8,165.7c0.9-1,2.2-2.6,3.1-3.7c0.6-0.7,0.9-1.3,0.9-1.8c0-0.6-0.4-1.4-1.5-1.4
						c-0.7,0-1.2,0.5-1.6,0.8c-0.1,0.1-0.2,0.1-0.3,0l-0.4-0.4c-0.1-0.1-0.1-0.2,0-0.3c0,0,0.9-1.2,2.4-1.2c1.8,0,2.7,1.1,2.7,2.4
						c0,1-0.5,1.6-1.2,2.4c-0.7,0.8-1.5,1.8-2.3,2.7h3.2c0.1,0,0.2,0.1,0.2,0.2v0.6c0,0.1-0.1,0.2-0.2,0.2H905
						c-0.1,0-0.2-0.1-0.2-0.2V165.7z"/>
					<path class="st9" d="M911.3,165l0.5-0.5c0.1-0.1,0.2-0.1,0.3,0c0.1,0.1,0.8,0.8,1.7,0.8c0.8,0,1.6-0.5,1.6-1.3
						c0-0.7-0.6-1.5-2-1.5h-0.7c-0.1,0-0.2-0.1-0.2-0.3v-0.5c0-0.2,0.1-0.3,0.2-0.3h0.7c1.2,0,1.8-0.6,1.8-1.3
						c0-0.8-0.7-1.4-1.4-1.4c-0.7,0-1.2,0.4-1.4,0.7c-0.1,0.1-0.2,0.1-0.3,0l-0.5-0.4c-0.1-0.1-0.1-0.2,0-0.3c0,0,0.9-1.1,2.3-1.1
						c1.4,0,2.6,0.9,2.6,2.3c0,1-0.7,1.7-1.3,2v0c0.6,0.2,1.5,1,1.5,2.1c0,1.4-1.1,2.4-2.8,2.4c-1.5,0-2.3-0.8-2.6-1.1
						C911.2,165.2,911.2,165,911.3,165z"/>
					<path class="st9" d="M919.6,161.9L919.6,161.9c-0.5-0.3-1.3-1-1.3-2c0-1.4,1.1-2.3,2.6-2.3c1.5,0,2.7,0.9,2.7,2.3
						c0,1-0.7,1.6-1.3,1.9v0.1c0.6,0.3,1.5,1,1.5,2.1c0,1.4-1.1,2.4-2.9,2.4c-1.7,0-2.9-1-2.9-2.4
						C918.1,162.9,919.1,162.1,919.6,161.9z M920.9,165.4c0.9,0,1.6-0.5,1.6-1.4c0-0.7-0.6-1.3-1.6-1.5c-1,0.2-1.6,0.8-1.6,1.5
						C919.4,164.8,920.1,165.4,920.9,165.4z M922.3,160c0-0.8-0.6-1.3-1.4-1.3c-0.7,0-1.4,0.5-1.4,1.3c0,0.7,0.4,1.2,1.4,1.3
						C921.9,161.2,922.3,160.6,922.3,160z"/>
				</g>
				<path class="st33" d="M964.2,162.5c5,0,9.2,3.4,10.6,8l9.4-3.7c-2.8-8.5-10.6-14.3-19.9-14.3c-9.2,0-17.1,5.7-19.9,14.1l9.5,3.5
					C955.3,165.7,959.4,162.5,964.2,162.5z"/>
				<path class="st9" d="M962.9,170.7L962.9,170.7c-0.8-0.8-0.8-2,0-2.8l0,0c0.2-0.2,0.5-0.5,0.8-0.6l6.8-4.4
					c0.2-0.1,0.4,0.1,0.3,0.3l-4.4,6.8c-0.2,0.3-0.4,0.5-0.6,0.8l0,0C964.9,171.5,963.6,171.5,962.9,170.7z"/>
				<path class="st34" d="M935.8,141.5h-32c-0.6,0-1-0.4-1-1l0,0c0-0.6,0.4-1,1-1h32c0.6,0,1,0.4,1,1l0,0
					C936.8,141.1,936.3,141.5,935.8,141.5z"/>
			</g>
			<g>
				<g>
					<rect x="898.5" y="182.4" class="st31" width="91.9" height="53.6"/>
					<rect x="898.5" y="182.4" class="st32" width="91.9" height="11.1"/>
					<path class="st34" d="M935.8,188.9h-32c-0.6,0-1-0.4-1-1l0,0c0-0.6,0.4-1,1-1h32c0.6,0,1,0.4,1,1l0,0
						C936.8,188.5,936.3,188.9,935.8,188.9z"/>
				</g>
				<g>
					<rect x="902.8" y="217.3" class="st11" width="30.3" height="11.8"/>
					<rect x="933" y="217.3" class="st35" width="25.8" height="11.8"/>
					<rect x="958.8" y="217.3" class="st36" width="25.8" height="11.8"/>
					<rect x="902.8" y="222" class="st33" width="40.5" height="2.7"/>
					<rect x="943.3" y="222" class="st30" width="30.1" height="2.7"/>
					<rect x="951.2" y="219.3" class="st33" width="2" height="8"/>
					<path class="st34" d="M925.8,212h-22c-0.6,0-1-0.4-1-1l0,0c0-0.6,0.4-1,1-1h22c0.6,0,1,0.4,1,1l0,0
						C926.8,211.6,926.4,212,925.8,212z"/>
					<path class="st34" d="M937.8,207.9h-34c-0.6,0-1-0.5-1-1v0c0-0.5,0.4-1,1-1h34c0.5,0,1,0.4,1,1v0
						C938.8,207.4,938.4,207.9,937.8,207.9z"/>
				</g>
			</g>
			<g>
				<g>
					<rect x="898.5" y="239" class="st31" width="91.9" height="53.1"/>
					<rect x="898.5" y="239" class="st32" width="91.9" height="11.1"/>
					<path class="st34" d="M935.8,245.6h-32c-0.6,0-1-0.4-1-1l0,0c0-0.6,0.4-1,1-1h32c0.6,0,1,0.4,1,1l0,0
						C936.8,245.1,936.3,245.6,935.8,245.6z"/>
				</g>
				<g>
					<rect x="902.8" y="258.9" class="st37" width="48.9" height="8.6"/>
					<rect x="911.3" y="267.4" class="st38" width="40.5" height="8.6"/>
					<rect x="914.8" y="276" class="st39" width="36.9" height="8.6"/>
					<rect x="939.3" y="262.1" class="st9" width="10" height="2"/>
					<rect x="939.3" y="270.7" class="st9" width="10" height="2"/>
					<rect x="939.3" y="279.2" class="st9" width="10" height="2"/>
					<path class="st34" d="M975.5,264.1h-20c-0.6,0-1-0.4-1-1l0,0c0-0.6,0.4-1,1-1h20c0.6,0,1,0.4,1,1l0,0
						C976.5,263.7,976,264.1,975.5,264.1z"/>
					<path class="st34" d="M969.5,272.7h-14c-0.6,0-1-0.4-1-1l0,0c0-0.6,0.4-1,1-1h14c0.6,0,1,0.4,1,1l0,0
						C970.5,272.2,970,272.7,969.5,272.7z"/>
					<path class="st34" d="M965.5,281.2h-10c-0.6,0-1-0.4-1-1l0,0c0-0.6,0.4-1,1-1h10c0.6,0,1,0.4,1,1l0,0
						C966.5,280.8,966,281.2,965.5,281.2z"/>
				</g>
			</g>
		</g>
	</g>
</g>
</svg>
