<svg xmlns="http://www.w3.org/2000/svg" viewBox="0 0 126 114" enable-background="new 0 0 126 114"><path fill="#fff" d="M81.689 48.751v-8.311c0-10.306-8.383-18.69-18.687-18.69-10.306 0-18.69 8.384-18.69 18.69v8.311h7.167v-8.311c0-6.355 5.169-11.52 11.523-11.52 6.353 0 11.521 5.165 11.521 11.52v8.311h7.166z"/><path fill="#3B4251" d="M81.689 49.752h-7.167c-.553 0-1-.447-1-1v-8.312c0-5.801-4.72-10.52-10.521-10.52-5.803 0-10.523 4.719-10.523 10.52v8.312c0 .553-.447 1-1 1h-7.166c-.552 0-1-.447-1-1v-8.312c0-10.857 8.833-19.69 19.689-19.69 10.855 0 19.688 8.833 19.688 19.69v8.312c0 .552-.447 1-1 1zm-6.167-2h5.167v-7.312c0-9.754-7.935-17.69-17.688-17.69-9.754 0-17.689 7.936-17.689 17.69v7.312h5.166v-7.312c0-6.903 5.618-12.52 12.523-12.52 6.904 0 12.521 5.617 12.521 12.52v7.312z"/><path fill="#8CC640" d="M82.109 93.25h-38.218c-3.462 0-6.278-2.816-6.278-6.279v-38.219c0-.828.671-1.5 1.5-1.5h47.774c.828 0 1.5.672 1.5 1.5v38.218c0 3.463-2.816 6.28-6.278 6.28zm-41.496-42.998v36.718c0 1.809 1.471 3.279 3.278 3.279h38.218c1.808 0 3.278-1.471 3.278-3.279v-36.718h-44.774zm24.895 32.623h-5.016c-.828 0-1.5-.672-1.5-1.5v-12.61c-1.445-1.191-2.286-2.948-2.286-4.849 0-3.47 2.822-6.292 6.292-6.292 3.471 0 6.295 2.822 6.295 6.292 0 1.9-.841 3.657-2.285 4.849v12.609c0 .829-.672 1.501-1.5 1.501zm-3.515-3h2.016v-11.876c0-.52.269-1.002.71-1.275.986-.61 1.575-1.66 1.575-2.807 0-1.815-1.479-3.292-3.295-3.292-1.815 0-3.292 1.477-3.292 3.292 0 1.146.589 2.196 1.576 2.807.441.273.71.756.71 1.275v11.876z"/></svg>