<?xml version="1.0" encoding="utf-8"?>
<!-- Generator: Adobe Illustrator 18.0.0, SVG Export Plug-In . SVG Version: 6.00 Build 0)  -->
<!DOCTYPE svg PUBLIC "-//W3C//DTD SVG 1.1//EN" "http://www.w3.org/Graphics/SVG/1.1/DTD/svg11.dtd">
<svg version="1.1" id="Layer_2" xmlns="http://www.w3.org/2000/svg" xmlns:xlink="http://www.w3.org/1999/xlink" x="0px" y="0px"
	 viewBox="0 0 482 66" enable-background="new 0 0 482 66" xml:space="preserve">
<g>
	
		<circle opacity="0.75" fill="none" stroke="#3C4352" stroke-width="3" stroke-miterlimit="10" enable-background="new    " cx="33.2" cy="33.1" r="30.5"/>
	<g>
		<g>
			<path fill="#8BC541" d="M33.4,54.9c-12.3,0-22.3-10-22.3-22.3s10-22.3,22.3-22.3s22.3,10,22.3,22.3S45.6,54.9,33.4,54.9z
				 M33.4,12.4c-11.2,0-20.3,9.1-20.3,20.3S22.3,53,33.4,53s20.3-9.1,20.3-20.3S44.6,12.4,33.4,12.4z"/>
		</g>
	</g>
	<g>
		<circle fill="#8BC541" cx="74.5" cy="33.5" r="3.1"/>
		<circle fill="#8BC541" cx="85.3" cy="33.5" r="3.1"/>
		<circle fill="#8BC541" cx="96.8" cy="33.5" r="3.1"/>
	</g>
	<g>
		<path fill="#8BC541" d="M137.4,55.2c-12.3,0-22.3-10-22.3-22.3s10-22.3,22.3-22.3s22.3,10,22.3,22.3S149.7,55.2,137.4,55.2z
			 M137.4,12.7c-11.2,0-20.3,9.1-20.3,20.3s9.1,20.3,20.3,20.3s20.3-9.1,20.3-20.3S148.6,12.7,137.4,12.7z"/>
	</g>
	
		<circle opacity="0.76" fill="none" stroke="#3C4352" stroke-width="3" stroke-miterlimit="10" enable-background="new    " cx="137.3" cy="33.3" r="30.5"/>
	<g>
		<circle fill="#8BC541" cx="178.4" cy="32.8" r="3.1"/>
		<circle fill="#8BC541" cx="189.4" cy="32.8" r="3.1"/>
		<circle fill="#8BC541" cx="200.8" cy="32.8" r="3.1"/>
	</g>
	<g>
		<g>
			<path fill="#8BC541" d="M242,55.5c-12.3,0-22.3-10-22.3-22.3S229.7,11,242,11s22.3,10,22.3,22.3S254.3,55.5,242,55.5z M242,13
				c-11.2,0-20.3,9.1-20.3,20.3s9.1,20.3,20.3,20.3s20.3-9.1,20.3-20.3S253.2,13,242,13z"/>
		</g>
		
			<circle opacity="0.75" fill="none" stroke="#3C4352" stroke-width="3" stroke-miterlimit="10" enable-background="new    " cx="242.1" cy="33.3" r="30.5"/>
	</g>
	<g>
		<circle fill="#8BC541" cx="281.7" cy="32.8" r="3.1"/>
		<circle fill="#8BC541" cx="292.7" cy="32.8" r="3.1"/>
		<circle fill="#8BC541" cx="304.1" cy="32.8" r="3.1"/>
	</g>
	<g>
		<g>
			<path fill="#8BC541" d="M345.6,55.5c-12.3,0-22.3-10-22.3-22.3s10-22.3,22.3-22.3s22.3,10,22.3,22.3S357.8,55.5,345.6,55.5z
				 M345.6,13c-11.2,0-20.3,9.1-20.3,20.3s9.1,20.3,20.3,20.3c11.2,0,20.3-9.1,20.3-20.3S356.8,13,345.6,13z"/>
		</g>
		
			<circle opacity="0.75" fill="none" stroke="#3C4352" stroke-width="3" stroke-miterlimit="10" enable-background="new    " cx="345.4" cy="33.3" r="30.5"/>
	</g>
	<g>
		<g>
			<path fill="#8BC541" d="M448.7,55.4c-12.3,0-22.3-10-22.3-22.3s10-22.3,22.3-22.3s22.3,10,22.3,22.3S461,55.4,448.7,55.4z
				 M448.7,12.9c-11.2,0-20.3,9.1-20.3,20.3s9.1,20.3,20.3,20.3c11.2,0,20.3-9.1,20.3-20.3S459.9,12.9,448.7,12.9z"/>
		</g>
		
			<circle opacity="0.75" fill="none" stroke="#3C4352" stroke-width="3" stroke-miterlimit="10" enable-background="new    " cx="448.7" cy="33.1" r="30.5"/>
	</g>
	<g>
		<circle fill="#8BC541" cx="385.8" cy="33.5" r="3.1"/>
		<circle fill="#8BC541" cx="396.8" cy="33.5" r="3.1"/>
		<circle fill="#8BC541" cx="408.2" cy="33.5" r="3.1"/>
	</g>
</g>
<g enable-background="new    ">
	<path fill="#3B4251" d="M232,35.5c0.5,0,0.9,0.4,0.9,0.9s-0.4,0.9-0.9,0.9s-0.9-0.4-0.9-0.9S231.5,35.5,232,35.5z"/>
	<path fill="#3B4251" d="M237.2,29.8c1,0,1.8,0.3,2.5,1c0.1,0.1,0.1,0.2,0,0.3l-0.6,0.7c-0.1,0.1-0.2,0.1-0.3,0
		c-0.4-0.4-1-0.6-1.6-0.6c-1.3,0-2.3,1.1-2.3,2.4c0,1.3,1,2.4,2.3,2.4c0.6,0,1.2-0.2,1.6-0.6c0.1-0.1,0.2-0.1,0.3,0l0.6,0.7
		c0.1,0.1,0.1,0.2,0,0.3c-0.7,0.7-1.6,1-2.5,1c-2.1,0-3.7-1.6-3.7-3.7S235.2,29.8,237.2,29.8z"/>
	<path fill="#3B4251" d="M240.7,36.1l0.4-0.6c0.1-0.1,0.3-0.1,0.4-0.1c0.1,0,0.9,0.6,1.6,0.6c0.5,0,0.9-0.4,0.9-0.8
		c0-0.5-0.4-0.9-1.3-1.2c-1-0.4-2-1-2-2.2c0-0.9,0.7-2,2.3-2c1.1,0,1.9,0.5,2.1,0.7c0.1,0.1,0.1,0.2,0.1,0.3l-0.4,0.6
		c-0.1,0.1-0.2,0.2-0.4,0.1c-0.1-0.1-0.9-0.6-1.4-0.6c-0.6,0-0.9,0.4-0.9,0.7c0,0.5,0.4,0.8,1.2,1.2c1,0.4,2.2,1,2.2,2.3
		c0,1.1-0.9,2.1-2.4,2.1c-1.3,0-2.1-0.6-2.3-0.8C240.7,36.4,240.6,36.3,240.7,36.1z"/>
	<path fill="#3B4251" d="M245.8,30.2c-0.1-0.1,0-0.3,0.2-0.3h1.1c0.1,0,0.2,0.1,0.2,0.1l2,4.5h0.1l2-4.5c0-0.1,0.1-0.1,0.2-0.1h1.1
		c0.2,0,0.2,0.1,0.2,0.3l-3.2,7c0,0.1-0.1,0.1-0.2,0.1h-0.1c-0.1,0-0.1-0.1-0.2-0.1L245.8,30.2z"/>
</g>
<g enable-background="new    ">
	<path fill="#3B4251" d="M332.1,35.5c0.5,0,0.9,0.4,0.9,0.9s-0.4,0.9-0.9,0.9s-0.9-0.4-0.9-0.9S331.6,35.5,332.1,35.5z"/>
	<path fill="#3B4251" d="M333.3,36.2l0.5-0.5c0.1-0.1,0.2-0.1,0.3,0c0.1,0.1,0.3,0.3,0.7,0.3c0.4,0,0.8-0.3,0.8-1v-4.9
		c0-0.1,0.1-0.2,0.2-0.2h1c0.1,0,0.2,0.1,0.2,0.2V35c0,1.4-1,2.3-2.2,2.3c-0.9,0-1.4-0.5-1.6-0.8C333.2,36.4,333.2,36.3,333.3,36.2z
		"/>
	<path fill="#3B4251" d="M338.3,36.1l0.4-0.6c0.1-0.1,0.3-0.1,0.4-0.1c0.1,0,0.9,0.6,1.6,0.6c0.5,0,0.9-0.4,0.9-0.8
		c0-0.5-0.4-0.9-1.3-1.2c-1-0.4-2-1-2-2.2c0-0.9,0.7-2,2.3-2c1.1,0,1.9,0.5,2.1,0.7c0.1,0.1,0.1,0.2,0.1,0.3l-0.4,0.6
		c-0.1,0.1-0.2,0.2-0.4,0.1c-0.1-0.1-0.9-0.6-1.4-0.6c-0.6,0-0.9,0.4-0.9,0.7c0,0.5,0.4,0.8,1.2,1.2c1,0.4,2.2,1,2.2,2.3
		c0,1.1-0.9,2.1-2.4,2.1c-1.3,0-2.1-0.6-2.3-0.8C338.2,36.4,338.2,36.3,338.3,36.1z"/>
	<path fill="#3B4251" d="M347.5,29.8c2.1,0,3.7,1.7,3.7,3.7s-1.7,3.7-3.7,3.7s-3.7-1.6-3.7-3.7S345.5,29.8,347.5,29.8z M347.5,35.9
		c1.3,0,2.4-1.1,2.4-2.4s-1.1-2.4-2.4-2.4s-2.4,1.1-2.4,2.4S346.2,35.9,347.5,35.9z"/>
	<path fill="#3B4251" d="M352.6,30c0-0.1,0.1-0.2,0.2-0.2h0.3l4.3,4.6h0v-4.3c0-0.1,0.1-0.2,0.2-0.2h1c0.1,0,0.2,0.1,0.2,0.2v7
		c0,0.1-0.1,0.2-0.2,0.2h-0.2l-4.3-4.8h0V37c0,0.1-0.1,0.2-0.2,0.2h-0.9c-0.1,0-0.2-0.1-0.2-0.2V30z"/>
</g>
<g enable-background="new    ">
	<path fill="#3B4251" d="M438.5,35.5c0.5,0,0.9,0.4,0.9,0.9s-0.4,0.9-0.9,0.9s-0.9-0.4-0.9-0.9S438,35.5,438.5,35.5z"/>
	<path fill="#3B4251" d="M442.2,33.4l-2.1-3.2c-0.1-0.1,0-0.3,0.2-0.3h1.2c0.1,0,0.1,0.1,0.2,0.1l1.3,2.2h0l1.3-2.2
		c0,0,0.1-0.1,0.2-0.1h1.2c0.2,0,0.3,0.2,0.2,0.3l-2.1,3.2l2.2,3.4c0.1,0.1,0,0.3-0.2,0.3h-1.1c-0.1,0-0.2-0.1-0.2-0.1l-1.5-2.4h0
		l-1.5,2.4c0,0-0.1,0.1-0.2,0.1h-1.1c-0.2,0-0.3-0.2-0.2-0.3L442.2,33.4z"/>
	<path fill="#3B4251" d="M447.9,29.9c0-0.1,0.1-0.2,0.2-0.2h0.2c0.1,0,0.1,0,0.2,0.1l2.3,4.9c0,0,0,0,0,0l2.3-4.9
		c0-0.1,0.1-0.1,0.2-0.1h0.2c0.1,0,0.2,0.1,0.2,0.2l1.2,7c0,0.1-0.1,0.2-0.2,0.2h-0.9c-0.1,0-0.2-0.1-0.2-0.2l-0.6-3.9c0,0,0,0,0,0
		l-1.8,4.1c0,0.1-0.1,0.1-0.2,0.1h-0.2c-0.1,0-0.1-0.1-0.2-0.1l-1.8-4.1c0,0,0,0,0,0L448,37c0,0.1-0.1,0.2-0.2,0.2h-0.9
		c-0.1,0-0.2-0.1-0.2-0.2L447.9,29.9z"/>
	<path fill="#3B4251" d="M456.3,30.1c0-0.1,0.1-0.2,0.2-0.2h1c0.1,0,0.2,0.1,0.2,0.2v5.8h2.6c0.1,0,0.2,0.1,0.2,0.2V37
		c0,0.1-0.1,0.2-0.2,0.2h-3.8c-0.1,0-0.2-0.1-0.2-0.2V30.1z"/>
</g>
<g enable-background="new    ">
	<path fill="#3B4251" d="M123,30.1c0-0.1,0.1-0.2,0.2-0.2h4.2c0.1,0,0.2,0.1,0.2,0.2v0.9c0,0.1-0.1,0.2-0.2,0.2h-3.1v1.7h2.6
		c0.1,0,0.2,0.1,0.2,0.2v0.9c0,0.1-0.1,0.2-0.2,0.2h-2.6v1.8h3.1c0.1,0,0.2,0.1,0.2,0.2V37c0,0.1-0.1,0.2-0.2,0.2h-4.2
		c-0.1,0-0.2-0.1-0.2-0.2V30.1z"/>
	<path fill="#3B4251" d="M130.6,33.4l-2.1-3.2c-0.1-0.1,0-0.3,0.2-0.3h1.2c0.1,0,0.1,0.1,0.2,0.1l1.3,2.2h0l1.3-2.2
		c0,0,0.1-0.1,0.2-0.1h1.2c0.2,0,0.3,0.2,0.2,0.3l-2.1,3.2l2.2,3.4c0.1,0.1,0,0.3-0.2,0.3h-1.1c-0.1,0-0.2-0.1-0.2-0.1l-1.5-2.4h0
		l-1.5,2.4c0,0-0.1,0.1-0.2,0.1h-1.1c-0.2,0-0.3-0.2-0.2-0.3L130.6,33.4z"/>
	<path fill="#3B4251" d="M138.8,29.8c1,0,1.8,0.3,2.5,1c0.1,0.1,0.1,0.2,0,0.3l-0.6,0.7c-0.1,0.1-0.2,0.1-0.3,0
		c-0.4-0.4-1-0.6-1.6-0.6c-1.3,0-2.3,1.1-2.3,2.4c0,1.3,1,2.4,2.3,2.4c0.6,0,1.2-0.2,1.6-0.6c0.1-0.1,0.2-0.1,0.3,0l0.6,0.7
		c0.1,0.1,0.1,0.2,0,0.3c-0.7,0.7-1.6,1-2.5,1c-2.1,0-3.7-1.6-3.7-3.7S136.7,29.8,138.8,29.8z"/>
	<path fill="#3B4251" d="M142.7,30.1c0-0.1,0.1-0.2,0.2-0.2h4.2c0.1,0,0.2,0.1,0.2,0.2v0.9c0,0.1-0.1,0.2-0.2,0.2H144v1.7h2.6
		c0.1,0,0.2,0.1,0.2,0.2v0.9c0,0.1-0.1,0.2-0.2,0.2H144v1.8h3.1c0.1,0,0.2,0.1,0.2,0.2V37c0,0.1-0.1,0.2-0.2,0.2h-4.2
		c-0.1,0-0.2-0.1-0.2-0.2V30.1z"/>
	<path fill="#3B4251" d="M148.8,30.1c0-0.1,0.1-0.2,0.2-0.2h1c0.1,0,0.2,0.1,0.2,0.2v5.8h2.6c0.1,0,0.2,0.1,0.2,0.2V37
		c0,0.1-0.1,0.2-0.2,0.2H149c-0.1,0-0.2-0.1-0.2-0.2V30.1z"/>
</g>
<g enable-background="new    ">
	<path fill="#3B4251" d="M21,27c0.7,0,1.3,0.3,1.8,0.7c0.1,0.1,0.1,0.2,0,0.2l-0.5,0.5c-0.1,0.1-0.1,0.1-0.2,0
		C21.8,28.1,21.4,28,21,28c-0.9,0-1.7,0.8-1.7,1.7c0,0.9,0.7,1.7,1.7,1.7c0.4,0,0.7-0.1,0.9-0.2v-0.6h-0.6c-0.1,0-0.1-0.1-0.1-0.1
		v-0.6c0-0.1,0.1-0.1,0.1-0.1h1.4c0.1,0,0.1,0.1,0.1,0.1v1.9c0,0.1,0,0.1-0.1,0.1c0,0-0.8,0.5-1.9,0.5c-1.5,0-2.7-1.2-2.7-2.7
		C18.3,28.2,19.5,27,21,27z"/>
	<path fill="#3B4251" d="M26.3,27c1.5,0,2.7,1.2,2.7,2.7c0,1.5-1.2,2.7-2.7,2.7c-1.5,0-2.7-1.2-2.7-2.7C23.6,28.2,24.8,27,26.3,27z
		 M26.3,31.5c0.9,0,1.7-0.8,1.7-1.7c0-0.9-0.8-1.7-1.7-1.7c-0.9,0-1.7,0.8-1.7,1.7C24.6,30.7,25.4,31.5,26.3,31.5z"/>
	<path fill="#3B4251" d="M32.3,27c1.5,0,2.7,1.2,2.7,2.7c0,1.5-1.2,2.7-2.7,2.7c-1.5,0-2.7-1.2-2.7-2.7C29.6,28.2,30.8,27,32.3,27z
		 M32.3,31.5c0.9,0,1.7-0.8,1.7-1.7c0-0.9-0.8-1.7-1.7-1.7c-0.9,0-1.7,0.8-1.7,1.7C30.6,30.7,31.4,31.5,32.3,31.5z"/>
	<path fill="#3B4251" d="M38.3,27c0.7,0,1.3,0.3,1.8,0.7c0.1,0.1,0.1,0.2,0,0.2l-0.5,0.5c-0.1,0.1-0.1,0.1-0.2,0
		c-0.3-0.3-0.7-0.4-1.1-0.4c-0.9,0-1.7,0.8-1.7,1.7c0,0.9,0.7,1.7,1.7,1.7c0.4,0,0.7-0.1,0.9-0.2v-0.6h-0.6c-0.1,0-0.1-0.1-0.1-0.1
		v-0.6c0-0.1,0.1-0.1,0.1-0.1h1.4c0.1,0,0.1,0.1,0.1,0.1v1.9c0,0.1,0,0.1-0.1,0.1c0,0-0.8,0.5-1.9,0.5c-1.5,0-2.7-1.2-2.7-2.7
		C35.6,28.2,36.8,27,38.3,27z"/>
	<path fill="#3B4251" d="M41.3,27.2c0-0.1,0.1-0.1,0.1-0.1h0.7c0.1,0,0.1,0.1,0.1,0.1v4.2h1.9c0.1,0,0.1,0.1,0.1,0.1v0.6
		c0,0.1-0.1,0.1-0.1,0.1h-2.7c-0.1,0-0.1-0.1-0.1-0.1V27.2z"/>
	<path fill="#3B4251" d="M45.1,27.2c0-0.1,0.1-0.1,0.1-0.1h3c0.1,0,0.1,0.1,0.1,0.1v0.6c0,0.1-0.1,0.1-0.1,0.1h-2.2v1.2h1.9
		c0.1,0,0.1,0.1,0.1,0.1V30c0,0.1-0.1,0.1-0.1,0.1h-1.9v1.3h2.2c0.1,0,0.1,0.1,0.1,0.1v0.6c0,0.1-0.1,0.1-0.1,0.1h-3
		c-0.1,0-0.1-0.1-0.1-0.1V27.2z"/>
</g>
<g enable-background="new    ">
	<path fill="#3B4251" d="M20.5,40.6l0.3-0.5c0.1-0.1,0.2-0.1,0.3-0.1c0,0,0.6,0.5,1.1,0.5c0.4,0,0.7-0.3,0.7-0.6
		c0-0.4-0.3-0.6-1-0.9c-0.7-0.3-1.4-0.7-1.4-1.6c0-0.7,0.5-1.4,1.7-1.4c0.8,0,1.3,0.4,1.5,0.5c0.1,0,0.1,0.2,0,0.2l-0.3,0.4
		c-0.1,0.1-0.2,0.2-0.3,0.1c-0.1,0-0.6-0.4-1-0.4c-0.4,0-0.7,0.3-0.7,0.5c0,0.4,0.3,0.6,0.9,0.8c0.7,0.3,1.6,0.7,1.6,1.7
		c0,0.8-0.7,1.5-1.7,1.5c-0.9,0-1.5-0.4-1.6-0.6C20.5,40.8,20.5,40.7,20.5,40.6z"/>
	<path fill="#3B4251" d="M24.9,36.2c0-0.1,0.1-0.1,0.1-0.1h0.7c0.1,0,0.1,0.1,0.1,0.1v2h2.4v-2c0-0.1,0.1-0.1,0.1-0.1h0.7
		c0.1,0,0.1,0.1,0.1,0.1v5c0,0.1-0.1,0.1-0.1,0.1h-0.7c-0.1,0-0.1-0.1-0.1-0.1v-2.1h-2.4v2.1c0,0.1-0.1,0.1-0.1,0.1h-0.7
		c-0.1,0-0.1-0.1-0.1-0.1V36.2z"/>
	<path fill="#3B4251" d="M30.7,36.2c0-0.1,0.1-0.1,0.1-0.1h3c0.1,0,0.1,0.1,0.1,0.1v0.6c0,0.1-0.1,0.1-0.1,0.1h-2.2v1.2h1.9
		c0.1,0,0.1,0.1,0.1,0.1V39c0,0.1-0.1,0.1-0.1,0.1h-1.9v1.3h2.2c0.1,0,0.1,0.1,0.1,0.1v0.6c0,0.1-0.1,0.1-0.1,0.1h-3
		c-0.1,0-0.1-0.1-0.1-0.1V36.2z"/>
	<path fill="#3B4251" d="M35.1,36.2c0-0.1,0.1-0.1,0.1-0.1h3c0.1,0,0.1,0.1,0.1,0.1v0.6c0,0.1-0.1,0.1-0.1,0.1h-2.2v1.2h1.9
		c0.1,0,0.1,0.1,0.1,0.1V39c0,0.1-0.1,0.1-0.1,0.1h-1.9v1.3h2.2c0.1,0,0.1,0.1,0.1,0.1v0.6c0,0.1-0.1,0.1-0.1,0.1h-3
		c-0.1,0-0.1-0.1-0.1-0.1V36.2z"/>
	<path fill="#3B4251" d="M40.2,37h-1.1c-0.1,0-0.1-0.1-0.1-0.1v-0.6c0-0.1,0.1-0.1,0.1-0.1h3.3c0.1,0,0.1,0.1,0.1,0.1v0.6
		c0,0.1-0.1,0.1-0.1,0.1h-1.1v4.2c0,0.1-0.1,0.1-0.1,0.1h-0.7c-0.1,0-0.1-0.1-0.1-0.1V37z"/>
	<path fill="#3B4251" d="M42.9,40.6l0.3-0.5c0.1-0.1,0.2-0.1,0.3-0.1c0,0,0.6,0.5,1.1,0.5c0.4,0,0.7-0.3,0.7-0.6
		c0-0.4-0.3-0.6-1-0.9c-0.7-0.3-1.4-0.7-1.4-1.6c0-0.7,0.5-1.4,1.7-1.4c0.8,0,1.3,0.4,1.5,0.5c0.1,0,0.1,0.2,0,0.2l-0.3,0.4
		c-0.1,0.1-0.2,0.2-0.3,0.1c-0.1,0-0.6-0.4-1-0.4c-0.4,0-0.7,0.3-0.7,0.5c0,0.4,0.3,0.6,0.9,0.8c0.7,0.3,1.6,0.7,1.6,1.7
		c0,0.8-0.7,1.5-1.7,1.5c-0.9,0-1.5-0.4-1.6-0.6C42.9,40.8,42.9,40.7,42.9,40.6z"/>
</g>
</svg>
