<?xml version="1.0" encoding="utf-8"?>
<!-- Generator: Adobe Illustrator 18.0.0, SVG Export Plug-In . SVG Version: 6.00 Build 0)  -->
<!DOCTYPE svg PUBLIC "-//W3C//DTD SVG 1.1//EN" "http://www.w3.org/Graphics/SVG/1.1/DTD/svg11.dtd">
<svg version="1.1" id="Layer_1" xmlns="http://www.w3.org/2000/svg" xmlns:xlink="http://www.w3.org/1999/xlink" x="0px" y="0px"
	 viewBox="0 0 60 60" enable-background="new 0 0 60 60" xml:space="preserve">
<g>
	<path fill="none" stroke="#8CC640" stroke-width="3" stroke-miterlimit="10" d="M30.1,58.1c-15.3,0-27.8-12.5-27.8-27.8
		S14.8,2.5,30.1,2.5S57.9,15,57.9,30.3S45.4,58.1,30.1,58.1z"/>
</g>
<g>
	<path fill="#8CC640" d="M25.2,28c-0.2,0.7-0.6,1.9-1.2,3.5c-0.5,1.3-0.9,2.4-1.3,3.7c-0.3,0-0.6,0-1.1,0c-0.6-1.8-1.3-3.7-1.8-5.7
		h-0.1c-0.6,1.7-1.7,4.3-2.4,5.7c-0.3,0-0.6,0-1,0c-0.5-1.6-0.9-2.9-1.2-4.1c-0.3-1.3-0.6-2.3-0.8-3.1c0,0,0-0.1-0.1-0.1l-0.9-0.1
		c0-0.3,0-0.6,0-0.8h3.8c0,0.2,0,0.5,0,0.8l-1.3,0c0.1,0.4,0.3,1.6,0.6,2.7c0.2,1.1,0.5,2.1,0.7,2.9l0.1,0l2.3-6c0.2,0,0.7,0,1.1,0
		c0.4,1.3,1.4,4.6,1.8,6h0.1c0.3-1.1,0.5-1.7,0.8-2.7c0.3-1.1,0.6-2.1,0.7-2.8c0-0.1,0-0.1-0.1-0.1l-1.1,0l0-0.8h1.9l1.3,0
		c0,0.3,0,0.5,0,0.8L25.2,28z M36.2,28c-0.2,0.7-0.6,1.9-1.2,3.5c-0.5,1.3-0.9,2.4-1.3,3.7c-0.3,0-0.6,0-1.1,0
		c-0.6-1.8-1.3-3.7-1.8-5.7h-0.1c-0.6,1.7-1.7,4.3-2.4,5.7c-0.3,0-0.6,0-1,0c-0.5-1.6-0.9-2.9-1.2-4.1c-0.3-1.3-0.6-2.3-0.8-3.1
		c0,0,0-0.1-0.1-0.1l-0.9-0.1c0-0.3,0-0.6,0-0.8H28c0,0.2,0,0.5,0,0.8l-1.3,0c0.1,0.4,0.3,1.6,0.6,2.7c0.2,1.1,0.5,2.1,0.7,2.9
		l0.1,0l2.3-6c0.2,0,0.7,0,1.1,0c0.4,1.3,1.4,4.6,1.8,6h0.1c0.3-1.1,0.5-1.7,0.8-2.7c0.3-1.1,0.6-2.1,0.7-2.8c0-0.1,0-0.1-0.1-0.1
		l-1.1,0l0-0.8h1.9l1.3,0c0,0.3,0,0.5,0,0.8L36.2,28z M47.2,28c-0.2,0.7-0.6,1.9-1.2,3.5c-0.5,1.3-0.9,2.4-1.3,3.7
		c-0.3,0-0.6,0-1.1,0c-0.6-1.8-1.3-3.7-1.8-5.7h-0.1c-0.6,1.7-1.7,4.3-2.4,5.7c-0.3,0-0.6,0-1,0c-0.5-1.6-0.9-2.9-1.2-4.1
		c-0.3-1.3-0.6-2.3-0.8-3.1c0,0,0-0.1-0.1-0.1l-0.9-0.1c0-0.3,0-0.6,0-0.8H39c0,0.2,0,0.5,0,0.8l-1.3,0c0.1,0.4,0.3,1.6,0.6,2.7
		c0.2,1.1,0.5,2.1,0.7,2.9l0.1,0l2.3-6c0.2,0,0.7,0,1.1,0c0.4,1.3,1.4,4.6,1.8,6h0.1c0.3-1.1,0.5-1.7,0.8-2.7
		c0.3-1.1,0.6-2.1,0.7-2.8c0-0.1,0-0.1-0.1-0.1l-1.1,0l0-0.8h1.9l1.3,0c0,0.3,0,0.5,0,0.8L47.2,28L47.2,28z"/>
</g>
</svg>
