<?xml version="1.0" encoding="utf-8"?>
<!-- Generator: Adobe Illustrator 19.2.0, SVG Export Plug-In . SVG Version: 6.00 Build 0)  -->
<svg version="1.1" id="Layer_1" xmlns="http://www.w3.org/2000/svg" xmlns:xlink="http://www.w3.org/1999/xlink" x="0px" y="0px"
	 viewBox="0 0 280 210" style="enable-background:new 0 0 280 210;" xml:space="preserve">
<style type="text/css">
	.st0{opacity:0.1;fill:none;stroke:#3D4350;stroke-width:4;stroke-linecap:round;stroke-miterlimit:10;}
	.st1{opacity:0.1;}
	.st2{fill:none;stroke:#3D4350;stroke-width:2;stroke-linecap:round;stroke-miterlimit:10;}
	.st3{opacity:0.1;fill:none;stroke:#3D4350;stroke-width:3;stroke-linecap:round;stroke-miterlimit:10;}
	.st4{opacity:0.1;fill:#3D4350;}
	.st5{fill:#FFFFFF;}
	.st6{fill:#84898C;}
	.st7{opacity:0.25;fill:none;stroke:#3D4351;stroke-width:2;stroke-miterlimit:10;enable-background:new    ;}
	.st8{fill:#8DC63F;}
	.st9{fill:#888B8E;}
	.st10{fill:#B1B4B9;}
	.st11{fill:#3D4350;}
</style>
<g>
	<g>
		<circle class="st0" cx="34.4" cy="79.1" r="5"/>
		<g class="st1">
			<line class="st2" x1="41" y1="128.3" x2="49" y2="128.3"/>
			<line class="st2" x1="45" y1="124.3" x2="45" y2="132.3"/>
		</g>
		<polygon class="st3" points="249.7,85.7 255.8,91.8 248,94.5 		"/>
	</g>
	<path class="st4" d="M230.4,27.6h-169c-3.9,0-7,3.1-7,7V186c0,3.9,3.1,7,7,7h169c3.9,0,7-3.1,7-7V34.6
		C237.4,30.8,234.3,27.6,230.4,27.6z"/>
	<g>
		<path class="st5" d="M61.4,183c-2.8,0-5-2.2-5-5V26.6c0-2.8,2.2-5,5-5h169c2.8,0,5,2.2,5,5V178c0,2.8-2.2,5-5,5H61.4z"/>
		<path class="st6" d="M230.4,23.6c1.7,0,3,1.3,3,3V178c0,1.7-1.3,3-3,3h-169c-1.7,0-3-1.3-3-3V26.6c0-1.7,1.3-3,3-3H230.4
			 M230.4,19.6h-169c-3.9,0-7,3.1-7,7V178c0,3.9,3.1,7,7,7h169c3.9,0,7-3.1,7-7V26.6C237.4,22.8,234.3,19.6,230.4,19.6L230.4,19.6z"
			/>
	</g>
	<line class="st7" x1="58.4" y1="46.5" x2="233.4" y2="46.5"/>
	<g>
		<g>
			<g>
				<path class="st8" d="M70.6,33c-1.6,0-3,1.3-3,3s1.4,3,3,3c1.7,0,3-1.3,3-3S72.2,33,70.6,33L70.6,33z"/>
			</g>
		</g>
		<g>
			<g>
				<path class="st8" d="M80.7,33c-1.7,0-3,1.3-3,3s1.3,3,3,3c1.6,0,3-1.3,3-3S82.4,33,80.7,33L80.7,33z"/>
			</g>
		</g>
		<g>
			<g>
				<path class="st8" d="M90.9,33c-1.7,0-3,1.3-3,3s1.3,3,3,3c1.6,0,3-1.3,3-3S92.6,33,90.9,33L90.9,33z"/>
			</g>
		</g>
	</g>
	<g>
		<path class="st9" d="M107.3,119.9c0-2.7-2.7-4.4-4-4.6c-0.4,0-0.8-0.6-0.8-1.1v-1.9c0-0.4,0.4-0.8,0.8-0.8c1.5-0.2,4-1.9,4-4.6
			v-9.5c0-10.7,8.4-14.1,14.5-14.1c0.6,0,1.3,0.2,1.3,1.1v1.1c0,0.6-0.2,1.1-0.8,1.1c-5.7,0.8-10.7,4.6-10.7,10.9v8
			c0,5.9-2.9,7.1-4.6,8v0.4c1.7,0.6,4.6,2.1,4.6,8v7.8c0,6.3,5.3,10.1,10.7,10.9c0.4,0,0.8,0.4,0.8,1.1v1.3c0,0.6-0.6,1.1-1.3,1.1
			c-6.1,0-14.5-3.4-14.5-14.1L107.3,119.9z"/>
		<circle class="st10" cx="127.7" cy="114.8" r="5.3"/>
		<circle class="st10" cx="146.6" cy="114.8" r="5.3"/>
		<circle class="st10" cx="165.8" cy="114.8" r="5.3"/>
		<path class="st9" d="M185.1,129.3c0,10.7-8.4,14.1-14.5,14.1c-0.6,0-1.3-0.4-1.3-1.1v-1.3c0-0.6,0.2-0.8,0.8-1.1
			c5.7-0.8,10.7-4.6,10.7-10.9v-7.8c0-5.9,2.9-7.1,4.6-8v-0.4c-1.7-0.6-4.6-2.1-4.6-8v-7.8c0-6.3-5.3-10.1-10.7-10.9
			c-0.4,0-0.8-0.6-0.8-1.1v-0.8c0-0.6,0.6-1.1,1.3-1.1c6.1,0,14.5,3.4,14.5,14.1v9.5c0,2.7,2.7,4.4,4,4.6c0.4,0,0.8,0.4,0.8,0.8v1.9
			c0,0.4-0.4,0.8-0.8,1.1c-1.5,0.2-4,1.9-4,4.6V129.3z"/>
	</g>
	<g class="st1">
		<g>
			<path class="st11" d="M227.9,28.6V176h-164V28.6H227.9 M229.9,26.6h-2h-164h-2v2V176v2h2h164h2v-2V28.6V26.6L229.9,26.6z"/>
		</g>
	</g>
</g>
</svg>
