<?xml version="1.0" encoding="utf-8"?>
<!-- Generator: Adobe Illustrator 18.0.0, SVG Export Plug-In . SVG Version: 6.00 Build 0)  -->
<!DOCTYPE svg PUBLIC "-//W3C//DTD SVG 1.1//EN" "http://www.w3.org/Graphics/SVG/1.1/DTD/svg11.dtd">
<svg version="1.1" id="Layer_1" xmlns="http://www.w3.org/2000/svg" xmlns:xlink="http://www.w3.org/1999/xlink" x="0px" y="0px"
	 viewBox="0 0 60 60" enable-background="new 0 0 60 60" xml:space="preserve">
<g>
	<path fill="none" stroke="#8CC640" stroke-width="3" stroke-miterlimit="10" d="M30.1,58.1c-15.3,0-27.8-12.5-27.8-27.8
		S14.8,2.5,30.1,2.5S57.9,15,57.9,30.3S45.4,58.1,30.1,58.1z"/>
</g>
<g>
	<path fill="#8CC640" d="M21.2,36.4c-0.3,0.4-0.6,0.9-0.9,1.2c-2.8-2.2-5.4-4.2-8.1-6.3c0-0.4,0-1,0-1.4c2.7-2,5.6-4.1,8.2-6
		c0.3,0.4,0.6,0.8,0.9,1.3c-2.5,1.9-4.7,3.6-7,5.4C16.4,32.4,18.8,34.4,21.2,36.4z"/>
	<path fill="#8CC640" d="M25.1,41.3c1.8-4.1,3.5-8.1,5.2-11.9c1.4-3.2,3-7.1,4.4-10.2c0.5,0.1,1.1,0.3,1.7,0.4
		C35,22.6,33.1,27,31.8,30c-1.5,3.5-3.7,8.4-5.2,11.8C26.1,41.6,25.6,41.5,25.1,41.3z"/>
	<path fill="#8CC640" d="M39.5,25c0.3-0.4,0.6-0.9,0.9-1.2c2.7,2,5.5,4.1,8.2,6.2c0,0.4,0,0.9,0,1.4c-2.7,2-5.4,4.1-8.2,6.2
		c-0.3-0.3-0.7-0.8-1-1.2c2.5-1.9,4.8-3.8,7.1-5.6C44.2,28.8,42,26.9,39.5,25z"/>
</g>
</svg>
