<svg xmlns="http://www.w3.org/2000/svg" viewBox="0 0 126 114" enable-background="new 0 0 126 114"><path fill="#3B4251" d="M43.25 83.381h-41.75c-.829 0-1.5-.672-1.5-1.5v-49.762c0-.829.671-1.5 1.5-1.5h41.75c.829 0 1.5.671 1.5 1.5v49.762c0 .828-.671 1.5-1.5 1.5zm-40.25-3h38.75v-46.762h-38.75v46.762z"/><path fill="#8CC640" d="M124.5 81.819h-65.116c-.829 0-1.5-.672-1.5-1.5v-44.144c0-.829.671-1.5 1.5-1.5h65.116c.828 0 1.5.671 1.5 1.5v44.145c0 .827-.672 1.499-1.5 1.499zm-63.616-3h62.116v-41.144h-62.116v41.144zM79.05 56.962h-13.82c-.553 0-1-.448-1-1v-13.418c0-.552.447-1 1-1h13.82c.553 0 1 .448 1 1v13.418c0 .552-.447 1-1 1zm-12.82-2h11.82v-11.418h-11.82v11.418zM98.939 56.962h-13.819c-.553 0-1-.448-1-1v-13.418c0-.552.447-1 1-1h13.819c.553 0 1 .448 1 1v13.418c0 .552-.447 1-1 1zm-12.819-2h11.819v-11.418h-11.819v11.418zM118.914 56.962h-13.818c-.553 0-1-.448-1-1v-13.418c0-.552.447-1 1-1h13.818c.553 0 1 .448 1 1v13.418c0 .552-.447 1-1 1zm-12.818-2h11.818v-11.418h-11.818v11.418zM118.914 75.011h-13.818c-.553 0-1-.447-1-1v-13.418c0-.553.447-1 1-1h13.818c.553 0 1 .447 1 1v13.418c0 .552-.447 1-1 1zm-12.818-2h11.818v-11.418h-11.818v11.418zM98.939 75.011h-33.709c-.553 0-1-.447-1-1v-13.418c0-.553.447-1 1-1h33.709c.553 0 1 .447 1 1v13.418c0 .552-.447 1-1 1zm-32.709-2h31.709v-11.418h-31.709v11.418zM85.988 71.157c-.234 0-.467-.082-.653-.243l-4.858-4.192-2.709 3.056c-.185.209-.448.331-.728.337-.282.007-.547-.105-.741-.307l-3.149-3.271-2.268 3.16c-.322.449-.946.551-1.396.229-.448-.322-.552-.947-.229-1.396l2.968-4.136c.173-.241.444-.393.74-.414.304-.026.587.09.793.304l3.231 3.355 2.646-2.984c.363-.411.988-.451 1.401-.094l5.056 4.363 7.38-4.462c.474-.287 1.088-.134 1.373.338.286.473.135 1.088-.338 1.373l-8.001 4.838c-.16.098-.339.146-.518.146zM92.029 53.578c-2.385 0-4.324-1.94-4.324-4.325s1.939-4.325 4.324-4.325c.582 0 1.148.114 1.684.34.509.214.747.801.533 1.31-.215.509-.803.748-1.311.533-.287-.121-.593-.183-.906-.183-1.281 0-2.324 1.043-2.324 2.325s1.043 2.325 2.324 2.325c1.282 0 2.325-1.043 2.325-2.325 0-.552.447-1 1-1s1 .448 1 1c0 2.385-1.94 4.325-4.325 4.325z"/><path stroke="#8CC640" stroke-width="2" stroke-linecap="round" stroke-linejoin="round" stroke-miterlimit="10" d="M93.324 46.19" fill="none"/><path fill="#8CC640" d="M69.098 52.85c-.553 0-1-.448-1-1v-1.368c0-.552.447-1 1-1s1 .448 1 1v1.368c0 .552-.448 1-1 1zM72.312 52.85c-.553 0-1-.448-1-1v-4.956c0-.552.447-1 1-1s1 .448 1 1v4.956c0 .552-.448 1-1 1zM75.525 52.85c-.553 0-1-.448-1-1v-3.162c0-.552.447-1 1-1s1 .448 1 1v3.162c0 .552-.447 1-1 1zM108.995 51.759c-.281 0-.517-.177-.599-.452l-.21-.53.088-.292c.054-.116.17-.271.419-.349l.292-.128c-.673-.207-1.255-.816-1.255-1.778 0-1.065.858-1.933 1.914-1.933 1.171 0 1.988.916 1.988 2.227 0 1.78-1.308 2.838-2.428 3.203l-.209.032zm.655-3.749c-.111 0-.213.11-.213.232 0 .128.099.232.22.232.114 0 .183-.076.218-.132-.016-.123-.067-.332-.225-.332zM114.44 51.713c-.544 0-1.015-.326-1.226-.792l-.207.398c-.101.197-.322.332-.55.332h-.301c-.224 0-.424-.112-.536-.3-.11-.186-.114-.413-.011-.606l.963-1.859c-.783.105-1.535-.526-1.535-1.332 0-.742.604-1.345 1.345-1.345.521 0 .973.297 1.196.731l.174-.336c.102-.203.313-.333.55-.333h.313c.224 0 .424.112.536.301.111.187.114.413.01.606l-.973 1.869.251-.023c.745 0 1.352.603 1.352 1.344.001.742-.605 1.345-1.351 1.345zm0-1.538c-.11 0-.193.083-.193.193 0 .229.388.227.388 0 0-.106-.087-.193-.195-.193zm-2.057-2.815c-.112 0-.2.085-.2.193.001.221.394.23.394 0-.001-.106-.088-.193-.194-.193zM115.14 69.242h-6.25c-.404 0-.77-.243-.924-.617-.155-.374-.069-.804.217-1.09l3.115-3.115c.375-.375 1.039-.375 1.414 0l3.007 3.007c.255.181.421.479.421.815 0 .553-.448 1-1 1zm-3.836-2h1.402l-.701-.701-.701.701z"/><path fill="#3B4251" d="M37.709 57.719h-30.668c-.552 0-1-.447-1-1v-17.685c0-.552.448-1 1-1h30.668c.552 0 1 .448 1 1v17.686c0 .551-.448.999-1 .999zm-29.668-2h28.668v-15.685h-28.668v15.685zM26.041 53.523c-.152 0-.305-.035-.446-.105-.334-.167-.547-.505-.554-.878-.021-1.294-1.09-2.347-2.384-2.347s-2.363 1.053-2.384 2.347c-.006.373-.22.712-.554.878-.333.167-.732.134-1.035-.086l-5.202-3.786c-.382-.278-.518-.786-.324-1.218 1.676-3.739 5.404-6.155 9.499-6.155s7.823 2.416 9.499 6.155c.193.432.058.939-.324 1.218l-5.202 3.786c-.175.126-.381.191-.589.191zm-3.384-5.33c1.783 0 3.334 1.087 4.016 2.633l3.294-2.397c-1.484-2.609-4.272-4.256-7.31-4.256s-5.826 1.647-7.31 4.256l3.294 2.397c.682-1.545 2.234-2.633 4.016-2.633zM22.656 53.58c-.175 0-.353-.046-.514-.143-.474-.284-.627-.898-.343-1.372l3.387-5.645c.284-.474.898-.627 1.372-.343.474.284.627.898.343 1.372l-3.387 5.645c-.187.313-.518.486-.858.486zM19.937 75.784h-12.556c-.552 0-1-.447-1-1v-12.191c0-.553.448-1 1-1h12.556c.552 0 1 .447 1 1v12.191c0 .553-.448 1-1 1zm-11.556-2h10.556v-10.191h-10.556v10.191zM10.745 72.176c-.552 0-1-.447-1-1v-4.897c0-.553.448-1 1-1s1 .447 1 1v4.897c0 .553-.448 1-1 1zM13.823 72.176c-.552 0-1-.447-1-1v-2.056c0-.553.448-1 1-1s1 .447 1 1v2.056c0 .553-.448 1-1 1zM16.901 72.176c-.552 0-1-.447-1-1v-3.028c0-.553.448-1 1-1s1 .447 1 1v3.028c0 .553-.448 1-1 1z"/><path stroke="#3B4251" stroke-width="2" stroke-linecap="round" stroke-linejoin="round" stroke-miterlimit="10" d="M33.664 66.285" fill="none"/><path fill="#3A4252" d="M31.431 65.432c-1.285 0-2.395.744-2.926 1.824l2.926 1.688v-3.512z"/><path fill="#3B4251" d="M31.431 69.944c-.172 0-.345-.045-.5-.134l-2.926-1.688c-.456-.263-.63-.834-.398-1.307.722-1.471 2.187-2.384 3.823-2.384.552 0 1 .447 1 1v3.512c0 .357-.19.688-.5.866-.154.09-.326.135-.499.135zm-1.448-2.989l.448.258v-.549c-.16.078-.31.176-.448.291zM28.311 70.629c-.433 0-.828-.282-.957-.712-.12-.398-.181-.811-.181-1.227 0-.656.146-1.287.435-1.874.122-.249.341-.436.606-.517.266-.079.552-.048.791.091l2.926 1.688c.358.206.552.611.489 1.02-.063.407-.371.735-.774.823l-3.12.685-.215.023z"/><path fill="#3A4252" d="M31.431 71.948c1.127 0 2.12-.572 2.705-1.442l-2.705-1.561v3.003z"/><path fill="#3B4251" d="M31.431 72.947c-.552 0-1-.447-1-1v-3.003c0-.357.19-.688.5-.866.31-.178.69-.178 1 0l2.705 1.562c.24.139.412.371.474.641s.01.554-.145.783c-.793 1.179-2.114 1.883-3.534 1.883z"/><path fill="#3A4252" d="M28.311 69.629c.403 1.341 1.647 2.318 3.119 2.318v-3.003l-3.119.685z"/><path fill="#3B4251" d="M31.431 72.947c-1.864 0-3.541-1.246-4.077-3.03-.08-.267-.046-.555.095-.795s.376-.41.648-.47l3.12-.685c.297-.065.605.007.841.197.236.189.373.477.373.779v3.003c0 .554-.448 1.001-1 1.001zm-1.566-2.635c.167.161.358.296.566.399v-.523l-.566.124zM34.135 71.502c-.17 0-.342-.043-.499-.134l-2.705-1.561c-.309-.179-.5-.509-.5-.866v-3.511c0-.553.448-1 1-1 2.348 0 4.257 1.909 4.257 4.257 0 .851-.25 1.671-.723 2.374-.192.285-.507.441-.83.441zm-1.704-3.138l1.225.706c.022-.126.033-.254.033-.384 0-.886-.513-1.653-1.257-2.023v1.701zM37.709 75.967h-12.556c-.552 0-1-.447-1-1v-12.556c0-.553.448-1 1-1h12.556c.552 0 1 .447 1 1v12.556c0 .553-.448 1-1 1zm-11.556-2h10.556v-10.556h-10.556v10.556z"/></svg>