<?xml version="1.0" encoding="utf-8"?>
<!-- Generator: Adobe Illustrator 18.0.0, SVG Export Plug-In . SVG Version: 6.00 Build 0)  -->
<!DOCTYPE svg PUBLIC "-//W3C//DTD SVG 1.1//EN" "http://www.w3.org/Graphics/SVG/1.1/DTD/svg11.dtd">
<svg version="1.1" id="Layer_1" xmlns="http://www.w3.org/2000/svg" xmlns:xlink="http://www.w3.org/1999/xlink" x="0px" y="0px"
	 viewBox="0 0 60 60" enable-background="new 0 0 60 60" xml:space="preserve">
<g>
	<path fill="none" stroke="#8CC640" stroke-width="3" stroke-miterlimit="10" d="M30.1,58.1c-15.3,0-27.8-12.5-27.8-27.8
		S14.8,2.5,30.1,2.5S57.9,15,57.9,30.3S45.4,58.1,30.1,58.1z"/>
</g>
<path fill-rule="evenodd" clip-rule="evenodd" fill="none" stroke="#8CC640" stroke-width="1.5" stroke-miterlimit="10" d="
	M37.9,16.3c1.6,2.5,2.5,5.4,2.5,8.6c0,9-7.3,16.2-16.2,16.2c-2.6,0-5-0.6-7.1-1.7c2.9,4.6,8,7.7,13.8,7.7c9,0,16.2-7.3,16.2-16.2
	C47,24.5,43.3,19,37.9,16.3z"/>
</svg>
