<?xml version="1.0" encoding="utf-8"?>
<!-- Generator: Adobe Illustrator 18.0.0, SVG Export Plug-In . SVG Version: 6.00 Build 0)  -->
<!DOCTYPE svg PUBLIC "-//W3C//DTD SVG 1.1//EN" "http://www.w3.org/Graphics/SVG/1.1/DTD/svg11.dtd">
<svg version="1.1" id="Layer_1" xmlns="http://www.w3.org/2000/svg" xmlns:xlink="http://www.w3.org/1999/xlink" x="0px" y="0px"
	 viewBox="0 0 480 350" enable-background="new 0 0 480 350" xml:space="preserve">
<g>
	<path fill="none" stroke="#8BC541" stroke-width="3" stroke-linecap="round" stroke-linejoin="round" stroke-miterlimit="10" d="
		M420,131h-64c-1.6,0-3-1.4-3-3V64c0-1.7,1.4-3,3-3h64c1.6,0,3,1.3,3,3v64C423,129.6,421.6,131,420,131z"/>
	
		<line fill="none" stroke="#3C4352" stroke-width="3" stroke-linecap="round" stroke-linejoin="round" stroke-miterlimit="10" x1="369.1" y1="95.5" x2="407.9" y2="95.5"/>
	
		<line fill="none" stroke="#3C4352" stroke-width="3" stroke-linecap="round" stroke-linejoin="round" stroke-miterlimit="10" x1="388.4" y1="75.9" x2="388.4" y2="114.7"/>
</g>
<path fill="none" stroke="#3C4352" stroke-width="3" stroke-linecap="round" stroke-linejoin="round" stroke-miterlimit="10" d="
	M465.8,335.7H14.6c-1.5,0-2.5-1-2.5-2.5V15.5c0-1.5,1-2.5,2.5-2.5h451.2c1.5,0,2.5,1,2.5,2.5v317.8
	C468.2,334.7,467,335.7,465.8,335.7z"/>
<path fill="none" stroke="#3C4352" stroke-width="3" stroke-linecap="round" stroke-linejoin="round" stroke-miterlimit="10" d="
	M469.5,344.5H10.8c-4.3,0-7.5-3.2-7.5-7.5V11.6c0-4.3,3.2-7.5,7.5-7.5h458.7c4.3,0,7.5,3.2,7.5,7.5V337
	C477,341.3,473.5,344.5,469.5,344.5z"/>
<g>
	
		<circle fill="none" stroke="#3C4352" stroke-width="2" stroke-linecap="round" stroke-linejoin="round" stroke-miterlimit="10" cx="332.5" cy="195.6" r="1.8"/>
	<path fill="none" stroke="#8BC541" stroke-width="3" stroke-linecap="round" stroke-linejoin="round" stroke-miterlimit="10" d="
		M451.3,321.3h-128c-1.1,0-2-0.9-2-2v-134c0-1.1,0.9-2,2-2h128c1.1,0,2,0.9,2,2v134C453.3,320.4,452.4,321.3,451.3,321.3z"/>
	
		<line fill="none" stroke="#8BC541" stroke-width="3" stroke-linecap="round" stroke-linejoin="round" stroke-miterlimit="10" x1="321.3" y1="208.5" x2="453.3" y2="208.5"/>
	<g>
		<path fill="none" stroke="#8BC541" stroke-width="3" stroke-linecap="round" stroke-linejoin="round" stroke-miterlimit="10" d="
			M436.9,271.2h-10c-0.5,0-1-0.5-1-1v-10c0-0.5,0.5-1,1-1h10c0.6,0,1,0.5,1,1v10C437.9,270.8,437.5,271.2,436.9,271.2z"/>
		<path fill="none" stroke="#3C4352" stroke-width="3" stroke-miterlimit="10" d="M436.9,292.7h-10c-0.5,0-1-0.5-1-1v-10
			c0-0.5,0.5-1,1-1h10c0.6,0,1,0.5,1,1v10C437.9,292.3,437.5,292.7,436.9,292.7z"/>
	</g>
	<path fill="none" stroke="#8BC541" stroke-width="3" stroke-linecap="round" stroke-linejoin="round" stroke-miterlimit="10" d="
		M410.2,260.4c0-19.1-15.5-34.5-34.5-34.5s-34.5,15.5-34.5,34.5c0,4.3,0.8,8.3,2,11.7"/>
	<path fill="none" stroke="#3C4352" stroke-width="3" stroke-linecap="round" stroke-linejoin="round" stroke-miterlimit="10" d="
		M343.3,272.5c4.8,13.3,17.5,22.5,32.2,22.5c19.1,0,34.5-15.5,34.5-34.5h-34.4L343.3,272.5z"/>
	<g>
		<path fill="#3C4352" d="M342.1,193.4C342.1,193.3,342.1,193.3,342.1,193.4l0.2-0.1l2.2,2.4l0,0v-2.2c0-0.1,0-0.1,0.1-0.1h0.5
			c0.1,0,0.1,0,0.1,0.1v3.6c0,0.1-0.1,0.1-0.1,0.1H345l-2.2-2.5l0,0v2.3c0,0.1,0,0.1-0.1,0.1h-0.5c-0.1,0-0.1,0-0.1-0.1V193.4z"/>
		<path fill="#3C4352" d="M346.5,193.5C346.5,193.4,346.5,193.4,346.5,193.5l2.3-0.1c0.1,0,0.1,0,0.1,0.1v0.5c0,0.1,0,0.1-0.1,0.1
			h-1.6v0.9h1.4c0.1,0,0.1,0.1,0.1,0.1v0.5c0,0.1,0,0.1-0.1,0.1h-1.4v1h1.6c0.1,0,0.1,0,0.1,0.1v0.5c0,0.1,0,0.1-0.1,0.1h-2.2
			c-0.1,0-0.1,0-0.1-0.1L346.5,193.5L346.5,193.5z"/>
		<path fill="#3C4352" d="M349.7,193.5C349.7,193.4,349.7,193.4,349.7,193.5l0.6-0.1c0,0,0.1,0,0.1,0.1l0.6,2.1l0,0l0.9-2.2
			c0,0,0-0.1,0.1-0.1h0.1c0.1,0,0.1,0,0.1,0.1l0.9,2.2l0,0l0.6-2.1l0.1-0.1h0.5c0.1,0,0.1,0.1,0.1,0.1l-1.1,3.6l-0.1,0.1H353
			c0,0-0.1,0-0.1-0.1l-1-2.4l0,0l-1,2.4c0,0,0,0.1-0.1,0.1h-0.1c0,0-0.1,0-0.1-0.1L349.7,193.5z"/>
		<path fill="#3C4352" d="M356.1,193.5C356.1,193.4,356.1,193.4,356.1,193.5l0.7-0.1c0.1,0,0.1,0,0.1,0.1l1.1,2.3l0,0l1.1-2.3
			c0,0,0-0.1,0.1-0.1h0.6c0.1,0,0.1,0.1,0.1,0.1l-1.7,3.6c0,0,0,0.1-0.1,0.1H358c-0.1,0-0.1,0-0.1-0.1L356.1,193.5z"/>
		<path fill="#3C4352" d="M360.2,196.6l0.2-0.3c0-0.1,0.1-0.1,0.2,0c0,0,0.5,0.3,0.8,0.3s0.5-0.2,0.5-0.4c0-0.3-0.2-0.5-0.7-0.7
			s-1-0.5-1-1.2c0-0.5,0.4-1.1,1.2-1.1c0.6,0,1,0.3,1.1,0.4c0.1,0,0.1,0.1,0,0.2l-0.2,0.3c0,0.1-0.1,0.1-0.2,0.1
			c0,0-0.5-0.3-0.8-0.3s-0.5,0.2-0.5,0.4c0,0.3,0.2,0.4,0.7,0.6c0.5,0.2,1.2,0.5,1.2,1.3c0,0.6-0.5,1.1-1.3,1.1
			c-0.7,0-1.1-0.3-1.2-0.4C360.2,196.7,360.1,196.7,360.2,196.6z"/>
		<path fill="#3C4352" d="M363.7,196.3c0.2,0,0.5,0.2,0.5,0.5c0,0.2-0.2,0.5-0.5,0.5s-0.5-0.2-0.5-0.5
			C363.3,196.5,363.5,196.3,363.7,196.3z"/>
		<path fill="#3C4352" d="M366.7,193.5C366.7,193.4,366.7,193.4,366.7,193.5l1.7-0.1c0.7,0,1.2,0.5,1.2,1.2c0,0.5-0.3,0.9-0.8,1.1
			l0.8,1.4c0,0.1,0,0.2-0.1,0.2h-0.6h-0.1l-0.7-1.5h-0.6v1.4c0,0.1,0,0.1-0.1,0.1h-0.5c-0.1,0-0.1,0-0.1-0.1L366.7,193.5
			L366.7,193.5z M368.2,195.2c0.3,0,0.5-0.3,0.5-0.6s-0.3-0.5-0.5-0.5h-0.9v1.1H368.2z"/>
		<path fill="#3C4352" d="M370.5,193.5C370.5,193.4,370.5,193.4,370.5,193.5l2.3-0.1c0.1,0,0.1,0,0.1,0.1v0.5c0,0.1,0,0.1-0.1,0.1
			h-1.6v0.9h1.4c0.1,0,0.1,0.1,0.1,0.1v0.5c0,0.1,0,0.1-0.1,0.1h-1.4v1h1.6c0.1,0,0.1,0,0.1,0.1v0.5c0,0.1,0,0.1-0.1,0.1h-2.2
			c-0.1,0-0.1,0-0.1-0.1L370.5,193.5L370.5,193.5z"/>
		<path fill="#3C4352" d="M374.4,194.1h-0.9c-0.1,0-0.1,0-0.1-0.1v-0.5c0-0.1,0-0.1,0.1-0.1h2.3c0.1,0,0.1,0,0.1,0.1v0.5
			c0,0.1,0,0.1-0.1,0.1H375v3c0,0.1-0.1,0.1-0.1,0.1h-0.5c-0.1,0-0.1,0-0.1-0.1v-3H374.4z"/>
		<path fill="#3C4352" d="M376.8,193.5C376.8,193.4,376.8,193.4,376.8,193.5l0.6-0.1c0.1,0,0.1,0,0.1,0.1v2.2c0,0.5,0.3,0.8,0.8,0.8
			s0.8-0.4,0.8-0.8v-2.2c0-0.1,0-0.1,0.1-0.1h0.5c0.1,0,0.1,0,0.1,0.1v2.2c0,0.8-0.7,1.5-1.6,1.5s-1.5-0.7-1.5-1.5L376.8,193.5
			L376.8,193.5z"/>
		<path fill="#3C4352" d="M381,193.5C381,193.4,381,193.4,381,193.5l1.7-0.1c0.7,0,1.2,0.5,1.2,1.2c0,0.5-0.3,0.9-0.8,1.1l0.8,1.4
			c0,0.1,0,0.2-0.1,0.2h-0.6c-0.1,0-0.1,0-0.1,0l-0.7-1.5h-0.6v1.4c0,0.1-0.1,0.1-0.1,0.1h-0.5c-0.1,0-0.1,0-0.1-0.1L381,193.5
			L381,193.5z M382.6,195.2c0.3,0,0.5-0.3,0.5-0.6s-0.3-0.5-0.5-0.5h-0.9v1.1H382.6z"/>
		<path fill="#3C4352" d="M384.8,193.4C384.8,193.3,384.9,193.3,384.8,193.4l0.2-0.1l2.2,2.4l0,0v-2.2c0-0.1,0-0.1,0.1-0.1h0.5
			c0.1,0,0.1,0,0.1,0.1v3.6c0,0.1-0.1,0.1-0.1,0.1h-0.1l-2.2-2.5v2.3c0,0.1,0,0.1-0.1,0.1h-0.5c-0.1,0-0.1,0-0.1-0.1V193.4z"/>
		<path fill="#3C4352" d="M389.3,193.5C389.3,193.4,389.3,193.4,389.3,193.5l0.6-0.1c0.1,0,0.1,0,0.1,0.1v3.6c0,0.1,0,0.1-0.1,0.1
			h-0.5c-0.1,0-0.1,0-0.1-0.1V193.5z"/>
		<path fill="#3C4352" d="M391.3,193.4C391.3,193.3,391.3,193.3,391.3,193.4l0.2-0.1l2.2,2.4l0,0v-2.2c0-0.1,0-0.1,0.1-0.1h0.5
			c0.1,0,0.1,0,0.1,0.1v3.6c0,0.1,0,0.1-0.1,0.1h-0.1l-2.2-2.5l0,0v2.3c0,0.1,0,0.1-0.1,0.1h-0.5c-0.1,0-0.1,0-0.1-0.1V193.4z"/>
		<path fill="#3C4352" d="M397.4,193.3c0.5,0,1,0.2,1.4,0.5c0,0,0,0.1,0,0.2l-0.3,0.4h-0.1c-0.2-0.2-0.5-0.3-0.8-0.3
			c-0.7,0-1.2,0.6-1.2,1.3s0.5,1.3,1.2,1.3c0.3,0,0.5-0.1,0.7-0.1V196h-0.4c-0.1,0-0.1,0-0.1-0.1v-0.4c0-0.1,0-0.1,0.1-0.1h1.1
			c0.1,0,0.1,0,0.1,0.1v1.4v0.1c0,0-0.6,0.4-1.4,0.4c-1.1,0-2-0.9-2-2C395.5,194.2,396.3,193.3,397.4,193.3z"/>
	</g>
</g>
<g display="none">
	
		<circle display="inline" fill="none" stroke="#3C4352" stroke-width="2" stroke-linecap="round" stroke-linejoin="round" stroke-miterlimit="10" cx="333.1" cy="41" r="1.8"/>
	
		<path display="inline" fill="none" stroke="#8BC541" stroke-width="3" stroke-linecap="round" stroke-linejoin="round" stroke-miterlimit="10" d="
		M451.6,166.6h-128c-1.1,0-2-0.9-2-2v-134c0-1.1,0.9-2,2-2h128c1.1,0,2,0.9,2,2v134C453.6,165.6,452.7,166.6,451.6,166.6z"/>
	
		<line display="inline" fill="none" stroke="#8BC541" stroke-width="3" stroke-linecap="round" stroke-linejoin="round" stroke-miterlimit="10" x1="321.6" y1="53.8" x2="453.6" y2="53.8"/>
	
		<path display="inline" fill="none" stroke="#8BC541" stroke-width="3" stroke-linecap="round" stroke-linejoin="round" stroke-miterlimit="10" d="
		M389.1,115.7c9.8,0,18,5.8,21.5,14.3l23.6-15.2c-8.8-16-25.5-26.8-45-26.8s-36.5,10.7-45,26.8l23.6,15.2
		C371.2,121.5,379.4,115.7,389.1,115.7z"/>
	
		<path display="inline" fill="none" stroke="#3C4352" stroke-width="3" stroke-linecap="round" stroke-linejoin="round" stroke-miterlimit="10" d="
		M384.7,131.7c1,2,3.5,2.5,5.3,1.5c2-1,2.5-3.5,1.5-5.3l-15.2-20.5c-0.3-0.3-0.5-0.5-1-0.3c-0.5,0.3-0.5,0.5-0.3,1L384.7,131.7z"/>
	<g display="inline">
		<path fill="#3C4352" d="M343.8,39.2C343.8,39.1,343.8,39.1,343.8,39.2l0.6-0.1c0.1,0,0.1,0.1,0.1,0.1v3h1.4c0.1,0,0.1,0.1,0.1,0.1
			v0.5c0,0.1,0,0.1-0.1,0.1h-2c-0.1,0-0.1-0.1-0.1-0.1V39.2z"/>
		<path fill="#3C4352" d="M346.8,39.2C346.8,39.1,346.8,39.1,346.8,39.2l0.6-0.1c0.1,0,0.1,0.1,0.1,0.1v3.6c0,0.1,0,0.1-0.1,0.1
			h-0.5c-0.1,0-0.1-0.1-0.1-0.1V39.2z"/>
		<path fill="#3C4352" d="M348.3,39.2C348.3,39.1,348.3,39.1,348.3,39.2l0.7-0.1c0.1,0,0.1,0,0.1,0.1l1.1,2.3l0,0l1.1-2.3
			c0,0,0-0.1,0.1-0.1h0.6c0.1,0,0.1,0.1,0.1,0.1l-1.7,3.6c0,0,0,0.1-0.1,0.1h-0.1c0,0-0.1,0-0.1-0.1L348.3,39.2z"/>
		<path fill="#3C4352" d="M352.6,39.2C352.6,39.1,352.6,39.1,352.6,39.2l2.3-0.1c0.1,0,0.1,0.1,0.1,0.1v0.5c0,0.1,0,0.1-0.1,0.1
			h-1.6v0.9h1.4c0.1,0,0.1,0.1,0.1,0.1v0.5c0,0.1,0,0.1-0.1,0.1h-1.4v1h1.6c0.1,0,0.1,0.1,0.1,0.1V43c0,0.1,0,0.1-0.1,0.1h-2.2
			c-0.1,0-0.1-0.1-0.1-0.1L352.6,39.2L352.6,39.2z"/>
		<path fill="#3C4352" d="M357,39.2C357,39.1,357,39.1,357,39.2l0.7-0.1c0,0,0.1,0,0.1,0.1l1.1,2.3l0,0l1.1-2.3c0,0,0-0.1,0.1-0.1
			h0.6c0.1,0,0.1,0.1,0.1,0.1l-1.7,3.6c0,0,0,0.1-0.1,0.1h-0.1c0,0-0.1,0-0.1-0.1L357,39.2z"/>
		<path fill="#3C4352" d="M361.4,39.2C361.4,39.1,361.4,39.1,361.4,39.2l0.6-0.1c0.1,0,0.1,0.1,0.1,0.1v3.6c0,0.1-0.1,0.1-0.1,0.1
			h-0.5c-0.1,0-0.1-0.1-0.1-0.1V39.2z"/>
		<path fill="#3C4352" d="M363.1,42.3l0.2-0.3c0-0.1,0.1-0.1,0.2,0c0,0,0.5,0.3,0.8,0.3s0.5-0.2,0.5-0.4c0-0.3-0.2-0.5-0.7-0.7
			s-1-0.5-1-1.2c0-0.5,0.4-1.1,1.2-1.1c0.6,0,1,0.3,1.1,0.4c0.1,0,0.1,0.1,0,0.2l-0.2,0.3c0,0.1-0.1,0.1-0.2,0.1
			c0,0-0.5-0.3-0.8-0.3s-0.5,0.2-0.5,0.4c0,0.3,0.2,0.4,0.7,0.6c0.5,0.2,1.2,0.5,1.2,1.3c0,0.6-0.5,1.1-1.3,1.1
			c-0.7,0-1.1-0.3-1.2-0.4C363.1,42.5,363.1,42.4,363.1,42.3z"/>
		<path fill="#3C4352" d="M366.5,39.2C366.5,39.1,366.5,39.1,366.5,39.2l0.6-0.1c0.1,0,0.1,0.1,0.1,0.1v3.6c0,0.1-0.1,0.1-0.1,0.1
			h-0.5c-0.1,0-0.1-0.1-0.1-0.1V39.2z"/>
		<path fill="#3C4352" d="M369,39.8h-0.9c-0.1,0-0.1-0.1-0.1-0.1v-0.5c0-0.1,0-0.1,0.1-0.1h2.3c0.1,0,0.1,0.1,0.1,0.1v0.5
			c0,0.1,0,0.1-0.1,0.1h-0.8v3c0,0.1,0,0.1-0.1,0.1H369c-0.1,0-0.1-0.1-0.1-0.1v-3H369z"/>
		<path fill="#3C4352" d="M373.1,39c1.1,0,2,0.9,2,2s-0.9,2-2,2s-2-0.9-2-2C371.2,39.9,371.9,39,373.1,39z M373.1,42.2
			c0.7,0,1.3-0.6,1.3-1.3s-0.6-1.3-1.3-1.3c-0.7,0-1.3,0.6-1.3,1.3C371.9,41.6,372.4,42.2,373.1,42.2z"/>
		<path fill="#3C4352" d="M376,39.2C376,39.1,376,39.1,376,39.2l1.7-0.1c0.7,0,1.2,0.5,1.2,1.2c0,0.5-0.3,0.9-0.8,1.1l0.8,1.4
			c0,0.1,0,0.2-0.1,0.2h-0.6c0,0-0.1,0-0.1-0.1l-0.7-1.5h-0.7v1.4c0,0.1-0.1,0.1-0.1,0.1h-0.5c-0.1,0-0.1-0.1-0.1-0.1L376,39.2
			L376,39.2z M377.6,40.9c0.3,0,0.5-0.3,0.5-0.6s-0.3-0.5-0.5-0.5h-0.9v1.1H377.6z"/>
		<path fill="#3C4352" d="M379.6,42.3l0.2-0.3c0-0.1,0.1-0.1,0.2,0c0,0,0.5,0.3,0.8,0.3s0.5-0.2,0.5-0.4c0-0.3-0.2-0.5-0.7-0.7
			s-1-0.5-1-1.2c0-0.5,0.4-1.1,1.2-1.1c0.6,0,1,0.3,1.1,0.4c0.1,0,0.1,0.1,0,0.2l-0.2,0.3c0,0.1-0.1,0.1-0.2,0.1
			c0,0-0.5-0.3-0.8-0.3s-0.5,0.2-0.5,0.4c0,0.3,0.2,0.4,0.7,0.6c0.5,0.2,1.2,0.5,1.2,1.3c0,0.6-0.5,1.1-1.3,1.1
			c-0.7,0-1.1-0.3-1.2-0.4C379.6,42.5,379.6,42.4,379.6,42.3z"/>
	</g>
	<g display="inline">
		<path fill="#3C4352" d="M382.9,63c0.2-0.1,0.4,0,0.5,0.2l0.2,0.5c0.1,0.3,0,0.5-0.4,0.6c-1,0.3-4.8,2.4-5.6,5.4c0,0,1.5-1,3.3-1
			c2.4,0,4.6,1.9,4.6,4.7c0,2.7-2.1,4.9-4.8,4.9c-3.5,0-5-2.7-5-6.2C375.8,66.5,380.7,63.8,382.9,63z M384.1,73.5
			c0-1.9-1.5-3.3-3.2-3.3c-2.1,0-3.4,1.4-3.4,1.4c-0.4,2.1,0.5,5.4,3.4,5.4C382.6,76.9,384.1,75.4,384.1,73.5z"/>
		<path fill="#3C4352" d="M387.8,74.4v-0.8l8.2-10.3c0.1-0.1,0.1-0.1,0.3-0.1h0.4c0.2,0,0.4,0.2,0.4,0.4v9.9h1.8
			c0.2,0,0.4,0.2,0.4,0.4v0.5c0,0.2-0.2,0.4-0.4,0.4h-1.7v2.9c0,0.2-0.2,0.4-0.4,0.4h-0.7c-0.2,0-0.4-0.2-0.4-0.4v-2.9h-7.4
			C388,74.8,387.8,74.6,387.8,74.4z M395.7,73.5V66l-6.1,7.5H395.7z"/>
	</g>
	<g display="inline">
		<path fill="#8BC541" d="M330.8,142.7L330.8,142.7c0.2-0.1,0.2-0.1,0.3-0.1c0,0.1,0.4,0.4,0.8,0.4s0.8-0.3,0.8-0.7s-0.3-0.7-1-0.7
			h-0.3c-0.1,0-0.1,0-0.1-0.1v-0.1c0-0.1,0-0.1,0.1-0.1h0.3c0.6,0,0.9-0.3,0.9-0.7s-0.3-0.7-0.7-0.7c-0.4,0-0.6,0.2-0.7,0.4
			c0,0-0.1,0.1-0.1,0l-0.1-0.1v-0.1c0,0,0.4-0.5,1-0.5c0.7,0,1.1,0.4,1.1,1c0,0.4-0.3,0.8-0.6,0.9l0,0c0.3,0.1,0.7,0.4,0.7,0.9
			c0,0.6-0.5,1.1-1.2,1.1s-1-0.4-1.1-0.5C330.7,142.8,330.7,142.8,330.8,142.7z"/>
		<path fill="#8BC541" d="M334,141.4c0-1.2,0.5-1.9,1.4-1.9s1.3,0.7,1.3,1.9s-0.5,1.9-1.3,1.9C334.5,143.4,334,142.6,334,141.4z
			 M336.3,141.4c0-1-0.3-1.6-1-1.6c-0.6,0-1,0.6-1,1.6s0.3,1.6,1,1.6S336.3,142.4,336.3,141.4z"/>
		<path fill="#8BC541" d="M337.8,142L337.8,142c0-0.2,0-0.2,0.1-0.2h1.2c0.1,0,0.1,0,0.1,0.1v0.1c0,0.1,0,0.1-0.1,0.1L337.8,142
			C337.8,142.1,337.8,142.1,337.8,142z"/>
		<path fill="#8BC541" d="M340.3,139.6C340.3,139.5,340.3,139.5,340.3,139.6l1.3-0.1c1.1,0,1.9,0.9,1.9,1.9c0,1.1-0.9,1.9-1.9,1.9
			h-1.2c-0.1,0-0.1-0.1-0.1-0.1L340.3,139.6L340.3,139.6z M341.6,142.9c0.9,0,1.6-0.7,1.6-1.6c0-0.9-0.7-1.6-1.6-1.6h-0.8v3
			L341.6,142.9L341.6,142.9z"/>
		<path fill="#8BC541" d="M345.1,141.9c0.2,0,0.5,0.1,0.5,0.1c0-0.4,0-0.6-0.4-0.6c-0.3,0-0.6,0.1-0.7,0.1s-0.1,0-0.1-0.1v-0.1
			c0-0.1,0-0.1,0.1-0.1c0,0,0.4-0.1,0.8-0.1c0.6,0,0.7,0.3,0.7,0.9v1.2c0,0.1,0,0.1-0.1,0.1h-0.1c-0.1,0-0.1,0-0.1-0.1V143
			c-0.1,0.1-0.3,0.3-0.7,0.3c-0.4,0-0.7-0.3-0.7-0.7C344.2,142.2,344.5,141.9,345.1,141.9z M344.9,143c0.3,0,0.5-0.2,0.6-0.3v-0.4
			c-0.1,0-0.2-0.1-0.5-0.1s-0.5,0.2-0.5,0.4C344.5,142.9,344.7,143,344.9,143z"/>
		<path fill="#8BC541" d="M346.5,141.2C346.5,141.1,346.5,141.1,346.5,141.2l0.3-0.1c0,0,0.1,0,0.1,0.1l0.8,1.7l0,0l0.8-1.7l0.1-0.1
			h0.2c0.1,0,0.1,0.1,0.1,0.1l-1.7,3.6l-0.1,0.1h-0.2c-0.1,0-0.1-0.1-0.1-0.1l0.7-1.5L346.5,141.2z"/>
		<path fill="#8BC541" d="M351.7,139.6C351.7,139.5,351.8,139.5,351.7,139.6l0.2-0.1c0,0,0.1,0,0.1,0.1l1.1,3l0,0l1.1-3l0.1-0.1h0.1
			c0,0,0.1,0,0.1,0.1l0.7,3.6c0,0.1,0,0.1-0.1,0.1h-0.2c0,0-0.1,0-0.1-0.1l-0.5-2.8l0,0l-1,2.8l-0.1,0.1h-0.1c0,0-0.1,0-0.1-0.1
			l-1-2.8l0,0l-0.5,2.8l-0.1,0.1h-0.2c-0.1,0-0.1-0.1-0.1-0.1L351.7,139.6z"/>
		<path fill="#8BC541" d="M355.9,139.9c0-0.1,0.1-0.3,0.3-0.3c0.2,0,0.3,0.1,0.3,0.3c0,0.1-0.1,0.3-0.3,0.3S355.9,140.1,355.9,139.9
			z M356,141.2C356,141.1,356,141.1,356,141.2l0.3-0.1c0.1,0,0.1,0.1,0.1,0.1v2c0,0.1,0,0.1-0.1,0.1h-0.2c-0.1,0-0.1-0.1-0.1-0.1
			L356,141.2L356,141.2z"/>
		<path fill="#8BC541" d="M357.4,141.2C357.4,141.1,357.5,141.1,357.4,141.2l0.2-0.1c0.1,0,0.1,0,0.1,0.1v0.2c0,0,0.3-0.3,0.8-0.3
			c0.6,0,0.9,0.4,0.9,1v1.2c0,0.1,0,0.1-0.1,0.1H359c-0.1,0-0.1-0.1-0.1-0.1v-1.2c0-0.4-0.2-0.6-0.5-0.6c-0.4,0-0.7,0.3-0.7,0.3v1.5
			c0,0.1,0,0.1-0.1,0.1h-0.2c-0.1,0-0.1-0.1-0.1-0.1L357.4,141.2L357.4,141.2z"/>
	</g>
	<g display="inline">
		<path fill="#3C4352" d="M330.8,151.5L330.8,151.5c0.2-0.1,0.2-0.1,0.3-0.1c0,0.1,0.4,0.4,0.8,0.4s0.8-0.3,0.8-0.7s-0.3-0.7-1-0.7
			h-0.3c-0.1,0-0.1,0-0.1-0.1v-0.1c0-0.1,0-0.1,0.1-0.1h0.3c0.6,0,0.9-0.3,0.9-0.7s-0.3-0.7-0.7-0.7c-0.4,0-0.6,0.2-0.7,0.4
			c0,0-0.1,0.1-0.1,0L331,149v-0.1c0,0,0.4-0.5,1-0.5c0.7,0,1.1,0.4,1.1,1c0,0.4-0.3,0.8-0.6,0.9l0,0c0.3,0.1,0.7,0.4,0.7,0.9
			c0,0.6-0.5,1.1-1.2,1.1s-1-0.4-1.1-0.5C330.7,151.6,330.7,151.5,330.8,151.5z"/>
		<path fill="#3C4352" d="M333.7,151.1v-0.2l2.1-2.5c0,0,0,0,0.1,0h0.1c0.1,0,0.1,0,0.1,0.1v2.4h0.5c0.1,0,0.1,0,0.1,0.1v0.1
			c0,0.1,0,0.1-0.1,0.1h-0.5v0.8c0,0.1,0,0.1-0.1,0.1h-0.2c-0.1,0-0.1-0.1-0.1-0.1v-0.8L333.7,151.1
			C333.8,151.2,333.7,151.2,333.7,151.1z M335.8,150.9v-2l-1.6,1.9L335.8,150.9L335.8,150.9z"/>
	</g>
	<g display="inline">
		<path fill="#8BC541" d="M415.4,142.4l0.2-0.1c0.1,0,0.1,0,0.2,0c0,0.1,0.4,0.4,0.8,0.4s0.8-0.3,0.8-0.7s-0.3-0.7-1-0.7h-0.3
			c-0.1,0-0.1,0-0.1-0.1v-0.1c0-0.1,0-0.1,0.1-0.1h0.3c0.6,0,0.9-0.3,0.9-0.7s-0.3-0.7-0.7-0.7s-0.6,0.2-0.7,0.4c0,0-0.1,0.1-0.1,0
			l-0.1-0.1v-0.1c0,0,0.4-0.5,1-0.5c0.7,0,1.1,0.4,1.1,1c0,0.4-0.3,0.8-0.6,0.9l0,0c0.3,0.1,0.7,0.4,0.7,0.9c0,0.6-0.5,1.1-1.2,1.1
			s-1-0.4-1.1-0.5C415.4,142.5,415.4,142.4,415.4,142.4z"/>
		<path fill="#8BC541" d="M418.8,141.1c0-1.2,0.5-1.9,1.4-1.9s1.3,0.7,1.3,1.9s-0.5,1.9-1.3,1.9S418.8,142.3,418.8,141.1z
			 M421,141.1c0-1-0.3-1.6-1-1.6c-0.6,0-1,0.6-1,1.6s0.3,1.6,1,1.6C420.6,142.7,421,142.1,421,141.1z"/>
		<path fill="#8BC541" d="M422.5,141.7L422.5,141.7c0-0.2,0-0.2,0.1-0.2h1.2c0.1,0,0.1,0,0.1,0.1v0.1c0,0.1,0,0.1-0.1,0.1
			L422.5,141.7C422.5,141.8,422.5,141.7,422.5,141.7z"/>
		<path fill="#8BC541" d="M425,139.3C425,139.2,425,139.2,425,139.3l1.3-0.1c1.1,0,1.9,0.9,1.9,1.9c0,1.1-0.9,1.9-1.9,1.9h-1.2
			c-0.1,0-0.1-0.1-0.1-0.1L425,139.3L425,139.3z M426.2,142.6c0.9,0,1.6-0.7,1.6-1.6c0-0.9-0.7-1.6-1.6-1.6h-0.8v3L426.2,142.6
			L426.2,142.6z"/>
		<path fill="#8BC541" d="M429.7,141.6c0.2,0,0.5,0.1,0.5,0.1c0-0.4,0-0.6-0.4-0.6c-0.3,0-0.6,0.1-0.7,0.1s-0.1,0-0.1-0.1V141
			c0-0.1,0-0.1,0.1-0.1c0,0,0.4-0.1,0.8-0.1c0.6,0,0.7,0.3,0.7,0.9v1.2c0,0.1,0,0.1-0.1,0.1h-0.1c-0.1,0-0.1,0-0.1-0.1v-0.2
			c-0.1,0.1-0.3,0.3-0.7,0.3c-0.4,0-0.7-0.3-0.7-0.7C428.8,141.9,429.1,141.6,429.7,141.6z M429.6,142.7c0.3,0,0.5-0.2,0.6-0.3V142
			c-0.1,0-0.2-0.1-0.5-0.1s-0.5,0.2-0.5,0.4C429.2,142.5,429.3,142.7,429.6,142.7z"/>
		<path fill="#8BC541" d="M431.3,140.9C431.3,140.8,431.3,140.8,431.3,140.9l0.3-0.1c0,0,0.1,0,0.1,0.1l0.8,1.7l0,0l0.8-1.7l0.1-0.1
			h0.2c0.1,0,0.1,0.1,0.1,0.1l-1.7,3.6l-0.1,0.1h-0.2c-0.1,0-0.1-0.1-0.1-0.1l0.7-1.5L431.3,140.9z"/>
		<path fill="#8BC541" d="M436.3,139.2C436.4,139.2,436.4,139.1,436.3,139.2l0.2-0.1c0,0,0.1,0,0.1,0.1l1.1,3l0,0l1.1-3l0.1-0.1h0.1
			c0,0,0.1,0,0.1,0.1l0.7,3.6c0,0.1,0,0.1-0.1,0.1h-0.2c0,0-0.1,0-0.1-0.1l-0.5-2.8l0,0l-1,2.8l-0.1,0.1h-0.1c0,0-0.1,0-0.1-0.1
			l-1-2.8l0,0l-0.5,2.8l-0.1,0.1h-0.2c-0.1,0-0.1-0.1-0.1-0.1L436.3,139.2z"/>
		<path fill="#8BC541" d="M441.4,141.6c0.2,0,0.5,0.1,0.5,0.1c0-0.4,0-0.6-0.4-0.6c-0.3,0-0.6,0.1-0.7,0.1s-0.1,0-0.1-0.1V141
			c0-0.1,0-0.1,0.1-0.1c0,0,0.4-0.1,0.8-0.1c0.6,0,0.7,0.3,0.7,0.9v1.2c0,0.1,0,0.1-0.1,0.1h-0.1c-0.1,0-0.1,0-0.1-0.1v-0.2
			c-0.1,0.1-0.3,0.3-0.7,0.3c-0.4,0-0.7-0.3-0.7-0.7C440.5,141.9,440.8,141.6,441.4,141.6z M441.2,142.7c0.3,0,0.5-0.2,0.6-0.3V142
			c-0.1,0-0.2-0.1-0.5-0.1s-0.5,0.2-0.5,0.4C440.8,142.5,441,142.7,441.2,142.7z"/>
		<path fill="#8BC541" d="M443.8,141.8l-0.7-0.9c-0.1-0.1,0-0.1,0.1-0.1h0.2h0.1l0.5,0.8l0,0l0.5-0.8c0,0,0,0,0.1,0h0.2
			c0.1,0,0.1,0.1,0.1,0.1l-0.7,0.9l0.7,1c0,0.1,0,0.1-0.1,0.1h-0.2c0,0-0.1,0-0.1-0.1l-0.6-0.8l0,0l-0.6,0.8c0,0,0,0-0.1,0h-0.1
			c-0.1,0-0.1-0.1-0.1-0.1L443.8,141.8z"/>
	</g>
	<g display="inline">
		<path fill="#3C4352" d="M437.8,148.7l-0.4,0.3h-0.1l-0.1-0.1v-0.1l0.8-0.8h0.1c0.1,0,0.1,0,0.1,0.1v3.5c0,0.1,0,0.1-0.1,0.1h-0.2
			c-0.1,0-0.1-0.1-0.1-0.1L437.8,148.7L437.8,148.7z"/>
		<path fill="#3C4352" d="M439.4,151.1L439.4,151.1c0.1-0.1,0.2-0.2,0.2-0.1c0.1,0.1,0.3,0.4,0.8,0.4s0.9-0.5,0.9-0.9
			s-0.3-0.8-0.9-0.8h-0.8c-0.1,0-0.2-0.1-0.2-0.2V148c0-0.1,0-0.1,0.1-0.1h1.7c0.1,0,0.1,0,0.1,0.1v0.2c0,0.1,0,0.1-0.1,0.1h-1.4v1
			h0.6c0.8,0,1.3,0.4,1.3,1.2c0,0.7-0.5,1.3-1.3,1.3c-0.6,0-0.9-0.3-1.1-0.5C439.3,151.2,439.3,151.2,439.4,151.1z"/>
		<path fill="#3C4352" d="M442.9,151.5c0.2-0.1,1.2-0.6,1.4-1.4c0,0-0.4,0.2-0.8,0.2c-0.6,0-1.2-0.5-1.2-1.2s0.6-1.3,1.2-1.3
			c0.9,0,1.3,0.7,1.3,1.6c0,1.5-1.3,2.1-1.8,2.3c-0.1,0-0.1,0-0.1-0.1V151.5C442.8,151.6,442.8,151.5,442.9,151.5z M444.4,149.6
			c0.1-0.6-0.1-1.4-0.9-1.4c-0.5,0-0.8,0.4-0.8,0.9s0.4,0.9,0.8,0.9C444.1,150,444.4,149.6,444.4,149.6z"/>
	</g>
</g>
<g>
	
		<circle fill="none" stroke="#3C4352" stroke-width="2" stroke-linecap="round" stroke-linejoin="round" stroke-miterlimit="10" cx="38.3" cy="195.6" r="1.8"/>
	<path fill="none" stroke="#8BC541" stroke-width="3" stroke-linecap="round" stroke-linejoin="round" stroke-miterlimit="10" d="
		M304.7,321.3h-276c-1.1,0-2-0.9-2-2v-134c0-1.1,0.9-2,2-2h276c1.1,0,2,0.9,2,2v134C306.7,320.4,305.8,321.3,304.7,321.3z"/>
	
		<line fill="none" stroke="#8BC541" stroke-width="3" stroke-linecap="round" stroke-linejoin="round" stroke-miterlimit="10" x1="26.7" y1="208.5" x2="306.7" y2="208.5"/>
	<g>
		<path fill="#3C4352" d="M51,265.6c3.7-4,7.5-8,11-12c3-3.2,4.5-6,4.5-8.3c0-2.5-1.8-5.8-6.3-5.8c-2.7,0-5,2-6.5,3.5
			c-0.3,0.3-0.8,0.3-1.3,0l-1-0.8c-0.3-0.3-0.3-0.8,0-1.3c0,0,3.2-4.5,8.5-4.5c6.5,0,9.8,4.3,9.8,8.8c0,4-2.5,7-5.8,10.3
			c-3,3-5.8,6.3-8.8,9.3h13.3c0.5,0,0.8,0.5,0.8,0.8v1.3c0,0.5-0.5,0.8-0.8,0.8H51.3c-0.5,0-0.8-0.5-0.8-0.8v-1.3L51,265.6L51,265.6
			z"/>
		<path fill="#3C4352" d="M76.8,266.7l12.8-26.5H74.9c-0.5,0-0.8-0.5-0.8-0.8v-1.3c0-0.5,0.5-0.8,0.8-0.8h18.3
			c0.5,0,0.8,0.5,0.8,0.8v0.3l-13.5,28.2c-0.3,0.5-0.8,1.3-1.5,1.3h-1.4c-0.5,0-0.8-0.5-0.8-0.8C76.8,267.1,76.8,266.7,76.8,266.7z"
			/>
		<path fill="#3C4352" d="M99.4,263.2c1.5,0,3,0.8,3,4c0,3.7-2.2,7-3.7,8.5c-0.5,0.5-0.8,0.3-1,0l-0.8-0.8c-0.3-0.3-0.3-0.8,0.3-1
			c0.5-0.5,2.7-2.5,2.7-5.8c-0.3,0-0.3,0-0.5,0c-1.5,0-2.5-1.3-2.5-2.5C96.6,264.5,97.8,263.2,99.4,263.2z"/>
		<path fill="#3C4352" d="M110.3,265.9c2-0.8,10-5.3,11.7-11.2c0,0-3,2-7,2c-5.3,0-9.8-3.7-9.8-9.8c0-5.8,4.5-10.6,10-10.6
			c7.2,0,10.6,5.8,10.6,13c0,12-10.3,17.5-15,19.5c-0.5,0.3-0.8,0-1-0.5l-0.5-1C109.4,266.7,109.7,266.2,110.3,265.9z M122.7,250.7
			c0.8-4.5-1-11.2-7.2-11.2c-3.7,0-6.7,3.2-6.7,7.2s3,7,6.7,7C119.9,253.7,122.7,250.7,122.7,250.7z"/>
		<path fill="#3C4352" d="M131.9,252.4c0-10,4-16,11-16s11,6,11,16s-4,16-11,16C136,268.5,131.9,262.4,131.9,252.4z M150.7,252.4
			c0-8.3-2.7-13-7.7-13s-7.7,4.8-7.7,13c0,8.2,2.7,13,7.7,13C147.9,265.4,150.7,260.9,150.7,252.4z"/>
		<path fill="#3C4352" d="M158.9,265.6c3.7-4,7.5-8,11-12c3-3.2,4.5-6,4.5-8.3c0-2.5-1.8-5.8-6.3-5.8c-2.7,0-5,2-6.5,3.5
			c-0.3,0.3-0.8,0.3-1.3,0l-1-0.8c-0.3-0.3-0.3-0.8,0-1.3c0,0,3.2-4.5,8.8-4.5c6.5,0,9.8,4.3,9.8,8.8c0,4-2.5,7-5.8,10.3
			c-3,3-5.8,6.3-8.8,9.3h13.3c0.5,0,0.8,0.5,0.8,0.8v1.3c0,0.5-0.5,0.8-0.8,0.8h-16.8c-0.5,0-0.8-0.5-0.8-0.8L158.9,265.6
			L158.9,265.6L158.9,265.6z"/>
	</g>
	<g>
		<path fill="#3C4352" d="M47.9,193.5C47.9,193.4,47.9,193.4,47.9,193.5l0.7-0.1c0.1,0,0.1,0,0.1,0.1l1.1,2.3l0,0l1.1-2.3
			c0,0,0-0.1,0.1-0.1h0.6c0.1,0,0.1,0.1,0.1,0.1l-1.7,3.6c0,0,0,0.1-0.1,0.1h-0.1c0,0-0.1,0-0.1-0.1L47.9,193.5z"/>
		<path fill="#3C4352" d="M52.2,193.5C52.2,193.4,52.2,193.4,52.2,193.5l0.6-0.1c0.1,0,0.1,0,0.1,0.1v3.6c0,0.1-0.1,0.1-0.1,0.1
			h-0.5c-0.1,0-0.1,0-0.1-0.1V193.5z"/>
		<path fill="#3C4352" d="M54,196.6l0.2-0.3c0-0.1,0.1-0.1,0.2,0c0,0,0.5,0.3,0.8,0.3s0.5-0.2,0.5-0.4c0-0.3-0.2-0.5-0.7-0.7
			s-1-0.5-1-1.2c0-0.5,0.4-1.1,1.2-1.1c0.6,0,1,0.3,1.1,0.4c0.1,0,0.1,0.1,0,0.2l-0.2,0.3c0,0.1-0.1,0.1-0.2,0.1
			c0,0-0.5-0.3-0.8-0.3s-0.5,0.2-0.5,0.4c0,0.3,0.2,0.4,0.7,0.6c0.5,0.2,1.2,0.5,1.2,1.3c0,0.6-0.5,1.1-1.3,1.1
			c-0.7,0-1.1-0.3-1.2-0.4C54,196.7,54,196.7,54,196.6z"/>
		<path fill="#3C4352" d="M57.4,193.5C57.4,193.4,57.4,193.4,57.4,193.5l0.6-0.1c0.1,0,0.1,0,0.1,0.1v3.6c0,0.1-0.1,0.1-0.1,0.1
			h-0.5c-0.1,0-0.1,0-0.1-0.1V193.5z"/>
		<path fill="#3C4352" d="M59.8,194.1H59c-0.1,0-0.1,0-0.1-0.1v-0.5c0-0.1,0-0.1,0.1-0.1h2.3c0.1,0,0.1,0,0.1,0.1v0.5
			c0,0.1,0,0.1-0.1,0.1h-0.8v3c0,0.1-0.1,0.1-0.1,0.1H60c-0.1,0-0.1,0-0.1-0.1L59.8,194.1L59.8,194.1z"/>
		<path fill="#3C4352" d="M63.9,193.3c1.1,0,2,0.9,2,2s-0.9,2-2,2s-2-0.9-2-2C62,194.2,62.9,193.3,63.9,193.3z M63.9,196.5
			c0.7,0,1.3-0.6,1.3-1.3s-0.6-1.3-1.3-1.3s-1.3,0.6-1.3,1.3C62.7,195.9,63.2,196.5,63.9,196.5z"/>
		<path fill="#3C4352" d="M66.9,193.5C66.9,193.4,66.9,193.4,66.9,193.5l1.7-0.1c0.7,0,1.2,0.5,1.2,1.2c0,0.5-0.3,0.9-0.8,1.1
			l0.8,1.4c0,0.1,0,0.2-0.1,0.2H69h-0.1l-0.7-1.5h-0.6v1.4c0,0.1-0.1,0.1-0.1,0.1H67c-0.1,0-0.1,0-0.1-0.1L66.9,193.5
			C67,193.5,66.9,193.5,66.9,193.5z M68.4,195.2c0.3,0,0.5-0.3,0.5-0.6s-0.3-0.5-0.5-0.5h-0.9v1.1H68.4z"/>
		<path fill="#3C4352" d="M70.5,196.6l0.2-0.3c0-0.1,0.1-0.1,0.2,0c0,0,0.5,0.3,0.8,0.3s0.5-0.2,0.5-0.4c0-0.3-0.2-0.5-0.7-0.7
			s-1-0.5-1-1.2c0-0.5,0.4-1.1,1.2-1.1c0.6,0,1,0.3,1.1,0.4c0.1,0,0.1,0.1,0,0.2l-0.2,0.3c0,0.1-0.1,0.1-0.2,0.1
			c0,0-0.5-0.3-0.8-0.3s-0.5,0.2-0.5,0.4c0,0.3,0.2,0.4,0.7,0.6c0.5,0.2,1.2,0.5,1.2,1.3c0,0.6-0.5,1.1-1.3,1.1
			c-0.7,0-1.1-0.3-1.2-0.4C70.5,196.7,70.5,196.7,70.5,196.6z"/>
	</g>
	<g>
		<path fill="#8BC541" d="M50.6,285.3c0-0.1,0.1-0.2,0.2-0.2h2.3c1.4,0,2.4,1.1,2.4,2.3c0,1.4-1.1,2.4-2.4,2.4h-1.8v2.5
			c0,0.1-0.1,0.2-0.2,0.2h-0.4c-0.1,0-0.2-0.1-0.2-0.2C50.6,292.4,50.6,285.3,50.6,285.3z M53.2,289.1c0.9,0,1.7-0.7,1.7-1.7
			c0-0.9-0.8-1.6-1.7-1.6h-1.8v3.2L53.2,289.1L53.2,289.1z"/>
		<path fill="#8BC541" d="M56.3,292.3l3.3-7.2c0-0.1,0.1-0.1,0.2-0.1h0.1c0.1,0,0.2,0.1,0.2,0.1l3.2,7.2c0.1,0.1,0,0.3-0.2,0.3h-0.4
			c-0.1,0-0.2-0.1-0.2-0.1l-0.8-1.8H58l-0.8,1.8c0,0.1-0.1,0.1-0.2,0.1h-0.4C56.3,292.6,56.2,292.5,56.3,292.3z M61.4,290.1
			c-0.5-1.2-1.1-2.3-1.6-3.5h-0.1l-1.6,3.5H61.4z"/>
		<path fill="#8BC541" d="M64.5,291.4c0.1-0.1,0.1-0.1,0.2-0.2s0.2-0.2,0.4-0.1c0.1,0.1,0.9,0.8,1.9,0.8c0.9,0,1.5-0.6,1.5-1.2
			c0-0.8-0.7-1.2-1.9-1.7c-1.2-0.5-1.9-1-1.9-2.2c0-0.7,0.6-2,2.2-2c1.1,0,1.9,0.6,1.9,0.6c0.1,0,0.2,0.2,0.1,0.4
			c0,0.1-0.1,0.1-0.1,0.2c-0.1,0.2-0.2,0.2-0.4,0.1c-0.1,0-0.8-0.5-1.4-0.5c-1.2,0-1.5,0.7-1.5,1.2c0,0.7,0.6,1.2,1.5,1.6
			c1.5,0.6,2.3,1.2,2.3,2.3c0,1.1-1.1,2-2.3,2s-2.1-0.8-2.2-0.9C64.5,291.7,64.4,291.7,64.5,291.4z"/>
		<path fill="#8BC541" d="M72.3,285.8h-1.9c-0.1,0-0.2-0.1-0.2-0.2v-0.3c0-0.1,0.1-0.2,0.2-0.2H75c0.1,0,0.2,0.1,0.2,0.2v0.3
			c0,0.1-0.1,0.2-0.2,0.2h-1.9v6.6c0,0.1-0.1,0.2-0.2,0.2h-0.4c-0.1,0-0.2-0.1-0.2-0.2V285.8L72.3,285.8z"/>
		<path fill="#8BC541" d="M79.4,291.5l0.3-0.3c0.1-0.1,0.2-0.1,0.3,0.1c0.1,0.1,0.7,0.8,1.6,0.8c0.8,0,1.6-0.5,1.6-1.4
			c0-0.7-0.6-1.4-2-1.4h-0.6c-0.1,0-0.2-0.1-0.2-0.2v-0.3c0-0.2,0.1-0.2,0.2-0.2h0.6c1.2,0,1.8-0.6,1.8-1.3c0-0.9-0.7-1.4-1.4-1.4
			c-0.7,0-1.2,0.4-1.4,0.7c-0.1,0.1-0.2,0.1-0.3,0l-0.3-0.2c-0.1-0.1-0.1-0.2,0-0.3c0,0,0.8-1,2-1c1.3,0,2.2,0.8,2.2,2
			c0,0.9-0.6,1.5-1.1,1.7l0,0c0.5,0.2,1.3,0.8,1.3,1.8c0,1.2-0.9,2.1-2.3,2.1s-2-0.7-2.1-1C79.3,291.7,79.3,291.5,79.4,291.5z"/>
		<path fill="#8BC541" d="M85.9,289c0-2.3,1-3.8,2.6-3.8s2.6,1.4,2.6,3.8s-1,3.8-2.6,3.8C86.8,292.7,85.9,291.3,85.9,289z M90.3,289
			c0-2-0.7-3-1.9-3c-1.2,0-1.9,1.1-1.9,3s0.7,3,1.9,3C89.6,292,90.3,290.9,90.3,289z"/>
		<path fill="#8BC541" d="M96.5,285.3c0-0.1,0.1-0.2,0.2-0.2h2.4c2.1,0,3.8,1.7,3.8,3.8c0,2.1-1.7,3.8-3.8,3.8h-2.4
			c-0.1,0-0.2-0.1-0.2-0.2V285.3z M98.9,291.8c1.8,0,3-1.3,3-3c0-1.8-1.3-3-3-3h-1.7v6.1h1.7V291.8z"/>
		<path fill="#8BC541" d="M104,292.3l3.3-7.2c0-0.1,0.1-0.1,0.2-0.1h0.1c0.1,0,0.2,0.1,0.2,0.1l3.2,7.2c0.1,0.1,0,0.3-0.2,0.3h-0.4
			c-0.1,0-0.2-0.1-0.2-0.1l-0.8-1.8h-3.8l-0.8,1.8c0,0.1-0.1,0.1-0.2,0.1h-0.4C104,292.6,103.9,292.5,104,292.3z M109.1,290.1
			c-0.5-1.2-1.1-2.3-1.6-3.5h-0.1l-1.6,3.5H109.1z"/>
		<path fill="#8BC541" d="M113.7,289l-2.6-3.6c-0.1-0.1,0-0.3,0.2-0.3h0.5c0.1,0,0.1,0.1,0.2,0.1l2.1,3l2.1-3c0,0,0.1-0.1,0.2-0.1
			h0.5c0.2,0,0.3,0.2,0.2,0.3l-2.6,3.6v3.4c0,0.1-0.1,0.2-0.2,0.2h-0.4c-0.1,0-0.2-0.1-0.2-0.2C113.7,292.4,113.7,289,113.7,289z"/>
		<path fill="#8BC541" d="M118.4,291.4c0.1-0.1,0.1-0.1,0.2-0.2s0.2-0.2,0.4-0.1c0.1,0.1,0.9,0.8,1.9,0.8c0.9,0,1.5-0.6,1.5-1.2
			c0-0.8-0.7-1.2-1.9-1.7c-1.2-0.5-1.9-1-1.9-2.2c0-0.7,0.6-2,2.2-2c1.1,0,1.9,0.6,1.9,0.6c0.1,0,0.2,0.2,0.1,0.4
			c0,0.1-0.1,0.1-0.1,0.2c-0.1,0.2-0.2,0.2-0.4,0.1c-0.1,0-0.8-0.5-1.4-0.5c-1.2,0-1.5,0.7-1.5,1.2c0,0.7,0.6,1.2,1.5,1.6
			c1.5,0.6,2.3,1.2,2.3,2.3c0,1.1-1.1,2-2.3,2c-1.3,0-2.1-0.8-2.2-0.9C118.3,291.7,118.2,291.7,118.4,291.4z"/>
	</g>
</g>
<g>
	<path fill="none" stroke="#8BC541" stroke-width="3" stroke-linecap="round" stroke-linejoin="round" stroke-miterlimit="10" d="
		M157,166.3H29c-1.1,0-2-0.9-2-2v-134c0-1.1,0.9-2,2-2h128c1.1,0,2,0.9,2,2v134C159,165.4,158.1,166.3,157,166.3z"/>
	
		<line fill="none" stroke="#8BC541" stroke-width="3" stroke-linecap="round" stroke-linejoin="round" stroke-miterlimit="10" x1="27" y1="53.5" x2="159" y2="53.5"/>
	<g>
		<path fill="none" stroke="#3C4352" stroke-width="3" stroke-linecap="round" stroke-linejoin="round" stroke-miterlimit="10" d="
			M64.8,89.5c1.3,2,0.3,3.7-2.2,3.7H41.4c-2.5,0-3.5-1.8-2.2-3.7l10.7-19.1c1.3-2,3-2,4.3,0L64.8,89.5z"/>
		<g>
			<path fill="#3C4352" d="M74.9,69.5c0-0.3,0.3-0.8,0.8-0.8h1.5c0.5,0,0.8,0.3,0.8,0.8v15.2c0,4.3,2.5,7.5,6.7,7.5
				c4.3,0,7-3.2,7-7.2V69.7c0-0.3,0.3-0.8,0.8-0.8H94c0.3,0,0.8,0.3,0.8,0.8v15.5c0,5.5-4,9.8-9.8,9.8s-9.8-4.3-9.8-9.8V69.5H74.9z"
				/>
			<path fill="#3C4352" d="M101.4,69.5c0-0.3,0.3-0.8,0.8-0.8h8c4.5,0,8.3,3.7,8.3,8c0,4.5-3.7,8.3-8.3,8.3h-6v8.5
				c0,0.3-0.3,0.8-0.8,0.8h-1.5c-0.5,0-0.8-0.3-0.8-0.8v-24H101.4z M109.9,82.5c3,0,5.5-2.5,5.5-5.5s-2.4-5.3-5.5-5.3h-5.8v10.7h5.8
				V82.5z"/>
		</g>
	</g>
	
		<circle fill="none" stroke="#3C4352" stroke-width="2" stroke-linecap="round" stroke-linejoin="round" stroke-miterlimit="10" cx="38.3" cy="41" r="1.8"/>
	<g>
		<path fill="#3C4352" d="M46.7,39.2C46.7,39.1,46.7,39.1,46.7,39.2l0.6-0.1c0,0,0.1,0,0.1,0.1l0.6,2.1l0,0l0.9-2.2
			c0,0,0-0.1,0.1-0.1h0.1c0.1,0,0.1,0,0.1,0.1l0.9,2.2l0,0l0.6-2.1l0.1-0.1h0.5c0.1,0,0.1,0.1,0.1,0.1l-1,3.6l-0.1,0.1h-0.1
			c0,0-0.1,0-0.1-0.1l-1-2.4l0,0l-1,2.4c0,0,0,0.1-0.1,0.1h-0.1c0,0-0.1,0-0.1-0.1L46.7,39.2z"/>
		<path fill="#3C4352" d="M52.1,39.2C52.1,39.1,52.1,39.1,52.1,39.2l2.3-0.1c0.1,0,0.1,0.1,0.1,0.1v0.5c0,0.1,0,0.1-0.1,0.1h-1.6
			v0.9h1.3c0.1,0,0.1,0.1,0.1,0.1v0.5c0,0.1,0,0.1-0.1,0.1h-1.4v1h1.6c0.1,0,0.1,0.1,0.1,0.1V43c0,0.1,0,0.1-0.1,0.1h-2.1
			c-0.1,0-0.1-0.1-0.1-0.1V39.2z"/>
		<path fill="#3C4352" d="M55.6,39.2C55.6,39.1,55.6,39.1,55.6,39.2l1.4-0.1c0.7,0,1.2,0.4,1.2,1c0,0.4-0.4,0.8-0.6,0.9
			c0.3,0.1,0.7,0.4,0.7,0.9c0,0.6-0.5,1.1-1.2,1.1h-1.3c-0.1,0-0.1-0.1-0.1-0.1L55.6,39.2C55.7,39.2,55.6,39.2,55.6,39.2z
			 M56.9,40.7c0.3,0,0.5-0.2,0.5-0.5s-0.2-0.5-0.5-0.5h-0.6v1H56.9z M56.9,42.2c0.3,0,0.5-0.2,0.5-0.5s-0.3-0.5-0.6-0.5h-0.6v1H56.9
			z"/>
		<path fill="#3C4352" d="M58.9,42.3l0.2-0.3c0-0.1,0.1-0.1,0.2,0c0,0,0.5,0.3,0.8,0.3s0.5-0.2,0.5-0.4c0-0.3-0.2-0.5-0.7-0.7
			s-1-0.5-1-1.2c0-0.5,0.4-1.1,1.2-1.1c0.6,0,1,0.3,1.1,0.4c0.1,0,0.1,0.1,0,0.2L61,39.9c0,0.1-0.1,0.1-0.2,0.1c0,0-0.5-0.3-0.8-0.3
			s-0.5,0.2-0.5,0.4c0,0.3,0.2,0.4,0.7,0.6c0.5,0.2,1.2,0.5,1.2,1.3c0,0.6-0.5,1.1-1.3,1.1c-0.7,0-1.1-0.3-1.2-0.4
			C58.9,42.5,58.9,42.4,58.9,42.3z"/>
		<path fill="#3C4352" d="M62.4,39.2C62.4,39.1,62.4,39.1,62.4,39.2l0.6-0.1c0.1,0,0.1,0.1,0.1,0.1v3.6c0,0.1-0.1,0.1-0.1,0.1h-0.5
			c-0.1,0-0.1-0.1-0.1-0.1V39.2z"/>
		<path fill="#3C4352" d="M64.8,39.8h-0.9c-0.1,0-0.1-0.1-0.1-0.1v-0.5c0-0.1,0-0.1,0.1-0.1h2.3c0.1,0,0.1,0.1,0.1,0.1v0.5
			c0,0.1,0,0.1-0.1,0.1h-0.8v3c0,0.1-0.1,0.1-0.1,0.1h-0.5c-0.1,0-0.1-0.1-0.1-0.1L64.8,39.8L64.8,39.8z"/>
		<path fill="#3C4352" d="M67.3,39.2C67.3,39.1,67.3,39.1,67.3,39.2l2.3-0.1c0.1,0,0.1,0.1,0.1,0.1v0.5c0,0.1,0,0.1-0.1,0.1H68v0.9
			h1.4c0.1,0,0.1,0.1,0.1,0.1v0.5c0,0.1,0,0.1-0.1,0.1H68v1h1.6c0.1,0,0.1,0.1,0.1,0.1V43c0,0.1,0,0.1-0.1,0.1h-2.2
			c-0.1,0-0.1-0.1-0.1-0.1V39.2z"/>
		<path fill="#3C4352" d="M72.1,39.2C72.1,39.1,72.2,39.1,72.1,39.2l0.6-0.1c0.1,0,0.1,0.1,0.1,0.1v2.2c0,0.5,0.3,0.8,0.8,0.8
			s0.8-0.4,0.8-0.8v-2.2c0-0.1,0-0.1,0.1-0.1H75c0.1,0,0.1,0.1,0.1,0.1v2.2c0,0.8-0.7,1.5-1.6,1.5S72,42.2,72,41.4L72.1,39.2
			L72.1,39.2z"/>
		<path fill="#3C4352" d="M76.3,39.2C76.3,39.1,76.3,39.1,76.3,39.2l1.4-0.1c0.7,0,1.2,0.6,1.2,1.2c0,0.7-0.6,1.2-1.2,1.2H77v1.3
			c0,0.1-0.1,0.1-0.1,0.1h-0.5c-0.1,0-0.1-0.1-0.1-0.1V39.2z M77.7,40.9c0.3,0,0.6-0.2,0.6-0.6c0-0.3-0.3-0.5-0.6-0.5h-0.6v1.1H77.7
			z"/>
		<path fill="#3C4352" d="M80.3,39.8h-0.9c-0.1,0-0.1-0.1-0.1-0.1v-0.5c0-0.1,0-0.1,0.1-0.1h2.3c0.1,0,0.1,0.1,0.1,0.1v0.5
			c0,0.1,0,0.1-0.1,0.1H81v3c0,0.1-0.1,0.1-0.1,0.1h-0.5c-0.1,0-0.1-0.1-0.1-0.1V39.8z"/>
		<path fill="#3C4352" d="M82.8,39.2C82.8,39.1,82.8,39.1,82.8,39.2l0.6-0.1c0.1,0,0.1,0.1,0.1,0.1v3.6c0,0.1-0.1,0.1-0.1,0.1h-0.5
			c-0.1,0-0.1-0.1-0.1-0.1V39.2z"/>
		<path fill="#3C4352" d="M85.1,39.1C85.1,39.1,85.1,39,85.1,39.1l0.2-0.1c0,0,0.1,0,0.1,0.1l1.2,2.5l0,0l1.2-2.5c0,0,0-0.1,0.1-0.1
			H88c0.1,0,0.1,0,0.1,0.1l0.7,3.6c0,0.1,0,0.1-0.1,0.1h-0.5c-0.1,0-0.1,0-0.1-0.1l-0.3-2.1l0,0l-1,2.1c0,0,0,0.1-0.1,0.1h-0.1
			c-0.1,0-0.1,0-0.1-0.1l-1-2.1l0,0l-0.3,2.1l-0.1,0.1h-0.5c-0.1,0-0.1-0.1-0.1-0.1L85.1,39.1z"/>
		<path fill="#3C4352" d="M89.7,39.2C89.7,39.1,89.7,39.1,89.7,39.2l2.3-0.1c0.1,0,0.1,0.1,0.1,0.1v0.5c0,0.1,0,0.1-0.1,0.1h-1.6
			v0.9h1.4c0.1,0,0.1,0.1,0.1,0.1v0.5c0,0.1,0,0.1-0.1,0.1h-1.4v1H92c0.1,0,0.1,0.1,0.1,0.1V43c0,0.1,0,0.1-0.1,0.1h-2.2
			c-0.1,0-0.1-0.1-0.1-0.1S89.7,39.2,89.7,39.2z"/>
	</g>
	<g>
		<path fill="#8BC541" d="M39.2,117.5c0-0.1,0.1-0.2,0.2-0.2h0.4c0.1,0,0.2,0.1,0.2,0.2v6.6h3.1c0.1,0,0.2,0.1,0.2,0.2v0.3
			c0,0.1-0.1,0.2-0.2,0.2h-3.7c-0.1,0-0.2-0.1-0.2-0.2V117.5z"/>
		<path fill="#8BC541" d="M44.4,124.5l3.3-7.2c0-0.1,0.1-0.1,0.2-0.1H48c0.1,0,0.2,0.1,0.2,0.1l3.2,7.2c0.1,0.1,0,0.3-0.2,0.3h-0.4
			c-0.1,0-0.2-0.1-0.2-0.1l-0.8-1.8H46l-0.8,1.8c0,0.1-0.1,0.1-0.2,0.1h-0.4C44.4,124.8,44.3,124.7,44.4,124.5z M49.5,122.3
			c-0.5-1.2-1.1-2.3-1.6-3.5h-0.1l-1.6,3.5H49.5z"/>
		<path fill="#8BC541" d="M52.6,123.7c0.1-0.1,0.1-0.1,0.2-0.2c0.1-0.1,0.2-0.2,0.4-0.1c0.1,0.1,0.9,0.8,1.9,0.8
			c0.9,0,1.5-0.6,1.5-1.2c0-0.8-0.7-1.2-1.9-1.7s-1.9-1-1.9-2.2c0-0.7,0.6-2,2.2-2c1.1,0,1.9,0.6,1.9,0.6c0.1,0,0.2,0.2,0.1,0.4
			c0,0.1-0.1,0.1-0.1,0.2c-0.1,0.2-0.2,0.2-0.4,0.1c-0.1,0-0.8-0.5-1.4-0.5c-1.2,0-1.5,0.7-1.5,1.2c0,0.7,0.6,1.2,1.5,1.6
			c1.5,0.6,2.3,1.2,2.3,2.3c0,1.1-1.1,2-2.3,2c-1.3,0-2.1-0.8-2.2-0.9C52.6,124,52.5,123.9,52.6,123.7z"/>
		<path fill="#8BC541" d="M60.4,118h-1.9c-0.1,0-0.2-0.1-0.2-0.2v-0.3c0-0.1,0.1-0.2,0.2-0.2h4.6c0.1,0,0.2,0.1,0.2,0.2v0.3
			c0,0.1-0.1,0.2-0.2,0.2h-1.9v6.6c0,0.1-0.1,0.2-0.2,0.2h-0.4c-0.1,0-0.2-0.1-0.2-0.2L60.4,118L60.4,118z"/>
		<path fill="#8BC541" d="M68,117.5c0-0.1,0.1-0.2,0.2-0.2h2.4c2.1,0,3.8,1.7,3.8,3.8c0,2.1-1.7,3.8-3.8,3.8h-2.4
			c-0.1,0-0.2-0.1-0.2-0.2V117.5z M70.4,124.1c1.8,0,3-1.3,3-3c0-1.8-1.3-3-3-3h-1.6v6.1L70.4,124.1L70.4,124.1z"/>
		<path fill="#8BC541" d="M79.9,117.2c2.1,0,3.9,1.8,3.9,3.9S82,125,79.9,125s-3.9-1.8-3.9-3.9C76,118.9,77.7,117.2,79.9,117.2z
			 M79.9,124.2c1.8,0,3.1-1.4,3.1-3.1s-1.4-3.1-3.1-3.1c-1.8,0-3.1,1.5-3.1,3.1C76.8,122.8,78.2,124.2,79.9,124.2z"/>
		<path fill="#8BC541" d="M85.2,117.6c0-0.2,0-0.3,0.2-0.3h0.5c0.1,0,0.2,0.1,0.2,0.2l1.5,5.6l0,0l1.8-5.8c0-0.1,0.1-0.1,0.2-0.1
			h0.2c0.1,0,0.2,0.1,0.2,0.1l1.9,5.8l0,0l1.5-5.6c0-0.1,0.1-0.2,0.2-0.2h0.5c0.2,0,0.2,0.1,0.2,0.3l-2.1,7.2c0,0.1-0.1,0.2-0.2,0.2
			h-0.2c-0.1,0-0.2-0.1-0.2-0.1l-1.9-5.9h-0.1l-1.9,5.9c0,0.1-0.1,0.1-0.2,0.1h-0.2c-0.1,0-0.2-0.1-0.2-0.2L85.2,117.6z"/>
		<path fill="#8BC541" d="M96.2,117.4c0-0.1,0.1-0.2,0.2-0.2h0.3l4.9,6.1l0,0v-5.8c0-0.1,0.1-0.2,0.2-0.2h0.4c0.1,0,0.2,0.1,0.2,0.2
			v7.2c0,0.1-0.1,0.2-0.2,0.2H102l-5-6.2l0,0v5.9c0,0.1-0.1,0.2-0.2,0.2h-0.4c-0.1,0-0.2-0.1-0.2-0.2
			C96.2,124.6,96.2,117.4,96.2,117.4z"/>
		<path fill="#8BC541" d="M106.1,118h-1.9c-0.1,0-0.2-0.1-0.2-0.2v-0.3c0-0.1,0.1-0.2,0.2-0.2h4.6c0.1,0,0.2,0.1,0.2,0.2v0.3
			c0,0.1-0.1,0.2-0.2,0.2h-2v6.6c0,0.1-0.1,0.2-0.2,0.2h-0.4c-0.1,0-0.2-0.1-0.2-0.2L106.1,118L106.1,118z"/>
		<path fill="#8BC541" d="M110.7,117.5c0-0.1,0.1-0.2,0.2-0.2h0.4c0.1,0,0.2,0.1,0.2,0.2v7.1c0,0.1-0.1,0.2-0.2,0.2h-0.4
			c-0.1,0-0.2-0.1-0.2-0.2V117.5z"/>
		<path fill="#8BC541" d="M115.1,117.4c0-0.1,0.1-0.2,0.2-0.2h0.2c0.1,0,0.2,0.1,0.2,0.1l2.1,6c0,0,0,0,0.1,0l2.1-6
			c0-0.1,0.1-0.1,0.2-0.1h0.2c0.1,0,0.2,0.1,0.2,0.2l1.4,7.2c0,0.2,0,0.3-0.2,0.3h-0.4c-0.1,0-0.2-0.1-0.2-0.2l-1-5.6l0,0l-2,5.7
			c0,0.1-0.1,0.1-0.2,0.1h-0.2c-0.1,0-0.2-0.1-0.2-0.1l-2-5.7l0,0l-1,5.6c0,0.1-0.1,0.2-0.2,0.2H114c-0.2,0-0.2-0.1-0.2-0.3
			L115.1,117.4z"/>
		<path fill="#8BC541" d="M124.1,117.5c0-0.1,0.1-0.2,0.2-0.2h4.2c0.1,0,0.2,0.1,0.2,0.2v0.3c0,0.1-0.1,0.2-0.2,0.2h-3.6v2.6h3.1
			c0.1,0,0.2,0.1,0.2,0.2v0.3c0,0.1-0.1,0.2-0.2,0.2h-3.1v2.7h3.6c0.1,0,0.2,0.1,0.2,0.2v0.3c0,0.1-0.1,0.2-0.2,0.2h-4.2
			c-0.1,0-0.2-0.1-0.2-0.2C124.1,124.5,124.1,117.5,124.1,117.5z"/>
	</g>
	<g>
		<path fill="#8BC541" d="M38.8,142.2l0.6-0.5c0.1-0.1,0.2-0.1,0.3,0c0,0,0.7,0.6,1.4,0.6c0.6,0,1.2-0.4,1.2-1s-0.5-1.1-1.5-1.1
			h-0.6c-0.1,0-0.2-0.1-0.2-0.2v-0.7c0-0.1,0.1-0.2,0.2-0.2h0.6c0.9,0,1.4-0.4,1.4-1s-0.5-1-1.1-1s-0.9,0.3-1.1,0.5
			c-0.1,0.1-0.2,0.1-0.3,0l-0.5-0.5c-0.1-0.1-0.1-0.2,0-0.3c0,0,0.8-1,2.1-1s2.2,0.8,2.2,2c0,0.9-0.6,1.5-1.1,1.7l0,0
			c0.5,0.2,1.3,0.8,1.3,1.8c0,1.2-1,2.1-2.4,2.1s-2.1-0.7-2.2-1C38.8,142.4,38.8,142.3,38.8,142.2z"/>
		<path fill="#8BC541" d="M44.8,141.6v-0.9l3.9-4.7c0,0,0.1-0.1,0.2-0.1h0.6c0.1,0,0.2,0.1,0.2,0.2v4.6h0.9c0.1,0,0.2,0.1,0.2,0.2
			v0.7c0,0.1-0.1,0.2-0.2,0.2h-0.9v1.4c0,0.1-0.1,0.2-0.2,0.2h-0.9c-0.1,0-0.2-0.1-0.2-0.2v-1.4h-3.3
			C44.9,141.8,44.8,141.7,44.8,141.6z M48.4,140.6v-2.5l-2.1,2.5H48.4z"/>
		<path fill="#8BC541" d="M54.1,139c0.4,0,0.8,0.1,1,0.2V136c0-0.1,0.1-0.2,0.2-0.2h0.9c0.1,0,0.2,0.1,0.2,0.2v7.1
			c0,0.1-0.1,0.2-0.2,0.2h-0.4c-0.1,0-0.2-0.1-0.2-0.2l-0.1-0.3c0,0-0.5,0.7-1.4,0.7c-1.2,0-2.1-1-2.1-2.2
			C51.9,140,52.8,139,54.1,139z M54.2,142.3c0.6,0,0.8-0.5,0.9-0.7v-1.3c0,0-0.3-0.3-0.9-0.3c-0.6,0-1.1,0.5-1.1,1.1
			C53.2,141.8,53.6,142.3,54.2,142.3z"/>
		<path fill="#8BC541" d="M62,138l-1,0.2c-0.1,0-0.2,0-0.2-0.1l-0.1-0.5c0-0.1,0-0.2,0.1-0.2l1.6-1.3h0.8c0.1,0,0.2,0.1,0.2,0.2v6.9
			c0,0.1-0.1,0.2-0.2,0.2h-0.9c-0.1,0-0.2-0.1-0.2-0.2L62,138L62,138z"/>
		<path fill="#8BC541" d="M66.3,142.4c0.5-0.2,2.1-0.9,2.3-2.1c-0.2,0.1-0.7,0.3-1.3,0.3c-1.1,0-2.1-0.8-2.1-2.3
			c0-1.4,1.1-2.4,2.4-2.4c1.7,0,2.5,1.4,2.5,2.9c0,3.1-2.6,4.4-3.6,4.7c-0.2,0-0.3,0-0.3-0.2l-0.3-0.7
			C66,142.6,66.1,142.5,66.3,142.4z M68.9,138.7c0-0.8-0.4-1.6-1.3-1.6c-0.7,0-1.3,0.6-1.3,1.3s0.6,1.3,1.3,1.3
			S68.8,139.1,68.9,138.7z"/>
		<path fill="#8BC541" d="M71.8,136c0-0.1,0.1-0.2,0.2-0.2h0.9c0.1,0,0.2,0.1,0.2,0.2v3.3c0.2-0.2,0.7-0.4,1.2-0.4
			c1.4,0,2,1.1,2,2.1v2.1c0,0.1-0.1,0.2-0.2,0.2h-0.9c-0.1,0-0.2-0.1-0.2-0.2V141c0-0.6-0.3-1-0.9-1c-0.5,0-0.8,0.3-1,0.8v2.2
			c0,0.1-0.1,0.2-0.2,0.2H72c-0.1,0-0.2-0.1-0.2-0.2V136z"/>
		<path fill="#8BC541" d="M78,139.3c0-0.1,0.1-0.2,0.2-0.2h0.4c0.1,0,0.2,0.1,0.2,0.1l0.2,0.4c0.2-0.2,0.6-0.7,1.2-0.7
			c0.5,0,1,0.2,0.8,0.4l-0.4,0.7c-0.1,0.1-0.2,0.1-0.3,0.1c0,0-0.2-0.1-0.3-0.1c-0.4,0-0.7,0.3-0.8,0.5v2.6c0,0.2-0.1,0.2-0.3,0.2
			H78c-0.1,0-0.2-0.1-0.2-0.2v-3.8H78z"/>
	</g>
</g>
<g>
	<path fill="none" stroke="#8BC541" stroke-width="3" stroke-linecap="round" stroke-linejoin="round" stroke-miterlimit="10" d="
		M304,166.3H176c-1.1,0-2-0.9-2-2v-134c0-1.1,0.9-2,2-2h128c1.1,0,2,0.9,2,2v134C306,165.4,305.1,166.3,304,166.3z"/>
	
		<line fill="none" stroke="#8BC541" stroke-width="3" stroke-linecap="round" stroke-linejoin="round" stroke-miterlimit="10" x1="174" y1="53.5" x2="306" y2="53.5"/>
	
		<circle fill="none" stroke="#3C4352" stroke-width="2" stroke-linecap="round" stroke-linejoin="round" stroke-miterlimit="10" cx="185.7" cy="41" r="1.8"/>
	<g>
		<path fill="#8BC541" d="M195.2,82l-3.2,2.4c-0.3,0.3-0.8,0.3-1,0l-1-1c-0.3-0.3-0.3-0.8,0-1l6.3-6.3h1.3c0.5,0,0.8,0.5,0.8,0.8
			v29.5c0,0.5-0.3,0.8-0.8,0.8h-1.8c-0.5,0-0.8-0.5-0.8-0.8V82H195.2z"/>
		<path fill="#8BC541" d="M205.2,105c3.7-4,7.5-8,11-12c3-3.2,4.5-6,4.5-8.3c0-2.5-1.8-5.8-6.3-5.8c-2.7,0-5,2-6.5,3.5
			c-0.3,0.3-0.8,0.3-1.3,0l-0.8-1c-0.3-0.3-0.3-0.8,0-1.3c0,0,3.2-4.5,8.8-4.5c6.5,0,9.8,4.3,9.8,8.8c0,4-2.5,7-5.8,10.3
			c-3,3-5.8,6.3-8.8,9.3h13.3c0.5,0,0.8,0.5,0.8,0.8v1.8c0,0.5-0.5,0.8-0.8,0.8h-17.3c-0.5,0-0.8-0.5-0.8-0.8L205.2,105L205.2,105z"
			/>
		<path fill="#8BC541" d="M232,102.5c1.5,0,2.5,1.3,2.5,2.5c0,1.5-1.3,2.5-2.5,2.5c-1.5,0-2.5-1.3-2.5-2.5
			C229.3,103.8,230.5,102.5,232,102.5z"/>
		<path fill="#8BC541" d="M239,105c3.7-4,7.5-8,11-12c3-3.2,4.5-6,4.5-8.3c0-2.5-1.8-5.8-6.3-5.8c-2.7,0-5,2-6.5,3.5
			c-0.3,0.3-0.8,0.3-1.3,0l-1-0.8c-0.3-0.3-0.3-0.8,0-1.3c0,0,3.2-4.5,8.8-4.5c6.5,0,9.8,4.3,9.8,8.8c0,4-2.5,7-5.8,10.3
			c-3,3-5.8,6.3-8.8,9.3h13.3c0.5,0,0.8,0.5,0.8,0.8v1.5c0,0.5-0.5,0.8-0.8,0.8h-17.3c-0.5,0-0.8-0.5-0.8-0.8V105H239z"/>
		<path fill="#8BC541" d="M262.8,102.5l1.3-1c0.5-0.3,0.8-0.3,1.3,0.3c0.5,0.5,2.7,3.2,6.7,3.2c3.5,0,6.5-2,6.5-5.8c0-3-2.5-6-8-6
			h-2.5c-0.5,0-0.8-0.3-0.8-1v-1c0-0.8,0.3-1,1-1h2.5c4.8,0,7.2-2.5,7.2-5.5c0-3.5-2.7-5.8-6-5.8c-3,0-5,1.8-6,3
			c-0.3,0.3-0.8,0.5-1.3,0l-1-0.8c-0.3-0.3-0.3-0.8,0-1.3c0,0,3.2-4,8.3-4c5.5,0,9.3,3.2,9.3,8.3c0,3.5-2.7,6.3-4.8,7.2l0,0
			c2.2,1,5.5,3.5,5.5,7.2c0,5-3.7,8.8-10,8.8c-5.5,0-8-3-9-4C262.5,103.2,262.5,102.7,262.8,102.5z"/>
	</g>
	<path fill="none" stroke="#3C4352" stroke-width="3" stroke-linecap="round" stroke-linejoin="round" stroke-miterlimit="10" d="
		M191.2,123.2c-0.8-1.3,0-2.2,1.3-2.2h13c1.5,0,2,1,1.3,2.2l-6.5,11.5c-0.8,1.3-2,1.3-2.7,0L191.2,123.2z"/>
	<g>
		<path fill="#3C4352" d="M195.3,39c0.6,0,1,0.2,1.3,0.5c0.1,0,0.1,0.1,0,0.2l-0.3,0.4h-0.1c-0.2-0.2-0.5-0.3-0.9-0.3
			c-0.7,0-1.2,0.6-1.2,1.3s0.5,1.3,1.2,1.3c0.3,0,0.6-0.1,0.9-0.3h0.1l0.3,0.4c0,0,0,0.1,0,0.2c-0.4,0.4-0.9,0.5-1.3,0.5
			c-1.1,0-2-0.9-2-2C193.3,39.9,194.2,39,195.3,39z"/>
		<path fill="#3C4352" d="M199.2,39c1.1,0,2,0.9,2,2s-0.9,2-2,2s-2-0.9-2-2S198.1,39,199.2,39z M199.2,42.2c0.7,0,1.3-0.6,1.3-1.3
			s-0.6-1.3-1.3-1.3s-1.3,0.6-1.3,1.3C197.9,41.6,198.5,42.2,199.2,42.2z"/>
		<path fill="#3C4352" d="M202.1,39.1C202.1,39,202.1,39,202.1,39.1l0.2-0.1l2.2,2.4l0,0v-2.2c0-0.1,0-0.1,0.1-0.1h0.5
			c0.1,0,0.1,0.1,0.1,0.1v3.6c0,0.1-0.1,0.1-0.1,0.1H205l-2.2-2.5l0,0v2.3c0,0.1,0,0.1-0.1,0.1h-0.5c-0.1,0-0.1-0.1-0.1-0.1
			L202.1,39.1L202.1,39.1z"/>
		<path fill="#3C4352" d="M206,39.2C206,39.1,206,39.1,206,39.2l0.7-0.1c0.1,0,0.1,0,0.1,0.1l1.1,2.3l0,0l1.1-2.3c0,0,0-0.1,0.1-0.1
			h0.6c0.1,0,0.1,0.1,0.1,0.1l-1.7,3.6c0,0,0,0.1-0.1,0.1h-0.1c0,0-0.1,0-0.1-0.1L206,39.2z"/>
		<path fill="#3C4352" d="M210.4,39.2C210.4,39.1,210.4,39.1,210.4,39.2l2.3-0.1c0.1,0,0.1,0.1,0.1,0.1v0.5c0,0.1,0,0.1-0.1,0.1
			h-1.6v0.9h1.4c0.1,0,0.1,0.1,0.1,0.1v0.5c0,0.1,0,0.1-0.1,0.1h-1.4v1h1.6c0.1,0,0.1,0.1,0.1,0.1V43c0,0.1,0,0.1-0.1,0.1h-2.2
			c-0.1,0-0.1-0.1-0.1-0.1V39.2z"/>
		<path fill="#3C4352" d="M213.8,39.2C213.8,39.1,213.8,39.1,213.8,39.2l1.7-0.1c0.7,0,1.2,0.5,1.2,1.2c0,0.5-0.3,0.9-0.8,1.1
			l0.8,1.4c0,0.1,0,0.2-0.1,0.2H216c0,0-0.1,0-0.1-0.1l-0.7-1.5h-0.6v1.4c0,0.1-0.1,0.1-0.1,0.1H214c-0.1,0-0.1-0.1-0.1-0.1
			L213.8,39.2L213.8,39.2z M215.4,40.9c0.3,0,0.5-0.3,0.5-0.6s-0.3-0.5-0.5-0.5h-0.9v1.1H215.4z"/>
		<path fill="#3C4352" d="M217.5,42.3l0.2-0.3c0-0.1,0.1-0.1,0.2,0c0,0,0.5,0.3,0.8,0.3s0.5-0.2,0.5-0.4c0-0.3-0.2-0.5-0.7-0.7
			s-1-0.5-1-1.2c0-0.5,0.4-1.1,1.2-1.1c0.6,0,1,0.3,1.1,0.4c0.1,0,0.1,0.1,0,0.2l-0.2,0.3c0,0.1-0.1,0.1-0.2,0.1
			c0,0-0.5-0.3-0.8-0.3s-0.5,0.2-0.5,0.4c0,0.3,0.2,0.4,0.7,0.6c0.5,0.2,1.2,0.5,1.2,1.3c0,0.6-0.5,1.1-1.3,1.1
			c-0.7,0-1.1-0.3-1.2-0.4C217.5,42.5,217.5,42.4,217.5,42.3z"/>
		<path fill="#3C4352" d="M220.9,39.2C220.9,39.1,220.9,39.1,220.9,39.2l0.6-0.1c0.1,0,0.1,0.1,0.1,0.1v3.6c0,0.1-0.1,0.1-0.1,0.1
			H221c-0.1,0-0.1-0.1-0.1-0.1V39.2z"/>
		<path fill="#3C4352" d="M224.5,39c1.1,0,2,0.9,2,2s-0.9,2-2,2s-2-0.9-2-2S223.4,39,224.5,39z M224.5,42.2c0.7,0,1.3-0.6,1.3-1.3
			s-0.6-1.3-1.3-1.3s-1.3,0.6-1.3,1.3C223.2,41.6,223.8,42.2,224.5,42.2z"/>
		<path fill="#3C4352" d="M227.4,39.1C227.4,39,227.4,39,227.4,39.1l0.2-0.1l2.2,2.4l0,0v-2.2c0-0.1,0-0.1,0.1-0.1h0.5
			c0.1,0,0.1,0.1,0.1,0.1v3.6c0,0.1-0.1,0.1-0.1,0.1h-0.1l-2.2-2.4l0,0v2.3c0,0.1,0,0.1-0.1,0.1h-0.5c-0.1,0-0.1-0.1-0.1-0.1
			L227.4,39.1L227.4,39.1z"/>
		<path fill="#3C4352" d="M233.3,39.2C233.3,39.1,233.3,39.1,233.3,39.2l1.7-0.1c0.7,0,1.2,0.5,1.2,1.2c0,0.5-0.3,0.9-0.8,1.1
			l0.8,1.4c0,0.1,0,0.2-0.1,0.2h-0.6c-0.1,0-0.1,0-0.1-0.1l-0.7-1.5H234v1.4c0,0.1-0.1,0.1-0.1,0.1h-0.5c-0.1,0-0.1-0.1-0.1-0.1
			L233.3,39.2L233.3,39.2z M234.9,40.9c0.3,0,0.5-0.3,0.5-0.6s-0.3-0.5-0.5-0.5H234v1.1H234.9z"/>
		<path fill="#3C4352" d="M236.7,42.7l1.7-3.6c0,0,0-0.1,0.1-0.1h0.1c0.1,0,0.1,0,0.1,0.1l1.7,3.6c0,0.1,0,0.1-0.1,0.1h-0.5
			c-0.1,0-0.1,0-0.2-0.1l-0.3-0.6h-1.7l-0.3,0.6c0,0.1-0.1,0.1-0.2,0.1L236.7,42.7C236.7,42.9,236.6,42.8,236.7,42.7z M239,41.6
			l-0.6-1.2l0,0l-0.5,1.2H239z"/>
		<path fill="#3C4352" d="M241.3,39.8h-0.9c-0.1,0-0.1-0.1-0.1-0.1v-0.5c0-0.1,0-0.1,0.1-0.1h2.3c0.1,0,0.1,0.1,0.1,0.1v0.5
			c0,0.1,0,0.1-0.1,0.1h-0.9v3c0,0.1,0,0.1-0.1,0.1h-0.5c-0.1,0-0.1-0.1-0.1-0.1L241.3,39.8L241.3,39.8z"/>
		<path fill="#3C4352" d="M243.7,39.2C243.7,39.1,243.7,39.1,243.7,39.2l2.3-0.1c0.1,0,0.1,0.1,0.1,0.1v0.5c0,0.1,0,0.1-0.1,0.1
			h-1.6v0.9h1.4c0.1,0,0.1,0.1,0.1,0.1v0.5c0,0.1,0,0.1-0.1,0.1h-1.4v1h1.6c0.1,0,0.1,0.1,0.1,0.1V43c0,0.1,0,0.1-0.1,0.1h-2.2
			c-0.1,0-0.1-0.1-0.1-0.1V39.2z"/>
	</g>
	<g>
		<path fill="#3C4352" d="M217.1,133.4c0.8-0.9,2-2.2,2.7-3.2c0.6-0.6,0.8-1.2,0.8-1.6c0-0.6-0.4-1.2-1.4-1.2
			c-0.6,0-1.1,0.4-1.4,0.7c-0.1,0.1-0.2,0.1-0.3,0l-0.4-0.4c-0.1-0.1-0.1-0.2,0-0.3c0,0,0.8-1.1,2.1-1.1c1.6,0,2.3,1,2.3,2.1
			c0,0.8-0.5,1.4-1.1,2.1c-0.6,0.7-1.4,1.6-2,2.2h2.7c0.1,0,0.2,0.1,0.2,0.2v0.5c0,0.1-0.1,0.2-0.2,0.2h-4.2c-0.1,0-0.2-0.1-0.2-0.2
			v-0.1C216.9,133.4,217.1,133.4,217.1,133.4z"/>
		<path fill="#3C4352" d="M223.6,133.6l2.9-6.1h-3.2c-0.1,0-0.2-0.1-0.2-0.2v-0.5c0-0.1,0.1-0.2,0.2-0.2h4.4c0.1,0,0.2,0.1,0.2,0.2
			v0.1l-3.1,6.7c-0.1,0.2-0.2,0.3-0.4,0.3h-0.5c-0.1,0-0.3-0.1-0.3-0.2L223.6,133.6L223.6,133.6z"/>
		<path fill="#3C4352" d="M229.8,132.5c0.4,0,0.8,0.3,0.8,0.8c0,0.4-0.3,0.8-0.8,0.8c-0.4,0-0.8-0.3-0.8-0.8
			C229,132.9,229.3,132.5,229.8,132.5z"/>
		<path fill="#3C4352" d="M232.8,133.2c0.5-0.2,2.2-1.1,2.5-2.3c-0.1,0.1-0.7,0.4-1.5,0.4c-1.2,0-2.2-0.9-2.2-2.3
			c0-1.4,1.1-2.4,2.4-2.4c1.8,0,2.5,1.4,2.5,3c0,3-2.5,4.3-3.5,4.7c-0.1,0-0.2,0-0.3-0.1l-0.2-0.5
			C232.5,133.4,232.6,133.3,232.8,133.2z M235.5,129.5c0.1-0.9-0.3-2.1-1.5-2.1c-0.8,0-1.5,0.7-1.5,1.5c0,0.8,0.6,1.5,1.5,1.5
			S235.5,129.7,235.5,129.5z"/>
		<path fill="#3C4352" d="M238.2,132.8l0.4-0.4c0.1-0.1,0.2-0.1,0.3,0s0.7,0.7,1.5,0.7c0.7,0,1.4-0.4,1.4-1.2c0-0.7-0.6-1.3-1.7-1.3
			h-0.6c-0.1,0-0.2-0.1-0.2-0.2V130c0-0.2,0.1-0.2,0.2-0.2h0.6c1,0,1.6-0.5,1.6-1.2s-0.6-1.2-1.3-1.2s-1.1,0.4-1.3,0.6
			c-0.1,0.1-0.2,0.1-0.3,0l-0.4-0.4c-0.1-0.1-0.1-0.2,0-0.3c0,0,0.8-1,2-1c1.3,0,2.2,0.8,2.2,2c0,0.9-0.6,1.5-1.1,1.7l0,0
			c0.5,0.2,1.3,0.9,1.3,1.8c0,1.2-1,2.1-2.4,2.1C238.9,133.8,238.4,133.1,238.2,132.8C238.1,133,238.1,132.9,238.2,132.8z"/>
		<path fill="#3C4352" d="M244.2,127.7c0-0.8,0.7-1.5,1.5-1.5s1.5,0.7,1.5,1.5s-0.7,1.5-1.5,1.5
			C244.8,129.2,244.2,128.5,244.2,127.7z M246.4,127.7c0-0.4-0.3-0.7-0.7-0.7s-0.7,0.3-0.7,0.7s0.3,0.7,0.7,0.7
			C246,128.4,246.4,128.1,246.4,127.7z M248.8,126.5c0-0.1,0.1-0.1,0.2-0.1h0.4c0.2,0,0.3,0.2,0.2,0.3l-3.7,7.1c0,0-0.1,0.1-0.2,0.1
			h-0.3c-0.2,0-0.3-0.2-0.2-0.3L248.8,126.5z M249.1,131.2c0.8,0,1.5,0.7,1.5,1.5s-0.7,1.5-1.5,1.5s-1.5-0.7-1.5-1.5
			C247.6,131.7,248.3,131.2,249.1,131.2z M249.1,133.3c0.4,0,0.7-0.3,0.7-0.7s-0.3-0.7-0.7-0.7s-0.7,0.3-0.7,0.7
			C248.4,133,248.7,133.3,249.1,133.3z"/>
	</g>
</g>
<path fill="none" stroke="#3B4251" stroke-width="2" stroke-linecap="round" stroke-linejoin="round" stroke-miterlimit="10" d="
	M433.4,117l6.4-0.2l-16.4-16.5v22.3l5.5-4.5l5,9.4c0.4,0.8,1.2,1.2,2.1,1.2c0.4,0,0.7-0.1,1.1-0.3c1.2-0.6,1.6-1.9,1-3L433.4,117z"
	/>
</svg>
