<?xml version="1.0" encoding="utf-8"?>
<!-- Generator: Adobe Illustrator 19.2.0, SVG Export Plug-In . SVG Version: 6.00 Build 0)  -->
<svg version="1.1" id="Layer_1" xmlns="http://www.w3.org/2000/svg" xmlns:xlink="http://www.w3.org/1999/xlink" x="0px" y="0px"
	 viewBox="0 0 58 58" style="enable-background:new 0 0 58 58;" xml:space="preserve">
<style type="text/css">
	.st0{fill:#8CC640;}
	.st1{opacity:0.5;}
	.st2{fill:#8DC63F;}
</style>
<g>
	<g>
		<path class="st0" d="M29,58C13,58,0,45,0,29S13,0,29,0s29,13,29,29S45,58,29,58z M29,2.6C14.4,2.6,2.6,14.4,2.6,29
			S14.4,55.4,29,55.4S55.4,43.6,55.4,29S43.6,2.6,29,2.6z"/>
	</g>
</g>
<g>
	<g>
		<path class="st0" d="M22.7,48.8c-1.2,0-2.3-0.8-2.6-2.1l-5.5-23.6c-0.2-0.9,0-2,0.5-2.8l6.4-11.7c0.8-1.2,2.4-1.6,3.6-0.9
			l11.1,7.7c0.8,0.4,1.4,1.3,1.6,2.2l5.5,23.6c0.3,1.4-0.6,2.9-2,3.2l-18.1,4.3C23.2,48.8,23,48.8,22.7,48.8z M23.8,9.4
			c-0.2,0-0.5,0.1-0.6,0.3l-6.4,11.7c-0.3,0.4-0.4,0.9-0.3,1.3l5.5,23.6c0.1,0.4,0.5,0.6,0.8,0.5L41,42.5c0.4-0.1,0.6-0.5,0.5-0.8
			l-5.5-23.6c-0.1-0.4-0.4-0.8-0.7-1L24.1,9.5C24,9.4,23.9,9.4,23.8,9.4z"/>
	</g>
	<g class="st1">
		<path class="st2" d="M25,17.3c-1,0-1.9-0.7-2.1-1.7c-0.3-1.2,0.5-2.4,1.6-2.6c1.2-0.3,2.4,0.5,2.6,1.6v0c0.3,1.2-0.5,2.4-1.6,2.6
			C25.3,17.3,25.1,17.3,25,17.3z M25,13.9c-0.1,0-0.2,0-0.3,0c-0.6,0.1-1,0.8-0.9,1.4c0.1,0.6,0.8,1,1.4,0.9c0.6-0.1,1-0.8,0.9-1.4
			l0,0C26,14.3,25.5,13.9,25,13.9z"/>
	</g>
	<g>
		<g>
			<path class="st0" d="M25.6,36.6l0.4-0.9c0.1-0.2,0.3-0.4,0.6-0.3c0.1,0.1,1.5,0.8,2.9,0.7c-0.3-1.5-0.7-2.9-1-4.3
				c-2.1-0.3-4-0.8-4.6-2.9c-0.1-0.2-0.1-0.5-0.1-0.7c-0.2-1.4,0.6-3.2,2.9-4.1l-0.1-0.6c0-0.2,0.1-0.4,0.3-0.4l0.2,0
				c0.2,0,0.4,0.1,0.4,0.3l0.1,0.6c1.7-0.3,3.2,0.3,3.4,0.4c0.2,0.1,0.4,0.3,0.3,0.6c-0.2,0.6-0.4,1.4-0.9,1.2
				c-0.1,0-1.3-0.5-2.3-0.5c0.3,1.4,0.6,2.8,1,4.2c2.2,0.4,4.3,1,4.9,3.3c0.5,2-0.8,3.8-3,4.5l0.5,2c0.1,0.2-0.1,0.4-0.3,0.4
				c-0.2,0-0.5,0.1-0.6-0.2l-0.5-2c-2.1,0.3-3.6-0.4-4-0.6C25.7,37.1,25.5,37,25.6,36.6z M27,25.8c-1.3,0.4-1.6,1.4-1.4,2.1
				c0.2,1,1,1.5,2.4,1.8L27,25.8z M31.8,33.8c-0.2-0.9-1-1.4-2.4-1.8l0.9,4C31.4,35.6,32,34.7,31.8,33.8z"/>
		</g>
	</g>
</g>
</svg>
