<?xml version="1.0" encoding="utf-8"?>
<!-- Generator: Adobe Illustrator 19.2.0, SVG Export Plug-In . SVG Version: 6.00 Build 0)  -->
<svg version="1.1" id="Layer_1" xmlns="http://www.w3.org/2000/svg" xmlns:xlink="http://www.w3.org/1999/xlink" x="0px" y="0px"
	 viewBox="0 0 184 42" style="enable-background:new 0 0 184 42;" xml:space="preserve">
<style type="text/css">
	.st0{fill:#B5B6BB;}
</style>
<g>
	<path class="st0" d="M25.1,17.7c-0.3-1-0.7-1.9-1.2-2.8s-1.2-1.6-1.9-2.2c-0.7-0.6-1.5-1.1-2.5-1.5s-1.9-0.6-2.9-0.6
		c-1.4,0-2.7,0.3-3.8,1c-1.1,0.6-2,1.5-2.8,2.5c-0.7,1-1.3,2.2-1.7,3.5c-0.4,1.3-0.6,2.7-0.6,4.1c0,1.5,0.2,2.9,0.6,4.1
		c0.4,1.3,1,2.4,1.8,3.4s1.7,1.7,2.8,2.3s2.3,0.8,3.7,0.8c1.1,0,2.1-0.2,3-0.6s1.8-0.9,2.5-1.5s1.3-1.4,1.8-2.2
		c0.5-0.8,0.8-1.7,1-2.6h0.4l-0.1,6.7h-0.4c-0.2-0.3-0.5-0.7-0.8-1s-0.4-0.4-0.6-0.4c0,0-0.2,0.1-0.6,0.3c-0.3,0.2-0.8,0.5-1.4,0.7
		c-0.6,0.3-1.4,0.5-2.2,0.7c-0.9,0.2-1.9,0.3-3,0.3c-1.9,0-3.6-0.3-5.2-0.8c-1.5-0.5-2.8-1.3-3.9-2.3S5.2,27.4,4.6,26
		C4.3,24.7,4,23.2,4,21.5c0-0.4,0-0.8,0.1-1.3s0.1-1,0.3-1.5C4.5,18.2,4.7,17.6,5,17c0.2-0.6,0.5-1.2,0.9-1.8c0.4-0.7,1-1.4,1.6-2
		s1.4-1.2,2.2-1.7c0.9-0.5,1.8-0.9,2.9-1.1c1.1-0.3,2.3-0.4,3.6-0.4c1.2,0,2.3,0.1,3.2,0.3c0.9,0.2,1.7,0.5,2.3,0.7
		c0.6,0.3,1.1,0.5,1.4,0.7s0.5,0.3,0.6,0.3c0,0,0.1,0,0.2-0.1s0.2-0.2,0.4-0.3c0.1-0.1,0.3-0.3,0.4-0.5s0.3-0.4,0.4-0.5h0.3v6.9
		L25.1,17.7z"/>
	<path class="st0" d="M43.5,21.6c-0.4-1-0.9-1.8-1.6-2.5c-0.7-0.7-1.5-1.3-2.5-1.8c-1-0.4-2.1-0.7-3.3-0.7c-1.1,0-2.2,0.2-3.3,0.6
		c-1,0.4-1.9,0.9-2.7,1.6c-0.8,0.7-1.4,1.5-1.8,2.5c-0.5,1-0.7,2.1-0.7,3.4c0,1.2,0.2,2.3,0.6,3.3s1,1.8,1.8,2.5
		c0.7,0.7,1.6,1.3,2.6,1.6c1,0.4,2,0.6,3.2,0.6c1.1,0,2.2-0.2,3.2-0.6c1-0.4,1.9-1,2.6-1.7c0.8-0.7,1.3-1.6,1.8-2.6
		c0.4-1,0.7-2.1,0.7-3.2C44,23.6,43.8,22.6,43.5,21.6z M40.9,27.4c-0.2,0.9-0.6,1.7-1,2.5c-0.5,0.7-1,1.3-1.7,1.8
		c-0.7,0.5-1.5,0.7-2.4,0.7c-0.9,0-1.7-0.2-2.4-0.6c-0.7-0.4-1.3-1-1.7-1.7c-0.5-0.7-0.8-1.5-1-2.4s-0.3-1.9-0.3-2.9
		s0.1-1.9,0.3-2.8c0.2-0.9,0.5-1.8,1-2.5c0.4-0.7,1-1.3,1.7-1.8s1.5-0.7,2.5-0.7c0.9,0,1.7,0.2,2.4,0.7s1.3,1.1,1.7,1.8
		c0.5,0.7,0.8,1.6,1,2.5s0.3,1.8,0.3,2.7C41.3,25.6,41.2,26.5,40.9,27.4z"/>
	<path class="st0" d="M61.7,17.5c-0.3,0.2-0.6,0.5-0.8,0.9c-0.1,0.2-0.2,0.6-0.2,1.2s-0.1,1.2-0.1,1.9c0,0.6-0.1,1.4-0.1,2.2
		c0,0.9,0,1.8,0,2.8v1.4c0,0.5,0,1,0,1.6c0,0.5,0,1.1,0,1.6v1.4c0,0.1,0,0.1-0.1,0.1c0,0-0.1,0.1-0.2,0.1c-0.1,0-0.2-0.1-0.4-0.2
		c-1.2-1.4-2.4-2.7-3.4-3.9c-1-1.2-2-2.3-2.9-3.4S51.7,23,50.8,22S49,19.9,48,18.8V28c0,0.7,0,1.4,0.1,2c0,0.6,0.1,1,0.3,1.3
		s0.4,0.6,0.8,0.8c0.3,0.2,0.8,0.3,1.4,0.4v0.2h-5.4v-0.2c0.4,0,0.7-0.1,1.1-0.3c0.4-0.1,0.6-0.4,0.8-0.7c0.2-0.3,0.3-0.8,0.4-1.4
		c0.1-0.6,0.1-1.3,0.1-2.1c0-0.6,0.1-1.4,0.1-2.2c0-0.9,0-1.8,0-2.8v-1.1v-0.8v-0.8c0-0.3,0-0.6,0-1.1c0-0.4-0.1-0.8-0.3-1
		c-0.2-0.3-0.4-0.5-0.6-0.6c-0.2-0.2-0.5-0.3-0.7-0.3c-0.3-0.1-0.5-0.1-0.7-0.1V17h4.4l10.3,12v-7.5c0-0.6,0-1.1,0-1.7
		c0-0.5-0.1-1-0.2-1.3c-0.1-0.4-0.4-0.7-0.8-1c-0.4-0.3-0.9-0.4-1.6-0.5v-0.2H63V17C62.4,17.1,62,17.3,61.7,17.5"/>
	<path class="st0" d="M81.3,22c-0.2-0.7-0.6-1.4-1-1.9c-0.4-0.6-0.9-1-1.4-1.5c-0.5-0.4-1.1-0.7-1.7-1c-0.5-0.2-0.9-0.4-1.4-0.5
		s-1-0.2-1.4-0.2c-0.5,0-1-0.1-1.4-0.1h-1.4c-1.6,0-3,0-4.2,0c-1.2,0-2,0-2.7,0V17c0.4,0,0.7,0.1,1,0.2s0.6,0.3,0.8,0.5
		c0.1,0.1,0.2,0.2,0.2,0.4c0,0.2,0.1,0.4,0.1,0.6s0,0.5,0,0.7v0.8v4.3v1.3c0,0.4,0,0.9,0,1.3s0,0.8,0,1.2c0,0.4,0,0.6,0,0.8
		c0,0.2,0,0.5,0,0.7s0,0.5-0.1,0.7c0,0.2-0.1,0.4-0.1,0.6s-0.1,0.3-0.2,0.4c-0.2,0.2-0.4,0.4-0.8,0.5c-0.3,0.1-0.7,0.2-1.1,0.3v0.2
		h8c0.7,0,1.4,0,2.1-0.1s1.4-0.3,2.1-0.5s1.3-0.5,1.9-0.9s1.1-0.9,1.6-1.5s0.8-1.3,1.1-2.1c0.3-0.8,0.4-1.8,0.4-2.9
		C81.6,23.6,81.5,22.7,81.3,22z M77.8,29.4c-0.8,1.3-2,2.2-3.5,2.6c-0.3,0.1-0.7,0.2-1.1,0.2s-0.8,0.1-1.1,0.1c-0.4,0-0.8,0-1.3-0.1
		c-0.4-0.1-0.8-0.3-1.1-0.6c-0.1-0.1-0.2-0.2-0.2-0.4c-0.1-0.2-0.1-0.4-0.1-0.6s-0.1-0.5-0.1-0.7s0-0.5,0-0.7c0-0.5,0-1.1,0-1.9
		v-2.6c0-1.7,0-3.2,0-4.5s0.1-2.2,0.1-3c0.1,0,0.2-0.1,0.4-0.1c0.2,0,0.4,0,0.5-0.1c0.2,0,0.4,0,0.6,0s0.4,0,0.6,0
		c0.5,0,0.9,0,1.3,0.1c0.4,0,0.7,0.1,1,0.1c0.8,0.1,1.5,0.4,2.1,0.9s1.2,1,1.7,1.7c0.5,0.6,0.8,1.4,1.1,2.2c0.3,0.8,0.4,1.6,0.4,2.5
		C78.9,26.5,78.5,28.1,77.8,29.4z"/>
	<path class="st0" d="M88.8,16l-0.2-0.2l3-3.7c0.3,0,0.6,0.1,0.7,0.2s0.3,0.3,0.4,0.4v0.1L88.8,16z"/>
	<path class="st0" d="M96,32.6H82.6v-0.2c0.4-0.1,0.7-0.2,1-0.3c0.3-0.1,0.6-0.3,0.8-0.5c0.1-0.1,0.1-0.2,0.2-0.4
		c0-0.2,0.1-0.4,0.1-0.6s0.1-0.4,0.1-0.7c0-0.2,0-0.5,0-0.7s0-0.5,0-0.8c0-0.4,0-0.7,0-1.2c0-0.4,0-0.8,0-1.3v-1.3v-4.3
		c0-0.3,0-0.5,0-0.8s0-0.5,0-0.8c0-0.2-0.1-0.5-0.1-0.7c-0.1-0.2-0.1-0.3-0.2-0.4c-0.2-0.2-0.5-0.4-0.7-0.5s-0.6-0.1-1-0.2v-0.2
		h12.1l1.5,3.6l-0.2,0.1c-1.2-1.5-2.3-2.5-3.3-3c-0.2-0.1-0.7-0.2-1.4-0.3C90.8,17,90,17,89,17c-0.3,0-0.6,0-0.9,0s-0.5,0-0.6,0.1
		c0,0.1,0,0.2,0,0.3c0,0.1,0,0.2,0,0.3c0,0.1,0,0.2,0,0.4c0,0.2,0,0.4,0,0.6c0,0.5,0,1.1,0,1.7s0,1.2,0,1.7v1.4v0.7h0.4
		c0.2,0,0.5,0,0.7,0c0.3,0,0.6,0,0.9-0.1c0.3,0,0.6-0.1,0.8-0.1c0.4-0.1,0.8-0.2,1.1-0.4c0.3-0.2,0.5-0.4,0.7-0.6s0.3-0.5,0.4-0.9
		c0.1-0.3,0.2-0.7,0.3-1.1h0.3v6.9h-0.3c-0.1-0.5-0.3-1-0.5-1.4c-0.2-0.5-0.5-0.9-0.8-1.1c-0.2-0.2-0.5-0.4-0.8-0.5
		s-0.7-0.2-1.1-0.2c-0.2,0-0.4,0-0.6,0s-0.3,0-0.4,0h-0.4h-0.6v1.4v1.3c0,0.4,0,0.8,0,1.1c0,0.3,0,0.6,0,0.9c0,0.5,0,0.9,0.1,1.3
		c0,0.4,0.1,0.7,0.3,0.9c0.1,0.2,0.4,0.4,0.9,0.4c0.5,0.1,1,0.1,1.6,0.1c0.2,0,0.6,0,1,0s0.8-0.1,1.2-0.1c0.5-0.1,0.9-0.2,1.3-0.3
		c0.4-0.2,0.8-0.4,1.1-0.7c0.4-0.3,0.7-0.7,1.1-1.1c0.3-0.4,0.7-1,1.1-1.6l0.2,0.1L96,32.6L96,32.6z"/>
	<path class="st0" d="M126,11.4c-0.5,0.3-0.8,0.7-1.1,1.3c-0.1,0.3-0.2,0.9-0.3,1.7c0,0.8-0.1,1.7-0.1,2.7c0,0.9-0.1,1.9-0.1,3.1
		s0,2.5,0,3.8v2c0,0.7,0,1.4,0,2.2c0,0.7,0,1.5,0,2.2v2c0,0.1,0,0.1-0.1,0.2c-0.1,0-0.1,0.1-0.2,0.1c-0.2,0-0.3-0.1-0.6-0.3
		c-1.7-2-3.3-3.8-4.8-5.5c-1.4-1.7-2.8-3.3-4.1-4.8c-1.3-1.5-2.6-3-3.8-4.5c-1.2-1.5-2.6-3-4-4.5V26c0,1,0,2,0.1,2.8
		s0.2,1.5,0.4,1.9c0.2,0.5,0.6,0.8,1.1,1.1c0.5,0.2,1.1,0.4,2,0.5v0.3h-7.5v-0.3c0.5-0.1,1-0.2,1.5-0.4c0.5-0.2,0.9-0.5,1.2-1
		c0.3-0.4,0.5-1.1,0.6-1.9s0.1-1.8,0.2-3c0-0.9,0.1-1.9,0.1-3.1s0-2.5,0-3.8v-1.5v-1.1v-1.1c0-0.4,0-0.9,0-1.5
		c-0.1-0.6-0.2-1.1-0.4-1.5c-0.2-0.4-0.5-0.7-0.8-0.9s-0.6-0.4-1-0.5s-0.7-0.2-1-0.2v-0.3h6.2l14.5,17V17.1c0-0.8,0-1.6,0-2.3
		s-0.1-1.3-0.3-1.8c-0.2-0.6-0.6-1-1.1-1.4s-1.3-0.6-2.3-0.8v-0.3h7.6v0.3C127.1,11,126.5,11.1,126,11.4"/>
	<path class="st0" d="M142.1,32.2c-0.2-0.1-0.5-0.3-0.6-0.4c-0.2-0.2-0.3-0.3-0.4-0.4c-0.1-0.1-0.2-0.2-0.2-0.3
		c-0.2-0.4-0.3-0.7-0.5-1c-0.1-0.3-0.3-0.7-0.4-1.1c-0.4-0.9-0.7-1.9-1.1-2.8c-0.4-0.9-0.7-1.9-1.1-2.9c-0.4-1-0.8-2.1-1.2-3.1
		c-0.4-1.1-0.8-2.2-1.3-3.5h-0.2c-0.1,0.1-0.1,0.2-0.3,0.4c-0.1,0.2-0.2,0.3-0.4,0.5s-0.3,0.3-0.6,0.5c-0.2,0.2-0.5,0.3-0.7,0.4
		l0.2,0.5c-0.4,0.8-0.7,1.7-1.1,2.6s-0.8,1.9-1.2,2.8s-0.8,1.8-1.2,2.7c-0.4,0.9-0.7,1.7-1,2.3c-0.3,0.7-0.6,1.3-0.9,1.7
		c-0.2,0.4-0.4,0.6-0.5,0.7c0,0.1-0.2,0.2-0.5,0.3c-0.3,0.2-0.6,0.3-1,0.3v0.2h4.7v-0.2c-0.2,0-0.4-0.1-0.6-0.1s-0.4-0.1-0.6-0.2
		c-0.2-0.1-0.3-0.2-0.5-0.3c-0.1-0.1-0.2-0.3-0.2-0.5c0-0.3,0.2-0.9,0.5-1.7c0.2-0.5,0.4-1,0.6-1.5s0.4-1,0.6-1.6h5.8
		c0.2,0.6,0.4,1.1,0.6,1.6c0.2,0.5,0.4,1,0.5,1.4s0.3,0.8,0.3,1.1c0.1,0.3,0.1,0.5,0.1,0.6c0,0.2-0.1,0.4-0.2,0.5
		c-0.1,0.1-0.3,0.2-0.5,0.3c-0.2,0.1-0.4,0.1-0.5,0.2c-0.2,0-0.3,0-0.3,0v0.2h6.4v-0.3C142.7,32.3,142.4,32.3,142.1,32.2z
		 M130.9,26.1c0.4-0.9,0.7-1.7,1-2.4c0.3-0.7,0.6-1.4,0.8-2s0.5-1.1,0.6-1.5c0.2-0.4,0.3-0.7,0.4-0.9c0.1,0.3,0.3,0.7,0.5,1.2
		s0.4,1.1,0.7,1.7c0.2,0.6,0.5,1.2,0.7,1.9c0.3,0.7,0.5,1.3,0.8,2C136.4,26.1,130.9,26.1,130.9,26.1z"/>
	<path class="st0" d="M154.1,30.2c-0.3,0.6-0.7,1-1.2,1.4s-1.1,0.7-1.8,0.9s-1.5,0.3-2.3,0.3c-0.7,0-1.3,0-1.8-0.1s-0.9-0.2-1.3-0.3
		c-0.3-0.1-0.6-0.2-0.8-0.3s-0.3-0.2-0.3-0.2s-0.1,0.1-0.3,0.3c-0.1,0.2-0.3,0.3-0.4,0.5h-0.2l-0.1-4.4h0.2c0.1,0.4,0.3,0.8,0.5,1.2
		s0.4,0.7,0.7,1.1c0.2,0.3,0.5,0.6,0.8,0.9c0.3,0.2,0.5,0.4,0.8,0.6c0.2,0.1,0.6,0.3,1,0.4c0.4,0.1,0.8,0.2,1.2,0.2
		c1.1,0,2-0.3,2.6-0.9c0.7-0.6,1-1.4,1-2.4c0-0.4-0.1-0.8-0.2-1.1c-0.1-0.3-0.3-0.6-0.5-0.8c-0.2-0.2-0.5-0.4-0.8-0.6
		s-0.6-0.3-1-0.4s-0.7-0.2-0.9-0.3c-0.3-0.1-0.5-0.2-0.7-0.3c-0.2-0.1-0.5-0.2-0.7-0.2c-0.2-0.1-0.5-0.2-0.9-0.3
		c-0.4-0.1-0.7-0.3-1.1-0.6c-0.4-0.3-0.7-0.6-0.9-0.9s-0.5-0.7-0.6-1.1c-0.2-0.4-0.2-0.9-0.2-1.3c0-0.8,0.1-1.5,0.4-2
		c0.3-0.6,0.7-1,1.2-1.4s1-0.7,1.7-0.8s1.3-0.3,2-0.3s1.2,0.1,1.7,0.2s0.9,0.2,1.2,0.4c0.3,0.1,0.5,0.3,0.7,0.4s0.2,0.2,0.3,0.2
		c0,0,0.1-0.1,0.3-0.3c0.1-0.2,0.3-0.4,0.4-0.5h0.2v4.1h-0.2c-0.2-0.5-0.4-1-0.7-1.4c-0.3-0.5-0.6-0.9-1-1.3s-0.8-0.7-1.2-0.9
		c-0.5-0.2-1-0.4-1.6-0.4c-0.5,0-0.9,0.1-1.3,0.2c-0.4,0.1-0.8,0.3-1.1,0.6c-0.3,0.3-0.5,0.6-0.7,1s-0.3,0.8-0.3,1.3
		c0,0.8,0.2,1.4,0.7,1.9s1.1,0.8,1.8,1.1c0.3,0.1,0.6,0.2,0.8,0.3c0.3,0.1,0.5,0.2,0.8,0.3c0.2,0.1,0.5,0.2,0.8,0.3
		c0.3,0.1,0.5,0.2,0.8,0.3c1,0.4,1.8,0.9,2.3,1.6s0.8,1.6,0.8,2.6C154.5,29,154.4,29.6,154.1,30.2"/>
	<path class="st0" d="M171.8,21c-0.1-0.3-0.3-0.5-0.4-0.8c-0.2-0.3-0.3-0.6-0.5-0.8c-0.2-0.2-0.3-0.5-0.5-0.7s-0.3-0.4-0.4-0.5
		c-0.3-0.3-0.6-0.5-1-0.6s-0.8-0.1-1.4-0.2c-0.3,0-0.5,0-0.7,0s-0.4,0-0.6,0h-0.6h-0.8c0,0.4,0,0.9,0,1.5s0,1.3,0,2v2v1.7v4.9
		c0,0.4,0,0.8,0,1.2c0,0.4,0.1,0.7,0.2,0.8c0.2,0.3,0.5,0.5,0.9,0.7s0.8,0.2,1.1,0.3v0.2H160v-0.2c0.4,0,0.7-0.1,1.1-0.2
		c0.4-0.1,0.7-0.3,1-0.7c0.1-0.1,0.1-0.2,0.2-0.4c0-0.2,0.1-0.4,0.1-0.6s0-0.4,0-0.7c0-0.2,0-0.5,0-0.7s0-0.5,0-0.8s0-0.7,0-1.1
		s0-0.8,0-1.3v-1.2v-7.2h-0.8H161c-0.2,0-0.4,0-0.6,0c-0.2,0-0.5,0-0.7,0c-0.6,0-1,0.1-1.4,0.2s-0.7,0.3-1,0.6
		c-0.1,0.1-0.3,0.3-0.4,0.5c-0.2,0.2-0.3,0.4-0.5,0.7s-0.3,0.5-0.5,0.8s-0.3,0.5-0.4,0.8l-0.2-0.1l0.7-4.2c0.3,0.1,0.6,0.1,0.9,0.2
		c0.3,0,0.7,0.1,1.2,0.1c0.6,0,1.1,0,1.5,0s0.9,0,1.3,0h1.2h1.5h1.4c0.4,0,0.9,0,1.3,0c0.4,0,0.8,0,1.3,0c0.4,0,0.9,0,1.5,0
		c0.5,0,0.9-0.1,1.2-0.1c0.3-0.1,0.6-0.1,1-0.2l0.7,4.3L171.8,21L171.8,21z"/>
</g>
</svg>
