<?xml version="1.0" encoding="utf-8"?>
<!-- Generator: Adobe Illustrator 19.2.0, SVG Export Plug-In . SVG Version: 6.00 Build 0)  -->
<svg version="1.1" id="Layer_1" xmlns="http://www.w3.org/2000/svg" xmlns:xlink="http://www.w3.org/1999/xlink" x="0px" y="0px"
	 viewBox="0 0 168 42" style="enable-background:new 0 0 168 42;" xml:space="preserve">
<style type="text/css">
	.st0{fill:#B5B6BB;}
</style>
<g>
	<path class="st0" d="M38,12.7c0,0.2,0,0.3,0,0.5c0,0.1-0.1,0.2-0.1,0.3s-0.1,0.1-0.2,0.2c-0.1,0-0.1,0.1-0.2,0.1h-5.3v16.4
		c0,0.1,0,0.1-0.1,0.2c0,0.1-0.1,0.1-0.2,0.1c-0.1,0-0.2,0.1-0.4,0.1c-0.2,0-0.4,0-0.6,0s-0.4,0-0.6,0s-0.3-0.1-0.4-0.1
		s-0.2-0.1-0.2-0.1c0-0.1-0.1-0.1-0.1-0.2V13.7h-5.3c-0.1,0-0.1,0-0.2-0.1c-0.1,0-0.1-0.1-0.2-0.2c0-0.1-0.1-0.2-0.1-0.3
		s0-0.3,0-0.5s0-0.4,0-0.5s0.1-0.3,0.1-0.3c0-0.1,0.1-0.2,0.2-0.2s0.1-0.1,0.2-0.1h13.2c0.1,0,0.1,0,0.2,0.1c0.1,0,0.1,0.1,0.2,0.2
		c0,0.1,0.1,0.2,0.1,0.3C38,12.3,38,12.5,38,12.7z"/>
	<path class="st0" d="M54.2,30.2c0,0.1,0,0.1,0,0.2s-0.1,0.1-0.2,0.1c-0.1,0-0.2,0.1-0.4,0.1s-0.4,0-0.7,0s-0.5,0-0.6,0
		c-0.2,0-0.3-0.1-0.4-0.1c-0.1,0-0.2-0.1-0.2-0.2c-0.1-0.1-0.1-0.2-0.1-0.3l-1.7-4.5c-0.2-0.5-0.4-1-0.6-1.4
		c-0.2-0.4-0.5-0.8-0.8-1.1c-0.3-0.3-0.7-0.5-1.1-0.7C47,22.1,46.5,22,45.9,22h-1.7v8.1c0,0.1,0,0.1-0.1,0.2c0,0.1-0.1,0.1-0.2,0.1
		c-0.1,0-0.2,0.1-0.4,0.1s-0.4,0-0.6,0c-0.2,0-0.4,0-0.6,0c-0.2,0-0.3-0.1-0.4-0.1c-0.1,0-0.2-0.1-0.2-0.1c0-0.1-0.1-0.1-0.1-0.2
		V12.6c0-0.4,0.1-0.6,0.3-0.8s0.4-0.2,0.6-0.2h4c0.5,0,0.9,0,1.2,0s0.6,0.1,0.9,0.1c0.7,0.1,1.4,0.3,1.9,0.6c0.6,0.3,1,0.6,1.4,1
		s0.7,0.9,0.9,1.4s0.3,1.1,0.3,1.8c0,0.6-0.1,1.2-0.3,1.7s-0.4,0.9-0.7,1.3s-0.7,0.7-1.2,1c-0.4,0.3-1,0.5-1.5,0.7
		c0.3,0.1,0.6,0.3,0.9,0.5c0.3,0.2,0.5,0.5,0.7,0.8s0.4,0.6,0.6,1c0.2,0.4,0.4,0.8,0.6,1.3l1.7,4.2c0.1,0.4,0.2,0.6,0.3,0.7
		C54.2,30,54.2,30.1,54.2,30.2z M50.4,16.9c0-0.7-0.2-1.4-0.5-1.9s-0.9-0.9-1.7-1.1c-0.2-0.1-0.5-0.1-0.8-0.1s-0.7,0-1.2,0h-2.1v6.4
		h2.5c0.7,0,1.2-0.1,1.7-0.2c0.5-0.2,0.9-0.4,1.2-0.7c0.3-0.3,0.6-0.6,0.7-1C50.3,17.8,50.4,17.3,50.4,16.9z"/>
	<path class="st0" d="M71.1,23.5c0,1.1-0.2,2.1-0.5,3s-0.8,1.6-1.4,2.3c-0.6,0.6-1.4,1.1-2.3,1.4s-1.9,0.5-3,0.5c-1,0-2-0.1-2.8-0.4
		s-1.6-0.7-2.2-1.3c-0.6-0.6-1.1-1.3-1.4-2.2c-0.3-0.9-0.5-1.9-0.5-3V12.1c0-0.1,0-0.1,0.1-0.2c0-0.1,0.1-0.1,0.2-0.1
		c0.1,0,0.2-0.1,0.4-0.1s0.4,0,0.6,0c0.2,0,0.4,0,0.6,0c0.2,0,0.3,0.1,0.4,0.1c0.1,0,0.2,0.1,0.2,0.1c0,0.1,0.1,0.1,0.1,0.2v11.3
		c0,0.9,0.1,1.6,0.3,2.3c0.2,0.6,0.5,1.2,0.9,1.6s0.9,0.8,1.4,1c0.6,0.2,1.2,0.3,1.9,0.3s1.4-0.1,1.9-0.3c0.6-0.2,1-0.5,1.4-1
		c0.4-0.4,0.7-0.9,0.9-1.6c0.2-0.6,0.3-1.4,0.3-2.2V12.1c0-0.1,0-0.1,0.1-0.2c0-0.1,0.1-0.1,0.2-0.1s0.2-0.1,0.4-0.1
		c0.2,0,0.4,0,0.6,0s0.4,0,0.6,0s0.3,0.1,0.4,0.1s0.2,0.1,0.2,0.1c0,0.1,0.1,0.1,0.1,0.2L71.1,23.5L71.1,23.5z"/>
	<path class="st0" d="M85.3,25.2c0,0.9-0.2,1.6-0.5,2.3c-0.3,0.7-0.8,1.3-1.3,1.7c-0.6,0.5-1.2,0.8-2,1.1c-0.8,0.2-1.6,0.4-2.5,0.4
		c-0.6,0-1.2-0.1-1.7-0.2s-1-0.2-1.4-0.4c-0.4-0.2-0.8-0.3-1-0.5c-0.3-0.2-0.5-0.3-0.6-0.4s-0.2-0.3-0.2-0.4
		C74,28.6,74,28.4,74,28.1c0-0.2,0-0.4,0-0.5s0-0.3,0.1-0.3c0-0.1,0.1-0.1,0.1-0.2c0.1,0,0.1,0,0.2,0s0.3,0.1,0.6,0.2
		c0.2,0.2,0.6,0.3,0.9,0.5c0.4,0.2,0.8,0.4,1.4,0.5c0.5,0.2,1.2,0.3,1.9,0.3c0.5,0,1-0.1,1.5-0.2c0.4-0.1,0.8-0.3,1.1-0.6
		c0.3-0.3,0.6-0.6,0.7-1c0.2-0.4,0.3-0.8,0.3-1.3s-0.1-1-0.4-1.3c-0.2-0.4-0.6-0.7-0.9-1c-0.4-0.3-0.8-0.5-1.3-0.8
		c-0.5-0.2-1-0.5-1.5-0.7s-1-0.5-1.5-0.8s-0.9-0.6-1.3-1s-0.7-0.9-1-1.4c-0.2-0.5-0.4-1.2-0.4-1.9c0-0.8,0.1-1.5,0.4-2.1
		s0.7-1.1,1.2-1.5s1.1-0.7,1.8-0.9c0.7-0.2,1.4-0.3,2.2-0.3c0.4,0,0.8,0,1.2,0.1c0.4,0.1,0.8,0.2,1.2,0.3c0.4,0.1,0.7,0.3,1,0.4
		c0.3,0.1,0.5,0.3,0.6,0.4c0.1,0.1,0.2,0.2,0.2,0.2c0,0.1,0.1,0.1,0.1,0.2c0,0.1,0,0.2,0,0.3s0,0.3,0,0.4c0,0.2,0,0.3,0,0.5
		c0,0.1,0,0.2-0.1,0.3c0,0.1-0.1,0.2-0.1,0.2C84,14.9,84,15,83.9,15s-0.3-0.1-0.5-0.2c-0.2-0.1-0.5-0.3-0.8-0.5s-0.7-0.3-1.1-0.5
		c-0.4-0.1-0.9-0.2-1.5-0.2c-0.5,0-1,0.1-1.3,0.2c-0.4,0.1-0.7,0.3-0.9,0.5c-0.2,0.2-0.4,0.5-0.6,0.8c-0.1,0.3-0.2,0.7-0.2,1
		c0,0.5,0.1,1,0.4,1.3c0.2,0.4,0.6,0.7,1,1s0.8,0.5,1.4,0.8c0.5,0.2,1,0.5,1.5,0.7s1,0.5,1.5,0.8s1,0.6,1.4,1s0.7,0.9,1,1.4
		C85.2,23.8,85.3,24.5,85.3,25.2z"/>
	<path class="st0" d="M101,12.7c0,0.2,0,0.3,0,0.5c0,0.1-0.1,0.2-0.1,0.3s-0.1,0.1-0.2,0.2c-0.1,0-0.1,0.1-0.2,0.1h-5.3v16.4
		c0,0.1,0,0.1-0.1,0.2c0,0.1-0.1,0.1-0.2,0.1s-0.2,0.1-0.4,0.1c-0.2,0-0.4,0-0.6,0s-0.4,0-0.6,0s-0.3-0.1-0.4-0.1s-0.2-0.1-0.2-0.1
		c0-0.1-0.1-0.1-0.1-0.2V13.7h-5.3c-0.1,0-0.1,0-0.2-0.1c-0.1,0-0.1-0.1-0.2-0.2c0-0.1-0.1-0.2-0.1-0.3s0-0.3,0-0.5s0-0.4,0-0.5
		s0.1-0.3,0.1-0.3c0-0.1,0.1-0.2,0.2-0.2s0.1-0.1,0.2-0.1h13.2c0.1,0,0.2,0,0.2,0.1c0.1,0,0.1,0.1,0.2,0.2c0,0.1,0.1,0.2,0.1,0.3
		C101,12.3,101,12.5,101,12.7z"/>
	<path class="st0" d="M115.6,17.2c0,0.9-0.2,1.8-0.5,2.6c-0.3,0.8-0.8,1.4-1.3,1.9c-0.6,0.5-1.3,1-2.1,1.2c-0.8,0.3-1.9,0.4-3,0.4
		h-2.2v6.8c0,0.1,0,0.1-0.1,0.2c0,0.1-0.1,0.1-0.2,0.1s-0.2,0.1-0.4,0.1c-0.2,0-0.4,0-0.6,0s-0.4,0-0.6,0s-0.3-0.1-0.4-0.1
		s-0.2-0.1-0.2-0.1c0-0.1-0.1-0.1-0.1-0.2V12.7c0-0.4,0.1-0.7,0.3-0.8c0.2-0.2,0.4-0.2,0.7-0.2h4.1c0.4,0,0.8,0,1.2,0.1
		c0.4,0,0.8,0.1,1.3,0.2c0.5,0.1,1,0.3,1.6,0.6c0.5,0.3,1,0.7,1.4,1.1c0.4,0.5,0.7,1,0.9,1.6C115.5,15.8,115.6,16.4,115.6,17.2z
		 M113,17.4c0-0.8-0.1-1.4-0.4-1.9s-0.6-0.9-1.1-1.2c-0.4-0.3-0.9-0.4-1.3-0.5c-0.5-0.1-0.9-0.1-1.3-0.1h-2.3v7.6h2.3
		c0.8,0,1.4-0.1,1.9-0.3c0.5-0.2,0.9-0.5,1.3-0.8c0.3-0.3,0.6-0.8,0.8-1.2C112.9,18.5,113,17.9,113,17.4z"/>
	<path class="st0" d="M121.6,30.2c0,0.1,0,0.1-0.1,0.2c0,0.1-0.1,0.1-0.2,0.1s-0.2,0.1-0.4,0.1c-0.2,0-0.4,0-0.6,0s-0.4,0-0.6,0
		s-0.3-0.1-0.4-0.1s-0.2-0.1-0.2-0.1c0-0.1-0.1-0.1-0.1-0.2V12.1c0-0.1,0-0.1,0.1-0.2c0-0.1,0.1-0.1,0.2-0.1s0.2-0.1,0.4-0.1
		c0.2,0,0.4,0,0.6,0s0.4,0,0.6,0s0.3,0.1,0.4,0.1s0.2,0.1,0.2,0.1c0,0.1,0.1,0.1,0.1,0.2V30.2z"/>
	<path class="st0" d="M136.1,29.6c0,0.2,0,0.4,0,0.5s-0.1,0.2-0.1,0.3c0,0.1-0.1,0.2-0.2,0.2c-0.1,0-0.1,0.1-0.2,0.1h-8.4
		c-0.2,0-0.4-0.1-0.6-0.2c-0.2-0.2-0.3-0.4-0.3-0.8V12.1c0-0.1,0-0.1,0.1-0.2c0-0.1,0.1-0.1,0.2-0.1s0.2-0.1,0.4-0.1
		c0.2,0,0.4,0,0.6,0s0.4,0,0.6,0s0.3,0.1,0.4,0.1c0.1,0,0.2,0.1,0.2,0.1c0,0.1,0.1,0.1,0.1,0.2v16.4h6.8c0.1,0,0.2,0,0.2,0.1
		c0.1,0,0.1,0.1,0.2,0.2c0,0.1,0.1,0.2,0.1,0.3C136.1,29.2,136.1,29.4,136.1,29.6z"/>
	<path class="st0" d="M153.3,20.9c0,1.5-0.2,2.8-0.5,4c-0.4,1.2-0.9,2.2-1.6,3.1c-0.7,0.8-1.6,1.5-2.6,1.9c-1.1,0.5-2.3,0.7-3.7,0.7
		s-2.6-0.2-3.6-0.6s-1.9-1-2.5-1.8c-0.7-0.8-1.2-1.8-1.5-2.9c-0.3-1.2-0.5-2.5-0.5-4s0.2-2.8,0.5-4c0.4-1.2,0.9-2.2,1.6-3
		c0.7-0.8,1.6-1.5,2.6-1.9c1.1-0.5,2.3-0.7,3.7-0.7s2.5,0.2,3.6,0.6c1,0.4,1.8,1,2.5,1.8s1.2,1.8,1.5,2.9S153.3,19.4,153.3,20.9z
		 M150.7,21.1c0-1-0.1-2-0.3-2.9s-0.5-1.7-0.9-2.3c-0.4-0.7-1-1.2-1.7-1.5c-0.7-0.4-1.6-0.6-2.7-0.6c-1.1,0-2,0.2-2.7,0.6
		c-0.7,0.4-1.3,0.9-1.8,1.6c-0.5,0.7-0.8,1.4-1,2.3s-0.3,1.8-0.3,2.8c0,1.1,0.1,2.1,0.3,3s0.5,1.7,0.9,2.4c0.4,0.7,1,1.2,1.7,1.5
		c0.7,0.4,1.6,0.6,2.7,0.6c1.1,0,2-0.2,2.7-0.6s1.3-0.9,1.8-1.6c0.4-0.7,0.8-1.5,1-2.4C150.6,23,150.7,22.1,150.7,21.1z"/>
	<path class="st0" d="M168,12.7c0,0.2,0,0.3,0,0.5c0,0.1-0.1,0.2-0.1,0.3s-0.1,0.1-0.2,0.2c-0.1,0-0.1,0.1-0.2,0.1h-5.3v16.4
		c0,0.1,0,0.1-0.1,0.2c0,0.1-0.1,0.1-0.2,0.1c-0.1,0-0.2,0.1-0.4,0.1s-0.4,0-0.6,0c-0.2,0-0.4,0-0.6,0c-0.2,0-0.3-0.1-0.4-0.1
		c-0.1,0-0.2-0.1-0.2-0.1c0-0.1-0.1-0.1-0.1-0.2V13.7h-5.3c-0.1,0-0.1,0-0.2-0.1c-0.1,0-0.1-0.1-0.2-0.2c0-0.1-0.1-0.2-0.1-0.3
		s0-0.3,0-0.5s0-0.4,0-0.5s0.1-0.3,0.1-0.3c0-0.1,0.1-0.2,0.2-0.2c0.1,0,0.1-0.1,0.2-0.1h13.2c0.1,0,0.1,0,0.2,0.1
		c0.1,0,0.1,0.1,0.2,0.2c0,0.1,0.1,0.2,0.1,0.3C168,12.3,168,12.5,168,12.7z"/>
	<path class="st0" d="M0,11.9V20c0,0,6.1,2.9,9.2,8.1c0,0,1.4-11.5,9-16.1H0V11.9z"/>
	<path class="st0" d="M0,26.6v3.6h8.2C8.2,30.2,5.1,26.9,0,26.6z M10.4,30.2h7.8V19.8C13.8,21,10.4,30.2,10.4,30.2z"/>
	<g>
		<path class="st0" d="M18.2,12C18.2,11.9,18.2,11.9,18.2,12"/>
	</g>
</g>
</svg>
