<?xml version="1.0" encoding="utf-8"?>
<!-- Generator: Adobe Illustrator 19.2.0, SVG Export Plug-In . SVG Version: 6.00 Build 0)  -->
<svg version="1.1" id="Layer_1" xmlns="http://www.w3.org/2000/svg" xmlns:xlink="http://www.w3.org/1999/xlink" x="0px" y="0px"
	 viewBox="0 0 58 58" style="enable-background:new 0 0 58 58;" xml:space="preserve">
<style type="text/css">
	.st0{fill:#8CC640;}
</style>
<g>
	<g>
		<path class="st0" d="M29,58C13,58,0,45,0,29S13,0,29,0s29,13,29,29S45,58,29,58z M29,2.6C14.5,2.6,2.6,14.4,2.6,29
			S14.5,55.4,29,55.4S55.4,43.5,55.4,29S43.6,2.6,29,2.6z"/>
	</g>
	<path class="st0" d="M28.8,25.2c2.2,0,4,1.8,4,4s-1.8,4-4,4s-4-1.8-4-4S26.5,25.2,28.8,25.2 M28.8,23.2c-3.3,0-6,2.7-6,6
		c0,3.3,2.7,6,6,6c3.3,0,6-2.7,6-6C34.8,25.9,32.1,23.2,28.8,23.2L28.8,23.2z"/>
	<g>
		<g>
			<path class="st0" d="M29,18.9c-0.6,0-1-0.4-1-1V6.9c0-0.6,0.4-1,1-1s1,0.4,1,1v11.1C30,18.5,29.6,18.9,29,18.9z"/>
		</g>
		<g>
			<path class="st0" d="M28.8,20.6c-0.3,0-0.5-0.1-0.7-0.3c-0.4-0.4-0.4-1,0-1.4L33,14c0.4-0.4,1-0.4,1.4,0c0.4,0.4,0.4,1,0,1.4
				l-4.9,4.9C29.3,20.5,29.1,20.6,28.8,20.6z"/>
		</g>
		<g>
			<path class="st0" d="M28.6,20.6c-0.3,0-0.5-0.1-0.7-0.3l-4.9-4.9c-0.4-0.4-0.4-1,0-1.4c0.4-0.4,1-0.4,1.4,0l4.9,4.9
				c0.4,0.4,0.4,1,0,1.4C29.2,20.5,28.9,20.6,28.6,20.6z"/>
		</g>
	</g>
	<g>
		<g>
			<path class="st0" d="M50.9,31H39.9c-0.6,0-1-0.4-1-1s0.4-1,1-1h11.1c0.6,0,1,0.4,1,1S51.5,31,50.9,31z"/>
		</g>
		<g>
			<path class="st0" d="M43.3,36.3c-0.3,0-0.5-0.1-0.7-0.3l-4.9-4.9c-0.4-0.4-0.4-1,0-1.4c0.4-0.4,1-0.4,1.4,0l4.9,4.9
				c0.4,0.4,0.4,1,0,1.4C43.8,36.2,43.5,36.3,43.3,36.3z"/>
		</g>
		<g>
			<path class="st0" d="M38.4,31.2c-0.3,0-0.5-0.1-0.7-0.3c-0.4-0.4-0.4-1,0-1.4l4.9-4.9c0.4-0.4,1-0.4,1.4,0c0.4,0.4,0.4,1,0,1.4
				l-4.9,4.9C38.9,31.1,38.7,31.2,38.4,31.2z"/>
		</g>
	</g>
	<g>
		<g>
			<path class="st0" d="M29,52.1c-0.6,0-1-0.4-1-1V40c0-0.6,0.4-1,1-1s1,0.4,1,1v11.1C30,51.6,29.6,52.1,29,52.1z"/>
		</g>
		<g>
			<path class="st0" d="M23.9,44.5c-0.3,0-0.5-0.1-0.7-0.3c-0.4-0.4-0.4-1,0-1.4l4.9-4.9c0.4-0.4,1-0.4,1.4,0c0.4,0.4,0.4,1,0,1.4
				l-4.9,4.9C24.5,44.4,24.2,44.5,23.9,44.5z"/>
		</g>
		<g>
			<path class="st0" d="M33.8,44.5c-0.3,0-0.5-0.1-0.7-0.3l-4.9-4.9c-0.4-0.4-0.4-1,0-1.4c0.4-0.4,1-0.4,1.4,0l4.9,4.9
				c0.4,0.4,0.4,1,0,1.4C34.3,44.4,34.1,44.5,33.8,44.5z"/>
		</g>
	</g>
	<g>
		<g>
			<path class="st0" d="M17.8,31H6.7c-0.6,0-1-0.4-1-1s0.4-1,1-1h11.1c0.6,0,1,0.4,1,1S18.3,31,17.8,31z"/>
		</g>
		<g>
			<path class="st0" d="M19.2,30.8c-0.3,0-0.5-0.1-0.7-0.3l-4.9-4.9c-0.4-0.4-0.4-1,0-1.4c0.4-0.4,1-0.4,1.4,0l4.9,4.9
				c0.4,0.4,0.4,1,0,1.4C19.7,30.7,19.4,30.8,19.2,30.8z"/>
		</g>
		<g>
			<path class="st0" d="M14.3,35.8c-0.3,0-0.5-0.1-0.7-0.3c-0.4-0.4-0.4-1,0-1.4l4.9-4.9c0.4-0.4,1-0.4,1.4,0s0.4,1,0,1.4L15,35.6
				C14.8,35.7,14.6,35.8,14.3,35.8z"/>
		</g>
	</g>
</g>
</svg>
