<?xml version="1.0" encoding="utf-8"?>
<!-- Generator: Adobe Illustrator 19.2.0, SVG Export Plug-In . SVG Version: 6.00 Build 0)  -->
<svg version="1.1" id="Layer_1" xmlns="http://www.w3.org/2000/svg" xmlns:xlink="http://www.w3.org/1999/xlink" x="0px" y="0px"
	 viewBox="0 0 58 58" style="enable-background:new 0 0 58 58;" xml:space="preserve">
<style type="text/css">
	.st0{fill:#8CC640;}
	.st1{opacity:0.5;}
	.st2{fill:#8DC63F;}
	.st3{fill:#3B4251;}
</style>
<g>
	<g>
		<g>
			<path class="st0" d="M29,58C13,58,0,45,0,29S13,0,29,0s29,13,29,29S45,58,29,58z M29,2.6C14.4,2.6,2.5,14.4,2.5,29
				S14.4,55.4,29,55.4S55.4,43.6,55.4,29S43.6,2.6,29,2.6z"/>
		</g>
	</g>
	<g>
		<g class="st1">
			<rect x="14.4" y="21.8" class="st2" width="29.2" height="1"/>
		</g>
		<g>
			<path class="st0" d="M43.2,42.8H14.8c-0.8,0-1.4-0.6-1.4-1.4V15.6c0-0.8,0.6-1.4,1.4-1.4h28.4c0.8,0,1.4,0.6,1.4,1.4v25.8
				C44.6,42.2,43.9,42.8,43.2,42.8z M15.4,40.8h27.2V16.2H15.4V40.8z"/>
		</g>
		<g>
			<path class="st3" d="M20.3,32.9c-0.1,0-0.2,0-0.2-0.1L18.7,31c-0.1-0.1-0.1-0.3,0-0.4c0.1-0.1,0.3-0.1,0.4,0l1.4,1.8
				c0.1,0.1,0.1,0.3,0,0.4C20.4,32.9,20.4,32.9,20.3,32.9z M20.3,32.9c-0.1,0-0.1,0-0.2-0.1c-0.1-0.1-0.1-0.3-0.1-0.4l1.7-2.2
				c0.1-0.1,0.3-0.1,0.4-0.1c0.1,0.1,0.1,0.3,0.1,0.4l-1.7,2.2C20.5,32.8,20.4,32.9,20.3,32.9z M25,35.8c-0.1,0-0.2,0-0.2-0.1
				l-3-5.1c-0.1-0.1,0-0.3,0.1-0.4c0.1-0.1,0.3,0,0.4,0.1l3,5.1c0.1,0.1,0,0.3-0.1,0.4C25.1,35.8,25.1,35.8,25,35.8z M25,35.8
				c0,0-0.1,0-0.1,0c-0.1-0.1-0.2-0.3-0.1-0.4l1.7-2.9c0.1-0.1,0.3-0.2,0.4-0.1c0.1,0.1,0.2,0.3,0.1,0.4l-1.7,2.9
				C25.2,35.8,25.1,35.8,25,35.8z M28.9,35.1c-0.1,0-0.1,0-0.2-0.1l-2.2-2.2c-0.1-0.1-0.1-0.3,0-0.4c0.1-0.1,0.3-0.1,0.4,0l2.2,2.2
				c0.1,0.1,0.1,0.3,0,0.4C29.1,35.1,29,35.1,28.9,35.1z M28.9,35.1c-0.1,0-0.1,0-0.2,0c-0.1-0.1-0.2-0.3-0.1-0.4l2.8-4.4
				c0.1-0.1,0.3-0.2,0.4-0.1c0.1,0.1,0.2,0.3,0.1,0.4L29.2,35C29.1,35.1,29,35.1,28.9,35.1z M34.3,34.9c-0.1,0-0.2,0-0.2-0.1
				l-2.5-4.2c-0.1-0.1,0-0.3,0.1-0.4c0.1-0.1,0.3,0,0.4,0.1l2.5,4.2c0.1,0.1,0,0.3-0.1,0.4C34.4,34.9,34.4,34.9,34.3,34.9L34.3,34.9
				z M34.3,34.9c-0.1,0-0.1,0-0.2-0.1c-0.1-0.1-0.2-0.3-0.1-0.4l5.6-8c0.1-0.1,0.3-0.2,0.4-0.1c0.1,0.1,0.2,0.3,0.1,0.4l-5.6,8
				C34.5,34.8,34.4,34.9,34.3,34.9L34.3,34.9z"/>
			<path class="st2" d="M25,36.1L25,36.1L25,36.1c-0.1,0-0.2,0-0.3-0.1c-0.1,0-0.2-0.1-0.2-0.2l-2.6-4.4l-1.2,1.6
				c-0.1,0.1-0.2,0.2-0.4,0.2c0,0,0,0,0,0l0,0c0,0,0,0,0,0c-0.1,0-0.2,0-0.3-0.1c0,0-0.1-0.1-0.1-0.1l-1.4-1.8
				c-0.1-0.1-0.1-0.3-0.1-0.4c0-0.1,0.1-0.3,0.2-0.4c0.2-0.2,0.6-0.1,0.8,0.1l1,1.3l1.3-1.7c0.1-0.1,0.1-0.1,0.2-0.2
				c0.1,0,0.2-0.1,0.3,0c0,0,0,0,0,0c0.1,0,0.2,0.1,0.2,0.2c0,0,0,0,0,0.1l2.6,4.3l1.2-2.2c0.1-0.1,0.2-0.2,0.3-0.2
				c0.1,0,0.2,0,0.3,0c0.1,0,0.2,0.1,0.2,0.1c0,0,0,0,0,0l1.7,1.8l2.5-3.9c0.1-0.1,0.2-0.2,0.3-0.2c0.1,0,0.3,0,0.4,0.1
				c0.1,0,0.1,0.1,0.2,0.2l2.1,3.5l5.2-7.4c0.2-0.2,0.5-0.3,0.7-0.1s0.3,0.5,0.1,0.7l-5.6,8c0,0.1-0.1,0.1-0.2,0.2
				c0,0-0.1,0-0.1,0.1l0,0c0,0,0,0,0,0c0,0-0.1,0-0.1,0l0,0c0,0,0,0,0,0h0h0c0,0,0,0,0,0c0,0,0,0,0,0l0,0c0,0,0,0,0,0c0,0,0,0,0,0h0
				h0c0,0,0,0,0,0l0,0c-0.1,0-0.2,0-0.3-0.1c-0.1,0-0.1-0.1-0.2-0.2l-2.1-3.4l-2.4,3.7c0,0,0,0,0,0.1c0,0,0,0.1-0.1,0.1
				c-0.1,0.1-0.2,0.1-0.3,0.1c0,0,0,0,0,0h0c0,0,0,0,0,0h0c0,0,0,0,0,0c-0.1,0-0.3-0.1-0.4-0.2l-1.7-1.7l-1.3,2.3c0,0,0,0,0,0
				c0,0.1-0.1,0.1-0.2,0.1C25.2,36,25.1,36.1,25,36.1z M25,35.6L25,35.6C25,35.6,25.1,35.6,25,35.6L25,35.6L25,35.6L25,35.6z
				 M22.3,30.9l2.4,4.1l0,0L22.3,30.9L22.3,30.9z M25.3,35L25.3,35l1.2-1.9l0,0L25.3,35z M28.9,34.8L28.9,34.8L28.9,34.8
				C28.9,34.9,28.9,34.9,28.9,34.8C29,34.9,29,34.9,28.9,34.8L28.9,34.8z M34.3,34.6L34.3,34.6L34.3,34.6
				C34.3,34.6,34.3,34.6,34.3,34.6L34.3,34.6z M27.1,33l1.4,1.5l0,0L27.1,33L27.1,33z M29.2,34.4L29.2,34.4l2.3-3.4l0-0.1L29.2,34.4
				z M34.6,34.1L34.6,34.1l5.3-7.5l-0.3-0.2l0.2,0.1L34.6,34.1z M32.1,30.9l1.9,3.2l0,0L32.1,30.9L32.1,30.9z M26.7,32.6L26.7,32.6
				L26.7,32.6L26.7,32.6L26.7,32.6z M20.3,32.6L20.3,32.6C20.3,32.6,20.3,32.6,20.3,32.6C20.3,32.6,20.3,32.6,20.3,32.6L20.3,32.6
				L20.3,32.6L20.3,32.6z M18.9,30.8L18.9,30.8l1,1.4l0,0L18.9,30.8z M20.6,32.1L20.6,32.1l1-1.2l0-0.1L20.6,32.1z M31.8,30.4
				L31.8,30.4L31.8,30.4L31.8,30.4L31.8,30.4z M22,30.4L22,30.4L22,30.4L22,30.4L22,30.4z"/>
		</g>
		<g>
			<path class="st2" d="M18.5,20.6c-0.8,0-1.5-0.7-1.5-1.5s0.7-1.5,1.5-1.5s1.5,0.7,1.5,1.5S19.3,20.6,18.5,20.6z M18.5,18.6
				c-0.3,0-0.5,0.2-0.5,0.5s0.2,0.5,0.5,0.5s0.5-0.2,0.5-0.5S18.8,18.6,18.5,18.6z"/>
		</g>
	</g>
</g>
</svg>
