<?xml version="1.0" encoding="utf-8"?>
<!-- Generator: Adobe Illustrator 19.2.0, SVG Export Plug-In . SVG Version: 6.00 Build 0)  -->
<svg version="1.1" id="Layer_1" xmlns="http://www.w3.org/2000/svg" xmlns:xlink="http://www.w3.org/1999/xlink" x="0px" y="0px"
	 viewBox="0 0 58 58" style="enable-background:new 0 0 58 58;" xml:space="preserve">
<style type="text/css">
	.st0{fill:#8CC640;}
	.st1{fill:none;stroke:#8CC640;stroke-miterlimit:10;}
	.st2{fill:none;stroke:#8CC640;stroke-miterlimit:10;stroke-dasharray:3.0095,3.0095;}
	.st3{fill:none;stroke:#8CC640;stroke-width:2;stroke-miterlimit:10;}
	.st4{opacity:0.5;fill:none;stroke:#8CC640;stroke-miterlimit:10;}
</style>
<g>
	<path class="st0" d="M29,58C13,58,0,45,0,29S13,0,29,0s29,13,29,29S45,58,29,58z M29,2.6C14.4,2.6,2.6,14.4,2.6,29
		S14.4,55.4,29,55.4S55.4,43.6,55.4,29S43.6,2.6,29,2.6z"/>
</g>
<g>
	<g>
		<path class="st0" d="M22.2,33.3h-3v-1h3V33.3z"/>
	</g>
	<polyline class="st1" points="16.2,32.8 14.7,32.8 14.7,31.3 	"/>
	<line class="st2" x1="14.7" y1="28.3" x2="14.7" y2="17.7"/>
	<polyline class="st1" points="14.7,16.2 14.7,14.7 16.2,14.7 	"/>
	<line class="st2" x1="19.2" y1="14.7" x2="29.7" y2="14.7"/>
	<polyline class="st1" points="31.2,14.7 32.7,14.7 32.7,16.2 	"/>
	<g>
		<path class="st0" d="M33.2,22.3h-1v-3h1V22.3z"/>
	</g>
</g>
<rect x="24.6" y="24.7" class="st3" width="19" height="19"/>
<line class="st4" x1="23.8" y1="30" x2="43.6" y2="30"/>
</svg>
