<?xml version="1.0" encoding="utf-8"?>
<!-- Generator: Adobe Illustrator 19.2.0, SVG Export Plug-In . SVG Version: 6.00 Build 0)  -->
<svg version="1.1" id="Layer_1" xmlns="http://www.w3.org/2000/svg" xmlns:xlink="http://www.w3.org/1999/xlink" x="0px" y="0px"
	 viewBox="0 0 132 122" style="enable-background:new 0 0 132 122;" xml:space="preserve">
<style type="text/css">
	.st0{fill:#8CC640;}
	.st1{fill:#3B4251;}
</style>
<g>
	<path class="st0" d="M21.5,37.4c-0.2,0-0.4,0-0.5-0.1l-9.3-5.4c-0.5-0.3-0.7-0.9-0.4-1.4c1.9-3.9,5.9-6.4,10.2-6.4
		c0.6,0,1.1,0.5,1.1,1.1v11.2c0,0.4-0.2,0.7-0.5,0.9C21.9,37.4,21.7,37.4,21.5,37.4z M13.7,30.6l6.8,3.9v-8.2
		C17.7,26.6,15.2,28.2,13.7,30.6z M11.6,39.6c-0.5,0-0.9-0.3-1-0.7c-0.3-1.1-0.5-2.2-0.5-3.3c0-1.8,0.4-3.4,1.2-5
		c0.1-0.3,0.4-0.5,0.6-0.5c0.3-0.1,0.6-0.1,0.8,0.1l9.3,5.4c0.4,0.2,0.6,0.6,0.5,1.1c-0.1,0.4-0.4,0.8-0.8,0.9l-9.9,2.2L11.6,39.6z
		 M12.7,32.5c-0.3,1-0.5,2-0.5,3c0,0.6,0.1,1.2,0.2,1.7l6.3-1.4L12.7,32.5z M21.5,46.9c-0.6,0-1.1-0.5-1.1-1.1v-9.5
		c0-0.4,0.2-0.7,0.5-0.9c0.3-0.2,0.7-0.2,1.1,0l8.6,5c0.3,0.1,0.4,0.4,0.5,0.7c0.1,0.3,0,0.6-0.2,0.8C28.9,45.1,25.3,46.9,21.5,46.9
		z M22.6,38.2v6.6c2.3-0.3,4.5-1.4,6-3.2L22.6,38.2z M21.5,46.9c-5,0-9.5-3.3-10.9-8.1c-0.1-0.3,0-0.6,0.1-0.8
		c0.1-0.3,0.4-0.4,0.7-0.5l9.9-2.2c0.3-0.1,0.6,0,0.9,0.2c0.2,0.2,0.4,0.5,0.4,0.8v9.5C22.6,46.5,22.1,46.9,21.5,46.9z M13,39.3
		c1.3,3,4.2,5.1,7.5,5.5v-7.1L13,39.3z"/>
	<path class="st1" d="M30.1,42.3c-0.2,0-0.4,0-0.5-0.1l-8.6-5c-0.3-0.2-0.5-0.5-0.5-0.9V25.2c0-0.6,0.5-1.1,1.1-1.1
		c6.3,0,11.4,5.1,11.4,11.4c0,2.3-0.7,4.5-1.9,6.4C30.8,42.2,30.5,42.3,30.1,42.3z M22.6,35.7l7.2,4.1c0.7-1.3,1.1-2.8,1.1-4.3
		c0-4.8-3.6-8.7-8.2-9.2V35.7z"/>
	<path class="st0" d="M41.5,57.1H1.6c-0.9,0-1.6-0.7-1.6-1.6V15.6C0,14.7,0.7,14,1.6,14h39.9c0.9,0,1.6,0.7,1.6,1.6v39.9
		C43,56.4,42.3,57.1,41.5,57.1z M3.2,53.9h36.7V17.2H3.2V53.9z M64.4,108H1.6c-0.9,0-1.6-0.7-1.6-1.6V66.5c0-0.9,0.7-1.6,1.6-1.6
		h62.9c0.9,0,1.6,0.7,1.6,1.6v39.9C66,107.3,65.3,108,64.4,108z M3.2,104.8h59.7V68.1H3.2V104.8z M130.2,108H73.8
		c-0.9,0-1.6-0.7-1.6-1.6V66.5c0-0.9,0.7-1.6,1.6-1.6h56.4c0.9,0,1.6,0.7,1.6,1.6v39.9C131.8,107.3,131.1,108,130.2,108z
		 M75.4,104.8h53.3V68.1H75.4V104.8z M130.4,57.1H52.5c-0.9,0-1.6-0.7-1.6-1.6V15.6c0-0.9,0.7-1.6,1.6-1.6h77.9
		c0.9,0,1.6,0.7,1.6,1.6v39.9C132,56.4,131.3,57.1,130.4,57.1z M54.1,53.9h74.8V17.2H54.1V53.9z"/>
	<path class="st1" d="M121.5,43.9c-0.4,0-0.7-0.2-0.9-0.6l-8.4-16l-6.7,12.1c-0.2,0.3-0.4,0.5-0.7,0.5l-13.4,2.4
		c-0.3,0.1-0.6,0-0.8-0.2l-10.8-7.6l-11.3,9.1c-0.3,0.2-0.6,0.3-0.9,0.2c-0.3-0.1-0.6-0.3-0.7-0.6l-5.5-12.1c-0.2-0.5,0-1.2,0.5-1.4
		c0.5-0.2,1.2,0,1.4,0.5l5,10.8L79,32.4c0.4-0.3,0.9-0.3,1.3,0l11.1,7.8l12.5-2.2l7.4-13.3c0.2-0.3,0.6-0.5,0.9-0.5
		c0.4,0,0.7,0.2,0.9,0.6l9.3,17.7c0.3,0.5,0.1,1.2-0.4,1.4C121.8,43.9,121.7,43.9,121.5,43.9L121.5,43.9z"/>
	<path class="st0" d="M96.3,99.3H84.2c-0.6,0-1.1-0.5-1.1-1.1V76c0-0.6,0.5-1.1,1.1-1.1h12.1c0.6,0,1.1,0.5,1.1,1.1v22.2
		C97.3,98.8,96.9,99.3,96.3,99.3z M85.2,97.2h10V77h-10V97.2z"/>
	<path class="st1" d="M96.3,84.7H84.2c-0.6,0-1.1-0.5-1.1-1.1v-7.7c0-0.6,0.5-1.1,1.1-1.1h12.1c0.6,0,1.1,0.5,1.1,1.1v7.7
		C97.3,84.3,96.9,84.7,96.3,84.7z M85.2,82.6h10V77h-10V82.6z"/>
	<path class="st0" d="M96.3,99.3H84.2c-0.6,0-1.1-0.5-1.1-1.1v-5c0-0.6,0.5-1.1,1.1-1.1h12.1c0.6,0,1.1,0.5,1.1,1.1v5
		C97.3,98.8,96.9,99.3,96.3,99.3z M85.2,97.2h10v-2.9h-10V97.2z M106,81.4h-2.6c-0.4,0-0.7-0.3-0.7-0.7v-0.3l0.1-0.1
		c0.4-0.5,1.3-1.6,1.7-2.2c0.2-0.2,0.2-0.4,0.2-0.4c0-0.1-0.1-0.1-0.2-0.1c-0.1,0-0.2,0.1-0.4,0.2l-0.2,0.2l-0.3,0
		c-0.2,0-0.3-0.1-0.5-0.2l-0.3-0.3c-0.2-0.2-0.3-0.6,0-0.9c0,0,0.7-0.8,1.7-0.8c1.2,0,2,0.8,2,1.8c0,0.6-0.3,1-0.5,1.4
		c-0.1,0.2-0.3,0.4-0.5,0.6h0.3c0.4,0,0.7,0.3,0.7,0.7v0.5C106.7,81.1,106.4,81.4,106,81.4z M104.8,90c-1,0-1.6-0.6-1.7-0.7
		c-0.3-0.4-0.2-0.7,0-0.9l0.5-0.5l0.3,0c0.2,0,0.3,0.1,0.4,0.2c0.1,0.1,0.3,0.2,0.5,0.2c0.2,0,0.2-0.1,0.2-0.3c0-0.1,0-0.2-0.3-0.2
		h-1c-0.4,0-0.7-0.3-0.7-0.8v-2c0-0.4,0.3-0.7,0.7-0.7h2.1c0.4,0,0.7,0.3,0.7,0.7v0.5c0,0.4-0.3,0.7-0.7,0.7h0
		c0.7,0.3,1.2,1,1.2,1.8C106.9,89.1,106,90,104.8,90L104.8,90z M105.3,98.4h-0.6c-0.4,0-0.7-0.3-0.7-0.7l0-2.5l-0.1,0
		c-0.3,0-0.6-0.2-0.6-0.6l0-0.3c0-0.2,0-0.4,0.2-0.6l1.1-1h0.7c0.4,0,0.6,0.3,0.6,0.7v4.3C105.9,98.1,105.6,98.4,105.3,98.4
		L105.3,98.4z M120.5,79.8h-6.8c-0.6,0-1.1-0.5-1.1-1.1c0-0.6,0.5-1.1,1.1-1.1h6.8c0.6,0,1.1,0.5,1.1,1.1
		C121.5,79.3,121,79.8,120.5,79.8z M120.5,88.3h-6.8c-0.6,0-1.1-0.5-1.1-1.1c0-0.6,0.5-1.1,1.1-1.1h6.8c0.6,0,1.1,0.5,1.1,1.1
		C121.5,87.8,121,88.3,120.5,88.3z M120.5,96.8h-6.8c-0.6,0-1.1-0.5-1.1-1.1s0.5-1.1,1.1-1.1h6.8c0.6,0,1.1,0.5,1.1,1.1
		S121,96.8,120.5,96.8z M40.2,98c-0.2,0-0.3,0-0.5-0.1c-0.4-0.2-0.6-0.5-0.6-0.9c-0.1-3.6-3-6.5-6.6-6.5S26.1,93.4,26,97
		c0,0.4-0.2,0.7-0.6,0.9c-0.3,0.2-0.8,0.1-1.1-0.1l-11.7-8.5c-0.4-0.3-0.5-0.8-0.3-1.3c3.6-8,11.6-13.2,20.3-13.2S49.3,80,52.9,88
		c0.2,0.5,0.1,1-0.3,1.3l-11.7,8.5C40.7,97.9,40.4,98,40.2,98z M14.5,88.1l9.6,7c0.9-3.8,4.4-6.7,8.4-6.7s7.5,2.9,8.4,6.7l9.6-7
		c-3.4-6.8-10.4-11.2-18-11.2S18,81.3,14.5,88.1z"/>
	<path class="st1" d="M32.6,98.7c-0.3,0-0.6-0.1-0.8-0.2c-0.7-0.4-1-1.4-0.5-2.2l7.6-12.7c0.4-0.7,1.4-1,2.2-0.5
		c0.7,0.4,1,1.4,0.5,2.2l-7.6,12.7C33.6,98.4,33.1,98.7,32.6,98.7z"/>
</g>
</svg>
