<?xml version="1.0" encoding="utf-8"?>
<!-- Generator: Adobe Illustrator 18.0.0, SVG Export Plug-In . SVG Version: 6.00 Build 0)  -->
<!DOCTYPE svg PUBLIC "-//W3C//DTD SVG 1.1//EN" "http://www.w3.org/Graphics/SVG/1.1/DTD/svg11.dtd">
<svg version="1.1" id="Layer_1" xmlns="http://www.w3.org/2000/svg" xmlns:xlink="http://www.w3.org/1999/xlink" x="0px" y="0px"
	 viewBox="0 0 370 265" enable-background="new 0 0 370 265" xml:space="preserve">
<g>
	<path fill="none" stroke="#3B4251" stroke-width="2" stroke-miterlimit="10" d="M181.1,192.7h9.9c2.8,0,5,2.2,5,5v9.9
		c0,2.8-2.2,5-5,5h-9.9c-2.8,0-5-2.2-5-5v-9.9C176.2,194.9,178.4,192.7,181.1,192.7z"/>
	<path fill="none" stroke="#8CC640" stroke-width="2" stroke-miterlimit="10" d="M214.2,118.9c-3.2-2.6-7-7.6-7.2-13.9
		c-0.1-1.9,0.5-7.8,1.2-10.3c-0.3,0.3-0.5,0.5-0.8,0.8c-0.1,0.1-0.1,0.1-0.2,0.2c-0.2,0.2-0.4,0.4-0.6,0.6c-0.2,0.2-0.4,0.4-0.7,0.6
		c-4.1,3.2-7.9,5.2-12.6,6.7c-0.4,0.1-0.5,0.2-0.9,0.3c0,0.1-0.1,0.3-0.2,0.4c-0.3,1.1-0.9,1.8-2.2,2.5c-0.8,0.5-1.9,0.9-3,1
		c-0.2,0-0.5,0.1-0.7,0.1c-0.1,0-0.1,0-0.2,0c-0.2,0-0.4,0-0.5,0c-0.1,0-0.1,0-0.2,0c-0.2,0-0.4,0-0.7-0.1l0,0
		c-0.2,0-0.2-0.1-0.4-0.1l-0.4-0.2c-1.5-0.4-2.7-1.5-3.1-3c-0.2-0.9,0.1-2.1,1.3-3.2c0.8-0.8,2-1.5,3.9-1.8c2.1-0.3,4,0.3,5.2,1.3
		c8.9-2.4,16.9-8.6,20.9-17c-1-1.4-0.4-3-0.1-4.8l2.7-11.6c0.5-2.5,0.8-4,1.7-5.4l0,0l0.1-1.4c0,0-0.9-8-0.6-10
		c0.3-2,0.6-10,0.6-12.2s-2.2-11.1-3.9-14.2c-1.7-3.1-6.6-8.7-10.5-9.8c-3.9-1.1-18.5-2.5-21.5-1.4c-3.1,1.1-8.4,1.7-8.4,1.7l-5,3.9
		c0,0-6.9,3.3-8.3,4.4c-1.4,1.1-2.5,6.3-2.8,7.2c-0.3,0.8-1.4,2.8-2.2,4.5c-0.8,1.7-0.7,16.8-0.6,20.5c0.1,2.5,0.1,3.9,0.2,6.8
		c0.6,0.9,1.1,1.9,1.6,4.3l2.4,12.6c0.4,2.1,0.5,3.7,0.5,5.1c0.5,1.2,1.1,2.6,1.3,2.8c0.8,1.1,1.3,1.7,1.3,1.7s3,8.3,4.2,11.1
		c1.1,2.8,1,8,1,10c0,2-4.1,8.3-7.3,10c-16.2,8.1-41.3,12.9-41.3,22.1c0,1.6,0,3.3,0,4.5h137.6c0-1.3,0-3,0-4.8
		C254.9,133.2,223,126.1,214.2,118.9z"/>
	<path fill="none" stroke="#3B4251" stroke-width="2" stroke-miterlimit="10" d="M150.8,62.7c0.3-0.2,0.8-0.3,1.2-0.3
		c2.8-0.5,3,1.3,3.5,4.2l2.4,12.7c0.5,2.8,1.2,5.5-1.6,6s-5.1-1.3-5.6-4.2L148.4,69c-0.1-0.6-0.2-1.1-0.2-2.3c0,0-1.6-9.5-1.6-26.2
		s6.6-28.8,23.4-33.7c0.3-1.4,1.4-2.6,3.1-3c8.2-2,16.8-2,25.1,0c1.8,0.4,3,1.8,3.1,3.3c15.7,4.6,23.4,16.5,23.4,33.4
		s-1.8,27.7-1.9,28l-0.3,1.8l-2.1,10.3c-0.5,2.8-2.5,5.1-5.2,4.6c-4.4,9.1-13.1,15.8-22.7,18.6c-0.4,1.9-2.5,3.6-5.2,3.9
		c-3.2,0.4-6-1-6.3-3.3c-0.3-2.3,2.1-4.4,5.2-4.9c2.1-0.3,4,0.3,5.2,1.3c8.9-2.4,17-8.7,21-17.1c-1.2-1.2-0.5-2.9-0.2-4.7l3-12.7
		c0.5-2.8,0.7-4.7,3.5-4.2c0.6,0.1,1.1,0.3,1.6,0.6c0,0,1.3-6.3,1.3-22.1s-7.4-26.7-21.8-30.7c-0.9,0.7-2.2,0.9-3.4,0.6
		c-7.1-1.7-14.6-1.7-21.7,0c-1.3,0.3-2.7,0-3.6-0.8c-15.3,4.3-21.5,15.6-21.5,30.9S150.8,62.7,150.8,62.7z"/>
	<line fill="none" stroke="#3B4251" stroke-width="2" stroke-miterlimit="10" x1="82" y1="262" x2="289" y2="262"/>
	<path fill="none" stroke="#3B4251" stroke-width="2" stroke-miterlimit="10" d="M91.9,146.2h185.3c2.8,0,5,2.2,5,5l-6.2,95.5
		c0,2.8-2.2,5-5,5H98.6c-2.8,0-5-2.2-5-5L87,151.2C87,148.4,89.1,146.2,91.9,146.2z"/>
</g>
</svg>
