<?xml version="1.0" encoding="utf-8"?>
<!-- Generator: Adobe Illustrator 19.2.0, SVG Export Plug-In . SVG Version: 6.00 Build 0)  -->
<svg version="1.1" id="Layer_1" xmlns="http://www.w3.org/2000/svg" xmlns:xlink="http://www.w3.org/1999/xlink" x="0px" y="0px"
	 viewBox="0 0 512 512" style="enable-background:new 0 0 512 512;" xml:space="preserve">
<style type="text/css">
	.st0{opacity:0.1;fill:#2B2F38;enable-background:new    ;}
	.st1{fill:#2B2F38;}
	.st2{fill:#8DC63F;}
	.st3{opacity:0.25;fill:#2B2F38;enable-background:new    ;}
	.st4{fill:#FFFFFF;}
	.st5{fill:none;stroke:#2B2F38;stroke-width:5.3656;stroke-miterlimit:10;}
	.st6{clip-path:url(#SVGID_2_);}
	.st7{fill:#3D4351;}
	.st8{opacity:0.1;fill:none;stroke:#000000;stroke-width:5.3656;stroke-miterlimit:10;enable-background:new    ;}
	.st9{opacity:0.1;enable-background:new    ;}
	
		.st10{opacity:0.25;fill:none;stroke:#FFFFFF;stroke-width:5.3656;stroke-linecap:round;stroke-miterlimit:10;enable-background:new    ;}
</style>
<g>
	<ellipse class="st0" cx="260" cy="476.7" rx="227" ry="14.3"/>
	<g>
		<path class="st1" d="M256.9,40.8c0.8,0,1.6,0.2,2.3,0.7l214,144.1c1.1,0.7,1.8,2,1.8,3.3v255.7c0,13.3-10.8,24.1-24.2,24.1H63.9
			c-13.4,0-24.2-10.8-24.2-24.1V188.9c0-1.3,0.7-2.6,1.8-3.3l213.1-144C255.3,41.1,256.1,40.8,256.9,40.8 M256.9,35.5L256.9,35.5
			c-1.9,0-3.7,0.6-5.3,1.6l-213.1,144c-2.6,1.7-4.1,4.7-4.1,7.8v255.7c0,16.3,13.3,29.5,29.5,29.5h386.8c16.3,0,29.5-13.2,29.5-29.5
			V188.9c0-3.1-1.5-6-4.1-7.8L262.1,37C260.6,36,258.7,35.5,256.9,35.5L256.9,35.5z"/>
	</g>
	<path class="st2" d="M450.7,468.7H63.9c-13.4,0-24.2-10.8-24.2-24.1V186.8L256.9,40l218,146.8v257.8
		C474.9,457.9,464.1,468.7,450.7,468.7z"/>
	<polygon class="st3" points="468.3,461.3 257.3,292.8 46.3,461.3 63.9,469 450.7,469 	"/>
	<polygon class="st4" points="39.7,186.8 256.9,40 473.6,186.8 300.3,326 257.3,292.7 213.3,327.7 	"/>
	<path class="st5" d="M450.7,468.7H63.9c-13.4,0-24.2-10.8-24.2-24.1V186.8L256.9,40l218,146.8v257.8
		C474.9,457.9,464.1,468.7,450.7,468.7z"/>
	<g>
		<g>
			<defs>
				<polygon id="SVGID_1_" points="474,186.8 298.5,326 257.1,292.7 210.1,328.7 40,186.8 40,-109 474,-109 				"/>
			</defs>
			<clipPath id="SVGID_2_">
				<use xlink:href="#SVGID_1_"  style="overflow:visible;"/>
			</clipPath>
			<g class="st6">
				<path class="st7" d="M108.6,504.7c-5.9,0-10.7-4.8-10.7-10.7V91.5c0-5.9,4.8-10.7,10.7-10.7H406c5.9,0,10.7,4.8,10.7,10.7V494
					c0,5.9-4.8,10.7-10.7,10.7H108.6z"/>
				<path class="st1" d="M406,83.4c4.4,0,8,3.6,8,8V494c0,4.4-3.6,8-8,8H108.6c-4.4,0-8-3.6-8-8V91.5c0-4.4,3.6-8,8-8L406,83.4
					 M406,78.1H108.6c-7.4,0-13.4,6-13.4,13.4V494c0,7.4,6,13.4,13.4,13.4H406c7.4,0,13.4-6,13.4-13.4V91.5
					C419.4,84.1,413.4,78.1,406,78.1L406,78.1z"/>
			</g>
		</g>
	</g>
	<polyline class="st8" points="470.9,182.8 300.3,320.7 257.3,286 212.8,321.6 43.7,182.9 	"/>
	<polyline class="st5" points="46.3,461.1 257.3,292.7 468.3,461.1 	"/>
	<line class="st5" x1="299" y1="327.4" x2="474.9" y2="186.8"/>
	<line class="st5" x1="39.7" y1="186.8" x2="211.9" y2="326.5"/>
	<polygon class="st9" points="210.3,70 304.3,70 320.1,81 192.8,81 	"/>
	<ellipse class="st4" cx="256.6" cy="186.5" rx="56.4" ry="56.3"/>
	<path class="st7" d="M283.7,170.4c-2.1-2.1-5.4-2.1-7.5,0L247.6,199l-8.7-8.7c-2.1-2.1-5.4-2.1-7.5,0s-2.1,5.4,0,7.5l8.7,8.7
		l3.7,3.7c2.1,2.1,5.4,2.1,7.5,0l3.7-3.7l28.7-28.6C285.8,175.8,285.8,172.5,283.7,170.4z"/>
	<line class="st10" x1="293.3" y1="454.6" x2="391.6" y2="454.6"/>
	<line class="st10" x1="246.6" y1="454.6" x2="276.1" y2="454.6"/>
</g>
</svg>
