<?xml version="1.0" encoding="utf-8"?>
<!-- Generator: Adobe Illustrator 21.0.0, SVG Export Plug-In . SVG Version: 6.00 Build 0)  -->
<svg version="1.1" id="Layer_1" xmlns="http://www.w3.org/2000/svg" xmlns:xlink="http://www.w3.org/1999/xlink" x="0px" y="0px"
	 viewBox="0 0 96 69" style="enable-background:new 0 0 96 69;" xml:space="preserve">
<style type="text/css">
	.st0{fill:#FFAD01;}
	.st1{fill:#F4F4F4;}
	.st2{opacity:0.25;}
	.st3{opacity:0.1;}
	.st4{fill:#3D4351;}
	.st5{fill:#FF8FFA;}
</style>
<g>
	<path class="st0" d="M49,2C31.3,2,17,16.3,17,34c0,3.9,0.7,7.6,1.9,11H21c2.8,0,5,2.2,5,5c0,1.6-0.8,3.1-2,4c5.9,7.3,14.9,12,25,12
		c7.7,0,14.8-2.7,20.3-7.3C69.1,58.2,69,57.6,69,57V43c0-2.8,2.2-5,5-5h6.7c0.2-1.3,0.3-2.6,0.3-4C81,16.3,66.7,2,49,2z"/>
</g>
<g>
	<g>
		<path class="st1" d="M94,59H74c-1.1,0-2-0.9-2-2V43c0-1.1,0.9-2,2-2h20c1.1,0,2,0.9,2,2v14C96,58.1,95.1,59,94,59z"/>
	</g>
	<g>
		<g>
			<polyline class="st1" points="94,56 84,48 74,56 			"/>
		</g>
		<g class="st2">
			<polygon points="93.7,56.4 84,48.6 74.3,56.4 73.7,55.6 84,47.4 94.3,55.6 			"/>
		</g>
	</g>
	<g>
		<g>
			<polyline class="st1" points="74,43 84,51 94,43 			"/>
		</g>
		<g class="st2">
			<polygon points="84,51.6 73.7,43.4 74.3,42.6 84,50.4 93.7,42.6 94.3,43.4 			"/>
		</g>
	</g>
	<g class="st3">
		<path class="st4" d="M87,63h-6c-3.3,0-6-2.7-6-6v-2c0-2.2,1.8-4,4-4h10c2.2,0,4,1.8,4,4v2C93,60.3,90.3,63,87,63z"/>
	</g>
	<g>
		<path class="st0" d="M87,65h-6c-3.3,0-6-2.7-6-6v-2c0-2.2,1.8-4,4-4h10c2.2,0,4,1.8,4,4v2C93,62.3,90.3,65,87,65z"/>
	</g>
</g>
<g>
	<path class="st0" d="M21,47h-8h-2h-1v0.1c-2.8,0.5-5,3-5,5.9v6c0,3.3,2.7,6,6,6h2c2.2,0,4-1.8,4-4v-8h4c1.7,0,3-1.3,3-3
		S22.7,47,21,47z"/>
</g>
<g>
	<path class="st4" d="M61.4,39c1,0,1.7,0.8,1.6,1.8c-0.9,6.9-6.8,12.3-14,12.3s-13.1-5.4-14-12.3c-0.1-0.9,0.6-1.8,1.6-1.8H61.4z"/>
</g>
<g>
	<path class="st4" d="M32.1,29.9c-0.1,0-0.1,0-0.2,0c-0.5-0.1-0.9-0.6-0.8-1.2c0.7-3.2,3.5-5.6,6.9-5.6c3.3,0,6.1,2.3,6.8,5.5
		c0.1,0.5-0.2,1.1-0.8,1.2c-0.5,0.1-1.1-0.2-1.2-0.8c-0.5-2.3-2.6-3.9-4.9-3.9c-2.4,0-4.4,1.7-4.9,4C33,29.6,32.6,29.9,32.1,29.9z"
		/>
</g>
<g>
	<path class="st4" d="M54.1,29.9c-0.1,0-0.1,0-0.2,0c-0.5-0.1-0.9-0.6-0.8-1.2c0.7-3.2,3.5-5.6,6.9-5.6c3.3,0,6.1,2.3,6.8,5.5
		c0.1,0.5-0.2,1.1-0.8,1.2c-0.5,0.1-1.1-0.2-1.2-0.8c-0.5-2.3-2.6-3.9-4.9-3.9c-2.4,0-4.4,1.7-4.9,4C55,29.6,54.6,29.9,54.1,29.9z"
		/>
</g>
<g>
	<path class="st5" d="M49,43.4c-3.5,0-6.7,0.9-9.5,2.4c2.2,2.9,5.7,4.7,9.5,4.7s7.3-1.8,9.5-4.7C55.7,44.3,52.5,43.4,49,43.4z"/>
</g>
<g class="st2">
	<g>
		<g>
			<path class="st4" d="M10,22c-0.3,0-0.5-0.1-0.7-0.3l-2-2c-0.4-0.4-0.4-1,0-1.4s1-0.4,1.4,0l2,2c0.4,0.4,0.4,1,0,1.4
				C10.5,21.9,10.3,22,10,22z"/>
		</g>
		<g>
			<path class="st4" d="M5,17c-0.3,0-0.5-0.1-0.7-0.3l-2-2c-0.4-0.4-0.4-1,0-1.4s1-0.4,1.4,0l2,2c0.4,0.4,0.4,1,0,1.4
				C5.5,16.9,5.3,17,5,17z"/>
		</g>
		<g>
			<path class="st4" d="M3,22c-0.3,0-0.5-0.1-0.7-0.3c-0.4-0.4-0.4-1,0-1.4l2-2c0.4-0.4,1-0.4,1.4,0s0.4,1,0,1.4l-2,2
				C3.5,21.9,3.3,22,3,22z"/>
		</g>
		<g>
			<path class="st4" d="M8,17c-0.3,0-0.5-0.1-0.7-0.3c-0.4-0.4-0.4-1,0-1.4l2-2c0.4-0.4,1-0.4,1.4,0s0.4,1,0,1.4l-2,2
				C8.5,16.9,8.3,17,8,17z"/>
		</g>
	</g>
	<g>
		<g>
			<path class="st4" d="M88.8,10h-7.5C80.5,10,80,9.6,80,9s0.5-1,1.2-1h7.5C89.5,8,90,8.4,90,9S89.5,10,88.8,10z"/>
		</g>
		<g>
			<path class="st4" d="M85,14c-0.6,0-1-0.5-1-1.2V5.2C84,4.5,84.4,4,85,4s1,0.5,1,1.2v7.5C86,13.5,85.6,14,85,14z"/>
		</g>
	</g>
</g>
</svg>
