<?xml version="1.0" encoding="utf-8"?>
<!-- Generator: Adobe Illustrator 21.0.0, SVG Export Plug-In . SVG Version: 6.00 Build 0)  -->
<svg version="1.1" id="Layer_1" xmlns="http://www.w3.org/2000/svg" xmlns:xlink="http://www.w3.org/1999/xlink" x="0px" y="0px"
	 viewBox="0 0 28 34" style="enable-background:new 0 0 28 34;" xml:space="preserve">
<path id="Combined-Shape" d="M24.6,1.9l1.6-1.6c0.4-0.4,1.1-0.4,1.6,0c0.4,0.4,0.4,1.1,0,1.6l-1.6,1.6c-0.4,0.4-1.1,0.4-1.6,0
	C24.1,3,24.1,2.3,24.6,1.9z M19.9,0.3l1.6,1.6c0.4,0.4,0.4,1.1,0,1.6c-0.4,0.4-1.1,0.4-1.6,0l-1.6-1.6c-0.4-0.4-0.4-1.1,0-1.6
	C18.8-0.1,19.5-0.1,19.9,0.3z M26.1,6.6l1.6,1.6c0.4,0.4,0.4,1.1,0,1.6c-0.4,0.4-1.1,0.4-1.6,0l-1.6-1.6c-0.4-0.4-0.4-1.1,0-1.6
	C25,6.1,25.7,6.1,26.1,6.6z M18.3,8.1l1.6-1.6c0.4-0.4,1.1-0.4,1.6,0c0.4,0.4,0.4,1.1,0,1.6l-1.6,1.6c-0.4,0.4-1.1,0.4-1.6,0
	C17.9,9.2,17.9,8.5,18.3,8.1z"/>
<path id="Combined-Shape_1_" d="M5.8,18.8h3.3c0.5,0,0.8-0.4,0.8-0.8s-0.4-0.8-0.8-0.8H5.8v-3.3C5.8,13.4,5.5,13,5,13
	s-0.8,0.4-0.8,0.8v3.3H0.8C0.4,17.2,0,17.5,0,18s0.4,0.8,0.8,0.8h3.3v3.3C4.2,22.6,4.5,23,5,23s0.8-0.4,0.8-0.8V18.8z"/>
<path d="M23,34c-2.2,0-4-1.8-4-4s1.8-4,4-4s4,1.8,4,4S25.2,34,23,34z M23,28c-1.1,0-2,0.9-2,2s0.9,2,2,2s2-0.9,2-2S24.1,28,23,28z"
	/>
</svg>
