<?xml version="1.0" encoding="utf-8"?>
<!-- Generator: Adobe Illustrator 21.0.0, SVG Export Plug-In . SVG Version: 6.00 Build 0)  -->
<svg version="1.1" id="Layer_1" xmlns="http://www.w3.org/2000/svg" xmlns:xlink="http://www.w3.org/1999/xlink" x="0px" y="0px"
	 viewBox="0 0 28 34" style="enable-background:new 0 0 28 34;" xml:space="preserve">
<g id="Page-1">
	<g id="Blog-Index" transform="translate(-869.000000, -231.000000)">
		<g id="Group-3" transform="translate(869.000000, 232.000000)">
			<path id="Combined-Shape" d="M24.6,12.9l1.6-1.6c0.4-0.4,1.1-0.4,1.6,0c0.4,0.4,0.4,1.1,0,1.6l-1.6,1.6c-0.4,0.4-1.1,0.4-1.6,0
				C24.1,14,24.1,13.3,24.6,12.9z M19.9,11.3l1.6,1.6c0.4,0.4,0.4,1.1,0,1.6c-0.4,0.4-1.1,0.4-1.6,0l-1.6-1.6
				c-0.4-0.4-0.4-1.1,0-1.6C18.8,10.9,19.5,10.9,19.9,11.3z M26.1,17.6l1.6,1.6c0.4,0.4,0.4,1.1,0,1.6c-0.4,0.4-1.1,0.4-1.6,0
				l-1.6-1.6c-0.4-0.4-0.4-1.1,0-1.6C25,17.1,25.7,17.1,26.1,17.6z M18.3,19.1l1.6-1.6c0.4-0.4,1.1-0.4,1.6,0c0.4,0.4,0.4,1.1,0,1.6
				l-1.6,1.6c-0.4,0.4-1.1,0.4-1.6,0C17.9,20.2,17.9,19.5,18.3,19.1z"/>
			<path id="Combined-Shape-Copy-3" d="M5.8,28.8h3.3c0.5,0,0.8-0.4,0.8-0.8s-0.4-0.8-0.8-0.8H5.8v-3.3C5.8,23.4,5.5,23,5,23
				s-0.8,0.4-0.8,0.8v3.3H0.8C0.4,27.2,0,27.5,0,28s0.4,0.8,0.8,0.8h3.3v3.3C4.2,32.6,4.5,33,5,33s0.8-0.4,0.8-0.8V28.8z"/>
			<g id="Combined-Shape-Copy-2">
				<path d="M5,7C2.8,7,1,5.2,1,3s1.8-4,4-4s4,1.8,4,4S7.2,7,5,7z M5,1C3.9,1,3,1.9,3,3s0.9,2,2,2s2-0.9,2-2S6.1,1,5,1z"/>
			</g>
		</g>
	</g>
</g>
</svg>
