<?xml version="1.0" encoding="utf-8"?>
<!-- Generator: Adobe Illustrator 19.2.0, SVG Export Plug-In . SVG Version: 6.00 Build 0)  -->
<svg version="1.1" id="Layer_1" xmlns="http://www.w3.org/2000/svg" xmlns:xlink="http://www.w3.org/1999/xlink" x="0px" y="0px"
	 viewBox="0 0 50 44" style="enable-background:new 0 0 50 44;" xml:space="preserve">
<style type="text/css">
	.st0{fill:#8DC63F;}
	.st1{opacity:0.5;}
</style>
<g>
	<g>
		<g>
			<path class="st0" d="M14,8v6H8V8H14 M15,6H7C6.4,6,6,6.4,6,7v8c0,0.6,0.4,1,1,1h8c0.6,0,1-0.4,1-1V7C16,6.4,15.6,6,15,6L15,6z"/>
		</g>
		<g>
			<path class="st0" d="M42,8v6H20V8H42 M43,6H19c-0.6,0-1,0.4-1,1v8c0,0.6,0.4,1,1,1h24c0.6,0,1-0.4,1-1V7C44,6.4,43.6,6,43,6L43,6
				z"/>
		</g>
		<g>
			<path class="st0" d="M42,20v6h-6v-6H42 M43,18h-8c-0.6,0-1,0.4-1,1v8c0,0.6,0.4,1,1,1h8c0.6,0,1-0.4,1-1v-8
				C44,18.4,43.6,18,43,18L43,18z"/>
		</g>
		<g>
			<path class="st0" d="M30,20v6H8v-6H30 M31,18H7c-0.6,0-1,0.4-1,1v8c0,0.6,0.4,1,1,1h24c0.6,0,1-0.4,1-1v-8C32,18.4,31.6,18,31,18
				L31,18z"/>
		</g>
		<g>
			<rect x="7" y="7" class="st0" width="8" height="2"/>
		</g>
		<g>
			<rect x="35" y="19" class="st0" width="8" height="2"/>
		</g>
		<g>
			<rect x="19" y="7" class="st0" width="24" height="2"/>
		</g>
		<g>
			<rect x="7" y="19" class="st0" width="24" height="2"/>
		</g>
		<g>
			<path class="st0" d="M47,34H3c-1.7,0-3-1.3-3-3V3c0-1.7,1.3-3,3-3h44c1.7,0,3,1.3,3,3v28C50,32.7,48.7,34,47,34z M3,2
				C2.4,2,2,2.4,2,3v28c0,0.6,0.4,1,1,1h44c0.6,0,1-0.4,1-1V3c0-0.6-0.4-1-1-1H3z"/>
		</g>
	</g>
	<g>
		<g>
			<path class="st0" d="M17,44c-0.6,0-1-0.4-1-1v-3c0-1.1,0.9-2,2-2h2v-4.8c0-0.6,0.4-1,1-1s1,0.4,1,1V38c0,1.1-0.9,2-2,2h-2v3
				C18,43.6,17.6,44,17,44z"/>
		</g>
		<g>
			<path class="st0" d="M25,44c-0.6,0-1-0.4-1-1v-9.8c0-0.6,0.4-1,1-1s1,0.4,1,1V43C26,43.6,25.6,44,25,44z"/>
		</g>
		<g>
			<path class="st0" d="M32,44c-0.6,0-1-0.4-1-1v-4h-1c-1.1,0-2-0.9-2-2v-4c0-0.6,0.4-1,1-1s1,0.4,1,1v4h1c1.1,0,2,0.9,2,2v4
				C33,43.6,32.6,44,32,44z"/>
		</g>
	</g>
	<g class="st1">
		<g>
			<path class="st0" d="M46,4v26H4V4H46 M46,3H4C3.4,3,3,3.4,3,4v26c0,0.6,0.4,1,1,1h42c0.6,0,1-0.4,1-1V4C47,3.4,46.6,3,46,3L46,3z
				"/>
		</g>
	</g>
</g>
</svg>
