<?xml version="1.0" encoding="utf-8"?>
<!-- Generator: Adobe Illustrator 18.1.0, SVG Export Plug-In . SVG Version: 6.00 Build 0)  -->
<!DOCTYPE svg PUBLIC "-//W3C//DTD SVG 1.1//EN" "http://www.w3.org/Graphics/SVG/1.1/DTD/svg11.dtd">
<svg version="1.1" id="Layer_1" xmlns="http://www.w3.org/2000/svg" xmlns:xlink="http://www.w3.org/1999/xlink" x="0px" y="0px"
	 viewBox="0 0 426 318" enable-background="new 0 0 426 318" xml:space="preserve">
<g enable-background="new    ">
	<path fill="none" stroke="#3D4351" stroke-width="3" stroke-miterlimit="10" d="M173.4,32.6c-3.8,0-7.2,2.7-8.4,6.8l-46,198.4
		c-0.8,3.8,1.1,8.4,4.6,9.9c0.4,0.4,1.1,0.4,1.1,0.4L257,278.5c0.8,0,1.1,0.4,1.9,0.4c3.8,0,7.2-2.7,8.4-6.8l37.2-160.8
		c0.8-2.3,0-4.2-1.1-6.5l-27-46.4c-0.8-0.8-2.3-1.9-3.8-2.7c-0.4-0.4-1.1-0.4-1.1-0.4L175.3,33C174.6,33,174.2,32.6,173.4,32.6
		L173.4,32.6z"/>
</g>
<g>
	<path fill="#FFFFFF" d="M215,49.5c-0.4,0-1.1,0-1.5,0l-97.7,14.4c-4.6,0.8-8,4.9-7.2,9.5l29.6,201.4c0.8,3.8,4.2,7.2,8,7.2
		c0.4,0,1.1,0,1.5,0l134.5-19.8c4.6-0.8,8-4.9,7.2-9.5L265.5,89.8c-0.4-2.3-1.5-4.2-3-5.3l-42.2-33.1
		C218.4,50.2,216.9,49.5,215,49.5L215,49.5z"/>
	<g>
		<path fill="#FFFFFF" d="M215,49.5c1.9,0,3.4,0.8,5.3,1.9l42.2,33.1c1.5,1.1,2.7,3,3,5.3l23.9,163.1c0.8,4.6-2.7,8.7-7.2,9.5
			l-134.5,19.8c-0.4,0-1.1,0-1.5,0c-3.8,0-7.2-3.4-8-7.2L108.6,73.4c-0.8-4.6,2.7-8.7,7.2-9.5l97.7-14.4
			C213.9,49.5,214.6,49.5,215,49.5"/>
	</g>
	<g>
		<path fill="none" stroke="#8DC63F" stroke-width="3" stroke-miterlimit="10" d="M215,49.5c-0.4,0-1.1,0-1.5,0l-97.7,14.4
			c-4.6,0.8-8,4.9-7.2,9.5l29.6,201.4c0.8,3.8,4.2,7.2,8,7.2c0.4,0,1.1,0,1.5,0l134.5-19.8c4.6-0.8,8-4.9,7.2-9.5L265.5,89.8
			c-0.4-2.3-1.5-4.2-3-5.3l-42.2-33.1C218.4,50.2,216.9,49.5,215,49.5L215,49.5z"/>
	</g>
</g>
<g>
	<path fill="#3D4351" d="M172.3,154.7c4.7-0.7,8.3,0.3,11.8,2.7c0.5,0.3,0.5,0.9,0.2,1.3L182,162c-0.3,0.4-0.7,0.5-1.2,0.2
		c-2.2-1.4-4.9-2.1-7.5-1.7c-5.9,0.9-9.6,6.4-8.7,12.3c0.8,5.8,6,10,11.9,9.2c2.8-0.4,5-1.8,6.7-3.7c0.3-0.4,0.8-0.4,1.2-0.2
		l3.3,2.5c0.4,0.3,0.4,0.9,0.1,1.3c-2.7,3.5-6.5,5.5-10.6,6.1c-9.2,1.4-17.8-4.9-19.1-14.1C156.7,164.6,163.1,156.1,172.3,154.7z"/>
	<path fill="#3D4351" d="M191.8,180.8l1.2-3.1c0.3-0.7,1.1-0.8,1.5-0.6c0.2,0.1,4.4,2.3,7.4,1.8c2.4-0.4,4-2.2,3.7-4.2
		c-0.3-2.4-2.6-3.7-6.7-4.7c-4.6-1.1-9.3-3.3-10.1-8.7c-0.6-4.1,1.8-9.3,9.1-10.4c4.7-0.7,8.7,1.2,9.7,1.7c0.5,0.2,0.8,1,0.5,1.5
		l-1.4,2.9c-0.3,0.6-0.9,1.1-1.5,0.8c-0.4-0.2-4.3-2-6.8-1.6c-2.6,0.4-3.8,2.3-3.6,3.8c0.3,2.2,2.2,3.4,6.2,4.4
		c4.7,1.1,10.3,3.1,11.2,9c0.7,4.8-2.8,9.7-9.3,10.7c-5.8,0.9-9.6-1.4-10.7-2.1C191.8,181.8,191.5,181.6,191.8,180.8z"/>
	<path fill="#3D4351" d="M216.9,177.1l1.2-3.1c0.3-0.7,1.1-0.8,1.5-0.6c0.2,0.1,4.4,2.3,7.4,1.8c2.4-0.4,4-2.2,3.7-4.2
		c-0.3-2.4-2.6-3.7-6.7-4.7c-4.6-1.1-9.3-3.3-10.1-8.7c-0.6-4.1,1.8-9.3,9.1-10.4c4.7-0.7,8.7,1.2,9.7,1.7c0.5,0.2,0.8,1,0.5,1.5
		l-1.4,2.9c-0.3,0.6-0.9,1.1-1.5,0.8c-0.4-0.2-4.3-2-6.8-1.6c-2.6,0.4-3.8,2.3-3.6,3.8c0.3,2.2,2.2,3.4,6.2,4.4
		c4.7,1.1,10.3,3.1,11.2,9c0.7,4.8-2.8,9.7-9.3,10.7c-5.8,0.9-9.6-1.4-10.7-2.1C216.8,178.1,216.6,177.9,216.9,177.1z"/>
</g>
<line fill="none" stroke="#8DC63F" stroke-width="3" stroke-miterlimit="10" x1="118.6" y1="141.6" x2="269.8" y2="118.8"/>
<line fill="none" stroke="#8DC63F" stroke-width="3" stroke-miterlimit="10" x1="128.9" y1="217.1" x2="280.1" y2="194.2"/>
<g>
	<path fill="#FFFFFF" d="M271.8,205.8l57.9,57.9c2.4,2.4,0.3,8.2-4.2,12.7c-4.9,4.9-10.6,6.7-12.7,4.2l-57.9-57.9l2.7,2.7
		l-13.9-13.9c-2.4-2.4-0.3-8.2,4.2-12.7s10.6-6.7,12.7-4.2l13.9,13.9"/>
	<path fill="none" stroke="#8DC63F" stroke-width="3" stroke-miterlimit="10" d="M271.8,205.8l57.9,57.9c2.4,2.4,0.3,8.2-4.2,12.7
		c-4.9,4.9-10.6,6.7-12.7,4.2l-57.9-57.9l2.7,2.7l-13.9-13.9c-2.4-2.4-0.3-8.2,4.2-12.7s10.6-6.7,12.7-4.2l13.9,13.9"/>
	<path fill="none" stroke="#3D4351" stroke-width="3" stroke-miterlimit="10" d="M247.9,198.8c-4.9,4.9-6.7,10.6-4.2,12.7l13.9,13.9
		c2.4,2.4,8.2,0.3,12.7-4.2c4.9-4.9,6.7-10.6,4.2-12.7l-13.9-13.9C258.2,192.2,252.4,194,247.9,198.8z"/>
	<path fill="none" stroke="#3D4351" stroke-width="3" stroke-miterlimit="10" d="M260.6,194.6c2.4,2.4-0.6,7-5.2,11.5
		c-4.5,4.5-10.6,6.7-12.7,4.2"/>
</g>
<g>
	<polygon fill="#3D4351" points="255.3,181.7 253.2,173.5 251.1,181.7 242.9,183.8 251.1,185.8 253.2,194.1 255.3,185.8 
		263.5,183.8 	"/>
	<polygon fill="#3D4351" points="236.7,215.4 234.9,208.2 233.1,215.4 225.8,217.2 233.1,219 234.9,226.2 236.7,219 243.9,217.2 	
		"/>
	<polygon fill="#3D4351" points="253.4,232.2 251.9,226 250.4,232.2 244.2,233.7 250.4,235.3 251.9,241.5 253.4,235.3 259.6,233.7 	
		"/>
	<polygon fill="#3D4351" points="278.5,190.4 277.4,186.3 276.4,190.4 272.3,191.4 276.4,192.4 277.4,196.6 278.5,192.4 
		282.6,191.4 	"/>
</g>
</svg>
