<?xml version="1.0" encoding="utf-8"?>
<!-- Generator: Adobe Illustrator 18.1.0, SVG Export Plug-In . SVG Version: 6.00 Build 0)  -->
<!DOCTYPE svg PUBLIC "-//W3C//DTD SVG 1.1//EN" "http://www.w3.org/Graphics/SVG/1.1/DTD/svg11.dtd">
<svg version="1.1" id="Layer_1" xmlns="http://www.w3.org/2000/svg" xmlns:xlink="http://www.w3.org/1999/xlink" x="0px" y="0px"
	 viewBox="0 0 58 58" enable-background="new 0 0 58 58" xml:space="preserve">
<path fill="#8CC640" d="M29,58C13,58,0,45,0,29S13,0,29,0s29,13,29,29S45,58,29,58z M29,2.6C14.4,2.6,2.6,14.5,2.6,29
	S14.5,55.4,29,55.4S55.4,43.5,55.4,29S43.6,2.6,29,2.6z"/>
<g>
	<path fill="#8CC640" d="M14.8,22.9c1.6-1.3,3.5-1.7,5-1.7c1.2,0,2.3,0.2,2.8,0.5c0.1,1.2,0.2,2.5,0.2,3.8c-0.4,0-0.8,0.1-1.2,0.1
		l-0.4-2.4c0-0.2-0.1-0.3-0.2-0.3c-0.5-0.3-1.1-0.4-1.8-0.4c-1.2,0-2.5,0.4-3.5,1.4c-1.2,1.2-2,3-2,5.1c0,1.9,0.3,3.1,1.4,4.3
		c0.8,0.9,2.3,1.5,3.7,1.5c1.3,0,2.9-0.5,3.9-0.9c0.1,0.4,0.2,0.8,0.3,1.1c-1.7,0.7-3.2,1.1-4.5,1.1c-1.5,0-3.1-0.4-4.3-1.3
		c-1.4-1.1-2.3-3-2.3-5.3C11.9,26.4,13.2,24.2,14.8,22.9z"/>
	<path fill="#8CC640" d="M26.4,34.2c0,0.1,0.1,0.2,0.2,0.2c0.4,0.3,1.3,0.5,2.1,0.5c1,0,2-0.3,2.5-0.9c0.5-0.5,0.7-1.1,0.7-1.8
		c0-1.9-1-2.3-3.2-3.3c-1.9-0.9-3.3-1.9-3.3-3.8c0-1.2,0.6-2.3,1.4-2.9c0.8-0.7,2.1-1,3.6-1c1,0,2.1,0.2,2.7,0.5
		c0.1,1.1,0.2,2.2,0.3,3.3c-0.4,0-0.8,0.1-1.2,0.2l-0.4-2.1c0-0.1-0.1-0.2-0.2-0.3c-0.4-0.3-1-0.4-1.6-0.4c-0.8,0-1.6,0.2-2.1,0.7
		c-0.5,0.4-0.8,1-0.8,1.8c0,1.6,0.7,1.9,3,2.9c2.2,1,3.5,2,3.5,4c0,1.2-0.4,2.3-1.3,3.1c-0.9,0.8-2.1,1.2-4,1.2
		c-1.1,0-2.5-0.2-3.3-0.5c-0.1-1.2-0.2-2.4-0.3-3.5c0.4-0.1,0.9-0.1,1.3-0.2L26.4,34.2z"/>
	<path fill="#8CC640" d="M37.4,34.2c0,0.1,0.1,0.2,0.2,0.2c0.4,0.3,1.3,0.5,2.1,0.5c1,0,2-0.3,2.5-0.9c0.5-0.5,0.7-1.1,0.7-1.8
		c0-1.9-1-2.3-3.2-3.3c-1.9-0.9-3.3-1.9-3.3-3.8c0-1.2,0.6-2.3,1.4-2.9c0.8-0.7,2.1-1,3.6-1c1,0,2.1,0.2,2.7,0.5
		c0.1,1.1,0.2,2.2,0.3,3.3c-0.4,0-0.8,0.1-1.2,0.2l-0.4-2.1c0-0.1-0.1-0.2-0.2-0.3c-0.4-0.3-1-0.4-1.6-0.4c-0.8,0-1.6,0.2-2.1,0.7
		c-0.5,0.4-0.8,1-0.8,1.8c0,1.6,0.7,1.9,3,2.9c2.2,1,3.5,2,3.5,4c0,1.2-0.4,2.3-1.3,3.1c-0.9,0.8-2.1,1.2-4,1.2
		c-1.1,0-2.5-0.2-3.3-0.5c-0.1-1.2-0.2-2.4-0.3-3.5c0.4-0.1,0.9-0.1,1.3-0.2L37.4,34.2z"/>
</g>
</svg>
