<?xml version="1.0" encoding="utf-8"?>
<!-- Generator: Adobe Illustrator 18.0.0, SVG Export Plug-In . SVG Version: 6.00 Build 0)  -->
<!DOCTYPE svg PUBLIC "-//W3C//DTD SVG 1.1//EN" "http://www.w3.org/Graphics/SVG/1.1/DTD/svg11.dtd">
<svg version="1.1" id="Layer_1" xmlns="http://www.w3.org/2000/svg" xmlns:xlink="http://www.w3.org/1999/xlink" x="0px" y="0px"
	 viewBox="0 0 370 265" enable-background="new 0 0 370 265" xml:space="preserve">
<g>
	
		<circle fill="none" stroke="#3C4352" stroke-linecap="round" stroke-linejoin="round" stroke-miterlimit="10" cx="206.7" cy="13.2" r="1.4"/>
	<g>
		<path fill="#3C4352" d="M214.6,11.7L214.6,11.7l0.2-0.1l2,2.1l0,0v-2c0,0,0-0.1,0.1-0.1h0.4c0,0,0.1,0,0.1,0.1v3.2
			c0,0,0,0.1-0.1,0.1h-0.1l-2-2.2l0,0v2c0,0,0,0.1-0.1,0.1h-0.4c0,0-0.1,0-0.1-0.1L214.6,11.7L214.6,11.7z"/>
		<path fill="#3C4352" d="M218.5,11.8C218.5,11.7,218.5,11.7,218.5,11.8l2-0.1c0.1,0,0.1,0,0.1,0.1v0.4c0,0,0,0.1-0.1,0.1h-1.4v0.8
			h1.2c0,0,0.1,0,0.1,0.1v0.4c0,0.1,0,0.1-0.1,0.1h-1.2v0.8h1.4c0.1,0,0.1,0,0.1,0.1V15c0,0,0,0.1-0.1,0.1h-2c-0.1,0-0.1,0-0.1-0.1
			v-3.2H218.5z"/>
		<path fill="#3C4352" d="M221.2,11.8c0-0.1,0-0.1,0.1-0.1h0.4c0,0,0.1,0,0.1,0.1l0.5,1.9l0,0l0.8-1.9c0,0,0-0.1,0.1-0.1h0.1
			c0,0,0.1,0,0.1,0.1l0.8,1.9l0,0l0.5-1.9c0,0,0-0.1,0.1-0.1h0.4c0.1,0,0.1,0,0.1,0.1l-0.9,3.2c0,0,0,0.1-0.1,0.1h-0.1
			c0,0-0.1,0-0.1-0.1l-0.8-2.1l0,0l-0.8,2.1c0,0,0,0.1-0.1,0.1h-0.1c0,0-0.1,0-0.1-0.1L221.2,11.8z"/>
		<path fill="#3C4352" d="M226.8,11.8c0-0.1,0-0.1,0.1-0.1h0.5c0,0,0.1,0,0.1,0.1l0.9,2l0,0l0.9-2c0,0,0-0.1,0.1-0.1h0.5
			c0.1,0,0.1,0.1,0.1,0.1l-1.5,3.2c0,0,0,0.1-0.1,0.1l0,0c0,0-0.1,0-0.1-0.1L226.8,11.8z"/>
		<path fill="#3C4352" d="M230.4,14.5l0.2-0.3c0-0.1,0.1-0.1,0.2,0c0,0,0.4,0.3,0.7,0.3c0.2,0,0.4-0.2,0.4-0.4s-0.2-0.4-0.6-0.6
			c-0.4-0.2-0.9-0.5-0.9-1c0-0.4,0.3-0.9,1.1-0.9c0.5,0,0.9,0.2,0.9,0.3c0,0,0.1,0.1,0,0.2l-0.2,0.3c0,0.1-0.1,0.1-0.2,0.1
			c0,0-0.4-0.3-0.7-0.3s-0.4,0.2-0.4,0.3c0,0.2,0.2,0.4,0.6,0.5c0.5,0.2,1,0.5,1,1.1c0,0.5-0.4,0.9-1.1,0.9c-0.6,0-0.9-0.3-1-0.4
			C230.4,14.6,230.4,14.6,230.4,14.5z"/>
		<path fill="#3C4352" d="M234.7,11.8C234.7,11.7,234.8,11.7,234.7,11.8l1.4-0.1c0.6,0,1,0.5,1,1c0,0.4-0.3,0.8-0.7,1l0.6,1.2
			c0,0.1,0,0.1-0.1,0.1h-0.5h-0.1l-0.6-1.3h-0.5v1.2c0,0,0,0.1-0.1,0.1h-0.4c-0.1,0-0.1,0-0.1-0.1v-3.1
			C234.6,11.8,234.7,11.8,234.7,11.8z M236.1,13.2c0.3,0,0.5-0.2,0.5-0.5c0-0.2-0.2-0.5-0.5-0.5h-0.8v0.9h0.8V13.2z"/>
		<path fill="#3C4352" d="M238.1,11.8C238.1,11.7,238.2,11.7,238.1,11.8l2-0.1c0.1,0,0.1,0,0.1,0.1v0.4c0,0,0,0.1-0.1,0.1h-1.4v0.8
			h1.2c0,0,0.1,0,0.1,0.1v0.4c0,0.1,0,0.1-0.1,0.1h-1.2v0.8h1.4c0.1,0,0.1,0,0.1,0.1V15c0,0,0,0.1-0.1,0.1h-1.9
			c-0.1,0-0.1,0-0.1-0.1V11.8z"/>
		<path fill="#3C4352" d="M241.7,12.3H241c-0.1,0-0.1,0-0.1-0.1v-0.4c0,0,0-0.1,0.1-0.1h2.1c0.1,0,0.1,0,0.1,0.1v0.4
			c0,0,0,0.1-0.1,0.1h-0.7V15c0,0,0,0.1-0.1,0.1h-0.4c0,0-0.1,0-0.1-0.1v-2.7H241.7z"/>
		<path fill="#3C4352" d="M243.8,11.8C243.8,11.7,243.8,11.7,243.8,11.8l0.5-0.1c0.1,0,0.1,0,0.1,0.1v1.9c0,0.4,0.3,0.7,0.7,0.7
			s0.7-0.3,0.7-0.7v-1.9c0,0,0-0.1,0.1-0.1h0.4c0,0,0.1,0,0.1,0.1v2c0,0.7-0.6,1.3-1.3,1.3s-1.3-0.6-1.3-1.3V11.8z"/>
		<path fill="#3C4352" d="M247.5,11.8C247.5,11.7,247.5,11.7,247.5,11.8l1.4-0.1c0.6,0,1,0.5,1,1c0,0.4-0.3,0.8-0.7,1l0.6,1.2
			c0,0.1,0,0.1-0.1,0.1h-0.5h-0.1l-0.6-1.3H248v1.2c0,0,0,0.1-0.1,0.1h-0.3c-0.1,0-0.1,0-0.1-0.1L247.5,11.8L247.5,11.8z
			 M248.9,13.2c0.3,0,0.5-0.2,0.5-0.5c0-0.2-0.2-0.5-0.5-0.5h-0.8v0.9h0.8V13.2z"/>
		<path fill="#3C4352" d="M250.9,11.7L250.9,11.7l0.2-0.1l2,2.1l0,0v-2c0,0,0-0.1,0.1-0.1h0.4c0,0,0.1,0,0.1,0.1v3.2
			c0,0,0,0.1-0.1,0.1h-0.1l-2-2.2l0,0v2c0,0,0,0.1-0.1,0.1H251c0,0-0.1,0-0.1-0.1V11.7L250.9,11.7z"/>
		<path fill="#3C4352" d="M254.8,11.8C254.8,11.7,254.8,11.7,254.8,11.8l0.5-0.1c0,0,0.1,0,0.1,0.1v3.1c0,0,0,0.1-0.1,0.1h-0.4
			c0,0-0.1,0-0.1-0.1V11.8z"/>
		<path fill="#3C4352" d="M256.5,11.7L256.5,11.7l0.2-0.1l2,2.1l0,0v-2c0,0,0-0.1,0.1-0.1h0.4c0,0,0.1,0,0.1,0.1v3.2
			c0,0,0,0.1-0.1,0.1h-0.1l-2-2.2l0,0v2c0,0,0,0.1-0.1,0.1h-0.4c0,0-0.1,0-0.1-0.1V11.7z"/>
		<path fill="#3C4352" d="M261.9,11.7c0.4,0,0.8,0.2,1.2,0.4v0.1l-0.3,0.3h-0.1c-0.2-0.2-0.5-0.3-0.7-0.3c-0.6,0-1.1,0.5-1.1,1.1
			s0.5,1.1,1.1,1.1c0.3,0,0.5-0.1,0.6-0.1v-0.4h-0.4c-0.1,0-0.1,0-0.1-0.1v-0.4c0-0.1,0-0.1,0.1-0.1h0.9c0,0,0.1,0,0.1,0.1v1.2v0.1
			c0,0-0.5,0.3-1.2,0.3c-0.9,0-1.7-0.7-1.7-1.7C260.2,12.4,260.9,11.7,261.9,11.7z"/>
	</g>
	
		<line fill="none" stroke="#8BC541" stroke-width="2" stroke-linecap="round" stroke-linejoin="round" stroke-miterlimit="10" x1="197" y1="24.3" x2="311.8" y2="24.3"/>
	<path fill="none" stroke="#8BC541" stroke-width="2" stroke-linecap="round" stroke-linejoin="round" stroke-miterlimit="10" d="
		M310.9,122.8h-113c-0.6,0-1-0.4-1-1V3.8c0-0.6,0.4-1,1-1h113c0.6,0,1,0.4,1,1v118C311.9,122.3,311.4,122.8,310.9,122.8z"/>
	<g>
		<path fill="none" stroke="#8BC541" stroke-width="2" stroke-linecap="round" stroke-linejoin="round" stroke-miterlimit="10" d="
			M297.8,80.2h-9c-0.5,0-1-0.4-1-1v-9c0-0.6,0.5-1,1-1h9c0.5,0,1,0.4,1,1v9C298.8,79.8,298.3,80.2,297.8,80.2z"/>
		<path fill="none" stroke="#3C4352" stroke-width="2" stroke-miterlimit="10" d="M297.8,98.9h-9c-0.5,0-1-0.4-1-1v-9
			c0-0.5,0.5-1,1-1h9c0.5,0,1,0.5,1,1v9C298.8,98.5,298.3,98.9,297.8,98.9z"/>
	</g>
	<path fill="none" stroke="#8BC541" stroke-width="2" stroke-linecap="round" stroke-linejoin="round" stroke-miterlimit="10" d="
		M274.4,70.5c0-16.6-13.4-30-30-30s-30,13.4-30,30c0,3.6,0.6,7.1,1.8,10.3"/>
	<path fill="none" stroke="#3C4352" stroke-width="2" stroke-linecap="round" stroke-linejoin="round" stroke-miterlimit="10" d="
		M216.1,80.8c4.2,11.5,15.2,19.7,28.2,19.7c16.6,0,30-13.4,30-30h-30L216.1,80.8z"/>
</g>
<g>
	
		<line fill="none" stroke="#8BC541" stroke-width="2" stroke-linecap="round" stroke-linejoin="round" stroke-miterlimit="10" x1="197.5" y1="165.1" x2="312.3" y2="165.1"/>
	<path fill="none" stroke="#8BC541" stroke-width="2" stroke-linecap="round" stroke-linejoin="round" stroke-miterlimit="10" d="
		M311.4,263.5h-113c-0.6,0-1-0.4-1-1v-118c0-0.6,0.4-1,1-1h113c0.6,0,1,0.4,1,1v118C312.4,263,311.9,263.5,311.4,263.5z"/>
	
		<circle fill="none" stroke="#3C4352" stroke-linecap="round" stroke-linejoin="round" stroke-miterlimit="10" cx="207.2" cy="153.5" r="1.4"/>
	<g>
		<path fill="#3C4352" d="M215,152.1C215,152.1,215.1,152.1,215,152.1l0.5-0.1c0,0,0.1,0,0.1,0.1v2.6h1.2c0.1,0,0.1,0,0.1,0.1v0.4
			c0,0,0,0.1-0.1,0.1h-1.7c-0.1,0-0.1,0-0.1-0.1V152.1z"/>
		<path fill="#3C4352" d="M217.6,152.1C217.6,152.1,217.7,152.1,217.6,152.1l0.5-0.1c0,0,0.1,0,0.1,0.1v3.1c0,0,0,0.1-0.1,0.1h-0.4
			c0,0-0.1,0-0.1-0.1V152.1z"/>
		<path fill="#3C4352" d="M218.9,152.2c0-0.1,0-0.1,0.1-0.1h0.5c0,0,0.1,0,0.1,0.1l0.9,2l0,0l0.9-2c0,0,0-0.1,0.1-0.1h0.5
			c0.1,0,0.1,0.1,0.1,0.1l-1.5,3.2c0,0,0,0.1-0.1,0.1l0,0c0,0-0.1,0-0.1-0.1L218.9,152.2z"/>
		<path fill="#3C4352" d="M222.7,152.1C222.7,152.1,222.8,152.1,222.7,152.1l2-0.1c0.1,0,0.1,0,0.1,0.1v0.4c0,0,0,0.1-0.1,0.1h-1.4
			v0.8h1.2c0,0,0.1,0,0.1,0.1v0.4c0,0.1,0,0.1-0.1,0.1h-1.2v0.8h1.4c0.1,0,0.1,0,0.1,0.1v0.4c0,0,0,0.1-0.1,0.1h-1.9
			c-0.1,0-0.1,0-0.1-0.1V152.1z"/>
		<path fill="#3C4352" d="M226.6,152.2c0-0.1,0-0.1,0.1-0.1h0.5c0,0,0.1,0,0.1,0.1l0.9,2l0,0l0.9-2c0,0,0-0.1,0.1-0.1h0.5
			c0.1,0,0.1,0.1,0.1,0.1l-1.5,3.2c0,0,0,0.1-0.1,0.1l0,0c0,0-0.1,0-0.1-0.1L226.6,152.2z"/>
		<path fill="#3C4352" d="M230.4,152.1L230.4,152.1l0.5-0.1c0,0,0.1,0,0.1,0.1v3.1c0,0,0,0.1-0.1,0.1h-0.4c0,0-0.1,0-0.1-0.1V152.1z
			"/>
		<path fill="#3C4352" d="M231.9,154.9l0.2-0.3c0-0.1,0.1-0.1,0.2,0c0,0,0.4,0.3,0.7,0.3c0.2,0,0.4-0.2,0.4-0.4s-0.2-0.4-0.6-0.6
			c-0.4-0.2-0.9-0.5-0.9-1c0-0.4,0.3-0.9,1.1-0.9c0.5,0,0.8,0.2,0.9,0.3c0,0,0.1,0.1,0,0.2l-0.2,0.3c0,0.1-0.1,0.1-0.2,0.1
			c0,0-0.4-0.3-0.7-0.3s-0.4,0.2-0.4,0.3c0,0.2,0.2,0.4,0.6,0.5c0.5,0.2,1,0.5,1,1.1c0,0.5-0.4,0.9-1.1,0.9c-0.6,0-0.9-0.3-1-0.4
			C231.9,155,231.8,155,231.9,154.9z"/>
		<path fill="#3C4352" d="M234.9,152.1L234.9,152.1l0.5-0.1c0,0,0.1,0,0.1,0.1v3.1c0,0,0,0.1-0.1,0.1H235c0,0-0.1,0-0.1-0.1V152.1z"
			/>
		<path fill="#3C4352" d="M237,152.6h-0.7c-0.1,0-0.1,0-0.1-0.1v-0.4c0,0,0-0.1,0.1-0.1h2.1c0.1,0,0.1,0,0.1,0.1v0.4
			c0,0,0,0.1-0.1,0.1h-0.7v2.6c0,0,0,0.1-0.1,0.1h-0.4c0,0-0.1,0-0.1-0.1v-2.6H237z"/>
		<path fill="#3C4352" d="M240.7,152c0.9,0,1.7,0.8,1.7,1.7s-0.8,1.7-1.7,1.7s-1.7-0.7-1.7-1.7S239.8,152,240.7,152z M240.7,154.8
			c0.6,0,1.1-0.5,1.1-1.1s-0.5-1.1-1.1-1.1s-1.1,0.5-1.1,1.1S240.1,154.8,240.7,154.8z"/>
		<path fill="#3C4352" d="M243.2,152.1C243.2,152.1,243.3,152.1,243.2,152.1l1.4-0.1c0.6,0,1,0.5,1,1c0,0.4-0.3,0.8-0.7,1l0.6,1.2
			c0,0.1,0,0.1-0.1,0.1h-0.5h-0.1l-0.6-1.2h-0.5v1.2c0,0,0,0.1-0.1,0.1h-0.4c-0.1,0-0.1,0-0.1-0.1v-3.2H243.2z M244.6,153.6
			c0.2,0,0.5-0.2,0.5-0.5c0-0.2-0.2-0.5-0.5-0.5h-0.8v0.9h0.8V153.6z"/>
		<path fill="#3C4352" d="M246.4,154.9l0.2-0.3c0-0.1,0.1-0.1,0.2,0c0,0,0.4,0.3,0.7,0.3c0.2,0,0.4-0.2,0.4-0.4s-0.2-0.4-0.6-0.6
			c-0.4-0.2-0.9-0.5-0.9-1c0-0.4,0.3-0.9,1.1-0.9c0.5,0,0.8,0.2,0.9,0.3c0,0,0.1,0.1,0,0.2l-0.2,0.3c0,0.1-0.1,0.1-0.2,0.1
			c0,0-0.4-0.3-0.7-0.3s-0.4,0.2-0.4,0.3c0,0.2,0.2,0.4,0.6,0.5c0.5,0.2,1,0.5,1,1.1c0,0.5-0.4,0.9-1.1,0.9c-0.6,0-0.9-0.3-1-0.4
			C246.4,155,246.4,155,246.4,154.9z"/>
	</g>
	<g>
		<path fill="#3C4352" d="M246.2,184.8v-0.6l6.1-7.7c0,0,0.1-0.1,0.2-0.1h0.3c0.2,0,0.3,0.1,0.3,0.3v7.4h1.3c0.2,0,0.3,0.1,0.3,0.3
			v0.4c0,0.2-0.1,0.3-0.3,0.3h-1.3v2.2c0,0.2-0.1,0.3-0.3,0.3h-0.5c-0.2,0-0.3-0.1-0.3-0.3v-2.2h-5.6
			C246.3,185.1,246.2,184.9,246.2,184.8z M252.1,184.1v-5.6l-4.5,5.6H252.1z"/>
		<path fill="#3C4352" d="M261.6,176.2c0.2-0.1,0.3,0,0.4,0.2l0.2,0.4c0.1,0.2,0,0.4-0.3,0.5c-0.7,0.2-3.6,1.8-4.2,4
			c0,0,1.1-0.7,2.5-0.7c1.8,0,3.5,1.4,3.5,3.5c0,2-1.6,3.7-3.6,3.7c-2.6,0-3.8-2-3.8-4.6C256.3,178.8,260,176.8,261.6,176.2z
			 M262.5,184.1c0-1.4-1.1-2.5-2.4-2.5c-1.5,0-2.6,1.1-2.6,1.1c-0.3,1.6,0.4,4,2.6,4C261.4,186.7,262.5,185.5,262.5,184.1z"/>
	</g>
	<path fill="none" stroke="#8BC541" stroke-width="2" stroke-linecap="round" stroke-linejoin="round" stroke-miterlimit="10" d="
		M256,218.3c8.4,0,15.6,5.1,18.7,12.4l20.4-13.2c-7.5-13.9-22.2-23.3-39.2-23.3s-31.6,9.4-39.2,23.3l20.4,13.2
		C240.4,223.4,247.6,218.3,256,218.3z"/>
	<path fill="none" stroke="#3C4352" stroke-width="2" stroke-linecap="round" stroke-linejoin="round" stroke-miterlimit="10" d="
		M252,232.5c0.9,1.6,3,2.2,4.6,1.3s2.2-3,1.3-4.6l-13.2-17.9c-0.2-0.3-0.5-0.4-0.8-0.2s-0.4,0.5-0.2,0.8L252,232.5z"/>
	<g>
		<g>
			<path fill="#3C4352" d="M206.9,248.5c0-1.5,0.6-2.3,1.6-2.3s1.6,0.9,1.6,2.3s-0.6,2.3-1.6,2.3S206.9,250,206.9,248.5z
				 M209.6,248.5c0-1.2-0.4-1.9-1.1-1.9c-0.7,0-1.1,0.7-1.1,1.9s0.4,1.9,1.1,1.9S209.6,249.7,209.6,248.5z"/>
		</g>
		<g>
			<path fill="#3C4352" d="M294.7,246.3l-0.5,0.4c-0.1,0-0.1,0-0.2,0l-0.1-0.1c0-0.1,0-0.1,0-0.1l0.9-0.9h0.2c0.1,0,0.1,0.1,0.1,0.1
				v4.3c0,0.1-0.1,0.1-0.1,0.1h-0.2c-0.1,0-0.1-0.1-0.1-0.1L294.7,246.3L294.7,246.3z"/>
			<path fill="#3C4352" d="M296.3,249.3c0.1,0,0.1-0.1,0.2-0.1c0.1-0.1,0.1-0.1,0.2,0s0.4,0.5,1,0.5s1-0.6,1-1.1s-0.3-1-1-1h-1
				c-0.1,0-0.2-0.1-0.2-0.2v-1.8c0-0.1,0.1-0.1,0.1-0.1h2c0.1,0,0.1,0.1,0.1,0.1v0.2c0,0.1-0.1,0.1-0.1,0.1h-1.7v1.2h0.8
				c1,0,1.5,0.5,1.5,1.4c0,0.8-0.6,1.5-1.5,1.5c-0.7,0-1.1-0.4-1.3-0.6C296.2,249.4,296.2,249.4,296.3,249.3z"/>
			<path fill="#3C4352" d="M300.4,249.7c0.3-0.1,1.5-0.8,1.7-1.7c0,0-0.4,0.3-1,0.3c-0.8,0-1.4-0.6-1.4-1.4c0-0.8,0.7-1.5,1.5-1.5
				c1.1,0,1.5,0.8,1.5,1.9c0,1.8-1.5,2.6-2.2,2.8c-0.1,0-0.1,0-0.1-0.1l-0.1-0.2C300.2,249.8,300.3,249.8,300.4,249.7z M302.2,247.5
				c0.1-0.7-0.1-1.7-1.1-1.7c-0.6,0-1,0.5-1,1.1s0.4,1,1,1C301.7,247.9,302.2,247.5,302.2,247.5z"/>
		</g>
		<g>
			<path fill="#8BC541" d="M206.6,240.4l0.1-0.1h0.1c0,0,0.3,0.3,0.6,0.3s0.6-0.2,0.6-0.5s-0.2-0.5-0.7-0.5h-0.2c0,0-0.1,0-0.1-0.1
				v-0.1c0-0.1,0-0.1,0.1-0.1h0.2c0.4,0,0.7-0.2,0.7-0.5s-0.2-0.5-0.5-0.5s-0.4,0.2-0.5,0.3h-0.1l-0.1-0.1v-0.1c0,0,0.3-0.4,0.7-0.4
				c0.5,0,0.8,0.3,0.8,0.8c0,0.3-0.2,0.6-0.4,0.7l0,0c0.2,0.1,0.5,0.3,0.5,0.7s-0.3,0.8-0.9,0.8
				C206.9,240.8,206.7,240.6,206.6,240.4C206.5,240.4,206.5,240.4,206.6,240.4z"/>
			<path fill="#8BC541" d="M209.1,239.4c0-0.9,0.4-1.4,1-1.4s1,0.5,1,1.4s-0.4,1.4-1,1.4S209.1,240.3,209.1,239.4z M210.8,239.4
				c0-0.7-0.3-1.2-0.7-1.2s-0.7,0.4-0.7,1.2s0.3,1.2,0.7,1.2S210.8,240.1,210.8,239.4z"/>
			<path fill="#8BC541" d="M211.9,239.4L211.9,239.4c0-0.1,0-0.2,0.1-0.2h0.9c0,0,0.1,0,0.1,0.1v0.1c0,0,0,0.1-0.1,0.1L211.9,239.4
				C212,239.5,211.9,239.5,211.9,239.4z"/>
			<path fill="#8BC541" d="M213.8,238C213.8,237.9,213.9,237.9,213.8,238l1-0.1c0.8,0,1.4,0.6,1.4,1.4c0,0.8-0.7,1.4-1.4,1.4h-0.9
				c0,0-0.1,0-0.1-0.1V238z M214.8,240.5c0.7,0,1.2-0.5,1.2-1.2s-0.5-1.2-1.2-1.2h-0.6v2.3L214.8,240.5L214.8,240.5z"/>
			<path fill="#8BC541" d="M216.7,240.7l1.3-2.8c0,0,0,0,0.1,0l0,0h0.1l1.2,2.8c0,0.1,0,0.1-0.1,0.1h-0.2H219l-0.3-0.7h-1.5
				l-0.3,0.7c0,0,0,0-0.1,0h-0.2C216.7,240.8,216.7,240.7,216.7,240.7z M218.6,239.8c-0.2-0.4-0.4-0.9-0.6-1.4l0,0l-0.6,1.4H218.6z"
				/>
			<path fill="#8BC541" d="M220.4,239.4l-1-1.4c0-0.1,0-0.1,0.1-0.1h0.2h0.1l0.8,1.1l0.8-1.1c0,0,0,0,0.1,0h0.2
				c0.1,0,0.1,0.1,0.1,0.1l-1,1.4v1.3c0,0,0,0.1-0.1,0.1h-0.2c0,0-0.1,0-0.1-0.1L220.4,239.4L220.4,239.4z"/>
			<path fill="#8BC541" d="M223.8,237.9L223.8,237.9l0.1-0.1h0.1l0.8,2.3l0,0l0.8-2.3c0,0,0,0,0.1,0h0.1c0,0,0.1,0,0.1,0.1l0.5,2.8
				c0,0.1,0,0.1-0.1,0.1h-0.2c0,0-0.1,0-0.1-0.1l-0.4-2.1l0,0l-0.8,2.2c0,0,0,0-0.1,0h-0.1h-0.1l-0.8-2.2l0,0l-0.4,2.1
				c0,0,0,0.1-0.1,0.1H223c-0.1,0-0.1,0-0.1-0.1L223.8,237.9z"/>
			<path fill="#8BC541" d="M227.2,238C227.2,237.9,227.3,237.9,227.2,238l0.2-0.1c0,0,0.1,0,0.1,0.1v2.7c0,0,0,0.1-0.1,0.1h-0.2
				c0,0-0.1,0-0.1-0.1V238H227.2z"/>
			<path fill="#8BC541" d="M228.6,237.9L228.6,237.9l0.2-0.1l1.9,2.3l0,0v-2.2c0,0,0-0.1,0.1-0.1h0.1c0,0,0.1,0,0.1,0.1v2.8
				c0,0,0,0.1-0.1,0.1h-0.1l-1.9-2.4l0,0v2.2c0,0,0,0.1-0.1,0.1h-0.1c0,0-0.1,0-0.1-0.1L228.6,237.9L228.6,237.9z"/>
		</g>
		<g>
			<path fill="#8BC541" d="M277.2,240.4l0.1-0.1h0.1c0,0,0.3,0.3,0.6,0.3c0.3,0,0.6-0.2,0.6-0.5s-0.2-0.5-0.7-0.5h-0.2
				c0,0-0.1,0-0.1-0.1v-0.1c0-0.1,0-0.1,0.1-0.1h0.2c0.4,0,0.7-0.2,0.7-0.5s-0.2-0.5-0.5-0.5s-0.4,0.2-0.5,0.3h-0.1l-0.1-0.1v-0.1
				c0,0,0.3-0.4,0.7-0.4c0.5,0,0.8,0.3,0.8,0.8c0,0.3-0.2,0.6-0.4,0.7l0,0c0.2,0.1,0.5,0.3,0.5,0.7s-0.3,0.8-0.9,0.8
				C277.6,240.8,277.3,240.6,277.2,240.4L277.2,240.4z"/>
			<path fill="#8BC541" d="M279.7,239.4c0-0.9,0.4-1.4,1-1.4s1,0.5,1,1.4s-0.4,1.4-1,1.4C280.1,240.8,279.7,240.3,279.7,239.4z
				 M281.5,239.4c0-0.7-0.3-1.2-0.7-1.2s-0.7,0.4-0.7,1.2s0.3,1.2,0.7,1.2S281.5,240.1,281.5,239.4z"/>
			<path fill="#8BC541" d="M282.6,239.4L282.6,239.4c0-0.1,0-0.2,0.1-0.2h0.9c0,0,0.1,0,0.1,0.1v0.1c0,0,0,0.1-0.1,0.1L282.6,239.4
				C282.6,239.5,282.6,239.5,282.6,239.4z"/>
			<path fill="#8BC541" d="M284.5,238C284.5,237.9,284.5,237.9,284.5,238l1-0.1c0.8,0,1.4,0.6,1.4,1.4c0,0.8-0.7,1.4-1.4,1.4h-0.9
				c0,0-0.1,0-0.1-0.1V238z M285.4,240.5c0.7,0,1.2-0.5,1.2-1.2s-0.5-1.2-1.2-1.2h-0.6v2.3L285.4,240.5L285.4,240.5z"/>
			<path fill="#8BC541" d="M287.4,240.7l1.3-2.8c0,0,0,0,0.1,0l0,0h0.1l1.2,2.8c0,0.1,0,0.1-0.1,0.1h-0.2h-0.1l-0.3-0.7h-1.5
				l-0.3,0.7c0,0,0,0-0.1,0h-0.2C287.4,240.8,287.3,240.7,287.4,240.7z M289.3,239.8c-0.2-0.4-0.4-0.9-0.6-1.4l0,0l-0.6,1.4H289.3z"
				/>
			<path fill="#8BC541" d="M291.1,239.4l-1-1.4c0-0.1,0-0.1,0.1-0.1h0.2h0.1l0.8,1.1l0.8-1.1c0,0,0,0,0.1,0h0.2
				c0.1,0,0.1,0.1,0.1,0.1l-1,1.4v1.3c0,0,0,0.1-0.1,0.1h-0.2c0,0-0.1,0-0.1-0.1V239.4L291.1,239.4z"/>
			<path fill="#8BC541" d="M294.5,237.9L294.5,237.9l0.1-0.1h0.1l0.8,2.3l0,0l0.8-2.3c0,0,0,0,0.1,0h0.1c0,0,0.1,0,0.1,0.1l0.5,2.8
				c0,0.1,0,0.1-0.1,0.1h-0.2c0,0-0.1,0-0.1-0.1l-0.4-2.1l0,0l-0.8,2.2c0,0,0,0-0.1,0h-0.1h-0.1l-0.8-2.2l0,0l-0.4,2.1
				c0,0,0,0.1-0.1,0.1h-0.2c-0.1,0-0.1,0-0.1-0.1L294.5,237.9z"/>
			<path fill="#8BC541" d="M297.5,240.7l1.3-2.8c0,0,0,0,0.1,0l0,0h0.1l1.2,2.8c0,0.1,0,0.1-0.1,0.1h-0.2h-0.1l-0.3-0.7H298
				l-0.3,0.7c0,0,0,0-0.1,0l0,0C297.5,240.8,297.5,240.7,297.5,240.7z M299.5,239.8c-0.2-0.4-0.4-0.9-0.6-1.4l0,0l-0.6,1.4H299.5z"
				/>
			<path fill="#8BC541" d="M301.4,239.3l-0.8-1.3c0-0.1,0-0.1,0.1-0.1h0.2h0.1l0.6,1.1l0,0l0.6-1.1c0,0,0,0,0.1,0h0.2
				c0.1,0,0.1,0.1,0.1,0.1l-0.8,1.3l0.8,1.4c0,0.1,0,0.1-0.1,0.1h-0.2h-0.1l-0.7-1.2l0,0l-0.7,1.2c0,0,0,0-0.1,0h-0.2
				c-0.1,0-0.1-0.1-0.1-0.1L301.4,239.3z"/>
		</g>
	</g>
</g>
<g>
	
		<line fill="none" stroke="#8BC541" stroke-width="2" stroke-linecap="round" stroke-linejoin="round" stroke-miterlimit="10" x1="63.2" y1="165.1" x2="178" y2="165.1"/>
	<path fill="none" stroke="#8BC541" stroke-width="2" stroke-linecap="round" stroke-linejoin="round" stroke-miterlimit="10" d="
		M177.1,263.5h-113c-0.6,0-1-0.4-1-1v-118c0-0.6,0.4-1,1-1h113c0.6,0,1,0.4,1,1v118C178.1,263,177.6,263.5,177.1,263.5z"/>
	<g>
		<path fill="none" stroke="#3C4352" stroke-width="2" stroke-linecap="round" stroke-linejoin="round" stroke-miterlimit="10" d="
			M96,196c1,1.8,0.2,3.3-1.9,3.3H75.6c-2.1,0-3-1.5-1.9-3.3l9.3-16.5c1-1.8,2.7-1.8,3.7,0L96,196z"/>
		<g>
			<path fill="#3C4352" d="M104.8,178.7c0-0.3,0.3-0.6,0.6-0.6h1.2c0.3,0,0.6,0.3,0.6,0.6v13.2c0,3.6,2.2,6.4,5.9,6.4s6-2.8,6-6.4
				v-13.3c0-0.3,0.3-0.6,0.6-0.6h1.2c0.3,0,0.6,0.3,0.6,0.6v13.5c0,4.8-3.4,8.5-8.4,8.5s-8.4-3.7-8.4-8.5v-13.4H104.8z"/>
			<path fill="#3C4352" d="M127.7,178.7c0-0.3,0.3-0.6,0.6-0.6h7c3.9,0,7.1,3.2,7.1,7c0,3.9-3.2,7.1-7.1,7.1h-5.2v7.4
				c0,0.3-0.3,0.6-0.6,0.6h-1.2c-0.3,0-0.6-0.3-0.6-0.6C127.7,199.6,127.7,178.7,127.7,178.7z M135.2,189.8c2.6,0,4.8-2.1,4.8-4.8
				c0-2.6-2.2-4.5-4.8-4.5h-5v9.4L135.2,189.8L135.2,189.8z"/>
		</g>
	</g>
	<g>
		<path fill="#8BC541" d="M73.2,241l0.5-0.5c0.1-0.1,0.2-0.1,0.3,0c0,0,0.6,0.6,1.3,0.6c0.6,0,1.1-0.4,1.1-1c0-0.5-0.5-1-1.4-1h-0.7
			c-0.1,0-0.2-0.1-0.2-0.2v-0.7c0-0.1,0.1-0.2,0.2-0.2h0.6c0.8,0,1.3-0.4,1.3-0.9c0-0.6-0.5-0.9-1-0.9s-0.9,0.3-1,0.5
			c-0.1,0.1-0.2,0.1-0.3,0l-0.6-0.5c-0.1-0.1-0.1-0.2,0-0.3c0,0,0.8-0.9,1.9-0.9c1.2,0,2.2,0.7,2.2,1.9c0,0.8-0.6,1.4-1.1,1.6l0,0
			c0.5,0.2,1.2,0.8,1.2,1.7c0,1.2-0.9,2-2.4,2c-1.3,0-1.9-0.6-2.1-0.9C73.1,241.2,73.1,241.1,73.2,241z"/>
		<path fill="#8BC541" d="M79.1,240.4v-0.9l3.7-4.5c0,0,0.1-0.1,0.2-0.1h0.6c0.1,0,0.2,0.1,0.2,0.2v4.4h0.8c0.1,0,0.2,0.1,0.2,0.2
			v0.6c0,0.1-0.1,0.2-0.2,0.2h-0.8v1.3c0,0.1-0.1,0.2-0.2,0.2h-0.9c-0.1,0-0.2-0.1-0.2-0.2v-1.3h-3.2
			C79.2,240.6,79.1,240.5,79.1,240.4z M82.5,239.5V237l-2.1,2.5H82.5z"/>
		<path fill="#8BC541" d="M88.2,237.9c0.4,0,0.7,0.1,0.9,0.2v-3c0-0.1,0.1-0.2,0.2-0.2h0.9c0.1,0,0.2,0.1,0.2,0.2v6.8
			c0,0.1-0.1,0.2-0.2,0.2h-0.4c-0.1,0-0.2-0.1-0.2-0.2l-0.1-0.3c0,0-0.5,0.6-1.3,0.6c-1.1,0-2-1-2-2.2
			C86.1,238.8,87,237.9,88.2,237.9z M88.3,241.1c0.5,0,0.8-0.4,0.9-0.7v-1.2c0,0-0.3-0.2-0.8-0.2c-0.6,0-1,0.5-1,1.1
			C87.3,240.6,87.7,241.1,88.3,241.1z"/>
		<path fill="#8BC541" d="M96.3,237l-1,0.2c-0.1,0-0.2,0-0.2-0.1l-0.1-0.5c0-0.1,0-0.1,0.1-0.2l1.5-1.2h0.7c0.1,0,0.2,0.1,0.2,0.2
			v6.6c0,0.1-0.1,0.2-0.2,0.2h-0.9c-0.1,0-0.2-0.1-0.2-0.2L96.3,237L96.3,237z"/>
		<path fill="#8BC541" d="M100.6,241.2c0.5-0.2,1.9-0.8,2.3-2c-0.2,0.1-0.7,0.3-1.2,0.3c-1,0-2.1-0.8-2.1-2.2c0-1.3,1.1-2.4,2.3-2.4
			c1.6,0,2.5,1.3,2.5,2.8c0,3-2.5,4.2-3.4,4.5c-0.1,0-0.2,0-0.3-0.1l-0.2-0.6C100.4,241.4,100.4,241.3,100.6,241.2z M103.2,237.6
			c0-0.7-0.4-1.5-1.2-1.5c-0.6,0-1.2,0.6-1.2,1.2c0,0.7,0.5,1.2,1.2,1.2S103.1,238,103.2,237.6z"/>
		<path fill="#8BC541" d="M106.3,235.1c0-0.1,0.1-0.2,0.2-0.2h0.9c0.1,0,0.2,0.1,0.2,0.2v3.1c0.2-0.2,0.6-0.3,1.1-0.3
			c1.3,0,1.8,1,1.8,2v2c0,0.1-0.1,0.2-0.2,0.2h-0.8c-0.1,0-0.2-0.1-0.2-0.2v-2c0-0.6-0.3-0.9-0.8-0.9s-0.8,0.3-0.9,0.7v2.2
			c0,0.1-0.1,0.2-0.2,0.2h-0.9c-0.1,0-0.2-0.1-0.2-0.2C106.3,241.9,106.3,235.1,106.3,235.1z"/>
		<path fill="#8BC541" d="M112.4,238.2c0-0.1,0.1-0.2,0.2-0.2h0.4c0.1,0,0.2,0.1,0.2,0.1l0.1,0.4c0.1-0.2,0.5-0.6,1.2-0.6
			c0.5,0,0.9,0.2,0.8,0.4l-0.4,0.7c-0.1,0.1-0.2,0.1-0.2,0.1s-0.2-0.1-0.3-0.1c-0.4,0-0.7,0.3-0.7,0.4v2.5c0,0.1-0.1,0.2-0.2,0.2
			h-0.8c-0.1,0-0.2-0.1-0.2-0.2L112.4,238.2L112.4,238.2z"/>
	</g>
	<g>
		<path fill="#8BC541" d="M73.6,219.8c0-0.1,0.1-0.2,0.2-0.2h0.3c0.1,0,0.2,0.1,0.2,0.2v4.9h2.3c0.1,0,0.2,0.1,0.2,0.2v0.2
			c0,0.1-0.1,0.2-0.2,0.2h-2.7c-0.1,0-0.2-0.1-0.2-0.2L73.6,219.8L73.6,219.8z"/>
		<path fill="#8BC541" d="M77.4,225l2.4-5.3l0.1-0.1H80c0.1,0,0.1,0,0.1,0.1l2.4,5.3c0,0.1,0,0.2-0.1,0.2h-0.3c-0.1,0-0.1,0-0.1-0.1
			l-0.6-1.3h-2.8l-0.6,1.3l-0.1,0.1h-0.3C77.4,225.2,77.3,225.1,77.4,225z M81.1,223.3c-0.4-0.9-0.8-1.7-1.2-2.6h-0.1l-1.2,2.6H81.1
			z"/>
		<path fill="#8BC541" d="M83.4,224.3c0,0,0.1-0.1,0.1-0.2c0.1-0.1,0.2-0.2,0.3-0.1c0.1,0,0.6,0.6,1.3,0.6c0.6,0,1.1-0.4,1.1-0.9
			s-0.5-0.9-1.4-1.3c-0.9-0.4-1.4-0.7-1.4-1.6c0-0.5,0.4-1.4,1.7-1.4c0.8,0,1.4,0.4,1.4,0.4s0.1,0.1,0,0.3c0,0-0.1,0.1-0.1,0.2
			c-0.1,0.1-0.2,0.1-0.3,0.1s-0.6-0.4-1-0.4c-0.8,0-1.1,0.5-1.1,0.9c0,0.5,0.4,0.8,1.1,1.1c1.1,0.4,1.8,0.8,1.8,1.8
			c0,0.8-0.8,1.4-1.7,1.4c-0.9,0-1.6-0.5-1.7-0.6C83.4,224.6,83.3,224.5,83.4,224.3z"/>
		<path fill="#8BC541" d="M89.2,220.2h-1.4c-0.1,0-0.2-0.1-0.2-0.2v-0.2c0-0.1,0.1-0.2,0.2-0.2h3.4c0.1,0,0.2,0.1,0.2,0.2v0.2
			c0,0.1-0.1,0.2-0.2,0.2h-1.4v4.9c0,0.1-0.1,0.2-0.2,0.2h-0.3c-0.1,0-0.2-0.1-0.2-0.2L89.2,220.2L89.2,220.2z"/>
		<path fill="#8BC541" d="M94.7,219.8c0-0.1,0.1-0.2,0.1-0.2h1.8c1.5,0,2.8,1.2,2.8,2.8c0,1.5-1.3,2.8-2.8,2.8h-1.8
			c-0.1,0-0.1-0.1-0.1-0.2V219.8z M96.5,224.6c1.3,0,2.2-0.9,2.2-2.2s-0.9-2.2-2.2-2.2h-1.2v4.5h1.2V224.6z"/>
		<path fill="#8BC541" d="M103.6,219.6c1.6,0,2.9,1.3,2.9,2.9c0,1.6-1.3,2.8-2.9,2.8s-2.8-1.3-2.8-2.8
			C100.7,221,102,219.6,103.6,219.6z M103.6,224.7c1.3,0,2.3-1,2.3-2.3s-1-2.3-2.3-2.3s-2.3,1-2.3,2.3S102.3,224.7,103.6,224.7z"/>
		<path fill="#8BC541" d="M107.5,219.8c0-0.1,0-0.2,0.1-0.2h0.3c0.1,0,0.1,0.1,0.1,0.1l1.1,4.1l0,0l1.3-4.2l0.1-0.1h0.1
			c0.1,0,0.1,0,0.1,0.1l1.3,4.2l0,0l1.1-4.1c0-0.1,0.1-0.1,0.1-0.1h0.3c0.1,0,0.2,0.1,0.1,0.2l-1.5,5.3c0,0.1-0.1,0.1-0.1,0.1h-0.1
			c-0.1,0-0.1,0-0.1-0.1l-1.4-4.3l0,0l-1.3,4.3l-0.1,0.1h-0.1c-0.1,0-0.1,0-0.1-0.1L107.5,219.8z"/>
		<path fill="#8BC541" d="M115.5,219.7c0-0.1,0.1-0.1,0.2-0.1h0.2l3.6,4.5l0,0v-4.2c0-0.1,0.1-0.2,0.2-0.2h0.3
			c0.1,0,0.2,0.1,0.2,0.2v5.3c0,0.1-0.1,0.1-0.2,0.1h-0.1l-3.6-4.5l0,0v4.3c0,0.1-0.1,0.2-0.2,0.2h-0.3c-0.1,0-0.2-0.1-0.2-0.2
			L115.5,219.7L115.5,219.7L115.5,219.7z"/>
		<path fill="#8BC541" d="M122.8,220.2h-1.4c-0.1,0-0.2-0.1-0.2-0.2v-0.2c0-0.1,0.1-0.2,0.2-0.2h3.4c0.1,0,0.2,0.1,0.2,0.2v0.2
			c0,0.1-0.1,0.2-0.2,0.2h-1.4v4.9c0,0.1-0.1,0.2-0.2,0.2h-0.3c-0.1,0-0.2-0.1-0.2-0.2L122.8,220.2L122.8,220.2z"/>
		<path fill="#8BC541" d="M126.2,219.8c0-0.1,0.1-0.2,0.2-0.2h0.3c0.1,0,0.2,0.1,0.2,0.2v5.2c0,0.1-0.1,0.2-0.2,0.2h-0.3
			c-0.1,0-0.2-0.1-0.2-0.2V219.8z"/>
		<path fill="#8BC541" d="M129.5,219.7c0-0.1,0.1-0.1,0.1-0.1h0.1c0.1,0,0.1,0,0.1,0.1l1.6,4.4l0,0l1.5-4.4l0.1-0.1h0.1
			c0.1,0,0.1,0,0.1,0.1l1,5.3c0,0.1,0,0.2-0.1,0.2h-0.3c-0.1,0-0.1-0.1-0.1-0.1L133,221l0,0l-1.5,4.2l-0.1,0.1l0,0
			c0,0-0.1,0-0.1-0.1l-1.5-4.2l0,0l-0.7,4.1c0,0.1-0.1,0.1-0.1,0.1h-0.3c-0.1,0-0.2-0.1-0.1-0.2L129.5,219.7z"/>
		<path fill="#8BC541" d="M136.1,219.8c0-0.1,0.1-0.2,0.2-0.2h3.1c0.1,0,0.2,0.1,0.2,0.2v0.2c0,0.1-0.1,0.2-0.2,0.2h-2.7v1.9h2.3
			c0.1,0,0.2,0.1,0.2,0.2v0.2c0,0.1-0.1,0.2-0.2,0.2h-2.3v2h2.7c0.1,0,0.2,0.1,0.2,0.2v0.2c0,0.1-0.1,0.2-0.2,0.2h-3.1
			c-0.1,0-0.2-0.1-0.2-0.2C136.1,225.1,136.1,219.8,136.1,219.8z"/>
	</g>
	
		<circle fill="none" stroke="#3C4352" stroke-linecap="round" stroke-linejoin="round" stroke-miterlimit="10" cx="73" cy="153.7" r="1.4"/>
	<g>
		<path fill="#3C4352" d="M80.5,152.4c0-0.1,0-0.1,0.1-0.1H81c0,0,0.1,0,0.1,0.1l0.5,1.9l0,0l0.8-1.9c0,0,0-0.1,0.1-0.1h0.1
			c0,0,0.1,0,0.1,0.1l0.8,1.9l0,0l0.5-1.9c0,0,0-0.1,0.1-0.1h0.4c0.1,0,0.1,0,0.1,0.1l-0.9,3.2c0,0,0,0.1-0.1,0.1h-0.1
			c0,0-0.1,0-0.1-0.1l-0.8-2.1l0,0l-0.8,2.1c0,0,0,0.1-0.1,0.1h-0.1c0,0-0.1,0-0.1-0.1L80.5,152.4z"/>
		<path fill="#3C4352" d="M85.3,152.3L85.3,152.3l2-0.1c0.1,0,0.1,0,0.1,0.1v0.4c0,0,0,0.1-0.1,0.1h-1.4v0.8h1.2c0,0,0.1,0,0.1,0.1
			v0.4c0,0.1,0,0.1-0.1,0.1h-1.2v0.8h1.4c0.1,0,0.1,0,0.1,0.1v0.4c0,0,0,0.1-0.1,0.1h-1.9c-0.1,0-0.1,0-0.1-0.1V152.3z"/>
		<path fill="#3C4352" d="M88.3,152.3L88.3,152.3l1.2-0.1c0.6,0,1,0.4,1,0.9c0,0.4-0.3,0.6-0.5,0.7c0.2,0.1,0.6,0.3,0.6,0.8
			s-0.5,0.9-1,0.9h-1.1c-0.1,0-0.1,0-0.1-0.1L88.3,152.3L88.3,152.3L88.3,152.3z M89.4,153.6c0.2,0,0.4-0.2,0.4-0.4
			s-0.2-0.4-0.4-0.4h-0.5v0.8L89.4,153.6L89.4,153.6z M89.5,155c0.2,0,0.4-0.2,0.4-0.4s-0.2-0.4-0.5-0.4h-0.5v0.8L89.5,155L89.5,155
			z"/>
		<path fill="#3C4352" d="M91.3,155.1l0.2-0.3c0-0.1,0.1-0.1,0.2,0c0,0,0.4,0.3,0.7,0.3c0.2,0,0.4-0.2,0.4-0.4s-0.2-0.4-0.6-0.6
			c-0.4-0.2-0.9-0.5-0.9-1c0-0.4,0.3-0.9,1.1-0.9c0.5,0,0.8,0.2,0.9,0.3c0,0,0.1,0.1,0,0.2l-0.2,0.3c0,0.1-0.1,0.1-0.2,0.1
			c0,0-0.4-0.3-0.7-0.3c-0.3,0-0.4,0.2-0.4,0.3c0,0.2,0.2,0.4,0.6,0.5c0.5,0.2,1,0.5,1,1.1c0,0.5-0.4,0.9-1.1,0.9
			c-0.6,0-0.9-0.3-1-0.4C91.2,155.2,91.2,155.2,91.3,155.1z"/>
		<path fill="#3C4352" d="M94.2,152.3C94.2,152.3,94.3,152.3,94.2,152.3l0.5-0.1c0,0,0.1,0,0.1,0.1v3.1c0,0,0,0.1-0.1,0.1h-0.4
			c0,0-0.1,0-0.1-0.1V152.3z"/>
		<path fill="#3C4352" d="M96.4,152.8h-0.7c-0.1,0-0.1,0-0.1-0.1v-0.4c0,0,0-0.1,0.1-0.1h2.1c0.1,0,0.1,0,0.1,0.1v0.4
			c0,0,0,0.1-0.1,0.1h-0.7v2.6c0,0,0,0.1-0.1,0.1h-0.4c0,0-0.1,0-0.1-0.1L96.4,152.8L96.4,152.8z"/>
		<path fill="#3C4352" d="M98.6,152.3L98.6,152.3l2-0.1c0.1,0,0.1,0,0.1,0.1v0.4c0,0,0,0.1-0.1,0.1h-1.4v0.8h1.1c0,0,0.1,0,0.1,0.1
			v0.4c0,0.1,0,0.1-0.1,0.1h-1.2v0.8h1.4c0.1,0,0.1,0,0.1,0.1v0.4c0,0,0,0.1-0.1,0.1h-1.9c-0.1,0-0.1,0-0.1-0.1L98.6,152.3
			L98.6,152.3z"/>
		<path fill="#3C4352" d="M102.9,152.3L102.9,152.3l0.5-0.1c0.1,0,0.1,0,0.1,0.1v1.9c0,0.4,0.3,0.7,0.7,0.7s0.7-0.3,0.7-0.7v-1.9
			c0,0,0-0.1,0.1-0.1h0.4c0,0,0.1,0,0.1,0.1v2c0,0.7-0.6,1.3-1.3,1.3s-1.3-0.6-1.3-1.3L102.9,152.3L102.9,152.3z"/>
		<path fill="#3C4352" d="M106.6,152.3L106.6,152.3l1.2-0.1c0.6,0,1.1,0.5,1.1,1c0,0.6-0.5,1.1-1.1,1.1h-0.6v1.1c0,0,0,0.1-0.1,0.1
			h-0.4c-0.1,0-0.1,0-0.1-0.1C106.6,155.4,106.6,152.3,106.6,152.3z M107.7,153.8c0.3,0,0.5-0.2,0.5-0.5s-0.2-0.5-0.5-0.5h-0.5v0.9
			h0.5V153.8z"/>
		<path fill="#3C4352" d="M110.1,152.8h-0.7c-0.1,0-0.1,0-0.1-0.1v-0.4c0,0,0-0.1,0.1-0.1h2c0.1,0,0.1,0,0.1,0.1v0.4
			c0,0,0,0.1-0.1,0.1h-0.7v2.6c0,0,0,0.1-0.1,0.1h-0.4c0,0-0.1,0-0.1-0.1C110.1,155.4,110.1,152.8,110.1,152.8z"/>
		<path fill="#3C4352" d="M112.2,152.3C112.2,152.3,112.3,152.3,112.2,152.3l0.5-0.1c0,0,0.1,0,0.1,0.1v3.1c0,0,0,0.1-0.1,0.1h-0.4
			c0,0-0.1,0-0.1-0.1V152.3z"/>
		<path fill="#3C4352" d="M114.3,152.3C114.3,152.2,114.3,152.2,114.3,152.3l0.2-0.1h0.1l1,2.2l0,0l1-2.2c0,0,0,0,0.1,0h0.1
			c0.1,0,0.1,0,0.1,0.1l0.6,3.2c0,0.1,0,0.1-0.1,0.1H117c0,0-0.1,0-0.1-0.1l-0.3-1.8l0,0l-0.8,1.9c0,0,0,0.1-0.1,0.1h-0.1
			c0,0-0.1,0-0.1-0.1l-0.8-1.9l0,0l-0.3,1.8c0,0,0,0.1-0.1,0.1h-0.4c-0.1,0-0.1,0-0.1-0.1L114.3,152.3z"/>
		<path fill="#3C4352" d="M118.3,152.3L118.3,152.3l2-0.1c0.1,0,0.1,0,0.1,0.1v0.4c0,0,0,0.1-0.1,0.1h-1.4v0.8h1.2
			c0,0,0.1,0,0.1,0.1v0.4c0,0.1,0,0.1-0.1,0.1h-1.2v0.8h1.4c0.1,0,0.1,0,0.1,0.1v0.4c0,0,0,0.1-0.1,0.1h-1.9c-0.1,0-0.1,0-0.1-0.1
			V152.3z"/>
	</g>
</g>
<g>
	<g>
		<polyline fill="none" stroke="#8BC541" stroke-width="2" stroke-linecap="round" stroke-linejoin="round" points="177.9,115.8 
			177.9,121.8 171.9,121.8 		"/>
		
			<line fill="none" stroke="#8BC541" stroke-width="2" stroke-linecap="round" stroke-linejoin="round" stroke-dasharray="11.3805,11.3805" x1="160.4" y1="121.8" x2="75" y2="121.8"/>
		<polyline fill="none" stroke="#8BC541" stroke-width="2" stroke-linecap="round" stroke-linejoin="round" points="69.3,121.8 
			63.3,121.8 63.3,115.8 		"/>
		
			<line fill="none" stroke="#8BC541" stroke-width="2" stroke-linecap="round" stroke-linejoin="round" stroke-dasharray="11.8025,11.8025" x1="63.3" y1="104" x2="63.3" y2="15.3"/>
		<polyline fill="none" stroke="#8BC541" stroke-width="2" stroke-linecap="round" stroke-linejoin="round" points="63.3,9.4 
			63.3,3.4 69.3,3.4 		"/>
		
			<line fill="none" stroke="#8BC541" stroke-width="2" stroke-linecap="round" stroke-linejoin="round" stroke-dasharray="11.3805,11.3805" x1="80.7" y1="3.4" x2="166.1" y2="3.4"/>
		<polyline fill="none" stroke="#8BC541" stroke-width="2" stroke-linecap="round" stroke-linejoin="round" points="171.9,3.4 
			177.9,3.4 177.9,9.4 		"/>
		
			<line fill="none" stroke="#8BC541" stroke-width="2" stroke-linecap="round" stroke-linejoin="round" stroke-dasharray="11.8025,11.8025" x1="177.9" y1="21.3" x2="177.9" y2="109.9"/>
	</g>
</g>
<g display="none">
	<g display="inline">
		<g>
			<path fill="#3C4352" d="M81.5,11.2c0.4,0,0.8,0.1,1.1,0.4v0.1L82.3,12h-0.1l-0.7-0.3c-0.6,0-1,0.5-1,1s0.4,1,1,1l0.7-0.3h0.1
				l0.3,0.3v0.1c-0.3,0.4-0.7,0.5-1.1,0.5c-0.9,0-1.6-0.7-1.6-1.6C79.9,11.9,80.6,11.2,81.5,11.2L81.5,11.2z M84.7,11.2
				c0.9,0,1.6,0.7,1.6,1.6c0,0.9-0.7,1.6-1.6,1.6s-1.6-0.7-1.6-1.6S83.8,11.2,84.7,11.2z M84.7,13.8c0.6,0,1-0.4,1-1s-0.5-1-1-1
				s-1,0.5-1,1S84.2,13.8,84.7,13.8z M87.1,11.2L87.1,11.2l0.2-0.1l1.8,1.9l0,0v-1.7l0.1-0.1h0.4l0.1,0.1v2.9l-0.1,0.1h-0.1l-1.8-2
				l0,0v1.9l-0.1,0.1h-0.4l-0.1-0.1V11.2L87.1,11.2z M90.3,11.3l0.1-0.1h0.4h0.1l0.8,1.9l0,0l0.8-1.9h0.1H93l0.1,0.1l-1.2,3h-0.1
				l0,0h-0.1L90.3,11.3L90.3,11.3z M93.8,11.3L93.8,11.3l1.9-0.1l0.1,0.1v0.4l-0.1,0.1h-1.3v0.7h1.1l0.1,0.1V13l-0.1,0.1h-1.1v0.8
				h1.3l0.1,0.1v0.4l-0.1-0.1h-1.8l-0.1-0.1V11.3z M96.6,11.3L96.6,11.3l1.3-0.1c0.5,0,1,0.4,1,0.9c0,0.4-0.3,0.7-0.6,0.9l0.6,1.1
				l-0.1,0.2h-0.5h-0.1l-0.6-1.2h-0.5v1.1v0.1h-0.4l-0.1-0.1C96.6,14.2,96.6,11.3,96.6,11.3z M97.9,12.6c0.2,0,0.4-0.2,0.4-0.4
				s-0.2-0.4-0.4-0.4h-0.7v0.9h0.7V12.6z M99.6,13.9l0.2-0.3h0.1l0.7,0.3c0.2,0,0.4-0.1,0.4-0.3s-0.2-0.4-0.6-0.5
				c-0.4-0.2-0.8-0.4-0.8-0.9c0-0.4,0.3-0.8,1-0.8c0.4,0,0.8,0.2,0.9,0.3v0.1l-0.2,0.1l-0.2,0.1l-0.6-0.2c-0.2,0-0.4,0.2-0.4,0.3
				c0,0.2,0.2,0.3,0.5,0.5c0.4,0.2,0.9,0.4,0.9,1c0,0.4-0.4,0.9-1,0.9s-0.9-0.3-1-0.3L99.6,13.9L99.6,13.9z M102.5,11.3L102.5,11.3
				l0.5-0.1l0.1,0.1v2.9l-0.2,0.1h-0.4l-0.1-0.1L102.5,11.3L102.5,11.3z M105.4,11.2c0.9,0,1.6,0.7,1.6,1.6c0,0.9-0.7,1.6-1.6,1.6
				s-1.6-0.7-1.6-1.6S104.5,11.2,105.4,11.2z M105.4,13.8c0.6,0,1-0.4,1-1s-0.5-1-1-1s-1,0.5-1,1S104.8,13.8,105.4,13.8z
				 M107.8,11.2L107.8,11.2l0.2-0.1l1.8,1.9l0,0v-1.7l0.1-0.1h0.4l0.1,0.1v2.9l-0.1,0.1h-0.1l-1.8-2l0,0v1.9l-0.1,0.1h-0.4l-0.1-0.1
				V11.2z M112.6,11.3L112.6,11.3l1.3-0.1c0.5,0,1,0.4,1,0.9c0,0.4-0.3,0.7-0.6,0.9l0.6,1.1l-0.2,0.2h-0.5h-0.1l-0.6-1.2H113v1.1
				l0.1,0.1h-0.4l-0.1-0.1V11.3z M113.9,12.6c0.2,0,0.4-0.2,0.4-0.4s-0.2-0.4-0.4-0.4h-0.7v0.9h0.7V12.6z M115.3,14.2l1.4-2.9h0.1
				l0,0h0.1l1.3,2.9l-0.1,0.1h-0.4l-0.1-0.1l-0.2-0.5h-1.3l-0.2,0.5l-0.1,0.1h-0.4L115.3,14.2L115.3,14.2z M117.2,13.2l-0.4-1l0,0
				l-0.4,1H117.2L117.2,13.2z M119.1,11.7h-0.7l-0.1-0.1v-0.3l0.1-0.1h1.9l0.1,0.1v0.4l-0.1,0.1h-0.7v2.5l0,0h-0.4l-0.1-0.1
				L119.1,11.7L119.1,11.7z M121.1,11.3L121.1,11.3l1.9-0.1l0.1,0.1v0.4l-0.1,0.1h-1.3v0.7h1.1l0.1,0.1V13l-0.1,0.1h-1.1v0.8h1.3
				l0.1,0.1v0.4l-0.1-0.1h-1.8l-0.1-0.1V11.3z"/>
		</g>
		<g>
			<path fill="#8BC541" d="M78.6,51.3L76,53.4c-0.3,0.2-0.6,0.3-0.8,0l-0.7-0.8c-0.3-0.3-0.1-0.6,0.1-0.8l5.1-5h1
				c0.4,0,0.7,0.3,0.7,0.7V71c0,0.4-0.3,0.7-0.7,0.7h-1.4c-0.4,0-0.7-0.3-0.7-0.7V51.3z M86.6,69.9l9-9.7c2.5-2.7,3.7-4.9,3.7-6.6
				c0-2.1-1.4-4.6-5.1-4.6c-2.3,0-4.1,1.5-5.2,2.7c-0.3,0.3-0.7,0.3-1,0L87.3,51c-0.2-0.3-0.3-0.7,0-1c0,0,2.6-3.6,7-3.6
				c5.2,0,7.9,3.3,7.9,7.1c0,3.2-2.1,5.6-4.6,8.3l-7,7.5h10.8c0.4,0,0.7,0.3,0.7,0.7v1c0,0.4-0.3,0.7-0.7,0.7H87.3
				c-0.4,0-0.7-0.3-0.7-0.7L86.6,69.9L86.6,69.9z M108.3,67.8c1.2,0,2.1,0.9,2.1,2.1c0,1.1-0.9,2.1-2.1,2.1c-1.1,0-2.1-1-2.1-2.1
				S107.2,67.8,108.3,67.8z M114,69.9l9-9.7c2.5-2.7,3.7-4.9,3.7-6.6c0-2.1-1.4-4.6-5.1-4.6c-2.3,0-4.1,1.5-5.2,2.7
				c-0.3,0.3-0.7,0.3-1,0l-0.7-0.7c-0.2-0.3-0.3-0.7,0-1c0,0,2.6-3.6,7-3.6c5.2,0,7.9,3.3,7.9,7.1c0,3.2-2.1,5.6-4.6,8.3l-7,7.5
				h10.8c0.4,0,0.7,0.3,0.7,0.7v1c0,0.4-0.3,0.7-0.7,0.7h-14.1c-0.4,0-0.7-0.3-0.7-0.7L114,69.9L114,69.9z M133.2,67.9l1-0.8
				c0.4-0.3,0.7-0.2,1,0.2c0.3,0.4,2.3,2.5,5.5,2.5c2.8,0,5.3-1.7,5.3-4.6c0-2.5-1.9-4.8-6.5-4.8h-2.1c-0.4,0-0.7-0.2-0.7-0.8v-0.9
				c0-0.6,0.2-0.8,0.8-0.8h2c3.9,0,5.8-2,5.8-4.4c0-2.9-2.2-4.6-4.8-4.6c-2.5,0-4,1.5-4.8,2.4c-0.2,0.3-0.6,0.4-1,0.1l-0.9-0.7
				c-0.3-0.3-0.3-0.7,0-1c0,0,2.6-3.2,6.6-3.2c4.4,0,7.5,2.6,7.5,6.7c0,2.8-2.1,5-3.8,5.8v0.1c1.7,0.7,4.4,2.8,4.4,5.9
				c0,4-3.1,7.1-8.1,7.1c-4.5,0-6.6-2.3-7.4-3.3C133,68.5,132.9,68.1,133.2,67.9L133.2,67.9z"/>
		</g>
		<g>
			<path fill="#3C4352" d="M95.4,91.9l2.9-3.1c0.8-0.9,1.2-1.6,1.2-2.1c0-0.7-0.4-1.5-1.7-1.5c-0.7,0-1.3,0.5-1.7,0.9h-0.3l-0.2-0.2
				v-0.4c0,0,0.8-1.2,2.2-1.2c1.7,0,2.6,1.1,2.6,2.3c0,1-0.7,1.8-1.5,2.7l-2.3,2.4h3.5l0.2,0.2v0.3l-0.2,0.2h-4.5l-0.3-0.3
				L95.4,91.9L95.4,91.9z M102.2,92.1l3.3-6.9h-3.9l-0.2-0.2v-0.3l0.2-0.2h4.8l0.2,0.2v0.1l-3.5,7.4l-0.4,0.3h-0.3l-0.2-0.2V92.1z
				 M108.1,91.2c0.4,0,0.7,0.3,0.7,0.7c0,0.4-0.3,0.7-0.7,0.7c-0.4,0-0.7-0.3-0.7-0.7S107.7,91.2,108.1,91.2z M110.9,91.9
				c0.5-0.2,2.6-1.3,3-2.9c0,0-0.8,0.5-1.8,0.5c-1.3,0-2.5-1-2.5-2.6c0-1.5,1.2-2.7,2.6-2.7c1.9,0,2.8,1.5,2.8,3.4
				c0,3.1-2.7,4.6-3.9,5.1l-0.3-0.2l-0.1-0.3L110.9,91.9L110.9,91.9z M114.1,87.8c0.2-1.2-0.3-3-1.9-3c-1,0-1.8,0.9-1.8,1.9
				s0.8,1.8,1.8,1.8C113.3,88.6,114.1,87.8,114.1,87.8L114.1,87.8z M116.2,91.2l0.3-0.3l0.3,0.1c0.1,0.1,0.7,0.8,1.8,0.8
				c0.9,0,1.7-0.5,1.7-1.5c0-0.8-0.6-1.6-2.1-1.6h-0.7l-0.2-0.2v-0.3l0.3-0.3h0.6c1.3,0,1.9-0.7,1.9-1.4c0-0.9-0.7-1.5-1.5-1.5
				s-1.3,0.5-1.6,0.8h-0.3l-0.3-0.2v-0.3c0,0,0.8-1,2.1-1c1.4,0,2.4,0.8,2.4,2.2c0,0.9-0.7,1.6-1.2,1.9l0,0c0.6,0.2,1.4,0.9,1.4,1.9
				c0,1.3-1,2.3-2.6,2.3c-1.5,0-2.1-0.8-2.4-1.1L116.2,91.2L116.2,91.2z M122.3,85.5c0-0.9,0.7-1.6,1.6-1.6s1.6,0.7,1.6,1.6
				s-0.7,1.6-1.6,1.6S122.3,86.4,122.3,85.5z M124.8,85.5c0-0.5-0.4-0.9-0.9-0.9S123,85,123,85.5s0.4,0.9,0.9,0.9
				S124.8,86,124.8,85.5z M127.5,84.2l0.2-0.1h0.2l0.2,0.3l-4.1,7.8l-0.2,0.1h-0.2l-0.2-0.3L127.5,84.2L127.5,84.2z M127.7,89.4
				c0.9,0,1.6,0.7,1.6,1.6s-0.7,1.6-1.6,1.6s-1.6-0.7-1.6-1.6S126.8,89.4,127.7,89.4z M127.7,91.9c0.5,0,0.9-0.4,0.9-0.9
				s-0.4-0.9-0.9-0.9c-0.5,0-0.9,0.4-0.9,0.9C126.7,91.5,127.1,91.9,127.7,91.9z"/>
		</g>
		<path fill="none" stroke="#3C4352" stroke-width="2" stroke-miterlimit="10" d="M81.8,97c-1.2,0-2.3-0.7-2.9-1.9l-5.3-9.3
			c-0.7-1.2-0.7-2.4-0.1-3.5c0.6-1,1.7-1.6,3.1-1.6h10.5c1.3,0,2.5,0.6,3.1,1.6s0.6,2.3-0.1,3.5l-5.3,9.3C84.1,96.3,83,97,81.8,97
			L81.8,97z"/>
	</g>
	
		<line display="inline" fill="none" stroke="#8BC541" stroke-width="2" stroke-linecap="round" stroke-linejoin="round" stroke-miterlimit="10" x1="63.5" y1="24.3" x2="178.3" y2="24.3"/>
	
		<path display="inline" fill="none" stroke="#8BC541" stroke-width="2" stroke-linecap="round" stroke-linejoin="round" stroke-miterlimit="10" d="
		M177.4,122.8h-113c-0.6,0-1-0.4-1-1V3.8c0-0.6,0.4-1,1-1h113c0.6,0,1,0.4,1,1v118C178.4,122.3,177.9,122.8,177.4,122.8z"/>
	
		<circle display="inline" fill="none" stroke="#3C4352" stroke-linecap="round" stroke-linejoin="round" stroke-miterlimit="10" cx="72.7" cy="12.7" r="1.4"/>
</g>
<polygon fill="none" stroke="#3B4251" stroke-miterlimit="10" points="213.4,36.7 209,34 209,35.4 205,35.4 205,31.4 206.5,31.4 
	203.6,26.5 200.7,31.4 202,31.4 202,35.4 198,35.4 198,33.7 193.4,36.5 198,39.9 198,38.4 202,38.4 202,42.4 200.6,42.4 203.5,46.9 
	206.5,42.4 205,42.4 205,38.4 209,38.4 209,39.8 "/>
</svg>
