<svg style="position: absolute; width: 0; height: 0; overflow: hidden;" version="1.1" xmlns="http://www.w3.org/2000/svg">
<defs>
<symbol id="icon-logo" viewBox="0 0 198 32">
<title>logo</title>
<path fill="#8dc63f" style="fill: var(--color1, #8dc63f)" d="M0 0h31.98v32h-31.98v-32z"></path>
<path fill="#3d4351" style="fill: var(--color2, #3d4351)" d="M17.451 7.96c2.402 0 4.139 0.833 5.756 2.211 0.191 0.191 0.214 0.476 0.024 0.665-0.214 0.214-0.476 0.452-0.665 0.666-0.214 0.237-0.357 0.214-0.618-0.024-1.213-1.070-2.926-1.855-4.519-1.855-3.758 0-6.613 3.14-6.613 6.827 0 3.664 2.855 6.875 6.613 6.875 2.617 0 4.281-0.999 4.281-0.999v-3.33h-2.735c-0.261 0-0.452-0.191-0.452-0.428v-0.88c0-0.261 0.191-0.452 0.452-0.452h4.116c0.237 0 0.428 0.214 0.428 0.452v5.447c0 0.12-0.095 0.308-0.191 0.381 0 0-2.426 1.57-5.875 1.57-4.757 0-8.587-3.782-8.587-8.539-0.002-4.756 3.827-8.587 8.585-8.587z"></path>
<path fill="#fff" style="fill: var(--color3, #fff)" d="M58.819 10.498c1.607 0 2.928 0.586 4.066 1.556 0.134 0.134 0.151 0.334 0.017 0.469l-0.752 0.786c-0.134 0.151-0.267 0.134-0.435-0.017-0.786-0.686-1.824-1.137-2.845-1.137-2.376 0-4.199 2.008-4.199 4.351 0 2.326 1.824 4.334 4.199 4.334 1.388 0 2.343-0.502 2.511-0.569v-1.874h-1.64c-0.185 0-0.318-0.134-0.318-0.3v-0.971c0-0.185 0.134-0.318 0.318-0.318h3.046c0.167 0 0.3 0.151 0.3 0.318l0.017 4.050c0 0.084-0.067 0.217-0.134 0.267 0 0-1.724 1.104-4.149 1.104-3.33 0-6.024-2.661-6.024-6.007s2.69-6.041 6.022-6.041zM69.076 10.985c0-0.167 0.134-0.318 0.318-0.318h6.694c0.185 0 0.318 0.151 0.318 0.318v0.937c0 0.167-0.134 0.318-0.318 0.318h-5.288v3.413h4.469c0.167 0 0.318 0.151 0.318 0.318v0.937c0 0.185-0.151 0.318-0.318 0.318h-4.469v3.598h5.288c0.185 0 0.318 0.151 0.318 0.318v0.921c0 0.167-0.134 0.318-0.318 0.318h-6.694c-0.185 0-0.318-0.151-0.318-0.318v-11.076zM87.415 10.498c1.69 0 2.912 0.569 4.050 1.556 0.151 0.134 0.151 0.334 0.017 0.469l-0.736 0.752c-0.118 0.151-0.267 0.151-0.418 0-0.786-0.686-1.858-1.121-2.896-1.121-2.393 0-4.199 2.008-4.199 4.351s1.824 4.334 4.217 4.334c1.222 0 2.075-0.486 2.878-1.104 0.151-0.117 0.3-0.1 0.401-0.017l0.77 0.752c0.134 0.117 0.101 0.334-0.017 0.452-1.137 1.104-2.576 1.623-4.066 1.623-3.347 0-6.041-2.661-6.041-6.007s2.695-6.041 6.041-6.041zM97.22 11.068c0-0.217 0.167-0.401 0.401-0.401h0.971c0.217 0 0.401 0.185 0.401 0.401v4.635l4.719-4.87c0.067-0.085 0.185-0.167 0.318-0.167h1.255c0.3 0 0.469 0.351 0.234 0.602l-4.836 4.921 5.121 5.639c0.134 0.167 0.051 0.552-0.3 0.552h-1.339c-0.167 0-0.267-0.067-0.3-0.117l-4.87-5.488v5.204c0 0.217-0.185 0.401-0.401 0.401h-0.971c-0.234 0-0.401-0.185-0.401-0.401l-0.001-10.911zM115.911 10.498c3.347 0 6.024 2.695 6.024 6.041s-2.677 6.007-6.024 6.007-6.007-2.661-6.007-6.007 2.661-6.041 6.007-6.041zM115.911 20.875c2.393 0 4.351-1.941 4.351-4.335 0-2.376-1.958-4.368-4.351-4.368-2.376 0-4.335 1.991-4.335 4.368 0.002 2.393 1.959 4.335 4.335 4.335zM127.673 10.985c0-0.167 0.134-0.318 0.318-0.318h3.747c2.025 0 3.481 1.339 3.481 3.096 0 1.289-0.954 2.209-1.74 2.661 0.888 0.368 2.092 1.188 2.092 2.727 0 1.874-1.539 3.23-3.648 3.23h-3.933c-0.185 0-0.318-0.151-0.318-0.318l0.001-11.079zM131.908 20.84c1.021 0 1.807-0.786 1.807-1.824 0-1.021-0.971-1.758-2.059-1.758h-2.292v3.581h2.544zM131.639 15.755c1.071 0 1.724-0.786 1.724-1.79 0-1.021-0.652-1.724-1.724-1.724h-2.259v3.514h2.259zM146.581 10.498c3.347 0 6.024 2.695 6.024 6.041s-2.677 6.007-6.024 6.007-6.007-2.661-6.007-6.007 2.661-6.041 6.007-6.041zM146.581 20.875c2.393 0 4.351-1.941 4.351-4.335 0-2.376-1.958-4.368-4.351-4.368-2.376 0-4.335 1.991-4.335 4.368 0.002 2.393 1.959 4.335 4.335 4.335zM156.706 21.945l5.137-11.262c0.051-0.101 0.201-0.185 0.284-0.185h0.167c0.084 0 0.234 0.085 0.284 0.185l5.104 11.262c0.101 0.217-0.034 0.435-0.285 0.435h-1.054c-0.201 0-0.318-0.101-0.385-0.251l-1.037-2.293h-5.472l-1.021 2.293c-0.051 0.117-0.185 0.251-0.385 0.251h-1.054c-0.249 0-0.383-0.217-0.283-0.435zM164.286 18.398l-2.059-4.584h-0.084l-2.041 4.584h4.185zM172.702 10.985c0-0.167 0.134-0.318 0.318-0.318h4.551c2.008 0 3.648 1.589 3.648 3.581 0 1.539-1.021 2.811-2.477 3.396l2.292 4.25c0.117 0.217 0 0.486-0.285 0.486h-1.305c-0.135 0-0.234-0.084-0.268-0.151l-2.225-4.435h-2.527v4.267c0 0.167-0.151 0.318-0.318 0.318h-1.087c-0.185 0-0.318-0.151-0.318-0.318 0.001 0.001 0.001-11.076 0.001-11.076zM177.438 16.357c1.088 0 2.041-0.921 2.041-2.075 0-1.088-0.954-1.991-2.041-1.991h-2.978v4.066h2.978zM187.176 10.985c0-0.167 0.134-0.318 0.3-0.318h3.848c3.23 0 5.873 2.627 5.873 5.84 0 3.247-2.644 5.873-5.873 5.873h-3.848c-0.167 0-0.3-0.151-0.3-0.318v-11.078zM191.091 20.79c2.46 0 4.25-1.807 4.25-4.284 0-2.46-1.79-4.25-4.25-4.25h-2.209v8.534h2.209z"></path>
</symbol>
</defs>
</svg>
